<svg xmlns="http://www.w3.org/2000/svg" xmlns:xlink="http://www.w3.org/1999/xlink" width="500" zoomAndPan="magnify" viewBox="0 0 375 374.999991" height="500" preserveAspectRatio="xMidYMid meet" version="1.0"><defs><clipPath id="71e28ea088"><path d="M 187.5 0 C 83.945312 0 0 83.945312 0 187.5 C 0 291.054688 83.945312 375 187.5 375 C 291.054688 375 375 291.054688 375 187.5 C 375 83.945312 291.054688 0 187.5 0 Z M 187.5 0 " clip-rule="nonzero"/></clipPath><clipPath id="5784d9e7a8"><path d="M 0 0 L 375 0 L 375 375 L 0 375 Z M 0 0 " clip-rule="nonzero"/></clipPath><clipPath id="b72f9fbfba"><path d="M 187.5 0 C 83.945312 0 0 83.945312 0 187.5 C 0 291.054688 83.945312 375 187.5 375 C 291.054688 375 375 291.054688 375 187.5 C 375 83.945312 291.054688 0 187.5 0 Z M 187.5 0 " clip-rule="nonzero"/></clipPath><clipPath id="94bf94ad98"><rect x="0" width="375" y="0" height="375"/></clipPath><clipPath id="7ccc48d753"><path d="M 114 70.582031 L 120 70.582031 L 120 81 L 114 81 Z M 114 70.582031 " clip-rule="nonzero"/></clipPath><clipPath id="62abbb860e"><path d="M 204 277 L 294 277 L 294 304.582031 L 204 304.582031 Z M 204 277 " clip-rule="nonzero"/></clipPath></defs><g clip-path="url(#71e28ea088)"><g transform="matrix(1, 0, 0, 1, 0, 0)"><g clip-path="url(#94bf94ad98)"><g clip-path="url(#5784d9e7a8)"><g clip-path="url(#b72f9fbfba)"><rect x="-82.5" width="540" fill="#e6ac41" height="539.999987" y="-82.499998" fill-opacity="1"/></g></g></g></g></g><g clip-path="url(#7ccc48d753)"><path fill="#ffffff" d="M 114.808594 78.796875 C 114.839844 79.277344 115.003906 79.707031 115.296875 80.089844 C 115.585938 80.472656 115.960938 80.742188 116.414062 80.898438 C 116.996094 80.898438 117.578125 80.894531 118.160156 80.886719 C 118.878906 80.417969 119.710938 79.789062 119.679688 78.832031 C 119.667969 76.613281 119.738281 74.394531 119.644531 72.179688 C 119.4375 71.710938 119.117188 71.332031 118.6875 71.046875 C 118.257812 70.761719 117.785156 70.617188 117.269531 70.609375 C 116.753906 70.605469 116.277344 70.738281 115.839844 71.011719 C 115.40625 71.289062 115.078125 71.65625 114.859375 72.125 C 114.742188 74.34375 114.828125 76.574219 114.808594 78.796875 Z M 114.808594 78.796875 " fill-opacity="1" fill-rule="nonzero"/></g><path fill="#ffffff" d="M 166.285156 135.503906 C 166.972656 135.695312 167.746094 135.457031 168.402344 135.71875 C 168.757812 136.335938 169.039062 136.988281 169.234375 137.671875 C 170.222656 140.339844 171.523438 142.84375 173.140625 145.183594 C 174.753906 147.523438 176.636719 149.625 178.78125 151.496094 C 180.644531 152.972656 182.691406 154.117188 184.925781 154.9375 C 187.15625 155.753906 189.460938 156.199219 191.839844 156.277344 C 194.160156 156.390625 196.4375 156.136719 198.671875 155.511719 C 200.910156 154.890625 202.992188 153.933594 204.921875 152.640625 C 207.003906 151.203125 208.859375 149.519531 210.496094 147.585938 C 212.128906 145.65625 213.484375 143.542969 214.558594 141.253906 C 215.414062 139.496094 216.074219 137.664062 216.828125 135.867188 C 217.527344 135.820312 218.210938 135.699219 218.882812 135.503906 C 219.558594 135.308594 220.203125 135.046875 220.816406 134.714844 C 221.433594 134.382812 222.007812 133.992188 222.539062 133.535156 C 223.074219 133.082031 223.550781 132.574219 223.972656 132.019531 C 224.398438 131.460938 224.757812 130.867188 225.054688 130.230469 C 225.351562 129.597656 225.578125 128.941406 225.734375 128.257812 C 225.890625 127.574219 225.972656 126.882812 225.980469 126.183594 C 225.988281 125.484375 225.921875 124.792969 225.78125 124.105469 C 225.445312 122.902344 224.871094 121.824219 224.058594 120.875 C 223.246094 119.925781 222.269531 119.195312 221.128906 118.679688 C 222.054688 115.207031 222.492188 111.675781 222.445312 108.082031 C 222.464844 106.253906 222.300781 104.449219 221.953125 102.65625 C 221.601562 100.867188 221.074219 99.128906 220.371094 97.445312 C 219.664062 95.761719 218.792969 94.167969 217.761719 92.664062 C 216.730469 91.160156 215.554688 89.777344 214.238281 88.511719 C 211.90625 86.394531 209.3125 84.671875 206.453125 83.351562 C 203.59375 82.03125 200.601562 81.175781 197.476562 80.777344 C 193.824219 80.300781 190.1875 80.386719 186.5625 81.039062 C 182.933594 81.6875 179.492188 82.871094 176.234375 84.585938 C 173.101562 86.367188 170.453125 88.699219 168.285156 91.578125 C 165.425781 95.605469 163.6875 100.070312 163.070312 104.96875 C 162.578125 109.671875 162.976562 114.300781 164.261719 118.851562 C 163.605469 119.066406 162.996094 119.371094 162.429688 119.765625 C 161.859375 120.160156 161.363281 120.628906 160.929688 121.167969 C 160.5 121.707031 160.15625 122.296875 159.894531 122.9375 C 159.636719 123.578125 159.472656 124.238281 159.40625 124.925781 C 159.339844 125.496094 159.324219 126.0625 159.355469 126.636719 C 159.386719 127.207031 159.46875 127.769531 159.597656 128.328125 C 159.730469 128.882812 159.90625 129.425781 160.132812 129.949219 C 160.355469 130.476562 160.625 130.976562 160.933594 131.457031 C 161.246094 131.9375 161.597656 132.386719 161.988281 132.804688 C 162.378906 133.222656 162.800781 133.605469 163.257812 133.949219 C 163.710938 134.292969 164.195312 134.597656 164.703125 134.855469 C 165.210938 135.117188 165.738281 135.332031 166.285156 135.503906 Z M 174.101562 98.609375 C 175.097656 98.375 175.863281 99.140625 176.617188 99.644531 C 180.015625 102.207031 183.785156 103.992188 187.921875 105 C 190.324219 105.570312 192.761719 105.828125 195.234375 105.769531 C 197.707031 105.710938 200.128906 105.339844 202.503906 104.660156 C 205.054688 103.851562 207.496094 102.792969 209.824219 101.472656 C 210.421875 101.429688 210.980469 101.550781 211.503906 101.835938 C 212.027344 102.125 212.429688 102.527344 212.714844 103.054688 C 212.84375 103.335938 212.914062 103.636719 212.929688 103.945312 C 212.945312 104.257812 212.90625 104.5625 212.808594 104.855469 C 212.707031 105.152344 212.558594 105.421875 212.359375 105.660156 C 212.160156 105.898438 211.925781 106.09375 211.652344 106.246094 C 207.875 108.566406 203.789062 110 199.390625 110.554688 L 199.226562 110.679688 C 195.925781 111.035156 192.628906 110.988281 189.339844 110.539062 C 185.535156 110.015625 181.949219 108.824219 178.589844 106.96875 C 176.433594 105.8125 174.425781 104.429688 172.574219 102.832031 C 172.429688 102.65625 172.3125 102.464844 172.21875 102.257812 C 172.121094 102.054688 172.054688 101.839844 172.015625 101.617188 C 171.980469 101.390625 171.96875 101.167969 171.988281 100.941406 C 172.007812 100.714844 172.058594 100.496094 172.132812 100.285156 C 172.210938 100.070312 172.316406 99.871094 172.445312 99.683594 C 172.574219 99.496094 172.722656 99.332031 172.898438 99.183594 C 173.070312 99.039062 173.257812 98.914062 173.460938 98.816406 C 173.667969 98.71875 173.878906 98.648438 174.101562 98.609375 Z M 174.101562 98.609375 " fill-opacity="1" fill-rule="nonzero"/><path fill="#ffffff" d="M 303.089844 86.054688 C 302.949219 85.703125 302.765625 85.382812 302.527344 85.085938 C 302.292969 84.792969 302.023438 84.539062 301.710938 84.324219 C 301.402344 84.109375 301.066406 83.945312 300.707031 83.828125 C 300.347656 83.714844 299.980469 83.652344 299.605469 83.644531 C 294.257812 83.84375 288.933594 84.367188 283.597656 84.71875 C 283.148438 84.777344 282.722656 84.914062 282.320312 85.121094 C 281.917969 85.328125 281.5625 85.601562 281.257812 85.933594 C 280.949219 86.265625 280.707031 86.640625 280.535156 87.058594 C 280.359375 87.480469 280.261719 87.914062 280.238281 88.367188 C 280.339844 89.296875 280.65625 90.148438 281.191406 90.914062 C 281.722656 91.683594 282.40625 92.28125 283.242188 92.703125 C 282.246094 93.46875 281.210938 94.183594 280.179688 94.898438 C 276.507812 97.285156 273.003906 99.90625 269.371094 102.347656 C 267.773438 103.457031 266.238281 104.660156 264.542969 105.621094 C 264.023438 105.976562 263.496094 105.480469 263.03125 105.269531 C 260.332031 103.867188 257.679688 102.382812 255.027344 100.890625 C 254.5625 100.609375 254.058594 100.480469 253.515625 100.503906 C 252.96875 100.53125 252.480469 100.703125 252.039062 101.027344 C 248.585938 103.382812 245.171875 105.792969 241.792969 108.261719 C 239.628906 109.832031 237.414062 111.339844 235.324219 113.007812 C 234.808594 113.386719 234.398438 113.851562 234.089844 114.410156 C 233.78125 114.96875 233.605469 115.5625 233.558594 116.199219 C 233.527344 116.6875 233.574219 117.167969 233.703125 117.644531 C 233.828125 118.117188 234.023438 118.558594 234.296875 118.964844 C 234.566406 119.375 234.894531 119.730469 235.277344 120.03125 C 235.664062 120.332031 236.089844 120.5625 236.550781 120.726562 C 237.179688 120.921875 237.824219 120.972656 238.476562 120.882812 C 239.128906 120.792969 239.734375 120.566406 240.285156 120.210938 C 242.09375 119.144531 243.757812 117.867188 245.472656 116.671875 C 248.058594 114.757812 250.734375 112.96875 253.359375 111.113281 C 253.691406 110.929688 254.042969 110.519531 254.460938 110.730469 C 256.675781 111.816406 258.78125 113.117188 260.980469 114.246094 C 262.1875 115.078125 263.523438 115.523438 264.992188 115.585938 C 265.859375 115.480469 266.636719 115.15625 267.324219 114.613281 C 274.464844 109.695312 281.566406 104.71875 288.777344 99.90625 C 288.898438 100.878906 289.230469 101.773438 289.769531 102.59375 C 290.304688 103.414062 290.996094 104.078125 291.839844 104.578125 C 292.304688 104.773438 292.789062 104.875 293.292969 104.882812 C 293.796875 104.890625 294.285156 104.800781 294.753906 104.617188 C 295.222656 104.429688 295.640625 104.164062 296.007812 103.816406 C 296.371094 103.46875 296.65625 103.066406 296.863281 102.605469 C 298.878906 98.1875 300.773438 93.710938 302.765625 89.285156 C 303.210938 88.242188 303.320312 87.164062 303.089844 86.054688 Z M 303.089844 86.054688 " fill-opacity="1" fill-rule="nonzero"/><path fill="#ffffff" d="M 83.289062 89.164062 C 84.617188 90.34375 86.011719 91.441406 87.472656 92.457031 C 87.675781 92.519531 87.882812 92.554688 88.09375 92.566406 C 88.304688 92.578125 88.511719 92.566406 88.71875 92.527344 C 88.925781 92.484375 89.125 92.421875 89.316406 92.332031 C 89.507812 92.242188 89.6875 92.132812 89.851562 92 C 90.015625 91.867188 90.164062 91.71875 90.289062 91.550781 C 90.417969 91.382812 90.523438 91.199219 90.605469 91.007812 C 90.691406 90.8125 90.75 90.609375 90.78125 90.402344 C 90.816406 90.195312 90.824219 89.984375 90.804688 89.773438 C 90.695312 88.792969 89.820312 88.191406 89.164062 87.566406 C 87.921875 86.539062 86.761719 85.417969 85.457031 84.480469 C 85.085938 84.199219 84.667969 84.023438 84.207031 83.949219 C 83.746094 83.875 83.296875 83.914062 82.855469 84.066406 C 82.59375 84.171875 82.355469 84.316406 82.136719 84.503906 C 81.921875 84.6875 81.742188 84.898438 81.59375 85.140625 C 81.445312 85.382812 81.339844 85.640625 81.273438 85.917969 C 81.207031 86.191406 81.1875 86.472656 81.210938 86.753906 C 81.648438 87.777344 82.34375 88.582031 83.289062 89.164062 Z M 83.289062 89.164062 " fill-opacity="1" fill-rule="nonzero"/><path fill="#ffffff" d="M 146.660156 92.347656 C 148.230469 91.347656 149.6875 90.199219 151.027344 88.902344 C 151.679688 88.289062 152.605469 87.71875 152.644531 86.722656 C 152.667969 86.507812 152.664062 86.292969 152.628906 86.078125 C 152.597656 85.863281 152.539062 85.65625 152.453125 85.457031 C 152.367188 85.257812 152.257812 85.074219 152.121094 84.902344 C 151.988281 84.730469 151.835938 84.578125 151.664062 84.445312 C 151.492188 84.316406 151.308594 84.207031 151.109375 84.121094 C 150.90625 84.035156 150.699219 83.980469 150.488281 83.945312 C 150.273438 83.914062 150.054688 83.910156 149.839844 83.933594 C 149.625 83.957031 149.417969 84.007812 149.214844 84.085938 C 148.007812 84.792969 146.917969 85.648438 145.945312 86.65625 C 144.953125 87.542969 143.703125 88.367188 143.398438 89.753906 C 143.390625 89.957031 143.40625 90.15625 143.441406 90.355469 C 143.480469 90.554688 143.542969 90.75 143.628906 90.933594 C 143.710938 91.117188 143.816406 91.289062 143.941406 91.449219 C 144.066406 91.609375 144.210938 91.753906 144.367188 91.878906 C 144.527344 92.007812 144.699219 92.113281 144.882812 92.199219 C 145.066406 92.285156 145.257812 92.347656 145.457031 92.386719 C 145.65625 92.429688 145.859375 92.445312 146.058594 92.4375 C 146.261719 92.433594 146.460938 92.402344 146.660156 92.347656 Z M 146.660156 92.347656 " fill-opacity="1" fill-rule="nonzero"/><path fill="#ffffff" d="M 104.320312 150.21875 C 105.960938 150.21875 107.601562 150.257812 109.242188 150.191406 C 108.996094 146.121094 108.519531 142.066406 108.078125 138.015625 C 108.082031 137.628906 107.667969 137.5 107.402344 137.332031 C 103.925781 135.574219 101.023438 133.132812 98.691406 130.011719 C 98.074219 129.179688 97.515625 128.308594 97.015625 127.402344 C 96.519531 126.496094 96.082031 125.558594 95.710938 124.59375 C 95.335938 123.628906 95.03125 122.640625 94.792969 121.632812 C 94.554688 120.628906 94.382812 119.609375 94.28125 118.578125 C 94.179688 117.546875 94.148438 116.515625 94.1875 115.480469 C 94.222656 114.445312 94.332031 113.421875 94.507812 112.398438 C 94.683594 111.378906 94.929688 110.375 95.242188 109.390625 C 95.550781 108.402344 95.929688 107.441406 96.371094 106.503906 C 97.382812 104.441406 98.667969 102.566406 100.230469 100.882812 C 101.796875 99.195312 103.570312 97.773438 105.550781 96.609375 C 107.957031 95.125 110.554688 94.167969 113.351562 93.742188 C 115.011719 93.441406 116.683594 93.332031 118.367188 93.40625 C 120.050781 93.480469 121.707031 93.742188 123.332031 94.1875 C 124.957031 94.632812 126.515625 95.253906 128.003906 96.046875 C 129.488281 96.839844 130.871094 97.789062 132.148438 98.890625 C 133.316406 99.855469 134.375 100.925781 135.324219 102.105469 C 136.273438 103.285156 137.097656 104.550781 137.789062 105.894531 C 138.480469 107.242188 139.03125 108.644531 139.4375 110.105469 C 139.84375 111.5625 140.097656 113.050781 140.203125 114.558594 C 140.394531 116.929688 140.21875 119.273438 139.679688 121.585938 C 139.140625 123.902344 138.261719 126.082031 137.039062 128.121094 C 135.777344 130.253906 134.210938 132.140625 132.347656 133.78125 C 130.484375 135.417969 128.414062 136.726562 126.132812 137.703125 C 125.753906 141.867188 125.25 146.023438 125.070312 150.203125 C 126.851562 150.203125 128.640625 150.269531 130.425781 150.1875 C 131.378906 150.144531 131.734375 149.113281 131.949219 148.339844 C 132.386719 146.503906 132.597656 144.613281 133.15625 142.804688 C 133.222656 142.449219 133.597656 142.3125 133.835938 142.101562 C 137.8125 139.46875 141.046875 136.125 143.542969 132.0625 C 145.0625 129.453125 146.183594 126.683594 146.90625 123.75 C 147.632812 120.820312 147.929688 117.84375 147.800781 114.828125 C 147.742188 113.757812 147.632812 112.695312 147.464844 111.640625 C 147.296875 110.582031 147.074219 109.539062 146.796875 108.503906 C 146.519531 107.472656 146.1875 106.457031 145.804688 105.457031 C 145.421875 104.457031 144.988281 103.480469 144.503906 102.527344 C 144.015625 101.574219 143.484375 100.648438 142.902344 99.75 C 142.320312 98.855469 141.691406 97.988281 141.019531 97.15625 C 140.347656 96.324219 139.632812 95.53125 138.875 94.773438 C 138.121094 94.015625 137.328125 93.300781 136.496094 92.625 C 135.667969 91.949219 134.804688 91.320312 133.90625 90.738281 C 133.011719 90.152344 132.085938 89.617188 131.136719 89.128906 C 130.183594 88.640625 129.207031 88.207031 128.210938 87.820312 C 127.210938 87.433594 126.195312 87.101562 125.164062 86.820312 C 124.132812 86.542969 123.085938 86.316406 122.03125 86.148438 C 120.972656 85.976562 119.914062 85.863281 118.84375 85.804688 C 117.777344 85.742188 116.707031 85.738281 115.640625 85.792969 C 114.570312 85.84375 113.507812 85.953125 112.449219 86.117188 C 108.003906 86.859375 103.894531 88.464844 100.125 90.929688 C 97.300781 92.886719 94.859375 95.242188 92.796875 97.988281 C 90.738281 100.738281 89.164062 103.742188 88.078125 107.003906 C 86.867188 111.203125 86.457031 115.480469 86.851562 119.832031 C 87.304688 123.417969 88.316406 126.835938 89.894531 130.085938 C 91.453125 133.113281 93.429688 135.835938 95.824219 138.253906 C 97.445312 139.898438 99.386719 141.183594 101.152344 142.65625 C 101.789062 144.761719 102.027344 146.980469 102.789062 149.054688 C 103.058594 149.652344 103.582031 150.316406 104.320312 150.21875 Z M 104.320312 150.21875 " fill-opacity="1" fill-rule="nonzero"/><path fill="#ffffff" d="M 129.167969 128.652344 C 129.65625 128.179688 130.113281 127.675781 130.542969 127.148438 C 130.972656 126.621094 131.367188 126.066406 131.730469 125.492188 C 132.09375 124.914062 132.417969 124.320312 132.710938 123.703125 C 133 123.085938 133.253906 122.457031 133.46875 121.8125 C 133.683594 121.164062 133.859375 120.507812 133.996094 119.84375 C 134.132812 119.175781 134.230469 118.503906 134.285156 117.824219 C 134.34375 117.144531 134.359375 116.464844 134.332031 115.785156 C 134.308594 115.105469 134.242188 114.429688 134.132812 113.757812 C 134.027344 113.085938 133.882812 112.421875 133.695312 111.765625 C 133.511719 111.113281 133.285156 110.472656 133.023438 109.84375 C 132.757812 109.214844 132.460938 108.605469 132.125 108.011719 C 131.789062 107.421875 131.417969 106.851562 131.015625 106.304688 C 130.609375 105.753906 130.175781 105.234375 129.707031 104.738281 C 129.242188 104.242188 128.746094 103.777344 128.222656 103.339844 C 127.699219 102.90625 127.152344 102.5 126.582031 102.132812 C 126.011719 101.761719 125.421875 101.425781 124.808594 101.125 C 123.03125 100.253906 121.15625 99.703125 119.1875 99.472656 C 117.21875 99.242188 115.269531 99.339844 113.335938 99.773438 C 112.011719 100.082031 110.746094 100.542969 109.53125 101.160156 C 108.320312 101.773438 107.199219 102.523438 106.164062 103.40625 C 105.132812 104.292969 104.21875 105.285156 103.425781 106.390625 C 102.632812 107.492188 101.980469 108.675781 101.472656 109.933594 C 100.625 112.09375 100.230469 114.332031 100.285156 116.652344 C 100.339844 118.96875 100.84375 121.1875 101.792969 123.304688 C 102.90625 125.578125 104.390625 127.582031 106.242188 129.3125 C 108.089844 131.046875 110.1875 132.390625 112.535156 133.351562 C 112.609375 133.496094 112.765625 133.796875 112.84375 133.945312 C 113.324219 136.824219 113.371094 139.753906 113.664062 142.652344 C 113.789062 145.171875 113.765625 147.699219 114.007812 150.210938 C 116.171875 150.199219 118.335938 150.25 120.496094 150.183594 C 120.511719 146.925781 120.695312 143.679688 120.875 140.429688 C 121.003906 138.035156 121.273438 135.660156 121.6875 133.296875 C 124.449219 132.183594 126.941406 130.632812 129.167969 128.652344 Z M 129.167969 128.652344 " fill-opacity="1" fill-rule="nonzero"/><path fill="#ffffff" d="M 81.511719 113.761719 C 81.355469 113.292969 81.078125 112.917969 80.679688 112.636719 C 80.277344 112.351562 79.832031 112.210938 79.34375 112.21875 C 77.636719 112.214844 75.933594 112.210938 74.234375 112.214844 C 73.960938 112.199219 73.695312 112.226562 73.433594 112.304688 C 73.171875 112.378906 72.933594 112.5 72.714844 112.660156 C 72.496094 112.824219 72.3125 113.019531 72.160156 113.246094 C 72.011719 113.472656 71.90625 113.71875 71.847656 113.984375 C 71.800781 114.292969 71.808594 114.601562 71.867188 114.910156 C 71.929688 115.214844 72.042969 115.503906 72.203125 115.769531 C 72.367188 116.035156 72.570312 116.265625 72.8125 116.460938 C 73.058594 116.65625 73.328125 116.804688 73.625 116.902344 C 75.820312 116.902344 78.015625 116.921875 80.210938 116.921875 C 80.480469 116.765625 80.714844 116.574219 80.917969 116.339844 C 81.125 116.109375 81.285156 115.847656 81.402344 115.5625 C 81.519531 115.277344 81.585938 114.980469 81.605469 114.671875 C 81.625 114.363281 81.59375 114.058594 81.511719 113.761719 Z M 81.511719 113.761719 " fill-opacity="1" fill-rule="nonzero"/><path fill="#ffffff" d="M 292.769531 118.84375 C 292.007812 118.359375 291.175781 118.105469 290.273438 118.082031 C 289.371094 118.054688 288.523438 118.265625 287.738281 118.707031 C 286.640625 119.386719 285.875 120.332031 285.445312 121.546875 C 285.1875 123.140625 285.101562 124.746094 285.191406 126.355469 C 285.210938 133.863281 285.175781 141.367188 285.191406 148.875 C 285.375 149.746094 285.699219 150.554688 286.167969 151.3125 C 286.636719 151.984375 287.238281 152.503906 287.972656 152.875 C 288.707031 153.242188 289.484375 153.414062 290.304688 153.390625 C 290.949219 153.335938 291.5625 153.167969 292.148438 152.886719 C 292.730469 152.605469 293.25 152.234375 293.695312 151.765625 C 294.144531 151.296875 294.496094 150.765625 294.75 150.167969 C 295.003906 149.574219 295.144531 148.953125 295.171875 148.304688 C 295.179688 139.949219 295.210938 131.597656 295.15625 123.246094 C 295.15625 122.355469 294.945312 121.523438 294.523438 120.742188 C 294.097656 119.960938 293.515625 119.328125 292.769531 118.84375 Z M 292.769531 118.84375 " fill-opacity="1" fill-rule="nonzero"/><path fill="#ffffff" d="M 264.136719 152.828125 C 265.246094 153.339844 266.390625 153.453125 267.574219 153.164062 C 268.164062 153.007812 268.710938 152.753906 269.214844 152.410156 C 269.71875 152.066406 270.152344 151.648438 270.511719 151.15625 C 270.875 150.664062 271.148438 150.128906 271.328125 149.546875 C 271.507812 148.960938 271.589844 148.367188 271.570312 147.753906 C 271.496094 143.058594 271.585938 138.359375 271.542969 133.660156 C 271.492188 133.308594 271.40625 132.964844 271.289062 132.628906 C 271.167969 132.292969 271.019531 131.972656 270.835938 131.667969 C 270.652344 131.363281 270.445312 131.078125 270.207031 130.8125 C 269.96875 130.546875 269.707031 130.308594 269.421875 130.097656 C 269.136719 129.882812 268.832031 129.699219 268.511719 129.546875 C 268.191406 129.394531 267.859375 129.273438 267.511719 129.183594 C 267.167969 129.097656 266.820312 129.042969 266.464844 129.023438 C 266.109375 129.003906 265.753906 129.019531 265.402344 129.070312 C 264.808594 129.191406 264.253906 129.410156 263.738281 129.726562 C 263.21875 130.042969 262.773438 130.4375 262.394531 130.910156 C 262.015625 131.378906 261.726562 131.902344 261.53125 132.476562 C 261.332031 133.046875 261.238281 133.636719 261.25 134.242188 C 261.269531 138.839844 261.230469 143.433594 261.238281 148.027344 C 261.242188 148.523438 261.308594 149.007812 261.441406 149.480469 C 261.578125 149.957031 261.773438 150.40625 262.027344 150.828125 C 262.28125 151.25 262.589844 151.632812 262.949219 151.96875 C 263.304688 152.308594 263.703125 152.597656 264.136719 152.828125 Z M 264.136719 152.828125 " fill-opacity="1" fill-rule="nonzero"/><path fill="#ffffff" d="M 243.355469 133.683594 C 243.003906 133.617188 242.652344 133.589844 242.292969 133.597656 C 241.9375 133.609375 241.585938 133.652344 241.238281 133.734375 C 240.890625 133.816406 240.558594 133.933594 240.234375 134.085938 C 239.910156 134.238281 239.609375 134.421875 239.324219 134.636719 C 239.039062 134.851562 238.78125 135.09375 238.546875 135.363281 C 238.3125 135.632812 238.109375 135.921875 237.933594 136.234375 C 237.761719 136.546875 237.621094 136.871094 237.515625 137.214844 C 237.410156 137.554688 237.339844 137.902344 237.308594 138.257812 C 237.257812 141.511719 237.292969 144.769531 237.289062 148.023438 C 237.296875 148.371094 237.332031 148.710938 237.402344 149.050781 C 237.472656 149.386719 237.574219 149.714844 237.707031 150.035156 C 237.839844 150.355469 238 150.660156 238.1875 150.949219 C 238.375 151.238281 238.589844 151.503906 238.828125 151.753906 C 239.066406 152.003906 239.328125 152.226562 239.609375 152.425781 C 239.890625 152.628906 240.1875 152.800781 240.503906 152.945312 C 240.816406 153.085938 241.140625 153.203125 241.476562 153.285156 C 241.808594 153.367188 242.148438 153.417969 242.496094 153.4375 C 243.125 153.410156 243.734375 153.277344 244.316406 153.039062 C 244.902344 152.800781 245.429688 152.472656 245.898438 152.050781 C 246.367188 151.628906 246.753906 151.144531 247.054688 150.589844 C 247.355469 150.035156 247.554688 149.445312 247.652344 148.820312 C 247.714844 145.742188 247.652344 142.65625 247.671875 139.578125 C 247.710938 138.910156 247.632812 138.257812 247.445312 137.621094 C 247.253906 136.980469 246.964844 136.394531 246.570312 135.855469 C 246.175781 135.320312 245.703125 134.863281 245.152344 134.488281 C 244.601562 134.117188 244 133.847656 243.355469 133.683594 Z M 243.355469 133.683594 " fill-opacity="1" fill-rule="nonzero"/><path fill="#ffffff" d="M 86.242188 136.765625 C 84.988281 137.09375 84.167969 138.203125 83.144531 138.929688 C 82.167969 139.777344 80.796875 140.640625 80.800781 142.09375 C 80.632812 143.726562 82.695312 145.351562 84.179688 144.414062 C 85.441406 143.539062 86.65625 142.597656 87.820312 141.601562 C 88.398438 141.226562 88.828125 140.730469 89.113281 140.101562 C 89.175781 139.894531 89.210938 139.679688 89.222656 139.460938 C 89.230469 139.242188 89.210938 139.023438 89.167969 138.808594 C 89.121094 138.59375 89.050781 138.390625 88.953125 138.191406 C 88.855469 137.996094 88.734375 137.816406 88.589844 137.648438 C 88.449219 137.484375 88.289062 137.335938 88.109375 137.210938 C 87.929688 137.085938 87.734375 136.984375 87.53125 136.90625 C 87.324219 136.828125 87.113281 136.78125 86.894531 136.753906 C 86.679688 136.730469 86.460938 136.734375 86.242188 136.765625 Z M 86.242188 136.765625 " fill-opacity="1" fill-rule="nonzero"/><path fill="#ffffff" d="M 149.394531 137.265625 C 149.21875 137.136719 149.03125 137.035156 148.828125 136.957031 C 148.625 136.878906 148.414062 136.828125 148.199219 136.804688 C 147.984375 136.78125 147.769531 136.789062 147.554688 136.820312 C 147.339844 136.855469 147.132812 136.917969 146.933594 137.003906 C 146.734375 137.09375 146.550781 137.203125 146.382812 137.339844 C 146.210938 137.476562 146.0625 137.632812 145.9375 137.808594 C 145.808594 137.984375 145.703125 138.171875 145.625 138.375 C 145.546875 138.578125 145.496094 138.785156 145.472656 139.003906 C 145.191406 140.191406 146.15625 141.058594 146.953125 141.761719 C 148.128906 142.851562 149.382812 143.847656 150.714844 144.742188 C 151.125 144.75 151.539062 144.761719 151.957031 144.773438 C 153.273438 144.246094 154.492188 142.640625 153.660156 141.238281 C 152.453125 139.683594 151.03125 138.359375 149.394531 137.265625 Z M 149.394531 137.265625 " fill-opacity="1" fill-rule="nonzero"/><path fill="#ffffff" d="M 125.039062 170.917969 C 126.328125 171.035156 127.597656 170.9375 128.855469 170.632812 C 129.285156 170.378906 129.628906 170.042969 129.890625 169.617188 C 130.152344 169.195312 130.296875 168.734375 130.328125 168.238281 C 130.359375 164.871094 130.34375 161.5 130.347656 158.132812 C 130.351562 157.433594 129.621094 157.054688 129.183594 156.625 C 121.371094 156.625 113.558594 156.625 105.75 156.632812 C 105.503906 156.609375 105.265625 156.640625 105.035156 156.722656 C 104.800781 156.804688 104.597656 156.933594 104.421875 157.105469 C 104.246094 157.277344 104.113281 157.480469 104.023438 157.710938 C 103.9375 157.941406 103.902344 158.179688 103.917969 158.425781 C 103.949219 161.621094 103.921875 164.820312 103.945312 168.015625 C 103.972656 168.542969 104.125 169.027344 104.402344 169.476562 C 104.679688 169.925781 105.046875 170.277344 105.507812 170.539062 C 106.671875 170.964844 107.871094 171.105469 109.101562 170.957031 C 109.375 171.972656 109.839844 172.894531 110.496094 173.714844 C 111.15625 174.539062 111.949219 175.191406 112.882812 175.679688 C 113.875 176.171875 114.917969 176.488281 116.015625 176.628906 C 117.113281 176.769531 118.203125 176.722656 119.285156 176.496094 C 120.710938 176.074219 121.972656 175.355469 123.0625 174.34375 C 123.976562 173.351562 124.636719 172.207031 125.039062 170.917969 Z M 125.039062 170.917969 " fill-opacity="1" fill-rule="nonzero"/><path fill="#ffffff" d="M 206.871094 167.855469 C 208.082031 166.632812 209.023438 165.230469 209.695312 163.648438 C 210.367188 162.066406 210.71875 160.414062 210.753906 158.695312 C 210.648438 158.3125 210.5625 157.925781 210.480469 157.542969 L 210.109375 156.792969 C 209.808594 156.921875 209.523438 157.089844 209.261719 157.289062 C 206.933594 159.183594 204.359375 160.648438 201.546875 161.691406 C 197.179688 163.152344 192.722656 163.515625 188.179688 162.789062 C 185.863281 162.484375 183.644531 161.839844 181.527344 160.863281 C 179.40625 159.886719 177.476562 158.621094 175.738281 157.058594 C 175.566406 156.835938 175.34375 156.765625 175.078125 156.855469 C 174.574219 157.589844 174.363281 158.402344 174.449219 159.289062 C 174.507812 160.613281 174.78125 161.890625 175.273438 163.121094 C 175.761719 164.351562 176.441406 165.464844 177.3125 166.464844 C 179.710938 169.480469 182.660156 171.804688 186.152344 173.4375 C 186.242188 174.09375 185.617188 174.660156 185.410156 175.277344 C 185.058594 175.960938 184.808594 176.679688 184.652344 177.433594 C 184.496094 178.1875 184.441406 178.949219 184.492188 179.71875 C 184.542969 180.488281 184.695312 181.234375 184.949219 181.960938 C 185.199219 182.6875 185.546875 183.371094 185.980469 184.003906 C 186.273438 184.40625 186.597656 184.777344 186.957031 185.125 C 187.3125 185.46875 187.699219 185.777344 188.109375 186.054688 C 188.523438 186.332031 188.957031 186.570312 189.410156 186.769531 C 189.867188 186.96875 190.335938 187.128906 190.816406 187.246094 C 191.300781 187.363281 191.789062 187.4375 192.285156 187.46875 C 192.78125 187.5 193.277344 187.484375 193.769531 187.429688 C 194.261719 187.371094 194.746094 187.273438 195.222656 187.128906 C 195.699219 186.988281 196.160156 186.804688 196.601562 186.582031 C 197.277344 186.238281 197.894531 185.8125 198.449219 185.300781 C 199.003906 184.785156 199.476562 184.207031 199.871094 183.558594 C 200.261719 182.914062 200.558594 182.226562 200.757812 181.496094 C 200.957031 180.765625 201.050781 180.023438 201.042969 179.265625 C 201.046875 178.21875 200.871094 177.203125 200.515625 176.21875 C 200.164062 175.234375 199.648438 174.339844 198.976562 173.539062 C 201.957031 172.128906 204.589844 170.234375 206.871094 167.855469 Z M 206.871094 167.855469 " fill-opacity="1" fill-rule="nonzero"/><path fill="#ffffff" d="M 220.90625 232.269531 C 221.257812 231.355469 221.554688 230.421875 221.800781 229.476562 C 222.140625 228.5 222.546875 227.550781 223.015625 226.628906 C 223.488281 225.707031 224.019531 224.820312 224.609375 223.972656 C 225.203125 223.121094 225.847656 222.316406 226.550781 221.554688 C 227.25 220.792969 228 220.085938 228.796875 219.425781 C 229.597656 218.765625 230.433594 218.164062 231.316406 217.621094 C 232.195312 217.074219 233.109375 216.59375 234.054688 216.171875 C 235 215.753906 235.96875 215.398438 236.964844 215.109375 C 237.957031 214.824219 238.96875 214.601562 239.992188 214.453125 C 241.097656 214.253906 242.210938 214.179688 243.335938 214.222656 C 246.429688 214.226562 249.519531 214.21875 252.613281 214.230469 C 255.460938 214.304688 258.1875 214.914062 260.789062 216.066406 C 261.101562 216.15625 261.417969 216.242188 261.734375 216.328125 C 261.796875 212.597656 261.761719 208.867188 261.808594 205.140625 C 261.878906 203.457031 261.808594 201.777344 261.597656 200.101562 C 261.222656 196.964844 260.445312 193.929688 259.269531 191 C 258.089844 188.066406 256.554688 185.335938 254.65625 182.8125 C 252.457031 179.925781 249.84375 177.472656 246.820312 175.460938 C 243.949219 173.644531 240.925781 172.132812 237.75 170.925781 C 232.203125 168.558594 226.617188 166.289062 221.078125 163.910156 C 220.839844 163.777344 220.585938 163.6875 220.316406 163.648438 C 220.046875 163.605469 219.78125 163.609375 219.515625 163.660156 C 219.246094 163.714844 218.996094 163.8125 218.765625 163.953125 C 218.535156 164.097656 218.332031 164.273438 218.164062 164.488281 C 217.480469 165.863281 216.964844 167.296875 216.621094 168.792969 C 215.496094 172.875 214.226562 176.914062 212.992188 180.964844 C 209.5625 192.554688 205.953125 204.089844 202.640625 215.714844 C 202.101562 217.507812 201.753906 219.355469 201.121094 221.121094 C 200.847656 219.929688 200.640625 218.726562 200.507812 217.511719 C 199.710938 211.78125 198.921875 206.050781 198.375 200.289062 L 198.257812 200.128906 C 198.128906 198.085938 197.683594 196.074219 197.5 194.039062 C 194.285156 194.144531 191.066406 194.003906 187.851562 194.0625 C 186.734375 201.191406 186.101562 208.390625 185.074219 215.53125 C 184.984375 216.277344 184.933594 217.03125 184.789062 217.773438 C 184.695312 218.855469 184.542969 219.925781 184.332031 220.992188 C 182.707031 215.300781 180.910156 209.65625 179.214844 203.984375 C 178.257812 200.398438 177.054688 196.878906 176.15625 193.277344 L 176.039062 193.101562 C 175.085938 189.671875 174.050781 186.265625 173.039062 182.851562 L 172.9375 182.691406 C 171.539062 177.25 169.773438 171.914062 168.246094 166.507812 C 168.164062 165.914062 167.953125 165.371094 167.617188 164.878906 C 167.277344 164.382812 166.847656 163.992188 166.328125 163.699219 C 165.042969 163.558594 163.839844 163.8125 162.722656 164.460938 C 157.921875 166.511719 153.066406 168.441406 148.3125 170.589844 C 145.632812 171.667969 143.027344 172.894531 140.488281 174.273438 C 138.199219 175.640625 136.089844 177.253906 134.164062 179.105469 C 132.242188 180.957031 130.550781 183 129.09375 185.238281 C 127.636719 187.472656 126.449219 189.847656 125.535156 192.355469 C 124.621094 194.863281 124 197.441406 123.671875 200.09375 C 123.59375 201.601562 123.140625 203.058594 123.03125 204.5625 C 122.859375 213.757812 123.085938 222.957031 122.90625 232.148438 C 123.128906 233.84375 122.757812 235.542969 122.882812 237.242188 C 122.964844 238.082031 122.984375 238.925781 122.949219 239.769531 C 123.003906 249.429688 122.941406 259.097656 122.972656 268.761719 L 122.859375 268.945312 C 122.90625 274.121094 122.75 279.300781 122.980469 284.46875 C 122.941406 285.539062 123.050781 286.589844 123.308594 287.628906 C 123.566406 288.664062 123.960938 289.648438 124.496094 290.574219 C 125.027344 291.5 125.679688 292.335938 126.445312 293.078125 C 127.214844 293.820312 128.070312 294.445312 129.011719 294.949219 C 130.546875 295.714844 132.171875 296.089844 133.886719 296.078125 C 137.746094 296.066406 141.601562 296.082031 145.464844 296.066406 C 145.78125 296.082031 146.085938 296.035156 146.382812 295.925781 C 146.679688 295.816406 146.941406 295.652344 147.171875 295.433594 C 147.398438 295.214844 147.574219 294.960938 147.699219 294.667969 C 147.824219 294.378906 147.882812 294.074219 147.882812 293.757812 C 147.867188 285.59375 147.957031 277.429688 147.886719 269.265625 C 147.839844 268.703125 147.878906 268.148438 148.011719 267.597656 C 147.84375 266.078125 147.816406 264.554688 147.921875 263.03125 L 148.128906 262.808594 L 147.917969 262.597656 C 147.832031 260.886719 147.855469 259.175781 147.984375 257.46875 C 147.902344 257.105469 147.90625 256.742188 147.988281 256.382812 C 148.121094 255.417969 148.0625 254.46875 147.816406 253.527344 C 148.152344 253.144531 147.972656 252.585938 148.027344 252.128906 C 147.957031 248.9375 148.132812 245.738281 147.925781 242.554688 C 148.078125 240.40625 148.074219 238.253906 147.910156 236.101562 C 147.929688 235.4375 147.980469 234.773438 147.976562 234.109375 C 148.011719 233.355469 147.921875 232.601562 147.910156 231.847656 C 148.144531 229.617188 147.953125 227.359375 148.019531 225.117188 C 147.8125 223.332031 147.882812 221.554688 148.238281 219.789062 C 148.695312 218.929688 149.328125 218.226562 150.136719 217.683594 C 151.089844 217.308594 152.070312 217.21875 153.078125 217.40625 C 153.855469 217.671875 154.507812 218.125 155.03125 218.757812 C 155.550781 219.386719 155.871094 220.109375 155.988281 220.925781 C 156.015625 245.101562 155.957031 269.28125 155.988281 293.460938 C 155.960938 293.816406 156.011719 294.160156 156.136719 294.496094 C 156.261719 294.828125 156.449219 295.121094 156.707031 295.371094 C 156.960938 295.621094 157.253906 295.808594 157.589844 295.929688 C 157.925781 296.050781 158.273438 296.09375 158.628906 296.0625 C 170.367188 296.074219 182.109375 296.042969 193.851562 296.058594 C 194.148438 296.09375 194.4375 296.066406 194.722656 295.980469 C 195.007812 295.894531 195.265625 295.753906 195.492188 295.558594 C 195.722656 295.367188 195.902344 295.136719 196.03125 294.871094 C 196.164062 294.601562 196.238281 294.320312 196.253906 294.023438 C 196.273438 280.695312 196.285156 267.367188 196.285156 254.035156 L 196.402344 253.847656 C 196.171875 250.726562 196.601562 247.703125 197.699219 244.773438 C 198.195312 243.535156 198.808594 242.359375 199.539062 241.242188 C 200.269531 240.125 201.101562 239.089844 202.035156 238.136719 C 202.96875 237.183594 203.988281 236.332031 205.089844 235.582031 C 206.195312 234.832031 207.359375 234.195312 208.589844 233.675781 C 212.570312 232.109375 216.675781 231.640625 220.90625 232.269531 Z M 220.90625 232.269531 " fill-opacity="1" fill-rule="nonzero"/><path fill="#ffffff" d="M 282.726562 240.992188 C 277.152344 241.078125 271.570312 240.980469 265.996094 241.046875 C 266.148438 238.203125 266.023438 235.375 265.625 232.558594 C 264.992188 230.253906 263.820312 228.261719 262.105469 226.59375 C 261.101562 225.488281 259.921875 224.621094 258.570312 223.988281 C 257.21875 223.359375 255.792969 223.011719 254.304688 222.949219 C 250.078125 222.9375 245.851562 222.9375 241.625 222.949219 C 239.292969 222.933594 237.144531 223.558594 235.179688 224.820312 C 233.8125 225.773438 232.640625 226.929688 231.671875 228.289062 C 230.707031 229.648438 229.992188 231.128906 229.539062 232.734375 C 229.21875 235.492188 229.085938 238.261719 229.140625 241.035156 C 224.960938 241.015625 220.785156 241.007812 216.605469 241.023438 C 215.140625 240.917969 213.695312 241.035156 212.265625 241.371094 C 211.710938 241.542969 211.171875 241.757812 210.652344 242.015625 C 210.128906 242.273438 209.632812 242.570312 209.160156 242.90625 C 208.6875 243.246094 208.242188 243.617188 207.828125 244.023438 C 207.414062 244.433594 207.035156 244.871094 206.691406 245.339844 C 206.347656 245.804688 206.042969 246.300781 205.777344 246.816406 C 205.511719 247.332031 205.289062 247.867188 205.109375 248.417969 C 204.925781 248.972656 204.792969 249.535156 204.703125 250.109375 C 204.609375 250.683594 204.566406 251.257812 204.566406 251.839844 C 204.542969 257.921875 204.605469 264.003906 204.585938 270.089844 C 204.917969 270.117188 205.253906 270.15625 205.589844 270.167969 C 210.003906 269.945312 214.433594 270.082031 218.855469 270.042969 C 225.5625 270.019531 232.269531 270.078125 238.976562 270.03125 C 238.882812 269.117188 239.046875 268.253906 239.480469 267.441406 C 239.855469 266.824219 240.359375 266.351562 241 266.019531 C 241.636719 265.683594 242.316406 265.539062 243.035156 265.585938 C 246.429688 265.605469 249.824219 265.5625 253.21875 265.582031 C 253.726562 265.667969 254.199219 265.847656 254.636719 266.121094 C 255.074219 266.398438 255.441406 266.746094 255.742188 267.164062 C 256.039062 267.585938 256.246094 268.046875 256.363281 268.550781 C 256.480469 269.054688 256.496094 269.558594 256.410156 270.070312 C 268.59375 270.023438 280.78125 270.019531 292.96875 270.050781 C 293.015625 264.074219 292.957031 258.101562 292.976562 252.125 C 293.019531 251.417969 292.996094 250.714844 292.898438 250.015625 C 292.800781 249.316406 292.632812 248.632812 292.394531 247.964844 C 292.160156 247.300781 291.859375 246.664062 291.496094 246.058594 C 291.128906 245.453125 290.707031 244.890625 290.230469 244.371094 C 289.75 243.847656 289.222656 243.382812 288.652344 242.96875 C 288.078125 242.554688 287.46875 242.203125 286.824219 241.914062 C 286.179688 241.621094 285.511719 241.398438 284.820312 241.246094 C 284.132812 241.089844 283.433594 241.003906 282.726562 240.992188 Z M 257.5 241.042969 C 250.914062 240.996094 244.328125 241.027344 237.738281 241.054688 C 237.769531 239.296875 237.734375 237.539062 237.75 235.777344 C 237.761719 235.480469 237.804688 235.183594 237.871094 234.890625 C 237.941406 234.601562 238.039062 234.320312 238.164062 234.046875 C 238.289062 233.773438 238.441406 233.515625 238.617188 233.273438 C 238.792969 233.03125 238.992188 232.808594 239.210938 232.605469 C 239.429688 232.402344 239.667969 232.21875 239.925781 232.0625 C 240.179688 231.90625 240.449219 231.777344 240.730469 231.671875 C 241.011719 231.570312 241.300781 231.496094 241.597656 231.449219 C 241.890625 231.402344 242.191406 231.382812 242.488281 231.394531 C 246.226562 231.417969 249.972656 231.371094 253.710938 231.433594 C 254.203125 231.539062 254.664062 231.714844 255.097656 231.964844 C 255.535156 232.210938 255.925781 232.519531 256.265625 232.882812 C 256.609375 233.25 256.886719 233.660156 257.105469 234.109375 C 257.324219 234.5625 257.46875 235.035156 257.542969 235.53125 C 257.589844 237.367188 257.480469 239.203125 257.5 241.042969 Z M 257.5 241.042969 " fill-opacity="1" fill-rule="nonzero"/><g clip-path="url(#62abbb860e)"><path fill="#ffffff" d="M 292.960938 290.953125 C 292.96875 286.335938 292.980469 281.71875 292.953125 277.105469 C 284.285156 277.117188 275.617188 277.121094 266.953125 277.121094 C 263.429688 277.167969 259.90625 277.015625 256.386719 277.222656 C 256.507812 278.429688 256.425781 279.621094 256.140625 280.796875 C 256.019531 281.132812 255.851562 281.441406 255.636719 281.726562 C 255.421875 282.011719 255.171875 282.257812 254.882812 282.46875 C 254.59375 282.675781 254.28125 282.839844 253.945312 282.957031 C 253.609375 283.074219 253.261719 283.140625 252.90625 283.152344 C 249.429688 283.15625 245.949219 283.144531 242.472656 283.148438 C 241.828125 283.171875 241.230469 283.019531 240.675781 282.695312 C 240.121094 282.367188 239.695312 281.917969 239.402344 281.34375 C 238.945312 279.953125 238.792969 278.53125 238.941406 277.078125 C 233.464844 277.179688 227.984375 277.097656 222.507812 277.136719 C 216.542969 277.097656 210.578125 277.148438 204.609375 277.109375 C 204.484375 281.808594 204.59375 286.519531 204.558594 291.21875 C 204.40625 293.171875 204.542969 295.105469 204.960938 297.019531 C 205.230469 297.875 205.605469 298.683594 206.082031 299.445312 C 206.558594 300.203125 207.121094 300.894531 207.773438 301.511719 C 208.425781 302.128906 209.144531 302.65625 209.929688 303.089844 C 210.714844 303.527344 211.542969 303.855469 212.410156 304.082031 C 213.882812 304.382812 215.367188 304.476562 216.867188 304.371094 C 237.882812 304.378906 258.894531 304.375 279.914062 304.363281 C 281.921875 304.515625 283.914062 304.375 285.878906 303.9375 C 286.683594 303.675781 287.445312 303.320312 288.160156 302.871094 C 288.875 302.421875 289.523438 301.890625 290.105469 301.277344 C 290.6875 300.664062 291.1875 299.988281 291.597656 299.25 C 292.011719 298.511719 292.328125 297.734375 292.546875 296.917969 C 292.976562 294.949219 293.117188 292.960938 292.960938 290.953125 Z M 292.960938 290.953125 " fill-opacity="1" fill-rule="nonzero"/></g></svg>