<svg xmlns="http://www.w3.org/2000/svg" xmlns:xlink="http://www.w3.org/1999/xlink" width="500" zoomAndPan="magnify" viewBox="0 0 375 374.999991" height="500" preserveAspectRatio="xMidYMid meet" version="1.0"><defs><clipPath id="62adb7362e"><path d="M 187.5 0 C 83.945312 0 0 83.945312 0 187.5 C 0 291.054688 83.945312 375 187.5 375 C 291.054688 375 375 291.054688 375 187.5 C 375 83.945312 291.054688 0 187.5 0 Z M 187.5 0 " clip-rule="nonzero"/></clipPath><clipPath id="d66a966d85"><path d="M 0 0 L 375 0 L 375 375 L 0 375 Z M 0 0 " clip-rule="nonzero"/></clipPath><clipPath id="38482b8aa3"><path d="M 187.5 0 C 83.945312 0 0 83.945312 0 187.5 C 0 291.054688 83.945312 375 187.5 375 C 291.054688 375 375 291.054688 375 187.5 C 375 83.945312 291.054688 0 187.5 0 Z M 187.5 0 " clip-rule="nonzero"/></clipPath><clipPath id="3671dd52c5"><rect x="0" width="375" y="0" height="375"/></clipPath><clipPath id="77df9f14bd"><path d="M 84 74.761719 L 291 74.761719 L 291 300.511719 L 84 300.511719 Z M 84 74.761719 " clip-rule="nonzero"/></clipPath></defs><g clip-path="url(#62adb7362e)"><g transform="matrix(1, 0, 0, 1, 0, 0)"><g clip-path="url(#3671dd52c5)"><g clip-path="url(#d66a966d85)"><g clip-path="url(#38482b8aa3)"><rect x="-82.5" width="540" fill="#e6ac41" height="539.999987" y="-82.499998" fill-opacity="1"/></g></g></g></g></g><g clip-path="url(#77df9f14bd)"><path fill="#ffffff" d="M 154.90625 145.273438 L 154.90625 155.289062 C 154.90625 155.644531 154.839844 155.984375 154.707031 156.308594 C 154.570312 156.636719 154.378906 156.921875 154.128906 157.171875 C 153.878906 157.421875 153.589844 157.613281 153.265625 157.75 C 152.9375 157.886719 152.597656 157.953125 152.246094 157.953125 C 151.890625 157.953125 151.550781 157.886719 151.226562 157.75 C 150.898438 157.613281 150.613281 157.421875 150.363281 157.171875 C 150.113281 156.921875 149.921875 156.636719 149.785156 156.308594 C 149.648438 155.984375 149.582031 155.644531 149.582031 155.289062 L 149.582031 145.273438 C 149.582031 144.917969 149.648438 144.578125 149.785156 144.253906 C 149.921875 143.925781 150.113281 143.636719 150.363281 143.390625 C 150.613281 143.140625 150.898438 142.945312 151.226562 142.8125 C 151.550781 142.675781 151.890625 142.609375 152.246094 142.609375 C 152.597656 142.609375 152.9375 142.675781 153.265625 142.8125 C 153.589844 142.945312 153.878906 143.140625 154.128906 143.390625 C 154.378906 143.636719 154.570312 143.925781 154.707031 144.253906 C 154.839844 144.578125 154.90625 144.917969 154.90625 145.273438 Z M 165.390625 161.421875 C 165.746094 161.421875 166.085938 161.355469 166.410156 161.21875 C 166.738281 161.085938 167.023438 160.894531 167.273438 160.644531 C 167.523438 160.394531 167.714844 160.105469 167.851562 159.777344 C 167.988281 159.453125 168.054688 159.113281 168.054688 158.761719 L 168.054688 139.566406 C 168.054688 139.214844 167.988281 138.875 167.851562 138.546875 C 167.714844 138.222656 167.523438 137.933594 167.273438 137.683594 C 167.023438 137.433594 166.738281 137.242188 166.410156 137.105469 C 166.085938 136.972656 165.746094 136.90625 165.390625 136.90625 C 165.039062 136.90625 164.699219 136.972656 164.371094 137.105469 C 164.046875 137.242188 163.757812 137.433594 163.507812 137.683594 C 163.257812 137.933594 163.066406 138.222656 162.929688 138.546875 C 162.796875 138.875 162.726562 139.214844 162.726562 139.566406 L 162.726562 158.761719 C 162.726562 159.113281 162.796875 159.453125 162.929688 159.777344 C 163.066406 160.105469 163.257812 160.394531 163.507812 160.644531 C 163.757812 160.894531 164.046875 161.085938 164.371094 161.21875 C 164.699219 161.355469 165.039062 161.421875 165.390625 161.421875 Z M 191.683594 186.660156 C 192.039062 186.660156 192.378906 186.589844 192.703125 186.457031 C 193.03125 186.320312 193.316406 186.128906 193.566406 185.878906 C 193.816406 185.628906 194.011719 185.339844 194.144531 185.015625 C 194.28125 184.6875 194.347656 184.347656 194.347656 183.996094 L 194.347656 133.195312 C 194.347656 132.839844 194.28125 132.5 194.144531 132.175781 C 194.011719 131.847656 193.816406 131.5625 193.566406 131.3125 C 193.316406 131.0625 193.03125 130.871094 192.703125 130.734375 C 192.378906 130.597656 192.039062 130.53125 191.683594 130.53125 C 191.332031 130.53125 190.992188 130.597656 190.664062 130.734375 C 190.339844 130.871094 190.050781 131.0625 189.800781 131.3125 C 189.550781 131.5625 189.359375 131.847656 189.222656 132.175781 C 189.089844 132.5 189.023438 132.839844 189.023438 133.195312 L 189.023438 183.996094 C 189.023438 184.347656 189.089844 184.6875 189.222656 185.015625 C 189.359375 185.339844 189.550781 185.628906 189.800781 185.878906 C 190.050781 186.128906 190.339844 186.320312 190.664062 186.457031 C 190.992188 186.589844 191.332031 186.660156 191.683594 186.660156 Z M 178.539062 190.898438 C 178.890625 190.898438 179.230469 190.832031 179.558594 190.695312 C 179.882812 190.5625 180.171875 190.371094 180.421875 190.121094 C 180.671875 189.871094 180.863281 189.582031 181 189.253906 C 181.132812 188.929688 181.199219 188.589844 181.199219 188.238281 L 181.199219 138.007812 C 181.199219 137.652344 181.132812 137.3125 181 136.988281 C 180.863281 136.660156 180.671875 136.371094 180.421875 136.121094 C 180.171875 135.875 179.882812 135.679688 179.558594 135.546875 C 179.230469 135.410156 178.890625 135.34375 178.539062 135.34375 C 178.183594 135.34375 177.84375 135.410156 177.519531 135.546875 C 177.191406 135.679688 176.90625 135.875 176.65625 136.121094 C 176.40625 136.371094 176.210938 136.660156 176.078125 136.988281 C 175.941406 137.3125 175.875 137.652344 175.875 138.007812 L 175.875 188.238281 C 175.875 188.589844 175.941406 188.929688 176.078125 189.253906 C 176.210938 189.582031 176.40625 189.871094 176.65625 190.121094 C 176.90625 190.371094 177.191406 190.5625 177.519531 190.695312 C 177.84375 190.832031 178.183594 190.898438 178.539062 190.898438 Z M 290.910156 274.285156 L 290.910156 290.5625 C 290.910156 290.917969 290.84375 291.257812 290.707031 291.582031 C 290.574219 291.910156 290.382812 292.195312 290.132812 292.445312 C 289.882812 292.695312 289.59375 292.886719 289.265625 293.023438 C 288.941406 293.160156 288.601562 293.226562 288.25 293.226562 L 241.445312 293.226562 L 241.445312 297.570312 C 241.445312 297.921875 241.378906 298.261719 241.242188 298.589844 C 241.105469 298.914062 240.914062 299.203125 240.664062 299.453125 C 240.414062 299.703125 240.125 299.894531 239.800781 300.03125 C 239.472656 300.164062 239.132812 300.230469 238.78125 300.230469 L 120.714844 300.230469 C 120.363281 300.230469 120.023438 300.164062 119.695312 300.03125 C 119.371094 299.894531 119.082031 299.703125 118.832031 299.453125 C 118.582031 299.203125 118.390625 298.914062 118.253906 298.589844 C 118.121094 298.261719 118.050781 297.921875 118.050781 297.570312 L 118.050781 293.226562 L 86.746094 293.226562 C 86.394531 293.226562 86.054688 293.160156 85.726562 293.023438 C 85.402344 292.886719 85.113281 292.695312 84.863281 292.445312 C 84.613281 292.195312 84.421875 291.910156 84.285156 291.582031 C 84.152344 291.257812 84.082031 290.917969 84.082031 290.5625 L 84.082031 274.285156 C 84.082031 273.933594 84.152344 273.59375 84.285156 273.269531 C 84.421875 272.941406 84.613281 272.652344 84.863281 272.402344 C 85.113281 272.152344 85.402344 271.960938 85.726562 271.828125 C 86.054688 271.691406 86.394531 271.625 86.746094 271.625 L 95.320312 271.625 C 95.324219 255.246094 95.355469 190.101562 95.394531 151.265625 C 95.394531 151.0625 95.417969 150.859375 95.464844 150.660156 C 95.511719 150.460938 95.582031 150.269531 95.671875 150.085938 C 95.761719 149.902344 95.871094 149.730469 96.003906 149.574219 C 96.132812 149.414062 96.28125 149.273438 96.445312 149.148438 C 96.605469 149.027344 96.78125 148.921875 96.96875 148.839844 C 97.15625 148.753906 97.351562 148.691406 97.550781 148.652344 C 97.75 148.617188 97.953125 148.601562 98.160156 148.609375 C 98.363281 148.617188 98.566406 148.648438 98.761719 148.699219 L 137.292969 159.296875 L 137.308594 137.214844 C 137.308594 136.648438 137.472656 136.132812 137.804688 135.671875 C 138.132812 135.210938 138.566406 134.886719 139.101562 134.699219 L 201.53125 113.121094 L 201.53125 92.238281 C 201.53125 91.886719 201.597656 91.546875 201.734375 91.21875 C 201.867188 90.894531 202.0625 90.605469 202.308594 90.355469 C 202.558594 90.105469 202.847656 89.914062 203.175781 89.777344 C 203.5 89.640625 203.839844 89.574219 204.195312 89.574219 L 211.03125 89.574219 L 211.03125 77.425781 C 211.03125 77.074219 211.097656 76.734375 211.234375 76.40625 C 211.371094 76.082031 211.5625 75.792969 211.8125 75.542969 C 212.0625 75.292969 212.347656 75.101562 212.675781 74.964844 C 213 74.832031 213.339844 74.761719 213.695312 74.761719 L 266.625 74.761719 C 266.976562 74.761719 267.316406 74.832031 267.640625 74.964844 C 267.96875 75.101562 268.257812 75.292969 268.507812 75.542969 C 268.757812 75.792969 268.949219 76.082031 269.082031 76.40625 C 269.21875 76.734375 269.285156 77.074219 269.285156 77.425781 L 269.285156 89.574219 L 276.125 89.574219 C 276.476562 89.574219 276.816406 89.640625 277.144531 89.777344 C 277.46875 89.914062 277.757812 90.105469 278.007812 90.355469 C 278.257812 90.605469 278.449219 90.894531 278.585938 91.21875 C 278.71875 91.546875 278.789062 91.886719 278.789062 92.238281 L 278.789062 271.625 L 288.25 271.625 C 288.601562 271.625 288.941406 271.691406 289.265625 271.828125 C 289.59375 271.960938 289.882812 272.152344 290.132812 272.402344 C 290.382812 272.652344 290.574219 272.941406 290.707031 273.269531 C 290.84375 273.59375 290.910156 273.933594 290.910156 274.285156 Z M 216.359375 89.574219 L 263.960938 89.574219 L 263.960938 80.089844 L 216.359375 80.089844 Z M 206.855469 94.902344 L 206.855469 189.578125 L 220.886719 186.277344 C 221.082031 186.234375 221.28125 186.210938 221.480469 186.207031 C 221.683594 186.207031 221.878906 186.226562 222.078125 186.269531 C 222.273438 186.316406 222.460938 186.378906 222.640625 186.464844 C 222.824219 186.550781 222.992188 186.65625 223.148438 186.78125 C 223.308594 186.90625 223.449219 187.046875 223.574219 187.203125 C 223.699219 187.359375 223.804688 187.527344 223.894531 187.707031 C 223.980469 187.890625 224.046875 188.078125 224.09375 188.273438 C 224.136719 188.46875 224.160156 188.664062 224.160156 188.867188 C 224.1875 204.367188 224.214844 223.195312 224.230469 239.308594 C 224.78125 239.617188 225.3125 239.953125 225.824219 240.324219 C 226.332031 240.695312 226.820312 241.09375 227.28125 241.523438 C 227.742188 241.953125 228.179688 242.40625 228.585938 242.886719 C 228.996094 243.367188 229.371094 243.871094 229.71875 244.398438 C 230.066406 244.925781 230.378906 245.46875 230.660156 246.035156 C 230.945312 246.597656 231.191406 247.175781 231.402344 247.769531 C 231.613281 248.363281 231.789062 248.96875 231.929688 249.582031 C 232.070312 250.199219 232.171875 250.820312 232.238281 251.445312 C 232.300781 252.074219 232.328125 252.703125 232.316406 253.332031 C 232.308594 253.960938 232.257812 254.589844 232.171875 255.214844 C 232.085938 255.839844 231.964844 256.457031 231.804688 257.066406 C 231.644531 257.675781 231.445312 258.273438 231.214844 258.859375 C 230.984375 259.445312 230.71875 260.015625 230.417969 260.570312 C 230.117188 261.125 229.785156 261.660156 229.417969 262.171875 C 229.054688 262.6875 228.660156 263.175781 228.234375 263.644531 C 227.8125 264.113281 227.363281 264.550781 226.886719 264.964844 C 230.582031 266.367188 233.695312 268.589844 236.226562 271.625 L 273.464844 271.625 L 273.464844 94.902344 Z M 216.566406 263.507812 C 217.019531 263.507812 217.472656 263.476562 217.925781 263.417969 C 218.378906 263.359375 218.824219 263.269531 219.265625 263.148438 C 219.703125 263.03125 220.136719 262.886719 220.558594 262.710938 C 220.976562 262.535156 221.386719 262.335938 221.78125 262.105469 C 222.175781 261.878906 222.554688 261.625 222.914062 261.347656 C 223.277344 261.070312 223.617188 260.769531 223.941406 260.445312 C 224.261719 260.125 224.5625 259.78125 224.839844 259.417969 C 225.117188 259.058594 225.371094 258.679688 225.597656 258.285156 C 225.824219 257.890625 226.027344 257.480469 226.199219 257.058594 C 226.375 256.640625 226.519531 256.207031 226.636719 255.769531 C 226.757812 255.328125 226.84375 254.882812 226.902344 254.429688 C 226.964844 253.976562 226.992188 253.523438 226.992188 253.066406 C 226.992188 252.609375 226.960938 252.15625 226.902344 251.707031 C 226.84375 251.253906 226.753906 250.808594 226.636719 250.367188 C 226.519531 249.925781 226.371094 249.496094 226.195312 249.074219 C 226.023438 248.652344 225.820312 248.246094 225.59375 247.851562 C 225.363281 247.457031 225.113281 247.078125 224.835938 246.714844 C 224.558594 246.355469 224.257812 246.011719 223.933594 245.691406 C 223.613281 245.367188 223.269531 245.066406 222.90625 244.789062 C 222.546875 244.511719 222.167969 244.261719 221.773438 244.03125 C 221.378906 243.804688 220.96875 243.601562 220.550781 243.429688 C 220.128906 243.253906 219.695312 243.109375 219.257812 242.992188 C 218.816406 242.871094 218.371094 242.785156 217.917969 242.722656 C 217.464844 242.664062 217.011719 242.636719 216.554688 242.636719 C 216.101562 242.636719 215.644531 242.664062 215.195312 242.722656 C 214.742188 242.785156 214.296875 242.871094 213.855469 242.992188 C 213.414062 243.109375 212.984375 243.253906 212.5625 243.429688 C 212.140625 243.601562 211.734375 243.804688 211.339844 244.03125 C 210.945312 244.261719 210.566406 244.511719 210.203125 244.789062 C 209.84375 245.066406 209.5 245.367188 209.179688 245.691406 C 208.855469 246.011719 208.554688 246.355469 208.277344 246.714844 C 208 247.078125 207.746094 247.457031 207.519531 247.851562 C 207.292969 248.246094 207.089844 248.652344 206.914062 249.074219 C 206.742188 249.496094 206.59375 249.925781 206.476562 250.367188 C 206.359375 250.808594 206.269531 251.253906 206.210938 251.707031 C 206.148438 252.15625 206.121094 252.609375 206.121094 253.066406 C 206.121094 253.523438 206.148438 253.976562 206.207031 254.429688 C 206.269531 254.882812 206.355469 255.328125 206.472656 255.769531 C 206.59375 256.207031 206.738281 256.640625 206.910156 257.058594 C 207.085938 257.480469 207.289062 257.890625 207.515625 258.285156 C 207.742188 258.679688 207.996094 259.058594 208.273438 259.417969 C 208.550781 259.78125 208.851562 260.125 209.171875 260.445312 C 209.496094 260.769531 209.835938 261.070312 210.199219 261.347656 C 210.558594 261.625 210.9375 261.878906 211.332031 262.105469 C 211.726562 262.335938 212.132812 262.535156 212.554688 262.710938 C 212.976562 262.886719 213.40625 263.03125 213.847656 263.148438 C 214.289062 263.269531 214.734375 263.359375 215.1875 263.417969 C 215.636719 263.476562 216.089844 263.507812 216.546875 263.507812 Z M 153.519531 294.90625 L 205.976562 294.90625 L 205.976562 282.554688 C 205.976562 280.378906 205.675781 278.25 205.074219 276.164062 C 204.472656 274.074219 203.59375 272.113281 202.433594 270.273438 C 202.359375 270.179688 202.292969 270.078125 202.234375 269.972656 C 202.226562 269.957031 202.21875 269.941406 202.214844 269.929688 C 201.164062 268.316406 199.929688 266.859375 198.515625 265.550781 C 197.105469 264.246094 195.550781 263.136719 193.859375 262.21875 C 192.167969 261.300781 190.390625 260.605469 188.523438 260.128906 C 186.660156 259.65625 184.765625 259.417969 182.839844 259.417969 L 176.65625 259.417969 C 174.730469 259.417969 172.835938 259.65625 170.972656 260.128906 C 169.105469 260.605469 167.328125 261.300781 165.636719 262.21875 C 163.945312 263.136719 162.394531 264.246094 160.980469 265.550781 C 159.566406 266.859375 158.332031 268.316406 157.285156 269.929688 C 157.277344 269.941406 157.269531 269.957031 157.261719 269.972656 C 157.203125 270.078125 157.136719 270.175781 157.0625 270.273438 C 155.902344 272.113281 155.023438 274.074219 154.421875 276.164062 C 153.820312 278.25 153.519531 280.378906 153.519531 282.554688 Z M 194.113281 239.726562 C 194.113281 238.785156 194.023438 237.851562 193.835938 236.925781 C 193.652344 236 193.382812 235.101562 193.019531 234.230469 C 192.660156 233.359375 192.214844 232.53125 191.691406 231.746094 C 191.167969 230.960938 190.574219 230.238281 189.90625 229.570312 C 189.238281 228.902344 188.511719 228.308594 187.730469 227.78125 C 186.945312 227.257812 186.117188 226.816406 185.246094 226.457031 C 184.375 226.09375 183.476562 225.820312 182.550781 225.636719 C 181.625 225.453125 180.691406 225.363281 179.75 225.363281 C 178.804688 225.363281 177.871094 225.453125 176.945312 225.636719 C 176.019531 225.820312 175.121094 226.09375 174.25 226.457031 C 173.378906 226.816406 172.550781 227.257812 171.765625 227.78125 C 170.984375 228.308594 170.257812 228.902344 169.589844 229.570312 C 168.921875 230.234375 168.328125 230.960938 167.804688 231.746094 C 167.28125 232.53125 166.835938 233.359375 166.476562 234.230469 C 166.117188 235.101562 165.84375 236 165.660156 236.925781 C 165.476562 237.847656 165.382812 238.785156 165.382812 239.726562 C 165.382812 240.671875 165.476562 241.605469 165.660156 242.53125 C 165.84375 243.453125 166.117188 244.351562 166.476562 245.222656 C 166.835938 246.097656 167.28125 246.921875 167.804688 247.707031 C 168.328125 248.492188 168.921875 249.21875 169.589844 249.886719 C 170.257812 250.550781 170.984375 251.148438 171.769531 251.671875 C 172.550781 252.195312 173.378906 252.636719 174.25 253 C 175.121094 253.359375 176.019531 253.632812 176.945312 253.816406 C 177.871094 254 178.804688 254.09375 179.75 254.09375 C 180.691406 254.089844 181.625 254 182.550781 253.8125 C 183.476562 253.628906 184.371094 253.355469 185.242188 252.996094 C 186.113281 252.632812 186.941406 252.191406 187.726562 251.667969 C 188.507812 251.140625 189.234375 250.546875 189.902344 249.878906 C 190.566406 249.214844 191.164062 248.488281 191.6875 247.703125 C 192.210938 246.921875 192.65625 246.09375 193.015625 245.222656 C 193.378906 244.351562 193.648438 243.453125 193.835938 242.527344 C 194.019531 241.605469 194.113281 240.671875 194.113281 239.726562 Z M 205.449219 265.292969 C 205.710938 265.179688 205.972656 265.074219 206.238281 264.976562 C 205.597656 264.417969 205.003906 263.816406 204.460938 263.167969 C 203.917969 262.515625 203.429688 261.824219 203 261.097656 C 202.566406 260.367188 202.195312 259.605469 201.886719 258.816406 C 201.578125 258.027344 201.332031 257.21875 201.152344 256.390625 C 200.976562 255.5625 200.863281 254.722656 200.820312 253.878906 C 200.777344 253.03125 200.800781 252.1875 200.894531 251.34375 C 200.988281 250.5 201.144531 249.671875 201.371094 248.855469 C 201.601562 248.035156 201.890625 247.242188 202.246094 246.472656 C 202.601562 245.703125 203.015625 244.964844 203.488281 244.261719 C 203.960938 243.558594 204.488281 242.898438 205.070312 242.28125 C 205.648438 241.664062 206.273438 241.097656 206.949219 240.578125 C 207.621094 240.0625 208.328125 239.601562 209.074219 239.199219 C 209.820312 238.796875 210.59375 238.457031 211.394531 238.179688 C 212.195312 237.902344 213.015625 237.691406 213.851562 237.542969 C 214.683594 237.398438 215.527344 237.320312 216.375 237.3125 C 217.222656 237.300781 218.066406 237.359375 218.902344 237.484375 C 218.886719 222.953125 218.867188 206.441406 218.839844 192.234375 L 135.101562 211.917969 L 135.101562 239.402344 C 135.945312 238.921875 136.824219 238.519531 137.738281 238.195312 C 138.65625 237.875 139.59375 237.640625 140.554688 237.492188 C 141.511719 237.34375 142.476562 237.285156 143.449219 237.316406 C 144.417969 237.347656 145.378906 237.46875 146.324219 237.675781 C 147.273438 237.882812 148.195312 238.175781 149.089844 238.554688 C 149.984375 238.933594 150.835938 239.390625 151.644531 239.925781 C 152.453125 240.460938 153.207031 241.066406 153.90625 241.742188 C 154.601562 242.417969 155.234375 243.148438 155.792969 243.941406 C 156.355469 244.734375 156.839844 245.570312 157.25 246.449219 C 157.65625 247.332031 157.980469 248.242188 158.21875 249.183594 C 158.457031 250.125 158.609375 251.078125 158.671875 252.046875 C 158.734375 253.015625 158.707031 253.984375 158.589844 254.949219 C 158.472656 255.910156 158.269531 256.855469 157.980469 257.78125 C 157.6875 258.707031 157.3125 259.601562 156.859375 260.457031 C 156.402344 261.3125 155.871094 262.121094 155.265625 262.882812 C 154.660156 263.640625 153.992188 264.335938 153.257812 264.972656 C 153.523438 265.074219 153.789062 265.179688 154.050781 265.289062 C 155.808594 262.984375 157.875 260.996094 160.242188 259.320312 C 162.609375 257.644531 165.171875 256.359375 167.929688 255.464844 C 167.382812 255.054688 166.859375 254.617188 166.359375 254.152344 C 165.855469 253.6875 165.378906 253.199219 164.929688 252.683594 C 164.480469 252.167969 164.058594 251.632812 163.664062 251.074219 C 163.269531 250.515625 162.90625 249.9375 162.570312 249.339844 C 162.234375 248.746094 161.933594 248.132812 161.664062 247.503906 C 161.394531 246.878906 161.15625 246.238281 160.953125 245.585938 C 160.746094 244.929688 160.578125 244.269531 160.445312 243.597656 C 160.308594 242.929688 160.210938 242.253906 160.144531 241.574219 C 160.082031 240.890625 160.050781 240.210938 160.058594 239.527344 C 160.066406 238.84375 160.105469 238.160156 160.183594 237.480469 C 160.261719 236.800781 160.375 236.128906 160.523438 235.460938 C 160.671875 234.792969 160.851562 234.136719 161.066406 233.488281 C 161.285156 232.839844 161.535156 232.203125 161.816406 231.578125 C 162.097656 230.957031 162.414062 230.351562 162.757812 229.761719 C 163.105469 229.171875 163.480469 228.601562 163.886719 228.050781 C 164.289062 227.5 164.722656 226.972656 165.183594 226.464844 C 165.644531 225.960938 166.128906 225.480469 166.636719 225.023438 C 167.148438 224.566406 167.679688 224.140625 168.234375 223.742188 C 168.789062 223.339844 169.363281 222.972656 169.957031 222.632812 C 170.550781 222.292969 171.160156 221.984375 171.785156 221.707031 C 172.410156 221.429688 173.046875 221.1875 173.699219 220.976562 C 174.351562 220.765625 175.011719 220.589844 175.679688 220.449219 C 176.347656 220.308594 177.023438 220.203125 177.703125 220.132812 C 178.382812 220.058594 179.066406 220.023438 179.75 220.023438 C 180.433594 220.023438 181.113281 220.058594 181.792969 220.132812 C 182.472656 220.203125 183.148438 220.308594 183.816406 220.449219 C 184.488281 220.589844 185.144531 220.765625 185.796875 220.976562 C 186.449219 221.1875 187.085938 221.429688 187.710938 221.707031 C 188.335938 221.984375 188.945312 222.292969 189.539062 222.632812 C 190.132812 222.972656 190.707031 223.339844 191.261719 223.742188 C 191.816406 224.140625 192.347656 224.566406 192.859375 225.023438 C 193.367188 225.480469 193.855469 225.960938 194.3125 226.464844 C 194.773438 226.972656 195.207031 227.5 195.613281 228.050781 C 196.015625 228.601562 196.390625 229.171875 196.738281 229.761719 C 197.082031 230.351562 197.398438 230.957031 197.679688 231.578125 C 197.960938 232.203125 198.210938 232.839844 198.429688 233.488281 C 198.644531 234.136719 198.828125 234.792969 198.972656 235.460938 C 199.121094 236.128906 199.234375 236.800781 199.3125 237.480469 C 199.390625 238.160156 199.433594 238.84375 199.4375 239.527344 C 199.445312 240.210938 199.417969 240.890625 199.351562 241.574219 C 199.289062 242.253906 199.1875 242.929688 199.054688 243.597656 C 198.917969 244.269531 198.75 244.929688 198.542969 245.585938 C 198.339844 246.238281 198.105469 246.878906 197.832031 247.503906 C 197.5625 248.132812 197.261719 248.746094 196.925781 249.34375 C 196.59375 249.9375 196.226562 250.515625 195.832031 251.074219 C 195.4375 251.632812 195.015625 252.167969 194.566406 252.683594 C 194.117188 253.199219 193.640625 253.6875 193.140625 254.152344 C 192.636719 254.617188 192.113281 255.054688 191.566406 255.464844 C 194.324219 256.359375 196.886719 257.644531 199.253906 259.320312 C 201.621094 260.996094 203.6875 262.984375 205.449219 265.289062 Z M 142.949219 263.511719 C 143.40625 263.507812 143.859375 263.480469 144.3125 263.417969 C 144.761719 263.359375 145.210938 263.269531 145.648438 263.152344 C 146.089844 263.035156 146.519531 262.886719 146.941406 262.710938 C 147.363281 262.539062 147.769531 262.335938 148.164062 262.109375 C 148.558594 261.878906 148.9375 261.625 149.300781 261.347656 C 149.660156 261.070312 150.003906 260.769531 150.324219 260.449219 C 150.648438 260.125 150.945312 259.785156 151.222656 259.421875 C 151.5 259.058594 151.753906 258.679688 151.980469 258.285156 C 152.210938 257.890625 152.410156 257.484375 152.585938 257.0625 C 152.757812 256.640625 152.90625 256.210938 153.023438 255.769531 C 153.140625 255.328125 153.230469 254.882812 153.289062 254.429688 C 153.347656 253.980469 153.378906 253.523438 153.378906 253.070312 C 153.378906 252.613281 153.347656 252.160156 153.289062 251.707031 C 153.226562 251.253906 153.140625 250.808594 153.019531 250.367188 C 152.902344 249.929688 152.757812 249.496094 152.582031 249.074219 C 152.40625 248.65625 152.207031 248.246094 151.976562 247.851562 C 151.75 247.457031 151.496094 247.078125 151.21875 246.71875 C 150.941406 246.355469 150.640625 246.015625 150.320312 245.691406 C 149.996094 245.371094 149.65625 245.070312 149.292969 244.792969 C 148.929688 244.515625 148.554688 244.261719 148.15625 244.035156 C 147.761719 243.804688 147.355469 243.605469 146.933594 243.429688 C 146.511719 243.257812 146.082031 243.109375 145.640625 242.992188 C 145.199219 242.875 144.753906 242.785156 144.300781 242.726562 C 143.851562 242.667969 143.398438 242.636719 142.941406 242.636719 C 142.484375 242.636719 142.03125 242.667969 141.578125 242.726562 C 141.125 242.785156 140.679688 242.875 140.238281 242.992188 C 139.800781 243.109375 139.367188 243.257812 138.949219 243.429688 C 138.527344 243.605469 138.117188 243.804688 137.722656 244.035156 C 137.328125 244.261719 136.949219 244.515625 136.589844 244.792969 C 136.226562 245.070312 135.886719 245.371094 135.5625 245.691406 C 135.238281 246.015625 134.941406 246.355469 134.664062 246.71875 C 134.382812 247.078125 134.132812 247.457031 133.902344 247.851562 C 133.675781 248.246094 133.472656 248.65625 133.300781 249.074219 C 133.125 249.496094 132.980469 249.929688 132.859375 250.367188 C 132.742188 250.808594 132.652344 251.253906 132.59375 251.707031 C 132.535156 252.160156 132.503906 252.613281 132.503906 253.070312 C 132.503906 253.523438 132.535156 253.980469 132.59375 254.429688 C 132.652344 254.882812 132.742188 255.328125 132.859375 255.769531 C 132.976562 256.210938 133.121094 256.640625 133.296875 257.0625 C 133.46875 257.484375 133.671875 257.890625 133.898438 258.285156 C 134.128906 258.679688 134.378906 259.058594 134.65625 259.421875 C 134.933594 259.785156 135.234375 260.125 135.554688 260.449219 C 135.878906 260.769531 136.21875 261.070312 136.582031 261.347656 C 136.941406 261.625 137.320312 261.878906 137.714844 262.109375 C 138.109375 262.335938 138.519531 262.539062 138.941406 262.710938 C 139.359375 262.886719 139.792969 263.035156 140.230469 263.152344 C 140.671875 263.269531 141.117188 263.359375 141.570312 263.417969 C 142.023438 263.480469 142.476562 263.507812 142.933594 263.511719 Z M 142.617188 160.761719 L 162.984375 166.363281 C 163.265625 166.4375 163.527344 166.558594 163.769531 166.722656 C 164.011719 166.886719 164.21875 167.082031 164.394531 167.316406 C 164.574219 167.546875 164.707031 167.800781 164.800781 168.078125 C 164.894531 168.355469 164.941406 168.636719 164.941406 168.929688 L 164.941406 199.433594 L 201.53125 190.828125 L 201.53125 118.757812 L 142.632812 139.113281 Z M 100.648438 271.625 L 123.269531 271.625 C 125.101562 269.425781 127.269531 267.640625 129.777344 266.265625 L 129.777344 261.726562 C 129.355469 261.089844 128.980469 260.421875 128.660156 259.730469 C 128.335938 259.035156 128.0625 258.324219 127.84375 257.589844 C 127.621094 256.855469 127.457031 256.113281 127.34375 255.355469 C 127.234375 254.597656 127.179688 253.835938 127.179688 253.070312 C 127.179688 252.304688 127.234375 251.542969 127.34375 250.789062 C 127.457031 250.03125 127.621094 249.285156 127.84375 248.550781 C 128.0625 247.820312 128.335938 247.105469 128.660156 246.414062 C 128.980469 245.71875 129.355469 245.054688 129.777344 244.414062 L 129.777344 209.808594 C 129.777344 209.507812 129.824219 209.21875 129.925781 208.933594 C 130.023438 208.648438 130.164062 208.390625 130.351562 208.15625 C 130.539062 207.921875 130.757812 207.722656 131.011719 207.5625 C 131.265625 207.398438 131.539062 207.285156 131.832031 207.21875 L 159.613281 200.683594 L 159.613281 170.957031 L 100.71875 154.761719 C 100.679688 193.894531 100.652344 255.730469 100.648438 271.625 Z M 118.050781 287.898438 L 118.050781 286.015625 C 118.050781 282.859375 118.6875 279.835938 119.964844 276.949219 L 89.410156 276.949219 L 89.410156 287.898438 Z M 123.378906 294.90625 L 128.882812 294.90625 L 128.882812 283.011719 C 128.882812 282.65625 128.949219 282.320312 129.085938 281.992188 C 129.21875 281.664062 129.414062 281.378906 129.660156 281.128906 C 129.910156 280.878906 130.199219 280.6875 130.527344 280.550781 C 130.851562 280.414062 131.191406 280.347656 131.546875 280.347656 C 131.898438 280.347656 132.238281 280.414062 132.5625 280.550781 C 132.890625 280.6875 133.179688 280.878906 133.429688 281.128906 C 133.679688 281.378906 133.871094 281.664062 134.003906 281.992188 C 134.140625 282.316406 134.207031 282.65625 134.207031 283.011719 L 134.207031 294.90625 L 148.195312 294.90625 L 148.195312 282.554688 C 148.191406 278.09375 149.1875 273.871094 151.179688 269.882812 C 149.289062 269.1875 147.335938 268.835938 145.320312 268.832031 L 140.5625 268.832031 C 138.140625 268.832031 135.824219 269.324219 133.613281 270.308594 C 133.554688 270.335938 133.492188 270.363281 133.429688 270.390625 C 130.789062 271.601562 128.59375 273.367188 126.84375 275.683594 C 126.769531 275.800781 126.691406 275.910156 126.601562 276.015625 C 125.554688 277.46875 124.753906 279.050781 124.203125 280.761719 C 123.652344 282.46875 123.378906 284.222656 123.378906 286.015625 Z M 236.117188 286.015625 C 236.121094 284.222656 235.84375 282.46875 235.292969 280.761719 C 234.742188 279.054688 233.945312 277.472656 232.894531 276.015625 C 232.804688 275.910156 232.726562 275.800781 232.652344 275.683594 C 231.855469 274.621094 230.945312 273.660156 229.921875 272.808594 C 228.898438 271.957031 227.792969 271.234375 226.601562 270.640625 C 225.410156 270.046875 224.167969 269.597656 222.875 269.292969 C 221.578125 268.988281 220.265625 268.832031 218.933594 268.832031 L 214.175781 268.832031 C 212.160156 268.835938 210.207031 269.1875 208.316406 269.882812 C 210.308594 273.871094 211.304688 278.09375 211.300781 282.554688 L 211.300781 294.90625 L 225.289062 294.90625 L 225.289062 283.011719 C 225.289062 282.65625 225.355469 282.320312 225.492188 281.992188 C 225.625 281.664062 225.816406 281.378906 226.066406 281.128906 C 226.316406 280.878906 226.605469 280.6875 226.929688 280.550781 C 227.257812 280.414062 227.597656 280.347656 227.949219 280.347656 C 228.304688 280.347656 228.644531 280.414062 228.96875 280.550781 C 229.296875 280.6875 229.582031 280.878906 229.832031 281.128906 C 230.082031 281.378906 230.277344 281.664062 230.410156 281.992188 C 230.546875 282.316406 230.613281 282.65625 230.613281 283.011719 L 230.613281 294.90625 L 236.117188 294.90625 Z M 285.585938 276.949219 L 239.53125 276.949219 C 240.808594 279.835938 241.445312 282.859375 241.445312 286.015625 L 241.445312 287.898438 L 285.585938 287.898438 Z M 219.238281 112.078125 L 261.078125 112.078125 C 261.433594 112.078125 261.773438 112.011719 262.097656 111.875 C 262.425781 111.738281 262.710938 111.546875 262.960938 111.296875 C 263.210938 111.046875 263.40625 110.761719 263.539062 110.433594 C 263.675781 110.109375 263.742188 109.769531 263.742188 109.414062 C 263.742188 109.0625 263.675781 108.722656 263.539062 108.394531 C 263.40625 108.070312 263.210938 107.78125 262.960938 107.53125 C 262.710938 107.28125 262.425781 107.089844 262.097656 106.953125 C 261.773438 106.820312 261.433594 106.75 261.078125 106.75 L 219.238281 106.75 C 218.886719 106.75 218.546875 106.820312 218.21875 106.953125 C 217.894531 107.089844 217.605469 107.28125 217.355469 107.53125 C 217.105469 107.78125 216.914062 108.070312 216.777344 108.394531 C 216.644531 108.722656 216.574219 109.0625 216.574219 109.414062 C 216.574219 109.769531 216.644531 110.109375 216.777344 110.433594 C 216.914062 110.761719 217.105469 111.046875 217.355469 111.296875 C 217.605469 111.546875 217.894531 111.738281 218.21875 111.875 C 218.546875 112.011719 218.886719 112.078125 219.238281 112.078125 Z M 219.238281 128.015625 L 261.078125 128.015625 C 261.433594 128.015625 261.773438 127.949219 262.097656 127.8125 C 262.425781 127.679688 262.710938 127.488281 262.960938 127.238281 C 263.210938 126.988281 263.40625 126.699219 263.539062 126.375 C 263.675781 126.046875 263.742188 125.707031 263.742188 125.355469 C 263.742188 125 263.675781 124.660156 263.539062 124.335938 C 263.40625 124.007812 263.210938 123.71875 262.960938 123.472656 C 262.710938 123.222656 262.425781 123.027344 262.097656 122.894531 C 261.773438 122.757812 261.433594 122.691406 261.078125 122.691406 L 219.238281 122.691406 C 218.886719 122.691406 218.546875 122.757812 218.21875 122.894531 C 217.894531 123.027344 217.605469 123.222656 217.355469 123.472656 C 217.105469 123.71875 216.914062 124.007812 216.777344 124.335938 C 216.644531 124.660156 216.574219 125 216.574219 125.355469 C 216.574219 125.707031 216.644531 126.046875 216.777344 126.375 C 216.914062 126.699219 217.105469 126.988281 217.355469 127.238281 C 217.605469 127.488281 217.894531 127.679688 218.21875 127.8125 C 218.546875 127.949219 218.886719 128.015625 219.238281 128.015625 Z M 219.238281 143.957031 L 261.078125 143.957031 C 261.433594 143.957031 261.773438 143.890625 262.097656 143.753906 C 262.425781 143.617188 262.710938 143.425781 262.960938 143.175781 C 263.210938 142.925781 263.40625 142.640625 263.539062 142.3125 C 263.675781 141.984375 263.742188 141.648438 263.742188 141.292969 C 263.742188 140.941406 263.675781 140.601562 263.539062 140.273438 C 263.40625 139.949219 263.210938 139.660156 262.960938 139.410156 C 262.710938 139.160156 262.425781 138.96875 262.097656 138.832031 C 261.773438 138.699219 261.433594 138.628906 261.078125 138.628906 L 219.238281 138.628906 C 218.886719 138.628906 218.546875 138.699219 218.21875 138.832031 C 217.894531 138.96875 217.605469 139.160156 217.355469 139.410156 C 217.105469 139.660156 216.914062 139.949219 216.777344 140.273438 C 216.644531 140.601562 216.574219 140.941406 216.574219 141.292969 C 216.574219 141.648438 216.644531 141.984375 216.777344 142.3125 C 216.914062 142.640625 217.105469 142.925781 217.355469 143.175781 C 217.605469 143.425781 217.894531 143.617188 218.21875 143.753906 C 218.546875 143.890625 218.886719 143.957031 219.238281 143.957031 Z M 219.238281 159.894531 L 261.078125 159.894531 C 261.433594 159.894531 261.773438 159.828125 262.097656 159.695312 C 262.425781 159.558594 262.710938 159.367188 262.960938 159.117188 C 263.210938 158.867188 263.40625 158.578125 263.539062 158.253906 C 263.675781 157.925781 263.742188 157.585938 263.742188 157.234375 C 263.742188 156.878906 263.675781 156.539062 263.539062 156.214844 C 263.40625 155.886719 263.210938 155.601562 262.960938 155.351562 C 262.710938 155.101562 262.425781 154.910156 262.097656 154.773438 C 261.773438 154.636719 261.433594 154.570312 261.078125 154.570312 L 219.238281 154.570312 C 218.886719 154.570312 218.546875 154.636719 218.21875 154.773438 C 217.894531 154.910156 217.605469 155.101562 217.355469 155.351562 C 217.105469 155.601562 216.914062 155.886719 216.777344 156.214844 C 216.644531 156.539062 216.574219 156.878906 216.574219 157.234375 C 216.574219 157.585938 216.644531 157.925781 216.777344 158.253906 C 216.914062 158.578125 217.105469 158.867188 217.355469 159.117188 C 217.605469 159.367188 217.894531 159.558594 218.21875 159.695312 C 218.546875 159.828125 218.886719 159.894531 219.238281 159.894531 Z M 219.238281 175.835938 L 261.078125 175.835938 C 261.433594 175.835938 261.773438 175.769531 262.097656 175.632812 C 262.425781 175.496094 262.710938 175.304688 262.960938 175.054688 C 263.210938 174.804688 263.40625 174.519531 263.539062 174.191406 C 263.675781 173.867188 263.742188 173.527344 263.742188 173.171875 C 263.742188 172.820312 263.675781 172.480469 263.539062 172.152344 C 263.40625 171.828125 263.210938 171.539062 262.960938 171.289062 C 262.710938 171.039062 262.425781 170.847656 262.097656 170.710938 C 261.773438 170.578125 261.433594 170.507812 261.078125 170.507812 L 219.238281 170.507812 C 218.886719 170.507812 218.546875 170.578125 218.21875 170.710938 C 217.894531 170.847656 217.605469 171.039062 217.355469 171.289062 C 217.105469 171.539062 216.914062 171.828125 216.777344 172.152344 C 216.644531 172.480469 216.574219 172.820312 216.574219 173.171875 C 216.574219 173.527344 216.644531 173.867188 216.777344 174.191406 C 216.914062 174.519531 217.105469 174.804688 217.355469 175.054688 C 217.605469 175.304688 217.894531 175.496094 218.21875 175.632812 C 218.546875 175.769531 218.886719 175.835938 219.238281 175.835938 Z M 261.078125 186.449219 L 235.75 186.449219 C 235.398438 186.449219 235.058594 186.515625 234.730469 186.652344 C 234.40625 186.785156 234.117188 186.980469 233.867188 187.230469 C 233.617188 187.480469 233.425781 187.765625 233.289062 188.09375 C 233.15625 188.417969 233.085938 188.757812 233.085938 189.113281 C 233.085938 189.464844 233.15625 189.804688 233.289062 190.132812 C 233.425781 190.457031 233.617188 190.746094 233.867188 190.996094 C 234.117188 191.246094 234.40625 191.4375 234.730469 191.570312 C 235.058594 191.707031 235.398438 191.773438 235.75 191.773438 L 261.078125 191.773438 C 261.433594 191.773438 261.773438 191.707031 262.097656 191.570312 C 262.425781 191.4375 262.710938 191.246094 262.960938 190.996094 C 263.210938 190.746094 263.40625 190.457031 263.539062 190.132812 C 263.675781 189.804688 263.742188 189.464844 263.742188 189.113281 C 263.742188 188.757812 263.675781 188.417969 263.539062 188.09375 C 263.40625 187.765625 263.210938 187.480469 262.960938 187.230469 C 262.710938 186.980469 262.425781 186.785156 262.097656 186.652344 C 261.773438 186.515625 261.433594 186.449219 261.078125 186.449219 Z M 261.078125 202.386719 L 235.75 202.386719 C 235.398438 202.386719 235.058594 202.457031 234.730469 202.589844 C 234.40625 202.726562 234.117188 202.917969 233.867188 203.167969 C 233.617188 203.417969 233.425781 203.707031 233.289062 204.03125 C 233.15625 204.359375 233.085938 204.699219 233.085938 205.050781 C 233.085938 205.40625 233.15625 205.746094 233.289062 206.070312 C 233.425781 206.398438 233.617188 206.683594 233.867188 206.933594 C 234.117188 207.183594 234.40625 207.375 234.730469 207.511719 C 235.058594 207.648438 235.398438 207.714844 235.75 207.714844 L 261.078125 207.714844 C 261.433594 207.714844 261.773438 207.648438 262.097656 207.511719 C 262.425781 207.375 262.710938 207.183594 262.960938 206.933594 C 263.210938 206.683594 263.40625 206.398438 263.539062 206.070312 C 263.675781 205.746094 263.742188 205.40625 263.742188 205.050781 C 263.742188 204.699219 263.675781 204.359375 263.539062 204.03125 C 263.40625 203.707031 263.210938 203.417969 262.960938 203.167969 C 262.710938 202.917969 262.425781 202.726562 262.097656 202.589844 C 261.773438 202.457031 261.433594 202.386719 261.078125 202.386719 Z M 261.078125 218.328125 L 235.75 218.328125 C 235.398438 218.328125 235.058594 218.394531 234.730469 218.53125 C 234.40625 218.664062 234.117188 218.859375 233.867188 219.109375 C 233.617188 219.359375 233.425781 219.644531 233.289062 219.972656 C 233.15625 220.296875 233.085938 220.636719 233.085938 220.992188 C 233.085938 221.34375 233.15625 221.683594 233.289062 222.011719 C 233.425781 222.335938 233.617188 222.625 233.867188 222.875 C 234.117188 223.125 234.40625 223.316406 234.730469 223.449219 C 235.058594 223.585938 235.398438 223.652344 235.75 223.652344 L 261.078125 223.652344 C 261.433594 223.652344 261.773438 223.585938 262.097656 223.449219 C 262.425781 223.316406 262.710938 223.125 262.960938 222.875 C 263.210938 222.625 263.40625 222.335938 263.539062 222.011719 C 263.675781 221.683594 263.742188 221.34375 263.742188 220.992188 C 263.742188 220.636719 263.675781 220.296875 263.539062 219.972656 C 263.40625 219.644531 263.210938 219.359375 262.960938 219.109375 C 262.710938 218.859375 262.425781 218.664062 262.097656 218.53125 C 261.773438 218.394531 261.433594 218.328125 261.078125 218.328125 Z M 261.078125 234.265625 L 235.75 234.265625 C 235.398438 234.265625 235.058594 234.335938 234.730469 234.46875 C 234.40625 234.605469 234.117188 234.796875 233.867188 235.046875 C 233.617188 235.296875 233.425781 235.585938 233.289062 235.910156 C 233.15625 236.238281 233.085938 236.578125 233.085938 236.929688 C 233.085938 237.285156 233.15625 237.625 233.289062 237.949219 C 233.425781 238.277344 233.617188 238.5625 233.867188 238.8125 C 234.117188 239.0625 234.40625 239.253906 234.730469 239.390625 C 235.058594 239.527344 235.398438 239.59375 235.75 239.59375 L 261.078125 239.59375 C 261.433594 239.59375 261.773438 239.527344 262.097656 239.390625 C 262.425781 239.253906 262.710938 239.0625 262.960938 238.8125 C 263.210938 238.5625 263.40625 238.277344 263.539062 237.949219 C 263.675781 237.625 263.742188 237.285156 263.742188 236.929688 C 263.742188 236.578125 263.675781 236.238281 263.539062 235.910156 C 263.40625 235.585938 263.210938 235.296875 262.960938 235.046875 C 262.710938 234.796875 262.425781 234.605469 262.097656 234.46875 C 261.773438 234.335938 261.433594 234.265625 261.078125 234.265625 Z M 261.078125 250.207031 L 241.550781 250.207031 C 241.199219 250.207031 240.859375 250.273438 240.53125 250.410156 C 240.207031 250.542969 239.917969 250.738281 239.667969 250.988281 C 239.417969 251.238281 239.226562 251.523438 239.089844 251.851562 C 238.957031 252.175781 238.886719 252.515625 238.886719 252.871094 C 238.886719 253.222656 238.957031 253.5625 239.089844 253.890625 C 239.226562 254.214844 239.417969 254.503906 239.667969 254.753906 C 239.917969 255.003906 240.207031 255.195312 240.53125 255.332031 C 240.859375 255.464844 241.199219 255.53125 241.550781 255.53125 L 261.078125 255.53125 C 261.433594 255.53125 261.773438 255.464844 262.097656 255.332031 C 262.425781 255.195312 262.710938 255.003906 262.960938 254.753906 C 263.210938 254.503906 263.40625 254.214844 263.539062 253.890625 C 263.675781 253.5625 263.742188 253.222656 263.742188 252.871094 C 263.742188 252.515625 263.675781 252.175781 263.539062 251.851562 C 263.40625 251.523438 263.210938 251.238281 262.960938 250.988281 C 262.710938 250.738281 262.425781 250.542969 262.097656 250.410156 C 261.773438 250.273438 261.433594 250.207031 261.078125 250.207031 Z M 111.121094 181.617188 L 149.140625 181.617188 C 149.496094 181.617188 149.835938 181.550781 150.160156 181.414062 C 150.488281 181.28125 150.777344 181.085938 151.023438 180.835938 C 151.273438 180.585938 151.46875 180.300781 151.601562 179.972656 C 151.738281 179.648438 151.804688 179.308594 151.804688 178.953125 C 151.804688 178.601562 151.738281 178.261719 151.601562 177.933594 C 151.46875 177.609375 151.273438 177.320312 151.023438 177.070312 C 150.777344 176.820312 150.488281 176.628906 150.160156 176.492188 C 149.835938 176.359375 149.496094 176.292969 149.140625 176.292969 L 111.121094 176.292969 C 110.765625 176.292969 110.429688 176.359375 110.101562 176.492188 C 109.773438 176.628906 109.488281 176.820312 109.238281 177.070312 C 108.988281 177.320312 108.796875 177.609375 108.660156 177.933594 C 108.523438 178.261719 108.457031 178.601562 108.457031 178.953125 C 108.457031 179.308594 108.523438 179.648438 108.660156 179.972656 C 108.796875 180.300781 108.988281 180.585938 109.238281 180.835938 C 109.488281 181.085938 109.773438 181.28125 110.101562 181.414062 C 110.429688 181.550781 110.765625 181.617188 111.121094 181.617188 Z M 111.121094 196.886719 L 149.140625 196.886719 C 149.496094 196.886719 149.835938 196.820312 150.160156 196.683594 C 150.488281 196.550781 150.777344 196.355469 151.023438 196.109375 C 151.273438 195.859375 151.46875 195.570312 151.601562 195.242188 C 151.738281 194.917969 151.804688 194.578125 151.804688 194.222656 C 151.804688 193.871094 151.738281 193.53125 151.601562 193.207031 C 151.46875 192.878906 151.273438 192.589844 151.023438 192.339844 C 150.777344 192.089844 150.488281 191.898438 150.160156 191.765625 C 149.835938 191.628906 149.496094 191.5625 149.140625 191.5625 L 111.121094 191.5625 C 110.765625 191.5625 110.429688 191.628906 110.101562 191.765625 C 109.773438 191.898438 109.488281 192.089844 109.238281 192.339844 C 108.988281 192.589844 108.796875 192.878906 108.660156 193.207031 C 108.523438 193.53125 108.457031 193.871094 108.457031 194.222656 C 108.457031 194.578125 108.523438 194.917969 108.660156 195.242188 C 108.796875 195.570312 108.988281 195.859375 109.238281 196.109375 C 109.488281 196.355469 109.773438 196.550781 110.101562 196.683594 C 110.429688 196.820312 110.765625 196.886719 111.121094 196.886719 Z M 111.121094 212.15625 L 120.722656 212.15625 C 121.078125 212.15625 121.417969 212.089844 121.742188 211.957031 C 122.070312 211.820312 122.355469 211.628906 122.605469 211.378906 C 122.855469 211.128906 123.050781 210.839844 123.183594 210.515625 C 123.320312 210.1875 123.386719 209.847656 123.386719 209.496094 C 123.386719 209.140625 123.320312 208.800781 123.183594 208.476562 C 123.050781 208.148438 122.855469 207.863281 122.605469 207.613281 C 122.355469 207.363281 122.070312 207.167969 121.742188 207.035156 C 121.417969 206.898438 121.078125 206.832031 120.722656 206.832031 L 111.121094 206.832031 C 110.765625 206.832031 110.429688 206.898438 110.101562 207.035156 C 109.773438 207.167969 109.488281 207.363281 109.238281 207.613281 C 108.988281 207.863281 108.796875 208.148438 108.660156 208.476562 C 108.523438 208.800781 108.457031 209.140625 108.457031 209.496094 C 108.457031 209.847656 108.523438 210.1875 108.660156 210.515625 C 108.796875 210.839844 108.988281 211.128906 109.238281 211.378906 C 109.488281 211.628906 109.773438 211.820312 110.101562 211.957031 C 110.429688 212.089844 110.765625 212.15625 111.121094 212.15625 Z M 111.121094 227.425781 L 120.722656 227.425781 C 121.078125 227.425781 121.417969 227.359375 121.742188 227.222656 C 122.070312 227.089844 122.355469 226.894531 122.605469 226.644531 C 122.855469 226.394531 123.050781 226.109375 123.183594 225.78125 C 123.320312 225.457031 123.386719 225.117188 123.386719 224.761719 C 123.386719 224.410156 123.320312 224.070312 123.183594 223.742188 C 123.050781 223.417969 122.855469 223.128906 122.605469 222.878906 C 122.355469 222.628906 122.070312 222.4375 121.742188 222.300781 C 121.417969 222.167969 121.078125 222.101562 120.722656 222.101562 L 111.121094 222.101562 C 110.765625 222.101562 110.429688 222.167969 110.101562 222.300781 C 109.773438 222.4375 109.488281 222.628906 109.238281 222.878906 C 108.988281 223.128906 108.796875 223.417969 108.660156 223.742188 C 108.523438 224.070312 108.457031 224.410156 108.457031 224.761719 C 108.457031 225.117188 108.523438 225.457031 108.660156 225.78125 C 108.796875 226.109375 108.988281 226.394531 109.238281 226.644531 C 109.488281 226.894531 109.773438 227.089844 110.101562 227.222656 C 110.429688 227.359375 110.765625 227.425781 111.121094 227.425781 Z M 111.121094 242.695312 L 120.722656 242.695312 C 121.078125 242.695312 121.417969 242.628906 121.742188 242.492188 C 122.070312 242.359375 122.355469 242.167969 122.605469 241.917969 C 122.855469 241.667969 123.050781 241.378906 123.183594 241.054688 C 123.320312 240.726562 123.386719 240.386719 123.386719 240.035156 C 123.386719 239.679688 123.320312 239.339844 123.183594 239.015625 C 123.050781 238.6875 122.855469 238.398438 122.605469 238.152344 C 122.355469 237.902344 122.070312 237.707031 121.742188 237.574219 C 121.417969 237.4375 121.078125 237.371094 120.722656 237.371094 L 111.121094 237.371094 C 110.765625 237.371094 110.429688 237.4375 110.101562 237.574219 C 109.773438 237.707031 109.488281 237.902344 109.238281 238.152344 C 108.988281 238.398438 108.796875 238.6875 108.660156 239.015625 C 108.523438 239.339844 108.457031 239.679688 108.457031 240.035156 C 108.457031 240.386719 108.523438 240.726562 108.660156 241.050781 C 108.796875 241.378906 108.988281 241.667969 109.238281 241.917969 C 109.488281 242.167969 109.773438 242.359375 110.101562 242.492188 C 110.429688 242.628906 110.765625 242.695312 111.121094 242.695312 Z M 123.386719 255.300781 C 123.386719 254.949219 123.320312 254.609375 123.183594 254.28125 C 123.050781 253.957031 122.855469 253.667969 122.605469 253.417969 C 122.355469 253.167969 122.070312 252.976562 121.742188 252.839844 C 121.417969 252.707031 121.078125 252.636719 120.722656 252.636719 L 111.121094 252.636719 C 110.765625 252.636719 110.429688 252.707031 110.101562 252.839844 C 109.773438 252.976562 109.488281 253.167969 109.238281 253.417969 C 108.988281 253.667969 108.796875 253.957031 108.660156 254.28125 C 108.523438 254.609375 108.457031 254.949219 108.457031 255.300781 C 108.457031 255.65625 108.523438 255.996094 108.660156 256.320312 C 108.796875 256.648438 108.988281 256.933594 109.238281 257.183594 C 109.488281 257.433594 109.773438 257.625 110.101562 257.761719 C 110.429688 257.898438 110.765625 257.964844 111.121094 257.964844 L 120.722656 257.964844 C 121.078125 257.964844 121.417969 257.898438 121.742188 257.761719 C 122.066406 257.628906 122.355469 257.433594 122.605469 257.1875 C 122.855469 256.9375 123.046875 256.648438 123.183594 256.324219 C 123.320312 255.996094 123.386719 255.660156 123.386719 255.304688 Z M 123.386719 255.300781 " fill-opacity="1" fill-rule="nonzero"/></g></svg>