<svg xmlns="http://www.w3.org/2000/svg" xmlns:xlink="http://www.w3.org/1999/xlink" width="500" zoomAndPan="magnify" viewBox="0 0 375 374.999991" height="500" preserveAspectRatio="xMidYMid meet" version="1.0"><path fill="#0b1972" d="M 110.042969 65.503906 C 106.929688 65.503906 104.386719 62.980469 104.386719 59.847656 C 104.386719 56.726562 106.929688 54.1875 110.042969 54.1875 L 182.15625 54.1875 C 185.269531 54.1875 187.816406 56.734375 187.816406 59.847656 C 187.816406 62.980469 185.269531 65.503906 182.15625 65.503906 Z M 205.847656 261.375 C 202.734375 261.375 200.1875 258.855469 200.1875 255.71875 C 200.1875 252.601562 202.734375 250.0625 205.847656 250.0625 L 340.828125 250.0625 C 343.949219 250.0625 346.488281 252.609375 346.488281 255.71875 C 346.488281 258.855469 343.941406 261.375 340.828125 261.375 Z M 205.847656 332.441406 C 202.734375 332.441406 200.1875 329.917969 200.1875 326.785156 C 200.1875 323.664062 202.734375 321.125 205.847656 321.125 L 340.828125 321.125 C 343.949219 321.125 346.488281 323.671875 346.488281 326.785156 C 346.488281 329.917969 343.941406 332.441406 340.828125 332.441406 Z M 205.847656 296.914062 C 202.734375 296.914062 200.1875 294.390625 200.1875 291.253906 C 200.1875 288.136719 202.734375 285.597656 205.847656 285.597656 L 340.828125 285.597656 C 343.949219 285.597656 346.488281 288.144531 346.488281 291.253906 C 346.488281 294.390625 343.941406 296.914062 340.828125 296.914062 Z M 110.042969 126.992188 C 106.929688 126.992188 104.386719 124.46875 104.386719 121.332031 C 104.386719 118.222656 106.929688 115.675781 110.042969 115.675781 L 182.15625 115.675781 C 185.269531 115.675781 187.816406 118.222656 187.816406 121.332031 C 187.816406 124.46875 185.269531 126.992188 182.15625 126.992188 Z M 110.042969 96.246094 C 106.929688 96.246094 104.386719 93.726562 104.386719 90.589844 C 104.386719 87.46875 106.929688 84.933594 110.042969 84.933594 L 182.15625 84.933594 C 185.269531 84.933594 187.816406 87.476562 187.816406 90.589844 C 187.816406 93.726562 185.269531 96.246094 182.15625 96.246094 Z M 195.816406 189.050781 L 340.828125 189.050781 C 343.949219 189.050781 346.488281 191.574219 346.488281 194.710938 L 346.488281 224.328125 C 346.488281 227.441406 343.941406 229.988281 340.828125 229.988281 L 195.816406 229.988281 C 192.679688 229.988281 190.160156 227.441406 190.160156 224.328125 L 190.160156 194.710938 C 190.160156 191.574219 192.679688 189.050781 195.816406 189.050781 Z M 335.171875 200.367188 L 201.472656 200.367188 L 201.472656 218.671875 L 335.171875 218.671875 Z M 272.289062 51.984375 C 296.226562 51.984375 312.21875 76.542969 302.867188 98.347656 C 315.265625 98.347656 325.34375 108.425781 325.34375 120.777344 L 325.34375 138.460938 C 343.164062 112.800781 340.003906 78.046875 317.941406 56.007812 C 292.742188 30.785156 251.847656 30.785156 226.648438 56.007812 C 204.585938 78.046875 201.402344 112.800781 219.230469 138.460938 L 219.230469 120.777344 C 219.230469 108.425781 229.308594 98.347656 241.707031 98.347656 C 232.355469 76.542969 248.347656 51.984375 272.289062 51.984375 Z M 294.875 109.671875 C 288.945312 115.144531 281.015625 118.511719 272.289062 118.511719 C 263.582031 118.511719 255.628906 115.144531 249.699219 109.671875 L 241.679688 109.671875 C 235.5625 109.671875 230.542969 114.691406 230.542969 120.785156 L 230.542969 150.914062 C 234.074219 153.910156 237.945312 156.546875 242.070312 158.726562 L 242.070312 142.460938 C 242.070312 139.324219 244.589844 136.800781 247.726562 136.800781 C 250.835938 136.800781 253.382812 139.324219 253.382812 142.460938 L 253.382812 163.425781 C 265.660156 167.183594 278.929688 167.183594 291.207031 163.425781 L 291.207031 142.460938 C 291.207031 139.324219 293.726562 136.800781 296.863281 136.800781 C 299.976562 136.800781 302.523438 139.324219 302.523438 142.460938 L 302.523438 158.726562 C 306.644531 156.554688 310.492188 153.917969 314.023438 150.914062 L 314.023438 120.785156 C 314.023438 114.691406 309.003906 109.671875 302.910156 109.671875 Z M 287.820312 69.738281 C 274.03125 55.949219 250.335938 65.753906 250.335938 85.246094 C 250.335938 97.347656 260.140625 107.199219 272.289062 107.199219 C 291.757812 107.199219 301.609375 83.535156 287.820312 69.738281 Z M 272.289062 25.78125 C 314.191406 25.78125 348.160156 59.757812 348.160156 101.652344 C 348.160156 143.574219 314.183594 177.550781 272.289062 177.550781 C 230.390625 177.550781 196.414062 143.574219 196.414062 101.652344 C 196.414062 59.75 230.382812 25.78125 272.289062 25.78125 Z M 5.527344 371.203125 C 2.269531 368.703125 0.195312 364.71875 0.195312 360.597656 L 0.195312 252.050781 C 0.195312 249.804688 1.503906 247.878906 3.378906 246.964844 L 33.347656 229.558594 L 33.347656 157.921875 C 33.347656 154.800781 35.867188 152.289062 39.003906 152.289062 L 80.785156 152.289062 L 80.785156 20.324219 C 80.785156 9.148438 89.925781 0.03125 101.105469 0.03125 L 354.578125 0.03125 C 365.753906 0.03125 374.894531 9.148438 374.894531 20.324219 L 374.894531 354.714844 C 374.894531 365.890625 365.753906 375.03125 354.578125 375.03125 L 16.753906 375.03125 C 12.445312 375.03125 8.484375 373.5625 5.527344 371.203125 Z M 11.507812 357.1875 L 73.917969 304.378906 L 52.863281 290.292969 C 52.589844 290.15625 52.339844 289.96875 52.085938 289.792969 L 36.253906 279.1875 C 35.980469 279.027344 35.730469 278.867188 35.480469 278.664062 L 11.515625 262.628906 L 11.515625 357.1875 Z M 86.167969 299.015625 L 93.5 303.917969 L 125.730469 282.339844 L 125.730469 194.433594 C 120.648438 192.601562 116.703125 188.363281 115.03125 183.183594 L 71.960938 183.183594 C 70.289062 188.363281 66.351562 192.601562 61.261719 194.433594 L 61.261719 282.339844 Z M 83.671875 310.910156 L 21.261719 363.71875 L 165.726562 363.71875 L 103.34375 310.910156 L 96.722656 315.332031 C 94.867188 316.617188 92.351562 316.730469 90.355469 315.394531 Z M 113.113281 304.378906 L 175.5 357.1875 L 175.5 262.613281 L 151.535156 278.648438 C 151.285156 278.859375 151.035156 279.011719 150.757812 279.171875 L 134.925781 289.777344 C 134.675781 289.960938 134.425781 290.140625 134.152344 290.277344 Z M 16.503906 252.398438 L 33.335938 263.671875 L 33.335938 242.617188 Z M 44.660156 271.226562 L 49.953125 274.777344 L 49.953125 189.789062 C 49.953125 186.675781 52.5 184.128906 55.613281 184.128906 C 59.023438 184.128906 61.519531 180.992188 61.519531 177.535156 C 61.519531 174.398438 64.066406 171.878906 67.175781 171.878906 L 119.820312 171.878906 C 122.933594 171.878906 125.480469 174.398438 125.480469 177.535156 C 125.480469 180.992188 127.976562 184.128906 131.386719 184.128906 C 134.523438 184.128906 137.042969 186.675781 137.042969 189.789062 L 137.042969 274.785156 L 142.339844 271.238281 L 142.339844 163.578125 C 109.785156 163.578125 77.207031 163.578125 44.652344 163.578125 L 44.652344 271.226562 Z M 153.660156 263.664062 L 170.496094 252.390625 L 153.660156 242.609375 Z M 186.789062 252.050781 L 186.8125 252.050781 L 186.8125 360.597656 C 186.8125 361.671875 186.675781 362.707031 186.425781 363.71875 L 354.578125 363.71875 C 359.523438 363.71875 363.582031 359.636719 363.582031 354.714844 L 363.582031 20.324219 C 363.582031 15.402344 359.523438 11.347656 354.578125 11.347656 L 101.105469 11.347656 C 96.160156 11.347656 92.101562 15.402344 92.101562 20.324219 L 92.101562 152.289062 L 148.003906 152.289062 C 151.140625 152.289062 153.660156 154.808594 153.660156 157.921875 L 153.660156 229.558594 L 183.992188 247.175781 C 185.777344 248.203125 186.789062 250.101562 186.789062 252.050781 Z M 67.6875 254.09375 C 67.6875 239.847656 79.25 228.273438 93.507812 228.273438 C 107.78125 228.273438 119.328125 239.839844 119.328125 254.09375 C 119.328125 268.367188 107.78125 279.917969 93.507812 279.917969 C 79.25 279.910156 67.6875 268.367188 67.6875 254.09375 Z M 83.234375 243.832031 C 74.117188 252.945312 80.601562 268.59375 93.5 268.59375 C 106.398438 268.59375 112.878906 252.945312 103.761719 243.832031 C 98.105469 238.171875 88.902344 238.171875 83.234375 243.832031 Z M 83.234375 243.832031 " fill-opacity="1" fill-rule="nonzero"/><path fill="#0b1972" d="M 110.042969 65.503906 C 106.929688 65.503906 104.386719 62.980469 104.386719 59.847656 C 104.386719 56.726562 106.929688 54.1875 110.042969 54.1875 L 182.15625 54.1875 C 185.269531 54.1875 187.816406 56.734375 187.816406 59.847656 C 187.816406 62.980469 185.269531 65.503906 182.15625 65.503906 Z M 205.847656 261.375 C 202.734375 261.375 200.1875 258.855469 200.1875 255.71875 C 200.1875 252.601562 202.734375 250.0625 205.847656 250.0625 L 340.828125 250.0625 C 343.949219 250.0625 346.488281 252.609375 346.488281 255.71875 C 346.488281 258.855469 343.941406 261.375 340.828125 261.375 Z M 205.847656 332.441406 C 202.734375 332.441406 200.1875 329.917969 200.1875 326.785156 C 200.1875 323.664062 202.734375 321.125 205.847656 321.125 L 340.828125 321.125 C 343.949219 321.125 346.488281 323.671875 346.488281 326.785156 C 346.488281 329.917969 343.941406 332.441406 340.828125 332.441406 Z M 205.847656 296.914062 C 202.734375 296.914062 200.1875 294.390625 200.1875 291.253906 C 200.1875 288.136719 202.734375 285.597656 205.847656 285.597656 L 340.828125 285.597656 C 343.949219 285.597656 346.488281 288.144531 346.488281 291.253906 C 346.488281 294.390625 343.941406 296.914062 340.828125 296.914062 Z M 110.042969 126.992188 C 106.929688 126.992188 104.386719 124.46875 104.386719 121.332031 C 104.386719 118.222656 106.929688 115.675781 110.042969 115.675781 L 182.15625 115.675781 C 185.269531 115.675781 187.816406 118.222656 187.816406 121.332031 C 187.816406 124.46875 185.269531 126.992188 182.15625 126.992188 Z M 110.042969 96.246094 C 106.929688 96.246094 104.386719 93.726562 104.386719 90.589844 C 104.386719 87.46875 106.929688 84.933594 110.042969 84.933594 L 182.15625 84.933594 C 185.269531 84.933594 187.816406 87.476562 187.816406 90.589844 C 187.816406 93.726562 185.269531 96.246094 182.15625 96.246094 Z M 195.816406 189.050781 L 340.828125 189.050781 C 343.949219 189.050781 346.488281 191.574219 346.488281 194.710938 L 346.488281 224.328125 C 346.488281 227.441406 343.941406 229.988281 340.828125 229.988281 L 195.816406 229.988281 C 192.679688 229.988281 190.160156 227.441406 190.160156 224.328125 L 190.160156 194.710938 C 190.160156 191.574219 192.679688 189.050781 195.816406 189.050781 Z M 335.171875 200.367188 L 201.472656 200.367188 L 201.472656 218.671875 L 335.171875 218.671875 Z M 272.289062 51.984375 C 296.226562 51.984375 312.21875 76.542969 302.867188 98.347656 C 315.265625 98.347656 325.34375 108.425781 325.34375 120.777344 L 325.34375 138.460938 C 343.164062 112.800781 340.003906 78.046875 317.941406 56.007812 C 292.742188 30.785156 251.847656 30.785156 226.648438 56.007812 C 204.585938 78.046875 201.402344 112.800781 219.230469 138.460938 L 219.230469 120.777344 C 219.230469 108.425781 229.308594 98.347656 241.707031 98.347656 C 232.355469 76.542969 248.347656 51.984375 272.289062 51.984375 Z M 294.875 109.671875 C 288.945312 115.144531 281.015625 118.511719 272.289062 118.511719 C 263.582031 118.511719 255.628906 115.144531 249.699219 109.671875 L 241.679688 109.671875 C 235.5625 109.671875 230.542969 114.691406 230.542969 120.785156 L 230.542969 150.914062 C 234.074219 153.910156 237.945312 156.546875 242.070312 158.726562 L 242.070312 142.460938 C 242.070312 139.324219 244.589844 136.800781 247.726562 136.800781 C 250.835938 136.800781 253.382812 139.324219 253.382812 142.460938 L 253.382812 163.425781 C 265.660156 167.183594 278.929688 167.183594 291.207031 163.425781 L 291.207031 142.460938 C 291.207031 139.324219 293.726562 136.800781 296.863281 136.800781 C 299.976562 136.800781 302.523438 139.324219 302.523438 142.460938 L 302.523438 158.726562 C 306.644531 156.554688 310.492188 153.917969 314.023438 150.914062 L 314.023438 120.785156 C 314.023438 114.691406 309.003906 109.671875 302.910156 109.671875 Z M 287.820312 69.738281 C 274.03125 55.949219 250.335938 65.753906 250.335938 85.246094 C 250.335938 97.347656 260.140625 107.199219 272.289062 107.199219 C 291.757812 107.199219 301.609375 83.535156 287.820312 69.738281 Z M 272.289062 25.78125 C 314.191406 25.78125 348.160156 59.757812 348.160156 101.652344 C 348.160156 143.574219 314.183594 177.550781 272.289062 177.550781 C 230.390625 177.550781 196.414062 143.574219 196.414062 101.652344 C 196.414062 59.75 230.382812 25.78125 272.289062 25.78125 Z M 5.527344 371.203125 C 2.269531 368.703125 0.195312 364.71875 0.195312 360.597656 L 0.195312 252.050781 C 0.195312 249.804688 1.503906 247.878906 3.378906 246.964844 L 33.347656 229.558594 L 33.347656 157.921875 C 33.347656 154.800781 35.867188 152.289062 39.003906 152.289062 L 80.785156 152.289062 L 80.785156 20.324219 C 80.785156 9.148438 89.925781 0.03125 101.105469 0.03125 L 354.578125 0.03125 C 365.753906 0.03125 374.894531 9.148438 374.894531 20.324219 L 374.894531 354.714844 C 374.894531 365.890625 365.753906 375.03125 354.578125 375.03125 L 16.753906 375.03125 C 12.445312 375.03125 8.484375 373.5625 5.527344 371.203125 Z M 11.507812 357.1875 L 73.917969 304.378906 L 52.863281 290.292969 C 52.589844 290.15625 52.339844 289.96875 52.085938 289.792969 L 36.253906 279.1875 C 35.980469 279.027344 35.730469 278.867188 35.480469 278.664062 L 11.515625 262.628906 L 11.515625 357.1875 Z M 86.167969 299.015625 L 93.5 303.917969 L 125.730469 282.339844 L 125.730469 194.433594 C 120.648438 192.601562 116.703125 188.363281 115.03125 183.183594 L 71.960938 183.183594 C 70.289062 188.363281 66.351562 192.601562 61.261719 194.433594 L 61.261719 282.339844 Z M 83.671875 310.910156 L 21.261719 363.71875 L 165.726562 363.71875 L 103.34375 310.910156 L 96.722656 315.332031 C 94.867188 316.617188 92.351562 316.730469 90.355469 315.394531 Z M 113.113281 304.378906 L 175.5 357.1875 L 175.5 262.613281 L 151.535156 278.648438 C 151.285156 278.859375 151.035156 279.011719 150.757812 279.171875 L 134.925781 289.777344 C 134.675781 289.960938 134.425781 290.140625 134.152344 290.277344 Z M 16.503906 252.398438 L 33.335938 263.671875 L 33.335938 242.617188 Z M 44.660156 271.226562 L 49.953125 274.777344 L 49.953125 189.789062 C 49.953125 186.675781 52.5 184.128906 55.613281 184.128906 C 59.023438 184.128906 61.519531 180.992188 61.519531 177.535156 C 61.519531 174.398438 64.066406 171.878906 67.175781 171.878906 L 119.820312 171.878906 C 122.933594 171.878906 125.480469 174.398438 125.480469 177.535156 C 125.480469 180.992188 127.976562 184.128906 131.386719 184.128906 C 134.523438 184.128906 137.042969 186.675781 137.042969 189.789062 L 137.042969 274.785156 L 142.339844 271.238281 L 142.339844 163.578125 C 109.785156 163.578125 77.207031 163.578125 44.652344 163.578125 L 44.652344 271.226562 Z M 153.660156 263.664062 L 170.496094 252.390625 L 153.660156 242.609375 Z M 186.789062 252.050781 L 186.8125 252.050781 L 186.8125 360.597656 C 186.8125 361.671875 186.675781 362.707031 186.425781 363.71875 L 354.578125 363.71875 C 359.523438 363.71875 363.582031 359.636719 363.582031 354.714844 L 363.582031 20.324219 C 363.582031 15.402344 359.523438 11.347656 354.578125 11.347656 L 101.105469 11.347656 C 96.160156 11.347656 92.101562 15.402344 92.101562 20.324219 L 92.101562 152.289062 L 148.003906 152.289062 C 151.140625 152.289062 153.660156 154.808594 153.660156 157.921875 L 153.660156 229.558594 L 183.992188 247.175781 C 185.777344 248.203125 186.789062 250.101562 186.789062 252.050781 Z M 67.6875 254.09375 C 67.6875 239.847656 79.25 228.273438 93.507812 228.273438 C 107.78125 228.273438 119.328125 239.839844 119.328125 254.09375 C 119.328125 268.367188 107.78125 279.917969 93.507812 279.917969 C 79.25 279.910156 67.6875 268.367188 67.6875 254.09375 Z M 83.234375 243.832031 C 74.117188 252.945312 80.601562 268.59375 93.5 268.59375 C 106.398438 268.59375 112.878906 252.945312 103.761719 243.832031 C 98.105469 238.171875 88.902344 238.171875 83.234375 243.832031 Z M 83.234375 243.832031 " fill-opacity="1" fill-rule="nonzero"/></svg>