<svg xmlns="http://www.w3.org/2000/svg" xmlns:xlink="http://www.w3.org/1999/xlink" width="500" zoomAndPan="magnify" viewBox="0 0 375 374.999991" height="500" preserveAspectRatio="xMidYMid meet" version="1.0"><defs><clipPath id="721661703e"><path d="M 187.5 0 C 83.945312 0 0 83.945312 0 187.5 C 0 291.054688 83.945312 375 187.5 375 C 291.054688 375 375 291.054688 375 187.5 C 375 83.945312 291.054688 0 187.5 0 Z M 187.5 0 " clip-rule="nonzero"/></clipPath><clipPath id="b4246c8c28"><path d="M 0 0 L 375 0 L 375 375 L 0 375 Z M 0 0 " clip-rule="nonzero"/></clipPath><clipPath id="f2d1b6d7b5"><path d="M 187.5 0 C 83.945312 0 0 83.945312 0 187.5 C 0 291.054688 83.945312 375 187.5 375 C 291.054688 375 375 291.054688 375 187.5 C 375 83.945312 291.054688 0 187.5 0 Z M 187.5 0 " clip-rule="nonzero"/></clipPath><clipPath id="890ec420f1"><rect x="0" width="375" y="0" height="375"/></clipPath><clipPath id="161301308a"><path d="M 31.363281 91 L 283 91 L 283 202.964844 L 31.363281 202.964844 Z M 31.363281 91 " clip-rule="nonzero"/></clipPath><clipPath id="c7f351277c"><path d="M 54 43.144531 L 259 43.144531 L 259 90 L 54 90 Z M 54 43.144531 " clip-rule="nonzero"/></clipPath><clipPath id="286e134446"><path d="M 0.199219 0.421875 L 96.09375 0.421875 L 96.09375 64.351562 L 0.199219 64.351562 Z M 0.199219 0.421875 " clip-rule="nonzero"/></clipPath><clipPath id="e4ca020f30"><path d="M 225.6875 0.421875 L 301.601562 0.421875 L 301.601562 76.335938 L 225.6875 76.335938 Z M 225.6875 0.421875 " clip-rule="nonzero"/></clipPath><clipPath id="a70b15d762"><rect x="0" width="303" y="0" height="204"/></clipPath></defs><g clip-path="url(#721661703e)"><g transform="matrix(1, 0, 0, 1, 0, 0)"><g clip-path="url(#890ec420f1)"><g clip-path="url(#b4246c8c28)"><g clip-path="url(#f2d1b6d7b5)"><rect x="-82.5" width="540" fill="#e6ac41" height="539.999987" y="-82.499998" fill-opacity="1"/></g></g></g></g></g><g transform="matrix(1, 0, 0, 1, 29, 79)"><g clip-path="url(#a70b15d762)"><g clip-path="url(#161301308a)"><path fill="#ffffff" d="M 156.992188 203.636719 C 116.054688 203.636719 75.113281 203.636719 34.171875 203.636719 C 33.859375 203.636719 33.542969 203.664062 33.230469 203.644531 C 32.15625 203.589844 31.363281 203.117188 31.363281 201.964844 C 31.363281 200.851562 32.117188 200.21875 33.164062 200.152344 C 34.621094 200.058594 36.09375 200.082031 37.558594 200.125 C 38.363281 200.148438 38.671875 199.890625 38.628906 199.054688 C 38.574219 197.855469 38.570312 196.644531 38.648438 195.445312 C 38.765625 193.5625 39.910156 192.527344 41.804688 192.472656 C 45.042969 192.386719 45.042969 192.386719 45.054688 189.101562 C 45.054688 188.785156 45.058594 188.472656 45.0625 188.160156 C 45.097656 185.765625 46.097656 184.792969 48.542969 184.785156 C 52.128906 184.773438 52.128906 184.773438 52.203125 181.320312 C 52.261719 178.640625 53.246094 177.679688 55.960938 177.652344 C 58.890625 177.617188 58.894531 177.617188 58.898438 174.710938 C 58.90625 154.03125 58.902344 133.351562 58.9375 112.671875 C 58.941406 111.683594 58.761719 111.328125 57.675781 111.339844 C 54.933594 111.371094 54.191406 110.542969 54.191406 107.761719 C 54.195312 102.890625 54.261719 98.019531 54.15625 93.15625 C 54.128906 91.726562 54.539062 91.453125 55.886719 91.453125 C 83.476562 91.492188 111.066406 91.472656 138.65625 91.472656 C 176.976562 91.472656 215.300781 91.476562 253.621094 91.480469 C 254.878906 91.480469 256.136719 91.535156 257.390625 91.496094 C 258.175781 91.46875 258.484375 91.667969 258.480469 92.535156 C 258.441406 97.875 258.484375 103.214844 258.457031 108.554688 C 258.449219 110.394531 257.445312 111.488281 255.644531 111.339844 C 253.886719 111.195312 253.671875 111.902344 253.675781 113.429688 C 253.726562 134.320312 253.726562 155.210938 253.683594 176.097656 C 253.683594 177.433594 254.023438 177.847656 255.328125 177.679688 C 256.257812 177.558594 257.210938 177.628906 258.152344 177.660156 C 260.066406 177.730469 261.105469 178.785156 261.207031 180.714844 C 261.214844 180.875 261.203125 181.03125 261.214844 181.1875 C 261.316406 182.367188 260.671875 183.90625 261.492188 184.636719 C 262.285156 185.34375 263.792969 184.820312 264.984375 184.835938 C 267.703125 184.871094 268.605469 185.789062 268.609375 188.554688 C 268.613281 189.808594 268.1875 191.4375 268.808594 192.214844 C 269.476562 193.046875 271.171875 192.402344 272.414062 192.445312 C 274.472656 192.519531 275.578125 193.570312 275.636719 195.65625 C 275.667969 196.808594 275.683594 197.964844 275.621094 199.113281 C 275.578125 199.949219 275.882812 200.199219 276.703125 200.152344 C 277.902344 200.082031 279.109375 200.105469 280.3125 200.136719 C 281.863281 200.175781 282.800781 200.90625 282.6875 202.027344 C 282.539062 203.476562 281.480469 203.671875 280.28125 203.667969 C 264.628906 203.652344 248.976562 203.636719 233.324219 203.632812 C 207.882812 203.628906 182.4375 203.632812 156.992188 203.632812 C 156.992188 203.632812 156.992188 203.636719 156.992188 203.636719 Z M 137.5625 144.53125 C 137.5625 153.847656 137.550781 163.164062 137.574219 172.484375 C 137.578125 174.148438 136.867188 176.347656 137.828125 177.335938 C 138.875 178.40625 141.097656 177.496094 142.796875 177.679688 C 143.941406 177.804688 144.292969 177.457031 144.289062 176.238281 C 144.25 165.976562 144.316406 155.71875 144.273438 145.457031 C 144.265625 144.1875 144.640625 143.914062 145.824219 143.921875 C 153.050781 143.980469 160.273438 144 167.496094 143.941406 C 168.808594 143.929688 169.261719 144.113281 169.25 145.589844 C 169.179688 155.796875 169.242188 166.003906 169.203125 176.210938 C 169.195312 177.378906 169.457031 177.789062 170.660156 177.6875 C 172.011719 177.574219 173.390625 177.554688 174.738281 177.683594 C 176.140625 177.816406 176.445312 177.351562 176.445312 175.964844 C 176.402344 154.921875 176.414062 133.875 176.460938 112.832031 C 176.464844 111.652344 176.199219 111.359375 175.011719 111.367188 C 163.074219 111.414062 151.140625 111.429688 139.203125 111.355469 C 137.714844 111.34375 137.527344 111.824219 137.535156 113.121094 C 137.582031 123.589844 137.5625 134.058594 137.5625 144.53125 Z M 156.332031 94.3125 C 147.695312 94.3125 139.054688 94.3125 130.414062 94.3125 C 106.539062 94.308594 82.664062 94.3125 58.789062 94.28125 C 57.613281 94.277344 57.042969 94.488281 57.21875 95.804688 C 57.335938 96.679688 57.3125 97.589844 57.214844 98.472656 C 57.09375 99.625 57.445312 99.976562 58.664062 99.972656 C 75.261719 99.925781 91.859375 99.933594 108.457031 99.933594 C 156.101562 99.933594 203.75 99.933594 251.394531 99.929688 C 252.695312 99.929688 254.40625 100.378906 255.1875 99.730469 C 256.113281 98.957031 255.378906 97.167969 255.558594 95.835938 C 255.730469 94.582031 255.28125 94.285156 254.035156 94.285156 C 221.46875 94.320312 188.898438 94.316406 156.332031 94.3125 Z M 211.058594 144.523438 C 211.058594 133.949219 211.03125 123.375 211.09375 112.800781 C 211.101562 111.546875 210.722656 111.367188 209.613281 111.375 C 203.015625 111.417969 196.417969 111.417969 189.824219 111.363281 C 188.75 111.355469 188.402344 111.605469 188.402344 112.730469 C 188.4375 133.980469 188.441406 155.234375 188.414062 176.488281 C 188.414062 177.480469 188.707031 177.703125 189.652344 177.699219 C 196.300781 177.652344 202.949219 177.636719 209.597656 177.679688 C 210.714844 177.6875 211.097656 177.480469 211.089844 176.246094 C 211.035156 165.671875 211.058594 155.097656 211.058594 144.523438 Z M 103.160156 144.511719 C 103.164062 144.511719 103.167969 144.511719 103.171875 144.511719 C 103.171875 155.140625 103.1875 165.769531 103.144531 176.398438 C 103.140625 177.441406 103.390625 177.703125 104.429688 177.695312 C 110.921875 177.636719 117.414062 177.613281 123.90625 177.683594 C 125.238281 177.699219 125.511719 177.3125 125.511719 176.039062 C 125.476562 154.886719 125.476562 133.734375 125.527344 112.578125 C 125.53125 111.367188 125.019531 111.371094 124.144531 111.375 C 117.652344 111.402344 111.160156 111.429688 104.667969 111.367188 C 103.40625 111.355469 103.125 111.726562 103.132812 112.9375 C 103.179688 123.464844 103.160156 133.988281 103.160156 144.511719 Z M 157.292969 195.921875 C 157.292969 195.929688 157.292969 195.9375 157.292969 195.945312 C 119.855469 195.945312 82.417969 195.945312 44.980469 195.945312 C 42.207031 195.945312 42.261719 195.9375 42.183594 198.714844 C 42.148438 199.878906 42.449219 200.191406 43.652344 200.191406 C 118.894531 200.148438 194.136719 200.144531 269.378906 200.132812 C 272.117188 200.132812 272.039062 200.117188 272.21875 197.472656 C 272.304688 196.199219 271.957031 195.894531 270.703125 195.894531 C 232.898438 195.925781 195.097656 195.921875 157.292969 195.921875 Z M 156.824219 192.460938 C 156.824219 192.460938 156.824219 192.457031 156.824219 192.457031 C 192.0625 192.457031 227.296875 192.457031 262.53125 192.457031 C 265.082031 192.457031 264.953125 192.441406 265.152344 189.957031 C 265.285156 188.296875 264.75 188.015625 263.207031 188.015625 C 209.332031 188.054688 155.457031 188.046875 101.582031 188.046875 C 84.355469 188.046875 67.132812 188.0625 49.90625 188.035156 C 48.859375 188.03125 48.308594 188.210938 48.507812 189.378906 C 48.566406 189.734375 48.570312 190.121094 48.507812 190.476562 C 48.21875 192.101562 48.863281 192.5 50.488281 192.5 C 85.933594 192.449219 121.378906 192.460938 156.824219 192.460938 Z M 91.050781 144.535156 C 91.054688 144.535156 91.058594 144.535156 91.0625 144.535156 C 91.0625 133.910156 91.039062 123.285156 91.09375 112.660156 C 91.097656 111.585938 90.820312 111.355469 89.808594 111.363281 C 83.945312 111.410156 78.082031 111.40625 72.222656 111.371094 C 71.261719 111.367188 70.867188 111.527344 70.867188 112.628906 C 70.902344 133.878906 70.894531 155.128906 70.863281 176.378906 C 70.863281 177.390625 71.117188 177.695312 72.164062 177.6875 C 77.867188 177.625 83.574219 177.605469 89.277344 177.675781 C 90.648438 177.695312 91.105469 177.445312 91.09375 175.9375 C 91.015625 165.472656 91.050781 155.003906 91.050781 144.535156 Z M 156.246094 107.960938 C 188.386719 107.960938 220.527344 107.960938 252.667969 107.960938 C 255.527344 107.960938 255.433594 107.949219 255.574219 105.074219 C 255.648438 103.566406 255.273438 103.179688 253.726562 103.179688 C 189.289062 103.226562 124.847656 103.21875 60.410156 103.21875 C 57.273438 103.21875 57.359375 103.214844 57.234375 106.246094 C 57.175781 107.71875 57.65625 107.996094 59.039062 107.992188 C 91.441406 107.953125 123.84375 107.960938 156.246094 107.960938 Z M 241.75 144.574219 C 241.746094 144.574219 241.742188 144.574219 241.742188 144.574219 C 241.742188 134 241.722656 123.425781 241.769531 112.851562 C 241.773438 111.683594 241.503906 111.351562 240.308594 111.367188 C 235.074219 111.433594 229.835938 111.4375 224.601562 111.359375 C 223.335938 111.335938 223.042969 111.722656 223.046875 112.925781 C 223.085938 134.078125 223.085938 155.226562 223.070312 176.375 C 223.070312 177.375 223.292969 177.714844 224.367188 177.699219 C 229.652344 177.632812 234.941406 177.617188 240.230469 177.683594 C 241.457031 177.699219 241.789062 177.398438 241.78125 176.144531 C 241.726562 165.621094 241.75 155.097656 241.75 144.574219 Z M 156.664062 181.125 C 134.050781 181.125 111.433594 181.125 88.820312 181.125 C 78.246094 181.125 67.671875 181.128906 57.097656 181.148438 C 56.601562 181.148438 55.777344 180.882812 55.679688 181.421875 C 55.496094 182.429688 55.480469 183.542969 55.734375 184.527344 C 55.914062 185.238281 56.839844 184.847656 57.417969 184.847656 C 106.101562 184.871094 154.785156 184.875 203.46875 184.878906 C 221.007812 184.878906 238.542969 184.871094 256.082031 184.851562 C 256.578125 184.851562 257.3125 185.136719 257.542969 184.644531 C 257.988281 183.683594 257.835938 182.566406 257.671875 181.5625 C 257.535156 180.726562 256.621094 181.144531 256.074219 181.144531 C 222.9375 181.121094 189.800781 181.125 156.664062 181.125 Z M 128.980469 144.488281 C 128.988281 144.488281 128.992188 144.488281 128.996094 144.488281 C 128.996094 154.378906 128.996094 164.265625 128.996094 174.15625 C 129 177.683594 129.003906 177.59375 132.546875 177.714844 C 134.058594 177.765625 134.296875 177.246094 134.292969 175.882812 C 134.261719 155.6875 134.28125 135.492188 134.289062 115.296875 C 134.289062 111.355469 134.289062 111.402344 130.300781 111.363281 C 129.152344 111.351562 128.953125 111.722656 128.957031 112.78125 C 129 123.351562 128.980469 133.917969 128.980469 144.488281 Z M 99.738281 144.519531 C 99.738281 144.519531 99.742188 144.519531 99.746094 144.519531 C 99.746094 134.628906 99.742188 124.734375 99.746094 114.84375 C 99.746094 111.394531 99.75 111.457031 96.265625 111.355469 C 94.925781 111.316406 94.527344 111.605469 94.53125 113.042969 C 94.582031 133.40625 94.554688 153.765625 94.546875 174.125 C 94.546875 177.652344 94.546875 177.59375 98.117188 177.695312 C 99.402344 177.730469 99.773438 177.40625 99.769531 176.082031 C 99.710938 165.5625 99.738281 155.042969 99.738281 144.519531 Z M 185.121094 144.703125 C 185.128906 144.703125 185.136719 144.703125 185.144531 144.703125 C 185.144531 134.761719 185.140625 124.820312 185.144531 114.882812 C 185.148438 111.386719 185.152344 111.449219 181.695312 111.363281 C 180.320312 111.328125 179.882812 111.640625 179.886719 113.125 C 179.941406 133.371094 179.910156 153.621094 179.929688 173.867188 C 179.929688 175.101562 179.363281 176.734375 180.199219 177.457031 C 180.898438 178.058594 182.492188 177.5625 183.675781 177.6875 C 184.84375 177.8125 185.160156 177.453125 185.152344 176.25 C 185.097656 165.734375 185.121094 155.21875 185.121094 144.703125 Z M 214.539062 144.53125 C 214.542969 144.53125 214.546875 144.53125 214.550781 144.53125 C 214.550781 154.425781 214.546875 164.316406 214.550781 174.210938 C 214.554688 177.667969 214.566406 177.59375 218.070312 177.699219 C 219.457031 177.742188 219.78125 177.386719 219.777344 175.992188 C 219.730469 155.683594 219.753906 135.371094 219.757812 115.0625 C 219.761719 111.359375 219.757812 111.410156 216 111.347656 C 214.832031 111.328125 214.503906 111.621094 214.511719 112.8125 C 214.558594 123.382812 214.539062 133.957031 214.539062 144.53125 Z M 67.386719 144.691406 C 67.394531 144.691406 67.398438 144.691406 67.402344 144.691406 C 67.402344 134.75 67.402344 124.804688 67.402344 114.859375 C 67.402344 111.378906 67.402344 111.453125 63.949219 111.355469 C 62.582031 111.316406 62.347656 111.765625 62.351562 113.023438 C 62.394531 133.382812 62.386719 153.742188 62.394531 174.101562 C 62.394531 177.679688 62.402344 177.609375 65.929688 177.699219 C 67.261719 177.734375 67.417969 177.242188 67.414062 176.097656 C 67.371094 165.628906 67.386719 155.160156 67.386719 144.691406 Z M 250.21875 144.597656 C 250.21875 134.65625 250.21875 124.710938 250.21875 114.765625 C 250.222656 111.386719 250.222656 111.449219 246.839844 111.355469 C 245.554688 111.320312 245.203125 111.617188 245.203125 112.957031 C 245.253906 133.367188 245.242188 153.777344 245.242188 174.191406 C 245.242188 177.652344 245.242188 177.601562 248.683594 177.679688 C 249.882812 177.707031 250.261719 177.445312 250.253906 176.160156 C 250.191406 165.640625 250.21875 155.121094 250.21875 144.597656 Z M 155.371094 167.617188 C 155.371094 167.617188 155.367188 167.617188 155.363281 167.617188 C 155.363281 164.636719 155.308594 161.652344 155.394531 158.671875 C 155.425781 157.527344 155.039062 157.242188 153.972656 157.292969 C 152.300781 157.371094 150.625 157.367188 148.953125 157.300781 C 147.96875 157.265625 147.597656 157.5 147.609375 158.59375 C 147.667969 164.554688 147.660156 170.519531 147.613281 176.484375 C 147.605469 177.496094 147.941406 177.71875 148.871094 177.679688 C 150.59375 177.609375 152.328125 177.582031 154.050781 177.675781 C 155.207031 177.742188 155.421875 177.296875 155.398438 176.25 C 155.328125 173.375 155.371094 170.496094 155.371094 167.617188 Z M 165.769531 167.488281 C 165.773438 167.488281 165.777344 167.488281 165.78125 167.488281 C 165.78125 164.457031 165.753906 161.425781 165.796875 158.394531 C 165.8125 157.566406 165.554688 157.300781 164.734375 157.320312 C 162.90625 157.363281 161.074219 157.347656 159.246094 157.300781 C 158.472656 157.28125 158.125 157.464844 158.128906 158.335938 C 158.160156 164.453125 158.164062 170.570312 158.125 176.6875 C 158.121094 177.597656 158.515625 177.699219 159.257812 177.679688 C 161.035156 177.632812 162.816406 177.59375 164.589844 177.667969 C 165.582031 177.710938 165.8125 177.382812 165.792969 176.429688 C 165.730469 173.453125 165.769531 170.46875 165.769531 167.488281 Z M 156.660156 153.851562 C 156.660156 153.847656 156.660156 153.847656 156.660156 153.84375 C 159.332031 153.84375 162 153.8125 164.667969 153.863281 C 165.535156 153.878906 165.871094 153.648438 165.828125 152.738281 C 165.753906 151.226562 165.769531 149.703125 165.800781 148.1875 C 165.816406 147.519531 165.605469 147.265625 164.914062 147.269531 C 159.46875 147.28125 154.027344 147.277344 148.582031 147.246094 C 147.835938 147.242188 147.574219 147.480469 147.605469 148.238281 C 147.660156 149.703125 147.6875 151.171875 147.609375 152.632812 C 147.558594 153.585938 147.816406 153.902344 148.8125 153.875 C 151.425781 153.804688 154.046875 153.851562 156.660156 153.851562 Z M 156.660156 153.851562 " fill-opacity="1" fill-rule="evenodd"/></g><g clip-path="url(#c7f351277c)"><path fill="#ffffff" d="M 156.1875 89.25 C 122.992188 89.25 89.796875 89.25 56.605469 89.246094 C 56.132812 89.246094 55.660156 89.226562 55.195312 89.167969 C 54.574219 89.085938 54.296875 88.648438 54.308594 88.066406 C 54.320312 87.5 54.585938 87.023438 55.183594 86.925781 C 55.695312 86.839844 56.226562 86.855469 56.75 86.855469 C 64.34375 86.847656 71.933594 86.804688 79.527344 86.867188 C 80.871094 86.875 81.285156 86.457031 81.140625 85.1875 C 81.054688 84.410156 81.101562 83.617188 81.125 82.832031 C 81.179688 81.214844 81.820312 80.566406 83.453125 80.550781 C 85.652344 80.523438 87.855469 80.515625 90.050781 80.570312 C 90.949219 80.589844 91.496094 80.417969 91.3125 79.382812 C 90.707031 75.957031 92.410156 74.3125 95.414062 72.859375 C 115.269531 63.242188 135.03125 53.441406 154.796875 43.648438 C 156.199219 42.953125 157.265625 42.988281 158.6875 43.695312 C 176.390625 52.484375 194.128906 61.195312 211.863281 69.921875 C 214.394531 71.167969 216.90625 72.46875 219.496094 73.585938 C 221.328125 74.375 222.144531 75.535156 222.066406 77.566406 C 221.953125 80.5625 222.046875 80.566406 225.070312 80.558594 C 226.429688 80.558594 227.792969 80.539062 229.152344 80.570312 C 230.800781 80.609375 231.535156 81.355469 231.589844 82.976562 C 231.601562 83.238281 231.589844 83.5 231.589844 83.761719 C 231.578125 86.820312 231.578125 86.828125 234.5625 86.828125 C 241.734375 86.832031 248.910156 86.824219 256.082031 86.824219 C 256.449219 86.824219 256.816406 86.824219 257.179688 86.851562 C 257.957031 86.910156 258.285156 87.394531 258.261719 88.117188 C 258.242188 88.789062 257.867188 89.195312 257.183594 89.222656 C 256.503906 89.25 255.824219 89.207031 255.144531 89.207031 C 222.160156 89.207031 189.171875 89.207031 156.1875 89.207031 C 156.1875 89.222656 156.1875 89.238281 156.1875 89.25 Z M 109.449219 80.230469 C 109.496094 80.304688 109.542969 80.378906 109.589844 80.453125 C 141.160156 80.453125 172.730469 80.453125 204.359375 80.453125 C 204.25 79.945312 203.882812 79.929688 203.636719 79.800781 C 188.390625 71.957031 172.941406 64.523438 157.511719 57.046875 C 156.808594 56.707031 156.28125 56.808594 155.625 57.132812 C 143.238281 63.324219 130.84375 69.484375 118.453125 75.664062 C 115.441406 77.167969 112.449219 78.707031 109.449219 80.230469 Z M 215.515625 80.585938 C 216.351562 80.585938 216.980469 80.59375 217.609375 80.582031 C 217.914062 80.578125 218.234375 80.625 218.433594 80.277344 C 218.988281 79.304688 218.320312 77.035156 217.328125 76.546875 C 197.609375 66.871094 177.886719 57.207031 158.1875 47.5 C 157.089844 46.957031 156.246094 46.902344 155.140625 47.457031 C 148.367188 50.859375 141.558594 54.1875 134.761719 57.542969 C 122.058594 63.8125 109.359375 70.082031 96.652344 76.347656 C 94.738281 77.292969 94.445312 77.839844 94.765625 79.894531 C 94.832031 80.328125 94.941406 80.597656 95.410156 80.566406 C 97.617188 80.417969 99.800781 80.785156 101.988281 79.6875 C 119.84375 70.738281 137.757812 61.902344 155.644531 53.011719 C 156.382812 52.644531 156.960938 52.664062 157.6875 53.023438 C 175.828125 61.972656 193.980469 70.894531 212.117188 79.851562 C 213.285156 80.425781 214.4375 80.761719 215.515625 80.585938 Z M 156.367188 83.824219 C 156.367188 83.820312 156.367188 83.820312 156.367188 83.816406 C 132.710938 83.816406 109.054688 83.828125 85.398438 83.785156 C 84.003906 83.78125 83.824219 84.269531 83.792969 85.488281 C 83.761719 86.792969 84.304688 86.875 85.371094 86.875 C 107.925781 86.847656 130.484375 86.863281 153.039062 86.859375 C 177.792969 86.851562 202.546875 86.828125 227.304688 86.855469 C 228.578125 86.855469 228.835938 86.449219 228.882812 85.257812 C 228.929688 83.964844 228.402344 83.722656 227.332031 83.828125 C 226.917969 83.867188 226.496094 83.824219 226.078125 83.824219 C 202.839844 83.824219 179.601562 83.824219 156.367188 83.824219 Z M 156.367188 83.824219 " fill-opacity="1" fill-rule="evenodd"/></g><path fill="#ffffff" d="M 156.816406 118.371094 C 160.425781 118.371094 164.035156 118.394531 167.644531 118.355469 C 168.570312 118.34375 169.039062 118.445312 169.015625 119.589844 C 168.941406 123.878906 168.949219 128.167969 169 132.457031 C 169.011719 133.453125 168.707031 133.683594 167.753906 133.660156 C 166.820312 133.640625 166.367188 133.546875 166.386719 132.410156 C 166.433594 129.527344 166.367188 129.601562 163.492188 129.492188 C 162.214844 129.445312 161.804688 129.851562 161.992188 131.054688 C 162.046875 131.414062 161.945312 131.792969 162.003906 132.152344 C 162.1875 133.308594 161.769531 133.648438 160.570312 133.664062 C 159.332031 133.679688 159.253906 133.15625 159.265625 132.179688 C 159.292969 129.527344 159.246094 129.664062 156.597656 129.476562 C 154.820312 129.351562 154.550781 130.03125 154.628906 131.554688 C 154.660156 132.214844 155.40625 133.421875 153.816406 133.617188 C 152.472656 133.78125 151.84375 133.519531 151.929688 131.9375 C 152.0625 129.503906 151.949219 129.496094 149.488281 129.503906 C 147.476562 129.507812 147.488281 129.507812 147.464844 131.628906 C 147.453125 132.585938 147.898438 133.75 146.066406 133.667969 C 144.914062 133.617188 144.703125 133.320312 144.71875 132.265625 C 144.777344 128.078125 144.792969 123.894531 144.71875 119.710938 C 144.699219 118.546875 145.097656 118.332031 146.144531 118.351562 C 149.699219 118.40625 153.257812 118.371094 156.816406 118.371094 Z M 154.671875 123.800781 C 154.671875 124.480469 154.691406 125.164062 154.664062 125.84375 C 154.644531 126.382812 154.886719 126.523438 155.402344 126.589844 C 159 127.066406 159.234375 126.882812 159.289062 123.320312 C 159.289062 123.164062 159.265625 123.003906 159.296875 122.851562 C 159.617188 121.300781 158.945312 120.949219 157.460938 121.019531 C 154.6875 121.152344 154.679688 121.058594 154.671875 123.800781 Z M 147.523438 123.859375 C 147.523438 124.328125 147.582031 124.808594 147.511719 125.265625 C 147.332031 126.425781 147.867188 126.617188 148.910156 126.59375 C 151.949219 126.523438 151.949219 126.570312 151.957031 123.585938 C 151.957031 123.273438 151.910156 122.953125 151.964844 122.648438 C 152.207031 121.328125 151.660156 120.996094 150.371094 121.035156 C 147.523438 121.121094 147.519531 121.050781 147.523438 123.859375 Z M 166.402344 123.941406 C 166.402344 123.417969 166.332031 122.886719 166.414062 122.378906 C 166.597656 121.246094 166.132812 121 165.058594 121.03125 C 162.046875 121.113281 162.042969 121.0625 162.023438 124.015625 C 162.019531 124.332031 162.0625 124.652344 162.003906 124.953125 C 161.746094 126.355469 162.308594 126.703125 163.6875 126.625 C 166.382812 126.472656 166.386719 126.5625 166.402344 123.941406 Z M 166.402344 123.941406 " fill-opacity="1" fill-rule="evenodd"/><path fill="#ffffff" d="M 194.6875 156.152344 C 194.6875 152.488281 194.71875 148.824219 194.667969 145.160156 C 194.65625 144.269531 194.898438 143.988281 195.796875 144.007812 C 198.515625 144.058594 201.238281 144.054688 203.960938 144.011719 C 204.75 144 204.921875 144.300781 204.921875 145.019531 C 204.894531 152.347656 204.882812 159.675781 204.90625 167 C 204.910156 167.84375 204.640625 168.0625 203.835938 168.050781 C 201.113281 168.015625 198.394531 168.023438 195.671875 168.082031 C 194.800781 168.101562 194.648438 167.785156 194.660156 166.984375 C 194.703125 163.375 194.679688 159.765625 194.679688 156.152344 C 194.679688 156.152344 194.683594 156.152344 194.6875 156.152344 Z M 197.484375 161.566406 C 197.484375 162.664062 197.542969 163.761719 197.464844 164.847656 C 197.398438 165.757812 197.859375 166.015625 198.558594 165.792969 C 199.742188 165.414062 201.695312 166.820312 202.0625 164.917969 C 202.480469 162.757812 202.140625 160.457031 202.179688 158.214844 C 202.191406 157.519531 201.933594 157.363281 201.277344 157.316406 C 197.480469 157.054688 197.480469 157.035156 197.484375 160.785156 C 197.484375 161.046875 197.484375 161.308594 197.484375 161.566406 Z M 197.476562 150.867188 C 197.476562 151.859375 197.527344 152.851562 197.460938 153.835938 C 197.390625 154.859375 198.09375 154.886719 198.660156 154.6875 C 199.804688 154.289062 201.351562 155.734375 202.148438 153.910156 C 202.167969 153.867188 202.152344 153.808594 202.152344 153.753906 C 202.15625 151.773438 202.128906 149.796875 202.175781 147.816406 C 202.195312 147.101562 201.90625 146.972656 201.265625 146.933594 C 197.476562 146.683594 197.480469 146.667969 197.476562 150.402344 C 197.476562 150.554688 197.476562 150.710938 197.476562 150.867188 Z M 197.476562 150.867188 " fill-opacity="1" fill-rule="evenodd"/><path fill="#ffffff" d="M 204.863281 125.996094 C 204.863281 128.195312 204.796875 130.394531 204.886719 132.585938 C 204.9375 133.789062 204.222656 133.605469 203.492188 133.640625 C 202.679688 133.679688 201.988281 133.65625 202.164062 132.535156 C 202.171875 132.484375 202.167969 132.433594 202.164062 132.378906 C 202.082031 128.894531 202.082031 128.925781 198.609375 128.957031 C 197.757812 128.964844 197.367188 129.140625 197.464844 130.066406 C 197.535156 130.792969 197.40625 131.535156 197.484375 132.261719 C 197.589844 133.253906 197.285156 133.601562 196.226562 133.640625 C 195.015625 133.683594 194.628906 133.394531 194.660156 132.109375 C 194.75 127.980469 194.730469 123.84375 194.660156 119.714844 C 194.640625 118.65625 194.964844 118.363281 195.96875 118.382812 C 198.582031 118.433594 201.199219 118.445312 203.8125 118.386719 C 204.746094 118.367188 204.964844 118.707031 204.945312 119.5625 C 204.898438 121.707031 204.929688 123.851562 204.929688 125.996094 C 204.90625 125.996094 204.882812 125.996094 204.863281 125.996094 Z M 202.15625 123.648438 C 202.164062 121.117188 202.164062 121.117188 199.839844 121.121094 C 197.503906 121.121094 197.503906 121.121094 197.496094 123.816406 C 197.488281 126.152344 197.488281 126.152344 199.730469 126.144531 C 202.152344 126.136719 202.152344 126.136719 202.15625 123.648438 Z M 202.15625 123.648438 " fill-opacity="1" fill-rule="evenodd"/><path fill="#ffffff" d="M 119.933594 156.15625 C 119.933594 159.65625 119.902344 163.160156 119.953125 166.660156 C 119.972656 167.671875 119.796875 168.128906 118.632812 168.089844 C 116.023438 167.996094 113.40625 168.03125 110.796875 168.074219 C 109.953125 168.085938 109.632812 167.925781 109.640625 166.96875 C 109.683594 159.761719 109.6875 152.550781 109.628906 145.339844 C 109.621094 144.183594 110.015625 143.976562 111.058594 144.007812 C 113.617188 144.074219 116.179688 144.066406 118.734375 143.988281 C 119.699219 143.960938 119.988281 144.203125 119.972656 145.1875 C 119.914062 148.84375 119.949219 152.5 119.949219 156.15625 C 119.945312 156.15625 119.9375 156.15625 119.933594 156.15625 Z M 112.53125 161.386719 C 112.535156 161.386719 112.542969 161.386719 112.546875 161.386719 C 112.546875 162.535156 112.617188 163.691406 112.527344 164.835938 C 112.429688 166.082031 113.300781 166.003906 113.925781 165.796875 C 115.019531 165.433594 116.890625 166.964844 117.164062 164.800781 C 117.433594 162.691406 117.214844 160.519531 117.253906 158.378906 C 117.265625 157.652344 117.035156 157.398438 116.277344 157.347656 C 112.53125 157.085938 112.53125 157.058594 112.53125 160.757812 C 112.53125 160.964844 112.53125 161.175781 112.53125 161.386719 Z M 117.210938 150.8125 C 117.191406 146.761719 117.191406 146.78125 113.523438 146.945312 C 112.820312 146.976562 112.492188 147.105469 112.511719 147.90625 C 112.558594 149.882812 112.546875 151.867188 112.503906 153.847656 C 112.488281 154.535156 112.734375 154.695312 113.394531 154.738281 C 117.21875 154.988281 117.214844 155.007812 117.210938 151.28125 C 117.210938 151.125 117.210938 150.96875 117.210938 150.8125 Z M 117.210938 150.8125 " fill-opacity="1" fill-rule="evenodd"/><path fill="#ffffff" d="M 109.671875 126.023438 C 109.671875 123.882812 109.707031 121.738281 109.65625 119.597656 C 109.632812 118.765625 109.796875 118.371094 110.738281 118.382812 C 113.507812 118.429688 116.277344 118.410156 119.042969 118.378906 C 119.726562 118.371094 119.945312 118.617188 119.941406 119.285156 C 119.925781 123.777344 119.914062 128.269531 119.953125 132.761719 C 119.960938 133.960938 119.152344 133.597656 118.550781 133.609375 C 117.933594 133.621094 117.070312 133.894531 117.210938 132.71875 C 117.230469 132.5625 117.214844 132.40625 117.210938 132.246094 C 117.171875 128.683594 116.921875 128.496094 113.257812 128.96875 C 112.628906 129.050781 112.472656 129.304688 112.492188 129.859375 C 112.511719 130.535156 112.398438 131.230469 112.503906 131.894531 C 112.75 133.394531 112.097656 133.730469 110.710938 133.667969 C 109.734375 133.621094 109.617188 133.261719 109.636719 132.449219 C 109.683594 130.308594 109.652344 128.164062 109.652344 126.023438 C 109.660156 126.023438 109.664062 126.023438 109.671875 126.023438 Z M 117.1875 123.667969 C 117.1875 123.300781 117.136719 122.929688 117.195312 122.574219 C 117.378906 121.449219 117.046875 121.050781 115.804688 121.085938 C 112.503906 121.175781 112.503906 121.109375 112.519531 124.410156 C 112.519531 124.671875 112.554688 124.9375 112.515625 125.191406 C 112.402344 125.976562 112.769531 126.21875 113.496094 126.152344 C 113.910156 126.113281 114.332031 126.140625 114.746094 126.136719 C 117.164062 126.128906 117.164062 126.128906 117.1875 123.667969 Z M 117.1875 123.667969 " fill-opacity="1" fill-rule="evenodd"/><path fill="#ffffff" d="M 85.824219 156.148438 C 85.824219 159.710938 85.792969 163.269531 85.84375 166.828125 C 85.855469 167.730469 85.746094 168.113281 84.691406 168.078125 C 82.023438 167.988281 79.351562 168.019531 76.683594 168.070312 C 75.824219 168.085938 75.519531 167.894531 75.523438 166.960938 C 75.566406 159.683594 75.566406 152.410156 75.535156 145.132812 C 75.527344 144.214844 75.835938 144.003906 76.695312 144.019531 C 79.363281 144.0625 82.035156 144.066406 84.703125 143.996094 C 85.636719 143.972656 85.835938 144.300781 85.828125 145.15625 C 85.789062 148.820312 85.8125 152.484375 85.8125 156.152344 C 85.816406 156.148438 85.820312 156.148438 85.824219 156.148438 Z M 83.078125 161.585938 C 83.078125 161.585938 83.082031 161.585938 83.082031 161.585938 C 83.082031 160.492188 83.027344 159.390625 83.097656 158.300781 C 83.171875 157.15625 82.382812 157.226562 81.773438 157.40625 C 80.644531 157.738281 78.761719 156.417969 78.445312 158.292969 C 78.078125 160.476562 78.367188 162.765625 78.367188 165.011719 C 78.367188 165.4375 78.332031 165.878906 78.964844 165.859375 C 80.261719 165.820312 81.734375 166.144531 82.796875 165.625 C 83.574219 165.246094 82.960938 163.699219 83.070312 162.679688 C 83.109375 162.320312 83.078125 161.953125 83.078125 161.585938 Z M 78.335938 150.773438 C 78.335938 154.921875 78.335938 154.921875 81.957031 154.734375 C 82.007812 154.730469 82.0625 154.726562 82.113281 154.730469 C 82.875 154.8125 83.089844 154.441406 83.078125 153.714844 C 83.042969 151.785156 83.042969 149.855469 83.09375 147.925781 C 83.113281 147.144531 82.820312 146.996094 82.089844 146.976562 C 78.335938 146.886719 78.339844 146.863281 78.335938 150.617188 C 78.335938 150.671875 78.335938 150.722656 78.335938 150.773438 Z M 78.335938 150.773438 " fill-opacity="1" fill-rule="evenodd"/><path fill="#ffffff" d="M 85.804688 125.984375 C 85.804688 128.179688 85.734375 130.375 85.832031 132.5625 C 85.886719 133.757812 85.207031 133.625 84.464844 133.632812 C 83.722656 133.636719 82.917969 133.765625 83.09375 132.582031 C 83.109375 132.480469 83.09375 132.371094 83.09375 132.269531 C 83.011719 128.71875 82.71875 128.492188 79.078125 128.96875 C 78.558594 129.039062 78.339844 129.183594 78.355469 129.714844 C 78.382812 130.5 78.28125 131.292969 78.382812 132.0625 C 78.5625 133.425781 77.96875 133.738281 76.71875 133.667969 C 75.847656 133.621094 75.566406 133.414062 75.574219 132.507812 C 75.621094 128.175781 75.613281 123.839844 75.578125 119.503906 C 75.570312 118.707031 75.773438 118.386719 76.609375 118.394531 C 79.378906 118.417969 82.144531 118.40625 84.914062 118.347656 C 85.757812 118.332031 85.824219 118.742188 85.816406 119.40625 C 85.789062 121.597656 85.804688 123.792969 85.804688 125.984375 Z M 78.386719 123.539062 C 78.386719 123.902344 78.433594 124.273438 78.378906 124.628906 C 78.1875 125.820312 78.59375 126.226562 79.859375 126.195312 C 83.085938 126.113281 83.089844 126.175781 83.089844 122.925781 C 83.089844 122.773438 83.0625 122.609375 83.09375 122.460938 C 83.304688 121.339844 82.8125 120.949219 81.738281 121.109375 C 81.433594 121.152344 81.117188 121.117188 80.804688 121.121094 C 78.367188 121.125 78.367188 121.125 78.386719 123.539062 Z M 78.386719 123.539062 " fill-opacity="1" fill-rule="evenodd"/><path fill="#ffffff" d="M 238.1875 155.992188 C 238.1875 159.605469 238.15625 163.214844 238.207031 166.824219 C 238.21875 167.769531 237.980469 168.089844 236.988281 168.066406 C 234.320312 167.996094 231.648438 168.003906 228.980469 168.074219 C 228.09375 168.09375 227.96875 167.765625 227.972656 166.996094 C 227.996094 159.722656 228.007812 152.449219 227.953125 145.171875 C 227.945312 144.121094 228.34375 143.996094 229.222656 144.011719 C 231.835938 144.054688 234.457031 144.0625 237.070312 143.996094 C 238 143.972656 238.21875 144.296875 238.207031 145.160156 C 238.171875 148.769531 238.191406 152.382812 238.191406 155.992188 C 238.191406 155.992188 238.1875 155.992188 238.1875 155.992188 Z M 235.433594 161.703125 C 235.433594 161.386719 235.433594 161.074219 235.433594 160.757812 C 235.421875 157.074219 235.425781 157.09375 231.707031 157.332031 C 230.960938 157.378906 230.710938 157.601562 230.726562 158.347656 C 230.773438 160.546875 230.757812 162.746094 230.761719 164.941406 C 230.765625 165.355469 230.679688 165.84375 231.320312 165.835938 C 232.621094 165.8125 234.070312 166.09375 235.171875 165.605469 C 235.871094 165.296875 235.335938 163.773438 235.425781 162.800781 C 235.460938 162.4375 235.433594 162.066406 235.433594 161.703125 Z M 235.4375 150.90625 C 235.4375 149.863281 235.660156 148.757812 235.390625 147.789062 C 234.859375 145.851562 233.21875 147.402344 232.140625 147.003906 C 231.660156 146.824219 230.707031 146.578125 230.722656 147.785156 C 230.753906 149.816406 230.746094 151.851562 230.722656 153.886719 C 230.71875 154.460938 230.867188 154.679688 231.496094 154.75 C 235.316406 155.171875 235.417969 155.105469 235.441406 151.375 C 235.441406 151.21875 235.441406 151.0625 235.4375 150.90625 Z M 235.4375 150.90625 " fill-opacity="1" fill-rule="evenodd"/><path fill="#ffffff" d="M 238.152344 125.996094 C 238.152344 128.1875 238.09375 130.382812 238.171875 132.574219 C 238.222656 133.933594 237.316406 133.53125 236.609375 133.621094 C 235.78125 133.722656 235.304688 133.546875 235.414062 132.570312 C 235.480469 132.003906 235.339844 131.410156 235.425781 130.851562 C 235.648438 129.378906 235.179688 128.867188 233.605469 128.953125 C 230.761719 129.113281 230.71875 129.007812 230.773438 132.015625 C 230.792969 133.117188 230.707031 133.738281 229.3125 133.675781 C 228.1875 133.625 227.945312 133.296875 227.960938 132.234375 C 228.015625 128.058594 228.019531 123.878906 227.949219 119.703125 C 227.929688 118.640625 228.25 118.363281 229.25 118.382812 C 231.808594 118.4375 234.371094 118.457031 236.925781 118.367188 C 238.042969 118.328125 238.214844 118.75 238.179688 119.730469 C 238.109375 121.816406 238.160156 123.90625 238.160156 125.996094 C 238.15625 125.996094 238.15625 125.996094 238.152344 125.996094 Z M 230.757812 123.492188 C 230.738281 126.171875 230.738281 126.171875 233.308594 126.164062 C 235.414062 126.15625 235.414062 126.15625 235.4375 123.347656 C 235.453125 121.097656 235.453125 121.097656 233.25 121.101562 C 230.777344 121.109375 230.777344 121.109375 230.757812 123.492188 Z M 230.757812 123.492188 " fill-opacity="1" fill-rule="evenodd"/><path fill="#ffffff" d="M 151.582031 69.746094 C 151.617188 66.710938 154 64.375 157 64.433594 C 160.085938 64.492188 162.394531 66.902344 162.351562 70.015625 C 162.3125 72.917969 159.90625 75.261719 156.988281 75.246094 C 153.867188 75.226562 151.550781 72.871094 151.582031 69.746094 Z M 153.464844 69.816406 C 153.445312 71.785156 154.90625 73.300781 156.890625 73.359375 C 158.855469 73.417969 160.378906 71.957031 160.433594 69.960938 C 160.492188 67.964844 158.921875 66.34375 156.925781 66.335938 C 154.976562 66.328125 153.484375 67.824219 153.464844 69.816406 Z M 153.464844 69.816406 " fill-opacity="1" fill-rule="evenodd"/><path fill="#ffffff" d="M 20.988281 33.679688 L 20.988281 49.910156 C 20.992188 54.707031 32.425781 60.046875 48.832031 60.046875 C 65.242188 60.046875 76.675781 54.707031 76.679688 49.910156 L 76.679688 31.113281 L 45.835938 44.839844 L 20.988281 33.679688 " fill-opacity="1" fill-rule="nonzero"/><g clip-path="url(#286e134446)"><path fill="#ffffff" d="M 55.808594 22.621094 C 55.125 22.621094 54.574219 22.070312 54.574219 21.386719 C 54.574219 20.707031 55.125 20.152344 55.808594 20.152344 L 87.136719 20.152344 C 86.988281 20.386719 86.898438 20.660156 86.898438 20.957031 L 86.898438 22.621094 Z M 97.144531 59.066406 C 95.8125 47.984375 91.488281 42.792969 89.910156 41.234375 L 89.910156 20.957031 C 89.910156 20.660156 89.820312 20.386719 89.671875 20.152344 C 89.402344 19.734375 88.9375 19.453125 88.402344 19.453125 C 88.324219 19.453125 88.246094 19.464844 88.167969 19.476562 L 45.792969 0.445312 L 0.203125 20.734375 L 45.839844 41.234375 L 86.898438 22.960938 L 86.898438 41.234375 C 85.320312 42.792969 80.992188 47.984375 79.664062 59.066406 C 79.660156 59.109375 79.65625 59.152344 79.65625 59.195312 C 79.648438 59.421875 79.667969 60.613281 80.792969 61.777344 C 82.226562 63.261719 84.789062 64.015625 88.402344 64.015625 C 92.019531 64.015625 94.578125 63.261719 96.015625 61.78125 C 97.140625 60.613281 97.160156 59.421875 97.152344 59.195312 C 97.152344 59.152344 97.148438 59.109375 97.144531 59.066406 " fill-opacity="1" fill-rule="nonzero"/></g><g clip-path="url(#e4ca020f30)"><path fill="#ffffff" d="M 263.894531 0.421875 C 242.824219 0.421875 225.6875 17.5625 225.6875 38.628906 C 225.6875 59.699219 242.824219 76.835938 263.894531 76.835938 C 284.960938 76.835938 302.101562 59.699219 302.101562 38.628906 C 302.101562 17.5625 284.960938 0.421875 263.894531 0.421875 Z M 263.894531 73.441406 C 244.699219 73.441406 229.082031 57.824219 229.082031 38.628906 C 229.082031 19.433594 244.699219 3.816406 263.894531 3.816406 C 283.089844 3.816406 298.703125 19.433594 298.703125 38.628906 C 298.703125 57.824219 283.089844 73.441406 263.894531 73.441406 Z M 263.894531 73.441406 " fill-opacity="1" fill-rule="nonzero"/></g><path fill="#ffffff" d="M 283.605469 28.773438 L 273.75 28.773438 L 273.75 18.917969 C 273.75 16.589844 271.855469 14.695312 269.523438 14.695312 L 258.261719 14.695312 C 255.933594 14.695312 254.035156 16.589844 254.035156 18.917969 L 254.035156 28.773438 L 244.183594 28.773438 C 241.851562 28.773438 239.957031 30.667969 239.957031 32.996094 L 239.957031 44.261719 C 239.957031 46.589844 241.851562 48.484375 244.183594 48.484375 L 254.035156 48.484375 L 254.035156 58.339844 C 254.035156 60.667969 255.933594 62.5625 258.261719 62.5625 L 269.523438 62.5625 C 271.855469 62.5625 273.75 60.667969 273.75 58.339844 L 273.75 48.484375 L 283.605469 48.484375 C 285.933594 48.484375 287.828125 46.589844 287.828125 44.261719 L 287.828125 32.996094 C 287.828125 30.667969 285.933594 28.773438 283.605469 28.773438 Z M 284.433594 44.261719 C 284.433594 44.71875 284.0625 45.089844 283.605469 45.089844 L 272.050781 45.089844 C 271.113281 45.089844 270.351562 45.847656 270.351562 46.789062 L 270.351562 58.339844 C 270.351562 58.796875 269.980469 59.167969 269.523438 59.167969 L 258.261719 59.167969 C 257.804688 59.167969 257.433594 58.796875 257.433594 58.339844 L 257.433594 46.789062 C 257.433594 45.847656 256.671875 45.089844 255.734375 45.089844 L 244.183594 45.089844 C 243.726562 45.089844 243.355469 44.71875 243.355469 44.261719 L 243.355469 32.996094 C 243.355469 32.539062 243.726562 32.167969 244.183594 32.167969 L 255.734375 32.167969 C 256.671875 32.167969 257.433594 31.410156 257.433594 30.472656 L 257.433594 18.917969 C 257.433594 18.460938 257.804688 18.089844 258.261719 18.089844 L 269.523438 18.089844 C 269.980469 18.089844 270.351562 18.460938 270.351562 18.917969 L 270.351562 30.472656 C 270.351562 31.410156 271.113281 32.167969 272.050781 32.167969 L 283.605469 32.167969 C 284.0625 32.167969 284.433594 32.539062 284.433594 32.996094 Z M 284.433594 44.261719 " fill-opacity="1" fill-rule="nonzero"/></g></g></svg>