<svg xmlns="http://www.w3.org/2000/svg" xmlns:xlink="http://www.w3.org/1999/xlink" width="500" zoomAndPan="magnify" viewBox="0 0 375 374.999991" height="500" preserveAspectRatio="xMidYMid meet" version="1.0"><defs><clipPath id="a2b5f4ad2b"><path d="M 187.5 0 C 83.945312 0 0 83.945312 0 187.5 C 0 291.054688 83.945312 375 187.5 375 C 291.054688 375 375 291.054688 375 187.5 C 375 83.945312 291.054688 0 187.5 0 Z M 187.5 0 " clip-rule="nonzero"/></clipPath><clipPath id="b2d671c070"><path d="M 0 0 L 375 0 L 375 375 L 0 375 Z M 0 0 " clip-rule="nonzero"/></clipPath><clipPath id="227a5785e1"><path d="M 187.5 0 C 83.945312 0 0 83.945312 0 187.5 C 0 291.054688 83.945312 375 187.5 375 C 291.054688 375 375 291.054688 375 187.5 C 375 83.945312 291.054688 0 187.5 0 Z M 187.5 0 " clip-rule="nonzero"/></clipPath><clipPath id="03137402a7"><rect x="0" width="375" y="0" height="375"/></clipPath><clipPath id="a4bd619f8c"><path d="M 181 79.421875 L 194 79.421875 L 194 91 L 181 91 Z M 181 79.421875 " clip-rule="nonzero"/></clipPath><clipPath id="e7d6483c63"><path d="M 79.421875 79.421875 L 295.421875 79.421875 L 295.421875 295.421875 L 79.421875 295.421875 Z M 79.421875 79.421875 " clip-rule="nonzero"/></clipPath></defs><g clip-path="url(#a2b5f4ad2b)"><g transform="matrix(1, 0, 0, 1, 0, 0)"><g clip-path="url(#03137402a7)"><g clip-path="url(#b2d671c070)"><g clip-path="url(#227a5785e1)"><rect x="-82.5" width="540" fill="#e6ac41" height="539.999987" y="-82.499998" fill-opacity="1"/></g></g></g></g></g><g clip-path="url(#a4bd619f8c)"><path fill="#ffffff" d="M 193.1875 85.109375 C 193.1875 85.480469 193.148438 85.851562 193.078125 86.21875 C 193.003906 86.582031 192.894531 86.941406 192.753906 87.285156 C 192.609375 87.628906 192.433594 87.957031 192.226562 88.269531 C 192.019531 88.578125 191.785156 88.867188 191.519531 89.128906 C 191.257812 89.394531 190.96875 89.628906 190.65625 89.835938 C 190.347656 90.046875 190.019531 90.21875 189.675781 90.363281 C 189.328125 90.507812 188.972656 90.613281 188.609375 90.6875 C 188.242188 90.761719 187.871094 90.796875 187.496094 90.796875 C 187.125 90.796875 186.753906 90.761719 186.386719 90.6875 C 186.023438 90.613281 185.667969 90.507812 185.320312 90.363281 C 184.976562 90.21875 184.648438 90.046875 184.335938 89.835938 C 184.027344 89.628906 183.738281 89.394531 183.476562 89.128906 C 183.210938 88.867188 182.976562 88.578125 182.769531 88.269531 C 182.5625 87.957031 182.386719 87.628906 182.242188 87.285156 C 182.101562 86.941406 181.992188 86.582031 181.917969 86.21875 C 181.847656 85.851562 181.808594 85.480469 181.808594 85.109375 C 181.808594 84.734375 181.847656 84.363281 181.917969 84 C 181.992188 83.632812 182.101562 83.277344 182.242188 82.929688 C 182.386719 82.585938 182.5625 82.257812 182.769531 81.949219 C 182.976562 81.636719 183.210938 81.351562 183.476562 81.085938 C 183.738281 80.820312 184.027344 80.585938 184.335938 80.378906 C 184.648438 80.171875 184.976562 79.996094 185.320312 79.851562 C 185.667969 79.710938 186.023438 79.601562 186.386719 79.527344 C 186.753906 79.457031 187.125 79.417969 187.496094 79.417969 C 187.871094 79.417969 188.242188 79.457031 188.609375 79.527344 C 188.972656 79.601562 189.328125 79.710938 189.675781 79.851562 C 190.019531 79.996094 190.347656 80.171875 190.65625 80.378906 C 190.96875 80.585938 191.257812 80.820312 191.519531 81.085938 C 191.785156 81.351562 192.019531 81.636719 192.226562 81.949219 C 192.433594 82.257812 192.609375 82.585938 192.753906 82.929688 C 192.894531 83.277344 193.003906 83.632812 193.078125 84 C 193.148438 84.363281 193.1875 84.734375 193.1875 85.109375 Z M 193.1875 85.109375 " fill-opacity="1" fill-rule="nonzero"/></g><path fill="#ffffff" d="M 241.535156 113.550781 C 244.679688 113.550781 247.226562 111.003906 247.226562 107.859375 C 247.226562 104.71875 244.679688 102.171875 241.535156 102.171875 L 224.472656 102.171875 C 221.332031 102.171875 218.785156 104.71875 218.785156 107.859375 L 218.785156 141.992188 C 218.785156 145.132812 221.332031 147.679688 224.472656 147.679688 L 241.535156 147.679688 C 244.679688 147.679688 247.226562 145.132812 247.226562 141.992188 C 247.226562 138.851562 244.679688 136.304688 241.535156 136.304688 L 230.160156 136.304688 L 230.160156 130.613281 L 241.535156 130.613281 C 244.679688 130.613281 247.226562 128.066406 247.226562 124.925781 C 247.226562 121.785156 244.679688 119.238281 241.535156 119.238281 L 230.160156 119.238281 L 230.160156 113.550781 Z M 241.535156 113.550781 " fill-opacity="1" fill-rule="nonzero"/><path fill="#ffffff" d="M 167.589844 107.859375 L 167.589844 141.992188 C 167.589844 145.132812 170.136719 147.679688 173.277344 147.679688 C 176.417969 147.679688 178.964844 145.132812 178.964844 141.992188 L 178.964844 123.574219 L 183.128906 128.566406 C 185.289062 131.160156 189.707031 131.160156 191.867188 128.566406 L 196.03125 123.574219 L 196.03125 141.992188 C 196.03125 145.132812 198.578125 147.679688 201.71875 147.679688 C 204.859375 147.679688 207.40625 145.132812 207.40625 141.992188 C 207.40625 141.992188 207.40625 107.921875 207.40625 107.859375 C 207.40625 102.667969 200.675781 100.21875 197.351562 104.21875 L 187.496094 116.039062 C 187.496094 116.039062 177.671875 104.25 177.644531 104.21875 C 174.308594 100.21875 167.589844 102.664062 167.589844 107.859375 Z M 167.589844 107.859375 " fill-opacity="1" fill-rule="nonzero"/><path fill="#ffffff" d="M 141.992188 113.550781 L 150.523438 113.550781 C 153.664062 113.550781 156.210938 111.003906 156.210938 107.859375 C 156.210938 104.71875 153.664062 102.171875 150.523438 102.171875 L 141.992188 102.171875 C 134.148438 102.171875 127.769531 108.554688 127.769531 116.394531 C 127.769531 124.234375 134.148438 130.613281 141.992188 130.613281 C 143.558594 130.613281 144.835938 131.890625 144.835938 133.457031 C 144.835938 135.027344 143.558594 136.304688 141.992188 136.304688 L 133.457031 136.304688 C 130.316406 136.304688 127.769531 138.851562 127.769531 141.992188 C 127.769531 145.132812 130.316406 147.679688 133.457031 147.679688 L 141.992188 147.679688 C 149.832031 147.679688 156.210938 141.300781 156.210938 133.457031 C 156.210938 125.617188 149.832031 119.238281 141.992188 119.238281 C 140.421875 119.238281 139.148438 117.964844 139.148438 116.394531 C 139.148438 114.824219 140.421875 113.550781 141.992188 113.550781 Z M 141.992188 113.550781 " fill-opacity="1" fill-rule="nonzero"/><g clip-path="url(#e7d6483c63)"><path fill="#ffffff" d="M 295.578125 181.808594 L 295.578125 164.746094 C 295.578125 164.574219 285.734375 93.699219 285.734375 93.699219 C 284.3125 85.390625 277.261719 79.417969 268.898438 79.417969 L 210.25 79.417969 C 207.121094 79.417969 204.5625 81.980469 204.5625 85.109375 C 204.5625 88.238281 207.121094 90.796875 210.25 90.796875 L 268.898438 90.796875 C 271.628906 90.796875 274.019531 92.84375 274.472656 95.402344 L 283.347656 159.054688 L 91.648438 159.054688 L 100.523438 95.515625 C 100.976562 92.84375 103.367188 90.796875 106.097656 90.796875 L 164.746094 90.796875 C 167.875 90.796875 170.433594 88.238281 170.433594 85.109375 C 170.433594 81.980469 167.875 79.417969 164.746094 79.417969 L 106.097656 79.417969 C 97.734375 79.417969 90.683594 85.390625 89.261719 93.8125 C 89.261719 93.8125 79.417969 164.574219 79.417969 164.746094 L 79.417969 181.808594 C 79.417969 190.171875 84.027344 197.453125 90.796875 201.378906 L 90.796875 284.199219 L 85.109375 284.199219 C 81.980469 284.199219 79.417969 286.757812 79.417969 289.886719 C 79.417969 293.015625 81.980469 295.578125 85.109375 295.578125 L 289.886719 295.578125 C 293.015625 295.578125 295.578125 293.015625 295.578125 289.886719 C 295.578125 286.757812 293.015625 284.199219 289.886719 284.199219 L 284.199219 284.199219 L 284.199219 201.378906 C 290.96875 197.453125 295.578125 190.171875 295.578125 181.808594 Z M 227.316406 170.433594 L 250.070312 170.433594 L 250.070312 181.808594 C 250.070312 188.066406 244.949219 193.1875 238.691406 193.1875 C 232.4375 193.1875 227.316406 188.066406 227.316406 181.808594 Z M 193.1875 170.433594 L 215.941406 170.433594 L 215.941406 181.808594 C 215.941406 188.066406 210.820312 193.1875 204.5625 193.1875 C 198.304688 193.1875 193.1875 188.066406 193.1875 181.808594 Z M 159.054688 170.433594 L 181.808594 170.433594 L 181.808594 181.808594 C 181.808594 188.066406 176.691406 193.1875 170.433594 193.1875 C 164.175781 193.1875 159.054688 188.066406 159.054688 181.808594 Z M 124.925781 170.433594 L 147.679688 170.433594 L 147.679688 181.808594 C 147.679688 188.066406 142.558594 193.1875 136.304688 193.1875 C 130.046875 193.1875 124.925781 188.066406 124.925781 181.808594 Z M 90.796875 181.808594 L 90.796875 170.433594 L 113.550781 170.433594 L 113.550781 181.808594 C 113.550781 188.066406 108.429688 193.1875 102.171875 193.1875 C 95.914062 193.1875 90.796875 188.066406 90.796875 181.808594 Z M 181.808594 255.757812 L 178.964844 255.757812 C 175.835938 255.757812 173.277344 258.316406 173.277344 261.445312 C 173.277344 264.574219 175.835938 267.132812 178.964844 267.132812 L 181.808594 267.132812 L 181.808594 284.199219 L 159.054688 284.199219 L 159.054688 238.691406 L 181.808594 238.691406 Z M 215.941406 284.199219 L 193.1875 284.199219 L 193.1875 267.132812 L 196.03125 267.132812 C 199.160156 267.132812 201.71875 264.574219 201.71875 261.445312 C 201.71875 258.316406 199.160156 255.757812 196.03125 255.757812 L 193.1875 255.757812 L 193.1875 238.691406 L 215.941406 238.691406 Z M 272.824219 284.199219 L 227.316406 284.199219 L 227.316406 233.003906 C 227.316406 229.875 224.757812 227.316406 221.628906 227.316406 L 153.367188 227.316406 C 150.238281 227.316406 147.679688 229.875 147.679688 233.003906 L 147.679688 284.199219 L 102.171875 284.199219 L 102.171875 204.5625 C 109 204.5625 115.085938 201.492188 119.238281 196.714844 C 123.390625 201.492188 129.476562 204.5625 136.304688 204.5625 C 143.128906 204.5625 149.214844 201.492188 153.367188 196.714844 C 157.519531 201.492188 163.605469 204.5625 170.433594 204.5625 C 177.257812 204.5625 183.34375 201.492188 187.496094 196.714844 C 191.648438 201.492188 197.738281 204.5625 204.5625 204.5625 C 211.390625 204.5625 217.476562 201.492188 221.628906 196.714844 C 225.78125 201.492188 231.867188 204.5625 238.691406 204.5625 C 245.519531 204.5625 251.605469 201.492188 255.757812 196.714844 C 259.910156 201.492188 265.996094 204.5625 272.824219 204.5625 Z M 272.824219 193.1875 C 266.566406 193.1875 261.445312 188.066406 261.445312 181.808594 L 261.445312 170.433594 L 284.199219 170.433594 L 284.199219 181.808594 C 284.199219 188.066406 279.078125 193.1875 272.824219 193.1875 Z M 272.824219 193.1875 " fill-opacity="1" fill-rule="nonzero"/></g><path fill="#ffffff" d="M 244.382812 215.941406 C 241.238281 215.941406 238.691406 218.488281 238.691406 221.628906 C 238.691406 224.769531 241.238281 227.316406 244.382812 227.316406 L 255.757812 227.316406 C 258.898438 227.316406 261.445312 224.769531 261.445312 221.628906 C 261.445312 218.488281 258.898438 215.941406 255.757812 215.941406 Z M 244.382812 215.941406 " fill-opacity="1" fill-rule="nonzero"/><path fill="#ffffff" d="M 255.757812 238.691406 L 244.382812 238.691406 C 241.238281 238.691406 238.691406 241.238281 238.691406 244.382812 C 238.691406 247.523438 241.238281 250.070312 244.382812 250.070312 L 255.757812 250.070312 C 258.898438 250.070312 261.445312 247.523438 261.445312 244.382812 C 261.445312 241.238281 258.898438 238.691406 255.757812 238.691406 Z M 255.757812 238.691406 " fill-opacity="1" fill-rule="nonzero"/><path fill="#ffffff" d="M 255.757812 261.445312 L 244.382812 261.445312 C 241.238281 261.445312 238.691406 263.992188 238.691406 267.132812 C 238.691406 270.277344 241.238281 272.824219 244.382812 272.824219 L 255.757812 272.824219 C 258.898438 272.824219 261.445312 270.277344 261.445312 267.132812 C 261.445312 263.992188 258.898438 261.445312 255.757812 261.445312 Z M 255.757812 261.445312 " fill-opacity="1" fill-rule="nonzero"/><path fill="#ffffff" d="M 130.613281 215.941406 L 119.238281 215.941406 C 116.097656 215.941406 113.550781 218.488281 113.550781 221.628906 C 113.550781 224.769531 116.097656 227.316406 119.238281 227.316406 L 130.613281 227.316406 C 133.757812 227.316406 136.304688 224.769531 136.304688 221.628906 C 136.304688 218.488281 133.757812 215.941406 130.613281 215.941406 Z M 130.613281 215.941406 " fill-opacity="1" fill-rule="nonzero"/><path fill="#ffffff" d="M 130.613281 238.691406 L 119.238281 238.691406 C 116.097656 238.691406 113.550781 241.238281 113.550781 244.382812 C 113.550781 247.523438 116.097656 250.070312 119.238281 250.070312 L 130.613281 250.070312 C 133.757812 250.070312 136.304688 247.523438 136.304688 244.382812 C 136.304688 241.238281 133.757812 238.691406 130.613281 238.691406 Z M 130.613281 238.691406 " fill-opacity="1" fill-rule="nonzero"/><path fill="#ffffff" d="M 130.613281 261.445312 L 119.238281 261.445312 C 116.097656 261.445312 113.550781 263.992188 113.550781 267.132812 C 113.550781 270.277344 116.097656 272.824219 119.238281 272.824219 L 130.613281 272.824219 C 133.757812 272.824219 136.304688 270.277344 136.304688 267.132812 C 136.304688 263.992188 133.757812 261.445312 130.613281 261.445312 Z M 130.613281 261.445312 " fill-opacity="1" fill-rule="nonzero"/></svg>