<svg xmlns="http://www.w3.org/2000/svg" xmlns:xlink="http://www.w3.org/1999/xlink" width="500" zoomAndPan="magnify" viewBox="0 0 375 374.999991" height="500" preserveAspectRatio="xMidYMid meet" version="1.0"><defs><clipPath id="27727abbcb"><path d="M 342 310 L 375 310 L 375 343.40625 L 342 343.40625 Z M 342 310 " clip-rule="nonzero"/></clipPath><clipPath id="190e309605"><path d="M 1 310 L 35 310 L 35 343.40625 L 1 343.40625 Z M 1 310 " clip-rule="nonzero"/></clipPath><clipPath id="5952646c23"><path d="M 1 31.40625 L 35 31.40625 L 35 65 L 1 65 Z M 1 31.40625 " clip-rule="nonzero"/></clipPath><clipPath id="0a58df67cd"><path d="M 328 31.40625 L 362 31.40625 L 362 65 L 328 65 Z M 328 31.40625 " clip-rule="nonzero"/></clipPath><clipPath id="c9a135ed38"><path d="M 342 310 L 375 310 L 375 343.40625 L 342 343.40625 Z M 342 310 " clip-rule="nonzero"/></clipPath><clipPath id="b34490a25a"><path d="M 1 310 L 35 310 L 35 343.40625 L 1 343.40625 Z M 1 310 " clip-rule="nonzero"/></clipPath><clipPath id="7fc1c2426a"><path d="M 1 31.40625 L 35 31.40625 L 35 65 L 1 65 Z M 1 31.40625 " clip-rule="nonzero"/></clipPath><clipPath id="bb64ebcea1"><path d="M 328 31.40625 L 362 31.40625 L 362 65 L 328 65 Z M 328 31.40625 " clip-rule="nonzero"/></clipPath></defs><g clip-path="url(#27727abbcb)"><path fill="#0b1972" d="M 358.628906 310.917969 C 349.613281 310.917969 342.28125 318.25 342.28125 327.265625 C 342.28125 336.28125 349.613281 343.613281 358.628906 343.613281 C 367.640625 343.613281 374.972656 336.28125 374.972656 327.265625 C 374.972656 318.25 367.640625 310.917969 358.628906 310.917969 Z M 358.628906 310.917969 " fill-opacity="1" fill-rule="nonzero"/></g><g clip-path="url(#190e309605)"><path fill="#0b1972" d="M 17.765625 310.917969 C 8.753906 310.917969 1.417969 318.25 1.417969 327.265625 C 1.417969 336.28125 8.753906 343.613281 17.765625 343.613281 C 26.78125 343.613281 34.113281 336.28125 34.113281 327.265625 C 34.113281 318.25 26.78125 310.917969 17.765625 310.917969 Z M 17.765625 310.917969 " fill-opacity="1" fill-rule="nonzero"/></g><g clip-path="url(#5952646c23)"><path fill="#0b1972" d="M 17.765625 64.105469 C 26.78125 64.105469 34.113281 56.773438 34.113281 47.761719 C 34.113281 38.746094 26.78125 31.414062 17.765625 31.414062 C 8.753906 31.414062 1.417969 38.746094 1.417969 47.761719 C 1.417969 56.773438 8.753906 64.105469 17.765625 64.105469 Z M 17.765625 64.105469 " fill-opacity="1" fill-rule="nonzero"/></g><g clip-path="url(#0a58df67cd)"><path fill="#0b1972" d="M 344.992188 64.105469 C 354.007812 64.105469 361.339844 56.773438 361.339844 47.761719 C 361.339844 38.746094 354.007812 31.414062 344.992188 31.414062 C 336.042969 31.414062 328.75 38.640625 328.648438 47.566406 C 328.648438 47.570312 328.648438 47.570312 328.648438 47.570312 C 328.65625 47.703125 328.65625 47.835938 328.648438 47.96875 C 328.757812 56.886719 336.046875 64.105469 344.992188 64.105469 Z M 344.992188 64.105469 " fill-opacity="1" fill-rule="nonzero"/></g><path fill="#0b1972" d="M 17.765625 174.574219 C 8.753906 174.574219 1.417969 181.90625 1.417969 190.921875 C 1.417969 199.933594 8.753906 207.265625 17.765625 207.265625 C 26.78125 207.265625 34.113281 199.933594 34.113281 190.921875 C 34.113281 181.90625 26.78125 174.574219 17.765625 174.574219 Z M 17.765625 174.574219 " fill-opacity="1" fill-rule="nonzero"/><path fill="#0b1972" d="M 261.117188 203.769531 C 261.570312 201.933594 263.214844 200.644531 265.105469 200.644531 L 277.707031 200.644531 C 277.847656 200.644531 277.980469 200.628906 278.109375 200.597656 C 278.117188 200.597656 278.125 200.59375 278.132812 200.59375 C 278.164062 200.585938 278.199219 200.578125 278.230469 200.570312 C 278.238281 200.566406 278.246094 200.5625 278.25 200.5625 C 278.992188 200.332031 279.53125 199.636719 279.53125 198.820312 L 279.53125 169.5625 C 279.53125 168.554688 278.714844 167.738281 277.707031 167.738281 L 265.148438 167.738281 C 263.253906 167.738281 261.605469 166.441406 261.15625 164.601562 C 259.183594 156.492188 255.992188 148.761719 251.667969 141.625 C 250.6875 140.011719 250.9375 137.933594 252.277344 136.597656 L 261.1875 127.683594 C 261.898438 126.972656 261.898438 125.8125 261.1875 125.101562 L 240.5 104.414062 C 240.035156 103.949219 239.492188 103.878906 239.207031 103.878906 C 238.925781 103.878906 238.386719 103.949219 237.917969 104.414062 L 229.035156 113.300781 C 227.695312 114.636719 225.617188 114.886719 224 113.902344 C 216.871094 109.566406 209.148438 106.355469 201.046875 104.363281 C 199.207031 103.914062 197.917969 102.265625 197.917969 100.378906 L 197.917969 87.777344 C 197.917969 86.769531 197.097656 85.949219 196.09375 85.949219 L 166.835938 85.949219 C 165.828125 85.949219 165.011719 86.769531 165.011719 87.777344 L 165.011719 100.335938 C 165.011719 102.230469 163.714844 103.875 161.875 104.324219 C 153.769531 106.300781 146.039062 109.492188 138.902344 113.816406 C 137.285156 114.796875 135.207031 114.542969 133.871094 113.207031 L 124.957031 104.292969 C 124.496094 103.828125 123.949219 103.761719 123.667969 103.761719 C 123.386719 103.761719 122.84375 103.828125 122.378906 104.292969 L 107.898438 118.773438 C 107.867188 118.808594 107.832031 118.847656 107.792969 118.882812 L 101.691406 124.984375 C 101.222656 125.449219 101.15625 125.992188 101.15625 126.273438 C 101.15625 126.554688 101.222656 127.101562 101.691406 127.5625 L 110.574219 136.445312 C 111.914062 137.785156 112.160156 139.867188 111.175781 141.484375 C 106.839844 148.609375 103.632812 156.332031 101.640625 164.4375 C 101.1875 166.273438 99.542969 167.566406 97.652344 167.566406 L 85.050781 167.566406 C 84.046875 167.566406 83.226562 168.382812 83.226562 169.390625 L 83.226562 198.648438 C 83.226562 199.652344 84.046875 200.472656 85.050781 200.472656 L 97.613281 200.472656 C 99.503906 200.472656 101.152344 201.765625 101.597656 203.605469 C 103.574219 211.714844 106.769531 219.445312 111.09375 226.578125 C 112.070312 228.199219 111.816406 230.273438 110.484375 231.609375 L 101.570312 240.523438 C 100.859375 241.234375 100.859375 242.394531 101.570312 243.105469 L 122.257812 263.792969 C 122.972656 264.503906 124.128906 264.503906 124.839844 263.792969 L 133.722656 254.910156 C 134.511719 254.117188 135.566406 253.707031 136.628906 253.707031 C 137.359375 253.707031 138.097656 253.902344 138.757812 254.304688 C 145.882812 258.640625 153.609375 261.851562 161.714844 263.84375 C 163.550781 264.292969 164.839844 265.941406 164.839844 267.828125 L 164.839844 280.433594 C 164.839844 281.4375 165.660156 282.257812 166.664062 282.257812 L 195.925781 282.257812 C 196.929688 282.257812 197.75 281.4375 197.75 280.433594 L 197.75 267.875 C 197.75 265.980469 199.042969 264.332031 200.882812 263.882812 C 208.992188 261.90625 216.71875 258.714844 223.855469 254.394531 C 225.472656 253.414062 227.546875 253.664062 228.882812 255 L 237.796875 263.914062 C 238.265625 264.378906 238.804688 264.449219 239.089844 264.449219 C 239.371094 264.449219 239.914062 264.378906 240.378906 263.914062 L 261.066406 243.226562 C 261.53125 242.761719 261.601562 242.21875 261.601562 241.933594 C 261.601562 241.652344 261.53125 241.109375 261.066406 240.644531 L 252.1875 231.761719 C 250.847656 230.421875 250.597656 228.34375 251.582031 226.726562 C 255.917969 219.597656 259.125 211.875 261.117188 203.769531 Z M 228.125 230.851562 C 215.636719 243.335938 199.035156 250.214844 181.378906 250.214844 C 163.71875 250.214844 147.117188 243.335938 134.632812 230.851562 C 122.144531 218.363281 115.269531 201.761719 115.269531 184.105469 C 115.269531 166.445312 122.144531 149.84375 134.632812 137.355469 C 147.117188 124.871094 163.71875 117.992188 181.378906 117.992188 C 199.035156 117.992188 215.636719 124.871094 228.125 137.355469 C 240.613281 149.84375 247.492188 166.445312 247.492188 184.105469 C 247.492188 201.761719 240.613281 218.363281 228.125 230.851562 Z M 228.125 230.851562 " fill-opacity="1" fill-rule="nonzero"/><path fill="#0b1972" d="M 181.378906 126.203125 C 149.453125 126.203125 123.480469 152.179688 123.480469 184.105469 C 123.480469 216.03125 149.453125 242.003906 181.378906 242.003906 C 213.304688 242.003906 239.28125 216.03125 239.28125 184.105469 C 239.28125 152.179688 213.304688 126.203125 181.378906 126.203125 Z M 207.601562 170.683594 L 174.953125 203.332031 C 174.148438 204.136719 173.101562 204.535156 172.050781 204.535156 C 171 204.535156 169.949219 204.132812 169.148438 203.332031 L 155.152344 189.339844 C 153.550781 187.734375 153.550781 185.136719 155.152344 183.53125 C 156.757812 181.929688 159.355469 181.929688 160.960938 183.53125 L 172.050781 194.625 L 201.800781 164.875 C 203.398438 163.273438 206.003906 163.273438 207.601562 164.875 C 209.207031 166.480469 209.207031 169.078125 207.601562 170.683594 Z M 207.601562 170.683594 " fill-opacity="1" fill-rule="nonzero"/><path fill="#0b1972" d="M 8.980469 167.992188 C 8.488281 165.449219 8.238281 162.851562 8.238281 160.242188 C 8.238281 138.074219 26.273438 120.035156 48.445312 120.035156 L 95.121094 120.035156 C 95.355469 119.738281 95.609375 119.453125 95.886719 119.175781 L 103.234375 111.828125 L 48.445312 111.828125 C 21.746094 111.828125 0.0273438 133.546875 0.0273438 160.242188 C 0.0273438 164.023438 0.464844 167.789062 1.328125 171.4375 C 1.40625 171.773438 1.523438 172.089844 1.679688 172.382812 C 3.820312 170.519531 6.285156 169.023438 8.980469 167.992188 Z M 8.980469 167.992188 " fill-opacity="1" fill-rule="nonzero"/><path fill="#0b1972" d="M 354.523438 75.027344 C 354.523438 84.855469 350.695312 94.09375 343.742188 101.046875 C 336.792969 108 327.550781 111.828125 317.722656 111.828125 L 259.523438 111.828125 L 266.996094 119.296875 C 267.230469 119.535156 267.453125 119.78125 267.664062 120.035156 L 317.722656 120.035156 C 329.746094 120.035156 341.046875 115.355469 349.546875 106.851562 C 358.050781 98.351562 362.734375 87.046875 362.734375 75.027344 C 362.734375 72.507812 362.523438 69.984375 362.109375 67.523438 C 362.011719 66.9375 361.792969 66.398438 361.484375 65.933594 C 359.375 67.855469 356.929688 69.410156 354.25 70.503906 C 354.429688 71.996094 354.523438 73.515625 354.523438 75.027344 Z M 354.523438 75.027344 " fill-opacity="1" fill-rule="nonzero"/><path fill="#0b1972" d="M 354.523438 228.765625 L 354.523438 303.054688 C 355.855469 302.828125 357.230469 302.707031 358.628906 302.707031 C 360.027344 302.707031 361.398438 302.828125 362.734375 303.054688 L 362.734375 228.765625 C 361.398438 228.992188 360.027344 229.109375 358.628906 229.109375 C 357.230469 229.109375 355.855469 228.992188 354.523438 228.765625 Z M 354.523438 228.765625 " fill-opacity="1" fill-rule="nonzero"/><path fill="#0b1972" d="M 41.980469 323.160156 C 42.207031 324.492188 42.324219 325.867188 42.324219 327.265625 C 42.324219 328.664062 42.207031 330.035156 41.980469 331.367188 L 334.414062 331.367188 C 334.1875 330.035156 334.070312 328.664062 334.070312 327.265625 C 334.070312 325.867188 334.1875 324.492188 334.414062 323.160156 Z M 41.980469 323.160156 " fill-opacity="1" fill-rule="nonzero"/><path fill="#0b1972" d="M 287.609375 200.449219 C 286.933594 204.566406 283.746094 207.847656 279.675781 208.660156 L 334.414062 208.660156 C 334.1875 207.328125 334.070312 205.953125 334.070312 204.554688 C 334.070312 203.15625 334.1875 201.785156 334.414062 200.449219 Z M 287.609375 200.449219 " fill-opacity="1" fill-rule="nonzero"/><path fill="#0b1972" d="M 84.40625 208.660156 C 79.777344 208.367188 75.996094 204.921875 75.179688 200.449219 L 48.445312 200.449219 C 45.835938 200.449219 43.238281 200.199219 40.695312 199.707031 C 39.664062 202.402344 38.167969 204.867188 36.304688 207.007812 C 36.597656 207.164062 36.914062 207.28125 37.25 207.359375 C 40.894531 208.222656 44.664062 208.660156 48.445312 208.660156 Z M 84.40625 208.660156 " fill-opacity="1" fill-rule="nonzero"/><path fill="#0b1972" d="M 42.070312 51.296875 L 317.722656 51.296875 C 318.71875 51.296875 319.714844 51.339844 320.707031 51.417969 C 320.527344 50.226562 320.4375 49.003906 320.4375 47.761719 C 320.4375 46.203125 320.582031 44.675781 320.863281 43.199219 C 319.820312 43.125 318.769531 43.089844 317.722656 43.089844 L 41.875 43.089844 C 42.167969 44.601562 42.324219 46.160156 42.324219 47.761719 C 42.324219 48.960938 42.234375 50.144531 42.070312 51.296875 Z M 42.070312 51.296875 " fill-opacity="1" fill-rule="nonzero"/><path fill="#0b1972" d="M 342.28125 204.554688 C 342.28125 213.570312 349.613281 220.902344 358.628906 220.902344 C 367.640625 220.902344 374.972656 213.570312 374.972656 204.554688 C 374.972656 195.542969 367.640625 188.207031 358.628906 188.207031 C 349.613281 188.207031 342.28125 195.542969 342.28125 204.554688 Z M 342.28125 204.554688 " fill-opacity="1" fill-rule="nonzero"/><g clip-path="url(#c9a135ed38)"><path fill="#0b1972" d="M 358.628906 310.917969 C 349.613281 310.917969 342.28125 318.25 342.28125 327.265625 C 342.28125 336.28125 349.613281 343.613281 358.628906 343.613281 C 367.640625 343.613281 374.972656 336.28125 374.972656 327.265625 C 374.972656 318.25 367.640625 310.917969 358.628906 310.917969 Z M 358.628906 310.917969 " fill-opacity="1" fill-rule="nonzero"/></g><g clip-path="url(#b34490a25a)"><path fill="#0b1972" d="M 17.765625 310.917969 C 8.753906 310.917969 1.417969 318.25 1.417969 327.265625 C 1.417969 336.28125 8.753906 343.613281 17.765625 343.613281 C 26.78125 343.613281 34.113281 336.28125 34.113281 327.265625 C 34.113281 318.25 26.78125 310.917969 17.765625 310.917969 Z M 17.765625 310.917969 " fill-opacity="1" fill-rule="nonzero"/></g><g clip-path="url(#7fc1c2426a)"><path fill="#0b1972" d="M 17.765625 64.105469 C 26.78125 64.105469 34.113281 56.773438 34.113281 47.761719 C 34.113281 38.746094 26.78125 31.414062 17.765625 31.414062 C 8.753906 31.414062 1.417969 38.746094 1.417969 47.761719 C 1.417969 56.773438 8.753906 64.105469 17.765625 64.105469 Z M 17.765625 64.105469 " fill-opacity="1" fill-rule="nonzero"/></g><g clip-path="url(#bb64ebcea1)"><path fill="#0b1972" d="M 344.992188 64.105469 C 354.007812 64.105469 361.339844 56.773438 361.339844 47.761719 C 361.339844 38.746094 354.007812 31.414062 344.992188 31.414062 C 336.042969 31.414062 328.75 38.640625 328.648438 47.566406 C 328.648438 47.570312 328.648438 47.570312 328.648438 47.570312 C 328.65625 47.703125 328.65625 47.835938 328.648438 47.96875 C 328.757812 56.886719 336.046875 64.105469 344.992188 64.105469 Z M 344.992188 64.105469 " fill-opacity="1" fill-rule="nonzero"/></g><path fill="#0b1972" d="M 17.765625 174.574219 C 8.753906 174.574219 1.417969 181.90625 1.417969 190.921875 C 1.417969 199.933594 8.753906 207.265625 17.765625 207.265625 C 26.78125 207.265625 34.113281 199.933594 34.113281 190.921875 C 34.113281 181.90625 26.78125 174.574219 17.765625 174.574219 Z M 17.765625 174.574219 " fill-opacity="1" fill-rule="nonzero"/><path fill="#0b1972" d="M 261.117188 203.769531 C 261.570312 201.933594 263.214844 200.644531 265.105469 200.644531 L 277.707031 200.644531 C 277.847656 200.644531 277.980469 200.628906 278.109375 200.597656 C 278.117188 200.597656 278.125 200.59375 278.132812 200.59375 C 278.164062 200.585938 278.199219 200.578125 278.230469 200.570312 C 278.238281 200.566406 278.246094 200.5625 278.25 200.5625 C 278.992188 200.332031 279.53125 199.636719 279.53125 198.820312 L 279.53125 169.5625 C 279.53125 168.554688 278.714844 167.738281 277.707031 167.738281 L 265.148438 167.738281 C 263.253906 167.738281 261.605469 166.441406 261.15625 164.601562 C 259.183594 156.492188 255.992188 148.761719 251.667969 141.625 C 250.6875 140.011719 250.9375 137.933594 252.277344 136.597656 L 261.1875 127.683594 C 261.898438 126.972656 261.898438 125.8125 261.1875 125.101562 L 240.5 104.414062 C 240.035156 103.949219 239.492188 103.878906 239.207031 103.878906 C 238.925781 103.878906 238.386719 103.949219 237.917969 104.414062 L 229.035156 113.300781 C 227.695312 114.636719 225.617188 114.886719 224 113.902344 C 216.871094 109.566406 209.148438 106.355469 201.046875 104.363281 C 199.207031 103.914062 197.917969 102.265625 197.917969 100.378906 L 197.917969 87.777344 C 197.917969 86.769531 197.097656 85.949219 196.09375 85.949219 L 166.835938 85.949219 C 165.828125 85.949219 165.011719 86.769531 165.011719 87.777344 L 165.011719 100.335938 C 165.011719 102.230469 163.714844 103.875 161.875 104.324219 C 153.769531 106.300781 146.039062 109.492188 138.902344 113.816406 C 137.285156 114.796875 135.207031 114.542969 133.871094 113.207031 L 124.957031 104.292969 C 124.496094 103.828125 123.949219 103.761719 123.667969 103.761719 C 123.386719 103.761719 122.84375 103.828125 122.378906 104.292969 L 107.898438 118.773438 C 107.867188 118.808594 107.832031 118.847656 107.792969 118.882812 L 101.691406 124.984375 C 101.222656 125.449219 101.15625 125.992188 101.15625 126.273438 C 101.15625 126.554688 101.222656 127.101562 101.691406 127.5625 L 110.574219 136.445312 C 111.914062 137.785156 112.160156 139.867188 111.175781 141.484375 C 106.839844 148.609375 103.632812 156.332031 101.640625 164.4375 C 101.1875 166.273438 99.542969 167.566406 97.652344 167.566406 L 85.050781 167.566406 C 84.046875 167.566406 83.226562 168.382812 83.226562 169.390625 L 83.226562 198.648438 C 83.226562 199.652344 84.046875 200.472656 85.050781 200.472656 L 97.613281 200.472656 C 99.503906 200.472656 101.152344 201.765625 101.597656 203.605469 C 103.574219 211.714844 106.769531 219.445312 111.09375 226.578125 C 112.070312 228.199219 111.816406 230.273438 110.484375 231.609375 L 101.570312 240.523438 C 100.859375 241.234375 100.859375 242.394531 101.570312 243.105469 L 122.257812 263.792969 C 122.972656 264.503906 124.128906 264.503906 124.839844 263.792969 L 133.722656 254.910156 C 134.511719 254.117188 135.566406 253.707031 136.628906 253.707031 C 137.359375 253.707031 138.097656 253.902344 138.757812 254.304688 C 145.882812 258.640625 153.609375 261.851562 161.714844 263.84375 C 163.550781 264.292969 164.839844 265.941406 164.839844 267.828125 L 164.839844 280.433594 C 164.839844 281.4375 165.660156 282.257812 166.664062 282.257812 L 195.925781 282.257812 C 196.929688 282.257812 197.75 281.4375 197.75 280.433594 L 197.75 267.875 C 197.75 265.980469 199.042969 264.332031 200.882812 263.882812 C 208.992188 261.90625 216.71875 258.714844 223.855469 254.394531 C 225.472656 253.414062 227.546875 253.664062 228.882812 255 L 237.796875 263.914062 C 238.265625 264.378906 238.804688 264.449219 239.089844 264.449219 C 239.371094 264.449219 239.914062 264.378906 240.378906 263.914062 L 261.066406 243.226562 C 261.53125 242.761719 261.601562 242.21875 261.601562 241.933594 C 261.601562 241.652344 261.53125 241.109375 261.066406 240.644531 L 252.1875 231.761719 C 250.847656 230.421875 250.597656 228.34375 251.582031 226.726562 C 255.917969 219.597656 259.125 211.875 261.117188 203.769531 Z M 228.125 230.851562 C 215.636719 243.335938 199.035156 250.214844 181.378906 250.214844 C 163.71875 250.214844 147.117188 243.335938 134.632812 230.851562 C 122.144531 218.363281 115.269531 201.761719 115.269531 184.105469 C 115.269531 166.445312 122.144531 149.84375 134.632812 137.355469 C 147.117188 124.871094 163.71875 117.992188 181.378906 117.992188 C 199.035156 117.992188 215.636719 124.871094 228.125 137.355469 C 240.613281 149.84375 247.492188 166.445312 247.492188 184.105469 C 247.492188 201.761719 240.613281 218.363281 228.125 230.851562 Z M 228.125 230.851562 " fill-opacity="1" fill-rule="nonzero"/><path fill="#0b1972" d="M 181.378906 126.203125 C 149.453125 126.203125 123.480469 152.179688 123.480469 184.105469 C 123.480469 216.03125 149.453125 242.003906 181.378906 242.003906 C 213.304688 242.003906 239.28125 216.03125 239.28125 184.105469 C 239.28125 152.179688 213.304688 126.203125 181.378906 126.203125 Z M 207.601562 170.683594 L 174.953125 203.332031 C 174.148438 204.136719 173.101562 204.535156 172.050781 204.535156 C 171 204.535156 169.949219 204.132812 169.148438 203.332031 L 155.152344 189.339844 C 153.550781 187.734375 153.550781 185.136719 155.152344 183.53125 C 156.757812 181.929688 159.355469 181.929688 160.960938 183.53125 L 172.050781 194.625 L 201.800781 164.875 C 203.398438 163.273438 206.003906 163.273438 207.601562 164.875 C 209.207031 166.480469 209.207031 169.078125 207.601562 170.683594 Z M 207.601562 170.683594 " fill-opacity="1" fill-rule="nonzero"/><path fill="#0b1972" d="M 8.980469 167.992188 C 8.488281 165.449219 8.238281 162.851562 8.238281 160.242188 C 8.238281 138.074219 26.273438 120.035156 48.445312 120.035156 L 95.121094 120.035156 C 95.355469 119.738281 95.609375 119.453125 95.886719 119.175781 L 103.234375 111.828125 L 48.445312 111.828125 C 21.746094 111.828125 0.0273438 133.546875 0.0273438 160.242188 C 0.0273438 164.023438 0.464844 167.789062 1.328125 171.4375 C 1.40625 171.773438 1.523438 172.089844 1.679688 172.382812 C 3.820312 170.519531 6.285156 169.023438 8.980469 167.992188 Z M 8.980469 167.992188 " fill-opacity="1" fill-rule="nonzero"/><path fill="#0b1972" d="M 354.523438 75.027344 C 354.523438 84.855469 350.695312 94.09375 343.742188 101.046875 C 336.792969 108 327.550781 111.828125 317.722656 111.828125 L 259.523438 111.828125 L 266.996094 119.296875 C 267.230469 119.535156 267.453125 119.78125 267.664062 120.035156 L 317.722656 120.035156 C 329.746094 120.035156 341.046875 115.355469 349.546875 106.851562 C 358.050781 98.351562 362.734375 87.046875 362.734375 75.027344 C 362.734375 72.507812 362.523438 69.984375 362.109375 67.523438 C 362.011719 66.9375 361.792969 66.398438 361.484375 65.933594 C 359.375 67.855469 356.929688 69.410156 354.25 70.503906 C 354.429688 71.996094 354.523438 73.515625 354.523438 75.027344 Z M 354.523438 75.027344 " fill-opacity="1" fill-rule="nonzero"/><path fill="#0b1972" d="M 354.523438 228.765625 L 354.523438 303.054688 C 355.855469 302.828125 357.230469 302.707031 358.628906 302.707031 C 360.027344 302.707031 361.398438 302.828125 362.734375 303.054688 L 362.734375 228.765625 C 361.398438 228.992188 360.027344 229.109375 358.628906 229.109375 C 357.230469 229.109375 355.855469 228.992188 354.523438 228.765625 Z M 354.523438 228.765625 " fill-opacity="1" fill-rule="nonzero"/><path fill="#0b1972" d="M 41.980469 323.160156 C 42.207031 324.492188 42.324219 325.867188 42.324219 327.265625 C 42.324219 328.664062 42.207031 330.035156 41.980469 331.367188 L 334.414062 331.367188 C 334.1875 330.035156 334.070312 328.664062 334.070312 327.265625 C 334.070312 325.867188 334.1875 324.492188 334.414062 323.160156 Z M 41.980469 323.160156 " fill-opacity="1" fill-rule="nonzero"/><path fill="#0b1972" d="M 287.609375 200.449219 C 286.933594 204.566406 283.746094 207.847656 279.675781 208.660156 L 334.414062 208.660156 C 334.1875 207.328125 334.070312 205.953125 334.070312 204.554688 C 334.070312 203.15625 334.1875 201.785156 334.414062 200.449219 Z M 287.609375 200.449219 " fill-opacity="1" fill-rule="nonzero"/><path fill="#0b1972" d="M 84.40625 208.660156 C 79.777344 208.367188 75.996094 204.921875 75.179688 200.449219 L 48.445312 200.449219 C 45.835938 200.449219 43.238281 200.199219 40.695312 199.707031 C 39.664062 202.402344 38.167969 204.867188 36.304688 207.007812 C 36.597656 207.164062 36.914062 207.28125 37.25 207.359375 C 40.894531 208.222656 44.664062 208.660156 48.445312 208.660156 Z M 84.40625 208.660156 " fill-opacity="1" fill-rule="nonzero"/><path fill="#0b1972" d="M 42.070312 51.296875 L 317.722656 51.296875 C 318.71875 51.296875 319.714844 51.339844 320.707031 51.417969 C 320.527344 50.226562 320.4375 49.003906 320.4375 47.761719 C 320.4375 46.203125 320.582031 44.675781 320.863281 43.199219 C 319.820312 43.125 318.769531 43.089844 317.722656 43.089844 L 41.875 43.089844 C 42.167969 44.601562 42.324219 46.160156 42.324219 47.761719 C 42.324219 48.960938 42.234375 50.144531 42.070312 51.296875 Z M 42.070312 51.296875 " fill-opacity="1" fill-rule="nonzero"/><path fill="#0b1972" d="M 342.28125 204.554688 C 342.28125 213.570312 349.613281 220.902344 358.628906 220.902344 C 367.640625 220.902344 374.972656 213.570312 374.972656 204.554688 C 374.972656 195.542969 367.640625 188.207031 358.628906 188.207031 C 349.613281 188.207031 342.28125 195.542969 342.28125 204.554688 Z M 342.28125 204.554688 " fill-opacity="1" fill-rule="nonzero"/></svg>