<svg xmlns="http://www.w3.org/2000/svg" xmlns:xlink="http://www.w3.org/1999/xlink" width="500" zoomAndPan="magnify" viewBox="0 0 375 374.999991" height="500" preserveAspectRatio="xMidYMid meet" version="1.0"><path fill="#c5c2ff" d="M 29.496094 28.726562 L 287.191406 28.726562 L 287.191406 368.953125 L 29.496094 368.953125 Z M 29.496094 28.726562 " fill-opacity="1" fill-rule="nonzero"/><path fill="#eceafd" d="M 3.882812 3.113281 L 202.316406 3.113281 L 261.578125 62.367188 L 261.578125 343.339844 L 3.882812 343.339844 Z M 3.882812 3.113281 " fill-opacity="1" fill-rule="evenodd"/><path fill="#b0acf7" d="M 202.316406 62.367188 L 261.578125 62.367188 L 202.316406 3.113281 Z M 202.316406 62.367188 " fill-opacity="1" fill-rule="evenodd"/><path fill="#ff656f" d="M 70.398438 183.324219 L 114.664062 200.886719 L 89.695312 263.800781 L 74.328125 237.960938 L 45.429688 246.238281 Z M 70.398438 183.324219 " fill-opacity="1" fill-rule="evenodd"/><path fill="#ff656f" d="M 158.929688 183.324219 L 114.664062 200.886719 L 139.628906 263.800781 L 155 237.960938 L 183.894531 246.238281 Z M 158.929688 183.324219 " fill-opacity="1" fill-rule="evenodd"/><path fill="#fee570" d="M 126.226562 31.046875 L 132.5 38.09375 C 136.324219 42.378906 141.742188 44.136719 147.367188 42.921875 L 156.566406 40.917969 C 161.042969 39.933594 165.285156 40.8125 168.988281 43.507812 C 172.6875 46.207031 174.84375 49.949219 175.300781 54.507812 L 176.222656 63.894531 C 176.785156 69.601562 180.152344 74.222656 185.421875 76.542969 L 194.058594 80.328125 C 198.238281 82.167969 201.148438 85.367188 202.566406 89.71875 C 203.96875 94.066406 203.507812 98.375 201.1875 102.324219 L 196.441406 110.460938 C 193.535156 115.414062 193.535156 121.144531 196.441406 126.097656 L 201.1875 134.230469 C 203.507812 138.183594 203.96875 142.46875 202.566406 146.839844 C 201.144531 151.191406 198.238281 154.386719 194.058594 156.230469 L 185.421875 160.011719 C 180.152344 162.335938 176.785156 166.953125 176.222656 172.664062 L 175.300781 182.050781 C 174.839844 186.609375 172.6875 190.351562 168.988281 193.050781 C 165.285156 195.746094 161.042969 196.625 156.566406 195.640625 L 147.367188 193.636719 C 141.742188 192.402344 136.324219 194.179688 132.5 198.464844 L 126.226562 205.511719 C 123.171875 208.917969 119.242188 210.695312 114.664062 210.695312 C 110.082031 210.695312 106.132812 208.917969 103.101562 205.511719 L 96.828125 198.464844 C 93 194.179688 87.566406 192.402344 81.960938 193.636719 L 72.738281 195.640625 C 68.265625 196.625 64.039062 195.746094 60.339844 193.050781 C 56.636719 190.351562 54.484375 186.609375 54.023438 182.050781 L 53.082031 172.664062 C 52.519531 166.953125 49.171875 162.332031 43.902344 160.011719 L 35.269531 156.230469 C 31.066406 154.390625 28.179688 151.191406 26.757812 146.839844 C 25.335938 142.46875 25.816406 138.183594 28.117188 134.230469 L 32.882812 126.097656 C 35.789062 121.144531 35.789062 115.414062 32.882812 110.460938 L 28.117188 102.324219 C 25.816406 98.375 25.335938 94.066406 26.757812 89.71875 C 28.179688 85.367188 31.066406 82.167969 35.269531 80.328125 L 43.902344 76.542969 C 49.171875 74.222656 52.519531 69.601562 53.082031 63.894531 L 54.023438 54.507812 C 54.484375 49.949219 56.636719 46.207031 60.339844 43.507812 C 64.039062 40.8125 68.261719 39.933594 72.738281 40.917969 L 81.960938 42.921875 C 87.5625 44.136719 93 42.378906 96.828125 38.09375 L 103.101562 31.046875 C 106.132812 27.617188 110.082031 25.859375 114.664062 25.859375 C 119.242188 25.859375 123.171875 27.617188 126.226562 31.046875 Z M 126.226562 31.046875 " fill-opacity="1" fill-rule="evenodd"/><path fill="#feb237" d="M 114.664062 61.636719 C 145.945312 61.636719 171.308594 86.996094 171.308594 118.277344 C 171.308594 149.558594 145.945312 174.917969 114.664062 174.917969 C 83.382812 174.917969 58.019531 149.558594 58.019531 118.277344 C 58.019531 86.996094 83.382812 61.636719 114.664062 61.636719 Z M 114.664062 61.636719 " fill-opacity="1" fill-rule="evenodd"/><path fill="#fee570" d="M 120.644531 89.839844 L 124.367188 101.382812 C 125.222656 104.039062 127.585938 105.753906 130.367188 105.753906 L 142.496094 105.730469 C 145.277344 105.710938 147.640625 107.425781 148.496094 110.058594 C 149.351562 112.714844 148.453125 115.476562 146.195312 117.105469 L 136.367188 124.214844 C 134.109375 125.847656 133.210938 128.628906 134.089844 131.261719 L 137.851562 142.804688 C 138.710938 145.4375 137.808594 148.21875 135.574219 149.847656 C 133.316406 151.480469 130.410156 151.460938 128.171875 149.828125 L 118.363281 142.679688 C 116.128906 141.046875 113.199219 141.046875 110.960938 142.679688 L 101.15625 149.828125 C 98.917969 151.460938 95.992188 151.480469 93.753906 149.847656 C 91.496094 148.21875 90.59375 145.4375 91.472656 142.804688 L 95.238281 131.261719 C 96.09375 128.628906 95.195312 125.847656 92.957031 124.214844 L 83.109375 117.105469 C 80.871094 115.476562 79.972656 112.714844 80.832031 110.058594 C 81.6875 107.425781 84.050781 105.710938 86.8125 105.730469 L 98.960938 105.753906 C 101.71875 105.753906 104.105469 104.039062 104.941406 101.382812 L 108.683594 89.839844 C 109.519531 87.207031 111.882812 85.492188 114.664062 85.492188 C 117.441406 85.492188 119.785156 87.207031 120.640625 89.839844 Z M 120.644531 89.839844 " fill-opacity="1" fill-rule="evenodd"/><path fill="#ff656f" d="M 354.105469 161.476562 C 368.804688 169.652344 374.09375 188.195312 365.917969 202.894531 C 350.882812 229.953125 316.363281 230.851562 323.890625 287.386719 L 293.507812 270.492188 L 263.144531 253.621094 C 315.128906 230.160156 297.648438 200.367188 312.683594 173.308594 C 320.859375 158.609375 339.40625 153.300781 354.105469 161.476562 Z M 354.105469 161.476562 " fill-opacity="1" fill-rule="evenodd"/><path fill="#566067" d="M 333.402344 299.871094 C 338.042969 291.277344 322.695312 273.714844 299.046875 260.5625 C 275.378906 247.410156 252.335938 243.648438 247.484375 252.136719 C 242.902344 260.375 238.347656 268.589844 233.765625 276.828125 C 229.125 285.421875 244.472656 303.007812 268.144531 316.160156 C 291.8125 329.289062 314.835938 333.054688 319.6875 324.5625 C 324.265625 316.347656 328.84375 308.109375 333.402344 299.871094 Z M 333.402344 299.871094 " fill-opacity="1" fill-rule="evenodd"/><path fill="#6a777f" d="M 285.394531 285.109375 C 309.125 298.28125 324.496094 315.929688 319.726562 324.5 C 314.960938 333.074219 291.875 329.332031 268.140625 316.15625 C 244.410156 302.964844 229.039062 285.339844 233.808594 276.746094 C 238.574219 268.171875 261.660156 271.914062 285.394531 285.109375 Z M 285.394531 285.109375 " fill-opacity="1" fill-rule="evenodd"/><path fill="#000000" d="M 43.292969 167.027344 C 46.570312 168.457031 48.578125 171.214844 48.945312 174.769531 L 49.859375 184.109375 C 50.484375 190.296875 53.476562 195.507812 58.507812 199.171875 C 58.878906 199.445312 59.253906 199.695312 59.632812 199.941406 L 41.710938 245.101562 C 40.886719 247.175781 41.3125 249.535156 42.8125 251.1875 C 44.308594 252.84375 46.609375 253.503906 48.761719 252.890625 L 73.121094 245.929688 L 86.074219 267.695312 C 87.136719 269.476562 89.054688 270.554688 91.105469 270.554688 C 91.261719 270.554688 91.417969 270.550781 91.570312 270.539062 C 93.796875 270.359375 95.726562 268.933594 96.550781 266.859375 L 115.898438 218.109375 L 135.246094 266.859375 C 136.070312 268.933594 138 270.359375 140.226562 270.539062 C 140.378906 270.550781 140.535156 270.554688 140.691406 270.554688 C 142.742188 270.554688 144.660156 269.476562 145.722656 267.695312 L 158.675781 245.929688 L 183.035156 252.890625 C 185.179688 253.503906 187.488281 252.84375 188.984375 251.1875 C 190.480469 249.535156 190.910156 247.175781 190.085938 245.101562 L 172.164062 199.941406 C 172.542969 199.695312 172.917969 199.445312 173.289062 199.175781 C 178.320312 195.507812 181.3125 190.296875 181.9375 184.09375 L 182.851562 174.796875 C 183.214844 171.214844 185.226562 168.457031 188.519531 167.015625 L 197.09375 163.238281 C 202.789062 160.734375 206.820312 156.285156 208.757812 150.355469 C 210.667969 144.433594 210.023438 138.464844 206.886719 133.078125 L 202.152344 125.003906 C 200.339844 121.910156 200.34375 118.496094 202.152344 115.394531 L 206.898438 107.300781 C 210.015625 101.941406 210.660156 95.976562 208.75 90.019531 C 206.816406 84.109375 202.785156 79.660156 197.085938 77.152344 L 188.519531 73.398438 C 185.230469 71.949219 183.214844 69.179688 182.851562 65.625 L 181.933594 56.289062 C 181.3125 50.097656 178.320312 44.890625 173.269531 41.210938 C 168.214844 37.554688 162.335938 36.328125 156.28125 37.660156 L 147.113281 39.65625 C 143.621094 40.421875 140.375 39.367188 137.980469 36.683594 L 131.753906 29.6875 C 127.613281 25.035156 122.132812 22.574219 115.898438 22.574219 C 109.664062 22.574219 104.214844 25.03125 100.042969 29.6875 L 93.816406 36.675781 C 91.417969 39.367188 88.171875 40.421875 84.667969 39.652344 L 75.523438 37.660156 C 69.453125 36.328125 63.578125 37.554688 58.507812 41.222656 C 53.472656 44.890625 50.484375 50.097656 49.855469 56.304688 L 48.945312 65.601562 C 48.578125 69.179688 46.566406 71.949219 43.285156 73.394531 L 34.703125 77.15625 C 29.007812 79.664062 24.976562 84.109375 23.035156 90.050781 C 21.132812 95.976562 21.777344 101.941406 24.90625 107.316406 L 29.636719 115.386719 C 31.453125 118.496094 31.457031 121.910156 29.640625 125.003906 L 24.898438 133.09375 C 21.773438 138.464844 21.128906 144.433594 23.042969 150.378906 C 24.976562 156.285156 29.007812 160.734375 34.699219 163.238281 L 43.292969 167.023438 Z M 90.054688 251.484375 L 80.878906 236.066406 C 79.519531 233.78125 76.792969 232.699219 74.234375 233.429688 L 56.980469 238.359375 L 70.914062 203.261719 C 72.425781 203.25 73.964844 203.078125 75.511719 202.738281 L 84.664062 200.746094 C 88.179688 199.984375 91.429688 201.042969 93.8125 203.714844 L 100.042969 210.707031 C 101.441406 212.277344 102.992188 213.589844 104.671875 214.652344 Z M 174.8125 238.363281 L 157.558594 233.429688 C 155.003906 232.699219 152.277344 233.785156 150.917969 236.066406 L 141.742188 251.484375 L 127.128906 214.660156 C 128.8125 213.597656 130.363281 212.28125 131.753906 210.710938 L 137.976562 203.71875 C 140.367188 201.042969 143.613281 199.988281 147.125 200.746094 L 156.273438 202.734375 C 157.824219 203.078125 159.367188 203.25 160.882812 203.257812 Z M 35.011719 139 L 39.746094 130.925781 C 43.675781 124.222656 43.679688 116.207031 39.746094 109.472656 L 35.019531 101.414062 C 33.574219 98.929688 33.300781 96.382812 34.175781 93.660156 C 35.066406 90.925781 36.78125 89.035156 39.410156 87.878906 L 47.996094 84.117188 C 55.09375 80.992188 59.804688 74.515625 60.597656 66.769531 L 61.511719 57.464844 C 61.800781 54.601562 63.074219 52.386719 65.386719 50.699219 C 67.722656 49.011719 70.21875 48.484375 73.023438 49.101562 L 82.167969 51.09375 C 89.746094 52.761719 97.371094 50.289062 102.5625 44.472656 L 108.777344 37.488281 C 110.707031 35.335938 113.035156 34.289062 115.898438 34.289062 C 118.761719 34.289062 121.097656 35.328125 123.007812 37.472656 C 123.007812 37.472656 123.007812 37.472656 123.007812 37.476562 L 129.242188 44.476562 C 134.429688 50.289062 142.050781 52.757812 149.617188 51.09375 L 158.785156 49.101562 C 161.578125 48.488281 164.070312 49.011719 166.390625 50.6875 C 168.722656 52.386719 169.996094 54.601562 170.285156 57.449219 L 171.199219 66.796875 C 171.992188 74.515625 176.703125 80.992188 183.808594 84.121094 L 192.378906 87.878906 C 195.011719 89.035156 196.726562 90.925781 197.609375 93.628906 C 198.496094 96.382812 198.222656 98.933594 196.785156 101.398438 L 192.046875 109.484375 C 188.121094 116.207031 188.121094 124.226562 192.050781 130.925781 L 196.777344 138.988281 C 198.226562 141.472656 198.5 144.019531 197.621094 146.742188 C 196.730469 149.472656 195.011719 151.363281 192.375 152.523438 L 183.820312 156.296875 C 176.710938 159.398438 171.992188 165.867188 171.199219 173.628906 L 170.285156 182.933594 C 169.996094 185.796875 168.722656 188.011719 166.390625 189.710938 C 164.082031 191.398438 161.59375 191.917969 158.773438 191.296875 L 149.613281 189.304688 C 142.023438 187.664062 134.410156 190.136719 129.238281 195.925781 L 122.996094 202.941406 C 121.109375 205.074219 118.785156 206.113281 115.898438 206.113281 C 113.011719 206.113281 110.699219 205.070312 108.792969 202.925781 L 102.558594 195.921875 C 98.441406 191.3125 92.773438 188.804688 86.800781 188.804688 C 85.273438 188.804688 83.726562 188.96875 82.179688 189.304688 L 73.015625 191.300781 C 70.207031 191.917969 67.71875 191.398438 65.40625 189.710938 C 63.074219 188.011719 61.800781 185.796875 61.515625 182.953125 L 60.597656 173.601562 C 59.804688 165.867188 55.085938 159.394531 48 156.304688 L 39.421875 152.523438 C 36.785156 151.363281 35.070312 149.472656 34.183594 146.765625 C 33.300781 144.019531 33.574219 141.472656 35.011719 139 Z M 115.898438 182.296875 C 150.140625 182.296875 178 154.441406 178 120.199219 C 178 85.957031 150.140625 58.101562 115.898438 58.101562 C 81.65625 58.101562 53.796875 85.957031 53.796875 120.199219 C 53.796875 154.441406 81.65625 182.296875 115.898438 182.296875 Z M 115.898438 69.808594 C 143.683594 69.808594 166.289062 92.414062 166.289062 120.199219 C 166.289062 147.984375 143.683594 170.585938 115.898438 170.585938 C 88.113281 170.585938 65.507812 147.984375 65.507812 120.199219 C 65.507812 92.414062 88.113281 69.808594 115.898438 69.808594 Z M 90.898438 130.828125 C 91.101562 130.976562 91.109375 131.097656 91.042969 131.292969 L 87.304688 142.742188 C 85.675781 147.742188 87.4375 153.183594 91.683594 156.28125 C 93.820312 157.835938 96.316406 158.609375 98.808594 158.609375 C 101.3125 158.609375 103.808594 157.828125 105.929688 156.261719 L 115.699219 149.160156 C 115.855469 149.042969 115.941406 149.042969 116.128906 149.183594 L 125.832031 156.238281 C 130.09375 159.382812 135.832031 159.398438 140.109375 156.28125 C 144.359375 153.183594 146.121094 147.742188 144.488281 142.734375 L 140.746094 131.273438 C 140.6875 131.097656 140.695312 130.976562 140.882812 130.839844 L 150.636719 123.78125 C 154.914062 120.695312 156.691406 115.257812 155.066406 110.261719 C 153.449219 105.25 148.820312 101.886719 143.542969 101.886719 L 131.492188 101.90625 C 131.238281 101.90625 131.160156 101.8125 131.105469 101.648438 L 127.410156 90.167969 C 127.40625 90.164062 127.40625 90.15625 127.40625 90.152344 C 125.777344 85.148438 121.152344 81.789062 115.898438 81.789062 C 110.644531 81.789062 106.019531 85.148438 104.386719 90.167969 L 100.695312 101.632812 C 100.640625 101.8125 100.558594 101.90625 100.316406 101.90625 L 88.261719 101.886719 C 82.984375 101.886719 78.351562 105.253906 76.734375 110.25 C 75.105469 115.257812 76.886719 120.695312 81.15625 123.78125 Z M 87.875 113.859375 C 87.925781 113.703125 87.980469 113.597656 88.253906 113.597656 L 100.304688 113.617188 C 105.570312 113.617188 110.203125 110.257812 111.835938 105.238281 L 115.527344 93.773438 C 115.605469 93.539062 115.703125 93.5 115.898438 93.5 C 116.089844 93.5 116.191406 93.539062 116.265625 93.769531 L 119.964844 105.253906 C 121.589844 110.257812 126.222656 113.617188 131.5 113.617188 L 143.554688 113.597656 C 143.792969 113.597656 143.863281 113.679688 143.925781 113.871094 C 143.984375 114.050781 143.976562 114.148438 143.777344 114.292969 L 134 121.363281 C 129.726562 124.480469 127.96875 129.9375 129.621094 134.929688 L 133.355469 146.363281 C 133.425781 146.570312 133.386719 146.691406 133.210938 146.816406 C 133.050781 146.9375 132.949219 146.9375 132.753906 146.792969 L 123.050781 139.738281 C 118.773438 136.578125 113.023438 136.582031 108.777344 139.710938 L 99.003906 146.816406 C 98.847656 146.933594 98.746094 146.9375 98.582031 146.816406 C 98.410156 146.691406 98.371094 146.574219 98.4375 146.371094 L 102.167969 134.953125 C 103.824219 129.941406 102.066406 124.480469 97.777344 121.351562 L 88.015625 114.292969 C 87.820312 114.148438 87.8125 114.050781 87.875 113.859375 Z M 356.496094 157.972656 C 339.097656 148.320312 317.074219 154.613281 307.40625 172.003906 C 302.164062 181.445312 300.574219 190.925781 299.039062 200.089844 C 297.722656 207.953125 296.488281 215.320312 293.070312 222.3125 L 293.070312 31.277344 C 293.070312 28.042969 290.449219 25.421875 287.214844 25.421875 L 230.796875 25.421875 L 207.082031 1.707031 C 206.945312 1.570312 206.800781 1.441406 206.648438 1.316406 C 206.632812 1.300781 206.613281 1.289062 206.597656 1.277344 C 206.464844 1.167969 206.328125 1.070312 206.1875 0.972656 C 206.167969 0.960938 206.144531 0.949219 206.125 0.9375 C 205.984375 0.84375 205.84375 0.757812 205.695312 0.679688 C 205.683594 0.671875 205.667969 0.664062 205.65625 0.660156 C 205.5 0.578125 205.339844 0.5 205.179688 0.433594 C 205.171875 0.429688 205.164062 0.429688 205.15625 0.425781 C 204.988281 0.355469 204.816406 0.292969 204.640625 0.238281 C 204.628906 0.238281 204.621094 0.234375 204.609375 0.230469 C 204.4375 0.179688 204.265625 0.136719 204.089844 0.101562 C 204.046875 0.0898438 204.003906 0.0898438 203.960938 0.0820312 C 203.816406 0.0546875 203.667969 0.03125 203.519531 0.015625 C 203.328125 -0.00390625 203.132812 -0.015625 202.9375 -0.015625 L 5.894531 -0.015625 C 2.660156 -0.0117188 0.0390625 2.609375 0.0390625 5.84375 L 0.0390625 343.699219 C 0.0390625 346.933594 2.660156 349.554688 5.894531 349.554688 L 25.496094 349.554688 L 25.496094 369.132812 C 25.496094 372.367188 28.117188 374.988281 31.351562 374.988281 L 287.214844 374.988281 C 290.449219 374.988281 293.070312 372.367188 293.070312 369.132812 L 293.070312 333.21875 C 295.4375 333.839844 297.742188 334.339844 299.953125 334.699219 C 302.984375 335.195312 305.664062 335.414062 308.039062 335.414062 C 317.949219 335.414062 322.488281 331.585938 324.5625 327.964844 C 324.574219 327.945312 324.585938 327.921875 324.597656 327.902344 C 329.144531 319.722656 333.691406 311.542969 338.238281 303.386719 C 338.25 303.363281 338.265625 303.335938 338.277344 303.3125 C 342.570312 295.34375 337.683594 285.457031 328.492188 276.066406 C 327.675781 249.644531 338.542969 240.0625 351.074219 229.023438 C 358.058594 222.875 365.273438 216.515625 370.53125 207.0625 C 380.179688 189.664062 373.890625 167.644531 356.496094 157.972656 Z M 208.792969 19.976562 L 247.644531 58.828125 L 208.792969 58.828125 Z M 281.359375 37.132812 L 281.359375 236.953125 C 278.453125 239.394531 275.019531 241.792969 270.925781 244.160156 C 269.808594 243.917969 268.710938 243.707031 267.632812 243.523438 L 267.632812 64.683594 C 267.632812 64.484375 267.625 64.289062 267.605469 64.097656 C 267.589844 63.949219 267.566406 63.804688 267.539062 63.660156 C 267.53125 63.617188 267.527344 63.574219 267.519531 63.53125 C 267.484375 63.355469 267.4375 63.179688 267.386719 63.007812 C 267.386719 63 267.382812 62.988281 267.378906 62.976562 C 267.324219 62.800781 267.265625 62.628906 267.195312 62.460938 C 267.191406 62.453125 267.191406 62.449219 267.1875 62.441406 C 267.121094 62.277344 267.042969 62.117188 266.960938 61.960938 C 266.953125 61.949219 266.949219 61.9375 266.941406 61.921875 C 266.863281 61.773438 266.773438 61.632812 266.683594 61.492188 C 266.671875 61.472656 266.660156 61.449219 266.644531 61.429688 C 266.550781 61.289062 266.449219 61.15625 266.34375 61.023438 C 266.332031 61.003906 266.320312 60.988281 266.304688 60.96875 C 266.179688 60.820312 266.050781 60.675781 265.910156 60.535156 L 242.503906 37.132812 Z M 11.75 11.699219 L 197.082031 11.699219 L 197.082031 64.679688 C 197.082031 67.914062 199.703125 70.535156 202.9375 70.535156 L 255.925781 70.535156 L 255.925781 242.914062 C 248.285156 243.667969 244.542969 247.011719 242.710938 250.195312 C 242.695312 250.222656 242.679688 250.25 242.664062 250.28125 C 238.140625 258.457031 233.59375 266.628906 229.050781 274.785156 C 229.039062 274.808594 229.023438 274.828125 229.011719 274.851562 C 226.554688 279.402344 225.820312 287.34375 236.289062 299.316406 C 241.253906 305 248.042969 310.738281 255.925781 315.992188 L 255.925781 337.84375 L 11.75 337.84375 Z M 281.359375 363.277344 L 37.207031 363.277344 L 37.207031 349.554688 L 261.78125 349.554688 C 265.011719 349.554688 267.636719 346.933594 267.636719 343.699219 L 267.636719 322.992188 C 272.226562 325.4375 276.84375 327.574219 281.359375 329.355469 Z M 301.839844 323.144531 C 292.832031 321.671875 281.929688 317.5625 271.144531 311.570312 C 260.363281 305.574219 251.113281 298.488281 245.105469 291.613281 C 239.644531 285.363281 238.835938 281.4375 239.300781 280.457031 C 239.304688 280.441406 239.316406 280.433594 239.324219 280.417969 C 239.832031 279.507812 243.554688 278.054688 251.828125 279.390625 C 260.855469 280.847656 271.777344 284.960938 282.582031 290.972656 C 293.40625 296.992188 302.671875 304.09375 308.671875 310.984375 C 314.175781 317.292969 314.910156 321.214844 314.402344 322.128906 C 314.394531 322.140625 314.390625 322.15625 314.382812 322.167969 C 313.8125 323.078125 310.054688 324.484375 301.839844 323.144531 Z M 327.976562 297.738281 C 325.910156 301.445312 323.847656 305.160156 321.78125 308.871094 C 320.628906 307.117188 319.21875 305.257812 317.5 303.289062 C 310.628906 295.40625 300.25 287.398438 288.273438 280.738281 C 276.3125 274.082031 264.03125 269.5 253.695312 267.828125 C 251.113281 267.410156 248.789062 267.199219 246.6875 267.144531 C 248.75 263.433594 250.816406 259.726562 252.871094 256.015625 C 253.332031 255.277344 255.878906 254.214844 261.164062 254.535156 C 261.222656 254.542969 261.289062 254.542969 261.347656 254.546875 C 262.570312 254.625 263.929688 254.777344 265.441406 255.023438 C 274.453125 256.496094 285.355469 260.605469 296.140625 266.597656 C 304.90625 271.472656 312.652344 277.0625 318.472656 282.671875 C 318.582031 282.789062 318.691406 282.898438 318.808594 283.003906 C 320.019531 284.1875 321.152344 285.371094 322.179688 286.550781 C 327.671875 292.832031 328.457031 296.78125 327.976562 297.738281 Z M 360.289062 201.378906 C 356.015625 209.0625 349.855469 214.492188 343.335938 220.234375 C 331.898438 230.308594 319.152344 241.554688 317.050781 266.179688 C 312.289062 262.625 307.105469 259.300781 301.832031 256.363281 C 296.355469 253.324219 290.816406 250.71875 285.429688 248.621094 C 287.402344 247.152344 289.214844 245.660156 290.867188 244.152344 C 291.097656 243.964844 291.3125 243.761719 291.515625 243.542969 C 305.878906 230.066406 308.355469 215.367188 310.589844 202.023438 C 312.023438 193.457031 313.378906 185.367188 317.640625 177.691406 C 324.175781 165.941406 339.054688 161.691406 350.808594 168.210938 C 362.558594 174.742188 366.808594 189.625 360.289062 201.378906 Z M 202.210938 290.945312 C 202.210938 294.175781 199.589844 296.800781 196.355469 296.800781 L 59.214844 296.800781 C 55.980469 296.800781 53.359375 294.175781 53.359375 290.945312 C 53.359375 287.710938 55.980469 285.089844 59.214844 285.089844 L 196.355469 285.089844 C 199.589844 285.089844 202.210938 287.710938 202.210938 290.945312 Z M 202.210938 315.296875 C 202.210938 318.53125 199.589844 321.152344 196.355469 321.152344 L 59.214844 321.152344 C 55.980469 321.152344 53.359375 318.53125 53.359375 315.296875 C 53.359375 312.0625 55.980469 309.441406 59.214844 309.441406 L 196.355469 309.441406 C 199.589844 309.441406 202.210938 312.0625 202.210938 315.296875 Z M 46.984375 290.945312 C 46.984375 294.175781 44.363281 296.800781 41.128906 296.800781 C 37.894531 296.800781 35.265625 294.175781 35.265625 290.945312 C 35.265625 287.710938 37.875 285.089844 41.109375 285.089844 L 41.128906 285.089844 C 44.363281 285.089844 46.984375 287.710938 46.984375 290.945312 Z M 46.984375 315.296875 C 46.984375 318.53125 44.363281 321.152344 41.128906 321.152344 C 37.894531 321.152344 35.265625 318.53125 35.265625 315.296875 C 35.265625 312.0625 37.875 309.441406 41.109375 309.441406 L 41.128906 309.441406 C 44.363281 309.441406 46.984375 312.0625 46.984375 315.296875 Z M 46.984375 315.296875 " fill-opacity="1" fill-rule="nonzero"/><path fill="#c5c2ff" d="M 29.496094 28.726562 L 287.191406 28.726562 L 287.191406 368.953125 L 29.496094 368.953125 Z M 29.496094 28.726562 " fill-opacity="1" fill-rule="nonzero"/><path fill="#eceafd" d="M 3.882812 3.113281 L 202.316406 3.113281 L 261.578125 62.367188 L 261.578125 343.339844 L 3.882812 343.339844 Z M 3.882812 3.113281 " fill-opacity="1" fill-rule="evenodd"/><path fill="#b0acf7" d="M 202.316406 62.367188 L 261.578125 62.367188 L 202.316406 3.113281 Z M 202.316406 62.367188 " fill-opacity="1" fill-rule="evenodd"/><path fill="#ff656f" d="M 70.398438 183.324219 L 114.664062 200.886719 L 89.695312 263.800781 L 74.328125 237.960938 L 45.429688 246.238281 Z M 70.398438 183.324219 " fill-opacity="1" fill-rule="evenodd"/><path fill="#ff656f" d="M 158.929688 183.324219 L 114.664062 200.886719 L 139.628906 263.800781 L 155 237.960938 L 183.894531 246.238281 Z M 158.929688 183.324219 " fill-opacity="1" fill-rule="evenodd"/><path fill="#fee570" d="M 126.226562 31.046875 L 132.5 38.09375 C 136.324219 42.378906 141.742188 44.136719 147.367188 42.921875 L 156.566406 40.917969 C 161.042969 39.933594 165.285156 40.8125 168.988281 43.507812 C 172.6875 46.207031 174.84375 49.949219 175.300781 54.507812 L 176.222656 63.894531 C 176.785156 69.601562 180.152344 74.222656 185.421875 76.542969 L 194.058594 80.328125 C 198.238281 82.167969 201.148438 85.367188 202.566406 89.71875 C 203.96875 94.066406 203.507812 98.375 201.1875 102.324219 L 196.441406 110.460938 C 193.535156 115.414062 193.535156 121.144531 196.441406 126.097656 L 201.1875 134.230469 C 203.507812 138.183594 203.96875 142.46875 202.566406 146.839844 C 201.144531 151.191406 198.238281 154.386719 194.058594 156.230469 L 185.421875 160.011719 C 180.152344 162.335938 176.785156 166.953125 176.222656 172.664062 L 175.300781 182.050781 C 174.839844 186.609375 172.6875 190.351562 168.988281 193.050781 C 165.285156 195.746094 161.042969 196.625 156.566406 195.640625 L 147.367188 193.636719 C 141.742188 192.402344 136.324219 194.179688 132.5 198.464844 L 126.226562 205.511719 C 123.171875 208.917969 119.242188 210.695312 114.664062 210.695312 C 110.082031 210.695312 106.132812 208.917969 103.101562 205.511719 L 96.828125 198.464844 C 93 194.179688 87.566406 192.402344 81.960938 193.636719 L 72.738281 195.640625 C 68.265625 196.625 64.039062 195.746094 60.339844 193.050781 C 56.636719 190.351562 54.484375 186.609375 54.023438 182.050781 L 53.082031 172.664062 C 52.519531 166.953125 49.171875 162.332031 43.902344 160.011719 L 35.269531 156.230469 C 31.066406 154.390625 28.179688 151.191406 26.757812 146.839844 C 25.335938 142.46875 25.816406 138.183594 28.117188 134.230469 L 32.882812 126.097656 C 35.789062 121.144531 35.789062 115.414062 32.882812 110.460938 L 28.117188 102.324219 C 25.816406 98.375 25.335938 94.066406 26.757812 89.71875 C 28.179688 85.367188 31.066406 82.167969 35.269531 80.328125 L 43.902344 76.542969 C 49.171875 74.222656 52.519531 69.601562 53.082031 63.894531 L 54.023438 54.507812 C 54.484375 49.949219 56.636719 46.207031 60.339844 43.507812 C 64.039062 40.8125 68.261719 39.933594 72.738281 40.917969 L 81.960938 42.921875 C 87.5625 44.136719 93 42.378906 96.828125 38.09375 L 103.101562 31.046875 C 106.132812 27.617188 110.082031 25.859375 114.664062 25.859375 C 119.242188 25.859375 123.171875 27.617188 126.226562 31.046875 Z M 126.226562 31.046875 " fill-opacity="1" fill-rule="evenodd"/><path fill="#feb237" d="M 114.664062 61.636719 C 145.945312 61.636719 171.308594 86.996094 171.308594 118.277344 C 171.308594 149.558594 145.945312 174.917969 114.664062 174.917969 C 83.382812 174.917969 58.019531 149.558594 58.019531 118.277344 C 58.019531 86.996094 83.382812 61.636719 114.664062 61.636719 Z M 114.664062 61.636719 " fill-opacity="1" fill-rule="evenodd"/><path fill="#fee570" d="M 120.644531 89.839844 L 124.367188 101.382812 C 125.222656 104.039062 127.585938 105.753906 130.367188 105.753906 L 142.496094 105.730469 C 145.277344 105.710938 147.640625 107.425781 148.496094 110.058594 C 149.351562 112.714844 148.453125 115.476562 146.195312 117.105469 L 136.367188 124.214844 C 134.109375 125.847656 133.210938 128.628906 134.089844 131.261719 L 137.851562 142.804688 C 138.710938 145.4375 137.808594 148.21875 135.574219 149.847656 C 133.316406 151.480469 130.410156 151.460938 128.171875 149.828125 L 118.363281 142.679688 C 116.128906 141.046875 113.199219 141.046875 110.960938 142.679688 L 101.15625 149.828125 C 98.917969 151.460938 95.992188 151.480469 93.753906 149.847656 C 91.496094 148.21875 90.59375 145.4375 91.472656 142.804688 L 95.238281 131.261719 C 96.09375 128.628906 95.195312 125.847656 92.957031 124.214844 L 83.109375 117.105469 C 80.871094 115.476562 79.972656 112.714844 80.832031 110.058594 C 81.6875 107.425781 84.050781 105.710938 86.8125 105.730469 L 98.960938 105.753906 C 101.71875 105.753906 104.105469 104.039062 104.941406 101.382812 L 108.683594 89.839844 C 109.519531 87.207031 111.882812 85.492188 114.664062 85.492188 C 117.441406 85.492188 119.785156 87.207031 120.640625 89.839844 Z M 120.644531 89.839844 " fill-opacity="1" fill-rule="evenodd"/><path fill="#ff656f" d="M 354.105469 161.476562 C 368.804688 169.652344 374.09375 188.195312 365.917969 202.894531 C 350.882812 229.953125 316.363281 230.851562 323.890625 287.386719 L 293.507812 270.492188 L 263.144531 253.621094 C 315.128906 230.160156 297.648438 200.367188 312.683594 173.308594 C 320.859375 158.609375 339.40625 153.300781 354.105469 161.476562 Z M 354.105469 161.476562 " fill-opacity="1" fill-rule="evenodd"/><path fill="#566067" d="M 333.402344 299.871094 C 338.042969 291.277344 322.695312 273.714844 299.046875 260.5625 C 275.378906 247.410156 252.335938 243.648438 247.484375 252.136719 C 242.902344 260.375 238.347656 268.589844 233.765625 276.828125 C 229.125 285.421875 244.472656 303.007812 268.144531 316.160156 C 291.8125 329.289062 314.835938 333.054688 319.6875 324.5625 C 324.265625 316.347656 328.84375 308.109375 333.402344 299.871094 Z M 333.402344 299.871094 " fill-opacity="1" fill-rule="evenodd"/><path fill="#6a777f" d="M 285.394531 285.109375 C 309.125 298.28125 324.496094 315.929688 319.726562 324.5 C 314.960938 333.074219 291.875 329.332031 268.140625 316.15625 C 244.410156 302.964844 229.039062 285.339844 233.808594 276.746094 C 238.574219 268.171875 261.660156 271.914062 285.394531 285.109375 Z M 285.394531 285.109375 " fill-opacity="1" fill-rule="evenodd"/><path fill="#000000" d="M 43.292969 167.027344 C 46.570312 168.457031 48.578125 171.214844 48.945312 174.769531 L 49.859375 184.109375 C 50.484375 190.296875 53.476562 195.507812 58.507812 199.171875 C 58.878906 199.445312 59.253906 199.695312 59.632812 199.941406 L 41.710938 245.101562 C 40.886719 247.175781 41.3125 249.535156 42.8125 251.1875 C 44.308594 252.84375 46.609375 253.503906 48.761719 252.890625 L 73.121094 245.929688 L 86.074219 267.695312 C 87.136719 269.476562 89.054688 270.554688 91.105469 270.554688 C 91.261719 270.554688 91.417969 270.550781 91.570312 270.539062 C 93.796875 270.359375 95.726562 268.933594 96.550781 266.859375 L 115.898438 218.109375 L 135.246094 266.859375 C 136.070312 268.933594 138 270.359375 140.226562 270.539062 C 140.378906 270.550781 140.535156 270.554688 140.691406 270.554688 C 142.742188 270.554688 144.660156 269.476562 145.722656 267.695312 L 158.675781 245.929688 L 183.035156 252.890625 C 185.179688 253.503906 187.488281 252.84375 188.984375 251.1875 C 190.480469 249.535156 190.910156 247.175781 190.085938 245.101562 L 172.164062 199.941406 C 172.542969 199.695312 172.917969 199.445312 173.289062 199.175781 C 178.320312 195.507812 181.3125 190.296875 181.9375 184.09375 L 182.851562 174.796875 C 183.214844 171.214844 185.226562 168.457031 188.519531 167.015625 L 197.09375 163.238281 C 202.789062 160.734375 206.820312 156.285156 208.757812 150.355469 C 210.667969 144.433594 210.023438 138.464844 206.886719 133.078125 L 202.152344 125.003906 C 200.339844 121.910156 200.34375 118.496094 202.152344 115.394531 L 206.898438 107.300781 C 210.015625 101.941406 210.660156 95.976562 208.75 90.019531 C 206.816406 84.109375 202.785156 79.660156 197.085938 77.152344 L 188.519531 73.398438 C 185.230469 71.949219 183.214844 69.179688 182.851562 65.625 L 181.933594 56.289062 C 181.3125 50.097656 178.320312 44.890625 173.269531 41.210938 C 168.214844 37.554688 162.335938 36.328125 156.28125 37.660156 L 147.113281 39.65625 C 143.621094 40.421875 140.375 39.367188 137.980469 36.683594 L 131.753906 29.6875 C 127.613281 25.035156 122.132812 22.574219 115.898438 22.574219 C 109.664062 22.574219 104.214844 25.03125 100.042969 29.6875 L 93.816406 36.675781 C 91.417969 39.367188 88.171875 40.421875 84.667969 39.652344 L 75.523438 37.660156 C 69.453125 36.328125 63.578125 37.554688 58.507812 41.222656 C 53.472656 44.890625 50.484375 50.097656 49.855469 56.304688 L 48.945312 65.601562 C 48.578125 69.179688 46.566406 71.949219 43.285156 73.394531 L 34.703125 77.15625 C 29.007812 79.664062 24.976562 84.109375 23.035156 90.050781 C 21.132812 95.976562 21.777344 101.941406 24.90625 107.316406 L 29.636719 115.386719 C 31.453125 118.496094 31.457031 121.910156 29.640625 125.003906 L 24.898438 133.09375 C 21.773438 138.464844 21.128906 144.433594 23.042969 150.378906 C 24.976562 156.285156 29.007812 160.734375 34.699219 163.238281 L 43.292969 167.023438 Z M 90.054688 251.484375 L 80.878906 236.066406 C 79.519531 233.78125 76.792969 232.699219 74.234375 233.429688 L 56.980469 238.359375 L 70.914062 203.261719 C 72.425781 203.25 73.964844 203.078125 75.511719 202.738281 L 84.664062 200.746094 C 88.179688 199.984375 91.429688 201.042969 93.8125 203.714844 L 100.042969 210.707031 C 101.441406 212.277344 102.992188 213.589844 104.671875 214.652344 Z M 174.8125 238.363281 L 157.558594 233.429688 C 155.003906 232.699219 152.277344 233.785156 150.917969 236.066406 L 141.742188 251.484375 L 127.128906 214.660156 C 128.8125 213.597656 130.363281 212.28125 131.753906 210.710938 L 137.976562 203.71875 C 140.367188 201.042969 143.613281 199.988281 147.125 200.746094 L 156.273438 202.734375 C 157.824219 203.078125 159.367188 203.25 160.882812 203.257812 Z M 35.011719 139 L 39.746094 130.925781 C 43.675781 124.222656 43.679688 116.207031 39.746094 109.472656 L 35.019531 101.414062 C 33.574219 98.929688 33.300781 96.382812 34.175781 93.660156 C 35.066406 90.925781 36.78125 89.035156 39.410156 87.878906 L 47.996094 84.117188 C 55.09375 80.992188 59.804688 74.515625 60.597656 66.769531 L 61.511719 57.464844 C 61.800781 54.601562 63.074219 52.386719 65.386719 50.699219 C 67.722656 49.011719 70.21875 48.484375 73.023438 49.101562 L 82.167969 51.09375 C 89.746094 52.761719 97.371094 50.289062 102.5625 44.472656 L 108.777344 37.488281 C 110.707031 35.335938 113.035156 34.289062 115.898438 34.289062 C 118.761719 34.289062 121.097656 35.328125 123.007812 37.472656 C 123.007812 37.472656 123.007812 37.472656 123.007812 37.476562 L 129.242188 44.476562 C 134.429688 50.289062 142.050781 52.757812 149.617188 51.09375 L 158.785156 49.101562 C 161.578125 48.488281 164.070312 49.011719 166.390625 50.6875 C 168.722656 52.386719 169.996094 54.601562 170.285156 57.449219 L 171.199219 66.796875 C 171.992188 74.515625 176.703125 80.992188 183.808594 84.121094 L 192.378906 87.878906 C 195.011719 89.035156 196.726562 90.925781 197.609375 93.628906 C 198.496094 96.382812 198.222656 98.933594 196.785156 101.398438 L 192.046875 109.484375 C 188.121094 116.207031 188.121094 124.226562 192.050781 130.925781 L 196.777344 138.988281 C 198.226562 141.472656 198.5 144.019531 197.621094 146.742188 C 196.730469 149.472656 195.011719 151.363281 192.375 152.523438 L 183.820312 156.296875 C 176.710938 159.398438 171.992188 165.867188 171.199219 173.628906 L 170.285156 182.933594 C 169.996094 185.796875 168.722656 188.011719 166.390625 189.710938 C 164.082031 191.398438 161.59375 191.917969 158.773438 191.296875 L 149.613281 189.304688 C 142.023438 187.664062 134.410156 190.136719 129.238281 195.925781 L 122.996094 202.941406 C 121.109375 205.074219 118.785156 206.113281 115.898438 206.113281 C 113.011719 206.113281 110.699219 205.070312 108.792969 202.925781 L 102.558594 195.921875 C 98.441406 191.3125 92.773438 188.804688 86.800781 188.804688 C 85.273438 188.804688 83.726562 188.96875 82.179688 189.304688 L 73.015625 191.300781 C 70.207031 191.917969 67.71875 191.398438 65.40625 189.710938 C 63.074219 188.011719 61.800781 185.796875 61.515625 182.953125 L 60.597656 173.601562 C 59.804688 165.867188 55.085938 159.394531 48 156.304688 L 39.421875 152.523438 C 36.785156 151.363281 35.070312 149.472656 34.183594 146.765625 C 33.300781 144.019531 33.574219 141.472656 35.011719 139 Z M 115.898438 182.296875 C 150.140625 182.296875 178 154.441406 178 120.199219 C 178 85.957031 150.140625 58.101562 115.898438 58.101562 C 81.65625 58.101562 53.796875 85.957031 53.796875 120.199219 C 53.796875 154.441406 81.65625 182.296875 115.898438 182.296875 Z M 115.898438 69.808594 C 143.683594 69.808594 166.289062 92.414062 166.289062 120.199219 C 166.289062 147.984375 143.683594 170.585938 115.898438 170.585938 C 88.113281 170.585938 65.507812 147.984375 65.507812 120.199219 C 65.507812 92.414062 88.113281 69.808594 115.898438 69.808594 Z M 90.898438 130.828125 C 91.101562 130.976562 91.109375 131.097656 91.042969 131.292969 L 87.304688 142.742188 C 85.675781 147.742188 87.4375 153.183594 91.683594 156.28125 C 93.820312 157.835938 96.316406 158.609375 98.808594 158.609375 C 101.3125 158.609375 103.808594 157.828125 105.929688 156.261719 L 115.699219 149.160156 C 115.855469 149.042969 115.941406 149.042969 116.128906 149.183594 L 125.832031 156.238281 C 130.09375 159.382812 135.832031 159.398438 140.109375 156.28125 C 144.359375 153.183594 146.121094 147.742188 144.488281 142.734375 L 140.746094 131.273438 C 140.6875 131.097656 140.695312 130.976562 140.882812 130.839844 L 150.636719 123.78125 C 154.914062 120.695312 156.691406 115.257812 155.066406 110.261719 C 153.449219 105.25 148.820312 101.886719 143.542969 101.886719 L 131.492188 101.90625 C 131.238281 101.90625 131.160156 101.8125 131.105469 101.648438 L 127.410156 90.167969 C 127.40625 90.164062 127.40625 90.15625 127.40625 90.152344 C 125.777344 85.148438 121.152344 81.789062 115.898438 81.789062 C 110.644531 81.789062 106.019531 85.148438 104.386719 90.167969 L 100.695312 101.632812 C 100.640625 101.8125 100.558594 101.90625 100.316406 101.90625 L 88.261719 101.886719 C 82.984375 101.886719 78.351562 105.253906 76.734375 110.25 C 75.105469 115.257812 76.886719 120.695312 81.15625 123.78125 Z M 87.875 113.859375 C 87.925781 113.703125 87.980469 113.597656 88.253906 113.597656 L 100.304688 113.617188 C 105.570312 113.617188 110.203125 110.257812 111.835938 105.238281 L 115.527344 93.773438 C 115.605469 93.539062 115.703125 93.5 115.898438 93.5 C 116.089844 93.5 116.191406 93.539062 116.265625 93.769531 L 119.964844 105.253906 C 121.589844 110.257812 126.222656 113.617188 131.5 113.617188 L 143.554688 113.597656 C 143.792969 113.597656 143.863281 113.679688 143.925781 113.871094 C 143.984375 114.050781 143.976562 114.148438 143.777344 114.292969 L 134 121.363281 C 129.726562 124.480469 127.96875 129.9375 129.621094 134.929688 L 133.355469 146.363281 C 133.425781 146.570312 133.386719 146.691406 133.210938 146.816406 C 133.050781 146.9375 132.949219 146.9375 132.753906 146.792969 L 123.050781 139.738281 C 118.773438 136.578125 113.023438 136.582031 108.777344 139.710938 L 99.003906 146.816406 C 98.847656 146.933594 98.746094 146.9375 98.582031 146.816406 C 98.410156 146.691406 98.371094 146.574219 98.4375 146.371094 L 102.167969 134.953125 C 103.824219 129.941406 102.066406 124.480469 97.777344 121.351562 L 88.015625 114.292969 C 87.820312 114.148438 87.8125 114.050781 87.875 113.859375 Z M 356.496094 157.972656 C 339.097656 148.320312 317.074219 154.613281 307.40625 172.003906 C 302.164062 181.445312 300.574219 190.925781 299.039062 200.089844 C 297.722656 207.953125 296.488281 215.320312 293.070312 222.3125 L 293.070312 31.277344 C 293.070312 28.042969 290.449219 25.421875 287.214844 25.421875 L 230.796875 25.421875 L 207.082031 1.707031 C 206.945312 1.570312 206.800781 1.441406 206.648438 1.316406 C 206.632812 1.300781 206.613281 1.289062 206.597656 1.277344 C 206.464844 1.167969 206.328125 1.070312 206.1875 0.972656 C 206.167969 0.960938 206.144531 0.949219 206.125 0.9375 C 205.984375 0.84375 205.84375 0.757812 205.695312 0.679688 C 205.683594 0.671875 205.667969 0.664062 205.65625 0.660156 C 205.5 0.578125 205.339844 0.5 205.179688 0.433594 C 205.171875 0.429688 205.164062 0.429688 205.15625 0.425781 C 204.988281 0.355469 204.816406 0.292969 204.640625 0.238281 C 204.628906 0.238281 204.621094 0.234375 204.609375 0.230469 C 204.4375 0.179688 204.265625 0.136719 204.089844 0.101562 C 204.046875 0.0898438 204.003906 0.0898438 203.960938 0.0820312 C 203.816406 0.0546875 203.667969 0.03125 203.519531 0.015625 C 203.328125 -0.00390625 203.132812 -0.015625 202.9375 -0.015625 L 5.894531 -0.015625 C 2.660156 -0.0117188 0.0390625 2.609375 0.0390625 5.84375 L 0.0390625 343.699219 C 0.0390625 346.933594 2.660156 349.554688 5.894531 349.554688 L 25.496094 349.554688 L 25.496094 369.132812 C 25.496094 372.367188 28.117188 374.988281 31.351562 374.988281 L 287.214844 374.988281 C 290.449219 374.988281 293.070312 372.367188 293.070312 369.132812 L 293.070312 333.21875 C 295.4375 333.839844 297.742188 334.339844 299.953125 334.699219 C 302.984375 335.195312 305.664062 335.414062 308.039062 335.414062 C 317.949219 335.414062 322.488281 331.585938 324.5625 327.964844 C 324.574219 327.945312 324.585938 327.921875 324.597656 327.902344 C 329.144531 319.722656 333.691406 311.542969 338.238281 303.386719 C 338.25 303.363281 338.265625 303.335938 338.277344 303.3125 C 342.570312 295.34375 337.683594 285.457031 328.492188 276.066406 C 327.675781 249.644531 338.542969 240.0625 351.074219 229.023438 C 358.058594 222.875 365.273438 216.515625 370.53125 207.0625 C 380.179688 189.664062 373.890625 167.644531 356.496094 157.972656 Z M 208.792969 19.976562 L 247.644531 58.828125 L 208.792969 58.828125 Z M 281.359375 37.132812 L 281.359375 236.953125 C 278.453125 239.394531 275.019531 241.792969 270.925781 244.160156 C 269.808594 243.917969 268.710938 243.707031 267.632812 243.523438 L 267.632812 64.683594 C 267.632812 64.484375 267.625 64.289062 267.605469 64.097656 C 267.589844 63.949219 267.566406 63.804688 267.539062 63.660156 C 267.53125 63.617188 267.527344 63.574219 267.519531 63.53125 C 267.484375 63.355469 267.4375 63.179688 267.386719 63.007812 C 267.386719 63 267.382812 62.988281 267.378906 62.976562 C 267.324219 62.800781 267.265625 62.628906 267.195312 62.460938 C 267.191406 62.453125 267.191406 62.449219 267.1875 62.441406 C 267.121094 62.277344 267.042969 62.117188 266.960938 61.960938 C 266.953125 61.949219 266.949219 61.9375 266.941406 61.921875 C 266.863281 61.773438 266.773438 61.632812 266.683594 61.492188 C 266.671875 61.472656 266.660156 61.449219 266.644531 61.429688 C 266.550781 61.289062 266.449219 61.15625 266.34375 61.023438 C 266.332031 61.003906 266.320312 60.988281 266.304688 60.96875 C 266.179688 60.820312 266.050781 60.675781 265.910156 60.535156 L 242.503906 37.132812 Z M 11.75 11.699219 L 197.082031 11.699219 L 197.082031 64.679688 C 197.082031 67.914062 199.703125 70.535156 202.9375 70.535156 L 255.925781 70.535156 L 255.925781 242.914062 C 248.285156 243.667969 244.542969 247.011719 242.710938 250.195312 C 242.695312 250.222656 242.679688 250.25 242.664062 250.28125 C 238.140625 258.457031 233.59375 266.628906 229.050781 274.785156 C 229.039062 274.808594 229.023438 274.828125 229.011719 274.851562 C 226.554688 279.402344 225.820312 287.34375 236.289062 299.316406 C 241.253906 305 248.042969 310.738281 255.925781 315.992188 L 255.925781 337.84375 L 11.75 337.84375 Z M 281.359375 363.277344 L 37.207031 363.277344 L 37.207031 349.554688 L 261.78125 349.554688 C 265.011719 349.554688 267.636719 346.933594 267.636719 343.699219 L 267.636719 322.992188 C 272.226562 325.4375 276.84375 327.574219 281.359375 329.355469 Z M 301.839844 323.144531 C 292.832031 321.671875 281.929688 317.5625 271.144531 311.570312 C 260.363281 305.574219 251.113281 298.488281 245.105469 291.613281 C 239.644531 285.363281 238.835938 281.4375 239.300781 280.457031 C 239.304688 280.441406 239.316406 280.433594 239.324219 280.417969 C 239.832031 279.507812 243.554688 278.054688 251.828125 279.390625 C 260.855469 280.847656 271.777344 284.960938 282.582031 290.972656 C 293.40625 296.992188 302.671875 304.09375 308.671875 310.984375 C 314.175781 317.292969 314.910156 321.214844 314.402344 322.128906 C 314.394531 322.140625 314.390625 322.15625 314.382812 322.167969 C 313.8125 323.078125 310.054688 324.484375 301.839844 323.144531 Z M 327.976562 297.738281 C 325.910156 301.445312 323.847656 305.160156 321.78125 308.871094 C 320.628906 307.117188 319.21875 305.257812 317.5 303.289062 C 310.628906 295.40625 300.25 287.398438 288.273438 280.738281 C 276.3125 274.082031 264.03125 269.5 253.695312 267.828125 C 251.113281 267.410156 248.789062 267.199219 246.6875 267.144531 C 248.75 263.433594 250.816406 259.726562 252.871094 256.015625 C 253.332031 255.277344 255.878906 254.214844 261.164062 254.535156 C 261.222656 254.542969 261.289062 254.542969 261.347656 254.546875 C 262.570312 254.625 263.929688 254.777344 265.441406 255.023438 C 274.453125 256.496094 285.355469 260.605469 296.140625 266.597656 C 304.90625 271.472656 312.652344 277.0625 318.472656 282.671875 C 318.582031 282.789062 318.691406 282.898438 318.808594 283.003906 C 320.019531 284.1875 321.152344 285.371094 322.179688 286.550781 C 327.671875 292.832031 328.457031 296.78125 327.976562 297.738281 Z M 360.289062 201.378906 C 356.015625 209.0625 349.855469 214.492188 343.335938 220.234375 C 331.898438 230.308594 319.152344 241.554688 317.050781 266.179688 C 312.289062 262.625 307.105469 259.300781 301.832031 256.363281 C 296.355469 253.324219 290.816406 250.71875 285.429688 248.621094 C 287.402344 247.152344 289.214844 245.660156 290.867188 244.152344 C 291.097656 243.964844 291.3125 243.761719 291.515625 243.542969 C 305.878906 230.066406 308.355469 215.367188 310.589844 202.023438 C 312.023438 193.457031 313.378906 185.367188 317.640625 177.691406 C 324.175781 165.941406 339.054688 161.691406 350.808594 168.210938 C 362.558594 174.742188 366.808594 189.625 360.289062 201.378906 Z M 202.210938 290.945312 C 202.210938 294.175781 199.589844 296.800781 196.355469 296.800781 L 59.214844 296.800781 C 55.980469 296.800781 53.359375 294.175781 53.359375 290.945312 C 53.359375 287.710938 55.980469 285.089844 59.214844 285.089844 L 196.355469 285.089844 C 199.589844 285.089844 202.210938 287.710938 202.210938 290.945312 Z M 202.210938 315.296875 C 202.210938 318.53125 199.589844 321.152344 196.355469 321.152344 L 59.214844 321.152344 C 55.980469 321.152344 53.359375 318.53125 53.359375 315.296875 C 53.359375 312.0625 55.980469 309.441406 59.214844 309.441406 L 196.355469 309.441406 C 199.589844 309.441406 202.210938 312.0625 202.210938 315.296875 Z M 46.984375 290.945312 C 46.984375 294.175781 44.363281 296.800781 41.128906 296.800781 C 37.894531 296.800781 35.265625 294.175781 35.265625 290.945312 C 35.265625 287.710938 37.875 285.089844 41.109375 285.089844 L 41.128906 285.089844 C 44.363281 285.089844 46.984375 287.710938 46.984375 290.945312 Z M 46.984375 315.296875 C 46.984375 318.53125 44.363281 321.152344 41.128906 321.152344 C 37.894531 321.152344 35.265625 318.53125 35.265625 315.296875 C 35.265625 312.0625 37.875 309.441406 41.109375 309.441406 L 41.128906 309.441406 C 44.363281 309.441406 46.984375 312.0625 46.984375 315.296875 Z M 46.984375 315.296875 " fill-opacity="1" fill-rule="nonzero"/></svg>