<svg xmlns="http://www.w3.org/2000/svg" xmlns:xlink="http://www.w3.org/1999/xlink" width="500" zoomAndPan="magnify" viewBox="0 0 375 374.999991" height="500" preserveAspectRatio="xMidYMid meet" version="1.0"><defs><clipPath id="0e47b3f1d5"><path d="M 0 0 L 375 0 L 375 366.75 L 0 366.75 Z M 0 0 " clip-rule="nonzero"/></clipPath><clipPath id="5ce3c6ee3e"><path d="M 0 0 L 375 0 L 375 366.75 L 0 366.75 Z M 0 0 " clip-rule="nonzero"/></clipPath></defs><path fill="#c5c2ff" d="M 31.304688 31.351562 L 280.574219 31.351562 L 280.574219 360.242188 L 31.304688 360.242188 Z M 31.304688 31.351562 " fill-opacity="1" fill-rule="nonzero"/><path fill="#eceafd" d="M 6.515625 6.578125 L 198.46875 6.578125 L 255.808594 63.875 L 255.808594 335.472656 L 6.515625 335.472656 Z M 6.515625 6.578125 " fill-opacity="1" fill-rule="evenodd"/><path fill="#b0acf7" d="M 198.46875 63.875 L 255.808594 63.875 L 198.46875 6.578125 Z M 198.46875 63.875 " fill-opacity="1" fill-rule="evenodd"/><path fill="#ff656f" d="M 135.722656 134.179688 L 98.34375 148.988281 L 119.417969 202.054688 L 132.402344 180.277344 L 156.796875 187.246094 Z M 135.722656 134.179688 " fill-opacity="1" fill-rule="evenodd"/><path fill="#ff656f" d="M 69.28125 134.179688 L 106.640625 148.988281 L 85.566406 202.054688 L 72.605469 180.277344 L 48.210938 187.246094 Z M 69.28125 134.179688 " fill-opacity="1" fill-rule="evenodd"/><path fill="#fee570" d="M 110.4375 33 L 114.753906 37.824219 C 117.375 40.777344 121.109375 41.992188 124.96875 41.148438 L 131.285156 39.765625 C 134.363281 39.085938 137.273438 39.703125 139.808594 41.558594 C 142.347656 43.394531 143.835938 45.972656 144.144531 49.085938 L 144.785156 55.542969 C 145.175781 59.460938 147.488281 62.636719 151.101562 64.203125 L 157.023438 66.804688 C 159.914062 68.082031 161.894531 70.265625 162.867188 73.257812 C 163.835938 76.25 163.527344 79.199219 161.9375 81.921875 L 158.65625 87.488281 C 156.671875 90.890625 156.671875 94.832031 158.65625 98.234375 L 161.9375 103.800781 C 163.527344 106.523438 163.835938 109.472656 162.867188 112.464844 C 161.894531 115.453125 159.914062 117.640625 157.023438 118.917969 L 151.101562 121.519531 C 147.488281 123.085938 145.175781 126.261719 144.785156 130.179688 L 144.144531 136.636719 C 143.835938 139.75 142.347656 142.328125 139.808594 144.164062 C 137.273438 146.019531 134.363281 146.636719 131.285156 145.957031 L 124.96875 144.574219 C 121.109375 143.730469 117.375 144.945312 114.753906 147.894531 L 110.4375 152.722656 C 108.355469 155.074219 105.652344 156.289062 102.492188 156.289062 C 99.355469 156.289062 96.652344 155.074219 94.546875 152.722656 L 90.253906 147.894531 C 87.632812 144.945312 83.894531 143.730469 80.035156 144.574219 L 73.71875 145.957031 C 70.644531 146.636719 67.734375 146.019531 65.195312 144.164062 C 62.636719 142.328125 61.171875 139.75 60.859375 136.636719 L 60.222656 130.179688 C 59.828125 126.261719 57.515625 123.085938 53.90625 121.519531 L 47.980469 118.917969 C 45.09375 117.640625 43.109375 115.453125 42.140625 112.464844 C 41.148438 109.472656 41.480469 106.523438 43.070312 103.800781 L 46.328125 98.234375 C 48.332031 94.832031 48.332031 90.890625 46.328125 87.488281 L 43.070312 81.921875 C 41.480469 79.199219 41.148438 76.25 42.140625 73.257812 C 43.109375 70.265625 45.09375 68.082031 47.980469 66.804688 L 53.90625 64.203125 C 57.515625 62.636719 59.828125 59.460938 60.222656 55.542969 L 60.859375 49.085938 C 61.171875 45.972656 62.636719 43.394531 65.195312 41.558594 C 67.734375 39.703125 70.644531 39.085938 73.71875 39.765625 L 80.035156 41.148438 C 83.894531 41.992188 87.632812 40.777344 90.253906 37.824219 L 94.546875 33 C 96.652344 30.648438 99.355469 29.433594 102.492188 29.433594 C 105.648438 29.433594 108.355469 30.648438 110.4375 33 Z M 110.4375 33 " fill-opacity="1" fill-rule="evenodd"/><path fill="#feb237" d="M 102.492188 58.695312 C 121.378906 58.695312 136.695312 73.980469 136.695312 92.871094 C 136.695312 111.761719 121.378906 127.023438 102.492188 127.023438 C 83.609375 127.023438 68.292969 111.742188 68.292969 92.871094 C 68.292969 74 83.609375 58.695312 102.492188 58.695312 Z M 102.492188 58.695312 " fill-opacity="1" fill-rule="evenodd"/><path fill="#fee570" d="M 28.644531 239.46875 L 81.894531 239.46875 L 81.894531 292.679688 L 28.644531 292.679688 Z M 28.644531 239.46875 " fill-opacity="1" fill-rule="nonzero"/><path fill="#dc8758" d="M 282.144531 224.722656 L 363.011719 324.214844 C 366.789062 328.875 368.296875 334.296875 367.449219 340.238281 C 366.601562 346.179688 363.652344 350.984375 358.71875 354.40625 L 358.574219 354.511719 C 353.640625 357.933594 348.109375 359.027344 342.246094 357.746094 C 336.386719 356.46875 331.824219 353.148438 328.769531 347.992188 L 263.652344 237.570312 Z M 282.144531 224.722656 " fill-opacity="1" fill-rule="evenodd"/><path fill="#fece85" d="M 224.972656 221.875 C 244.515625 215.792969 268.398438 199.210938 280.90625 183.039062 L 297.519531 206.921875 L 314.136719 230.828125 C 294.609375 236.890625 270.710938 253.472656 258.203125 269.660156 L 241.585938 245.757812 Z M 224.972656 221.875 " fill-opacity="1" fill-rule="evenodd"/><path fill="#dc8758" d="M 217.292969 217.792969 L 204.332031 226.785156 C 202.535156 228.042969 202.101562 230.515625 203.339844 232.3125 L 240.882812 286.285156 C 242.121094 288.078125 244.597656 288.511719 246.394531 287.273438 L 259.355469 278.261719 C 261.152344 277.023438 261.605469 274.550781 260.367188 272.753906 L 222.824219 218.78125 C 221.566406 216.988281 219.089844 216.535156 217.292969 217.792969 Z M 217.292969 217.792969 " fill-opacity="1" fill-rule="evenodd"/><path fill="#dc8758" d="M 292.710938 165.40625 L 279.75 174.417969 C 277.953125 175.65625 277.5 178.152344 278.757812 179.925781 L 316.300781 233.921875 C 317.539062 235.695312 320.015625 236.148438 321.8125 234.910156 L 334.777344 225.898438 C 336.570312 224.660156 337.027344 222.183594 335.765625 220.390625 L 298.242188 166.398438 C 296.984375 164.625 294.507812 164.167969 292.710938 165.40625 Z M 292.710938 165.40625 " fill-opacity="1" fill-rule="evenodd"/><g clip-path="url(#0e47b3f1d5)"><path fill="#000000" d="M 5.84375 341.890625 L 24.863281 341.890625 L 24.863281 360.914062 C 24.863281 364.140625 27.476562 366.753906 30.707031 366.753906 L 280.921875 366.753906 C 284.148438 366.753906 286.765625 364.140625 286.765625 360.914062 L 286.765625 287.984375 L 324.265625 351.582031 C 328.144531 358.15625 334.132812 362.488281 341.582031 364.113281 C 343.574219 364.546875 345.550781 364.761719 347.496094 364.761719 C 352.792969 364.761719 357.867188 363.167969 362.425781 360.039062 L 362.480469 360.003906 C 362.5625 359.953125 362.644531 359.898438 362.726562 359.84375 C 368.996094 355.472656 372.863281 349.175781 373.910156 341.65625 C 374.984375 334.105469 373.011719 326.992188 368.207031 321.085938 L 303.707031 241.710938 C 306.640625 240.269531 309.546875 239.003906 312.382812 237.941406 C 314.292969 240.347656 317.140625 241.644531 320.050781 241.644531 C 321.984375 241.644531 323.9375 241.078125 325.652344 239.898438 L 338.691406 230.84375 C 343.109375 227.765625 344.214844 221.648438 341.140625 217.195312 L 303.441406 163 C 301.921875 160.835938 299.652344 159.394531 297.050781 158.945312 C 294.480469 158.5 291.898438 159.082031 289.773438 160.574219 L 286.765625 162.660156 L 286.765625 30.773438 C 286.765625 27.546875 284.148438 24.933594 280.921875 24.933594 L 225.804688 24.933594 L 202.636719 1.78125 C 202.5 1.644531 202.359375 1.515625 202.210938 1.394531 C 202.179688 1.371094 202.148438 1.351562 202.117188 1.328125 C 201.996094 1.234375 201.878906 1.140625 201.75 1.054688 C 201.722656 1.035156 201.6875 1.019531 201.660156 1 C 201.527344 0.917969 201.394531 0.835938 201.257812 0.761719 C 201.238281 0.75 201.21875 0.742188 201.199219 0.730469 C 201.050781 0.65625 200.898438 0.582031 200.742188 0.515625 C 200.730469 0.511719 200.714844 0.507812 200.703125 0.503906 C 200.542969 0.4375 200.375 0.375 200.203125 0.324219 C 200.1875 0.320312 200.171875 0.316406 200.15625 0.3125 C 199.992188 0.261719 199.824219 0.21875 199.652344 0.1875 C 199.605469 0.175781 199.558594 0.171875 199.511719 0.164062 C 199.371094 0.140625 199.230469 0.117188 199.085938 0.101562 C 198.890625 0.0820312 198.699219 0.0703125 198.503906 0.0703125 L 5.84375 0.0703125 C 2.617188 0.0703125 0 2.683594 0 5.910156 L 0 336.054688 C 0 339.277344 2.617188 341.890625 5.84375 341.890625 Z M 275.078125 355.078125 L 36.546875 355.078125 L 36.546875 341.890625 L 256.058594 341.890625 C 259.285156 341.890625 261.902344 339.277344 261.902344 336.050781 L 261.902344 284.183594 L 263.023438 283.40625 C 267.226562 280.425781 268.386719 274.675781 265.769531 270.304688 C 267.753906 268.019531 269.953125 265.742188 272.328125 263.503906 L 275.078125 268.171875 Z M 244.8125 281.8125 L 231.839844 263.160156 C 231.816406 263.128906 231.789062 263.09375 231.765625 263.058594 L 209.257812 230.699219 L 219.21875 223.78125 L 220.265625 225.285156 C 220.28125 225.308594 220.292969 225.332031 220.308594 225.351562 L 253.664062 273.320312 C 253.707031 273.378906 253.753906 273.429688 253.796875 273.488281 L 254.78125 274.90625 Z M 359.136719 328.453125 C 361.914062 331.863281 362.960938 335.644531 362.335938 340.03125 C 361.738281 344.34375 359.714844 347.667969 356.152344 350.1875 L 356.117188 350.207031 C 356.039062 350.257812 355.960938 350.3125 355.882812 350.363281 C 352.253906 352.882812 348.390625 353.648438 344.074219 352.707031 C 339.765625 351.765625 336.578125 349.460938 334.332031 345.65625 L 281.347656 255.804688 C 285.175781 252.832031 289.21875 250.023438 293.339844 247.476562 Z M 270.0625 249.902344 C 269.976562 249.972656 269.886719 250.042969 269.804688 250.117188 C 265.867188 253.4375 262.195312 256.898438 258.9375 260.421875 L 234.242188 224.921875 C 250.796875 218.148438 268.640625 205.753906 280.789062 192.601562 L 305.480469 228.105469 C 293.464844 233.027344 280.773438 240.917969 270.0625 249.902344 Z M 204.34375 20.003906 L 219.253906 34.898438 C 219.253906 34.898438 219.253906 34.902344 219.253906 34.902344 L 241.953125 57.582031 L 204.34375 57.582031 Z M 294.921875 171.214844 L 330.480469 222.332031 L 320.515625 229.246094 L 284.953125 178.121094 Z M 275.078125 36.609375 L 275.078125 171.085938 C 272.246094 174.238281 271.71875 178.96875 273.957031 182.714844 C 270.511719 186.679688 266.40625 190.632812 261.902344 194.390625 L 261.902344 63.421875 C 261.902344 63.226562 261.890625 63.03125 261.871094 62.835938 C 261.859375 62.695312 261.832031 62.550781 261.808594 62.410156 C 261.800781 62.363281 261.796875 62.316406 261.785156 62.269531 C 261.753906 62.101562 261.710938 61.933594 261.660156 61.765625 C 261.65625 61.75 261.652344 61.734375 261.648438 61.71875 C 261.597656 61.550781 261.535156 61.382812 261.46875 61.21875 C 261.464844 61.207031 261.460938 61.195312 261.457031 61.183594 C 261.390625 61.027344 261.316406 60.875 261.238281 60.726562 C 261.230469 60.707031 261.222656 60.6875 261.210938 60.664062 C 261.136719 60.527344 261.054688 60.398438 260.972656 60.265625 C 260.953125 60.234375 260.9375 60.203125 260.917969 60.175781 C 260.832031 60.046875 260.738281 59.925781 260.644531 59.808594 C 260.621094 59.777344 260.601562 59.746094 260.574219 59.714844 C 260.453125 59.566406 260.324219 59.425781 260.191406 59.289062 L 237.492188 36.609375 Z M 11.683594 11.746094 L 192.660156 11.746094 L 192.660156 63.421875 C 192.660156 66.644531 195.277344 69.257812 198.503906 69.257812 L 250.214844 69.257812 L 250.214844 203.097656 C 242.703125 208.097656 234.78125 212.300781 227.359375 215.078125 C 225.882812 213.21875 223.808594 211.964844 221.4375 211.535156 C 218.84375 211.066406 216.230469 211.632812 214.078125 213.132812 L 201.070312 222.164062 C 198.90625 223.65625 197.460938 225.90625 196.996094 228.5 C 196.539062 231.066406 197.101562 233.664062 198.59375 235.828125 L 199.648438 237.34375 L 125.222656 237.34375 C 121.996094 237.34375 119.378906 239.957031 119.378906 243.179688 C 119.378906 246.40625 121.996094 249.019531 125.222656 249.019531 L 207.769531 249.019531 L 215.789062 260.550781 L 125.222656 260.550781 C 121.996094 260.550781 119.378906 263.164062 119.378906 266.386719 C 119.378906 269.613281 121.996094 272.226562 125.222656 272.226562 L 223.914062 272.226562 L 236.269531 289.992188 C 237.765625 292.15625 240.015625 293.605469 242.605469 294.070312 C 243.195312 294.175781 243.78125 294.226562 244.367188 294.226562 C 246.359375 294.226562 248.292969 293.621094 249.941406 292.46875 L 250.21875 292.277344 L 250.21875 330.214844 L 11.683594 330.214844 Z M 37.476562 100.5625 C 35.027344 104.726562 34.523438 109.371094 36.023438 113.996094 C 37.523438 118.625 40.667969 122.09375 45.097656 124.019531 L 51.039062 126.628906 C 52.738281 127.375 53.734375 128.742188 53.917969 130.578125 L 54.558594 137.035156 C 54.878906 140.253906 56.03125 143.132812 57.945312 145.550781 L 42.242188 185.109375 C 41.421875 187.179688 41.847656 189.53125 43.34375 191.183594 C 44.835938 192.832031 47.140625 193.488281 49.28125 192.875 L 69.441406 187.117188 L 80.152344 205.128906 C 81.210938 206.910156 83.125 207.988281 85.171875 207.988281 C 85.328125 207.988281 85.480469 207.980469 85.636719 207.96875 C 87.855469 207.792969 89.78125 206.371094 90.605469 204.304688 L 102.175781 175.183594 L 113.742188 204.300781 C 114.5625 206.371094 116.492188 207.792969 118.710938 207.96875 C 118.867188 207.980469 119.019531 207.984375 119.175781 207.984375 C 121.222656 207.984375 123.136719 206.910156 124.195312 205.128906 L 134.90625 187.117188 L 155.066406 192.875 C 157.210938 193.488281 159.511719 192.832031 161.003906 191.183594 C 162.5 189.53125 162.925781 187.179688 162.105469 185.109375 L 146.40625 145.554688 C 148.3125 143.140625 149.46875 140.257812 149.789062 137.035156 L 150.429688 130.578125 C 150.613281 128.742188 151.609375 127.375 153.304688 126.628906 L 159.238281 124.027344 C 163.679688 122.09375 166.824219 118.625 168.324219 113.996094 C 169.824219 109.375 169.320312 104.726562 166.882812 100.582031 L 163.597656 94.953125 C 162.664062 93.367188 162.664062 91.691406 163.609375 90.085938 L 166.882812 84.476562 C 169.320312 80.296875 169.820312 75.648438 168.324219 71.039062 C 166.828125 66.425781 163.6875 62.964844 159.253906 61.035156 L 153.3125 58.429688 C 151.609375 57.679688 150.613281 56.3125 150.429688 54.480469 L 149.789062 48.023438 C 149.3125 43.191406 146.980469 39.132812 143.074219 36.308594 C 139.175781 33.457031 134.601562 32.488281 129.816406 33.515625 L 123.476562 34.902344 C 121.671875 35.296875 120.070312 34.777344 118.828125 33.382812 L 114.511719 28.554688 C 111.292969 24.925781 107.03125 23.007812 102.1875 23.007812 C 97.339844 23.007812 93.054688 24.925781 89.851562 28.539062 L 85.511719 33.394531 C 84.28125 34.777344 82.679688 35.296875 80.875 34.902344 L 74.511719 33.511719 C 69.753906 32.488281 65.175781 33.457031 61.300781 36.289062 C 57.371094 39.132812 55.039062 43.191406 54.5625 48.019531 L 53.917969 54.472656 C 53.734375 56.3125 52.738281 57.679688 51.046875 58.425781 L 45.113281 61.027344 C 40.664062 62.964844 37.523438 66.425781 36.027344 71.039062 C 34.53125 75.648438 35.03125 80.296875 37.46875 84.472656 L 40.753906 90.101562 C 41.6875 91.6875 41.6875 93.367188 40.742188 94.96875 L 37.480469 100.5625 Z M 84.128906 188.960938 L 77.183594 177.28125 C 75.828125 175.003906 73.105469 173.921875 70.554688 174.652344 L 57.480469 178.386719 L 68.082031 151.683594 C 70.167969 152.054688 72.332031 152.003906 74.53125 151.519531 L 80.84375 150.136719 C 82.671875 149.746094 84.285156 150.265625 85.519531 151.652344 L 89.832031 156.476562 C 91.441406 158.292969 93.316406 159.679688 95.394531 160.613281 Z M 133.789062 174.652344 C 131.238281 173.921875 128.515625 175.003906 127.160156 177.28125 L 120.21875 188.957031 L 108.960938 160.613281 C 111.03125 159.679688 112.894531 158.300781 114.496094 156.496094 L 118.835938 151.636719 C 120.058594 150.265625 121.671875 149.746094 123.476562 150.132812 L 129.800781 151.515625 C 132.003906 152.003906 134.171875 152.050781 136.261719 151.679688 L 146.863281 178.386719 Z M 47.140625 74.640625 C 47.597656 73.222656 48.414062 72.328125 49.792969 71.726562 L 55.746094 69.117188 C 61.28125 66.683594 64.945312 61.644531 65.546875 55.632812 L 66.1875 49.171875 C 66.332031 47.699219 66.957031 46.613281 68.175781 45.730469 C 69.355469 44.867188 70.589844 44.613281 72.03125 44.921875 L 78.371094 46.308594 C 84.289062 47.605469 90.222656 45.675781 94.234375 41.160156 L 98.582031 36.300781 C 99.570312 35.183594 100.683594 34.6875 102.183594 34.6875 C 103.652344 34.6875 104.789062 35.199219 105.765625 36.300781 C 105.773438 36.304688 105.777344 36.3125 105.78125 36.316406 L 110.101562 41.148438 C 114.125 45.675781 120.058594 47.605469 125.976562 46.308594 L 132.292969 44.925781 C 133.757812 44.613281 134.992188 44.867188 136.195312 45.75 C 137.390625 46.613281 138.011719 47.699219 138.160156 49.175781 L 138.800781 55.636719 C 139.402344 61.644531 143.066406 66.683594 148.605469 69.117188 L 154.566406 71.730469 C 155.933594 72.328125 156.746094 73.222656 157.207031 74.640625 C 157.671875 76.074219 157.542969 77.296875 156.785156 78.59375 L 153.523438 84.1875 C 150.449219 89.410156 150.449219 95.644531 153.511719 100.851562 L 156.792969 106.480469 C 157.535156 107.734375 157.664062 108.980469 157.207031 110.394531 C 156.742188 111.828125 155.925781 112.730469 154.550781 113.328125 L 148.601562 115.9375 C 143.0625 118.375 139.398438 123.414062 138.800781 129.421875 L 138.160156 135.878906 C 138.011719 137.34375 137.382812 138.4375 136.195312 139.304688 C 134.992188 140.175781 133.765625 140.433594 132.3125 140.113281 L 125.945312 138.71875 C 120.027344 137.453125 114.101562 139.382812 110.109375 143.871094 L 105.765625 148.734375 C 104.789062 149.835938 103.652344 150.351562 102.183594 150.351562 C 100.679688 150.351562 99.570312 149.851562 98.5625 148.71875 L 94.246094 143.886719 C 91.054688 140.296875 86.644531 138.339844 81.96875 138.339844 C 80.78125 138.339844 79.574219 138.46875 78.371094 138.726562 L 72.015625 140.117188 C 70.582031 140.433594 69.351562 140.175781 68.171875 139.324219 C 66.964844 138.4375 66.332031 137.34375 66.1875 135.882812 L 65.542969 129.421875 C 64.945312 123.414062 61.28125 118.375 55.738281 115.9375 L 49.777344 113.324219 C 48.417969 112.730469 47.605469 111.828125 47.140625 110.394531 C 46.679688 108.980469 46.8125 107.734375 47.5625 106.460938 L 50.824219 100.867188 C 53.894531 95.644531 53.894531 89.410156 50.835938 84.203125 L 47.558594 78.59375 C 46.800781 77.292969 46.671875 76.074219 47.136719 74.640625 Z M 102.183594 132.667969 C 124.324219 132.667969 142.335938 114.664062 142.335938 92.527344 C 142.335938 70.394531 124.324219 52.386719 102.183594 52.386719 C 80.042969 52.386719 62.011719 70.394531 62.011719 92.527344 C 62.011719 114.664062 80.03125 132.667969 102.183594 132.667969 Z M 102.183594 64.0625 C 117.878906 64.0625 130.648438 76.832031 130.648438 92.527344 C 130.648438 108.226562 117.878906 120.992188 102.183594 120.992188 C 86.488281 120.992188 73.695312 108.222656 73.695312 92.527344 C 73.695312 76.832031 86.476562 64.0625 102.183594 64.0625 Z M 84.542969 97.816406 C 82.261719 95.535156 82.261719 91.839844 84.542969 89.558594 C 86.824219 87.277344 90.523438 87.277344 92.804688 89.558594 L 96.898438 93.648438 L 111.539062 79.023438 C 113.820312 76.742188 117.519531 76.742188 119.800781 79.023438 C 122.082031 81.300781 122.082031 85 119.800781 87.277344 L 101.03125 106.035156 C 99.933594 107.128906 98.449219 107.746094 96.898438 107.746094 C 95.347656 107.746094 93.863281 107.128906 92.765625 106.035156 Z M 87.347656 293.09375 L 87.347656 239.679688 C 87.347656 236.457031 84.734375 233.84375 81.503906 233.84375 L 28.054688 233.84375 C 24.824219 233.84375 22.210938 236.457031 22.210938 239.679688 L 22.210938 293.09375 C 22.210938 296.320312 24.824219 298.933594 28.054688 298.933594 L 81.507812 298.933594 C 84.734375 298.933594 87.347656 296.320312 87.347656 293.09375 Z M 75.664062 287.253906 L 33.894531 287.253906 L 33.894531 245.519531 L 75.664062 245.519531 Z M 40.773438 262.226562 C 42.902344 259.804688 46.59375 259.5625 49.019531 261.6875 L 52.414062 264.667969 L 59.976562 256.039062 C 62.105469 253.613281 65.796875 253.371094 68.222656 255.496094 C 70.648438 257.621094 70.894531 261.308594 68.769531 263.734375 L 57.351562 276.753906 C 56.332031 277.921875 54.886719 278.632812 53.339844 278.734375 C 53.210938 278.742188 53.085938 278.746094 52.957031 278.746094 C 51.542969 278.746094 50.171875 278.234375 49.101562 277.296875 L 41.3125 270.464844 C 38.886719 268.335938 38.648438 264.648438 40.777344 262.226562 Z M 110.125 242.039062 C 110.203125 242.414062 110.242188 242.800781 110.242188 243.179688 C 110.242188 244.722656 109.621094 246.226562 108.53125 247.308594 C 108.261719 247.578125 107.960938 247.824219 107.640625 248.035156 C 107.324219 248.242188 106.988281 248.425781 106.632812 248.570312 C 106.28125 248.714844 105.914062 248.832031 105.542969 248.90625 C 105.164062 248.980469 104.78125 249.015625 104.402344 249.015625 C 104.023438 249.015625 103.636719 248.980469 103.261719 248.90625 C 102.890625 248.832031 102.515625 248.714844 102.167969 248.570312 C 101.816406 248.425781 101.472656 248.242188 101.15625 248.035156 C 100.835938 247.824219 100.535156 247.578125 100.273438 247.308594 C 100.003906 247.035156 99.753906 246.742188 99.542969 246.421875 C 99.332031 246.101562 99.15625 245.765625 99.007812 245.414062 C 98.863281 245.0625 98.746094 244.691406 98.671875 244.320312 C 98.597656 243.945312 98.554688 243.558594 98.554688 243.179688 C 98.554688 242.800781 98.597656 242.414062 98.671875 242.039062 C 98.746094 241.667969 98.863281 241.304688 99.007812 240.945312 C 99.15625 240.59375 99.328125 240.257812 99.542969 239.9375 C 99.753906 239.621094 100.003906 239.324219 100.273438 239.054688 C 100.535156 238.78125 100.835938 238.535156 101.15625 238.324219 C 101.472656 238.117188 101.816406 237.933594 102.167969 237.789062 C 102.515625 237.644531 102.890625 237.535156 103.261719 237.453125 C 104.015625 237.308594 104.789062 237.308594 105.542969 237.453125 C 105.914062 237.535156 106.28125 237.644531 106.640625 237.789062 C 106.988281 237.933594 107.324219 238.117188 107.648438 238.324219 C 107.960938 238.535156 108.261719 238.78125 108.53125 239.054688 C 108.800781 239.324219 109.042969 239.621094 109.253906 239.9375 C 109.46875 240.257812 109.648438 240.59375 109.796875 240.945312 C 109.941406 241.304688 110.050781 241.667969 110.125 242.039062 Z M 108.53125 262.257812 C 109.621094 263.34375 110.242188 264.847656 110.242188 266.390625 C 110.242188 267.929688 109.621094 269.429688 108.53125 270.515625 C 107.441406 271.605469 105.9375 272.222656 104.402344 272.222656 C 104.019531 272.222656 103.632812 272.1875 103.261719 272.109375 C 102.886719 272.035156 102.515625 271.925781 102.164062 271.78125 C 101.8125 271.632812 101.46875 271.449219 101.15625 271.238281 C 100.835938 271.027344 100.535156 270.785156 100.265625 270.515625 C 99.183594 269.429688 98.554688 267.925781 98.554688 266.390625 C 98.554688 264.855469 99.183594 263.34375 100.265625 262.257812 C 100.535156 261.996094 100.835938 261.746094 101.15625 261.535156 C 101.46875 261.324219 101.8125 261.140625 102.164062 261 C 102.515625 260.847656 102.886719 260.738281 103.261719 260.664062 C 105.152344 260.277344 107.171875 260.90625 108.53125 262.257812 Z M 119.378906 289.617188 C 119.378906 286.390625 121.996094 283.777344 125.222656 283.777344 L 214.042969 283.777344 C 217.269531 283.777344 219.882812 286.390625 219.882812 289.617188 C 219.882812 292.839844 217.269531 295.453125 214.042969 295.453125 L 125.222656 295.453125 C 121.996094 295.453125 119.378906 292.839844 119.378906 289.617188 Z M 110.132812 288.476562 C 110.203125 288.847656 110.242188 289.234375 110.242188 289.613281 C 110.242188 289.996094 110.203125 290.382812 110.132812 290.753906 C 110.050781 291.125 109.941406 291.5 109.796875 291.847656 C 109.648438 292.199219 109.464844 292.542969 109.253906 292.855469 C 109.042969 293.179688 108.800781 293.476562 108.53125 293.742188 C 108.261719 294.011719 107.960938 294.257812 107.640625 294.472656 C 107.324219 294.683594 106.988281 294.859375 106.632812 295.003906 C 106.28125 295.148438 105.914062 295.265625 105.542969 295.339844 C 105.164062 295.414062 104.78125 295.449219 104.402344 295.449219 C 104.023438 295.449219 103.636719 295.414062 103.261719 295.339844 C 102.890625 295.265625 102.515625 295.148438 102.167969 295.003906 C 101.816406 294.859375 101.472656 294.683594 101.15625 294.472656 C 100.835938 294.257812 100.535156 294.011719 100.273438 293.742188 C 100.003906 293.476562 99.753906 293.179688 99.542969 292.855469 C 99.332031 292.542969 99.15625 292.199219 99.007812 291.847656 C 98.863281 291.5 98.746094 291.125 98.671875 290.753906 C 98.597656 290.382812 98.554688 289.996094 98.554688 289.613281 C 98.554688 289.234375 98.597656 288.847656 98.671875 288.476562 C 98.746094 288.101562 98.863281 287.738281 99.007812 287.378906 C 99.15625 287.03125 99.328125 286.695312 99.542969 286.371094 C 99.753906 286.058594 100.003906 285.757812 100.273438 285.488281 C 100.535156 285.21875 100.835938 284.976562 101.15625 284.757812 C 101.472656 284.554688 101.816406 284.371094 102.167969 284.226562 C 102.515625 284.078125 102.890625 283.96875 103.261719 283.890625 C 104.015625 283.742188 104.789062 283.742188 105.542969 283.890625 C 105.914062 283.96875 106.28125 284.078125 106.640625 284.226562 C 106.988281 284.371094 107.324219 284.554688 107.640625 284.757812 C 107.960938 284.976562 108.261719 285.21875 108.53125 285.488281 C 108.800781 285.757812 109.042969 286.058594 109.253906 286.371094 C 109.46875 286.695312 109.648438 287.03125 109.796875 287.378906 C 109.941406 287.738281 110.050781 288.101562 110.132812 288.476562 Z M 176.5 92.425781 C 176.5 89.199219 179.117188 86.585938 182.34375 86.585938 L 231.695312 86.585938 C 234.921875 86.585938 237.535156 89.199219 237.535156 92.425781 C 237.535156 95.648438 234.921875 98.261719 231.695312 98.261719 L 182.34375 98.261719 C 179.117188 98.261719 176.5 95.648438 176.5 92.425781 Z M 176.5 115.652344 C 176.5 112.425781 179.117188 109.8125 182.34375 109.8125 L 231.695312 109.8125 C 234.921875 109.8125 237.535156 112.425781 237.535156 115.652344 C 237.535156 118.878906 234.921875 121.492188 231.695312 121.492188 L 182.34375 121.492188 C 179.117188 121.492188 176.5 118.878906 176.5 115.652344 Z M 176.5 138.878906 C 176.5 135.65625 179.117188 133.042969 182.34375 133.042969 L 231.695312 133.042969 C 234.921875 133.042969 237.535156 135.65625 237.535156 138.878906 C 237.535156 142.105469 234.921875 144.71875 231.695312 144.71875 L 182.34375 144.71875 C 179.117188 144.71875 176.5 142.105469 176.5 138.878906 Z M 176.5 162.109375 C 176.5 158.882812 179.117188 156.269531 182.34375 156.269531 L 231.695312 156.269531 C 234.921875 156.269531 237.535156 158.882812 237.535156 162.109375 C 237.535156 165.332031 234.921875 167.949219 231.695312 167.949219 L 182.34375 167.949219 C 179.117188 167.949219 176.5 165.332031 176.5 162.109375 Z M 176.5 185.335938 C 176.5 182.113281 179.117188 179.5 182.34375 179.5 L 231.695312 179.5 C 234.921875 179.5 237.535156 182.113281 237.535156 185.335938 C 237.535156 188.5625 234.921875 191.175781 231.695312 191.175781 L 182.34375 191.175781 C 179.117188 191.175781 176.5 188.5625 176.5 185.335938 Z M 176.5 185.335938 " fill-opacity="1" fill-rule="nonzero"/></g><path fill="#c5c2ff" d="M 31.304688 31.351562 L 280.574219 31.351562 L 280.574219 360.242188 L 31.304688 360.242188 Z M 31.304688 31.351562 " fill-opacity="1" fill-rule="nonzero"/><path fill="#eceafd" d="M 6.515625 6.578125 L 198.46875 6.578125 L 255.808594 63.875 L 255.808594 335.472656 L 6.515625 335.472656 Z M 6.515625 6.578125 " fill-opacity="1" fill-rule="evenodd"/><path fill="#b0acf7" d="M 198.46875 63.875 L 255.808594 63.875 L 198.46875 6.578125 Z M 198.46875 63.875 " fill-opacity="1" fill-rule="evenodd"/><path fill="#ff656f" d="M 135.722656 134.179688 L 98.34375 148.988281 L 119.417969 202.054688 L 132.402344 180.277344 L 156.796875 187.246094 Z M 135.722656 134.179688 " fill-opacity="1" fill-rule="evenodd"/><path fill="#ff656f" d="M 69.28125 134.179688 L 106.640625 148.988281 L 85.566406 202.054688 L 72.605469 180.277344 L 48.210938 187.246094 Z M 69.28125 134.179688 " fill-opacity="1" fill-rule="evenodd"/><path fill="#fee570" d="M 110.4375 33 L 114.753906 37.824219 C 117.375 40.777344 121.109375 41.992188 124.96875 41.148438 L 131.285156 39.765625 C 134.363281 39.085938 137.273438 39.703125 139.808594 41.558594 C 142.347656 43.394531 143.835938 45.972656 144.144531 49.085938 L 144.785156 55.542969 C 145.175781 59.460938 147.488281 62.636719 151.101562 64.203125 L 157.023438 66.804688 C 159.914062 68.082031 161.894531 70.265625 162.867188 73.257812 C 163.835938 76.25 163.527344 79.199219 161.9375 81.921875 L 158.65625 87.488281 C 156.671875 90.890625 156.671875 94.832031 158.65625 98.234375 L 161.9375 103.800781 C 163.527344 106.523438 163.835938 109.472656 162.867188 112.464844 C 161.894531 115.453125 159.914062 117.640625 157.023438 118.917969 L 151.101562 121.519531 C 147.488281 123.085938 145.175781 126.261719 144.785156 130.179688 L 144.144531 136.636719 C 143.835938 139.75 142.347656 142.328125 139.808594 144.164062 C 137.273438 146.019531 134.363281 146.636719 131.285156 145.957031 L 124.96875 144.574219 C 121.109375 143.730469 117.375 144.945312 114.753906 147.894531 L 110.4375 152.722656 C 108.355469 155.074219 105.652344 156.289062 102.492188 156.289062 C 99.355469 156.289062 96.652344 155.074219 94.546875 152.722656 L 90.253906 147.894531 C 87.632812 144.945312 83.894531 143.730469 80.035156 144.574219 L 73.71875 145.957031 C 70.644531 146.636719 67.734375 146.019531 65.195312 144.164062 C 62.636719 142.328125 61.171875 139.75 60.859375 136.636719 L 60.222656 130.179688 C 59.828125 126.261719 57.515625 123.085938 53.90625 121.519531 L 47.980469 118.917969 C 45.09375 117.640625 43.109375 115.453125 42.140625 112.464844 C 41.148438 109.472656 41.480469 106.523438 43.070312 103.800781 L 46.328125 98.234375 C 48.332031 94.832031 48.332031 90.890625 46.328125 87.488281 L 43.070312 81.921875 C 41.480469 79.199219 41.148438 76.25 42.140625 73.257812 C 43.109375 70.265625 45.09375 68.082031 47.980469 66.804688 L 53.90625 64.203125 C 57.515625 62.636719 59.828125 59.460938 60.222656 55.542969 L 60.859375 49.085938 C 61.171875 45.972656 62.636719 43.394531 65.195312 41.558594 C 67.734375 39.703125 70.644531 39.085938 73.71875 39.765625 L 80.035156 41.148438 C 83.894531 41.992188 87.632812 40.777344 90.253906 37.824219 L 94.546875 33 C 96.652344 30.648438 99.355469 29.433594 102.492188 29.433594 C 105.648438 29.433594 108.355469 30.648438 110.4375 33 Z M 110.4375 33 " fill-opacity="1" fill-rule="evenodd"/><path fill="#feb237" d="M 102.492188 58.695312 C 121.378906 58.695312 136.695312 73.980469 136.695312 92.871094 C 136.695312 111.761719 121.378906 127.023438 102.492188 127.023438 C 83.609375 127.023438 68.292969 111.742188 68.292969 92.871094 C 68.292969 74 83.609375 58.695312 102.492188 58.695312 Z M 102.492188 58.695312 " fill-opacity="1" fill-rule="evenodd"/><path fill="#fee570" d="M 28.644531 239.46875 L 81.894531 239.46875 L 81.894531 292.679688 L 28.644531 292.679688 Z M 28.644531 239.46875 " fill-opacity="1" fill-rule="nonzero"/><path fill="#dc8758" d="M 282.144531 224.722656 L 363.011719 324.214844 C 366.789062 328.875 368.296875 334.296875 367.449219 340.238281 C 366.601562 346.179688 363.652344 350.984375 358.71875 354.40625 L 358.574219 354.511719 C 353.640625 357.933594 348.109375 359.027344 342.246094 357.746094 C 336.386719 356.46875 331.824219 353.148438 328.769531 347.992188 L 263.652344 237.570312 Z M 282.144531 224.722656 " fill-opacity="1" fill-rule="evenodd"/><path fill="#fece85" d="M 224.972656 221.875 C 244.515625 215.792969 268.398438 199.210938 280.90625 183.039062 L 297.519531 206.921875 L 314.136719 230.828125 C 294.609375 236.890625 270.710938 253.472656 258.203125 269.660156 L 241.585938 245.757812 Z M 224.972656 221.875 " fill-opacity="1" fill-rule="evenodd"/><path fill="#dc8758" d="M 217.292969 217.792969 L 204.332031 226.785156 C 202.535156 228.042969 202.101562 230.515625 203.339844 232.3125 L 240.882812 286.285156 C 242.121094 288.078125 244.597656 288.511719 246.394531 287.273438 L 259.355469 278.261719 C 261.152344 277.023438 261.605469 274.550781 260.367188 272.753906 L 222.824219 218.78125 C 221.566406 216.988281 219.089844 216.535156 217.292969 217.792969 Z M 217.292969 217.792969 " fill-opacity="1" fill-rule="evenodd"/><path fill="#dc8758" d="M 292.710938 165.40625 L 279.75 174.417969 C 277.953125 175.65625 277.5 178.152344 278.757812 179.925781 L 316.300781 233.921875 C 317.539062 235.695312 320.015625 236.148438 321.8125 234.910156 L 334.777344 225.898438 C 336.570312 224.660156 337.027344 222.183594 335.765625 220.390625 L 298.242188 166.398438 C 296.984375 164.625 294.507812 164.167969 292.710938 165.40625 Z M 292.710938 165.40625 " fill-opacity="1" fill-rule="evenodd"/><g clip-path="url(#5ce3c6ee3e)"><path fill="#000000" d="M 5.84375 341.890625 L 24.863281 341.890625 L 24.863281 360.914062 C 24.863281 364.140625 27.476562 366.753906 30.707031 366.753906 L 280.921875 366.753906 C 284.148438 366.753906 286.765625 364.140625 286.765625 360.914062 L 286.765625 287.984375 L 324.265625 351.582031 C 328.144531 358.15625 334.132812 362.488281 341.582031 364.113281 C 343.574219 364.546875 345.550781 364.761719 347.496094 364.761719 C 352.792969 364.761719 357.867188 363.167969 362.425781 360.039062 L 362.480469 360.003906 C 362.5625 359.953125 362.644531 359.898438 362.726562 359.84375 C 368.996094 355.472656 372.863281 349.175781 373.910156 341.65625 C 374.984375 334.105469 373.011719 326.992188 368.207031 321.085938 L 303.707031 241.710938 C 306.640625 240.269531 309.546875 239.003906 312.382812 237.941406 C 314.292969 240.347656 317.140625 241.644531 320.050781 241.644531 C 321.984375 241.644531 323.9375 241.078125 325.652344 239.898438 L 338.691406 230.84375 C 343.109375 227.765625 344.214844 221.648438 341.140625 217.195312 L 303.441406 163 C 301.921875 160.835938 299.652344 159.394531 297.050781 158.945312 C 294.480469 158.5 291.898438 159.082031 289.773438 160.574219 L 286.765625 162.660156 L 286.765625 30.773438 C 286.765625 27.546875 284.148438 24.933594 280.921875 24.933594 L 225.804688 24.933594 L 202.636719 1.78125 C 202.5 1.644531 202.359375 1.515625 202.210938 1.394531 C 202.179688 1.371094 202.148438 1.351562 202.117188 1.328125 C 201.996094 1.234375 201.878906 1.140625 201.75 1.054688 C 201.722656 1.035156 201.6875 1.019531 201.660156 1 C 201.527344 0.917969 201.394531 0.835938 201.257812 0.761719 C 201.238281 0.75 201.21875 0.742188 201.199219 0.730469 C 201.050781 0.65625 200.898438 0.582031 200.742188 0.515625 C 200.730469 0.511719 200.714844 0.507812 200.703125 0.503906 C 200.542969 0.4375 200.375 0.375 200.203125 0.324219 C 200.1875 0.320312 200.171875 0.316406 200.15625 0.3125 C 199.992188 0.261719 199.824219 0.21875 199.652344 0.1875 C 199.605469 0.175781 199.558594 0.171875 199.511719 0.164062 C 199.371094 0.140625 199.230469 0.117188 199.085938 0.101562 C 198.890625 0.0820312 198.699219 0.0703125 198.503906 0.0703125 L 5.84375 0.0703125 C 2.617188 0.0703125 0 2.683594 0 5.910156 L 0 336.054688 C 0 339.277344 2.617188 341.890625 5.84375 341.890625 Z M 275.078125 355.078125 L 36.546875 355.078125 L 36.546875 341.890625 L 256.058594 341.890625 C 259.285156 341.890625 261.902344 339.277344 261.902344 336.050781 L 261.902344 284.183594 L 263.023438 283.40625 C 267.226562 280.425781 268.386719 274.675781 265.769531 270.304688 C 267.753906 268.019531 269.953125 265.742188 272.328125 263.503906 L 275.078125 268.171875 Z M 244.8125 281.8125 L 231.839844 263.160156 C 231.816406 263.128906 231.789062 263.09375 231.765625 263.058594 L 209.257812 230.699219 L 219.21875 223.78125 L 220.265625 225.285156 C 220.28125 225.308594 220.292969 225.332031 220.308594 225.351562 L 253.664062 273.320312 C 253.707031 273.378906 253.753906 273.429688 253.796875 273.488281 L 254.78125 274.90625 Z M 359.136719 328.453125 C 361.914062 331.863281 362.960938 335.644531 362.335938 340.03125 C 361.738281 344.34375 359.714844 347.667969 356.152344 350.1875 L 356.117188 350.207031 C 356.039062 350.257812 355.960938 350.3125 355.882812 350.363281 C 352.253906 352.882812 348.390625 353.648438 344.074219 352.707031 C 339.765625 351.765625 336.578125 349.460938 334.332031 345.65625 L 281.347656 255.804688 C 285.175781 252.832031 289.21875 250.023438 293.339844 247.476562 Z M 270.0625 249.902344 C 269.976562 249.972656 269.886719 250.042969 269.804688 250.117188 C 265.867188 253.4375 262.195312 256.898438 258.9375 260.421875 L 234.242188 224.921875 C 250.796875 218.148438 268.640625 205.753906 280.789062 192.601562 L 305.480469 228.105469 C 293.464844 233.027344 280.773438 240.917969 270.0625 249.902344 Z M 204.34375 20.003906 L 219.253906 34.898438 C 219.253906 34.898438 219.253906 34.902344 219.253906 34.902344 L 241.953125 57.582031 L 204.34375 57.582031 Z M 294.921875 171.214844 L 330.480469 222.332031 L 320.515625 229.246094 L 284.953125 178.121094 Z M 275.078125 36.609375 L 275.078125 171.085938 C 272.246094 174.238281 271.71875 178.96875 273.957031 182.714844 C 270.511719 186.679688 266.40625 190.632812 261.902344 194.390625 L 261.902344 63.421875 C 261.902344 63.226562 261.890625 63.03125 261.871094 62.835938 C 261.859375 62.695312 261.832031 62.550781 261.808594 62.410156 C 261.800781 62.363281 261.796875 62.316406 261.785156 62.269531 C 261.753906 62.101562 261.710938 61.933594 261.660156 61.765625 C 261.65625 61.75 261.652344 61.734375 261.648438 61.71875 C 261.597656 61.550781 261.535156 61.382812 261.46875 61.21875 C 261.464844 61.207031 261.460938 61.195312 261.457031 61.183594 C 261.390625 61.027344 261.316406 60.875 261.238281 60.726562 C 261.230469 60.707031 261.222656 60.6875 261.210938 60.664062 C 261.136719 60.527344 261.054688 60.398438 260.972656 60.265625 C 260.953125 60.234375 260.9375 60.203125 260.917969 60.175781 C 260.832031 60.046875 260.738281 59.925781 260.644531 59.808594 C 260.621094 59.777344 260.601562 59.746094 260.574219 59.714844 C 260.453125 59.566406 260.324219 59.425781 260.191406 59.289062 L 237.492188 36.609375 Z M 11.683594 11.746094 L 192.660156 11.746094 L 192.660156 63.421875 C 192.660156 66.644531 195.277344 69.257812 198.503906 69.257812 L 250.214844 69.257812 L 250.214844 203.097656 C 242.703125 208.097656 234.78125 212.300781 227.359375 215.078125 C 225.882812 213.21875 223.808594 211.964844 221.4375 211.535156 C 218.84375 211.066406 216.230469 211.632812 214.078125 213.132812 L 201.070312 222.164062 C 198.90625 223.65625 197.460938 225.90625 196.996094 228.5 C 196.539062 231.066406 197.101562 233.664062 198.59375 235.828125 L 199.648438 237.34375 L 125.222656 237.34375 C 121.996094 237.34375 119.378906 239.957031 119.378906 243.179688 C 119.378906 246.40625 121.996094 249.019531 125.222656 249.019531 L 207.769531 249.019531 L 215.789062 260.550781 L 125.222656 260.550781 C 121.996094 260.550781 119.378906 263.164062 119.378906 266.386719 C 119.378906 269.613281 121.996094 272.226562 125.222656 272.226562 L 223.914062 272.226562 L 236.269531 289.992188 C 237.765625 292.15625 240.015625 293.605469 242.605469 294.070312 C 243.195312 294.175781 243.78125 294.226562 244.367188 294.226562 C 246.359375 294.226562 248.292969 293.621094 249.941406 292.46875 L 250.21875 292.277344 L 250.21875 330.214844 L 11.683594 330.214844 Z M 37.476562 100.5625 C 35.027344 104.726562 34.523438 109.371094 36.023438 113.996094 C 37.523438 118.625 40.667969 122.09375 45.097656 124.019531 L 51.039062 126.628906 C 52.738281 127.375 53.734375 128.742188 53.917969 130.578125 L 54.558594 137.035156 C 54.878906 140.253906 56.03125 143.132812 57.945312 145.550781 L 42.242188 185.109375 C 41.421875 187.179688 41.847656 189.53125 43.34375 191.183594 C 44.835938 192.832031 47.140625 193.488281 49.28125 192.875 L 69.441406 187.117188 L 80.152344 205.128906 C 81.210938 206.910156 83.125 207.988281 85.171875 207.988281 C 85.328125 207.988281 85.480469 207.980469 85.636719 207.96875 C 87.855469 207.792969 89.78125 206.371094 90.605469 204.304688 L 102.175781 175.183594 L 113.742188 204.300781 C 114.5625 206.371094 116.492188 207.792969 118.710938 207.96875 C 118.867188 207.980469 119.019531 207.984375 119.175781 207.984375 C 121.222656 207.984375 123.136719 206.910156 124.195312 205.128906 L 134.90625 187.117188 L 155.066406 192.875 C 157.210938 193.488281 159.511719 192.832031 161.003906 191.183594 C 162.5 189.53125 162.925781 187.179688 162.105469 185.109375 L 146.40625 145.554688 C 148.3125 143.140625 149.46875 140.257812 149.789062 137.035156 L 150.429688 130.578125 C 150.613281 128.742188 151.609375 127.375 153.304688 126.628906 L 159.238281 124.027344 C 163.679688 122.09375 166.824219 118.625 168.324219 113.996094 C 169.824219 109.375 169.320312 104.726562 166.882812 100.582031 L 163.597656 94.953125 C 162.664062 93.367188 162.664062 91.691406 163.609375 90.085938 L 166.882812 84.476562 C 169.320312 80.296875 169.820312 75.648438 168.324219 71.039062 C 166.828125 66.425781 163.6875 62.964844 159.253906 61.035156 L 153.3125 58.429688 C 151.609375 57.679688 150.613281 56.3125 150.429688 54.480469 L 149.789062 48.023438 C 149.3125 43.191406 146.980469 39.132812 143.074219 36.308594 C 139.175781 33.457031 134.601562 32.488281 129.816406 33.515625 L 123.476562 34.902344 C 121.671875 35.296875 120.070312 34.777344 118.828125 33.382812 L 114.511719 28.554688 C 111.292969 24.925781 107.03125 23.007812 102.1875 23.007812 C 97.339844 23.007812 93.054688 24.925781 89.851562 28.539062 L 85.511719 33.394531 C 84.28125 34.777344 82.679688 35.296875 80.875 34.902344 L 74.511719 33.511719 C 69.753906 32.488281 65.175781 33.457031 61.300781 36.289062 C 57.371094 39.132812 55.039062 43.191406 54.5625 48.019531 L 53.917969 54.472656 C 53.734375 56.3125 52.738281 57.679688 51.046875 58.425781 L 45.113281 61.027344 C 40.664062 62.964844 37.523438 66.425781 36.027344 71.039062 C 34.53125 75.648438 35.03125 80.296875 37.46875 84.472656 L 40.753906 90.101562 C 41.6875 91.6875 41.6875 93.367188 40.742188 94.96875 L 37.480469 100.5625 Z M 84.128906 188.960938 L 77.183594 177.28125 C 75.828125 175.003906 73.105469 173.921875 70.554688 174.652344 L 57.480469 178.386719 L 68.082031 151.683594 C 70.167969 152.054688 72.332031 152.003906 74.53125 151.519531 L 80.84375 150.136719 C 82.671875 149.746094 84.285156 150.265625 85.519531 151.652344 L 89.832031 156.476562 C 91.441406 158.292969 93.316406 159.679688 95.394531 160.613281 Z M 133.789062 174.652344 C 131.238281 173.921875 128.515625 175.003906 127.160156 177.28125 L 120.21875 188.957031 L 108.960938 160.613281 C 111.03125 159.679688 112.894531 158.300781 114.496094 156.496094 L 118.835938 151.636719 C 120.058594 150.265625 121.671875 149.746094 123.476562 150.132812 L 129.800781 151.515625 C 132.003906 152.003906 134.171875 152.050781 136.261719 151.679688 L 146.863281 178.386719 Z M 47.140625 74.640625 C 47.597656 73.222656 48.414062 72.328125 49.792969 71.726562 L 55.746094 69.117188 C 61.28125 66.683594 64.945312 61.644531 65.546875 55.632812 L 66.1875 49.171875 C 66.332031 47.699219 66.957031 46.613281 68.175781 45.730469 C 69.355469 44.867188 70.589844 44.613281 72.03125 44.921875 L 78.371094 46.308594 C 84.289062 47.605469 90.222656 45.675781 94.234375 41.160156 L 98.582031 36.300781 C 99.570312 35.183594 100.683594 34.6875 102.183594 34.6875 C 103.652344 34.6875 104.789062 35.199219 105.765625 36.300781 C 105.773438 36.304688 105.777344 36.3125 105.78125 36.316406 L 110.101562 41.148438 C 114.125 45.675781 120.058594 47.605469 125.976562 46.308594 L 132.292969 44.925781 C 133.757812 44.613281 134.992188 44.867188 136.195312 45.75 C 137.390625 46.613281 138.011719 47.699219 138.160156 49.175781 L 138.800781 55.636719 C 139.402344 61.644531 143.066406 66.683594 148.605469 69.117188 L 154.566406 71.730469 C 155.933594 72.328125 156.746094 73.222656 157.207031 74.640625 C 157.671875 76.074219 157.542969 77.296875 156.785156 78.59375 L 153.523438 84.1875 C 150.449219 89.410156 150.449219 95.644531 153.511719 100.851562 L 156.792969 106.480469 C 157.535156 107.734375 157.664062 108.980469 157.207031 110.394531 C 156.742188 111.828125 155.925781 112.730469 154.550781 113.328125 L 148.601562 115.9375 C 143.0625 118.375 139.398438 123.414062 138.800781 129.421875 L 138.160156 135.878906 C 138.011719 137.34375 137.382812 138.4375 136.195312 139.304688 C 134.992188 140.175781 133.765625 140.433594 132.3125 140.113281 L 125.945312 138.71875 C 120.027344 137.453125 114.101562 139.382812 110.109375 143.871094 L 105.765625 148.734375 C 104.789062 149.835938 103.652344 150.351562 102.183594 150.351562 C 100.679688 150.351562 99.570312 149.851562 98.5625 148.71875 L 94.246094 143.886719 C 91.054688 140.296875 86.644531 138.339844 81.96875 138.339844 C 80.78125 138.339844 79.574219 138.46875 78.371094 138.726562 L 72.015625 140.117188 C 70.582031 140.433594 69.351562 140.175781 68.171875 139.324219 C 66.964844 138.4375 66.332031 137.34375 66.1875 135.882812 L 65.542969 129.421875 C 64.945312 123.414062 61.28125 118.375 55.738281 115.9375 L 49.777344 113.324219 C 48.417969 112.730469 47.605469 111.828125 47.140625 110.394531 C 46.679688 108.980469 46.8125 107.734375 47.5625 106.460938 L 50.824219 100.867188 C 53.894531 95.644531 53.894531 89.410156 50.835938 84.203125 L 47.558594 78.59375 C 46.800781 77.292969 46.671875 76.074219 47.136719 74.640625 Z M 102.183594 132.667969 C 124.324219 132.667969 142.335938 114.664062 142.335938 92.527344 C 142.335938 70.394531 124.324219 52.386719 102.183594 52.386719 C 80.042969 52.386719 62.011719 70.394531 62.011719 92.527344 C 62.011719 114.664062 80.03125 132.667969 102.183594 132.667969 Z M 102.183594 64.0625 C 117.878906 64.0625 130.648438 76.832031 130.648438 92.527344 C 130.648438 108.226562 117.878906 120.992188 102.183594 120.992188 C 86.488281 120.992188 73.695312 108.222656 73.695312 92.527344 C 73.695312 76.832031 86.476562 64.0625 102.183594 64.0625 Z M 84.542969 97.816406 C 82.261719 95.535156 82.261719 91.839844 84.542969 89.558594 C 86.824219 87.277344 90.523438 87.277344 92.804688 89.558594 L 96.898438 93.648438 L 111.539062 79.023438 C 113.820312 76.742188 117.519531 76.742188 119.800781 79.023438 C 122.082031 81.300781 122.082031 85 119.800781 87.277344 L 101.03125 106.035156 C 99.933594 107.128906 98.449219 107.746094 96.898438 107.746094 C 95.347656 107.746094 93.863281 107.128906 92.765625 106.035156 Z M 87.347656 293.09375 L 87.347656 239.679688 C 87.347656 236.457031 84.734375 233.84375 81.503906 233.84375 L 28.054688 233.84375 C 24.824219 233.84375 22.210938 236.457031 22.210938 239.679688 L 22.210938 293.09375 C 22.210938 296.320312 24.824219 298.933594 28.054688 298.933594 L 81.507812 298.933594 C 84.734375 298.933594 87.347656 296.320312 87.347656 293.09375 Z M 75.664062 287.253906 L 33.894531 287.253906 L 33.894531 245.519531 L 75.664062 245.519531 Z M 40.773438 262.226562 C 42.902344 259.804688 46.59375 259.5625 49.019531 261.6875 L 52.414062 264.667969 L 59.976562 256.039062 C 62.105469 253.613281 65.796875 253.371094 68.222656 255.496094 C 70.648438 257.621094 70.894531 261.308594 68.769531 263.734375 L 57.351562 276.753906 C 56.332031 277.921875 54.886719 278.632812 53.339844 278.734375 C 53.210938 278.742188 53.085938 278.746094 52.957031 278.746094 C 51.542969 278.746094 50.171875 278.234375 49.101562 277.296875 L 41.3125 270.464844 C 38.886719 268.335938 38.648438 264.648438 40.777344 262.226562 Z M 110.125 242.039062 C 110.203125 242.414062 110.242188 242.800781 110.242188 243.179688 C 110.242188 244.722656 109.621094 246.226562 108.53125 247.308594 C 108.261719 247.578125 107.960938 247.824219 107.640625 248.035156 C 107.324219 248.242188 106.988281 248.425781 106.632812 248.570312 C 106.28125 248.714844 105.914062 248.832031 105.542969 248.90625 C 105.164062 248.980469 104.78125 249.015625 104.402344 249.015625 C 104.023438 249.015625 103.636719 248.980469 103.261719 248.90625 C 102.890625 248.832031 102.515625 248.714844 102.167969 248.570312 C 101.816406 248.425781 101.472656 248.242188 101.15625 248.035156 C 100.835938 247.824219 100.535156 247.578125 100.273438 247.308594 C 100.003906 247.035156 99.753906 246.742188 99.542969 246.421875 C 99.332031 246.101562 99.15625 245.765625 99.007812 245.414062 C 98.863281 245.0625 98.746094 244.691406 98.671875 244.320312 C 98.597656 243.945312 98.554688 243.558594 98.554688 243.179688 C 98.554688 242.800781 98.597656 242.414062 98.671875 242.039062 C 98.746094 241.667969 98.863281 241.304688 99.007812 240.945312 C 99.15625 240.59375 99.328125 240.257812 99.542969 239.9375 C 99.753906 239.621094 100.003906 239.324219 100.273438 239.054688 C 100.535156 238.78125 100.835938 238.535156 101.15625 238.324219 C 101.472656 238.117188 101.816406 237.933594 102.167969 237.789062 C 102.515625 237.644531 102.890625 237.535156 103.261719 237.453125 C 104.015625 237.308594 104.789062 237.308594 105.542969 237.453125 C 105.914062 237.535156 106.28125 237.644531 106.640625 237.789062 C 106.988281 237.933594 107.324219 238.117188 107.648438 238.324219 C 107.960938 238.535156 108.261719 238.78125 108.53125 239.054688 C 108.800781 239.324219 109.042969 239.621094 109.253906 239.9375 C 109.46875 240.257812 109.648438 240.59375 109.796875 240.945312 C 109.941406 241.304688 110.050781 241.667969 110.125 242.039062 Z M 108.53125 262.257812 C 109.621094 263.34375 110.242188 264.847656 110.242188 266.390625 C 110.242188 267.929688 109.621094 269.429688 108.53125 270.515625 C 107.441406 271.605469 105.9375 272.222656 104.402344 272.222656 C 104.019531 272.222656 103.632812 272.1875 103.261719 272.109375 C 102.886719 272.035156 102.515625 271.925781 102.164062 271.78125 C 101.8125 271.632812 101.46875 271.449219 101.15625 271.238281 C 100.835938 271.027344 100.535156 270.785156 100.265625 270.515625 C 99.183594 269.429688 98.554688 267.925781 98.554688 266.390625 C 98.554688 264.855469 99.183594 263.34375 100.265625 262.257812 C 100.535156 261.996094 100.835938 261.746094 101.15625 261.535156 C 101.46875 261.324219 101.8125 261.140625 102.164062 261 C 102.515625 260.847656 102.886719 260.738281 103.261719 260.664062 C 105.152344 260.277344 107.171875 260.90625 108.53125 262.257812 Z M 119.378906 289.617188 C 119.378906 286.390625 121.996094 283.777344 125.222656 283.777344 L 214.042969 283.777344 C 217.269531 283.777344 219.882812 286.390625 219.882812 289.617188 C 219.882812 292.839844 217.269531 295.453125 214.042969 295.453125 L 125.222656 295.453125 C 121.996094 295.453125 119.378906 292.839844 119.378906 289.617188 Z M 110.132812 288.476562 C 110.203125 288.847656 110.242188 289.234375 110.242188 289.613281 C 110.242188 289.996094 110.203125 290.382812 110.132812 290.753906 C 110.050781 291.125 109.941406 291.5 109.796875 291.847656 C 109.648438 292.199219 109.464844 292.542969 109.253906 292.855469 C 109.042969 293.179688 108.800781 293.476562 108.53125 293.742188 C 108.261719 294.011719 107.960938 294.257812 107.640625 294.472656 C 107.324219 294.683594 106.988281 294.859375 106.632812 295.003906 C 106.28125 295.148438 105.914062 295.265625 105.542969 295.339844 C 105.164062 295.414062 104.78125 295.449219 104.402344 295.449219 C 104.023438 295.449219 103.636719 295.414062 103.261719 295.339844 C 102.890625 295.265625 102.515625 295.148438 102.167969 295.003906 C 101.816406 294.859375 101.472656 294.683594 101.15625 294.472656 C 100.835938 294.257812 100.535156 294.011719 100.273438 293.742188 C 100.003906 293.476562 99.753906 293.179688 99.542969 292.855469 C 99.332031 292.542969 99.15625 292.199219 99.007812 291.847656 C 98.863281 291.5 98.746094 291.125 98.671875 290.753906 C 98.597656 290.382812 98.554688 289.996094 98.554688 289.613281 C 98.554688 289.234375 98.597656 288.847656 98.671875 288.476562 C 98.746094 288.101562 98.863281 287.738281 99.007812 287.378906 C 99.15625 287.03125 99.328125 286.695312 99.542969 286.371094 C 99.753906 286.058594 100.003906 285.757812 100.273438 285.488281 C 100.535156 285.21875 100.835938 284.976562 101.15625 284.757812 C 101.472656 284.554688 101.816406 284.371094 102.167969 284.226562 C 102.515625 284.078125 102.890625 283.96875 103.261719 283.890625 C 104.015625 283.742188 104.789062 283.742188 105.542969 283.890625 C 105.914062 283.96875 106.28125 284.078125 106.640625 284.226562 C 106.988281 284.371094 107.324219 284.554688 107.640625 284.757812 C 107.960938 284.976562 108.261719 285.21875 108.53125 285.488281 C 108.800781 285.757812 109.042969 286.058594 109.253906 286.371094 C 109.46875 286.695312 109.648438 287.03125 109.796875 287.378906 C 109.941406 287.738281 110.050781 288.101562 110.132812 288.476562 Z M 176.5 92.425781 C 176.5 89.199219 179.117188 86.585938 182.34375 86.585938 L 231.695312 86.585938 C 234.921875 86.585938 237.535156 89.199219 237.535156 92.425781 C 237.535156 95.648438 234.921875 98.261719 231.695312 98.261719 L 182.34375 98.261719 C 179.117188 98.261719 176.5 95.648438 176.5 92.425781 Z M 176.5 115.652344 C 176.5 112.425781 179.117188 109.8125 182.34375 109.8125 L 231.695312 109.8125 C 234.921875 109.8125 237.535156 112.425781 237.535156 115.652344 C 237.535156 118.878906 234.921875 121.492188 231.695312 121.492188 L 182.34375 121.492188 C 179.117188 121.492188 176.5 118.878906 176.5 115.652344 Z M 176.5 138.878906 C 176.5 135.65625 179.117188 133.042969 182.34375 133.042969 L 231.695312 133.042969 C 234.921875 133.042969 237.535156 135.65625 237.535156 138.878906 C 237.535156 142.105469 234.921875 144.71875 231.695312 144.71875 L 182.34375 144.71875 C 179.117188 144.71875 176.5 142.105469 176.5 138.878906 Z M 176.5 162.109375 C 176.5 158.882812 179.117188 156.269531 182.34375 156.269531 L 231.695312 156.269531 C 234.921875 156.269531 237.535156 158.882812 237.535156 162.109375 C 237.535156 165.332031 234.921875 167.949219 231.695312 167.949219 L 182.34375 167.949219 C 179.117188 167.949219 176.5 165.332031 176.5 162.109375 Z M 176.5 185.335938 C 176.5 182.113281 179.117188 179.5 182.34375 179.5 L 231.695312 179.5 C 234.921875 179.5 237.535156 182.113281 237.535156 185.335938 C 237.535156 188.5625 234.921875 191.175781 231.695312 191.175781 L 182.34375 191.175781 C 179.117188 191.175781 176.5 188.5625 176.5 185.335938 Z M 176.5 185.335938 " fill-opacity="1" fill-rule="nonzero"/></g></svg>