<svg xmlns="http://www.w3.org/2000/svg" xmlns:xlink="http://www.w3.org/1999/xlink" width="500" zoomAndPan="magnify" viewBox="0 0 375 374.999991" height="500" preserveAspectRatio="xMidYMid meet" version="1.0"><defs><clipPath id="0136e197ae"><path d="M 187.5 0 C 83.945312 0 0 83.945312 0 187.5 C 0 291.054688 83.945312 375 187.5 375 C 291.054688 375 375 291.054688 375 187.5 C 375 83.945312 291.054688 0 187.5 0 Z M 187.5 0 " clip-rule="nonzero"/></clipPath><clipPath id="fa7666f899"><path d="M 0 0 L 375 0 L 375 375 L 0 375 Z M 0 0 " clip-rule="nonzero"/></clipPath><clipPath id="6584ec00d9"><path d="M 187.5 0 C 83.945312 0 0 83.945312 0 187.5 C 0 291.054688 83.945312 375 187.5 375 C 291.054688 375 375 291.054688 375 187.5 C 375 83.945312 291.054688 0 187.5 0 Z M 187.5 0 " clip-rule="nonzero"/></clipPath><clipPath id="6f2cdf1146"><rect x="0" width="375" y="0" height="375"/></clipPath><clipPath id="7a1cb84d8f"><path d="M 69.875 70.90625 L 305.375 70.90625 L 305.375 304.15625 L 69.875 304.15625 Z M 69.875 70.90625 " clip-rule="nonzero"/></clipPath></defs><g clip-path="url(#0136e197ae)"><g transform="matrix(1, 0, 0, 1, 0, 0)"><g clip-path="url(#6f2cdf1146)"><g clip-path="url(#fa7666f899)"><g clip-path="url(#6584ec00d9)"><rect x="-82.5" width="540" fill="#e6ac41" height="539.999987" y="-82.499998" fill-opacity="1"/></g></g></g></g></g><g clip-path="url(#7a1cb84d8f)"><path fill="#ffffff" d="M 302.265625 280.9375 L 284.90625 280.9375 L 284.90625 89.664062 C 284.90625 89.285156 284.832031 88.917969 284.6875 88.566406 C 284.539062 88.210938 284.332031 87.902344 284.0625 87.632812 C 283.792969 87.363281 283.480469 87.152344 283.128906 87.007812 C 282.777344 86.863281 282.410156 86.789062 282.027344 86.789062 L 274.78125 86.789062 L 274.78125 73.867188 C 274.78125 73.484375 274.707031 73.117188 274.5625 72.765625 C 274.414062 72.414062 274.207031 72.101562 273.9375 71.832031 C 273.667969 71.5625 273.355469 71.355469 273.003906 71.210938 C 272.652344 71.0625 272.285156 70.988281 271.902344 70.992188 L 215.453125 70.992188 C 215.070312 70.988281 214.703125 71.0625 214.351562 71.210938 C 214 71.355469 213.6875 71.5625 213.417969 71.832031 C 213.148438 72.101562 212.941406 72.414062 212.792969 72.765625 C 212.648438 73.117188 212.574219 73.484375 212.574219 73.867188 L 212.574219 86.789062 L 205.328125 86.789062 C 204.945312 86.789062 204.578125 86.863281 204.226562 87.007812 C 203.875 87.152344 203.5625 87.363281 203.292969 87.632812 C 203.023438 87.902344 202.816406 88.210938 202.667969 88.566406 C 202.523438 88.917969 202.449219 89.285156 202.449219 89.664062 L 202.449219 111.898438 L 135.898438 134.914062 C 135.617188 135.011719 135.355469 135.148438 135.117188 135.328125 C 134.878906 135.507812 134.671875 135.71875 134.496094 135.960938 C 134.324219 136.203125 134.191406 136.46875 134.101562 136.753906 C 134.007812 137.035156 133.964844 137.328125 133.960938 137.628906 C 133.957031 142.085938 133.953125 146.640625 133.949219 151.261719 C 133.945312 154.519531 133.945312 157.816406 133.941406 161.125 L 92.894531 149.839844 C 92.679688 149.785156 92.464844 149.75 92.242188 149.742188 C 92.019531 149.734375 91.800781 149.75 91.585938 149.792969 C 91.367188 149.835938 91.160156 149.902344 90.957031 149.992188 C 90.753906 150.082031 90.566406 150.195312 90.390625 150.328125 C 90.214844 150.460938 90.054688 150.613281 89.914062 150.785156 C 89.773438 150.957031 89.652344 151.140625 89.554688 151.339844 C 89.457031 151.535156 89.382812 151.742188 89.332031 151.960938 C 89.28125 152.175781 89.253906 152.394531 89.253906 152.613281 C 89.214844 195.929688 89.179688 264.21875 89.175781 280.933594 L 72.777344 280.933594 C 72.394531 280.933594 72.027344 281.007812 71.675781 281.152344 C 71.324219 281.296875 71.011719 281.503906 70.742188 281.773438 C 70.472656 282.042969 70.265625 282.355469 70.121094 282.707031 C 69.972656 283.058594 69.898438 283.425781 69.898438 283.808594 L 69.898438 301.167969 C 69.898438 301.550781 69.972656 301.917969 70.117188 302.269531 C 70.265625 302.621094 70.472656 302.933594 70.742188 303.203125 C 71.011719 303.472656 71.324219 303.679688 71.675781 303.828125 C 72.027344 303.972656 72.394531 304.046875 72.777344 304.046875 L 302.265625 304.046875 C 302.644531 304.046875 303.011719 303.972656 303.367188 303.828125 C 303.71875 303.679688 304.03125 303.472656 304.300781 303.203125 C 304.570312 302.933594 304.777344 302.621094 304.921875 302.269531 C 305.070312 301.917969 305.140625 301.550781 305.140625 301.167969 L 305.140625 283.808594 C 305.140625 283.425781 305.066406 283.0625 304.921875 282.707031 C 304.773438 282.355469 304.566406 282.046875 304.296875 281.777344 C 304.027344 281.507812 303.71875 281.300781 303.363281 281.152344 C 303.011719 281.007812 302.644531 280.9375 302.265625 280.9375 Z M 264.585938 278.195312 C 264.203125 278.195312 263.839844 278.265625 263.484375 278.414062 C 263.132812 278.558594 262.820312 278.765625 262.550781 279.035156 C 262.28125 279.304688 262.074219 279.617188 261.929688 279.96875 C 261.78125 280.324219 261.707031 280.691406 261.707031 281.070312 L 261.707031 298.292969 L 236.015625 298.292969 L 236.015625 281.070312 C 236.011719 280.691406 235.933594 280.328125 235.785156 279.980469 C 235.636719 279.628906 235.429688 279.324219 235.160156 279.058594 C 234.890625 278.792969 234.582031 278.585938 234.230469 278.445312 C 233.882812 278.300781 233.515625 278.226562 233.140625 278.226562 C 232.761719 278.226562 232.394531 278.300781 232.046875 278.445312 C 231.695312 278.585938 231.386719 278.792969 231.117188 279.058594 C 230.847656 279.324219 230.640625 279.628906 230.492188 279.980469 C 230.34375 280.328125 230.265625 280.691406 230.261719 281.070312 L 230.261719 298.292969 L 221.074219 298.292969 L 221.074219 285.222656 C 221.070312 282.558594 221.492188 279.964844 222.335938 277.441406 C 223.183594 274.917969 224.410156 272.59375 226.019531 270.472656 C 226.105469 270.378906 226.183594 270.273438 226.257812 270.167969 C 227.402344 268.695312 228.695312 267.371094 230.144531 266.195312 C 231.589844 265.019531 233.152344 264.019531 234.824219 263.199219 C 236.5 262.378906 238.246094 261.757812 240.0625 261.339844 C 241.878906 260.917969 243.71875 260.707031 245.585938 260.707031 L 252.140625 260.707031 C 252.941406 260.707031 253.742188 260.746094 254.542969 260.828125 C 255.339844 260.90625 256.132812 261.023438 256.921875 261.183594 C 257.707031 261.339844 258.484375 261.535156 259.253906 261.769531 C 260.019531 262 260.773438 262.273438 261.515625 262.578125 C 262.257812 262.886719 262.980469 263.230469 263.6875 263.609375 C 264.398438 263.988281 265.085938 264.398438 265.75 264.847656 C 266.417969 265.292969 267.0625 265.769531 267.683594 266.277344 C 268.304688 266.789062 268.898438 267.328125 269.464844 267.894531 C 270.03125 268.460938 270.570312 269.054688 271.078125 269.675781 C 271.589844 270.296875 272.066406 270.941406 272.511719 271.605469 C 272.957031 272.273438 273.371094 272.960938 273.75 273.667969 C 274.128906 274.378906 274.472656 275.101562 274.777344 275.84375 C 275.085938 276.585938 275.355469 277.339844 275.589844 278.105469 C 275.824219 278.875 276.019531 279.652344 276.175781 280.4375 C 276.332031 281.226562 276.453125 282.019531 276.53125 282.816406 C 276.609375 283.617188 276.652344 284.417969 276.652344 285.21875 L 276.652344 298.289062 L 267.464844 298.289062 L 267.464844 281.070312 C 267.464844 280.6875 267.390625 280.320312 267.246094 279.96875 C 267.097656 279.613281 266.890625 279.304688 266.621094 279.035156 C 266.351562 278.765625 266.039062 278.554688 265.6875 278.410156 C 265.335938 278.265625 264.96875 278.191406 264.585938 278.191406 Z M 203.238281 278.195312 C 202.855469 278.195312 202.488281 278.265625 202.136719 278.414062 C 201.785156 278.558594 201.472656 278.765625 201.203125 279.035156 C 200.933594 279.304688 200.726562 279.617188 200.578125 279.96875 C 200.433594 280.324219 200.359375 280.691406 200.359375 281.070312 L 200.359375 298.292969 L 174.667969 298.292969 L 174.667969 281.070312 C 174.664062 280.691406 174.585938 280.328125 174.4375 279.980469 C 174.289062 279.628906 174.082031 279.324219 173.8125 279.058594 C 173.542969 278.792969 173.234375 278.585938 172.882812 278.445312 C 172.53125 278.300781 172.167969 278.226562 171.789062 278.226562 C 171.410156 278.226562 171.046875 278.300781 170.699219 278.445312 C 170.347656 278.585938 170.039062 278.792969 169.769531 279.058594 C 169.5 279.324219 169.289062 279.628906 169.140625 279.980469 C 168.992188 280.328125 168.917969 280.691406 168.914062 281.070312 L 168.914062 298.292969 L 159.722656 298.292969 L 159.722656 285.222656 C 159.722656 284.417969 159.765625 283.617188 159.84375 282.820312 C 159.921875 282.019531 160.042969 281.226562 160.199219 280.441406 C 160.355469 279.652344 160.550781 278.875 160.785156 278.109375 C 161.019531 277.339844 161.289062 276.585938 161.597656 275.84375 C 161.90625 275.101562 162.246094 274.378906 162.625 273.671875 C 163.003906 272.964844 163.417969 272.277344 163.863281 271.609375 C 164.308594 270.941406 164.785156 270.296875 165.296875 269.679688 C 165.804688 269.058594 166.34375 268.464844 166.910156 267.894531 C 167.480469 267.328125 168.074219 266.789062 168.691406 266.28125 C 169.3125 265.773438 169.957031 265.292969 170.625 264.847656 C 171.292969 264.402344 171.980469 263.988281 172.6875 263.609375 C 173.394531 263.230469 174.117188 262.890625 174.859375 262.582031 C 175.601562 262.273438 176.355469 262.003906 177.125 261.769531 C 177.890625 261.535156 178.667969 261.339844 179.457031 261.183594 C 180.242188 261.027344 181.035156 260.910156 181.835938 260.828125 C 182.632812 260.75 183.433594 260.710938 184.238281 260.707031 L 190.804688 260.707031 C 191.609375 260.710938 192.40625 260.75 193.207031 260.828125 C 194.003906 260.910156 194.796875 261.027344 195.585938 261.183594 C 196.371094 261.339844 197.148438 261.535156 197.917969 261.769531 C 198.683594 262.003906 199.441406 262.273438 200.179688 262.582031 C 200.921875 262.890625 201.648438 263.230469 202.355469 263.609375 C 203.0625 263.988281 203.75 264.402344 204.417969 264.847656 C 205.085938 265.292969 205.726562 265.773438 206.347656 266.28125 C 206.96875 266.789062 207.5625 267.328125 208.128906 267.894531 C 208.699219 268.464844 209.234375 269.058594 209.746094 269.679688 C 210.253906 270.296875 210.730469 270.941406 211.179688 271.609375 C 211.625 272.277344 212.035156 272.964844 212.414062 273.671875 C 212.792969 274.378906 213.136719 275.101562 213.445312 275.84375 C 213.75 276.585938 214.023438 277.339844 214.253906 278.109375 C 214.488281 278.875 214.683594 279.652344 214.84375 280.441406 C 215 281.226562 215.117188 282.019531 215.195312 282.820312 C 215.277344 283.617188 215.316406 284.417969 215.316406 285.222656 L 215.316406 298.292969 L 206.117188 298.292969 L 206.117188 281.070312 C 206.117188 280.6875 206.042969 280.320312 205.898438 279.96875 C 205.75 279.613281 205.542969 279.304688 205.273438 279.035156 C 205.003906 278.765625 204.691406 278.554688 204.339844 278.410156 C 203.988281 278.265625 203.621094 278.191406 203.238281 278.191406 Z M 141.902344 278.195312 C 141.519531 278.195312 141.152344 278.265625 140.800781 278.414062 C 140.449219 278.558594 140.136719 278.765625 139.867188 279.035156 C 139.597656 279.304688 139.390625 279.617188 139.242188 279.96875 C 139.097656 280.324219 139.023438 280.691406 139.023438 281.070312 L 139.023438 298.292969 L 113.320312 298.292969 L 113.320312 281.070312 C 113.3125 280.691406 113.238281 280.328125 113.089844 279.980469 C 112.941406 279.628906 112.730469 279.324219 112.464844 279.058594 C 112.195312 278.792969 111.882812 278.585938 111.535156 278.445312 C 111.183594 278.300781 110.820312 278.226562 110.441406 278.226562 C 110.0625 278.226562 109.699219 278.300781 109.347656 278.445312 C 109 278.585938 108.6875 278.792969 108.417969 279.058594 C 108.148438 279.324219 107.941406 279.628906 107.792969 279.980469 C 107.644531 280.328125 107.570312 280.691406 107.5625 281.070312 L 107.5625 298.292969 L 98.375 298.292969 L 98.375 285.222656 C 98.375 284.820312 98.386719 284.417969 98.40625 284.023438 C 98.410156 283.984375 98.410156 283.945312 98.410156 283.90625 C 98.453125 283.132812 98.53125 282.363281 98.648438 281.59375 C 98.765625 280.828125 98.914062 280.070312 99.101562 279.316406 C 99.289062 278.566406 99.511719 277.824219 99.769531 277.09375 C 100.027344 276.363281 100.320312 275.644531 100.644531 274.941406 C 100.972656 274.238281 101.328125 273.550781 101.71875 272.882812 C 102.109375 272.214844 102.53125 271.5625 102.984375 270.933594 C 103.4375 270.304688 103.917969 269.699219 104.425781 269.113281 C 104.9375 268.53125 105.472656 267.972656 106.035156 267.4375 C 106.597656 266.90625 107.183594 266.402344 107.796875 265.921875 C 108.40625 265.445312 109.039062 265 109.691406 264.582031 C 110.34375 264.164062 111.015625 263.777344 111.703125 263.421875 C 112.394531 263.070312 113.097656 262.746094 113.816406 262.460938 C 114.535156 262.171875 115.269531 261.921875 116.011719 261.703125 C 116.757812 261.484375 117.507812 261.300781 118.269531 261.15625 C 119.03125 261.007812 119.796875 260.898438 120.566406 260.824219 C 121.339844 260.75 122.113281 260.710938 122.886719 260.710938 L 129.457031 260.710938 C 130.257812 260.710938 131.058594 260.753906 131.859375 260.832031 C 132.65625 260.910156 133.449219 261.027344 134.238281 261.1875 C 135.023438 261.34375 135.800781 261.539062 136.570312 261.773438 C 137.335938 262.007812 138.089844 262.277344 138.832031 262.585938 C 139.574219 262.890625 140.296875 263.234375 141.007812 263.613281 C 141.714844 263.992188 142.402344 264.40625 143.066406 264.851562 C 143.734375 265.296875 144.378906 265.773438 145 266.285156 C 145.621094 266.792969 146.214844 267.332031 146.78125 267.898438 C 147.347656 268.464844 147.886719 269.058594 148.394531 269.679688 C 148.90625 270.300781 149.382812 270.945312 149.828125 271.613281 C 150.273438 272.277344 150.6875 272.964844 151.066406 273.671875 C 151.445312 274.382812 151.789062 275.105469 152.09375 275.847656 C 152.402344 276.589844 152.671875 277.34375 152.90625 278.109375 C 153.140625 278.878906 153.335938 279.65625 153.492188 280.441406 C 153.652344 281.230469 153.769531 282.023438 153.847656 282.820312 C 153.925781 283.621094 153.96875 284.421875 153.96875 285.222656 L 153.96875 298.296875 L 144.78125 298.296875 L 144.78125 281.070312 C 144.78125 280.6875 144.707031 280.320312 144.5625 279.96875 C 144.414062 279.613281 144.207031 279.304688 143.9375 279.035156 C 143.667969 278.765625 143.355469 278.554688 143.003906 278.410156 C 142.652344 278.265625 142.285156 278.191406 141.902344 278.191406 Z M 205.863281 199.878906 C 205.933594 199.867188 206.003906 199.847656 206.070312 199.832031 L 220.902344 196.339844 C 220.941406 214.117188 220.96875 237.5 220.992188 267.613281 C 219.914062 269.109375 218.980469 270.691406 218.195312 272.359375 C 217.3125 270.488281 216.25 268.730469 215.007812 267.074219 C 213.765625 265.421875 212.371094 263.914062 210.824219 262.546875 C 209.273438 261.175781 207.601562 259.980469 205.808594 258.953125 C 204.015625 257.925781 202.136719 257.089844 200.171875 256.445312 C 200.75 256.007812 201.304688 255.539062 201.835938 255.042969 C 202.367188 254.546875 202.871094 254.023438 203.347656 253.476562 C 203.824219 252.925781 204.269531 252.355469 204.6875 251.761719 C 205.101562 251.164062 205.488281 250.550781 205.839844 249.914062 C 206.191406 249.28125 206.511719 248.628906 206.796875 247.960938 C 207.082031 247.292969 207.332031 246.613281 207.546875 245.917969 C 207.761719 245.222656 207.9375 244.519531 208.078125 243.808594 C 208.21875 243.09375 208.324219 242.378906 208.390625 241.652344 C 208.457031 240.929688 208.484375 240.207031 208.476562 239.480469 C 208.46875 238.753906 208.421875 238.027344 208.335938 237.308594 C 208.25 236.585938 208.128906 235.871094 207.972656 235.160156 C 207.8125 234.453125 207.617188 233.753906 207.386719 233.066406 C 207.15625 232.375 206.890625 231.703125 206.585938 231.042969 C 206.285156 230.378906 205.949219 229.738281 205.582031 229.109375 C 205.214844 228.484375 204.816406 227.878906 204.382812 227.296875 C 203.953125 226.710938 203.492188 226.148438 203 225.613281 C 202.511719 225.078125 201.996094 224.566406 201.453125 224.085938 C 200.910156 223.601562 200.34375 223.148438 199.753906 222.722656 C 199.164062 222.300781 198.554688 221.90625 197.925781 221.546875 C 197.292969 221.1875 196.644531 220.859375 195.980469 220.566406 C 195.316406 220.273438 194.640625 220.015625 193.949219 219.792969 C 193.257812 219.570312 192.554688 219.382812 191.84375 219.234375 C 191.132812 219.082031 190.417969 218.96875 189.695312 218.894531 C 188.972656 218.820312 188.246094 218.78125 187.519531 218.78125 C 186.792969 218.78125 186.070312 218.820312 185.347656 218.894531 C 184.625 218.96875 183.910156 219.082031 183.199219 219.234375 C 182.488281 219.382812 181.785156 219.570312 181.09375 219.792969 C 180.402344 220.015625 179.726562 220.273438 179.058594 220.566406 C 178.394531 220.859375 177.746094 221.1875 177.117188 221.546875 C 176.488281 221.90625 175.875 222.300781 175.285156 222.722656 C 174.695312 223.148438 174.128906 223.601562 173.589844 224.085938 C 173.046875 224.566406 172.53125 225.078125 172.039062 225.613281 C 171.550781 226.148438 171.089844 226.710938 170.660156 227.296875 C 170.226562 227.878906 169.828125 228.484375 169.457031 229.109375 C 169.089844 229.738281 168.753906 230.378906 168.453125 231.042969 C 168.152344 231.703125 167.886719 232.375 167.65625 233.066406 C 167.421875 233.753906 167.226562 234.453125 167.070312 235.160156 C 166.910156 235.871094 166.789062 236.585938 166.707031 237.308594 C 166.621094 238.027344 166.574219 238.753906 166.566406 239.480469 C 166.554688 240.207031 166.585938 240.929688 166.652344 241.652344 C 166.71875 242.378906 166.820312 243.09375 166.960938 243.808594 C 167.105469 244.519531 167.28125 245.222656 167.496094 245.917969 C 167.710938 246.613281 167.960938 247.292969 168.246094 247.960938 C 168.53125 248.628906 168.847656 249.28125 169.199219 249.914062 C 169.554688 250.550781 169.9375 251.164062 170.355469 251.761719 C 170.773438 252.355469 171.21875 252.925781 171.695312 253.476562 C 172.171875 254.023438 172.675781 254.546875 173.203125 255.042969 C 173.734375 255.539062 174.289062 256.007812 174.867188 256.445312 C 172.90625 257.089844 171.027344 257.925781 169.234375 258.953125 C 167.4375 259.980469 165.769531 261.175781 164.21875 262.546875 C 162.667969 263.914062 161.273438 265.421875 160.03125 267.074219 C 158.789062 268.730469 157.730469 270.488281 156.847656 272.359375 C 155.964844 270.488281 154.902344 268.730469 153.660156 267.078125 C 152.417969 265.425781 151.023438 263.914062 149.472656 262.546875 C 147.925781 261.179688 146.253906 259.980469 144.460938 258.953125 C 142.667969 257.925781 140.789062 257.089844 138.824219 256.445312 C 139.601562 255.859375 140.332031 255.21875 141.019531 254.53125 C 141.707031 253.839844 142.34375 253.105469 142.929688 252.328125 C 143.511719 251.550781 144.042969 250.734375 144.511719 249.882812 C 144.984375 249.03125 145.394531 248.148438 145.742188 247.238281 C 146.089844 246.332031 146.375 245.402344 146.59375 244.453125 C 146.8125 243.503906 146.964844 242.542969 147.050781 241.574219 C 147.132812 240.605469 147.152344 239.632812 147.101562 238.660156 C 147.050781 237.6875 146.933594 236.722656 146.746094 235.769531 C 146.5625 234.8125 146.3125 233.875 145.996094 232.953125 C 145.679688 232.03125 145.300781 231.136719 144.859375 230.269531 C 144.421875 229.398438 143.921875 228.566406 143.363281 227.765625 C 142.808594 226.96875 142.199219 226.210938 141.535156 225.5 C 140.875 224.785156 140.164062 224.121094 139.410156 223.507812 C 138.652344 222.890625 137.859375 222.332031 137.027344 221.828125 C 136.195312 221.324219 135.328125 220.878906 134.433594 220.496094 C 133.539062 220.113281 132.621094 219.792969 131.683594 219.539062 L 131.683594 217.332031 Z M 172.320312 239.753906 C 172.320312 238.753906 172.417969 237.765625 172.613281 236.789062 C 172.804688 235.808594 173.09375 234.859375 173.476562 233.9375 C 173.859375 233.015625 174.328125 232.136719 174.882812 231.308594 C 175.4375 230.476562 176.066406 229.710938 176.773438 229.003906 C 177.476562 228.296875 178.246094 227.667969 179.074219 227.113281 C 179.90625 226.558594 180.78125 226.089844 181.703125 225.707031 C 182.625 225.328125 183.574219 225.039062 184.554688 224.84375 C 185.535156 224.648438 186.523438 224.550781 187.519531 224.550781 C 188.519531 224.550781 189.507812 224.648438 190.488281 224.84375 C 191.464844 225.039062 192.414062 225.328125 193.339844 225.707031 C 194.261719 226.089844 195.136719 226.558594 195.964844 227.113281 C 196.796875 227.667969 197.5625 228.296875 198.269531 229.003906 C 198.976562 229.710938 199.605469 230.476562 200.160156 231.308594 C 200.714844 232.136719 201.183594 233.011719 201.566406 233.9375 C 201.945312 234.859375 202.234375 235.808594 202.429688 236.789062 C 202.625 237.765625 202.722656 238.753906 202.722656 239.753906 C 202.722656 240.75 202.625 241.738281 202.429688 242.71875 C 202.234375 243.699219 201.945312 244.648438 201.566406 245.570312 C 201.183594 246.492188 200.714844 247.367188 200.160156 248.199219 C 199.605469 249.027344 198.976562 249.796875 198.269531 250.503906 C 197.5625 251.207031 196.796875 251.839844 195.964844 252.394531 C 195.136719 252.949219 194.261719 253.414062 193.339844 253.796875 C 192.414062 254.179688 191.464844 254.46875 190.488281 254.664062 C 189.507812 254.855469 188.519531 254.953125 187.519531 254.953125 C 186.523438 254.953125 185.535156 254.855469 184.554688 254.660156 C 183.578125 254.464844 182.628906 254.175781 181.707031 253.792969 C 180.785156 253.410156 179.910156 252.941406 179.078125 252.386719 C 178.25 251.832031 177.480469 251.203125 176.777344 250.496094 C 176.070312 249.792969 175.441406 249.023438 174.886719 248.195312 C 174.332031 247.363281 173.863281 246.488281 173.480469 245.566406 C 173.097656 244.644531 172.808594 243.695312 172.613281 242.71875 C 172.417969 241.738281 172.320312 240.75 172.320312 239.753906 Z M 126.171875 224.550781 C 127.171875 224.550781 128.160156 224.648438 129.136719 224.84375 C 130.117188 225.039062 131.066406 225.328125 131.988281 225.707031 C 132.910156 226.089844 133.789062 226.558594 134.617188 227.113281 C 135.449219 227.667969 136.214844 228.296875 136.921875 229.003906 C 137.625 229.710938 138.257812 230.476562 138.8125 231.308594 C 139.367188 232.136719 139.835938 233.015625 140.214844 233.9375 C 140.597656 234.859375 140.886719 235.808594 141.082031 236.789062 C 141.277344 237.765625 141.375 238.753906 141.375 239.753906 C 141.375 240.75 141.277344 241.738281 141.082031 242.71875 C 140.886719 243.699219 140.597656 244.648438 140.214844 245.570312 C 139.835938 246.492188 139.367188 247.367188 138.8125 248.199219 C 138.257812 249.027344 137.625 249.796875 136.921875 250.503906 C 136.214844 251.207031 135.449219 251.839844 134.617188 252.394531 C 133.789062 252.949219 132.910156 253.414062 131.988281 253.796875 C 131.066406 254.179688 130.117188 254.46875 129.136719 254.664062 C 128.160156 254.855469 127.171875 254.953125 126.171875 254.953125 C 125.175781 254.953125 124.183594 254.855469 123.207031 254.664062 C 122.226562 254.46875 121.277344 254.179688 120.355469 253.796875 C 119.433594 253.414062 118.554688 252.949219 117.726562 252.394531 C 116.898438 251.839844 116.128906 251.207031 115.421875 250.503906 C 114.71875 249.796875 114.085938 249.027344 113.53125 248.199219 C 112.976562 247.367188 112.507812 246.492188 112.128906 245.570312 C 111.746094 244.648438 111.457031 243.699219 111.261719 242.71875 C 111.066406 241.738281 110.96875 240.75 110.96875 239.753906 C 110.972656 238.753906 111.070312 237.765625 111.265625 236.789062 C 111.460938 235.808594 111.75 234.859375 112.132812 233.9375 C 112.515625 233.015625 112.984375 232.140625 113.539062 231.3125 C 114.09375 230.480469 114.722656 229.714844 115.429688 229.007812 C 116.132812 228.304688 116.902344 227.671875 117.730469 227.117188 C 118.558594 226.5625 119.4375 226.097656 120.355469 225.714844 C 121.277344 225.332031 122.230469 225.042969 123.207031 224.847656 C 124.1875 224.652344 125.175781 224.554688 126.171875 224.550781 Z M 248.871094 254.957031 C 247.871094 254.957031 246.882812 254.859375 245.902344 254.664062 C 244.925781 254.46875 243.972656 254.179688 243.050781 253.800781 C 242.128906 253.417969 241.253906 252.949219 240.425781 252.394531 C 239.59375 251.839844 238.828125 251.210938 238.121094 250.503906 C 237.414062 249.796875 236.785156 249.03125 236.230469 248.199219 C 235.675781 247.371094 235.207031 246.496094 234.824219 245.574219 C 234.441406 244.648438 234.15625 243.699219 233.960938 242.722656 C 233.765625 241.742188 233.667969 240.753906 233.667969 239.753906 C 233.667969 238.757812 233.765625 237.769531 233.960938 236.789062 C 234.15625 235.808594 234.441406 234.859375 234.824219 233.9375 C 235.207031 233.015625 235.675781 232.140625 236.230469 231.308594 C 236.785156 230.480469 237.414062 229.710938 238.121094 229.007812 C 238.828125 228.300781 239.59375 227.671875 240.425781 227.117188 C 241.253906 226.5625 242.128906 226.09375 243.050781 225.710938 C 243.972656 225.328125 244.925781 225.039062 245.902344 224.847656 C 246.882812 224.652344 247.871094 224.554688 248.871094 224.554688 C 249.867188 224.554688 250.855469 224.652344 251.835938 224.847656 C 252.8125 225.039062 253.765625 225.328125 254.6875 225.710938 C 255.609375 226.09375 256.484375 226.5625 257.316406 227.117188 C 258.144531 227.671875 258.914062 228.300781 259.617188 229.007812 C 260.324219 229.710938 260.953125 230.480469 261.507812 231.308594 C 262.0625 232.140625 262.53125 233.015625 262.914062 233.9375 C 263.296875 234.859375 263.585938 235.808594 263.777344 236.789062 C 263.972656 237.769531 264.070312 238.757812 264.070312 239.753906 C 264.070312 240.753906 263.972656 241.742188 263.777344 242.71875 C 263.582031 243.699219 263.292969 244.648438 262.910156 245.570312 C 262.527344 246.492188 262.058594 247.367188 261.503906 248.195312 C 260.949219 249.023438 260.320312 249.792969 259.613281 250.496094 C 258.90625 251.203125 258.140625 251.832031 257.308594 252.386719 C 256.480469 252.941406 255.605469 253.410156 254.683594 253.792969 C 253.761719 254.175781 252.8125 254.464844 251.832031 254.660156 C 250.855469 254.855469 249.867188 254.953125 248.871094 254.953125 Z M 218.332031 76.746094 L 269.023438 76.746094 L 269.023438 86.789062 L 218.332031 86.789062 Z M 279.148438 92.546875 L 279.148438 271.589844 C 278.25 269.808594 277.183594 268.136719 275.953125 266.570312 C 274.722656 265 273.347656 263.566406 271.835938 262.269531 C 270.324219 260.96875 268.699219 259.832031 266.964844 258.851562 C 265.226562 257.871094 263.410156 257.070312 261.515625 256.449219 C 262.097656 256.011719 262.652344 255.542969 263.183594 255.046875 C 263.714844 254.550781 264.214844 254.027344 264.691406 253.480469 C 265.167969 252.933594 265.617188 252.359375 266.03125 251.765625 C 266.449219 251.171875 266.835938 250.554688 267.1875 249.921875 C 267.539062 249.285156 267.859375 248.632812 268.144531 247.964844 C 268.429688 247.296875 268.679688 246.617188 268.894531 245.921875 C 269.109375 245.226562 269.285156 244.523438 269.425781 243.8125 C 269.570312 243.097656 269.671875 242.382812 269.738281 241.65625 C 269.804688 240.933594 269.835938 240.210938 269.824219 239.484375 C 269.816406 238.757812 269.769531 238.03125 269.6875 237.3125 C 269.601562 236.589844 269.480469 235.875 269.320312 235.164062 C 269.164062 234.457031 268.96875 233.757812 268.738281 233.070312 C 268.507812 232.378906 268.238281 231.707031 267.9375 231.042969 C 267.636719 230.382812 267.300781 229.738281 266.933594 229.113281 C 266.566406 228.488281 266.167969 227.882812 265.734375 227.296875 C 265.304688 226.710938 264.84375 226.152344 264.355469 225.617188 C 263.863281 225.078125 263.347656 224.570312 262.804688 224.085938 C 262.261719 223.601562 261.695312 223.148438 261.105469 222.726562 C 260.515625 222.300781 259.90625 221.90625 259.277344 221.546875 C 258.644531 221.1875 258 220.859375 257.332031 220.566406 C 256.667969 220.273438 255.992188 220.015625 255.300781 219.792969 C 254.609375 219.570312 253.90625 219.382812 253.195312 219.234375 C 252.484375 219.082031 251.769531 218.96875 251.046875 218.894531 C 250.324219 218.820312 249.597656 218.78125 248.871094 218.78125 C 248.144531 218.78125 247.421875 218.820312 246.699219 218.894531 C 245.976562 218.96875 245.257812 219.082031 244.550781 219.230469 C 243.839844 219.382812 243.136719 219.566406 242.445312 219.789062 C 241.753906 220.011719 241.074219 220.269531 240.410156 220.5625 C 239.746094 220.855469 239.097656 221.183594 238.46875 221.542969 C 237.835938 221.90625 237.226562 222.296875 236.636719 222.722656 C 236.046875 223.144531 235.480469 223.597656 234.9375 224.082031 C 234.394531 224.566406 233.878906 225.074219 233.390625 225.609375 C 232.898438 226.148438 232.441406 226.707031 232.007812 227.292969 C 231.578125 227.878906 231.175781 228.484375 230.808594 229.109375 C 230.441406 229.734375 230.105469 230.378906 229.804688 231.039062 C 229.5 231.699219 229.234375 232.375 229.003906 233.0625 C 228.773438 233.753906 228.578125 234.449219 228.417969 235.160156 C 228.261719 235.867188 228.136719 236.585938 228.054688 237.304688 C 227.96875 238.027344 227.921875 238.75 227.914062 239.476562 C 227.90625 240.203125 227.933594 240.929688 228 241.652344 C 228.066406 242.375 228.171875 243.09375 228.3125 243.804688 C 228.453125 244.519531 228.628906 245.222656 228.84375 245.917969 C 229.058594 246.609375 229.308594 247.292969 229.59375 247.960938 C 229.878906 248.628906 230.195312 249.28125 230.550781 249.914062 C 230.902344 250.550781 231.285156 251.164062 231.703125 251.761719 C 232.121094 252.355469 232.566406 252.925781 233.042969 253.476562 C 233.519531 254.023438 234.023438 254.546875 234.554688 255.042969 C 235.082031 255.539062 235.636719 256.007812 236.21875 256.445312 C 232.75 257.578125 229.589844 259.285156 226.742188 261.5625 C 226.71875 232.3125 226.6875 209.734375 226.652344 192.703125 C 226.652344 192.488281 226.625 192.273438 226.578125 192.0625 C 226.527344 191.851562 226.457031 191.648438 226.363281 191.453125 C 226.265625 191.257812 226.152344 191.078125 226.015625 190.90625 C 225.878906 190.738281 225.726562 190.585938 225.558594 190.453125 C 225.386719 190.320312 225.203125 190.203125 225.007812 190.113281 C 224.8125 190.019531 224.609375 189.949219 224.398438 189.902344 C 224.1875 189.855469 223.972656 189.832031 223.757812 189.832031 C 223.539062 189.835938 223.324219 189.859375 223.113281 189.910156 L 208.207031 193.417969 L 208.207031 92.542969 Z M 139.703125 151.265625 C 139.707031 147.351562 139.710938 143.484375 139.714844 139.683594 L 202.449219 117.988281 L 202.449219 194.769531 L 163.496094 203.933594 L 163.496094 171.441406 C 163.496094 171.125 163.445312 170.820312 163.347656 170.519531 C 163.246094 170.222656 163.101562 169.945312 162.910156 169.695312 C 162.71875 169.445312 162.492188 169.230469 162.230469 169.054688 C 161.96875 168.878906 161.6875 168.75 161.382812 168.664062 L 139.691406 162.703125 C 139.699219 158.867188 139.699219 155.042969 139.703125 151.265625 Z M 135.945312 167.640625 C 135.960938 167.648438 135.976562 167.648438 135.988281 167.652344 L 157.742188 173.632812 L 157.742188 205.285156 L 128.148438 212.25 C 127.832031 212.324219 127.539062 212.449219 127.261719 212.621094 C 126.988281 212.796875 126.753906 213.011719 126.550781 213.265625 C 126.347656 213.519531 126.195312 213.800781 126.089844 214.105469 C 125.980469 214.410156 125.929688 214.726562 125.929688 215.050781 L 125.929688 218.804688 C 124.84375 218.816406 123.765625 218.910156 122.695312 219.089844 C 121.625 219.269531 120.574219 219.53125 119.542969 219.875 C 118.515625 220.21875 117.515625 220.636719 116.554688 221.136719 C 115.589844 221.632812 114.667969 222.203125 113.792969 222.84375 C 112.917969 223.484375 112.09375 224.191406 111.328125 224.957031 C 110.5625 225.726562 109.859375 226.550781 109.222656 227.429688 C 108.582031 228.304688 108.015625 229.226562 107.523438 230.195312 C 107.027344 231.160156 106.609375 232.160156 106.269531 233.191406 C 105.929688 234.21875 105.671875 235.269531 105.496094 236.34375 C 105.320312 237.414062 105.226562 238.492188 105.21875 239.578125 C 105.207031 240.664062 105.285156 241.742188 105.441406 242.816406 C 105.601562 243.890625 105.84375 244.945312 106.167969 245.980469 C 106.488281 247.015625 106.890625 248.023438 107.371094 248.996094 C 107.851562 249.96875 108.402344 250.898438 109.027344 251.789062 C 109.648438 252.675781 110.339844 253.511719 111.09375 254.292969 C 111.847656 255.074219 112.65625 255.789062 113.523438 256.445312 C 111.445312 257.125 109.46875 258.019531 107.585938 259.128906 C 105.703125 260.234375 103.957031 261.53125 102.355469 263.011719 C 100.75 264.496094 99.324219 266.132812 98.070312 267.921875 C 96.820312 269.710938 95.773438 271.617188 94.933594 273.632812 C 94.941406 250.246094 94.972656 194.867188 95.007812 156.390625 Z M 75.65625 286.6875 L 92.621094 286.6875 L 92.621094 298.292969 L 75.65625 298.292969 Z M 299.386719 298.292969 L 282.40625 298.292969 L 282.40625 286.6875 L 299.386719 286.6875 Z M 139.203125 183.601562 L 113.480469 183.601562 L 113.480469 177.847656 L 139.203125 177.847656 Z M 139.203125 198.167969 L 113.480469 198.167969 L 113.480469 192.410156 L 139.203125 192.410156 Z M 256.539062 108.832031 L 230.816406 108.832031 L 230.816406 103.078125 L 256.539062 103.078125 Z M 256.539062 131.308594 L 230.816406 131.308594 L 230.816406 125.550781 L 256.539062 125.550781 Z M 256.539062 153.796875 L 230.816406 153.796875 L 230.816406 148.042969 L 256.539062 148.042969 Z M 256.539062 176.273438 L 230.816406 176.273438 L 230.816406 170.519531 L 256.539062 170.519531 Z M 256.539062 176.273438 " fill-opacity="1" fill-rule="nonzero"/></g></svg>