<svg xmlns="http://www.w3.org/2000/svg" xmlns:xlink="http://www.w3.org/1999/xlink" width="500" zoomAndPan="magnify" viewBox="0 0 375 374.999991" height="500" preserveAspectRatio="xMidYMid meet" version="1.0"><defs><clipPath id="da024ad3ad"><path d="M 187.5 0 C 83.945312 0 0 83.945312 0 187.5 C 0 291.054688 83.945312 375 187.5 375 C 291.054688 375 375 291.054688 375 187.5 C 375 83.945312 291.054688 0 187.5 0 Z M 187.5 0 " clip-rule="nonzero"/></clipPath><clipPath id="7e16eef9c1"><path d="M 0 0 L 375 0 L 375 375 L 0 375 Z M 0 0 " clip-rule="nonzero"/></clipPath><clipPath id="1bb9a35b66"><path d="M 187.5 0 C 83.945312 0 0 83.945312 0 187.5 C 0 291.054688 83.945312 375 187.5 375 C 291.054688 375 375 291.054688 375 187.5 C 375 83.945312 291.054688 0 187.5 0 Z M 187.5 0 " clip-rule="nonzero"/></clipPath><clipPath id="fb39cb9202"><rect x="0" width="375" y="0" height="375"/></clipPath><clipPath id="22ae1150aa"><path d="M 78 70.039062 L 289 70.039062 L 289 212 L 78 212 Z M 78 70.039062 " clip-rule="nonzero"/></clipPath><clipPath id="29b7466b4d"><path d="M 70.039062 113 L 304.789062 113 L 304.789062 304.789062 L 70.039062 304.789062 Z M 70.039062 113 " clip-rule="nonzero"/></clipPath></defs><g clip-path="url(#da024ad3ad)"><g transform="matrix(1, 0, 0, 1, 0, 0)"><g clip-path="url(#fb39cb9202)"><g clip-path="url(#7e16eef9c1)"><g clip-path="url(#1bb9a35b66)"><rect x="-82.5" width="540" fill="#e6ac41" height="539.999987" y="-82.499998" fill-opacity="1"/></g></g></g></g></g><g clip-path="url(#22ae1150aa)"><path fill="#ffffff" d="M 87.191406 210.316406 C 129.023438 201.824219 178.339844 178.40625 219.097656 147.667969 C 243.601562 129.183594 262.914062 110.464844 274.96875 97.804688 L 283.050781 104.113281 C 284.179688 105 285.84375 104.285156 285.984375 102.855469 L 288.984375 72.03125 C 289.113281 70.707031 287.816406 69.695312 286.558594 70.140625 L 257.386719 80.550781 C 256.035156 81.035156 255.746094 82.816406 256.875 83.699219 L 264.726562 89.824219 C 252.972656 102.089844 234.570312 119.820312 211.316406 137.351562 C 172.023438 166.984375 124.65625 189.53125 84.617188 197.65625 L 79.980469 198.597656 C 79.046875 198.785156 78.4375 199.699219 78.628906 200.632812 L 80.511719 209.914062 C 80.703125 210.84375 81.617188 211.453125 82.550781 211.261719 L 87.191406 210.324219 Z M 87.191406 210.316406 " fill-opacity="1" fill-rule="nonzero"/></g><g clip-path="url(#29b7466b4d)"><path fill="#ffffff" d="M 124.359375 292.039062 L 142.378906 292.039062 C 142.378906 292.039062 142.378906 211.914062 142.378906 211.914062 C 142.378906 211.207031 142.8125 210.574219 143.46875 210.3125 C 156.84375 204.953125 169.035156 199.40625 177.933594 195.035156 C 178.160156 194.925781 178.417969 195.097656 178.417969 195.351562 L 178.417969 292.035156 C 178.417969 292.035156 196.4375 292.035156 196.4375 292.035156 L 196.4375 186.125 C 196.4375 185.511719 196.761719 184.949219 197.296875 184.640625 C 209.078125 177.859375 220.707031 170.433594 231.9375 162.53125 C 232.164062 162.371094 232.476562 162.53125 232.476562 162.8125 L 232.476562 292.027344 C 232.476562 292.027344 250.496094 292.027344 250.496094 292.027344 L 250.496094 149.550781 C 250.496094 149.03125 250.726562 148.550781 251.132812 148.226562 C 263.640625 138.296875 275.515625 125.433594 285.941406 113.871094 C 286.15625 113.640625 286.535156 113.792969 286.535156 114.113281 L 286.535156 292.035156 C 286.535156 292.035156 303.238281 292.035156 303.238281 292.035156 C 304.191406 292.035156 304.964844 292.808594 304.964844 293.757812 L 304.964844 303.226562 C 304.964844 304.179688 304.191406 304.953125 303.238281 304.953125 L 71.757812 304.953125 C 70.804688 304.953125 70.03125 304.179688 70.03125 303.226562 L 70.03125 293.757812 C 70.03125 292.808594 70.804688 292.035156 71.757812 292.035156 L 88.324219 292.035156 C 88.324219 292.035156 88.324219 228.917969 88.324219 228.917969 C 88.324219 228.09375 88.890625 227.402344 89.699219 227.242188 C 100.410156 225.160156 112.214844 221.699219 123.90625 217.636719 C 124.128906 217.558594 124.359375 217.722656 124.359375 217.964844 Z M 124.359375 292.039062 " fill-opacity="1" fill-rule="nonzero"/></g></svg>