<svg xmlns="http://www.w3.org/2000/svg" xmlns:xlink="http://www.w3.org/1999/xlink" width="500" zoomAndPan="magnify" viewBox="0 0 375 374.999991" height="500" preserveAspectRatio="xMidYMid meet" version="1.0"><path fill="#0b1972" d="M 225.582031 305.535156 L 119.878906 305.535156 C 117.03125 305.535156 114.503906 303.703125 113.617188 301 C 112.730469 298.296875 113.679688 295.328125 115.972656 293.636719 C 117.082031 292.816406 118.339844 292.007812 119.703125 291.222656 C 121.589844 290.132812 122.242188 287.695312 121.144531 285.800781 L 111.515625 269.117188 C 110.988281 268.203125 110.128906 267.550781 109.097656 267.273438 C 108.066406 267.003906 106.996094 267.136719 106.085938 267.660156 C 103.355469 269.234375 95.0625 274.015625 88.15625 270.027344 C 81.238281 266.035156 81.238281 256.460938 81.238281 253.3125 C 81.238281 251.464844 79.925781 249.828125 78.113281 249.429688 C 75.097656 248.761719 72.949219 246.085938 72.949219 242.996094 L 72.949219 211.472656 C 72.949219 207.835938 75.902344 204.882812 79.542969 204.882812 C 83.183594 204.882812 86.132812 207.835938 86.132812 211.472656 L 86.132812 238.648438 C 91.136719 241.703125 94.417969 247.238281 94.417969 253.316406 C 94.417969 256 94.703125 257.511719 94.925781 258.292969 C 95.714844 258.097656 97.164062 257.59375 99.492188 256.246094 C 103.449219 253.964844 108.078125 253.359375 112.507812 254.539062 C 116.941406 255.726562 120.640625 258.5625 122.929688 262.523438 L 132.558594 279.207031 C 134.949219 283.34375 135.414062 288.074219 134.230469 292.355469 L 225.582031 292.355469 C 229.222656 292.355469 232.175781 295.304688 232.175781 298.945312 C 232.175781 302.585938 229.222656 305.535156 225.582031 305.535156 Z M 295.445312 232.195312 C 291.804688 232.195312 288.855469 229.246094 288.855469 225.605469 L 288.855469 165.207031 C 244.90625 163.371094 209.710938 127.039062 209.710938 82.648438 L 129.1875 82.648438 C 125.546875 82.648438 122.597656 79.699219 122.597656 76.058594 C 122.597656 72.417969 125.546875 69.464844 129.1875 69.464844 L 216.59375 69.464844 C 218.441406 69.464844 220.203125 70.242188 221.453125 71.601562 C 222.699219 72.960938 223.320312 74.785156 223.164062 76.625 C 222.988281 78.65625 222.898438 80.683594 222.898438 82.648438 C 222.898438 120.945312 254.054688 152.101562 292.351562 152.101562 C 293.300781 152.101562 294.242188 152.074219 295.183594 152.035156 C 296.964844 151.988281 298.722656 152.625 300.015625 153.867188 C 301.308594 155.109375 302.042969 156.828125 302.042969 158.621094 L 302.042969 225.601562 C 302.039062 229.246094 299.089844 232.195312 295.445312 232.195312 Z M 295.445312 232.195312 " fill-opacity="1" fill-rule="evenodd"/><path fill="#0b1972" d="M 67.429688 332.753906 C 52.347656 332.753906 40.078125 320.558594 40.078125 305.570312 C 40.078125 290.585938 52.347656 278.390625 67.429688 278.390625 C 82.515625 278.390625 94.785156 290.585938 94.785156 305.570312 C 94.789062 320.558594 82.515625 332.753906 67.429688 332.753906 Z M 67.429688 291.574219 C 59.617188 291.574219 53.257812 297.851562 53.257812 305.570312 C 53.257812 313.289062 59.617188 319.570312 67.429688 319.570312 C 75.246094 319.570312 81.601562 313.289062 81.601562 305.570312 C 81.601562 297.851562 75.246094 291.574219 67.429688 291.574219 Z M 67.429688 291.574219 " fill-opacity="1" fill-rule="evenodd"/><path fill="#0b1972" d="M 77.261719 374.988281 L 57.601562 374.988281 C 48.140625 374.988281 40.441406 367.289062 40.441406 357.832031 C 40.441406 355.148438 40.15625 353.640625 39.933594 352.855469 C 39.136719 353.050781 37.6875 353.558594 35.367188 354.902344 C 32.765625 356.398438 29.808594 357.195312 26.8125 357.195312 C 20.6875 357.195312 14.984375 353.914062 11.929688 348.625 L 2.300781 331.941406 C 0.0117188 327.980469 -0.59375 323.355469 0.589844 318.921875 C 1.777344 314.492188 4.617188 310.789062 8.582031 308.5 C 10.910156 307.15625 12.066406 306.152344 12.621094 305.574219 C 12.066406 304.992188 10.910156 303.988281 8.582031 302.644531 C 0.390625 297.910156 -2.425781 287.398438 2.300781 279.203125 L 11.929688 262.519531 C 14.984375 257.234375 20.691406 253.949219 26.8125 253.949219 C 29.808594 253.949219 32.769531 254.742188 35.371094 256.242188 C 37.695312 257.582031 39.144531 258.09375 39.929688 258.289062 C 40.15625 257.507812 40.4375 255.996094 40.4375 253.3125 C 40.4375 243.851562 48.136719 236.15625 57.597656 236.15625 L 77.261719 236.152344 C 86.722656 236.152344 94.421875 243.851562 94.421875 253.308594 C 94.421875 255.996094 94.707031 257.503906 94.933594 258.285156 C 95.726562 258.089844 97.175781 257.582031 99.496094 256.238281 C 102.09375 254.742188 105.050781 253.949219 108.050781 253.949219 C 114.175781 253.949219 119.878906 257.230469 122.929688 262.519531 L 132.558594 279.203125 C 137.289062 287.394531 134.472656 297.910156 126.285156 302.640625 C 123.953125 303.988281 122.792969 304.992188 122.238281 305.574219 C 122.792969 306.15625 123.953125 307.15625 126.28125 308.5 C 130.242188 310.789062 133.078125 314.488281 134.265625 318.921875 C 135.453125 323.351562 134.847656 327.980469 132.558594 331.945312 L 122.929688 348.621094 C 119.875 353.910156 114.171875 357.199219 108.050781 357.199219 C 105.050781 357.199219 102.089844 356.402344 99.488281 354.902344 C 97.164062 353.558594 95.714844 353.054688 94.929688 352.859375 C 94.703125 353.636719 94.421875 355.148438 94.421875 357.832031 C 94.421875 367.289062 86.722656 374.988281 77.261719 374.988281 Z M 40.664062 339.558594 C 45.503906 339.558594 53.628906 341.933594 53.628906 357.832031 C 53.628906 360.023438 55.410156 361.804688 57.601562 361.804688 L 77.261719 361.804688 C 79.453125 361.804688 81.242188 360.023438 81.242188 357.832031 C 81.242188 341.933594 89.363281 339.558594 94.203125 339.558594 C 97.671875 339.558594 101.449219 340.804688 106.085938 343.484375 C 107.941406 344.554688 110.464844 343.851562 111.519531 342.027344 L 121.148438 325.347656 C 121.675781 324.433594 121.8125 323.363281 121.539062 322.335938 C 121.261719 321.304688 120.609375 320.449219 119.695312 319.921875 C 116.976562 318.351562 108.703125 313.578125 108.699219 305.578125 C 108.699219 297.578125 116.972656 292.796875 119.691406 291.234375 C 121.589844 290.136719 122.242188 287.699219 121.148438 285.800781 L 111.515625 269.117188 C 110.46875 267.300781 107.929688 266.597656 106.089844 267.664062 C 101.449219 270.34375 97.671875 271.589844 94.203125 271.589844 C 89.648438 271.589844 85.777344 269.273438 83.589844 265.234375 C 82.007812 262.308594 81.238281 258.414062 81.238281 253.316406 C 81.238281 251.125 79.457031 249.34375 77.265625 249.34375 L 57.597656 249.34375 C 55.40625 249.34375 53.625 251.125 53.625 253.316406 C 53.625 269.214844 45.503906 271.585938 40.664062 271.585938 C 37.195312 271.585938 33.417969 270.34375 28.777344 267.660156 C 26.929688 266.597656 24.394531 267.300781 23.34375 269.121094 L 13.714844 285.800781 C 12.621094 287.699219 13.273438 290.136719 15.171875 291.230469 C 17.886719 292.800781 26.164062 297.578125 26.164062 305.578125 C 26.164062 313.574219 17.890625 318.355469 15.171875 319.921875 C 14.257812 320.449219 13.605469 321.304688 13.328125 322.335938 C 13.050781 323.363281 13.191406 324.433594 13.714844 325.347656 L 23.347656 342.03125 C 24.394531 343.847656 26.917969 344.546875 28.773438 343.484375 C 33.417969 340.804688 37.195312 339.558594 40.664062 339.558594 Z M 40.664062 339.558594 " fill-opacity="1" fill-rule="evenodd"/><path fill="#0b1972" d="M 292.347656 165.28125 C 246.78125 165.28125 209.710938 128.210938 209.710938 82.648438 C 209.710938 37.082031 246.78125 0.0117188 292.347656 0.0117188 C 337.914062 0.0117188 374.980469 37.082031 374.980469 82.648438 C 374.980469 128.214844 337.910156 165.28125 292.347656 165.28125 Z M 292.347656 13.195312 C 254.050781 13.195312 222.894531 44.347656 222.894531 82.648438 C 222.894531 120.945312 254.050781 152.097656 292.347656 152.097656 C 330.644531 152.097656 361.796875 120.945312 361.796875 82.648438 C 361.796875 44.355469 330.644531 13.195312 292.347656 13.195312 Z M 292.347656 13.195312 " fill-opacity="1" fill-rule="evenodd"/><path fill="#0b1972" d="M 363.417969 62.15625 L 221.273438 62.15625 C 217.632812 62.15625 214.683594 59.207031 214.683594 55.566406 C 214.683594 51.925781 217.632812 48.976562 221.273438 48.976562 L 363.417969 48.976562 C 367.058594 48.976562 370.007812 51.925781 370.007812 55.566406 C 370.007812 59.207031 367.058594 62.15625 363.417969 62.15625 Z M 363.417969 62.15625 " fill-opacity="1" fill-rule="evenodd"/><path fill="#0b1972" d="M 363.417969 116.324219 L 221.273438 116.324219 C 217.632812 116.324219 214.683594 113.371094 214.683594 109.730469 C 214.683594 106.09375 217.632812 103.140625 221.273438 103.140625 L 363.417969 103.140625 C 367.058594 103.140625 370.007812 106.09375 370.007812 109.730469 C 370.007812 113.371094 367.058594 116.324219 363.417969 116.324219 Z M 363.417969 116.324219 " fill-opacity="1" fill-rule="evenodd"/><path fill="#0b1972" d="M 292.347656 165.28125 C 267.839844 165.28125 254.613281 122.707031 254.613281 82.648438 C 254.613281 42.585938 267.839844 0.0117188 292.347656 0.0117188 C 316.855469 0.0117188 330.082031 42.589844 330.082031 82.648438 C 330.082031 122.710938 316.859375 165.28125 292.347656 165.28125 Z M 292.347656 13.195312 C 282.097656 13.195312 267.796875 39.617188 267.796875 82.648438 C 267.796875 125.675781 282.097656 152.097656 292.347656 152.097656 C 302.597656 152.097656 316.898438 125.675781 316.898438 82.648438 C 316.898438 39.617188 302.597656 13.195312 292.347656 13.195312 Z M 292.347656 13.195312 " fill-opacity="1" fill-rule="evenodd"/><path fill="#0b1972" d="M 88.777344 194.355469 L 52 194.355469 C 44.734375 194.355469 38.816406 188.441406 38.816406 181.171875 C 38.816406 178.03125 38.835938 175.363281 38.855469 173.085938 C 38.882812 169.027344 38.914062 165.441406 38.734375 163.828125 C 38.421875 163.65625 38.046875 163.457031 37.714844 163.28125 C 35.203125 161.953125 31 159.726562 24.941406 154.601562 C 9.09375 141.183594 0.0078125 121.589844 0.0078125 100.84375 C 0.0078125 62.035156 31.582031 30.457031 70.390625 30.457031 C 109.199219 30.457031 140.773438 62.03125 140.773438 100.839844 C 140.773438 121.585938 131.6875 141.179688 115.84375 154.597656 C 109.785156 159.722656 105.582031 161.949219 103.070312 163.277344 C 102.738281 163.453125 102.359375 163.652344 102.046875 163.824219 C 101.867188 165.4375 101.898438 169.023438 101.929688 173.082031 C 101.949219 175.359375 101.96875 178.03125 101.96875 181.171875 C 101.96875 188.441406 96.050781 194.355469 88.777344 194.355469 Z M 70.390625 43.640625 C 38.851562 43.640625 13.1875 69.300781 13.1875 100.839844 C 13.1875 117.703125 20.578125 133.628906 33.457031 144.539062 C 38.421875 148.738281 41.574219 150.40625 43.875 151.625 C 52.167969 156.011719 52.140625 159.648438 52.035156 173.183594 C 52.015625 175.433594 52 178.066406 52 181.167969 L 88.78125 181.171875 C 88.78125 178.066406 88.765625 175.433594 88.746094 173.183594 C 88.640625 159.648438 88.613281 156.011719 96.910156 151.625 C 99.210938 150.410156 102.359375 148.742188 107.328125 144.539062 C 120.207031 133.632812 127.597656 117.703125 127.597656 100.839844 C 127.589844 69.304688 101.929688 43.640625 70.390625 43.640625 Z M 70.390625 43.640625 " fill-opacity="1" fill-rule="evenodd"/><path fill="#0b1972" d="M 108.601562 107.4375 C 104.960938 107.4375 102.011719 104.484375 102.011719 100.84375 C 102.011719 83.410156 87.828125 69.226562 70.394531 69.226562 C 66.753906 69.226562 63.800781 66.273438 63.800781 62.632812 C 63.800781 58.992188 66.753906 56.042969 70.394531 56.042969 C 95.097656 56.042969 115.195312 76.140625 115.195312 100.84375 C 115.191406 104.484375 112.242188 107.4375 108.601562 107.4375 Z M 108.601562 107.4375 " fill-opacity="1" fill-rule="evenodd"/><path fill="#0b1972" d="M 74.113281 219.492188 L 66.671875 219.492188 C 56.90625 219.492188 48.960938 211.546875 48.960938 201.78125 L 48.960938 187.761719 C 48.960938 184.121094 51.914062 181.171875 55.554688 181.171875 L 85.234375 181.171875 C 88.871094 181.171875 91.824219 184.121094 91.824219 187.761719 L 91.824219 201.78125 C 91.820312 211.546875 83.878906 219.492188 74.113281 219.492188 Z M 62.144531 194.355469 L 62.144531 201.785156 C 62.144531 204.238281 64.21875 206.308594 66.671875 206.308594 L 74.113281 206.308594 C 76.566406 206.308594 78.640625 204.234375 78.640625 201.785156 L 78.640625 194.355469 Z M 62.144531 194.355469 " fill-opacity="1" fill-rule="evenodd"/><path fill="#0b1972" d="M 70.390625 21.949219 C 66.75 21.949219 63.800781 18.996094 63.800781 15.355469 L 63.800781 6.605469 C 63.800781 2.964844 66.75 0.0117188 70.390625 0.0117188 C 74.03125 0.0117188 76.980469 2.964844 76.980469 6.605469 L 76.980469 15.355469 C 76.984375 18.996094 74.03125 21.949219 70.390625 21.949219 Z M 70.390625 21.949219 " fill-opacity="1" fill-rule="evenodd"/><path fill="#0b1972" d="M 31.160156 32.367188 C 28.878906 32.367188 26.664062 31.183594 25.445312 29.070312 L 21.070312 21.488281 C 19.25 18.335938 20.332031 14.308594 23.480469 12.484375 C 26.636719 10.671875 30.664062 11.746094 32.488281 14.898438 L 36.863281 22.480469 C 38.683594 25.632812 37.605469 29.664062 34.449219 31.484375 C 33.410156 32.078125 32.28125 32.367188 31.160156 32.367188 Z M 31.160156 32.367188 " fill-opacity="1" fill-rule="evenodd"/><path fill="#0b1972" d="M 109.574219 32.550781 C 108.453125 32.550781 107.320312 32.265625 106.285156 31.664062 C 103.132812 29.84375 102.050781 25.816406 103.871094 22.660156 L 108.246094 15.078125 C 110.066406 11.925781 114.09375 10.847656 117.25 12.664062 C 120.402344 14.488281 121.484375 18.515625 119.664062 21.671875 L 115.289062 29.25 C 114.066406 31.363281 111.851562 32.550781 109.574219 32.550781 Z M 109.574219 32.550781 " fill-opacity="1" fill-rule="evenodd"/><path fill="#0b1972" d="M 296.898438 374.988281 C 277.652344 374.988281 259.175781 367.90625 244.851562 355.042969 C 217.5625 330.601562 211.074219 289.789062 229.417969 258.003906 C 243.316406 233.941406 269.222656 218.996094 297.035156 218.996094 C 310.648438 218.996094 324.109375 222.613281 335.96875 229.457031 C 354.011719 239.875 366.917969 256.695312 372.308594 276.820312 C 377.703125 296.941406 374.933594 317.964844 364.515625 336.007812 C 350.425781 360.414062 325.148438 374.988281 296.898438 374.988281 Z M 297.039062 232.179688 C 273.917969 232.179688 252.386719 244.597656 240.839844 264.597656 C 225.59375 291.007812 230.980469 324.921875 253.652344 345.226562 C 265.554688 355.921875 280.914062 361.804688 296.898438 361.804688 C 320.378906 361.804688 341.390625 349.695312 353.101562 329.410156 C 361.757812 314.417969 364.058594 296.953125 359.574219 280.230469 C 355.097656 263.511719 344.371094 249.527344 329.378906 240.875 C 319.523438 235.183594 308.339844 232.179688 297.039062 232.179688 Z M 297.039062 232.179688 " fill-opacity="1" fill-rule="evenodd"/><path fill="#0b1972" d="M 322.328125 337.3125 C 320.328125 337.3125 318.351562 336.40625 317.054688 334.691406 C 314.863281 331.78125 315.449219 327.644531 318.351562 325.457031 C 327.382812 318.660156 332.558594 308.289062 332.558594 297.003906 C 332.558594 277.382812 316.59375 261.417969 296.96875 261.417969 C 293.328125 261.417969 290.375 258.464844 290.375 254.824219 C 290.375 251.1875 293.328125 248.234375 296.96875 248.234375 C 323.863281 248.234375 345.742188 270.117188 345.742188 297.003906 C 345.742188 312.464844 338.648438 326.679688 326.285156 335.988281 C 325.097656 336.882812 323.707031 337.3125 322.328125 337.3125 Z M 322.328125 337.3125 " fill-opacity="1" fill-rule="evenodd"/><path fill="#0b1972" d="M 296.972656 261.414062 C 294.925781 261.414062 292.90625 260.460938 291.617188 258.671875 C 289.492188 255.71875 290.164062 251.601562 293.117188 249.46875 L 304.191406 241.503906 C 307.15625 239.382812 311.265625 240.054688 313.394531 243.007812 C 315.519531 245.964844 314.847656 250.082031 311.894531 252.210938 L 300.820312 260.175781 C 299.652344 261.011719 298.308594 261.414062 296.972656 261.414062 Z M 296.972656 261.414062 " fill-opacity="1" fill-rule="evenodd"/><path fill="#0b1972" d="M 305.203125 272.292969 C 303.207031 272.292969 301.238281 271.390625 299.941406 269.679688 L 291.714844 258.804688 C 289.515625 255.902344 290.089844 251.765625 292.996094 249.570312 C 295.902344 247.375 300.035156 247.957031 302.226562 250.851562 L 310.453125 261.730469 C 312.648438 264.632812 312.078125 268.765625 309.171875 270.960938 C 307.984375 271.855469 306.585938 272.292969 305.203125 272.292969 Z M 305.203125 272.292969 " fill-opacity="1" fill-rule="evenodd"/><path fill="#0b1972" d="M 296.96875 345.78125 C 270.074219 345.78125 248.195312 323.898438 248.195312 297.003906 C 248.195312 281.546875 255.289062 267.335938 267.65625 258.023438 C 270.566406 255.835938 274.699219 256.417969 276.886719 259.324219 C 279.078125 262.234375 278.492188 266.367188 275.585938 268.554688 C 266.558594 275.359375 261.378906 285.722656 261.378906 297.003906 C 261.378906 316.632812 277.34375 332.597656 296.96875 332.597656 C 300.609375 332.597656 303.558594 335.550781 303.558594 339.191406 C 303.558594 342.828125 300.609375 345.78125 296.96875 345.78125 Z M 296.96875 345.78125 " fill-opacity="1" fill-rule="evenodd"/><path fill="#0b1972" d="M 285.902344 353.742188 C 283.851562 353.742188 281.835938 352.789062 280.542969 351.003906 C 278.417969 348.042969 279.09375 343.929688 282.046875 341.796875 L 293.117188 333.835938 C 296.074219 331.710938 300.1875 332.386719 302.320312 335.339844 C 304.445312 338.296875 303.773438 342.410156 300.816406 344.542969 L 289.746094 352.503906 C 288.582031 353.339844 287.238281 353.742188 285.902344 353.742188 Z M 285.902344 353.742188 " fill-opacity="1" fill-rule="evenodd"/><path fill="#0b1972" d="M 296.972656 345.78125 C 294.980469 345.78125 293.007812 344.878906 291.710938 343.167969 L 283.484375 332.289062 C 281.289062 329.382812 281.867188 325.25 284.769531 323.058594 C 287.671875 320.855469 291.808594 321.441406 294 324.339844 L 302.222656 335.214844 C 304.421875 338.121094 303.84375 342.257812 300.941406 344.449219 C 299.757812 345.34375 298.359375 345.78125 296.972656 345.78125 Z M 296.972656 345.78125 " fill-opacity="1" fill-rule="evenodd"/><path fill="#0b1972" d="M 239.867188 202.039062 L 120.476562 202.039062 C 116.835938 202.039062 113.882812 199.089844 113.882812 195.449219 C 113.882812 191.808594 116.835938 188.859375 120.476562 188.859375 L 239.867188 188.859375 C 243.507812 188.859375 246.457031 191.808594 246.457031 195.449219 C 246.457031 199.089844 243.507812 202.039062 239.867188 202.039062 Z M 239.867188 202.039062 " fill-opacity="1" fill-rule="evenodd"/><path fill="#0b1972" d="M 239.867188 227.597656 L 158.433594 227.597656 C 154.792969 227.597656 151.84375 224.644531 151.84375 221.003906 C 151.84375 217.367188 154.792969 214.414062 158.433594 214.414062 L 239.867188 214.414062 C 243.507812 214.414062 246.457031 217.367188 246.457031 221.003906 C 246.457031 224.644531 243.507812 227.597656 239.867188 227.597656 Z M 239.867188 227.597656 " fill-opacity="1" fill-rule="evenodd"/><path fill="#0b1972" d="M 139.550781 227.597656 L 120.476562 227.597656 C 116.835938 227.597656 113.882812 224.644531 113.882812 221.003906 C 113.882812 217.367188 116.835938 214.414062 120.476562 214.414062 L 139.550781 214.414062 C 143.191406 214.414062 146.140625 217.367188 146.140625 221.003906 C 146.140625 224.644531 143.191406 227.597656 139.550781 227.597656 Z M 139.550781 227.597656 " fill-opacity="1" fill-rule="evenodd"/><path fill="#0b1972" d="M 201.910156 176.488281 L 127.796875 176.488281 C 124.15625 176.488281 121.207031 173.535156 121.207031 169.894531 C 121.207031 166.257812 124.15625 163.304688 127.796875 163.304688 L 201.910156 163.304688 C 205.550781 163.304688 208.5 166.257812 208.5 169.894531 C 208.5 173.535156 205.550781 176.488281 201.910156 176.488281 Z M 201.910156 176.488281 " fill-opacity="1" fill-rule="evenodd"/><path fill="#0b1972" d="M 239.867188 176.488281 L 220.792969 176.488281 C 217.152344 176.488281 214.199219 173.535156 214.199219 169.894531 C 214.199219 166.257812 217.152344 163.304688 220.792969 163.304688 L 239.867188 163.304688 C 243.507812 163.304688 246.457031 166.257812 246.457031 169.894531 C 246.457031 173.535156 243.507812 176.488281 239.867188 176.488281 Z M 239.867188 176.488281 " fill-opacity="1" fill-rule="evenodd"/><path fill="#0b1972" d="M 225.582031 305.535156 L 119.878906 305.535156 C 117.03125 305.535156 114.503906 303.703125 113.617188 301 C 112.730469 298.296875 113.679688 295.328125 115.972656 293.636719 C 117.082031 292.816406 118.339844 292.007812 119.703125 291.222656 C 121.589844 290.132812 122.242188 287.695312 121.144531 285.800781 L 111.515625 269.117188 C 110.988281 268.203125 110.128906 267.550781 109.097656 267.273438 C 108.066406 267.003906 106.996094 267.136719 106.085938 267.660156 C 103.355469 269.234375 95.0625 274.015625 88.15625 270.027344 C 81.238281 266.035156 81.238281 256.460938 81.238281 253.3125 C 81.238281 251.464844 79.925781 249.828125 78.113281 249.429688 C 75.097656 248.761719 72.949219 246.085938 72.949219 242.996094 L 72.949219 211.472656 C 72.949219 207.835938 75.902344 204.882812 79.542969 204.882812 C 83.183594 204.882812 86.132812 207.835938 86.132812 211.472656 L 86.132812 238.648438 C 91.136719 241.703125 94.417969 247.238281 94.417969 253.316406 C 94.417969 256 94.703125 257.511719 94.925781 258.292969 C 95.714844 258.097656 97.164062 257.59375 99.492188 256.246094 C 103.449219 253.964844 108.078125 253.359375 112.507812 254.539062 C 116.941406 255.726562 120.640625 258.5625 122.929688 262.523438 L 132.558594 279.207031 C 134.949219 283.34375 135.414062 288.074219 134.230469 292.355469 L 225.582031 292.355469 C 229.222656 292.355469 232.175781 295.304688 232.175781 298.945312 C 232.175781 302.585938 229.222656 305.535156 225.582031 305.535156 Z M 295.445312 232.195312 C 291.804688 232.195312 288.855469 229.246094 288.855469 225.605469 L 288.855469 165.207031 C 244.90625 163.371094 209.710938 127.039062 209.710938 82.648438 L 129.1875 82.648438 C 125.546875 82.648438 122.597656 79.699219 122.597656 76.058594 C 122.597656 72.417969 125.546875 69.464844 129.1875 69.464844 L 216.59375 69.464844 C 218.441406 69.464844 220.203125 70.242188 221.453125 71.601562 C 222.699219 72.960938 223.320312 74.785156 223.164062 76.625 C 222.988281 78.65625 222.898438 80.683594 222.898438 82.648438 C 222.898438 120.945312 254.054688 152.101562 292.351562 152.101562 C 293.300781 152.101562 294.242188 152.074219 295.183594 152.035156 C 296.964844 151.988281 298.722656 152.625 300.015625 153.867188 C 301.308594 155.109375 302.042969 156.828125 302.042969 158.621094 L 302.042969 225.601562 C 302.039062 229.246094 299.089844 232.195312 295.445312 232.195312 Z M 295.445312 232.195312 " fill-opacity="1" fill-rule="evenodd"/><path fill="#0b1972" d="M 67.429688 332.753906 C 52.347656 332.753906 40.078125 320.558594 40.078125 305.570312 C 40.078125 290.585938 52.347656 278.390625 67.429688 278.390625 C 82.515625 278.390625 94.785156 290.585938 94.785156 305.570312 C 94.789062 320.558594 82.515625 332.753906 67.429688 332.753906 Z M 67.429688 291.574219 C 59.617188 291.574219 53.257812 297.851562 53.257812 305.570312 C 53.257812 313.289062 59.617188 319.570312 67.429688 319.570312 C 75.246094 319.570312 81.601562 313.289062 81.601562 305.570312 C 81.601562 297.851562 75.246094 291.574219 67.429688 291.574219 Z M 67.429688 291.574219 " fill-opacity="1" fill-rule="evenodd"/><path fill="#0b1972" d="M 77.261719 374.988281 L 57.601562 374.988281 C 48.140625 374.988281 40.441406 367.289062 40.441406 357.832031 C 40.441406 355.148438 40.15625 353.640625 39.933594 352.855469 C 39.136719 353.050781 37.6875 353.558594 35.367188 354.902344 C 32.765625 356.398438 29.808594 357.195312 26.8125 357.195312 C 20.6875 357.195312 14.984375 353.914062 11.929688 348.625 L 2.300781 331.941406 C 0.0117188 327.980469 -0.59375 323.355469 0.589844 318.921875 C 1.777344 314.492188 4.617188 310.789062 8.582031 308.5 C 10.910156 307.15625 12.066406 306.152344 12.621094 305.574219 C 12.066406 304.992188 10.910156 303.988281 8.582031 302.644531 C 0.390625 297.910156 -2.425781 287.398438 2.300781 279.203125 L 11.929688 262.519531 C 14.984375 257.234375 20.691406 253.949219 26.8125 253.949219 C 29.808594 253.949219 32.769531 254.742188 35.371094 256.242188 C 37.695312 257.582031 39.144531 258.09375 39.929688 258.289062 C 40.15625 257.507812 40.4375 255.996094 40.4375 253.3125 C 40.4375 243.851562 48.136719 236.15625 57.597656 236.15625 L 77.261719 236.152344 C 86.722656 236.152344 94.421875 243.851562 94.421875 253.308594 C 94.421875 255.996094 94.707031 257.503906 94.933594 258.285156 C 95.726562 258.089844 97.175781 257.582031 99.496094 256.238281 C 102.09375 254.742188 105.050781 253.949219 108.050781 253.949219 C 114.175781 253.949219 119.878906 257.230469 122.929688 262.519531 L 132.558594 279.203125 C 137.289062 287.394531 134.472656 297.910156 126.285156 302.640625 C 123.953125 303.988281 122.792969 304.992188 122.238281 305.574219 C 122.792969 306.15625 123.953125 307.15625 126.28125 308.5 C 130.242188 310.789062 133.078125 314.488281 134.265625 318.921875 C 135.453125 323.351562 134.847656 327.980469 132.558594 331.945312 L 122.929688 348.621094 C 119.875 353.910156 114.171875 357.199219 108.050781 357.199219 C 105.050781 357.199219 102.089844 356.402344 99.488281 354.902344 C 97.164062 353.558594 95.714844 353.054688 94.929688 352.859375 C 94.703125 353.636719 94.421875 355.148438 94.421875 357.832031 C 94.421875 367.289062 86.722656 374.988281 77.261719 374.988281 Z M 40.664062 339.558594 C 45.503906 339.558594 53.628906 341.933594 53.628906 357.832031 C 53.628906 360.023438 55.410156 361.804688 57.601562 361.804688 L 77.261719 361.804688 C 79.453125 361.804688 81.242188 360.023438 81.242188 357.832031 C 81.242188 341.933594 89.363281 339.558594 94.203125 339.558594 C 97.671875 339.558594 101.449219 340.804688 106.085938 343.484375 C 107.941406 344.554688 110.464844 343.851562 111.519531 342.027344 L 121.148438 325.347656 C 121.675781 324.433594 121.8125 323.363281 121.539062 322.335938 C 121.261719 321.304688 120.609375 320.449219 119.695312 319.921875 C 116.976562 318.351562 108.703125 313.578125 108.699219 305.578125 C 108.699219 297.578125 116.972656 292.796875 119.691406 291.234375 C 121.589844 290.136719 122.242188 287.699219 121.148438 285.800781 L 111.515625 269.117188 C 110.46875 267.300781 107.929688 266.597656 106.089844 267.664062 C 101.449219 270.34375 97.671875 271.589844 94.203125 271.589844 C 89.648438 271.589844 85.777344 269.273438 83.589844 265.234375 C 82.007812 262.308594 81.238281 258.414062 81.238281 253.316406 C 81.238281 251.125 79.457031 249.34375 77.265625 249.34375 L 57.597656 249.34375 C 55.40625 249.34375 53.625 251.125 53.625 253.316406 C 53.625 269.214844 45.503906 271.585938 40.664062 271.585938 C 37.195312 271.585938 33.417969 270.34375 28.777344 267.660156 C 26.929688 266.597656 24.394531 267.300781 23.34375 269.121094 L 13.714844 285.800781 C 12.621094 287.699219 13.273438 290.136719 15.171875 291.230469 C 17.886719 292.800781 26.164062 297.578125 26.164062 305.578125 C 26.164062 313.574219 17.890625 318.355469 15.171875 319.921875 C 14.257812 320.449219 13.605469 321.304688 13.328125 322.335938 C 13.050781 323.363281 13.191406 324.433594 13.714844 325.347656 L 23.347656 342.03125 C 24.394531 343.847656 26.917969 344.546875 28.773438 343.484375 C 33.417969 340.804688 37.195312 339.558594 40.664062 339.558594 Z M 40.664062 339.558594 " fill-opacity="1" fill-rule="evenodd"/><path fill="#0b1972" d="M 292.347656 165.28125 C 246.78125 165.28125 209.710938 128.210938 209.710938 82.648438 C 209.710938 37.082031 246.78125 0.0117188 292.347656 0.0117188 C 337.914062 0.0117188 374.980469 37.082031 374.980469 82.648438 C 374.980469 128.214844 337.910156 165.28125 292.347656 165.28125 Z M 292.347656 13.195312 C 254.050781 13.195312 222.894531 44.347656 222.894531 82.648438 C 222.894531 120.945312 254.050781 152.097656 292.347656 152.097656 C 330.644531 152.097656 361.796875 120.945312 361.796875 82.648438 C 361.796875 44.355469 330.644531 13.195312 292.347656 13.195312 Z M 292.347656 13.195312 " fill-opacity="1" fill-rule="evenodd"/><path fill="#0b1972" d="M 363.417969 62.15625 L 221.273438 62.15625 C 217.632812 62.15625 214.683594 59.207031 214.683594 55.566406 C 214.683594 51.925781 217.632812 48.976562 221.273438 48.976562 L 363.417969 48.976562 C 367.058594 48.976562 370.007812 51.925781 370.007812 55.566406 C 370.007812 59.207031 367.058594 62.15625 363.417969 62.15625 Z M 363.417969 62.15625 " fill-opacity="1" fill-rule="evenodd"/><path fill="#0b1972" d="M 363.417969 116.324219 L 221.273438 116.324219 C 217.632812 116.324219 214.683594 113.371094 214.683594 109.730469 C 214.683594 106.09375 217.632812 103.140625 221.273438 103.140625 L 363.417969 103.140625 C 367.058594 103.140625 370.007812 106.09375 370.007812 109.730469 C 370.007812 113.371094 367.058594 116.324219 363.417969 116.324219 Z M 363.417969 116.324219 " fill-opacity="1" fill-rule="evenodd"/><path fill="#0b1972" d="M 292.347656 165.28125 C 267.839844 165.28125 254.613281 122.707031 254.613281 82.648438 C 254.613281 42.585938 267.839844 0.0117188 292.347656 0.0117188 C 316.855469 0.0117188 330.082031 42.589844 330.082031 82.648438 C 330.082031 122.710938 316.859375 165.28125 292.347656 165.28125 Z M 292.347656 13.195312 C 282.097656 13.195312 267.796875 39.617188 267.796875 82.648438 C 267.796875 125.675781 282.097656 152.097656 292.347656 152.097656 C 302.597656 152.097656 316.898438 125.675781 316.898438 82.648438 C 316.898438 39.617188 302.597656 13.195312 292.347656 13.195312 Z M 292.347656 13.195312 " fill-opacity="1" fill-rule="evenodd"/><path fill="#0b1972" d="M 88.777344 194.355469 L 52 194.355469 C 44.734375 194.355469 38.816406 188.441406 38.816406 181.171875 C 38.816406 178.03125 38.835938 175.363281 38.855469 173.085938 C 38.882812 169.027344 38.914062 165.441406 38.734375 163.828125 C 38.421875 163.65625 38.046875 163.457031 37.714844 163.28125 C 35.203125 161.953125 31 159.726562 24.941406 154.601562 C 9.09375 141.183594 0.0078125 121.589844 0.0078125 100.84375 C 0.0078125 62.035156 31.582031 30.457031 70.390625 30.457031 C 109.199219 30.457031 140.773438 62.03125 140.773438 100.839844 C 140.773438 121.585938 131.6875 141.179688 115.84375 154.597656 C 109.785156 159.722656 105.582031 161.949219 103.070312 163.277344 C 102.738281 163.453125 102.359375 163.652344 102.046875 163.824219 C 101.867188 165.4375 101.898438 169.023438 101.929688 173.082031 C 101.949219 175.359375 101.96875 178.03125 101.96875 181.171875 C 101.96875 188.441406 96.050781 194.355469 88.777344 194.355469 Z M 70.390625 43.640625 C 38.851562 43.640625 13.1875 69.300781 13.1875 100.839844 C 13.1875 117.703125 20.578125 133.628906 33.457031 144.539062 C 38.421875 148.738281 41.574219 150.40625 43.875 151.625 C 52.167969 156.011719 52.140625 159.648438 52.035156 173.183594 C 52.015625 175.433594 52 178.066406 52 181.167969 L 88.78125 181.171875 C 88.78125 178.066406 88.765625 175.433594 88.746094 173.183594 C 88.640625 159.648438 88.613281 156.011719 96.910156 151.625 C 99.210938 150.410156 102.359375 148.742188 107.328125 144.539062 C 120.207031 133.632812 127.597656 117.703125 127.597656 100.839844 C 127.589844 69.304688 101.929688 43.640625 70.390625 43.640625 Z M 70.390625 43.640625 " fill-opacity="1" fill-rule="evenodd"/><path fill="#0b1972" d="M 108.601562 107.4375 C 104.960938 107.4375 102.011719 104.484375 102.011719 100.84375 C 102.011719 83.410156 87.828125 69.226562 70.394531 69.226562 C 66.753906 69.226562 63.800781 66.273438 63.800781 62.632812 C 63.800781 58.992188 66.753906 56.042969 70.394531 56.042969 C 95.097656 56.042969 115.195312 76.140625 115.195312 100.84375 C 115.191406 104.484375 112.242188 107.4375 108.601562 107.4375 Z M 108.601562 107.4375 " fill-opacity="1" fill-rule="evenodd"/><path fill="#0b1972" d="M 74.113281 219.492188 L 66.671875 219.492188 C 56.90625 219.492188 48.960938 211.546875 48.960938 201.78125 L 48.960938 187.761719 C 48.960938 184.121094 51.914062 181.171875 55.554688 181.171875 L 85.234375 181.171875 C 88.871094 181.171875 91.824219 184.121094 91.824219 187.761719 L 91.824219 201.78125 C 91.820312 211.546875 83.878906 219.492188 74.113281 219.492188 Z M 62.144531 194.355469 L 62.144531 201.785156 C 62.144531 204.238281 64.21875 206.308594 66.671875 206.308594 L 74.113281 206.308594 C 76.566406 206.308594 78.640625 204.234375 78.640625 201.785156 L 78.640625 194.355469 Z M 62.144531 194.355469 " fill-opacity="1" fill-rule="evenodd"/><path fill="#0b1972" d="M 70.390625 21.949219 C 66.75 21.949219 63.800781 18.996094 63.800781 15.355469 L 63.800781 6.605469 C 63.800781 2.964844 66.75 0.0117188 70.390625 0.0117188 C 74.03125 0.0117188 76.980469 2.964844 76.980469 6.605469 L 76.980469 15.355469 C 76.984375 18.996094 74.03125 21.949219 70.390625 21.949219 Z M 70.390625 21.949219 " fill-opacity="1" fill-rule="evenodd"/><path fill="#0b1972" d="M 31.160156 32.367188 C 28.878906 32.367188 26.664062 31.183594 25.445312 29.070312 L 21.070312 21.488281 C 19.25 18.335938 20.332031 14.308594 23.480469 12.484375 C 26.636719 10.671875 30.664062 11.746094 32.488281 14.898438 L 36.863281 22.480469 C 38.683594 25.632812 37.605469 29.664062 34.449219 31.484375 C 33.410156 32.078125 32.28125 32.367188 31.160156 32.367188 Z M 31.160156 32.367188 " fill-opacity="1" fill-rule="evenodd"/><path fill="#0b1972" d="M 109.574219 32.550781 C 108.453125 32.550781 107.320312 32.265625 106.285156 31.664062 C 103.132812 29.84375 102.050781 25.816406 103.871094 22.660156 L 108.246094 15.078125 C 110.066406 11.925781 114.09375 10.847656 117.25 12.664062 C 120.402344 14.488281 121.484375 18.515625 119.664062 21.671875 L 115.289062 29.25 C 114.066406 31.363281 111.851562 32.550781 109.574219 32.550781 Z M 109.574219 32.550781 " fill-opacity="1" fill-rule="evenodd"/><path fill="#0b1972" d="M 296.898438 374.988281 C 277.652344 374.988281 259.175781 367.90625 244.851562 355.042969 C 217.5625 330.601562 211.074219 289.789062 229.417969 258.003906 C 243.316406 233.941406 269.222656 218.996094 297.035156 218.996094 C 310.648438 218.996094 324.109375 222.613281 335.96875 229.457031 C 354.011719 239.875 366.917969 256.695312 372.308594 276.820312 C 377.703125 296.941406 374.933594 317.964844 364.515625 336.007812 C 350.425781 360.414062 325.148438 374.988281 296.898438 374.988281 Z M 297.039062 232.179688 C 273.917969 232.179688 252.386719 244.597656 240.839844 264.597656 C 225.59375 291.007812 230.980469 324.921875 253.652344 345.226562 C 265.554688 355.921875 280.914062 361.804688 296.898438 361.804688 C 320.378906 361.804688 341.390625 349.695312 353.101562 329.410156 C 361.757812 314.417969 364.058594 296.953125 359.574219 280.230469 C 355.097656 263.511719 344.371094 249.527344 329.378906 240.875 C 319.523438 235.183594 308.339844 232.179688 297.039062 232.179688 Z M 297.039062 232.179688 " fill-opacity="1" fill-rule="evenodd"/><path fill="#0b1972" d="M 322.328125 337.3125 C 320.328125 337.3125 318.351562 336.40625 317.054688 334.691406 C 314.863281 331.78125 315.449219 327.644531 318.351562 325.457031 C 327.382812 318.660156 332.558594 308.289062 332.558594 297.003906 C 332.558594 277.382812 316.59375 261.417969 296.96875 261.417969 C 293.328125 261.417969 290.375 258.464844 290.375 254.824219 C 290.375 251.1875 293.328125 248.234375 296.96875 248.234375 C 323.863281 248.234375 345.742188 270.117188 345.742188 297.003906 C 345.742188 312.464844 338.648438 326.679688 326.285156 335.988281 C 325.097656 336.882812 323.707031 337.3125 322.328125 337.3125 Z M 322.328125 337.3125 " fill-opacity="1" fill-rule="evenodd"/><path fill="#0b1972" d="M 296.972656 261.414062 C 294.925781 261.414062 292.90625 260.460938 291.617188 258.671875 C 289.492188 255.71875 290.164062 251.601562 293.117188 249.46875 L 304.191406 241.503906 C 307.15625 239.382812 311.265625 240.054688 313.394531 243.007812 C 315.519531 245.964844 314.847656 250.082031 311.894531 252.210938 L 300.820312 260.175781 C 299.652344 261.011719 298.308594 261.414062 296.972656 261.414062 Z M 296.972656 261.414062 " fill-opacity="1" fill-rule="evenodd"/><path fill="#0b1972" d="M 305.203125 272.292969 C 303.207031 272.292969 301.238281 271.390625 299.941406 269.679688 L 291.714844 258.804688 C 289.515625 255.902344 290.089844 251.765625 292.996094 249.570312 C 295.902344 247.375 300.035156 247.957031 302.226562 250.851562 L 310.453125 261.730469 C 312.648438 264.632812 312.078125 268.765625 309.171875 270.960938 C 307.984375 271.855469 306.585938 272.292969 305.203125 272.292969 Z M 305.203125 272.292969 " fill-opacity="1" fill-rule="evenodd"/><path fill="#0b1972" d="M 296.96875 345.78125 C 270.074219 345.78125 248.195312 323.898438 248.195312 297.003906 C 248.195312 281.546875 255.289062 267.335938 267.65625 258.023438 C 270.566406 255.835938 274.699219 256.417969 276.886719 259.324219 C 279.078125 262.234375 278.492188 266.367188 275.585938 268.554688 C 266.558594 275.359375 261.378906 285.722656 261.378906 297.003906 C 261.378906 316.632812 277.34375 332.597656 296.96875 332.597656 C 300.609375 332.597656 303.558594 335.550781 303.558594 339.191406 C 303.558594 342.828125 300.609375 345.78125 296.96875 345.78125 Z M 296.96875 345.78125 " fill-opacity="1" fill-rule="evenodd"/><path fill="#0b1972" d="M 285.902344 353.742188 C 283.851562 353.742188 281.835938 352.789062 280.542969 351.003906 C 278.417969 348.042969 279.09375 343.929688 282.046875 341.796875 L 293.117188 333.835938 C 296.074219 331.710938 300.1875 332.386719 302.320312 335.339844 C 304.445312 338.296875 303.773438 342.410156 300.816406 344.542969 L 289.746094 352.503906 C 288.582031 353.339844 287.238281 353.742188 285.902344 353.742188 Z M 285.902344 353.742188 " fill-opacity="1" fill-rule="evenodd"/><path fill="#0b1972" d="M 296.972656 345.78125 C 294.980469 345.78125 293.007812 344.878906 291.710938 343.167969 L 283.484375 332.289062 C 281.289062 329.382812 281.867188 325.25 284.769531 323.058594 C 287.671875 320.855469 291.808594 321.441406 294 324.339844 L 302.222656 335.214844 C 304.421875 338.121094 303.84375 342.257812 300.941406 344.449219 C 299.757812 345.34375 298.359375 345.78125 296.972656 345.78125 Z M 296.972656 345.78125 " fill-opacity="1" fill-rule="evenodd"/><path fill="#0b1972" d="M 239.867188 202.039062 L 120.476562 202.039062 C 116.835938 202.039062 113.882812 199.089844 113.882812 195.449219 C 113.882812 191.808594 116.835938 188.859375 120.476562 188.859375 L 239.867188 188.859375 C 243.507812 188.859375 246.457031 191.808594 246.457031 195.449219 C 246.457031 199.089844 243.507812 202.039062 239.867188 202.039062 Z M 239.867188 202.039062 " fill-opacity="1" fill-rule="evenodd"/><path fill="#0b1972" d="M 239.867188 227.597656 L 158.433594 227.597656 C 154.792969 227.597656 151.84375 224.644531 151.84375 221.003906 C 151.84375 217.367188 154.792969 214.414062 158.433594 214.414062 L 239.867188 214.414062 C 243.507812 214.414062 246.457031 217.367188 246.457031 221.003906 C 246.457031 224.644531 243.507812 227.597656 239.867188 227.597656 Z M 239.867188 227.597656 " fill-opacity="1" fill-rule="evenodd"/><path fill="#0b1972" d="M 139.550781 227.597656 L 120.476562 227.597656 C 116.835938 227.597656 113.882812 224.644531 113.882812 221.003906 C 113.882812 217.367188 116.835938 214.414062 120.476562 214.414062 L 139.550781 214.414062 C 143.191406 214.414062 146.140625 217.367188 146.140625 221.003906 C 146.140625 224.644531 143.191406 227.597656 139.550781 227.597656 Z M 139.550781 227.597656 " fill-opacity="1" fill-rule="evenodd"/><path fill="#0b1972" d="M 201.910156 176.488281 L 127.796875 176.488281 C 124.15625 176.488281 121.207031 173.535156 121.207031 169.894531 C 121.207031 166.257812 124.15625 163.304688 127.796875 163.304688 L 201.910156 163.304688 C 205.550781 163.304688 208.5 166.257812 208.5 169.894531 C 208.5 173.535156 205.550781 176.488281 201.910156 176.488281 Z M 201.910156 176.488281 " fill-opacity="1" fill-rule="evenodd"/><path fill="#0b1972" d="M 239.867188 176.488281 L 220.792969 176.488281 C 217.152344 176.488281 214.199219 173.535156 214.199219 169.894531 C 214.199219 166.257812 217.152344 163.304688 220.792969 163.304688 L 239.867188 163.304688 C 243.507812 163.304688 246.457031 166.257812 246.457031 169.894531 C 246.457031 173.535156 243.507812 176.488281 239.867188 176.488281 Z M 239.867188 176.488281 " fill-opacity="1" fill-rule="evenodd"/></svg>