<svg xmlns="http://www.w3.org/2000/svg" xmlns:xlink="http://www.w3.org/1999/xlink" width="500" zoomAndPan="magnify" viewBox="0 0 375 374.999991" height="500" preserveAspectRatio="xMidYMid meet" version="1.0"><path fill="#0b1972" d="M 272.960938 340.464844 C 274.609375 343.449219 273.527344 347.199219 270.542969 348.847656 C 245.25 362.808594 216.507812 370.1875 187.433594 370.1875 C 163.230469 370.1875 139.277344 365.0625 117.339844 355.308594 L 119.683594 363.011719 C 120.671875 366.269531 118.832031 369.71875 115.574219 370.710938 C 114.976562 370.890625 114.371094 370.976562 113.777344 370.976562 C 111.128906 370.976562 108.683594 369.261719 107.875 366.601562 L 101.382812 345.242188 C 100.90625 343.675781 101.070312 341.984375 101.84375 340.539062 C 102.613281 339.09375 103.929688 338.015625 105.496094 337.542969 L 126.855469 331.070312 C 130.121094 330.082031 133.5625 331.925781 134.550781 335.183594 C 135.539062 338.445312 133.695312 341.890625 130.433594 342.878906 L 124.082031 344.804688 C 143.972656 353.367188 165.59375 357.847656 187.433594 357.847656 C 214.429688 357.847656 241.109375 351 264.582031 338.042969 C 267.5625 336.398438 271.316406 337.480469 272.964844 340.464844 Z M 21.789062 201.734375 C 21.828125 201.734375 21.871094 201.738281 21.914062 201.738281 C 25.261719 201.738281 28.011719 199.054688 28.082031 195.691406 C 28.621094 168.875 36.03125 142.351562 49.511719 118.984375 C 60.425781 100.089844 75.121094 83.605469 92.480469 70.652344 L 90.976562 77.117188 C 90.207031 80.433594 92.273438 83.75 95.589844 84.523438 C 96.0625 84.632812 96.53125 84.683594 96.992188 84.683594 C 99.796875 84.683594 102.335938 82.757812 103 79.910156 L 108.050781 58.175781 C 108.820312 54.859375 106.753906 51.542969 103.4375 50.769531 L 81.726562 45.71875 C 78.40625 44.949219 75.089844 47.011719 74.320312 50.332031 C 73.546875 53.652344 75.613281 56.96875 78.929688 57.738281 L 86.753906 59.558594 C 67.335938 73.691406 50.921875 91.875 38.824219 112.8125 C 24.304688 137.976562 16.324219 166.550781 15.742188 195.441406 C 15.675781 198.847656 18.378906 201.664062 21.789062 201.734375 Z M 269.613281 62.0625 C 292.601562 75.957031 311.867188 95.640625 325.335938 118.984375 C 336.253906 137.886719 343.1875 158.851562 345.714844 180.363281 L 340.863281 175.824219 C 338.375 173.496094 334.46875 173.625 332.140625 176.113281 C 329.8125 178.601562 329.941406 182.507812 332.429688 184.832031 L 348.71875 200.070312 C 349.910156 201.1875 351.421875 201.738281 352.933594 201.738281 C 354.582031 201.738281 356.222656 201.082031 357.4375 199.785156 L 372.675781 183.519531 C 375.007812 181.03125 374.878906 177.125 372.390625 174.796875 C 369.90625 172.46875 366 172.59375 363.667969 175.082031 L 358.179688 180.941406 C 355.664062 157.0625 348.121094 133.757812 336.023438 112.816406 C 321.519531 87.671875 300.761719 66.472656 276 51.5 C 273.082031 49.738281 269.289062 50.671875 267.527344 53.589844 C 265.765625 56.507812 266.699219 60.300781 269.617188 62.0625 Z M 374.847656 269.507812 C 374.847656 304.9375 346.019531 333.765625 310.585938 333.765625 C 275.15625 333.765625 246.328125 304.9375 246.328125 269.507812 C 246.328125 236.101562 271.949219 208.582031 304.570312 205.539062 L 304.570312 176.703125 L 70.605469 176.703125 L 70.605469 205.5625 C 103.070312 208.761719 128.519531 236.214844 128.519531 269.507812 C 128.519531 304.9375 99.691406 333.765625 64.261719 333.765625 C 28.828125 333.765625 0 304.9375 0 269.507812 C 0 236.097656 25.632812 208.570312 58.265625 205.535156 L 58.265625 170.535156 C 58.265625 167.128906 61.027344 164.363281 64.433594 164.363281 L 181.417969 164.363281 L 181.417969 132.25 C 148.796875 129.207031 123.175781 101.6875 123.175781 68.28125 C 123.175781 32.851562 152 4.023438 187.433594 4.023438 C 222.867188 4.023438 251.691406 32.851562 251.691406 68.28125 C 251.691406 101.582031 226.234375 129.042969 193.757812 132.226562 L 193.757812 164.363281 L 310.738281 164.363281 C 314.144531 164.363281 316.910156 167.128906 316.910156 170.535156 L 316.910156 205.5625 C 349.382812 208.75 374.84375 236.207031 374.84375 269.507812 Z M 187.433594 75.667969 C 198.828125 75.667969 202.515625 60.808594 202.515625 53.613281 C 202.515625 45.296875 195.75 38.53125 187.433594 38.53125 C 179.117188 38.53125 172.332031 45.296875 172.332031 53.613281 C 172.332031 62.769531 177.015625 75.667969 187.433594 75.667969 Z M 151.839844 106.027344 C 161.140625 114.804688 173.664062 120.203125 187.433594 120.203125 C 201.203125 120.203125 213.710938 114.8125 223.007812 106.042969 C 221.136719 97.683594 212.992188 91.460938 203.328125 91.460938 L 171.539062 91.460938 C 161.871094 91.460938 153.71875 97.675781 151.839844 106.027344 Z M 135.515625 68.28125 C 135.515625 78.101562 138.253906 87.292969 143.011719 95.132812 C 148.101562 86.304688 157.65625 80.140625 168.734375 79.242188 C 162.988281 72.546875 159.992188 62.917969 159.992188 53.613281 C 159.992188 38.492188 172.300781 26.191406 187.433594 26.191406 C 202.566406 26.191406 214.855469 38.492188 214.855469 53.613281 C 214.855469 62.917969 211.859375 72.546875 206.117188 79.242188 C 217.199219 80.136719 226.757812 86.3125 231.84375 95.148438 C 236.605469 87.304688 239.351562 78.109375 239.351562 68.28125 C 239.351562 39.652344 216.0625 16.363281 187.433594 16.363281 C 158.804688 16.363281 135.515625 39.652344 135.515625 68.28125 Z M 64.257812 321.425781 C 78.027344 321.425781 90.550781 316.027344 99.851562 307.25 C 97.972656 298.910156 89.820312 292.707031 80.152344 292.707031 L 48.367188 292.707031 C 38.703125 292.707031 30.558594 298.917969 28.683594 307.269531 C 37.984375 316.035156 50.5 321.425781 64.261719 321.425781 Z M 64.257812 276.914062 C 75.652344 276.914062 79.339844 262.039062 79.339844 254.835938 C 79.339844 246.519531 72.574219 239.753906 64.257812 239.753906 C 55.945312 239.753906 49.179688 246.519531 49.179688 254.835938 C 49.179688 264.003906 53.859375 276.914062 64.257812 276.914062 Z M 64.257812 217.585938 C 35.632812 217.585938 12.339844 240.878906 12.339844 269.503906 C 12.339844 279.332031 15.085938 288.53125 19.851562 296.375 C 24.9375 287.546875 34.496094 281.378906 45.578125 280.484375 C 39.835938 273.785156 36.839844 264.148438 36.839844 254.835938 C 36.839844 239.714844 49.140625 227.414062 64.257812 227.414062 C 79.378906 227.414062 91.679688 239.714844 91.679688 254.835938 C 91.679688 264.148438 88.683594 273.785156 82.9375 280.484375 C 94.023438 281.375 103.585938 287.539062 108.679688 296.359375 C 113.4375 288.519531 116.179688 279.328125 116.179688 269.503906 C 116.179688 240.878906 92.886719 217.585938 64.257812 217.585938 Z M 258.667969 269.503906 C 258.667969 279.332031 261.414062 288.527344 266.171875 296.371094 C 271.269531 287.546875 280.832031 281.378906 291.90625 280.484375 C 286.164062 273.785156 283.164062 264.148438 283.164062 254.835938 C 283.164062 239.714844 295.464844 227.414062 310.585938 227.414062 C 325.707031 227.414062 338.007812 239.714844 338.007812 254.835938 C 338.007812 264.148438 335.007812 273.785156 329.265625 280.484375 C 340.339844 281.378906 349.902344 287.546875 355 296.371094 C 359.761719 288.527344 362.503906 279.332031 362.503906 269.503906 C 362.503906 240.878906 339.214844 217.585938 310.585938 217.585938 C 281.957031 217.585938 258.667969 240.878906 258.667969 269.503906 Z M 310.585938 276.914062 C 321.980469 276.914062 325.667969 262.039062 325.667969 254.835938 C 325.667969 246.519531 318.902344 239.753906 310.585938 239.753906 C 302.269531 239.753906 295.503906 246.519531 295.503906 254.835938 C 295.503906 264.003906 300.183594 276.914062 310.585938 276.914062 Z M 310.585938 321.425781 C 324.351562 321.425781 336.875 316.03125 346.175781 307.253906 C 344.277344 298.914062 336.128906 292.707031 326.480469 292.707031 L 294.691406 292.707031 C 285.039062 292.707031 276.894531 298.914062 274.996094 307.253906 C 284.296875 316.03125 296.820312 321.425781 310.585938 321.425781 Z M 310.585938 321.425781 " fill-opacity="1" fill-rule="nonzero"/><path fill="#0b1972" d="M 272.960938 340.464844 C 274.609375 343.449219 273.527344 347.199219 270.542969 348.847656 C 245.25 362.808594 216.507812 370.1875 187.433594 370.1875 C 163.230469 370.1875 139.277344 365.0625 117.339844 355.308594 L 119.683594 363.011719 C 120.671875 366.269531 118.832031 369.71875 115.574219 370.710938 C 114.976562 370.890625 114.371094 370.976562 113.777344 370.976562 C 111.128906 370.976562 108.683594 369.261719 107.875 366.601562 L 101.382812 345.242188 C 100.90625 343.675781 101.070312 341.984375 101.84375 340.539062 C 102.613281 339.09375 103.929688 338.015625 105.496094 337.542969 L 126.855469 331.070312 C 130.121094 330.082031 133.5625 331.925781 134.550781 335.183594 C 135.539062 338.445312 133.695312 341.890625 130.433594 342.878906 L 124.082031 344.804688 C 143.972656 353.367188 165.59375 357.847656 187.433594 357.847656 C 214.429688 357.847656 241.109375 351 264.582031 338.042969 C 267.5625 336.398438 271.316406 337.480469 272.964844 340.464844 Z M 21.789062 201.734375 C 21.828125 201.734375 21.871094 201.738281 21.914062 201.738281 C 25.261719 201.738281 28.011719 199.054688 28.082031 195.691406 C 28.621094 168.875 36.03125 142.351562 49.511719 118.984375 C 60.425781 100.089844 75.121094 83.605469 92.480469 70.652344 L 90.976562 77.117188 C 90.207031 80.433594 92.273438 83.75 95.589844 84.523438 C 96.0625 84.632812 96.53125 84.683594 96.992188 84.683594 C 99.796875 84.683594 102.335938 82.757812 103 79.910156 L 108.050781 58.175781 C 108.820312 54.859375 106.753906 51.542969 103.4375 50.769531 L 81.726562 45.71875 C 78.40625 44.949219 75.089844 47.011719 74.320312 50.332031 C 73.546875 53.652344 75.613281 56.96875 78.929688 57.738281 L 86.753906 59.558594 C 67.335938 73.691406 50.921875 91.875 38.824219 112.8125 C 24.304688 137.976562 16.324219 166.550781 15.742188 195.441406 C 15.675781 198.847656 18.378906 201.664062 21.789062 201.734375 Z M 269.613281 62.0625 C 292.601562 75.957031 311.867188 95.640625 325.335938 118.984375 C 336.253906 137.886719 343.1875 158.851562 345.714844 180.363281 L 340.863281 175.824219 C 338.375 173.496094 334.46875 173.625 332.140625 176.113281 C 329.8125 178.601562 329.941406 182.507812 332.429688 184.832031 L 348.71875 200.070312 C 349.910156 201.1875 351.421875 201.738281 352.933594 201.738281 C 354.582031 201.738281 356.222656 201.082031 357.4375 199.785156 L 372.675781 183.519531 C 375.007812 181.03125 374.878906 177.125 372.390625 174.796875 C 369.90625 172.46875 366 172.59375 363.667969 175.082031 L 358.179688 180.941406 C 355.664062 157.0625 348.121094 133.757812 336.023438 112.816406 C 321.519531 87.671875 300.761719 66.472656 276 51.5 C 273.082031 49.738281 269.289062 50.671875 267.527344 53.589844 C 265.765625 56.507812 266.699219 60.300781 269.617188 62.0625 Z M 374.847656 269.507812 C 374.847656 304.9375 346.019531 333.765625 310.585938 333.765625 C 275.15625 333.765625 246.328125 304.9375 246.328125 269.507812 C 246.328125 236.101562 271.949219 208.582031 304.570312 205.539062 L 304.570312 176.703125 L 70.605469 176.703125 L 70.605469 205.5625 C 103.070312 208.761719 128.519531 236.214844 128.519531 269.507812 C 128.519531 304.9375 99.691406 333.765625 64.261719 333.765625 C 28.828125 333.765625 0 304.9375 0 269.507812 C 0 236.097656 25.632812 208.570312 58.265625 205.535156 L 58.265625 170.535156 C 58.265625 167.128906 61.027344 164.363281 64.433594 164.363281 L 181.417969 164.363281 L 181.417969 132.25 C 148.796875 129.207031 123.175781 101.6875 123.175781 68.28125 C 123.175781 32.851562 152 4.023438 187.433594 4.023438 C 222.867188 4.023438 251.691406 32.851562 251.691406 68.28125 C 251.691406 101.582031 226.234375 129.042969 193.757812 132.226562 L 193.757812 164.363281 L 310.738281 164.363281 C 314.144531 164.363281 316.910156 167.128906 316.910156 170.535156 L 316.910156 205.5625 C 349.382812 208.75 374.84375 236.207031 374.84375 269.507812 Z M 187.433594 75.667969 C 198.828125 75.667969 202.515625 60.808594 202.515625 53.613281 C 202.515625 45.296875 195.75 38.53125 187.433594 38.53125 C 179.117188 38.53125 172.332031 45.296875 172.332031 53.613281 C 172.332031 62.769531 177.015625 75.667969 187.433594 75.667969 Z M 151.839844 106.027344 C 161.140625 114.804688 173.664062 120.203125 187.433594 120.203125 C 201.203125 120.203125 213.710938 114.8125 223.007812 106.042969 C 221.136719 97.683594 212.992188 91.460938 203.328125 91.460938 L 171.539062 91.460938 C 161.871094 91.460938 153.71875 97.675781 151.839844 106.027344 Z M 135.515625 68.28125 C 135.515625 78.101562 138.253906 87.292969 143.011719 95.132812 C 148.101562 86.304688 157.65625 80.140625 168.734375 79.242188 C 162.988281 72.546875 159.992188 62.917969 159.992188 53.613281 C 159.992188 38.492188 172.300781 26.191406 187.433594 26.191406 C 202.566406 26.191406 214.855469 38.492188 214.855469 53.613281 C 214.855469 62.917969 211.859375 72.546875 206.117188 79.242188 C 217.199219 80.136719 226.757812 86.3125 231.84375 95.148438 C 236.605469 87.304688 239.351562 78.109375 239.351562 68.28125 C 239.351562 39.652344 216.0625 16.363281 187.433594 16.363281 C 158.804688 16.363281 135.515625 39.652344 135.515625 68.28125 Z M 64.257812 321.425781 C 78.027344 321.425781 90.550781 316.027344 99.851562 307.25 C 97.972656 298.910156 89.820312 292.707031 80.152344 292.707031 L 48.367188 292.707031 C 38.703125 292.707031 30.558594 298.917969 28.683594 307.269531 C 37.984375 316.035156 50.5 321.425781 64.261719 321.425781 Z M 64.257812 276.914062 C 75.652344 276.914062 79.339844 262.039062 79.339844 254.835938 C 79.339844 246.519531 72.574219 239.753906 64.257812 239.753906 C 55.945312 239.753906 49.179688 246.519531 49.179688 254.835938 C 49.179688 264.003906 53.859375 276.914062 64.257812 276.914062 Z M 64.257812 217.585938 C 35.632812 217.585938 12.339844 240.878906 12.339844 269.503906 C 12.339844 279.332031 15.085938 288.53125 19.851562 296.375 C 24.9375 287.546875 34.496094 281.378906 45.578125 280.484375 C 39.835938 273.785156 36.839844 264.148438 36.839844 254.835938 C 36.839844 239.714844 49.140625 227.414062 64.257812 227.414062 C 79.378906 227.414062 91.679688 239.714844 91.679688 254.835938 C 91.679688 264.148438 88.683594 273.785156 82.9375 280.484375 C 94.023438 281.375 103.585938 287.539062 108.679688 296.359375 C 113.4375 288.519531 116.179688 279.328125 116.179688 269.503906 C 116.179688 240.878906 92.886719 217.585938 64.257812 217.585938 Z M 258.667969 269.503906 C 258.667969 279.332031 261.414062 288.527344 266.171875 296.371094 C 271.269531 287.546875 280.832031 281.378906 291.90625 280.484375 C 286.164062 273.785156 283.164062 264.148438 283.164062 254.835938 C 283.164062 239.714844 295.464844 227.414062 310.585938 227.414062 C 325.707031 227.414062 338.007812 239.714844 338.007812 254.835938 C 338.007812 264.148438 335.007812 273.785156 329.265625 280.484375 C 340.339844 281.378906 349.902344 287.546875 355 296.371094 C 359.761719 288.527344 362.503906 279.332031 362.503906 269.503906 C 362.503906 240.878906 339.214844 217.585938 310.585938 217.585938 C 281.957031 217.585938 258.667969 240.878906 258.667969 269.503906 Z M 310.585938 276.914062 C 321.980469 276.914062 325.667969 262.039062 325.667969 254.835938 C 325.667969 246.519531 318.902344 239.753906 310.585938 239.753906 C 302.269531 239.753906 295.503906 246.519531 295.503906 254.835938 C 295.503906 264.003906 300.183594 276.914062 310.585938 276.914062 Z M 310.585938 321.425781 C 324.351562 321.425781 336.875 316.03125 346.175781 307.253906 C 344.277344 298.914062 336.128906 292.707031 326.480469 292.707031 L 294.691406 292.707031 C 285.039062 292.707031 276.894531 298.914062 274.996094 307.253906 C 284.296875 316.03125 296.820312 321.425781 310.585938 321.425781 Z M 310.585938 321.425781 " fill-opacity="1" fill-rule="nonzero"/></svg>