<svg xmlns="http://www.w3.org/2000/svg" xmlns:xlink="http://www.w3.org/1999/xlink" width="500" zoomAndPan="magnify" viewBox="0 0 375 374.999991" height="500" preserveAspectRatio="xMidYMid meet" version="1.0"><defs><clipPath id="f6cc4122f8"><path d="M 187.5 0 C 83.945312 0 0 83.945312 0 187.5 C 0 291.054688 83.945312 375 187.5 375 C 291.054688 375 375 291.054688 375 187.5 C 375 83.945312 291.054688 0 187.5 0 Z M 187.5 0 " clip-rule="nonzero"/></clipPath><clipPath id="d7deef1a29"><path d="M 0 0 L 375 0 L 375 375 L 0 375 Z M 0 0 " clip-rule="nonzero"/></clipPath><clipPath id="80bab03ab7"><path d="M 187.5 0 C 83.945312 0 0 83.945312 0 187.5 C 0 291.054688 83.945312 375 187.5 375 C 291.054688 375 375 291.054688 375 187.5 C 375 83.945312 291.054688 0 187.5 0 Z M 187.5 0 " clip-rule="nonzero"/></clipPath><clipPath id="af8e1337c6"><rect x="0" width="375" y="0" height="375"/></clipPath><clipPath id="abd731d6fa"><path d="M 53.707031 88.59375 L 321.457031 88.59375 L 321.457031 263.34375 L 53.707031 263.34375 Z M 53.707031 88.59375 " clip-rule="nonzero"/></clipPath></defs><g clip-path="url(#f6cc4122f8)"><g transform="matrix(1, 0, 0, 1, 0, 0)"><g clip-path="url(#af8e1337c6)"><g clip-path="url(#d7deef1a29)"><g clip-path="url(#80bab03ab7)"><rect x="-82.5" width="540" fill="#e6ac41" height="539.999987" y="-82.499998" fill-opacity="1"/></g></g></g></g></g><g clip-path="url(#abd731d6fa)"><path fill="#ffffff" d="M 278.800781 181.894531 L 212.613281 181.894531 C 210.777344 181.894531 209.285156 183.386719 209.285156 185.222656 L 209.285156 229.492188 C 209.285156 231.328125 210.777344 232.820312 212.613281 232.820312 L 278.800781 232.820312 C 280.636719 232.820312 282.128906 231.328125 282.128906 229.492188 L 282.128906 185.222656 C 282.128906 183.386719 280.636719 181.894531 278.800781 181.894531 Z M 275.472656 226.160156 L 215.941406 226.160156 L 215.941406 188.546875 L 275.472656 188.546875 Z M 221.851562 196.796875 C 221.851562 194.960938 223.34375 193.46875 225.179688 193.46875 L 234.292969 193.46875 C 235.757812 193.46875 237.046875 194.429688 237.476562 195.828125 L 243.183594 214.578125 L 256.570312 214.578125 L 261.289062 202.960938 L 246.300781 202.960938 C 244.464844 202.960938 242.972656 201.46875 242.972656 199.632812 C 242.972656 197.796875 244.464844 196.304688 246.300781 196.304688 L 266.234375 196.304688 C 267.34375 196.304688 268.375 196.851562 268.996094 197.773438 C 269.609375 198.695312 269.730469 199.859375 269.316406 200.886719 L 261.894531 219.160156 C 261.386719 220.414062 260.164062 221.234375 258.8125 221.234375 L 240.71875 221.234375 C 239.257812 221.234375 237.964844 220.273438 237.535156 218.875 L 231.828125 200.125 L 225.179688 200.125 C 223.34375 200.125 221.851562 198.632812 221.851562 196.796875 Z M 321.160156 124.96875 L 321.160156 120.886719 C 321.160156 116.484375 317.578125 112.902344 313.175781 112.902344 L 299.109375 112.902344 L 288.472656 90.503906 C 287.921875 89.347656 286.753906 88.601562 285.464844 88.601562 L 149.769531 88.582031 C 148.492188 88.582031 147.328125 89.3125 146.773438 90.460938 L 135.9375 112.902344 L 126.265625 112.902344 C 121.859375 112.902344 118.277344 116.484375 118.277344 120.886719 L 118.277344 122.496094 C 82.449219 124.238281 53.832031 153.929688 53.832031 190.1875 C 53.832031 226.441406 82.445312 256.136719 118.277344 257.878906 L 118.277344 260.207031 C 118.277344 262.042969 119.769531 263.535156 121.605469 263.535156 L 317.828125 263.535156 C 319.664062 263.535156 321.15625 262.042969 321.15625 260.207031 L 321.15625 242.304688 C 321.15625 240.46875 319.664062 238.976562 317.828125 238.976562 L 316.613281 238.976562 L 316.613281 132.167969 C 319.292969 130.882812 321.15625 128.140625 321.15625 124.976562 Z M 291.746094 112.902344 L 276.277344 112.902344 L 267.894531 95.257812 L 283.363281 95.257812 C 283.363281 95.257812 291.746094 112.902344 291.746094 112.902344 Z M 189.183594 95.242188 L 189.183594 112.894531 L 166.445312 112.894531 L 174.832031 95.238281 L 189.183594 95.238281 Z M 195.839844 95.246094 L 214.785156 95.246094 L 214.785156 112.902344 L 195.839844 112.902344 Z M 221.441406 95.246094 L 240.386719 95.246094 L 240.386719 112.894531 L 221.441406 112.894531 Z M 247.039062 95.253906 L 260.527344 95.253906 C 260.527344 95.253906 268.90625 112.902344 268.90625 112.902344 L 247.039062 112.902344 Z M 151.859375 95.238281 L 167.460938 95.238281 C 167.460938 95.238281 159.074219 112.894531 159.074219 112.894531 L 143.328125 112.894531 Z M 126.265625 119.554688 L 161.160156 119.554688 C 161.160156 119.554688 161.171875 119.554688 161.175781 119.554688 C 161.175781 119.554688 161.183594 119.554688 161.1875 119.554688 L 274.164062 119.554688 C 274.164062 119.554688 274.167969 119.554688 274.175781 119.554688 C 274.175781 119.554688 274.1875 119.554688 274.191406 119.554688 L 297.003906 119.554688 C 297.003906 119.554688 297.007812 119.554688 297.015625 119.554688 C 297.015625 119.554688 297.023438 119.554688 297.03125 119.554688 L 313.179688 119.554688 C 313.902344 119.554688 314.511719 120.167969 314.511719 120.886719 L 314.511719 124.96875 C 314.511719 125.691406 313.902344 126.300781 313.179688 126.300781 L 144.226562 126.300781 C 138.148438 124.144531 131.671875 122.824219 124.9375 122.496094 L 124.9375 120.886719 C 124.9375 120.167969 125.546875 119.554688 126.269531 119.554688 Z M 168.605469 238.96875 C 181.402344 226.636719 189.386719 209.328125 189.386719 190.1875 C 189.386719 183.535156 188.421875 177.109375 186.625 171.03125 C 186.972656 170.636719 187.3125 170.230469 187.621094 169.808594 C 190.710938 173.980469 195.664062 176.6875 201.242188 176.6875 C 207.488281 176.6875 212.707031 174.121094 215.882812 169.941406 C 219.0625 174.121094 224.277344 176.6875 230.527344 176.6875 C 236.101562 176.6875 241.054688 173.980469 244.140625 169.816406 C 247.230469 173.980469 252.183594 176.6875 257.757812 176.6875 C 264.003906 176.6875 269.222656 174.121094 272.398438 169.941406 C 275.578125 174.121094 280.792969 176.6875 287.042969 176.6875 C 287.332031 176.6875 287.617188 176.683594 287.90625 176.664062 L 287.90625 238.96875 Z M 212.546875 132.949219 L 212.546875 159.738281 C 212.546875 166.808594 206.683594 170.027344 201.230469 170.027344 C 195.78125 170.027344 190.945312 165.410156 190.945312 159.738281 L 190.945312 132.949219 Z M 240.804688 132.949219 L 240.804688 159.738281 C 240.804688 165.410156 236.1875 170.027344 230.515625 170.027344 C 224.839844 170.027344 219.203125 166.804688 219.203125 159.738281 L 219.203125 132.949219 Z M 269.0625 132.949219 L 269.0625 159.738281 C 269.0625 166.808594 263.199219 170.027344 257.746094 170.027344 C 252.296875 170.027344 247.457031 165.410156 247.457031 159.738281 L 247.457031 132.949219 Z M 184.292969 159.742188 C 184.292969 160.898438 184.09375 162.023438 183.726562 163.09375 C 178.289062 150.664062 169.21875 140.171875 157.878906 132.957031 L 184.300781 132.957031 L 184.300781 159.742188 Z M 287.03125 170.03125 C 281.585938 170.03125 275.714844 166.808594 275.714844 159.742188 L 275.714844 132.957031 L 297.320312 132.957031 L 297.320312 159.742188 C 297.320312 165.417969 292.703125 170.03125 287.03125 170.03125 Z M 60.492188 190.179688 C 60.492188 156.484375 87.90625 129.0625 121.609375 129.0625 C 155.316406 129.0625 182.730469 156.476562 182.730469 190.179688 C 182.730469 223.886719 155.316406 251.300781 121.609375 251.300781 C 87.90625 251.300781 60.492188 223.886719 60.492188 190.179688 Z M 314.507812 256.875 L 133.707031 256.875 C 143.550781 255.09375 152.664062 251.175781 160.546875 245.625 L 314.507812 245.625 Z M 294.546875 238.96875 L 294.546875 174.921875 C 300.125 172.152344 303.972656 166.386719 303.972656 159.742188 L 303.972656 132.957031 L 309.964844 132.957031 L 309.964844 238.96875 Z M 169.101562 223.707031 C 170.152344 222.109375 170.316406 220.1875 169.558594 218.433594 L 161.066406 198.8125 L 161.066406 154.523438 C 161.066406 150.191406 157.542969 146.664062 153.214844 146.664062 L 90.003906 146.664062 C 85.671875 146.664062 82.144531 150.1875 82.144531 154.523438 L 82.144531 198.8125 L 73.652344 218.433594 C 72.894531 220.1875 73.058594 222.109375 74.109375 223.707031 C 75.15625 225.304688 76.855469 226.21875 78.765625 226.21875 L 164.433594 226.21875 C 166.347656 226.21875 168.042969 225.304688 169.089844 223.707031 Z M 88.804688 154.519531 C 88.804688 153.871094 89.355469 153.316406 90.007812 153.316406 L 153.21875 153.316406 C 153.867188 153.316406 154.417969 153.863281 154.417969 154.519531 L 154.417969 196.164062 L 88.804688 196.164062 Z M 80.417969 219.566406 L 87.664062 202.820312 L 155.554688 202.820312 L 162.796875 219.566406 Z M 136.636719 215.722656 C 135.882812 216.667969 134.746094 217.214844 133.507812 217.214844 L 109.71875 217.214844 C 108.484375 217.214844 107.339844 216.667969 106.59375 215.722656 C 105.648438 214.527344 105.5 212.960938 106.199219 211.621094 L 108.632812 206.957031 C 109.480469 205.328125 111.496094 204.695312 113.121094 205.550781 C 114.75 206.398438 115.382812 208.410156 114.527344 210.035156 L 114.257812 210.558594 L 128.964844 210.558594 L 128.695312 210.035156 C 127.84375 208.40625 128.476562 206.398438 130.101562 205.550781 C 131.734375 204.699219 133.742188 205.332031 134.589844 206.957031 L 137.023438 211.621094 C 137.722656 212.960938 137.574219 214.527344 136.628906 215.714844 Z M 136.636719 215.722656 " fill-opacity="1" fill-rule="nonzero"/></g></svg>