<svg xmlns="http://www.w3.org/2000/svg" xmlns:xlink="http://www.w3.org/1999/xlink" width="500" zoomAndPan="magnify" viewBox="0 0 375 374.999991" height="500" preserveAspectRatio="xMidYMid meet" version="1.0"><defs><clipPath id="0202725c4a"><path d="M 187.5 0 C 83.945312 0 0 83.945312 0 187.5 C 0 291.054688 83.945312 375 187.5 375 C 291.054688 375 375 291.054688 375 187.5 C 375 83.945312 291.054688 0 187.5 0 Z M 187.5 0 " clip-rule="nonzero"/></clipPath><clipPath id="8c809158af"><path d="M 0 0 L 375 0 L 375 375 L 0 375 Z M 0 0 " clip-rule="nonzero"/></clipPath><clipPath id="22843f6944"><path d="M 187.5 0 C 83.945312 0 0 83.945312 0 187.5 C 0 291.054688 83.945312 375 187.5 375 C 291.054688 375 375 291.054688 375 187.5 C 375 83.945312 291.054688 0 187.5 0 Z M 187.5 0 " clip-rule="nonzero"/></clipPath><clipPath id="019d16fa57"><rect x="0" width="375" y="0" height="375"/></clipPath><clipPath id="572a345d4b"><path d="M 104 237 L 276 237 L 276 306.3125 L 104 306.3125 Z M 104 237 " clip-rule="nonzero"/></clipPath><clipPath id="43cc1e1d73"><path d="M 63.769531 218 L 82 218 L 82 295 L 63.769531 295 Z M 63.769531 218 " clip-rule="nonzero"/></clipPath><clipPath id="359dce99d0"><path d="M 63.769531 218 L 110 218 L 110 295 L 63.769531 295 Z M 63.769531 218 " clip-rule="nonzero"/></clipPath><clipPath id="d1f027dec1"><path d="M 99 68.5625 L 271 68.5625 L 271 138 L 99 138 Z M 99 68.5625 " clip-rule="nonzero"/></clipPath><clipPath id="de21d09d16"><path d="M 293 80 L 311.265625 80 L 311.265625 157 L 293 157 Z M 293 80 " clip-rule="nonzero"/></clipPath><clipPath id="604e2084b7"><path d="M 265 80 L 311.265625 80 L 311.265625 157 L 265 157 Z M 265 80 " clip-rule="nonzero"/></clipPath></defs><g clip-path="url(#0202725c4a)"><g transform="matrix(1, 0, 0, 1, 0, 0)"><g clip-path="url(#019d16fa57)"><g clip-path="url(#8c809158af)"><g clip-path="url(#22843f6944)"><rect x="-82.5" width="540" fill="#e6ac41" height="539.999987" y="-82.499998" fill-opacity="1"/></g></g></g></g></g><path fill="#ffffff" d="M 195.710938 266.25 L 161.394531 266.25 C 159.945312 266.25 158.980469 265.285156 158.980469 263.835938 C 158.980469 262.382812 159.945312 261.417969 161.394531 261.417969 L 195.710938 261.417969 C 201.027344 261.417969 205.375 257.066406 205.375 251.75 C 205.375 246.433594 201.027344 241.601562 195.710938 241.601562 L 169.128906 241.601562 C 160.429688 241.601562 152.695312 239.183594 144.480469 236.285156 C 134.8125 232.417969 123.214844 228.550781 106.78125 228.550781 C 105.332031 228.550781 104.367188 227.585938 104.367188 226.136719 C 104.367188 224.6875 105.332031 223.71875 106.78125 223.71875 C 124.179688 223.71875 135.78125 228.070312 146.414062 231.453125 C 154.144531 234.351562 160.914062 236.769531 169.128906 236.769531 L 195.710938 236.769531 C 203.925781 236.769531 210.210938 243.535156 210.210938 251.75 C 210.210938 259.484375 203.925781 266.25 195.710938 266.25 Z M 195.710938 266.25 " fill-opacity="1" fill-rule="evenodd"/><path fill="#ffffff" d="M 149.796875 274.949219 C 149.3125 274.949219 149.3125 274.949219 148.828125 274.949219 C 147.863281 274.46875 146.894531 273.015625 147.378906 272.050781 C 149.3125 265.765625 155.113281 261.417969 161.394531 261.417969 C 162.84375 261.417969 163.8125 262.382812 163.8125 263.835938 C 163.8125 265.285156 162.84375 266.25 161.394531 266.25 C 157.046875 266.25 153.179688 269.152344 152.210938 273.5 C 151.730469 274.46875 150.761719 274.949219 149.796875 274.949219 Z M 149.796875 274.949219 " fill-opacity="1" fill-rule="evenodd"/><g clip-path="url(#572a345d4b)"><path fill="#ffffff" d="M 176.378906 306.363281 C 166.230469 306.363281 156.078125 302.015625 146.414062 298.148438 C 143.511719 296.699219 140.613281 295.730469 137.714844 294.765625 L 136.261719 293.800781 C 126.597656 290.414062 117.414062 287.03125 106.78125 287.03125 C 105.332031 287.03125 104.367188 286.066406 104.367188 284.617188 C 104.367188 283.167969 105.332031 282.199219 106.78125 282.199219 C 117.898438 282.199219 127.5625 285.582031 137.714844 289.449219 L 139.648438 289.933594 C 142.546875 290.898438 144.964844 292.347656 148.347656 293.800781 C 160.914062 298.632812 175.410156 304.914062 186.527344 299.117188 L 264.339844 260.449219 C 268.691406 258.519531 272.074219 253.203125 270.140625 247.886719 C 268.207031 243.050781 262.40625 240.636719 257.574219 242.570312 L 206.34375 261.417969 C 204.894531 261.902344 203.441406 260.933594 202.960938 259.96875 C 202.476562 258.519531 203.441406 257.066406 204.410156 256.585938 L 256.125 238.21875 C 263.375 235.320312 271.589844 239.183594 274.488281 246.433594 C 277.390625 253.203125 274.007812 261.417969 266.273438 264.800781 L 188.460938 303.464844 C 184.59375 305.398438 180.726562 306.363281 176.378906 306.363281 Z M 176.378906 306.363281 " fill-opacity="1" fill-rule="evenodd"/></g><g clip-path="url(#43cc1e1d73)"><path fill="#ffffff" d="M 79.234375 294.28125 L 68.601562 294.28125 C 66.183594 294.28125 63.769531 291.867188 63.769531 289.449219 L 63.769531 223.238281 C 63.769531 220.335938 66.183594 218.402344 68.601562 218.402344 L 79.234375 218.402344 C 80.683594 218.402344 81.648438 219.371094 81.648438 220.820312 L 81.648438 291.867188 C 81.648438 293.316406 80.683594 294.28125 79.234375 294.28125 Z M 68.601562 223.238281 L 68.601562 289.449219 L 76.816406 289.449219 L 76.816406 223.238281 Z M 68.601562 223.238281 " fill-opacity="1" fill-rule="evenodd"/></g><path fill="#ffffff" d="M 87.449219 241.601562 L 79.234375 241.601562 C 77.785156 241.601562 76.816406 240.152344 76.816406 239.183594 C 76.816406 237.734375 77.785156 236.769531 79.234375 236.769531 L 87.449219 236.769531 C 88.417969 236.769531 89.867188 237.734375 89.867188 239.183594 C 89.867188 240.152344 88.417969 241.601562 87.449219 241.601562 Z M 87.449219 241.601562 " fill-opacity="1" fill-rule="evenodd"/><path fill="#ffffff" d="M 87.449219 258.519531 L 79.234375 258.519531 C 77.785156 258.519531 76.816406 257.550781 76.816406 256.101562 C 76.816406 255.132812 77.785156 253.683594 79.234375 253.683594 L 87.449219 253.683594 C 88.417969 253.683594 89.867188 255.132812 89.867188 256.101562 C 89.867188 257.550781 88.417969 258.519531 87.449219 258.519531 Z M 87.449219 258.519531 " fill-opacity="1" fill-rule="evenodd"/><path fill="#ffffff" d="M 87.449219 275.917969 L 79.234375 275.917969 C 77.785156 275.917969 76.816406 274.949219 76.816406 273.5 C 76.816406 272.050781 77.785156 271.082031 79.234375 271.082031 L 87.449219 271.082031 C 88.417969 271.082031 89.867188 272.050781 89.867188 273.5 C 89.867188 274.949219 88.417969 275.917969 87.449219 275.917969 Z M 87.449219 275.917969 " fill-opacity="1" fill-rule="evenodd"/><g clip-path="url(#359dce99d0)"><path fill="#ffffff" d="M 103.882812 294.28125 L 68.601562 294.28125 C 66.183594 294.28125 63.769531 291.867188 63.769531 289.449219 L 63.769531 223.238281 C 63.769531 220.335938 66.183594 218.402344 68.601562 218.402344 L 103.882812 218.402344 C 106.78125 218.402344 109.199219 220.335938 109.199219 223.238281 L 109.199219 289.449219 C 109.199219 291.867188 106.78125 294.28125 103.882812 294.28125 Z M 68.601562 223.238281 L 68.601562 289.449219 L 103.882812 289.449219 C 104.367188 289.449219 104.367188 289.449219 104.367188 289.449219 L 104.367188 223.238281 C 104.367188 223.238281 104.367188 223.238281 103.882812 223.238281 Z M 68.601562 223.238281 " fill-opacity="1" fill-rule="evenodd"/></g><path fill="#ffffff" d="M 268.207031 151.222656 C 250.808594 151.222656 239.207031 146.875 228.574219 143.492188 C 220.84375 140.589844 214.074219 138.175781 205.859375 138.175781 L 179.277344 138.175781 C 171.0625 138.175781 164.777344 131.40625 164.777344 123.191406 C 164.777344 115.457031 171.0625 108.691406 179.277344 108.691406 L 213.59375 108.691406 C 215.042969 108.691406 216.007812 109.660156 216.007812 111.109375 C 216.007812 112.558594 215.042969 113.527344 213.59375 113.527344 L 179.277344 113.527344 C 173.960938 113.527344 169.613281 117.875 169.613281 123.191406 C 169.613281 128.507812 173.960938 133.339844 179.277344 133.339844 L 205.859375 133.339844 C 214.558594 133.339844 222.292969 135.757812 230.507812 138.65625 C 240.175781 142.523438 251.773438 146.390625 268.207031 146.390625 C 269.65625 146.390625 270.621094 147.355469 270.621094 148.808594 C 270.621094 150.257812 269.65625 151.222656 268.207031 151.222656 Z M 268.207031 151.222656 " fill-opacity="1" fill-rule="evenodd"/><path fill="#ffffff" d="M 213.59375 113.527344 C 212.144531 113.527344 211.175781 112.558594 211.175781 111.109375 C 211.175781 109.660156 212.144531 108.691406 213.59375 108.691406 C 217.941406 108.691406 221.808594 105.792969 222.777344 101.441406 C 223.257812 100.476562 224.707031 99.511719 226.160156 99.992188 C 227.125 100.476562 228.09375 101.925781 227.609375 102.894531 C 225.675781 109.175781 219.875 113.527344 213.59375 113.527344 Z M 213.59375 113.527344 " fill-opacity="1" fill-rule="evenodd"/><g clip-path="url(#d1f027dec1)"><path fill="#ffffff" d="M 114.03125 137.691406 C 108.230469 137.691406 102.433594 134.308594 100.5 128.507812 C 97.597656 121.742188 100.980469 113.527344 108.714844 110.140625 L 186.527344 71.476562 C 199.578125 64.710938 215.042969 71.476562 228.574219 76.792969 C 231.476562 78.246094 234.375 79.210938 237.273438 80.175781 L 238.726562 81.144531 C 248.390625 84.527344 257.574219 87.910156 268.207031 87.910156 C 269.65625 87.910156 270.621094 88.878906 270.621094 90.328125 C 270.621094 91.777344 269.65625 92.742188 268.207031 92.742188 C 257.089844 92.742188 247.425781 89.359375 237.273438 85.492188 L 235.339844 85.011719 C 232.441406 84.042969 230.023438 82.59375 226.640625 81.144531 C 214.074219 76.3125 199.578125 70.027344 188.460938 75.828125 L 110.648438 114.492188 C 106.296875 116.425781 102.914062 121.742188 104.847656 127.058594 C 106.78125 131.890625 112.582031 134.308594 117.414062 132.375 L 168.644531 113.527344 C 170.09375 113.042969 171.546875 114.007812 172.027344 114.976562 C 172.511719 116.425781 171.546875 117.875 170.578125 118.359375 L 118.863281 136.722656 C 117.414062 137.691406 115.964844 137.691406 114.03125 137.691406 Z M 114.03125 137.691406 " fill-opacity="1" fill-rule="evenodd"/></g><g clip-path="url(#de21d09d16)"><path fill="#ffffff" d="M 306.386719 156.539062 L 295.753906 156.539062 C 294.304688 156.539062 293.339844 155.574219 293.339844 154.125 L 293.339844 83.078125 C 293.339844 81.628906 294.304688 80.660156 295.753906 80.660156 L 306.386719 80.660156 C 308.804688 80.660156 311.21875 83.078125 311.21875 85.492188 L 311.21875 151.707031 C 311.21875 154.605469 308.804688 156.539062 306.386719 156.539062 Z M 298.171875 151.707031 L 306.386719 151.707031 L 306.386719 85.492188 L 298.171875 85.492188 Z M 298.171875 151.707031 " fill-opacity="1" fill-rule="evenodd"/></g><path fill="#ffffff" d="M 295.753906 138.175781 L 287.539062 138.175781 C 286.570312 138.175781 285.121094 137.207031 285.121094 135.757812 C 285.121094 134.792969 286.570312 133.339844 287.539062 133.339844 L 295.753906 133.339844 C 297.203125 133.339844 298.171875 134.792969 298.171875 135.757812 C 298.171875 137.207031 297.203125 138.175781 295.753906 138.175781 Z M 295.753906 138.175781 " fill-opacity="1" fill-rule="evenodd"/><path fill="#ffffff" d="M 295.753906 121.257812 L 287.539062 121.257812 C 286.570312 121.257812 285.121094 119.808594 285.121094 118.84375 C 285.121094 117.390625 286.570312 116.425781 287.539062 116.425781 L 295.753906 116.425781 C 297.203125 116.425781 298.171875 117.390625 298.171875 118.84375 C 298.171875 119.808594 297.203125 121.257812 295.753906 121.257812 Z M 295.753906 121.257812 " fill-opacity="1" fill-rule="evenodd"/><path fill="#ffffff" d="M 295.753906 103.859375 L 287.539062 103.859375 C 286.570312 103.859375 285.121094 102.894531 285.121094 101.441406 C 285.121094 99.992188 286.570312 99.027344 287.539062 99.027344 L 295.753906 99.027344 C 297.203125 99.027344 298.171875 99.992188 298.171875 101.441406 C 298.171875 102.894531 297.203125 103.859375 295.753906 103.859375 Z M 295.753906 103.859375 " fill-opacity="1" fill-rule="evenodd"/><g clip-path="url(#604e2084b7)"><path fill="#ffffff" d="M 306.386719 156.539062 L 271.105469 156.539062 C 268.207031 156.539062 265.789062 154.605469 265.789062 151.707031 L 265.789062 85.492188 C 265.789062 83.078125 268.207031 80.660156 271.105469 80.660156 L 306.386719 80.660156 C 308.804688 80.660156 311.21875 83.078125 311.21875 85.492188 L 311.21875 151.707031 C 311.21875 154.605469 308.804688 156.539062 306.386719 156.539062 Z M 271.105469 85.492188 C 270.621094 85.492188 270.621094 85.492188 270.621094 85.492188 L 270.621094 151.707031 C 270.621094 151.707031 270.621094 151.707031 271.105469 151.707031 L 306.386719 151.707031 L 306.386719 85.492188 Z M 271.105469 85.492188 " fill-opacity="1" fill-rule="evenodd"/></g><path fill="#ffffff" d="M 187.496094 229.519531 C 164.296875 229.519531 145.445312 210.671875 145.445312 187.472656 C 145.445312 164.273438 164.296875 145.425781 187.496094 145.425781 C 210.691406 145.425781 229.542969 164.273438 229.542969 187.472656 C 229.542969 210.671875 210.691406 229.519531 187.496094 229.519531 Z M 187.496094 150.257812 C 167.195312 150.257812 150.28125 167.171875 150.28125 187.472656 C 150.28125 207.769531 167.195312 224.6875 187.496094 224.6875 C 207.792969 224.6875 224.707031 207.769531 224.707031 187.472656 C 224.707031 167.171875 207.792969 150.257812 187.496094 150.257812 Z M 187.496094 150.257812 " fill-opacity="1" fill-rule="evenodd"/><path fill="#ffffff" d="M 196.675781 209.703125 L 178.3125 209.703125 C 175.410156 209.703125 173.476562 207.289062 173.476562 204.871094 C 173.476562 203.421875 174.445312 202.453125 175.894531 202.453125 C 176.863281 202.453125 178.3125 203.421875 178.3125 204.871094 L 196.675781 204.871094 L 196.675781 189.886719 L 178.3125 189.886719 C 175.410156 189.886719 173.476562 187.472656 173.476562 185.054688 L 173.476562 170.074219 C 173.476562 167.65625 175.410156 165.238281 178.3125 165.238281 L 196.675781 165.238281 C 199.578125 165.238281 201.511719 167.65625 201.511719 170.074219 C 201.511719 171.523438 200.542969 172.488281 199.09375 172.488281 C 198.125 172.488281 196.675781 171.523438 196.675781 170.074219 L 178.3125 170.074219 L 178.3125 185.054688 L 196.675781 185.054688 C 199.578125 185.054688 201.511719 187.472656 201.511719 189.886719 L 201.511719 204.871094 C 201.511719 207.289062 199.578125 209.703125 196.675781 209.703125 Z M 196.675781 209.703125 " fill-opacity="1" fill-rule="evenodd"/><path fill="#ffffff" d="M 187.496094 216.46875 C 186.042969 216.46875 185.078125 215.503906 185.078125 214.054688 L 185.078125 160.890625 C 185.078125 159.441406 186.042969 158.472656 187.496094 158.472656 C 188.945312 158.472656 189.910156 159.441406 189.910156 160.890625 L 189.910156 214.054688 C 189.910156 215.503906 188.945312 216.46875 187.496094 216.46875 Z M 187.496094 216.46875 " fill-opacity="1" fill-rule="evenodd"/><path fill="#ffffff" d="M 163.8125 189.886719 C 162.363281 189.886719 161.394531 188.921875 161.394531 187.472656 L 161.394531 175.390625 C 161.394531 174.421875 162.363281 172.972656 163.8125 172.972656 C 165.261719 172.972656 166.230469 174.421875 166.230469 175.390625 L 166.230469 187.472656 C 166.230469 188.921875 165.261719 189.886719 163.8125 189.886719 Z M 163.8125 189.886719 " fill-opacity="1" fill-rule="evenodd"/><path fill="#ffffff" d="M 163.8125 201.972656 C 162.363281 201.972656 161.394531 200.519531 161.394531 199.554688 L 161.394531 196.65625 C 161.394531 195.203125 162.363281 194.238281 163.8125 194.238281 C 165.261719 194.238281 166.230469 195.203125 166.230469 196.65625 L 166.230469 199.554688 C 166.230469 200.519531 165.261719 201.972656 163.8125 201.972656 Z M 163.8125 201.972656 " fill-opacity="1" fill-rule="evenodd"/><path fill="#ffffff" d="M 211.175781 189.886719 C 209.726562 189.886719 208.757812 188.921875 208.757812 187.472656 L 208.757812 175.390625 C 208.757812 174.421875 209.726562 172.972656 211.175781 172.972656 C 212.625 172.972656 213.59375 174.421875 213.59375 175.390625 L 213.59375 187.472656 C 213.59375 188.921875 212.625 189.886719 211.175781 189.886719 Z M 211.175781 189.886719 " fill-opacity="1" fill-rule="evenodd"/><path fill="#ffffff" d="M 211.175781 201.972656 C 209.726562 201.972656 208.757812 200.519531 208.757812 199.554688 L 208.757812 196.65625 C 208.757812 195.203125 209.726562 194.238281 211.175781 194.238281 C 212.625 194.238281 213.59375 195.203125 213.59375 196.65625 L 213.59375 199.554688 C 213.59375 200.519531 212.625 201.972656 211.175781 201.972656 Z M 211.175781 201.972656 " fill-opacity="1" fill-rule="evenodd"/><path fill="#ffffff" d="M 248.875 228.070312 C 248.390625 228.070312 247.90625 227.585938 247.425781 227.585938 C 246.941406 227.101562 246.457031 226.621094 246.457031 225.652344 L 246.457031 215.503906 L 217.460938 215.503906 C 216.492188 215.503906 216.007812 215.019531 215.527344 214.054688 C 215.042969 213.085938 215.042969 212.121094 216.007812 211.636719 C 219.390625 207.289062 221.808594 202.9375 223.257812 197.621094 C 223.257812 196.65625 224.226562 196.171875 225.675781 196.171875 L 246.457031 196.171875 L 246.457031 186.023438 C 246.457031 185.054688 246.941406 184.089844 247.425781 183.605469 C 248.390625 183.605469 249.359375 183.605469 250.324219 184.089844 L 274.972656 203.902344 C 275.457031 204.386719 275.9375 204.871094 275.9375 205.835938 C 275.9375 206.320312 275.457031 207.289062 274.972656 207.769531 L 250.324219 227.585938 C 249.839844 227.585938 249.359375 228.070312 248.875 228.070312 Z M 222.292969 210.671875 L 248.875 210.671875 C 249.839844 210.671875 251.289062 211.636719 251.289062 213.085938 L 251.289062 220.335938 L 269.65625 205.835938 L 251.289062 190.855469 L 251.289062 198.585938 C 251.289062 199.554688 249.839844 201.003906 248.875 201.003906 L 227.125 201.003906 C 226.160156 204.386719 224.707031 207.769531 222.292969 210.671875 Z M 222.292969 210.671875 " fill-opacity="1" fill-rule="evenodd"/><path fill="#ffffff" d="M 126.113281 191.339844 C 125.632812 191.339844 125.148438 191.339844 124.664062 190.855469 L 100.015625 171.039062 C 99.53125 170.554688 99.050781 170.074219 99.050781 169.105469 C 99.050781 168.621094 99.53125 167.65625 100.015625 167.171875 L 124.664062 147.355469 C 125.632812 146.875 126.597656 146.875 127.5625 147.355469 C 128.046875 147.839844 128.53125 148.324219 128.53125 149.289062 L 128.53125 159.441406 L 157.527344 159.441406 C 158.496094 159.441406 158.980469 159.921875 159.460938 160.890625 C 159.945312 161.855469 159.945312 162.824219 158.980469 163.304688 C 155.597656 167.65625 153.179688 172.003906 151.730469 177.320312 C 151.730469 178.289062 150.761719 178.773438 149.3125 178.773438 L 128.53125 178.773438 L 128.53125 188.921875 C 128.53125 189.886719 128.046875 190.855469 127.5625 191.339844 C 127.082031 191.339844 126.597656 191.339844 126.113281 191.339844 Z M 105.332031 169.105469 L 123.699219 184.089844 L 123.699219 176.355469 C 123.699219 175.390625 125.148438 173.9375 126.113281 173.9375 L 147.863281 173.9375 C 148.828125 170.554688 150.28125 167.171875 152.695312 164.273438 L 126.113281 164.273438 C 125.148438 164.273438 123.699219 163.304688 123.699219 161.855469 L 123.699219 154.605469 Z M 105.332031 169.105469 " fill-opacity="1" fill-rule="evenodd"/></svg>