<svg xmlns="http://www.w3.org/2000/svg" xmlns:xlink="http://www.w3.org/1999/xlink" width="500" zoomAndPan="magnify" viewBox="0 0 375 374.999991" height="500" preserveAspectRatio="xMidYMid meet" version="1.0"><defs><clipPath id="24ed0d4b2f"><path d="M 187.5 0 C 83.945312 0 0 83.945312 0 187.5 C 0 291.054688 83.945312 375 187.5 375 C 291.054688 375 375 291.054688 375 187.5 C 375 83.945312 291.054688 0 187.5 0 Z M 187.5 0 " clip-rule="nonzero"/></clipPath><clipPath id="942406439b"><path d="M 0 0 L 375 0 L 375 375 L 0 375 Z M 0 0 " clip-rule="nonzero"/></clipPath><clipPath id="2903710286"><path d="M 187.5 0 C 83.945312 0 0 83.945312 0 187.5 C 0 291.054688 83.945312 375 187.5 375 C 291.054688 375 375 291.054688 375 187.5 C 375 83.945312 291.054688 0 187.5 0 Z M 187.5 0 " clip-rule="nonzero"/></clipPath><clipPath id="c2d9061d61"><rect x="0" width="375" y="0" height="375"/></clipPath><clipPath id="820e31e147"><path d="M 85.648438 83.648438 L 289.648438 83.648438 L 289.648438 304 L 85.648438 304 Z M 85.648438 83.648438 " clip-rule="nonzero"/></clipPath></defs><g clip-path="url(#24ed0d4b2f)"><g transform="matrix(1, 0, 0, 1, 0, 0)"><g clip-path="url(#c2d9061d61)"><g clip-path="url(#942406439b)"><g clip-path="url(#2903710286)"><rect x="-82.5" width="540" fill="#e6ac41" height="539.999987" y="-82.499998" fill-opacity="1"/></g></g></g></g></g><g clip-path="url(#820e31e147)"><path fill="#ffffff" d="M 102.453125 303.269531 L 132.238281 303.269531 C 133.453125 303.269531 134.449219 302.277344 134.449219 301.058594 L 134.449219 298.480469 C 134.449219 297.261719 133.453125 296.269531 132.238281 296.269531 L 121.09375 296.269531 L 121.09375 272.953125 L 134.125 272.953125 C 134.3125 272.953125 134.496094 272.941406 134.679688 272.921875 C 137.128906 272.644531 139.027344 270.566406 139.027344 268.046875 C 139.027344 265.339844 136.832031 263.144531 134.125 263.144531 L 114.359375 263.144531 C 113.621094 263.144531 112.886719 263.144531 112.148438 263.144531 C 102.953125 263.144531 95.460938 255.652344 95.460938 246.453125 L 95.460938 202.3125 C 95.460938 199.605469 93.265625 197.40625 90.554688 197.40625 C 87.847656 197.40625 85.652344 199.605469 85.652344 202.3125 L 85.652344 246.453125 C 85.652344 261.066406 97.539062 272.953125 112.148438 272.953125 L 113.59375 272.953125 L 113.59375 296.269531 L 102.453125 296.269531 C 101.234375 296.269531 100.242188 297.261719 100.242188 298.480469 L 100.242188 301.058594 C 100.242188 302.277344 101.234375 303.269531 102.453125 303.269531 Z M 138.824219 146.957031 C 142.765625 148.628906 147.101562 149.554688 151.65625 149.554688 C 169.835938 149.554688 184.574219 134.816406 184.574219 116.632812 C 184.574219 98.453125 169.835938 83.714844 151.65625 83.714844 C 133.472656 83.714844 118.734375 98.453125 118.734375 116.632812 C 118.734375 125.703125 122.402344 133.914062 128.335938 139.867188 C 128.519531 140.054688 128.59375 140.304688 128.53125 140.5625 L 126.058594 150.941406 C 125.992188 151.222656 126.082031 151.496094 126.304688 151.683594 C 126.523438 151.867188 126.8125 151.910156 127.074219 151.792969 L 138.238281 146.960938 C 138.433594 146.878906 138.628906 146.875 138.824219 146.957031 Z M 151.65625 112.636719 C 153.863281 112.636719 155.652344 114.425781 155.652344 116.632812 C 155.652344 118.84375 153.863281 120.632812 151.65625 120.632812 C 149.445312 120.632812 147.65625 118.84375 147.65625 116.632812 C 147.65625 114.425781 149.445312 112.636719 151.65625 112.636719 Z M 168.503906 112.636719 C 170.710938 112.636719 172.5 114.425781 172.5 116.632812 C 172.5 118.84375 170.710938 120.632812 168.503906 120.632812 C 166.292969 120.632812 164.503906 118.84375 164.503906 116.632812 C 164.503906 114.425781 166.292969 112.636719 168.503906 112.636719 Z M 134.808594 112.636719 C 137.015625 112.636719 138.804688 114.425781 138.804688 116.632812 C 138.804688 118.84375 137.015625 120.632812 134.808594 120.632812 C 132.597656 120.632812 130.808594 118.84375 130.808594 116.632812 C 130.808594 114.425781 132.597656 112.636719 134.808594 112.636719 Z M 236.171875 146.957031 C 232.230469 148.628906 227.894531 149.554688 223.339844 149.554688 C 205.160156 149.554688 190.421875 134.816406 190.421875 116.632812 C 190.421875 98.453125 205.160156 83.714844 223.339844 83.714844 C 241.523438 83.714844 256.261719 98.453125 256.261719 116.632812 C 256.261719 125.703125 252.59375 133.914062 246.660156 139.867188 C 246.476562 140.054688 246.402344 140.304688 246.464844 140.5625 L 248.9375 150.941406 C 249.003906 151.222656 248.914062 151.496094 248.691406 151.683594 C 248.472656 151.867188 248.183594 151.910156 247.921875 151.792969 L 236.757812 146.960938 C 236.5625 146.878906 236.367188 146.875 236.171875 146.957031 Z M 231.925781 119.085938 L 239.28125 119.085938 C 240.636719 119.085938 241.734375 117.988281 241.734375 116.632812 C 241.734375 115.28125 240.636719 114.183594 239.28125 114.183594 L 231.925781 114.183594 C 230.570312 114.183594 229.472656 115.28125 229.472656 116.632812 C 229.472656 117.988281 230.570312 119.085938 231.925781 119.085938 Z M 207.402344 119.085938 L 224.566406 119.085938 C 225.921875 119.085938 227.019531 117.988281 227.019531 116.632812 C 227.019531 115.28125 225.921875 114.183594 224.566406 114.183594 L 207.402344 114.183594 C 206.046875 114.183594 204.949219 115.28125 204.949219 116.632812 C 204.949219 117.988281 206.046875 119.085938 207.402344 119.085938 Z M 207.402344 105.597656 L 239.28125 105.597656 C 240.636719 105.597656 241.734375 104.5 241.734375 103.144531 C 241.734375 101.792969 240.636719 100.695312 239.28125 100.695312 L 207.402344 100.695312 C 206.046875 100.695312 204.949219 101.792969 204.949219 103.144531 C 204.949219 104.5 206.046875 105.597656 207.402344 105.597656 Z M 207.402344 132.574219 L 239.28125 132.574219 C 240.636719 132.574219 241.734375 131.476562 241.734375 130.125 C 241.734375 128.769531 240.636719 127.671875 239.28125 127.671875 L 207.402344 127.671875 C 206.046875 127.671875 204.949219 128.769531 204.949219 130.125 C 204.949219 131.476562 206.046875 132.574219 207.402344 132.574219 Z M 261.402344 273.71875 L 261.402344 272.953125 L 262.847656 272.953125 C 277.457031 272.953125 289.34375 261.066406 289.34375 246.453125 L 289.34375 202.3125 C 289.34375 199.605469 287.148438 197.40625 284.441406 197.40625 C 281.730469 197.40625 279.535156 199.605469 279.535156 202.3125 L 279.535156 246.453125 C 279.535156 255.652344 272.042969 263.144531 262.847656 263.144531 C 262.109375 263.144531 261.371094 263.144531 260.636719 263.144531 L 240.871094 263.144531 C 238.164062 263.144531 235.96875 265.339844 235.96875 268.046875 C 235.96875 270.566406 237.867188 272.644531 240.316406 272.921875 C 240.496094 272.941406 240.683594 272.953125 240.871094 272.953125 L 253.898438 272.953125 L 253.898438 296.269531 L 242.757812 296.269531 C 241.539062 296.269531 240.546875 297.261719 240.546875 298.480469 L 240.546875 301.058594 C 240.546875 302.277344 241.539062 303.269531 242.757812 303.269531 L 272.542969 303.269531 C 273.761719 303.269531 274.753906 302.277344 274.753906 301.058594 L 274.753906 298.480469 C 274.753906 297.261719 273.761719 296.269531 272.542969 296.269531 L 261.402344 296.269531 Z M 183.820312 233.464844 L 131.292969 233.464844 C 129.007812 233.464844 127.136719 231.59375 127.136719 229.308594 C 127.136719 227.019531 129.007812 225.152344 131.292969 225.152344 L 243.703125 225.152344 C 245.988281 225.152344 247.859375 227.019531 247.859375 229.308594 C 247.859375 231.59375 245.988281 233.464844 243.703125 233.464844 L 191.175781 233.464844 L 191.175781 299.59375 C 191.175781 301.617188 189.523438 303.269531 187.496094 303.269531 C 185.472656 303.269531 183.820312 301.617188 183.820312 299.59375 Z M 256.707031 192.785156 C 257.902344 190.191406 260.609375 188.367188 263.613281 188.367188 C 267.660156 188.367188 270.972656 191.675781 270.972656 195.722656 L 270.972656 247.222656 C 270.972656 251.269531 267.660156 254.578125 263.613281 254.578125 C 262.875 254.578125 262.136719 254.578125 261.402344 254.578125 L 233.121094 254.578125 C 232.179688 254.578125 231.378906 255.132812 231.050781 256.011719 L 215.015625 298.617188 C 213.472656 302.722656 208.855469 304.816406 204.75 303.269531 C 200.648438 301.726562 198.507812 297.089844 200.097656 293.003906 L 219.796875 242.390625 C 220.132812 241.523438 220.925781 240.980469 221.855469 240.980469 L 254.042969 240.980469 C 255.257812 240.980469 256.257812 239.984375 256.257812 238.769531 L 256.257812 227.90625 C 256.257812 223.417969 256.203125 218.929688 256.132812 214.441406 C 256.121094 213.574219 255.644531 212.839844 254.855469 212.472656 C 254.070312 212.105469 253.199219 212.210938 252.527344 212.757812 L 243.28125 220.265625 C 240.566406 222.46875 236.542969 222.050781 234.339844 219.339844 L 230.355469 214.433594 C 230.339844 214.414062 230.324219 214.394531 230.308594 214.375 L 222.585938 204.175781 C 220.773438 201.78125 221.25 198.335938 223.640625 196.523438 C 226.039062 194.710938 229.445312 195.214844 231.292969 197.582031 L 237.789062 205.890625 C 238.171875 206.378906 238.679688 206.664062 239.296875 206.726562 C 239.917969 206.792969 240.472656 206.625 240.949219 206.226562 L 256.117188 193.554688 C 256.378906 193.335938 256.5625 193.097656 256.707031 192.785156 Z M 261.496094 155.144531 C 254.59375 155.144531 248.996094 160.738281 248.996094 167.644531 C 248.996094 174.546875 254.59375 180.144531 261.496094 180.144531 C 268.402344 180.144531 273.996094 174.546875 273.996094 167.644531 C 273.996094 160.738281 268.402344 155.144531 261.496094 155.144531 Z M 118.289062 192.785156 C 118.429688 193.097656 118.613281 193.335938 118.878906 193.554688 L 134.046875 206.226562 C 134.523438 206.625 135.078125 206.792969 135.695312 206.726562 C 136.316406 206.664062 136.824219 206.378906 137.207031 205.890625 L 143.703125 197.582031 C 145.550781 195.214844 148.957031 194.710938 151.351562 196.523438 C 153.746094 198.335938 154.222656 201.78125 152.410156 204.175781 L 144.683594 214.375 C 144.667969 214.394531 144.65625 214.414062 144.640625 214.433594 L 140.65625 219.339844 C 138.453125 222.050781 134.429688 222.46875 131.714844 220.265625 L 122.46875 212.757812 C 121.796875 212.210938 120.925781 212.105469 120.136719 212.472656 C 119.351562 212.839844 118.875 213.574219 118.863281 214.441406 C 118.792969 218.929688 118.738281 223.417969 118.738281 227.90625 L 118.738281 238.769531 C 118.738281 239.984375 119.734375 240.980469 120.953125 240.980469 L 153.136719 240.980469 C 154.070312 240.980469 154.863281 241.523438 155.199219 242.390625 L 174.898438 293.003906 C 176.488281 297.089844 174.347656 301.726562 170.246094 303.269531 C 166.140625 304.816406 161.523438 302.722656 159.976562 298.617188 L 143.945312 256.011719 C 143.613281 255.132812 142.816406 254.578125 141.875 254.578125 L 113.59375 254.578125 C 112.859375 254.578125 112.121094 254.578125 111.382812 254.578125 C 107.335938 254.578125 104.023438 251.269531 104.023438 247.222656 L 104.023438 195.722656 C 104.023438 191.675781 107.335938 188.367188 111.382812 188.367188 C 114.386719 188.367188 117.09375 190.191406 118.289062 192.785156 Z M 113.5 155.144531 C 120.402344 155.144531 126 160.738281 126 167.644531 C 126 174.546875 120.402344 180.144531 113.5 180.144531 C 106.59375 180.144531 100.996094 174.546875 100.996094 167.644531 C 100.996094 160.738281 106.59375 155.144531 113.5 155.144531 Z M 113.5 155.144531 " fill-opacity="1" fill-rule="evenodd"/></g></svg>