<svg xmlns="http://www.w3.org/2000/svg" xmlns:xlink="http://www.w3.org/1999/xlink" width="500" zoomAndPan="magnify" viewBox="0 0 375 374.999991" height="500" preserveAspectRatio="xMidYMid meet" version="1.0"><defs><clipPath id="442c0584ce"><path d="M 187.5 0 C 83.945312 0 0 83.945312 0 187.5 C 0 291.054688 83.945312 375 187.5 375 C 291.054688 375 375 291.054688 375 187.5 C 375 83.945312 291.054688 0 187.5 0 Z M 187.5 0 " clip-rule="nonzero"/></clipPath><clipPath id="b00ee9ae3a"><path d="M 0 0 L 375 0 L 375 375 L 0 375 Z M 0 0 " clip-rule="nonzero"/></clipPath><clipPath id="f8219b73fe"><path d="M 187.5 0 C 83.945312 0 0 83.945312 0 187.5 C 0 291.054688 83.945312 375 187.5 375 C 291.054688 375 375 291.054688 375 187.5 C 375 83.945312 291.054688 0 187.5 0 Z M 187.5 0 " clip-rule="nonzero"/></clipPath><clipPath id="39f0a951f8"><rect x="0" width="375" y="0" height="375"/></clipPath><clipPath id="161fe645c1"><path d="M 107 60.4375 L 268 60.4375 L 268 221 L 107 221 Z M 107 60.4375 " clip-rule="nonzero"/></clipPath><clipPath id="474d30daa3"><path d="M 222 249 L 306 249 L 306 314.6875 L 222 314.6875 Z M 222 249 " clip-rule="nonzero"/></clipPath><clipPath id="81b8f81ae0"><path d="M 69.015625 250 L 153 250 L 153 314.6875 L 69.015625 314.6875 Z M 69.015625 250 " clip-rule="nonzero"/></clipPath></defs><g clip-path="url(#442c0584ce)"><g transform="matrix(1, 0, 0, 1, 0, 0)"><g clip-path="url(#39f0a951f8)"><g clip-path="url(#b00ee9ae3a)"><g clip-path="url(#f8219b73fe)"><rect x="-82.5" width="540" fill="#e6ac41" height="539.999987" y="-82.499998" fill-opacity="1"/></g></g></g></g></g><path fill="#ffffff" d="M 150.921875 150.679688 L 150.878906 150.679688 C 150.832031 150.769531 150.832031 150.769531 150.921875 150.679688 Z M 150.921875 150.679688 " fill-opacity="1" fill-rule="nonzero"/><path fill="#ffffff" d="M 192.886719 130.714844 C 192.664062 130.492188 178.21875 137.914062 177.957031 138.046875 C 170.488281 141.625 166.339844 133.144531 167.707031 129.035156 C 170.3125 121.128906 185.816406 115.476562 184.625 114.28125 C 179.105469 108.761719 165.761719 118.789062 160.726562 119.539062 C 155.292969 120.335938 149.242188 117.417969 145.84375 116.269531 C 145.179688 116.050781 144.515625 116.402344 144.296875 117.066406 L 136.257812 143.171875 C 135.992188 144.363281 136.917969 145.113281 136.917969 145.113281 L 150.964844 150.636719 C 151.1875 150.195312 152.601562 148.296875 153.570312 147.722656 C 162.496094 142.683594 164.128906 152.800781 164.394531 152.757812 C 172.523438 151.386719 172.210938 158.234375 172.210938 158.234375 C 181.621094 158.453125 179.5 166.40625 179.5 166.40625 C 179.5 166.40625 181.929688 165.742188 184.757812 169.277344 C 186.613281 171.574219 183.742188 176.476562 183.699219 176.476562 L 186.523438 178.949219 C 186.746094 179.171875 187.054688 179.257812 187.40625 179.257812 C 188.867188 179.214844 192.753906 178.640625 192.179688 174.488281 C 192.179688 174.222656 192 174.003906 191.824219 173.78125 L 183.386719 165.210938 C 182.902344 164.726562 182.902344 163.886719 183.433594 163.445312 C 183.917969 163.003906 184.625 163.003906 185.109375 163.445312 L 197.125 174.710938 C 197.214844 174.796875 197.347656 174.886719 197.480469 174.929688 C 198.539062 175.417969 203.488281 177.226562 203.308594 170.824219 C 203.308594 170.511719 203.175781 170.203125 202.914062 169.984375 L 189.75 157.4375 C 189.21875 156.953125 189.261719 156.113281 189.75 155.628906 L 189.96875 155.40625 C 190.457031 154.964844 191.164062 154.964844 191.648438 155.40625 L 206.269531 169.101562 C 206.445312 169.277344 206.667969 169.363281 206.886719 169.410156 C 208.167969 169.628906 212.320312 170.070312 212.320312 165.210938 C 212.320312 164.902344 212.1875 164.59375 211.96875 164.328125 L 197.699219 150.414062 C 197.167969 149.886719 197.214844 149.046875 197.789062 148.605469 L 197.964844 148.472656 C 198.449219 148.074219 199.113281 148.074219 199.597656 148.472656 L 214.308594 161.722656 C 214.484375 161.898438 214.75 161.988281 214.972656 162.03125 C 216.207031 162.164062 219.832031 162.210938 220.492188 157.660156 C 220.535156 157.261719 220.40625 156.863281 220.140625 156.597656 L 193.0625 130.671875 Z M 192.886719 130.714844 " fill-opacity="1" fill-rule="nonzero"/><path fill="#ffffff" d="M 181.402344 170.25 C 181.582031 170.429688 181.734375 170.632812 181.859375 170.863281 C 181.988281 171.089844 182.082031 171.335938 182.148438 171.605469 C 182.214844 171.871094 182.25 172.152344 182.253906 172.449219 C 182.257812 172.746094 182.230469 173.050781 182.171875 173.363281 C 182.117188 173.675781 182.027344 173.992188 181.910156 174.3125 C 181.792969 174.628906 181.644531 174.945312 181.472656 175.257812 C 181.300781 175.566406 181.101562 175.871094 180.878906 176.164062 C 180.65625 176.453125 180.414062 176.734375 180.152344 176.996094 C 179.890625 177.257812 179.613281 177.5 179.320312 177.722656 C 179.027344 177.945312 178.722656 178.140625 178.414062 178.316406 C 178.101562 178.488281 177.785156 178.636719 177.46875 178.753906 C 177.148438 178.871094 176.832031 178.960938 176.519531 179.015625 C 176.207031 179.074219 175.902344 179.101562 175.605469 179.097656 C 175.308594 179.09375 175.027344 179.058594 174.761719 178.992188 C 174.496094 178.925781 174.246094 178.828125 174.019531 178.703125 C 173.789062 178.578125 173.585938 178.425781 173.40625 178.246094 C 173.226562 178.0625 173.070312 177.859375 172.945312 177.632812 C 172.820312 177.402344 172.722656 177.15625 172.65625 176.886719 C 172.589844 176.621094 172.554688 176.339844 172.550781 176.042969 C 172.546875 175.746094 172.574219 175.441406 172.632812 175.128906 C 172.691406 174.816406 172.777344 174.5 172.898438 174.183594 C 173.015625 173.863281 173.160156 173.546875 173.332031 173.238281 C 173.507812 172.925781 173.707031 172.625 173.925781 172.332031 C 174.148438 172.039062 174.390625 171.761719 174.65625 171.496094 C 174.917969 171.234375 175.195312 170.992188 175.488281 170.769531 C 175.78125 170.546875 176.082031 170.351562 176.394531 170.175781 C 176.707031 170.003906 177.019531 169.859375 177.339844 169.738281 C 177.65625 169.621094 177.972656 169.535156 178.285156 169.476562 C 178.601562 169.417969 178.90625 169.390625 179.199219 169.394531 C 179.496094 169.398438 179.777344 169.433594 180.046875 169.5 C 180.3125 169.566406 180.558594 169.664062 180.789062 169.789062 C 181.015625 169.914062 181.21875 170.066406 181.402344 170.25 Z M 181.402344 170.25 " fill-opacity="1" fill-rule="nonzero"/><path fill="#ffffff" d="M 160.664062 151.101562 C 160.863281 151.300781 161.035156 151.527344 161.171875 151.777344 C 161.3125 152.027344 161.421875 152.296875 161.5 152.589844 C 161.574219 152.878906 161.617188 153.1875 161.625 153.507812 C 161.636719 153.828125 161.613281 154.160156 161.554688 154.5 C 161.496094 154.839844 161.40625 155.179688 161.28125 155.523438 C 161.160156 155.867188 161.003906 156.207031 160.824219 156.542969 C 160.640625 156.878906 160.429688 157.203125 160.191406 157.519531 C 159.957031 157.832031 159.695312 158.132812 159.414062 158.414062 C 159.132812 158.691406 158.835938 158.953125 158.523438 159.1875 C 158.207031 159.425781 157.882812 159.636719 157.546875 159.820312 C 157.210938 160.003906 156.871094 160.15625 156.527344 160.277344 C 156.183594 160.402344 155.839844 160.492188 155.503906 160.550781 C 155.164062 160.609375 154.832031 160.632812 154.511719 160.625 C 154.191406 160.613281 153.882812 160.570312 153.589844 160.496094 C 153.300781 160.417969 153.03125 160.3125 152.78125 160.171875 C 152.53125 160.03125 152.304688 159.859375 152.105469 159.660156 C 151.90625 159.460938 151.738281 159.238281 151.597656 158.988281 C 151.457031 158.738281 151.347656 158.46875 151.273438 158.175781 C 151.195312 157.886719 151.152344 157.578125 151.144531 157.257812 C 151.136719 156.9375 151.160156 156.605469 151.21875 156.265625 C 151.277344 155.925781 151.367188 155.585938 151.488281 155.242188 C 151.613281 154.898438 151.765625 154.554688 151.949219 154.222656 C 152.132812 153.886719 152.34375 153.558594 152.578125 153.246094 C 152.816406 152.929688 153.074219 152.632812 153.355469 152.351562 C 153.636719 152.070312 153.933594 151.8125 154.25 151.574219 C 154.5625 151.339844 154.886719 151.128906 155.222656 150.945312 C 155.558594 150.761719 155.898438 150.609375 156.242188 150.484375 C 156.589844 150.363281 156.929688 150.273438 157.269531 150.214844 C 157.609375 150.15625 157.9375 150.132812 158.261719 150.140625 C 158.582031 150.152344 158.886719 150.195312 159.179688 150.269531 C 159.472656 150.347656 159.742188 150.453125 159.992188 150.59375 C 160.242188 150.734375 160.464844 150.90625 160.664062 151.101562 Z M 160.664062 151.101562 " fill-opacity="1" fill-rule="nonzero"/><path fill="#ffffff" d="M 173.40625 170.425781 C 177.335938 166.40625 177.160156 164.195312 175.65625 162.695312 C 174.15625 161.191406 172.300781 160.574219 167.929688 164.949219 C 163.421875 169.496094 164.171875 171.175781 165.675781 172.679688 C 167.175781 174.179688 169.386719 174.578125 173.40625 170.425781 Z M 173.40625 170.425781 " fill-opacity="1" fill-rule="nonzero"/><path fill="#ffffff" d="M 238.867188 142.421875 L 231.050781 117.242188 C 230.785156 116.359375 229.722656 115.917969 228.929688 116.402344 C 225.925781 118.082031 219.433594 121.570312 217.089844 121.4375 C 214 121.261719 203.132812 113.621094 200.042969 113.488281 C 196.949219 113.355469 196.773438 111.808594 191.738281 114.945312 L 171.285156 127.800781 C 171.285156 127.800781 168.148438 135.308594 175.835938 135.265625 L 192.398438 127.136719 C 192.398438 127.136719 194.34375 126.472656 198.582031 130.40625 C 202.824219 134.292969 220.316406 150.546875 220.316406 150.546875 C 220.316406 150.546875 221.421875 152.136719 224.820312 150.679688 C 227.472656 149.53125 234.847656 146.042969 237.941406 144.585938 C 238.734375 144.1875 239.132812 143.304688 238.867188 142.464844 Z M 238.867188 142.421875 " fill-opacity="1" fill-rule="nonzero"/><path fill="#ffffff" d="M 166.648438 164.328125 C 170.578125 160.308594 170.402344 158.101562 168.898438 156.597656 C 167.398438 155.097656 165.542969 154.480469 161.167969 158.851562 C 156.664062 163.402344 157.414062 165.082031 158.917969 166.582031 C 160.417969 168.085938 162.628906 168.480469 166.648438 164.328125 Z M 166.648438 164.328125 " fill-opacity="1" fill-rule="nonzero"/><g clip-path="url(#161fe645c1)"><path fill="#ffffff" d="M 267.535156 129.167969 C 267.535156 127.667969 266.34375 126.429688 264.839844 126.339844 L 249.867188 125.457031 C 249.070312 121.96875 247.96875 118.566406 246.597656 115.210938 C 245.273438 112.03125 243.769531 109.027344 242.003906 106.15625 L 251.5 94.980469 C 252.472656 93.832031 252.386719 92.152344 251.324219 91.09375 L 236.042969 75.941406 C 234.980469 74.882812 233.257812 74.835938 232.109375 75.851562 L 221.554688 85.21875 C 218.679688 83.363281 215.679688 81.773438 212.496094 80.402344 C 208.964844 78.855469 205.296875 77.664062 201.542969 76.824219 L 200.4375 63.132812 C 200.394531 61.585938 199.15625 60.4375 197.65625 60.4375 L 176.144531 60.527344 C 174.640625 60.527344 173.40625 61.71875 173.316406 63.21875 L 172.476562 77 C 169.078125 77.839844 165.765625 78.945312 162.539062 80.359375 C 159.09375 81.859375 155.78125 83.671875 152.644531 85.703125 L 141.910156 76.558594 C 140.761719 75.589844 139.082031 75.675781 138.023438 76.738281 L 122.871094 92.019531 C 121.8125 93.082031 121.769531 94.804688 122.785156 95.953125 L 132.546875 106.949219 C 131 109.554688 129.632812 112.339844 128.4375 115.167969 C 126.9375 118.789062 125.742188 122.542969 124.949219 126.386719 L 110.019531 127.578125 C 108.515625 127.710938 107.367188 128.949219 107.367188 130.449219 L 107.457031 151.960938 C 107.457031 153.464844 108.648438 154.699219 110.152344 154.789062 L 125.125 155.671875 C 125.921875 159.160156 127.023438 162.5625 128.394531 165.917969 C 129.71875 169.101562 131.222656 172.105469 132.988281 174.976562 L 123.492188 186.148438 C 122.519531 187.300781 122.609375 188.976562 123.667969 190.039062 L 138.953125 205.1875 C 140.011719 206.25 141.734375 206.292969 142.882812 205.277344 L 153.441406 195.914062 C 156.3125 197.765625 159.316406 199.359375 162.496094 200.726562 C 166.027344 202.273438 169.695312 203.464844 173.449219 204.304688 L 174.554688 218 C 174.6875 219.5 175.921875 220.648438 177.425781 220.648438 L 198.9375 220.558594 C 200.4375 220.558594 201.675781 219.367188 201.765625 217.867188 L 202.601562 204.085938 C 206.003906 203.246094 209.316406 202.140625 212.542969 200.726562 C 215.988281 199.226562 219.300781 197.414062 222.4375 195.382812 L 233.171875 204.527344 C 234.320312 205.496094 235.996094 205.410156 237.058594 204.347656 L 252.207031 189.066406 C 253.269531 188.003906 253.3125 186.28125 252.296875 185.132812 L 242.535156 174.136719 C 244.082031 171.53125 245.449219 168.746094 246.640625 165.917969 C 248.144531 162.296875 249.335938 158.542969 250.132812 154.699219 L 265.0625 153.507812 C 266.5625 153.375 267.710938 152.136719 267.710938 150.636719 L 267.625 129.125 Z M 187.539062 189.285156 C 161.347656 189.285156 140.054688 167.421875 140.054688 140.519531 C 140.054688 113.621094 161.347656 91.753906 187.539062 91.753906 C 213.734375 91.753906 235.023438 113.621094 235.023438 140.519531 C 235.023438 167.421875 213.734375 189.285156 187.539062 189.285156 Z M 187.539062 189.285156 " fill-opacity="1" fill-rule="nonzero"/></g><g clip-path="url(#474d30daa3)"><path fill="#ffffff" d="M 282.464844 250.996094 C 282.332031 251.128906 282.199219 251.304688 282.023438 251.4375 C 277.121094 256.339844 270.628906 259.035156 263.691406 259.035156 C 256.757812 259.035156 250.265625 256.339844 245.363281 251.4375 C 240.457031 246.535156 245.097656 251.171875 244.964844 251.039062 C 232.285156 252.097656 222.304688 262.746094 222.304688 275.730469 L 222.304688 289.777344 C 222.304688 303.472656 233.390625 314.558594 247.085938 314.558594 L 281.007812 314.558594 C 294.703125 314.558594 305.789062 303.472656 305.789062 289.777344 L 305.789062 275.730469 C 305.789062 262.523438 295.453125 251.746094 282.421875 250.996094 Z M 282.464844 250.996094 " fill-opacity="1" fill-rule="nonzero"/></g><path fill="#ffffff" d="M 263.691406 210.796875 C 251.414062 210.796875 241.386719 220.78125 241.386719 233.105469 C 241.386719 245.429688 244.917969 246.886719 250.351562 250.949219 C 254.0625 253.734375 258.703125 255.367188 263.691406 255.367188 C 268.683594 255.367188 273.277344 253.734375 277.03125 250.949219 C 282.464844 246.886719 286 240.394531 286 233.105469 C 286 220.824219 276.015625 210.796875 263.691406 210.796875 Z M 263.691406 210.796875 " fill-opacity="1" fill-rule="nonzero"/><g clip-path="url(#81b8f81ae0)"><path fill="#ffffff" d="M 129.367188 250.996094 C 129.234375 251.128906 129.101562 251.304688 128.925781 251.4375 C 124.019531 256.339844 117.527344 259.035156 110.59375 259.035156 C 103.65625 259.035156 97.164062 256.339844 92.261719 251.4375 C 92.128906 251.304688 91.996094 251.171875 91.863281 251.039062 C 79.1875 252.097656 69.203125 262.746094 69.203125 275.730469 L 69.203125 289.777344 C 69.203125 303.472656 80.289062 314.558594 93.984375 314.558594 L 127.910156 314.558594 C 141.601562 314.558594 152.6875 303.472656 152.6875 289.777344 L 152.6875 275.730469 C 152.6875 262.523438 142.351562 251.746094 129.320312 250.996094 Z M 129.367188 250.996094 " fill-opacity="1" fill-rule="nonzero"/></g><path fill="#ffffff" d="M 110.636719 210.796875 C 98.355469 210.796875 88.332031 220.78125 88.332031 233.105469 C 88.332031 245.429688 91.863281 246.886719 97.296875 250.949219 C 101.007812 253.734375 105.644531 255.367188 110.636719 255.367188 C 115.628906 255.367188 120.222656 253.734375 123.976562 250.949219 C 129.410156 246.886719 132.945312 240.394531 132.945312 233.105469 C 132.945312 220.824219 122.960938 210.796875 110.636719 210.796875 Z M 110.636719 210.796875 " fill-opacity="1" fill-rule="nonzero"/></svg>