<svg xmlns="http://www.w3.org/2000/svg" xmlns:xlink="http://www.w3.org/1999/xlink" width="500" zoomAndPan="magnify" viewBox="0 0 375 374.999991" height="500" preserveAspectRatio="xMidYMid meet" version="1.0"><defs><clipPath id="591ad968c9"><path d="M 187.5 0 C 83.945312 0 0 83.945312 0 187.5 C 0 291.054688 83.945312 375 187.5 375 C 291.054688 375 375 291.054688 375 187.5 C 375 83.945312 291.054688 0 187.5 0 Z M 187.5 0 " clip-rule="nonzero"/></clipPath><clipPath id="1165870ac5"><path d="M 0 0 L 375 0 L 375 375 L 0 375 Z M 0 0 " clip-rule="nonzero"/></clipPath><clipPath id="3f2ae39bf9"><path d="M 187.5 0 C 83.945312 0 0 83.945312 0 187.5 C 0 291.054688 83.945312 375 187.5 375 C 291.054688 375 375 291.054688 375 187.5 C 375 83.945312 291.054688 0 187.5 0 Z M 187.5 0 " clip-rule="nonzero"/></clipPath><clipPath id="6f077ee025"><rect x="0" width="375" y="0" height="375"/></clipPath><clipPath id="440c75ed1a"><path d="M 69.851562 274 L 305.351562 274 L 305.351562 305.351562 L 69.851562 305.351562 Z M 69.851562 274 " clip-rule="nonzero"/></clipPath><clipPath id="cd47dca189"><path d="M 224 112 L 305.351562 112 L 305.351562 161 L 224 161 Z M 224 112 " clip-rule="nonzero"/></clipPath><clipPath id="e10828f630"><path d="M 69.851562 112 L 151 112 L 151 161 L 69.851562 161 Z M 69.851562 112 " clip-rule="nonzero"/></clipPath><clipPath id="d4c9055e57"><path d="M 141 69.851562 L 234 69.851562 L 234 163 L 141 163 Z M 141 69.851562 " clip-rule="nonzero"/></clipPath></defs><g clip-path="url(#591ad968c9)"><g transform="matrix(1, 0, 0, 1, 0, 0)"><g clip-path="url(#6f077ee025)"><g clip-path="url(#1165870ac5)"><g clip-path="url(#3f2ae39bf9)"><rect x="-82.5" width="540" fill="#e6ac41" height="539.999987" y="-82.499998" fill-opacity="1"/></g></g></g></g></g><g clip-path="url(#440c75ed1a)"><path fill="#ffffff" d="M 289.804688 274.46875 L 85.1875 274.46875 C 76.742188 274.46875 69.851562 281.359375 69.851562 289.804688 C 69.851562 298.25 76.742188 305.140625 85.1875 305.140625 L 289.804688 305.140625 C 298.25 305.140625 305.140625 298.25 305.140625 289.804688 C 305.140625 281.359375 298.25 274.46875 289.804688 274.46875 Z M 289.804688 274.46875 " fill-opacity="1" fill-rule="nonzero"/></g><path fill="#ffffff" d="M 283.5 282.871094 C 281.191406 282.871094 279.300781 280.980469 279.300781 278.667969 L 279.300781 156.488281 C 279.300781 154.175781 281.191406 152.285156 283.5 152.285156 C 285.8125 152.285156 287.703125 154.175781 287.703125 156.488281 L 287.703125 278.667969 C 287.703125 280.980469 285.8125 282.871094 283.5 282.871094 Z M 283.5 282.871094 " fill-opacity="1" fill-rule="nonzero"/><path fill="#ffffff" d="M 91.488281 282.871094 C 89.175781 282.871094 87.285156 280.980469 87.285156 278.667969 L 87.285156 156.488281 C 87.285156 154.175781 89.175781 152.285156 91.488281 152.285156 C 93.800781 152.285156 95.691406 154.175781 95.691406 156.488281 L 95.691406 278.667969 C 95.691406 280.980469 93.800781 282.871094 91.488281 282.871094 Z M 91.488281 282.871094 " fill-opacity="1" fill-rule="nonzero"/><path fill="#ffffff" d="M 221.570312 282.871094 C 219.257812 282.871094 217.367188 280.980469 217.367188 278.667969 L 217.367188 190.8125 C 217.367188 187.285156 214.46875 184.386719 210.941406 184.386719 L 164.09375 184.386719 C 160.519531 184.386719 157.664062 187.285156 157.664062 190.8125 L 157.664062 278.667969 C 157.664062 280.980469 155.773438 282.871094 153.460938 282.871094 C 151.152344 282.871094 149.261719 280.980469 149.261719 278.667969 L 149.261719 190.8125 C 149.261719 182.621094 155.898438 175.984375 164.09375 175.984375 L 210.941406 175.984375 C 219.132812 175.984375 225.769531 182.621094 225.769531 190.8125 L 225.769531 278.667969 C 225.769531 280.980469 223.878906 282.871094 221.570312 282.871094 Z M 221.570312 282.871094 " fill-opacity="1" fill-rule="nonzero"/><path fill="#ffffff" d="M 204.34375 230.265625 L 170.648438 230.265625 C 168.335938 230.265625 166.445312 228.375 166.445312 226.066406 L 166.445312 210.476562 C 166.445312 208.167969 168.335938 206.277344 170.648438 206.277344 L 204.34375 206.277344 C 206.652344 206.277344 208.542969 208.167969 208.542969 210.476562 L 208.542969 226.066406 C 208.542969 228.375 206.652344 230.265625 204.34375 230.265625 Z M 174.847656 221.863281 L 200.140625 221.863281 L 200.140625 214.679688 L 174.847656 214.679688 Z M 174.847656 221.863281 " fill-opacity="1" fill-rule="nonzero"/><path fill="#ffffff" d="M 204.34375 214.679688 C 203.335938 214.679688 202.285156 214.300781 201.484375 213.542969 L 187.496094 200.605469 L 173.503906 213.542969 C 171.78125 215.097656 169.132812 215.015625 167.578125 213.292969 C 165.984375 211.570312 166.109375 208.921875 167.789062 207.367188 L 184.636719 191.78125 C 186.234375 190.308594 188.714844 190.308594 190.351562 191.78125 L 207.199219 207.367188 C 208.921875 208.964844 209.007812 211.613281 207.410156 213.292969 C 206.570312 214.175781 205.4375 214.636719 204.34375 214.636719 Z M 204.34375 214.679688 " fill-opacity="1" fill-rule="nonzero"/><path fill="#ffffff" d="M 204.34375 254.300781 C 202.03125 254.300781 200.140625 252.410156 200.140625 250.097656 L 200.140625 239.847656 C 200.140625 237.535156 202.03125 235.644531 204.34375 235.644531 C 206.652344 235.644531 208.542969 237.535156 208.542969 239.847656 L 208.542969 250.097656 C 208.542969 252.410156 206.652344 254.300781 204.34375 254.300781 Z M 204.34375 254.300781 " fill-opacity="1" fill-rule="nonzero"/><path fill="#ffffff" d="M 283.5 239.929688 L 255.054688 239.929688 C 247.535156 239.929688 241.441406 233.839844 241.441406 226.316406 L 241.441406 189.59375 C 241.441406 182.074219 247.535156 175.984375 255.054688 175.984375 L 283.5 175.984375 C 285.8125 175.984375 287.703125 177.875 287.703125 180.183594 C 287.703125 182.496094 285.8125 184.386719 283.5 184.386719 L 255.054688 184.386719 C 252.199219 184.386719 249.847656 186.738281 249.847656 189.59375 L 249.847656 226.316406 C 249.847656 229.175781 252.199219 231.527344 255.054688 231.527344 L 283.5 231.527344 C 285.8125 231.527344 287.703125 233.417969 287.703125 235.730469 C 287.703125 238.039062 285.8125 239.929688 283.5 239.929688 Z M 283.5 239.929688 " fill-opacity="1" fill-rule="nonzero"/><path fill="#ffffff" d="M 119.933594 239.929688 L 91.488281 239.929688 C 89.175781 239.929688 87.285156 238.039062 87.285156 235.730469 C 87.285156 233.417969 89.175781 231.527344 91.488281 231.527344 L 119.933594 231.527344 C 122.789062 231.527344 125.144531 229.175781 125.144531 226.316406 L 125.144531 189.59375 C 125.144531 186.738281 122.789062 184.386719 119.933594 184.386719 L 91.488281 184.386719 C 89.175781 184.386719 87.285156 182.496094 87.285156 180.183594 C 87.285156 177.875 89.175781 175.984375 91.488281 175.984375 L 119.933594 175.984375 C 127.453125 175.984375 133.546875 182.074219 133.546875 189.59375 L 133.546875 226.316406 C 133.546875 233.839844 127.453125 239.929688 119.933594 239.929688 Z M 119.933594 239.929688 " fill-opacity="1" fill-rule="nonzero"/><g clip-path="url(#cd47dca189)"><path fill="#ffffff" d="M 286.609375 160.730469 L 228.921875 160.730469 C 226.613281 160.730469 224.722656 158.839844 224.722656 156.527344 C 224.722656 154.21875 226.613281 152.328125 228.921875 152.328125 L 286.609375 152.328125 C 292.199219 152.328125 296.734375 147.789062 296.734375 142.160156 L 296.734375 131.277344 C 296.734375 125.6875 292.199219 121.109375 286.609375 121.109375 L 245.308594 121.109375 C 242.996094 121.109375 241.105469 119.21875 241.105469 116.90625 C 241.105469 114.597656 242.996094 112.707031 245.308594 112.707031 L 286.609375 112.707031 C 296.820312 112.707031 305.140625 121.027344 305.140625 131.277344 L 305.140625 142.160156 C 305.140625 152.371094 296.820312 160.730469 286.609375 160.730469 Z M 286.609375 160.730469 " fill-opacity="1" fill-rule="nonzero"/></g><g clip-path="url(#e10828f630)"><path fill="#ffffff" d="M 146.109375 160.730469 L 88.378906 160.730469 C 78.167969 160.730469 69.851562 152.410156 69.851562 142.160156 L 69.851562 131.277344 C 69.851562 121.066406 78.167969 112.707031 88.378906 112.707031 L 129.679688 112.707031 C 131.992188 112.707031 133.882812 114.597656 133.882812 116.90625 C 133.882812 119.21875 131.992188 121.109375 129.679688 121.109375 L 88.378906 121.109375 C 82.792969 121.109375 78.253906 125.648438 78.253906 131.277344 L 78.253906 142.160156 C 78.253906 147.746094 82.792969 152.328125 88.378906 152.328125 L 146.109375 152.328125 C 148.421875 152.328125 150.3125 154.21875 150.3125 156.527344 C 150.3125 158.839844 148.421875 160.730469 146.109375 160.730469 Z M 146.109375 160.730469 " fill-opacity="1" fill-rule="nonzero"/></g><path fill="#ffffff" d="M 198.714844 117.371094 C 199.089844 117.371094 199.425781 117.078125 199.46875 116.699219 L 201.359375 107.117188 L 181.234375 107.117188 L 183.167969 117.328125 L 198.753906 117.328125 Z M 198.714844 117.371094 " fill-opacity="1" fill-rule="nonzero"/><g clip-path="url(#d4c9055e57)"><path fill="#ffffff" d="M 187.496094 69.851562 C 161.90625 69.851562 141.109375 90.648438 141.109375 116.195312 C 141.109375 141.738281 161.90625 162.539062 187.496094 162.539062 C 213.082031 162.539062 233.878906 141.738281 233.878906 116.195312 C 233.878906 90.648438 213.082031 69.851562 187.496094 69.851562 Z M 187.199219 144.175781 C 186.992188 144.679688 186.695312 145.144531 186.277344 145.519531 C 185.898438 145.898438 185.4375 146.234375 184.933594 146.445312 C 184.429688 146.65625 183.882812 146.738281 183.335938 146.738281 C 182.789062 146.738281 182.242188 146.65625 181.738281 146.445312 C 181.191406 146.234375 180.773438 145.898438 180.351562 145.519531 C 179.554688 144.722656 179.132812 143.671875 179.132812 142.539062 C 179.132812 141.402344 179.554688 140.351562 180.351562 139.597656 C 180.730469 139.175781 181.191406 138.882812 181.738281 138.671875 C 182.746094 138.253906 183.882812 138.253906 184.933594 138.671875 C 185.4375 138.882812 185.898438 139.175781 186.277344 139.597656 C 187.074219 140.351562 187.535156 141.445312 187.535156 142.539062 C 187.535156 143.125 187.410156 143.628906 187.199219 144.175781 Z M 202.871094 145.519531 C 202.496094 145.898438 202.03125 146.234375 201.527344 146.445312 C 201.023438 146.65625 200.476562 146.738281 199.929688 146.738281 C 199.34375 146.738281 198.796875 146.65625 198.292969 146.445312 C 197.789062 146.234375 197.328125 145.898438 196.949219 145.519531 C 196.570312 145.144531 196.234375 144.679688 196.023438 144.175781 C 195.8125 143.628906 195.730469 143.125 195.730469 142.539062 C 195.730469 141.445312 196.148438 140.351562 196.949219 139.597656 C 197.328125 139.175781 197.789062 138.882812 198.292969 138.671875 C 199.34375 138.253906 200.476562 138.253906 201.527344 138.671875 C 202.03125 138.882812 202.496094 139.175781 202.871094 139.597656 C 203.671875 140.351562 204.132812 141.445312 204.132812 142.539062 C 204.132812 143.628906 203.671875 144.722656 202.871094 145.519531 Z M 180.855469 128.671875 L 205.605469 128.671875 C 207.914062 128.671875 209.804688 130.5625 209.804688 132.875 C 209.804688 135.183594 207.914062 137.074219 205.605469 137.074219 L 180.855469 137.074219 C 177.621094 137.074219 174.636719 135.3125 173.125 132.496094 C 171.570312 129.679688 171.695312 126.234375 173.460938 123.503906 L 175.226562 120.730469 L 172.03125 103.757812 C 172.03125 103.757812 172.03125 103.757812 172.03125 103.714844 C 172.03125 103.714844 172.03125 103.671875 172.03125 103.632812 L 171.359375 99.386719 C 171.277344 98.925781 170.898438 98.589844 170.4375 98.589844 L 168.546875 98.589844 C 166.234375 98.589844 164.34375 96.699219 164.34375 94.386719 C 164.34375 92.078125 166.234375 90.1875 168.546875 90.1875 L 170.4375 90.1875 C 175.058594 90.1875 178.964844 93.503906 179.636719 98.085938 L 179.765625 98.757812 L 206.445312 98.757812 C 207.703125 98.757812 208.882812 99.304688 209.679688 100.269531 C 210.476562 101.234375 210.8125 102.496094 210.5625 103.757812 L 207.746094 118.167969 C 207.074219 122.496094 203.25 125.773438 198.714844 125.773438 L 181.949219 125.773438 L 180.519531 128 C 180.605469 128.628906 180.773438 128.628906 180.855469 128.628906 Z M 180.855469 128.671875 " fill-opacity="1" fill-rule="nonzero"/></g></svg>