<svg xmlns="http://www.w3.org/2000/svg" xmlns:xlink="http://www.w3.org/1999/xlink" width="500" zoomAndPan="magnify" viewBox="0 0 375 374.999991" height="500" preserveAspectRatio="xMidYMid meet" version="1.0"><defs><clipPath id="373442bdae"><path d="M 16.171875 15 L 358.921875 15 L 358.921875 375 L 16.171875 375 Z M 16.171875 15 " clip-rule="nonzero"/></clipPath></defs><g clip-path="url(#373442bdae)"><path fill="#0b1972" d="M 155.886719 329.882812 L 186.816406 329.882812 L 186.816406 316.824219 L 155.886719 316.824219 C 152.878906 316.824219 150.457031 314.402344 150.457031 311.417969 L 150.457031 277.144531 C 150.457031 274.15625 152.878906 271.714844 155.886719 271.714844 L 186.816406 271.714844 L 186.816406 256.125 L 106.824219 256.125 C 95.628906 256.125 86.464844 246.980469 86.464844 235.765625 L 86.464844 192.78125 L 63.15625 192.78125 L 61.992188 257.925781 L 90.992188 257.925781 C 93.988281 257.925781 96.421875 260.34375 96.421875 263.351562 L 96.421875 299.78125 C 96.421875 302.769531 93.980469 305.210938 90.992188 305.210938 L 63.265625 305.210938 L 63.265625 325.105469 L 90.179688 325.105469 C 93.171875 325.105469 95.609375 327.527344 95.609375 330.535156 L 95.609375 366.785156 C 95.609375 369.796875 93.164062 372.214844 90.179688 372.214844 L 22.484375 372.214844 C 19.492188 372.214844 17.078125 369.796875 17.078125 366.785156 L 17.078125 330.535156 C 17.078125 327.527344 19.5 325.105469 22.484375 325.105469 L 52.40625 325.105469 L 52.40625 305.210938 L 21.671875 305.210938 C 18.675781 305.210938 16.242188 302.769531 16.242188 299.78125 L 16.242188 263.351562 C 16.242188 260.34375 18.683594 257.925781 21.671875 257.925781 L 51.171875 257.925781 L 52.429688 187.726562 C 52.34375 184.359375 54.742188 181.921875 57.835938 181.921875 L 86.464844 181.921875 L 86.464844 132.371094 C 86.464844 121.179688 95.628906 112.035156 106.824219 112.035156 L 151.558594 112.035156 C 150.394531 109.15625 149.449219 106.273438 148.65625 103.457031 C 135.070312 103.144531 126.5625 89.449219 130.324219 79.886719 C 131.53125 76.785156 133.820312 74.410156 137.25 73.402344 C 135.976562 61.863281 136.0625 45.347656 143.625 36.6875 C 147.277344 32.503906 152.179688 30.597656 157.785156 31.078125 C 173.199219 0.015625 248.277344 14.085938 238.78125 75.90625 C 248.261719 83.121094 242.714844 102.835938 226.488281 105.195312 C 225.675781 107.566406 224.75 109.832031 223.742188 112.035156 L 269.386719 112.035156 C 280.601562 112.035156 289.746094 121.179688 289.746094 132.371094 L 289.746094 181.921875 L 318.375 181.921875 C 321.382812 181.921875 323.804688 184.34375 323.804688 187.351562 L 323.804688 257.925781 L 353.375 257.925781 C 356.371094 257.925781 358.804688 260.34375 358.804688 263.351562 L 358.804688 299.78125 C 358.804688 302.769531 356.363281 305.210938 353.375 305.210938 L 323.804688 305.210938 L 323.804688 325.105469 L 352.5625 325.105469 C 355.546875 325.105469 357.992188 327.527344 357.992188 330.535156 L 357.992188 366.785156 C 357.992188 369.796875 355.546875 372.214844 352.5625 372.214844 L 284.875 372.214844 C 281.867188 372.214844 279.445312 369.796875 279.445312 366.785156 L 279.445312 330.535156 C 279.445312 327.527344 281.867188 325.105469 284.875 325.105469 L 312.929688 325.105469 L 312.929688 305.210938 L 284.0625 305.210938 C 281.050781 305.210938 278.632812 302.769531 278.632812 299.78125 L 278.632812 263.351562 C 278.632812 260.34375 281.050781 257.925781 284.0625 257.925781 L 312.929688 257.925781 L 312.929688 192.78125 L 289.730469 192.78125 L 289.730469 235.765625 C 289.730469 246.980469 280.585938 256.125 269.371094 256.125 L 197.675781 256.125 L 197.675781 271.714844 L 228.589844 271.714844 C 231.601562 271.714844 234.019531 274.15625 234.019531 277.144531 L 234.019531 311.417969 C 234.019531 314.410156 231.601562 316.824219 228.589844 316.824219 L 197.675781 316.824219 L 197.675781 329.882812 L 228.589844 329.882812 C 231.601562 329.882812 234.019531 332.328125 234.019531 335.3125 L 234.019531 369.585938 C 234.019531 372.574219 231.601562 375.015625 228.589844 375.015625 L 155.886719 375.015625 C 152.878906 375.015625 150.457031 372.574219 150.457031 369.585938 L 150.457031 335.3125 C 150.457031 332.328125 152.878906 329.882812 155.886719 329.882812 Z M 223.183594 340.742188 L 161.324219 340.742188 L 161.324219 364.15625 L 223.191406 364.15625 L 223.191406 340.742188 Z M 192.230469 305.988281 L 223.183594 305.988281 L 223.183594 282.574219 L 161.324219 282.574219 L 161.324219 305.988281 Z M 84.75 335.972656 L 27.914062 335.972656 L 27.914062 361.363281 L 84.75 361.363281 Z M 85.554688 268.765625 L 27.097656 268.765625 L 27.097656 294.363281 C 46.597656 294.363281 66.082031 294.363281 85.554688 294.363281 Z M 219.46875 88.503906 L 219.539062 83.398438 L 217.429688 79.902344 C 201.492188 85.726562 186.40625 84.300781 173.089844 73.679688 C 171.6875 72.558594 169.660156 72.410156 167.945312 73.109375 C 164.496094 74.496094 161.464844 76.628906 158.957031 79.265625 C 157.855469 80.453125 156.871094 81.722656 156.011719 83.113281 C 156.5625 89.707031 158.429688 103.519531 164.675781 114.355469 C 166.699219 117.542969 166.808594 117.960938 169.53125 120.992188 C 173.949219 125.675781 179.859375 128.863281 187.800781 128.863281 C 193.914062 128.863281 199.675781 126.050781 204.601562 121.171875 C 207.082031 118.710938 208.207031 117.039062 210.25 114.136719 C 212.992188 109.917969 215.257812 104.96875 216.972656 99.492188 C 217.34375 97.648438 217.4375 97.863281 217.808594 96.59375 Z M 226.898438 74.675781 C 227.273438 74.542969 227.644531 74.410156 228.039062 74.300781 C 235.539062 25.253906 179.125 16.304688 167.933594 35.101562 C 178.109375 42.472656 183.628906 54.648438 182.464844 67.183594 C 193.191406 74.300781 205.402344 73.773438 217.554688 68.191406 C 220.347656 66.871094 223.511719 68.011719 224.828125 70.695312 C 225.542969 72.167969 226.226562 73.488281 226.898438 74.675781 Z M 229.894531 92.070312 C 233.167969 88.945312 232.757812 84.75 232.222656 84.640625 L 230.4375 84.925781 C 230.46875 87.734375 230.351562 89.410156 229.894531 92.070312 Z M 148.347656 74.742188 C 148.410156 74.765625 148.480469 74.804688 148.550781 74.851562 C 153.476562 68.300781 163.085938 61 171.699219 61.921875 C 171.460938 58.890625 170.667969 55.945312 169.375 53.238281 C 167.21875 48.707031 163.703125 44.835938 159.175781 42.285156 C 157.507812 41.820312 156.121094 41.734375 154.957031 41.9375 C 151.722656 42.511719 150.054688 45.984375 149.109375 49.148438 C 146.945312 56.207031 147.113281 66.128906 148.347656 74.742188 Z M 141.578125 88.574219 C 142.105469 89.386719 142.808594 90.132812 143.640625 90.769531 C 143.003906 88.503906 142.539062 86.175781 142.273438 83.820312 C 140.453125 83.421875 140.011719 83.53125 140.359375 85.578125 C 140.546875 86.570312 140.964844 87.601562 141.578125 88.574219 Z M 191.921875 152.21875 L 185.722656 152.21875 L 185.722656 163.851562 L 191.921875 163.851562 Z M 185.660156 141.359375 L 191.976562 141.359375 C 194.96875 141.359375 197.644531 142.570312 199.605469 144.523438 L 199.605469 144.546875 L 200.085938 145.050781 L 204.679688 141.839844 L 205.292969 138.808594 L 205.402344 134.363281 C 200.011719 137.816406 194.078125 139.730469 187.785156 139.730469 C 181.195312 139.730469 175.5625 138.210938 170.816406 135.644531 C 170.863281 136.457031 171.035156 141.011719 171.453125 141.601562 L 177.105469 145.601562 C 179.132812 142.988281 182.164062 141.359375 185.660156 141.359375 Z M 202.785156 156.398438 L 202.785156 160.066406 L 208.875 162.511719 L 207.710938 152.945312 Z M 192.519531 174.6875 L 185.109375 174.6875 L 181.15625 217.167969 L 188.671875 228.949219 L 188.957031 228.949219 L 196.496094 217.167969 Z M 174.867188 159.5 L 174.867188 157.257812 L 168.511719 152.753906 L 167.328125 162.519531 Z M 203.113281 171.871094 L 207.402344 217.625 C 207.6875 219.6875 207.246094 220.726562 206.058594 222.285156 L 201.792969 228.949219 L 222.859375 228.949219 L 222.859375 198.320312 C 222.859375 195.324219 225.277344 192.890625 228.289062 192.890625 C 231.28125 192.890625 233.71875 195.332031 233.71875 198.320312 L 233.71875 228.949219 L 258.644531 228.949219 L 258.644531 187.042969 C 258.644531 164.332031 240.332031 145.640625 217.6875 145.136719 L 220.742188 170.328125 C 221.207031 174.308594 217.183594 177.542969 213.335938 175.980469 Z M 175.835938 228.949219 L 171.523438 222.175781 C 170.578125 221.097656 170.050781 219.671875 170.179688 218.128906 L 174.578125 171.273438 L 162.859375 175.980469 C 159.011719 177.542969 154.988281 174.316406 155.476562 170.328125 L 155.453125 170.328125 L 158.507812 145.136719 C 135.882812 145.640625 117.550781 164.332031 117.550781 187.042969 L 117.550781 228.949219 L 142.5 228.949219 L 142.5 198.320312 C 142.5 195.324219 144.917969 192.890625 147.929688 192.890625 C 150.914062 192.890625 153.359375 195.332031 153.359375 198.320312 L 153.359375 228.949219 Z M 217.359375 122.894531 C 216.988281 123.375 216.632812 123.863281 216.257812 124.320312 L 216.257812 134.277344 C 231.097656 134.277344 244.203125 139.949219 254.007812 149.757812 C 263.570312 159.324219 269.503906 172.539062 269.503906 187.050781 L 269.503906 234.382812 C 269.503906 237.394531 267.082031 239.8125 264.074219 239.8125 C 213.421875 239.8125 162.765625 239.8125 112.113281 239.8125 C 109.101562 239.8125 106.683594 237.394531 106.683594 234.382812 L 106.683594 187.050781 C 106.683594 158.003906 130.425781 134.285156 159.445312 134.285156 L 159.949219 134.285156 L 159.949219 126.546875 L 157.230469 122.894531 L 106.816406 122.894531 C 101.601562 122.894531 97.3125 127.160156 97.3125 132.371094 L 97.3125 235.765625 C 97.3125 240.976562 101.601562 245.265625 106.816406 245.265625 L 269.371094 245.265625 C 274.582031 245.265625 278.871094 240.976562 278.871094 235.765625 L 278.871094 132.371094 C 278.871094 127.160156 274.582031 122.894531 269.371094 122.894531 Z M 347.117188 335.972656 C 328.183594 335.972656 309.238281 335.972656 290.304688 335.972656 L 290.304688 361.363281 L 347.117188 361.363281 Z M 347.933594 268.765625 L 289.5 268.765625 L 289.5 294.363281 L 347.933594 294.363281 Z M 347.933594 268.765625 " fill-opacity="1" fill-rule="nonzero"/><path fill="#0b1972" d="M 155.886719 329.882812 L 186.816406 329.882812 L 186.816406 316.824219 L 155.886719 316.824219 C 152.878906 316.824219 150.457031 314.402344 150.457031 311.417969 L 150.457031 277.144531 C 150.457031 274.15625 152.878906 271.714844 155.886719 271.714844 L 186.816406 271.714844 L 186.816406 256.125 L 106.824219 256.125 C 95.628906 256.125 86.464844 246.980469 86.464844 235.765625 L 86.464844 192.78125 L 63.15625 192.78125 L 61.992188 257.925781 L 90.992188 257.925781 C 93.988281 257.925781 96.421875 260.34375 96.421875 263.351562 L 96.421875 299.78125 C 96.421875 302.769531 93.980469 305.210938 90.992188 305.210938 L 63.265625 305.210938 L 63.265625 325.105469 L 90.179688 325.105469 C 93.171875 325.105469 95.609375 327.527344 95.609375 330.535156 L 95.609375 366.785156 C 95.609375 369.796875 93.164062 372.214844 90.179688 372.214844 L 22.484375 372.214844 C 19.492188 372.214844 17.078125 369.796875 17.078125 366.785156 L 17.078125 330.535156 C 17.078125 327.527344 19.5 325.105469 22.484375 325.105469 L 52.40625 325.105469 L 52.40625 305.210938 L 21.671875 305.210938 C 18.675781 305.210938 16.242188 302.769531 16.242188 299.78125 L 16.242188 263.351562 C 16.242188 260.34375 18.683594 257.925781 21.671875 257.925781 L 51.171875 257.925781 L 52.429688 187.726562 C 52.34375 184.359375 54.742188 181.921875 57.835938 181.921875 L 86.464844 181.921875 L 86.464844 132.371094 C 86.464844 121.179688 95.628906 112.035156 106.824219 112.035156 L 151.558594 112.035156 C 150.394531 109.15625 149.449219 106.273438 148.65625 103.457031 C 135.070312 103.144531 126.5625 89.449219 130.324219 79.886719 C 131.53125 76.785156 133.820312 74.410156 137.25 73.402344 C 135.976562 61.863281 136.0625 45.347656 143.625 36.6875 C 147.277344 32.503906 152.179688 30.597656 157.785156 31.078125 C 173.199219 0.015625 248.277344 14.085938 238.78125 75.90625 C 248.261719 83.121094 242.714844 102.835938 226.488281 105.195312 C 225.675781 107.566406 224.75 109.832031 223.742188 112.035156 L 269.386719 112.035156 C 280.601562 112.035156 289.746094 121.179688 289.746094 132.371094 L 289.746094 181.921875 L 318.375 181.921875 C 321.382812 181.921875 323.804688 184.34375 323.804688 187.351562 L 323.804688 257.925781 L 353.375 257.925781 C 356.371094 257.925781 358.804688 260.34375 358.804688 263.351562 L 358.804688 299.78125 C 358.804688 302.769531 356.363281 305.210938 353.375 305.210938 L 323.804688 305.210938 L 323.804688 325.105469 L 352.5625 325.105469 C 355.546875 325.105469 357.992188 327.527344 357.992188 330.535156 L 357.992188 366.785156 C 357.992188 369.796875 355.546875 372.214844 352.5625 372.214844 L 284.875 372.214844 C 281.867188 372.214844 279.445312 369.796875 279.445312 366.785156 L 279.445312 330.535156 C 279.445312 327.527344 281.867188 325.105469 284.875 325.105469 L 312.929688 325.105469 L 312.929688 305.210938 L 284.0625 305.210938 C 281.050781 305.210938 278.632812 302.769531 278.632812 299.78125 L 278.632812 263.351562 C 278.632812 260.34375 281.050781 257.925781 284.0625 257.925781 L 312.929688 257.925781 L 312.929688 192.78125 L 289.730469 192.78125 L 289.730469 235.765625 C 289.730469 246.980469 280.585938 256.125 269.371094 256.125 L 197.675781 256.125 L 197.675781 271.714844 L 228.589844 271.714844 C 231.601562 271.714844 234.019531 274.15625 234.019531 277.144531 L 234.019531 311.417969 C 234.019531 314.410156 231.601562 316.824219 228.589844 316.824219 L 197.675781 316.824219 L 197.675781 329.882812 L 228.589844 329.882812 C 231.601562 329.882812 234.019531 332.328125 234.019531 335.3125 L 234.019531 369.585938 C 234.019531 372.574219 231.601562 375.015625 228.589844 375.015625 L 155.886719 375.015625 C 152.878906 375.015625 150.457031 372.574219 150.457031 369.585938 L 150.457031 335.3125 C 150.457031 332.328125 152.878906 329.882812 155.886719 329.882812 Z M 223.183594 340.742188 L 161.324219 340.742188 L 161.324219 364.15625 L 223.191406 364.15625 L 223.191406 340.742188 Z M 192.230469 305.988281 L 223.183594 305.988281 L 223.183594 282.574219 L 161.324219 282.574219 L 161.324219 305.988281 Z M 84.75 335.972656 L 27.914062 335.972656 L 27.914062 361.363281 L 84.75 361.363281 Z M 85.554688 268.765625 L 27.097656 268.765625 L 27.097656 294.363281 C 46.597656 294.363281 66.082031 294.363281 85.554688 294.363281 Z M 219.46875 88.503906 L 219.539062 83.398438 L 217.429688 79.902344 C 201.492188 85.726562 186.40625 84.300781 173.089844 73.679688 C 171.6875 72.558594 169.660156 72.410156 167.945312 73.109375 C 164.496094 74.496094 161.464844 76.628906 158.957031 79.265625 C 157.855469 80.453125 156.871094 81.722656 156.011719 83.113281 C 156.5625 89.707031 158.429688 103.519531 164.675781 114.355469 C 166.699219 117.542969 166.808594 117.960938 169.53125 120.992188 C 173.949219 125.675781 179.859375 128.863281 187.800781 128.863281 C 193.914062 128.863281 199.675781 126.050781 204.601562 121.171875 C 207.082031 118.710938 208.207031 117.039062 210.25 114.136719 C 212.992188 109.917969 215.257812 104.96875 216.972656 99.492188 C 217.34375 97.648438 217.4375 97.863281 217.808594 96.59375 Z M 226.898438 74.675781 C 227.273438 74.542969 227.644531 74.410156 228.039062 74.300781 C 235.539062 25.253906 179.125 16.304688 167.933594 35.101562 C 178.109375 42.472656 183.628906 54.648438 182.464844 67.183594 C 193.191406 74.300781 205.402344 73.773438 217.554688 68.191406 C 220.347656 66.871094 223.511719 68.011719 224.828125 70.695312 C 225.542969 72.167969 226.226562 73.488281 226.898438 74.675781 Z M 229.894531 92.070312 C 233.167969 88.945312 232.757812 84.75 232.222656 84.640625 L 230.4375 84.925781 C 230.46875 87.734375 230.351562 89.410156 229.894531 92.070312 Z M 148.347656 74.742188 C 148.410156 74.765625 148.480469 74.804688 148.550781 74.851562 C 153.476562 68.300781 163.085938 61 171.699219 61.921875 C 171.460938 58.890625 170.667969 55.945312 169.375 53.238281 C 167.21875 48.707031 163.703125 44.835938 159.175781 42.285156 C 157.507812 41.820312 156.121094 41.734375 154.957031 41.9375 C 151.722656 42.511719 150.054688 45.984375 149.109375 49.148438 C 146.945312 56.207031 147.113281 66.128906 148.347656 74.742188 Z M 141.578125 88.574219 C 142.105469 89.386719 142.808594 90.132812 143.640625 90.769531 C 143.003906 88.503906 142.539062 86.175781 142.273438 83.820312 C 140.453125 83.421875 140.011719 83.53125 140.359375 85.578125 C 140.546875 86.570312 140.964844 87.601562 141.578125 88.574219 Z M 191.921875 152.21875 L 185.722656 152.21875 L 185.722656 163.851562 L 191.921875 163.851562 Z M 185.660156 141.359375 L 191.976562 141.359375 C 194.96875 141.359375 197.644531 142.570312 199.605469 144.523438 L 199.605469 144.546875 L 200.085938 145.050781 L 204.679688 141.839844 L 205.292969 138.808594 L 205.402344 134.363281 C 200.011719 137.816406 194.078125 139.730469 187.785156 139.730469 C 181.195312 139.730469 175.5625 138.210938 170.816406 135.644531 C 170.863281 136.457031 171.035156 141.011719 171.453125 141.601562 L 177.105469 145.601562 C 179.132812 142.988281 182.164062 141.359375 185.660156 141.359375 Z M 202.785156 156.398438 L 202.785156 160.066406 L 208.875 162.511719 L 207.710938 152.945312 Z M 192.519531 174.6875 L 185.109375 174.6875 L 181.15625 217.167969 L 188.671875 228.949219 L 188.957031 228.949219 L 196.496094 217.167969 Z M 174.867188 159.5 L 174.867188 157.257812 L 168.511719 152.753906 L 167.328125 162.519531 Z M 203.113281 171.871094 L 207.402344 217.625 C 207.6875 219.6875 207.246094 220.726562 206.058594 222.285156 L 201.792969 228.949219 L 222.859375 228.949219 L 222.859375 198.320312 C 222.859375 195.324219 225.277344 192.890625 228.289062 192.890625 C 231.28125 192.890625 233.71875 195.332031 233.71875 198.320312 L 233.71875 228.949219 L 258.644531 228.949219 L 258.644531 187.042969 C 258.644531 164.332031 240.332031 145.640625 217.6875 145.136719 L 220.742188 170.328125 C 221.207031 174.308594 217.183594 177.542969 213.335938 175.980469 Z M 175.835938 228.949219 L 171.523438 222.175781 C 170.578125 221.097656 170.050781 219.671875 170.179688 218.128906 L 174.578125 171.273438 L 162.859375 175.980469 C 159.011719 177.542969 154.988281 174.316406 155.476562 170.328125 L 155.453125 170.328125 L 158.507812 145.136719 C 135.882812 145.640625 117.550781 164.332031 117.550781 187.042969 L 117.550781 228.949219 L 142.5 228.949219 L 142.5 198.320312 C 142.5 195.324219 144.917969 192.890625 147.929688 192.890625 C 150.914062 192.890625 153.359375 195.332031 153.359375 198.320312 L 153.359375 228.949219 Z M 217.359375 122.894531 C 216.988281 123.375 216.632812 123.863281 216.257812 124.320312 L 216.257812 134.277344 C 231.097656 134.277344 244.203125 139.949219 254.007812 149.757812 C 263.570312 159.324219 269.503906 172.539062 269.503906 187.050781 L 269.503906 234.382812 C 269.503906 237.394531 267.082031 239.8125 264.074219 239.8125 C 213.421875 239.8125 162.765625 239.8125 112.113281 239.8125 C 109.101562 239.8125 106.683594 237.394531 106.683594 234.382812 L 106.683594 187.050781 C 106.683594 158.003906 130.425781 134.285156 159.445312 134.285156 L 159.949219 134.285156 L 159.949219 126.546875 L 157.230469 122.894531 L 106.816406 122.894531 C 101.601562 122.894531 97.3125 127.160156 97.3125 132.371094 L 97.3125 235.765625 C 97.3125 240.976562 101.601562 245.265625 106.816406 245.265625 L 269.371094 245.265625 C 274.582031 245.265625 278.871094 240.976562 278.871094 235.765625 L 278.871094 132.371094 C 278.871094 127.160156 274.582031 122.894531 269.371094 122.894531 Z M 347.117188 335.972656 C 328.183594 335.972656 309.238281 335.972656 290.304688 335.972656 L 290.304688 361.363281 L 347.117188 361.363281 Z M 347.933594 268.765625 L 289.5 268.765625 L 289.5 294.363281 L 347.933594 294.363281 Z M 347.933594 268.765625 " fill-opacity="1" fill-rule="nonzero"/></g></svg>