<svg xmlns="http://www.w3.org/2000/svg" xmlns:xlink="http://www.w3.org/1999/xlink" width="500" zoomAndPan="magnify" viewBox="0 0 375 374.999991" height="500" preserveAspectRatio="xMidYMid meet" version="1.0"><path fill="#23a8fe" d="M 46.546875 175.058594 L 115.371094 175.058594 C 135.507812 175.058594 151.984375 191.535156 151.984375 211.675781 L 151.984375 297.890625 L 131.078125 297.890625 L 131.078125 369.523438 L 26.386719 369.523438 L 26.386719 297.726562 C 14.652344 296.332031 5.476562 286.28125 5.476562 274.214844 L 5.476562 216.128906 C 5.476562 193.535156 23.953125 175.058594 46.546875 175.058594 Z M 46.546875 175.058594 " fill-opacity="1" fill-rule="evenodd"/><path fill="#6fd7a3" d="M 303.113281 5.476562 L 98.269531 5.476562 C 91.921875 5.476562 86.472656 7.953125 82.289062 12.71875 C 78.105469 17.480469 76.359375 23.222656 77.191406 29.507812 L 91.714844 139.460938 C 93.003906 149.261719 101.265625 156.5 111.167969 156.5 L 179.179688 156.5 L 175.933594 175.433594 C 175.308594 179.09375 177.847656 182.339844 181.132812 184.089844 C 184.402344 185.835938 188.644531 186.292969 191.203125 183.589844 L 216.835938 156.5 L 290.238281 156.5 C 300.140625 156.5 308.378906 149.261719 309.667969 139.460938 L 324.191406 29.507812 C 325.023438 23.222656 323.277344 17.480469 319.113281 12.71875 C 314.933594 7.953125 309.460938 5.476562 303.117188 5.476562 Z M 303.113281 5.476562 " fill-opacity="1" fill-rule="evenodd"/><path fill="#e1effb" d="M 107.027344 312.683594 L 191.746094 312.683594 L 222.910156 204.664062 L 138.191406 204.664062 Z M 107.027344 312.683594 " fill-opacity="1" fill-rule="evenodd"/><path fill="#f7c5b8" d="M 168.546875 296.019531 L 164.886719 305.109375 C 161.140625 314.410156 165.695312 325.105469 175.015625 328.847656 L 183.007812 332.054688 C 187.917969 334.03125 193.554688 331.636719 195.53125 326.726562 L 205.621094 301.613281 C 207.597656 296.703125 205.183594 291.089844 200.292969 289.109375 L 192.285156 285.886719 C 182.964844 282.140625 172.289062 286.699219 168.546875 296.019531 Z M 168.546875 296.019531 " fill-opacity="1" fill-rule="evenodd"/><path fill="#f7c5b8" d="M 80.957031 175.058594 C 101.785156 175.058594 118.78125 158.0625 118.78125 137.234375 C 118.78125 116.410156 101.785156 99.390625 80.957031 99.390625 C 60.132812 99.390625 43.113281 116.390625 43.113281 137.234375 C 43.113281 158.082031 60.109375 175.058594 80.957031 175.058594 Z M 80.957031 175.058594 " fill-opacity="1" fill-rule="evenodd"/><path fill="#f7c5b8" d="M 299.765625 165.363281 C 322.941406 165.363281 342.394531 180.945312 347.886719 202.042969 C 357.664062 203.539062 365.214844 212.027344 365.214844 222.203125 C 365.214844 233.394531 356.042969 242.570312 344.828125 242.570312 L 343.226562 242.570312 C 337.648438 255.617188 328.246094 267.785156 314.640625 273.03125 L 314.640625 290.589844 L 312.578125 290.589844 L 312.578125 292.667969 L 286.945312 292.667969 L 286.945312 290.589844 L 284.910156 290.589844 L 284.910156 273.152344 C 270.90625 267.972656 261.523438 255.71875 256.074219 242.570312 L 254.699219 242.570312 C 243.507812 242.570312 234.332031 233.394531 234.332031 222.203125 C 234.332031 212.027344 241.882812 203.539062 251.664062 202.042969 C 257.15625 180.945312 276.609375 165.363281 299.761719 165.363281 Z M 299.765625 165.363281 " fill-opacity="1" fill-rule="evenodd"/><path fill="#ff656f" d="M 231.355469 369.523438 L 369.523438 369.523438 L 369.523438 330.054688 C 369.523438 308.355469 351.753906 290.589844 330.054688 290.589844 L 270.824219 290.589844 C 249.125 290.589844 231.355469 308.355469 231.355469 330.054688 Z M 231.355469 369.523438 " fill-opacity="1" fill-rule="evenodd"/><path fill="#4a4d71" d="M 299.765625 147.472656 C 326.894531 147.472656 348.882812 167.421875 348.882812 192.015625 C 348.882812 212.859375 333.550781 248.167969 299.765625 248.167969 C 265 248.167969 250.664062 212.863281 250.664062 192.015625 C 250.664062 167.421875 272.65625 147.472656 299.761719 147.472656 Z M 299.765625 147.472656 " fill-opacity="1" fill-rule="evenodd"/><path fill="#000000" d="M 329.757812 284.519531 L 320.230469 284.519531 L 320.230469 276.667969 C 331.117188 271.296875 340.347656 261.386719 346.710938 248.21875 C 360.128906 247.09375 370.703125 235.824219 370.703125 222.128906 C 370.703125 211.300781 363.871094 201.675781 354.101562 197.773438 C 354.300781 195.8125 354.40625 193.882812 354.40625 192.003906 C 354.40625 169.046875 337.53125 149.644531 314.5625 143.632812 C 314.851562 142.550781 315.074219 141.449219 315.21875 140.328125 L 329.710938 30.605469 C 330.761719 22.664062 328.527344 15.273438 323.238281 9.21875 C 317.945312 3.1875 310.910156 0 302.894531 0 L 98.453125 0 C 90.433594 0 83.402344 3.1875 78.105469 9.21875 C 72.828125 15.230469 70.585938 22.617188 71.617188 30.601562 L 79.953125 93.75 C 56.464844 94.402344 37.558594 113.699219 37.558594 137.339844 C 37.558594 149.921875 42.921875 161.265625 51.476562 169.230469 L 46.839844 169.230469 C 21.011719 169.230469 0 190.242188 0 216.070312 L 0 274.035156 C 0 287.175781 8.667969 298.5 20.867188 302.226562 L 20.867188 369.148438 C 20.867188 372.378906 23.488281 375.003906 26.71875 375.003906 L 131.195312 375.003906 C 134.425781 375.003906 137.046875 372.378906 137.046875 369.148438 L 137.046875 318.28125 L 158.714844 318.28125 C 158.992188 319.226562 159.320312 320.167969 159.710938 321.089844 C 162.242188 327.019531 166.910156 331.601562 172.863281 333.992188 L 180.828125 337.1875 C 182.6875 337.933594 184.636719 338.308594 186.585938 338.308594 C 188.644531 338.308594 190.699219 337.894531 192.652344 337.0625 C 196.460938 335.445312 199.40625 332.449219 200.945312 328.625 L 211.015625 303.566406 C 213.71875 296.847656 211.324219 289.324219 205.675781 285.261719 L 228.460938 206.25 C 228.972656 204.484375 228.621094 202.578125 227.515625 201.109375 C 226.410156 199.636719 224.675781 198.773438 222.835938 198.773438 L 155.898438 198.773438 C 150.363281 181.398438 134.09375 169.230469 115.519531 169.230469 L 110.867188 169.230469 C 113.074219 167.175781 115.066406 164.890625 116.8125 162.421875 L 172.265625 162.421875 L 170.183594 174.476562 C 169.195312 180.28125 172.417969 186.085938 178.386719 189.257812 C 181.050781 190.683594 183.796875 191.386719 186.390625 191.386719 C 189.878906 191.386719 193.089844 190.113281 195.449219 187.621094 L 219.296875 162.421875 L 255.207031 162.421875 C 248.59375 170.730469 244.679688 180.953125 244.679688 192.003906 C 244.679688 193.871094 244.777344 195.804688 244.972656 197.78125 C 235.207031 201.671875 228.378906 211.300781 228.378906 222.128906 C 228.378906 235.726562 238.796875 246.933594 252.070312 248.195312 C 258.363281 261.539062 267.699219 271.515625 278.851562 276.851562 L 278.851562 284.519531 L 270.652344 284.519531 C 245.707031 284.519531 225.410156 304.8125 225.410156 329.761719 L 225.410156 369.144531 C 225.410156 372.378906 228.03125 375 231.265625 375 L 369.144531 375 C 372.378906 375 375 372.378906 375 369.144531 L 375 329.761719 C 375 304.816406 354.703125 284.519531 329.757812 284.519531 Z M 342.695312 192.003906 C 342.695312 209.503906 330.03125 242.1875 299.53125 242.1875 C 267.25 242.1875 256.386719 207.726562 256.386719 192.003906 C 256.386719 170.722656 275.742188 153.410156 299.53125 153.410156 C 323.320312 153.410156 342.695312 170.722656 342.695312 192.003906 Z M 125.339844 363.289062 L 32.574219 363.289062 L 32.574219 303.351562 L 103.71875 303.351562 L 101.570312 310.800781 C 101.058594 312.566406 101.410156 314.472656 102.515625 315.945312 C 103.621094 317.414062 105.351562 318.277344 107.195312 318.277344 L 125.339844 318.277344 Z M 200.152344 299.195312 L 190.082031 324.25 C 189.714844 325.167969 189 325.890625 188.074219 326.285156 C 187.144531 326.679688 186.125 326.691406 185.195312 326.320312 L 177.226562 323.121094 C 174.179688 321.898438 171.785156 319.542969 170.484375 316.492188 C 169.183594 313.445312 169.140625 310.089844 170.363281 307.054688 L 174.019531 297.980469 C 174.019531 297.980469 174.019531 297.976562 174.019531 297.976562 C 175.242188 294.929688 177.597656 292.535156 180.644531 291.234375 C 182.214844 290.5625 183.871094 290.226562 185.519531 290.226562 C 187.070312 290.226562 188.617188 290.523438 190.089844 291.113281 L 196.449219 293.675781 C 196.496094 293.695312 196.546875 293.714844 196.597656 293.734375 L 198.074219 294.328125 C 199.957031 295.089844 200.90625 297.316406 200.152344 299.195312 Z M 194.882812 280.421875 L 194.457031 280.25 C 188.507812 277.859375 181.96875 277.933594 176.046875 280.464844 C 170.125 282.992188 165.546875 287.65625 163.15625 293.605469 L 159.5 302.679688 C 158.988281 303.953125 158.59375 305.253906 158.308594 306.570312 L 114.976562 306.570312 L 117.046875 299.386719 C 117.105469 299.21875 117.15625 299.042969 117.199219 298.863281 L 142.699219 210.484375 L 151.304688 210.484375 C 151.3125 210.484375 151.324219 210.484375 151.335938 210.484375 L 215.054688 210.484375 Z M 115.519531 180.9375 C 127.65625 180.9375 138.433594 188.121094 143.363281 198.773438 L 138.296875 198.773438 C 135.6875 198.773438 133.394531 200.5 132.671875 203.003906 L 122.804688 237.199219 L 113.28125 220.699219 C 111.664062 217.898438 108.085938 216.9375 105.285156 218.554688 C 102.484375 220.171875 101.523438 223.75 103.140625 226.550781 L 114.472656 246.191406 L 49.496094 246.191406 L 49.496094 223.125 C 49.496094 219.894531 46.875 217.269531 43.640625 217.269531 C 40.410156 217.269531 37.785156 219.890625 37.785156 223.125 L 37.785156 247.105469 C 37.785156 253.058594 42.621094 257.902344 48.5625 257.902344 L 116.828125 257.902344 L 107.097656 291.640625 L 27.164062 291.640625 C 18.335938 290.464844 11.710938 282.945312 11.710938 274.035156 L 11.710938 216.066406 C 11.710938 196.699219 27.46875 180.9375 46.839844 180.9375 Z M 49.269531 137.339844 C 49.269531 119.742188 63.582031 105.429688 81.179688 105.429688 C 98.773438 105.429688 113.070312 119.742188 113.070312 137.339844 C 113.070312 154.933594 98.765625 169.230469 81.179688 169.230469 C 63.59375 169.230469 49.269531 154.921875 49.269531 137.339844 Z M 216.773438 150.710938 C 215.164062 150.710938 213.628906 151.371094 212.523438 152.539062 L 186.9375 179.582031 C 186.691406 179.726562 185.4375 179.75 183.894531 178.925781 C 182.429688 178.144531 181.628906 177.027344 181.726562 176.453125 L 184.984375 157.558594 C 185.28125 155.859375 184.808594 154.113281 183.695312 152.792969 C 182.582031 151.472656 180.941406 150.710938 179.214844 150.710938 L 122.671875 150.710938 C 124.035156 146.492188 124.777344 142.003906 124.777344 137.339844 C 124.777344 117 110.792969 99.871094 91.9375 95.066406 L 83.226562 29.085938 C 82.632812 24.484375 83.871094 20.402344 86.910156 16.941406 C 89.957031 13.46875 93.839844 11.710938 98.453125 11.710938 L 302.894531 11.710938 C 307.507812 11.710938 311.390625 13.46875 314.429688 16.929688 C 317.472656 20.414062 318.707031 24.496094 318.101562 29.066406 L 303.605469 138.824219 C 303.476562 139.851562 303.230469 140.84375 302.878906 141.800781 C 301.769531 141.738281 300.65625 141.699219 299.53125 141.699219 C 287.914062 141.699219 277.136719 145.035156 268.257812 150.707031 L 216.773438 150.707031 Z M 286.738281 267.484375 C 272.253906 262.125 264.609375 248.097656 261.339844 240.214844 C 260.433594 238.027344 258.296875 236.601562 255.929688 236.601562 L 254.5625 236.601562 C 246.582031 236.601562 240.089844 230.109375 240.089844 222.128906 C 240.089844 216.929688 242.945312 212.238281 247.234375 209.679688 C 253.308594 231.417969 270.335938 253.894531 299.53125 253.894531 C 327.648438 253.894531 345.445312 231.726562 351.789062 209.640625 C 356.113281 212.195312 358.992188 216.90625 358.992188 222.128906 C 358.992188 230.109375 352.492188 236.601562 344.5 236.601562 L 342.902344 236.601562 C 340.558594 236.601562 338.441406 238 337.519531 240.15625 C 334.175781 247.980469 326.445312 261.925781 312.273438 267.386719 C 310.011719 268.257812 308.523438 270.429688 308.523438 272.851562 L 308.523438 284.519531 L 290.5625 284.519531 L 290.5625 272.976562 C 290.5625 270.527344 289.039062 268.335938 286.738281 267.484375 Z M 363.289062 363.289062 L 237.121094 363.289062 L 237.121094 329.761719 C 237.121094 311.269531 252.164062 296.230469 270.652344 296.230469 L 329.757812 296.230469 C 348.246094 296.230469 363.289062 311.269531 363.289062 329.761719 Z M 135.699219 38.472656 C 135.699219 35.238281 138.320312 32.617188 141.554688 32.617188 L 296.269531 32.617188 C 299.503906 32.617188 302.125 35.238281 302.125 38.472656 C 302.125 41.703125 299.503906 44.328125 296.269531 44.328125 L 141.554688 44.328125 C 138.320312 44.328125 135.699219 41.703125 135.699219 38.472656 Z M 251.40625 72.148438 L 113.671875 72.148438 C 110.4375 72.148438 107.816406 69.527344 107.816406 66.292969 C 107.816406 63.058594 110.4375 60.4375 113.671875 60.4375 L 251.40625 60.4375 C 254.636719 60.4375 257.257812 63.058594 257.257812 66.292969 C 257.257812 69.527344 254.636719 72.148438 251.40625 72.148438 Z M 282.714844 94.132812 C 282.714844 97.367188 280.09375 99.988281 276.859375 99.988281 L 155.089844 99.988281 C 151.855469 99.988281 149.234375 97.367188 149.234375 94.132812 C 149.234375 90.902344 151.855469 88.277344 155.089844 88.277344 L 276.859375 88.277344 C 280.09375 88.277344 282.714844 90.902344 282.714844 94.132812 Z M 268.078125 127.808594 L 133.25 127.808594 C 130.015625 127.808594 127.394531 125.1875 127.394531 121.953125 C 127.394531 118.722656 130.015625 116.101562 133.25 116.101562 L 268.078125 116.101562 C 271.308594 116.101562 273.929688 118.722656 273.929688 121.953125 C 273.929688 125.1875 271.308594 127.808594 268.078125 127.808594 Z M 123.78125 44.328125 L 105.054688 44.328125 C 101.820312 44.328125 99.199219 41.703125 99.199219 38.472656 C 99.199219 35.238281 101.820312 32.617188 105.054688 32.617188 L 123.78125 32.617188 C 127.015625 32.617188 129.636719 35.238281 129.636719 38.472656 C 129.636719 41.703125 127.015625 44.328125 123.78125 44.328125 Z M 293.53125 66.292969 C 293.53125 69.527344 290.910156 72.148438 287.675781 72.148438 L 269.53125 72.148438 C 266.296875 72.148438 263.675781 69.527344 263.675781 66.292969 C 263.675781 63.058594 266.296875 60.4375 269.53125 60.4375 L 287.675781 60.4375 C 290.910156 60.4375 293.53125 63.058594 293.53125 66.292969 Z M 138.625 99.988281 L 124.46875 99.988281 C 121.234375 99.988281 118.613281 97.367188 118.613281 94.132812 C 118.613281 90.902344 121.234375 88.277344 124.46875 88.277344 L 138.625 88.277344 C 141.859375 88.277344 144.480469 90.902344 144.480469 94.132812 C 144.480469 97.367188 141.859375 99.988281 138.625 99.988281 Z M 138.625 99.988281 " fill-opacity="1" fill-rule="nonzero"/><path fill="#23a8fe" d="M 46.546875 175.058594 L 115.371094 175.058594 C 135.507812 175.058594 151.984375 191.535156 151.984375 211.675781 L 151.984375 297.890625 L 131.078125 297.890625 L 131.078125 369.523438 L 26.386719 369.523438 L 26.386719 297.726562 C 14.652344 296.332031 5.476562 286.28125 5.476562 274.214844 L 5.476562 216.128906 C 5.476562 193.535156 23.953125 175.058594 46.546875 175.058594 Z M 46.546875 175.058594 " fill-opacity="1" fill-rule="evenodd"/><path fill="#6fd7a3" d="M 303.113281 5.476562 L 98.269531 5.476562 C 91.921875 5.476562 86.472656 7.953125 82.289062 12.71875 C 78.105469 17.480469 76.359375 23.222656 77.191406 29.507812 L 91.714844 139.460938 C 93.003906 149.261719 101.265625 156.5 111.167969 156.5 L 179.179688 156.5 L 175.933594 175.433594 C 175.308594 179.09375 177.847656 182.339844 181.132812 184.089844 C 184.402344 185.835938 188.644531 186.292969 191.203125 183.589844 L 216.835938 156.5 L 290.238281 156.5 C 300.140625 156.5 308.378906 149.261719 309.667969 139.460938 L 324.191406 29.507812 C 325.023438 23.222656 323.277344 17.480469 319.113281 12.71875 C 314.933594 7.953125 309.460938 5.476562 303.117188 5.476562 Z M 303.113281 5.476562 " fill-opacity="1" fill-rule="evenodd"/><path fill="#e1effb" d="M 107.027344 312.683594 L 191.746094 312.683594 L 222.910156 204.664062 L 138.191406 204.664062 Z M 107.027344 312.683594 " fill-opacity="1" fill-rule="evenodd"/><path fill="#f7c5b8" d="M 168.546875 296.019531 L 164.886719 305.109375 C 161.140625 314.410156 165.695312 325.105469 175.015625 328.847656 L 183.007812 332.054688 C 187.917969 334.03125 193.554688 331.636719 195.53125 326.726562 L 205.621094 301.613281 C 207.597656 296.703125 205.183594 291.089844 200.292969 289.109375 L 192.285156 285.886719 C 182.964844 282.140625 172.289062 286.699219 168.546875 296.019531 Z M 168.546875 296.019531 " fill-opacity="1" fill-rule="evenodd"/><path fill="#f7c5b8" d="M 80.957031 175.058594 C 101.785156 175.058594 118.78125 158.0625 118.78125 137.234375 C 118.78125 116.410156 101.785156 99.390625 80.957031 99.390625 C 60.132812 99.390625 43.113281 116.390625 43.113281 137.234375 C 43.113281 158.082031 60.109375 175.058594 80.957031 175.058594 Z M 80.957031 175.058594 " fill-opacity="1" fill-rule="evenodd"/><path fill="#f7c5b8" d="M 299.765625 165.363281 C 322.941406 165.363281 342.394531 180.945312 347.886719 202.042969 C 357.664062 203.539062 365.214844 212.027344 365.214844 222.203125 C 365.214844 233.394531 356.042969 242.570312 344.828125 242.570312 L 343.226562 242.570312 C 337.648438 255.617188 328.246094 267.785156 314.640625 273.03125 L 314.640625 290.589844 L 312.578125 290.589844 L 312.578125 292.667969 L 286.945312 292.667969 L 286.945312 290.589844 L 284.910156 290.589844 L 284.910156 273.152344 C 270.90625 267.972656 261.523438 255.71875 256.074219 242.570312 L 254.699219 242.570312 C 243.507812 242.570312 234.332031 233.394531 234.332031 222.203125 C 234.332031 212.027344 241.882812 203.539062 251.664062 202.042969 C 257.15625 180.945312 276.609375 165.363281 299.761719 165.363281 Z M 299.765625 165.363281 " fill-opacity="1" fill-rule="evenodd"/><path fill="#ff656f" d="M 231.355469 369.523438 L 369.523438 369.523438 L 369.523438 330.054688 C 369.523438 308.355469 351.753906 290.589844 330.054688 290.589844 L 270.824219 290.589844 C 249.125 290.589844 231.355469 308.355469 231.355469 330.054688 Z M 231.355469 369.523438 " fill-opacity="1" fill-rule="evenodd"/><path fill="#4a4d71" d="M 299.765625 147.472656 C 326.894531 147.472656 348.882812 167.421875 348.882812 192.015625 C 348.882812 212.859375 333.550781 248.167969 299.765625 248.167969 C 265 248.167969 250.664062 212.863281 250.664062 192.015625 C 250.664062 167.421875 272.65625 147.472656 299.761719 147.472656 Z M 299.765625 147.472656 " fill-opacity="1" fill-rule="evenodd"/><path fill="#000000" d="M 329.757812 284.519531 L 320.230469 284.519531 L 320.230469 276.667969 C 331.117188 271.296875 340.347656 261.386719 346.710938 248.21875 C 360.128906 247.09375 370.703125 235.824219 370.703125 222.128906 C 370.703125 211.300781 363.871094 201.675781 354.101562 197.773438 C 354.300781 195.8125 354.40625 193.882812 354.40625 192.003906 C 354.40625 169.046875 337.53125 149.644531 314.5625 143.632812 C 314.851562 142.550781 315.074219 141.449219 315.21875 140.328125 L 329.710938 30.605469 C 330.761719 22.664062 328.527344 15.273438 323.238281 9.21875 C 317.945312 3.1875 310.910156 0 302.894531 0 L 98.453125 0 C 90.433594 0 83.402344 3.1875 78.105469 9.21875 C 72.828125 15.230469 70.585938 22.617188 71.617188 30.601562 L 79.953125 93.75 C 56.464844 94.402344 37.558594 113.699219 37.558594 137.339844 C 37.558594 149.921875 42.921875 161.265625 51.476562 169.230469 L 46.839844 169.230469 C 21.011719 169.230469 0 190.242188 0 216.070312 L 0 274.035156 C 0 287.175781 8.667969 298.5 20.867188 302.226562 L 20.867188 369.148438 C 20.867188 372.378906 23.488281 375.003906 26.71875 375.003906 L 131.195312 375.003906 C 134.425781 375.003906 137.046875 372.378906 137.046875 369.148438 L 137.046875 318.28125 L 158.714844 318.28125 C 158.992188 319.226562 159.320312 320.167969 159.710938 321.089844 C 162.242188 327.019531 166.910156 331.601562 172.863281 333.992188 L 180.828125 337.1875 C 182.6875 337.933594 184.636719 338.308594 186.585938 338.308594 C 188.644531 338.308594 190.699219 337.894531 192.652344 337.0625 C 196.460938 335.445312 199.40625 332.449219 200.945312 328.625 L 211.015625 303.566406 C 213.71875 296.847656 211.324219 289.324219 205.675781 285.261719 L 228.460938 206.25 C 228.972656 204.484375 228.621094 202.578125 227.515625 201.109375 C 226.410156 199.636719 224.675781 198.773438 222.835938 198.773438 L 155.898438 198.773438 C 150.363281 181.398438 134.09375 169.230469 115.519531 169.230469 L 110.867188 169.230469 C 113.074219 167.175781 115.066406 164.890625 116.8125 162.421875 L 172.265625 162.421875 L 170.183594 174.476562 C 169.195312 180.28125 172.417969 186.085938 178.386719 189.257812 C 181.050781 190.683594 183.796875 191.386719 186.390625 191.386719 C 189.878906 191.386719 193.089844 190.113281 195.449219 187.621094 L 219.296875 162.421875 L 255.207031 162.421875 C 248.59375 170.730469 244.679688 180.953125 244.679688 192.003906 C 244.679688 193.871094 244.777344 195.804688 244.972656 197.78125 C 235.207031 201.671875 228.378906 211.300781 228.378906 222.128906 C 228.378906 235.726562 238.796875 246.933594 252.070312 248.195312 C 258.363281 261.539062 267.699219 271.515625 278.851562 276.851562 L 278.851562 284.519531 L 270.652344 284.519531 C 245.707031 284.519531 225.410156 304.8125 225.410156 329.761719 L 225.410156 369.144531 C 225.410156 372.378906 228.03125 375 231.265625 375 L 369.144531 375 C 372.378906 375 375 372.378906 375 369.144531 L 375 329.761719 C 375 304.816406 354.703125 284.519531 329.757812 284.519531 Z M 342.695312 192.003906 C 342.695312 209.503906 330.03125 242.1875 299.53125 242.1875 C 267.25 242.1875 256.386719 207.726562 256.386719 192.003906 C 256.386719 170.722656 275.742188 153.410156 299.53125 153.410156 C 323.320312 153.410156 342.695312 170.722656 342.695312 192.003906 Z M 125.339844 363.289062 L 32.574219 363.289062 L 32.574219 303.351562 L 103.71875 303.351562 L 101.570312 310.800781 C 101.058594 312.566406 101.410156 314.472656 102.515625 315.945312 C 103.621094 317.414062 105.351562 318.277344 107.195312 318.277344 L 125.339844 318.277344 Z M 200.152344 299.195312 L 190.082031 324.25 C 189.714844 325.167969 189 325.890625 188.074219 326.285156 C 187.144531 326.679688 186.125 326.691406 185.195312 326.320312 L 177.226562 323.121094 C 174.179688 321.898438 171.785156 319.542969 170.484375 316.492188 C 169.183594 313.445312 169.140625 310.089844 170.363281 307.054688 L 174.019531 297.980469 C 174.019531 297.980469 174.019531 297.976562 174.019531 297.976562 C 175.242188 294.929688 177.597656 292.535156 180.644531 291.234375 C 182.214844 290.5625 183.871094 290.226562 185.519531 290.226562 C 187.070312 290.226562 188.617188 290.523438 190.089844 291.113281 L 196.449219 293.675781 C 196.496094 293.695312 196.546875 293.714844 196.597656 293.734375 L 198.074219 294.328125 C 199.957031 295.089844 200.90625 297.316406 200.152344 299.195312 Z M 194.882812 280.421875 L 194.457031 280.25 C 188.507812 277.859375 181.96875 277.933594 176.046875 280.464844 C 170.125 282.992188 165.546875 287.65625 163.15625 293.605469 L 159.5 302.679688 C 158.988281 303.953125 158.59375 305.253906 158.308594 306.570312 L 114.976562 306.570312 L 117.046875 299.386719 C 117.105469 299.21875 117.15625 299.042969 117.199219 298.863281 L 142.699219 210.484375 L 151.304688 210.484375 C 151.3125 210.484375 151.324219 210.484375 151.335938 210.484375 L 215.054688 210.484375 Z M 115.519531 180.9375 C 127.65625 180.9375 138.433594 188.121094 143.363281 198.773438 L 138.296875 198.773438 C 135.6875 198.773438 133.394531 200.5 132.671875 203.003906 L 122.804688 237.199219 L 113.28125 220.699219 C 111.664062 217.898438 108.085938 216.9375 105.285156 218.554688 C 102.484375 220.171875 101.523438 223.75 103.140625 226.550781 L 114.472656 246.191406 L 49.496094 246.191406 L 49.496094 223.125 C 49.496094 219.894531 46.875 217.269531 43.640625 217.269531 C 40.410156 217.269531 37.785156 219.890625 37.785156 223.125 L 37.785156 247.105469 C 37.785156 253.058594 42.621094 257.902344 48.5625 257.902344 L 116.828125 257.902344 L 107.097656 291.640625 L 27.164062 291.640625 C 18.335938 290.464844 11.710938 282.945312 11.710938 274.035156 L 11.710938 216.066406 C 11.710938 196.699219 27.46875 180.9375 46.839844 180.9375 Z M 49.269531 137.339844 C 49.269531 119.742188 63.582031 105.429688 81.179688 105.429688 C 98.773438 105.429688 113.070312 119.742188 113.070312 137.339844 C 113.070312 154.933594 98.765625 169.230469 81.179688 169.230469 C 63.59375 169.230469 49.269531 154.921875 49.269531 137.339844 Z M 216.773438 150.710938 C 215.164062 150.710938 213.628906 151.371094 212.523438 152.539062 L 186.9375 179.582031 C 186.691406 179.726562 185.4375 179.75 183.894531 178.925781 C 182.429688 178.144531 181.628906 177.027344 181.726562 176.453125 L 184.984375 157.558594 C 185.28125 155.859375 184.808594 154.113281 183.695312 152.792969 C 182.582031 151.472656 180.941406 150.710938 179.214844 150.710938 L 122.671875 150.710938 C 124.035156 146.492188 124.777344 142.003906 124.777344 137.339844 C 124.777344 117 110.792969 99.871094 91.9375 95.066406 L 83.226562 29.085938 C 82.632812 24.484375 83.871094 20.402344 86.910156 16.941406 C 89.957031 13.46875 93.839844 11.710938 98.453125 11.710938 L 302.894531 11.710938 C 307.507812 11.710938 311.390625 13.46875 314.429688 16.929688 C 317.472656 20.414062 318.707031 24.496094 318.101562 29.066406 L 303.605469 138.824219 C 303.476562 139.851562 303.230469 140.84375 302.878906 141.800781 C 301.769531 141.738281 300.65625 141.699219 299.53125 141.699219 C 287.914062 141.699219 277.136719 145.035156 268.257812 150.707031 L 216.773438 150.707031 Z M 286.738281 267.484375 C 272.253906 262.125 264.609375 248.097656 261.339844 240.214844 C 260.433594 238.027344 258.296875 236.601562 255.929688 236.601562 L 254.5625 236.601562 C 246.582031 236.601562 240.089844 230.109375 240.089844 222.128906 C 240.089844 216.929688 242.945312 212.238281 247.234375 209.679688 C 253.308594 231.417969 270.335938 253.894531 299.53125 253.894531 C 327.648438 253.894531 345.445312 231.726562 351.789062 209.640625 C 356.113281 212.195312 358.992188 216.90625 358.992188 222.128906 C 358.992188 230.109375 352.492188 236.601562 344.5 236.601562 L 342.902344 236.601562 C 340.558594 236.601562 338.441406 238 337.519531 240.15625 C 334.175781 247.980469 326.445312 261.925781 312.273438 267.386719 C 310.011719 268.257812 308.523438 270.429688 308.523438 272.851562 L 308.523438 284.519531 L 290.5625 284.519531 L 290.5625 272.976562 C 290.5625 270.527344 289.039062 268.335938 286.738281 267.484375 Z M 363.289062 363.289062 L 237.121094 363.289062 L 237.121094 329.761719 C 237.121094 311.269531 252.164062 296.230469 270.652344 296.230469 L 329.757812 296.230469 C 348.246094 296.230469 363.289062 311.269531 363.289062 329.761719 Z M 135.699219 38.472656 C 135.699219 35.238281 138.320312 32.617188 141.554688 32.617188 L 296.269531 32.617188 C 299.503906 32.617188 302.125 35.238281 302.125 38.472656 C 302.125 41.703125 299.503906 44.328125 296.269531 44.328125 L 141.554688 44.328125 C 138.320312 44.328125 135.699219 41.703125 135.699219 38.472656 Z M 251.40625 72.148438 L 113.671875 72.148438 C 110.4375 72.148438 107.816406 69.527344 107.816406 66.292969 C 107.816406 63.058594 110.4375 60.4375 113.671875 60.4375 L 251.40625 60.4375 C 254.636719 60.4375 257.257812 63.058594 257.257812 66.292969 C 257.257812 69.527344 254.636719 72.148438 251.40625 72.148438 Z M 282.714844 94.132812 C 282.714844 97.367188 280.09375 99.988281 276.859375 99.988281 L 155.089844 99.988281 C 151.855469 99.988281 149.234375 97.367188 149.234375 94.132812 C 149.234375 90.902344 151.855469 88.277344 155.089844 88.277344 L 276.859375 88.277344 C 280.09375 88.277344 282.714844 90.902344 282.714844 94.132812 Z M 268.078125 127.808594 L 133.25 127.808594 C 130.015625 127.808594 127.394531 125.1875 127.394531 121.953125 C 127.394531 118.722656 130.015625 116.101562 133.25 116.101562 L 268.078125 116.101562 C 271.308594 116.101562 273.929688 118.722656 273.929688 121.953125 C 273.929688 125.1875 271.308594 127.808594 268.078125 127.808594 Z M 123.78125 44.328125 L 105.054688 44.328125 C 101.820312 44.328125 99.199219 41.703125 99.199219 38.472656 C 99.199219 35.238281 101.820312 32.617188 105.054688 32.617188 L 123.78125 32.617188 C 127.015625 32.617188 129.636719 35.238281 129.636719 38.472656 C 129.636719 41.703125 127.015625 44.328125 123.78125 44.328125 Z M 293.53125 66.292969 C 293.53125 69.527344 290.910156 72.148438 287.675781 72.148438 L 269.53125 72.148438 C 266.296875 72.148438 263.675781 69.527344 263.675781 66.292969 C 263.675781 63.058594 266.296875 60.4375 269.53125 60.4375 L 287.675781 60.4375 C 290.910156 60.4375 293.53125 63.058594 293.53125 66.292969 Z M 138.625 99.988281 L 124.46875 99.988281 C 121.234375 99.988281 118.613281 97.367188 118.613281 94.132812 C 118.613281 90.902344 121.234375 88.277344 124.46875 88.277344 L 138.625 88.277344 C 141.859375 88.277344 144.480469 90.902344 144.480469 94.132812 C 144.480469 97.367188 141.859375 99.988281 138.625 99.988281 Z M 138.625 99.988281 " fill-opacity="1" fill-rule="nonzero"/></svg>