<svg xmlns="http://www.w3.org/2000/svg" xmlns:xlink="http://www.w3.org/1999/xlink" width="500" zoomAndPan="magnify" viewBox="0 0 375 374.999991" height="500" preserveAspectRatio="xMidYMid meet" version="1.0"><defs><clipPath id="113fb6ba54"><path d="M 187.5 0 C 83.945312 0 0 83.945312 0 187.5 C 0 291.054688 83.945312 375 187.5 375 C 291.054688 375 375 291.054688 375 187.5 C 375 83.945312 291.054688 0 187.5 0 Z M 187.5 0 " clip-rule="nonzero"/></clipPath><clipPath id="3ca9c553c0"><path d="M 0 0 L 375 0 L 375 375 L 0 375 Z M 0 0 " clip-rule="nonzero"/></clipPath><clipPath id="68af1990cd"><path d="M 187.5 0 C 83.945312 0 0 83.945312 0 187.5 C 0 291.054688 83.945312 375 187.5 375 C 291.054688 375 375 291.054688 375 187.5 C 375 83.945312 291.054688 0 187.5 0 Z M 187.5 0 " clip-rule="nonzero"/></clipPath><clipPath id="04db5cb117"><rect x="0" width="375" y="0" height="375"/></clipPath><clipPath id="6cc4b2be9b"><path d="M 86 70 L 290 70 L 290 324.101562 L 86 324.101562 Z M 86 70 " clip-rule="nonzero"/></clipPath></defs><g clip-path="url(#113fb6ba54)"><g transform="matrix(1, 0, 0, 1, 0, 0)"><g clip-path="url(#04db5cb117)"><g clip-path="url(#3ca9c553c0)"><g clip-path="url(#68af1990cd)"><rect x="-82.5" width="540" fill="#e6ac41" height="539.999987" y="-82.499998" fill-opacity="1"/></g></g></g></g></g><g clip-path="url(#6cc4b2be9b)"><path fill="#ffffff" d="M 257.382812 201.292969 L 257.382812 199.714844 C 257.382812 183.644531 239.105469 170.613281 217.800781 170.613281 L 156.210938 170.613281 C 134.902344 170.613281 119.277344 183.644531 119.277344 199.714844 L 119.277344 201.292969 Z M 266.113281 313.492188 L 283.785156 313.492188 C 286.714844 313.492188 289.09375 315.871094 289.09375 318.800781 C 289.09375 321.734375 286.714844 324.113281 283.785156 324.113281 L 91.8125 324.113281 C 88.878906 324.113281 86.503906 321.734375 86.503906 318.800781 C 86.503906 315.871094 88.878906 313.492188 91.8125 313.492188 L 110.105469 313.492188 C 104.941406 311.035156 101.085938 306.175781 100.089844 300.222656 L 86.730469 220.324219 C 85.242188 211.425781 91.25 203.003906 100.148438 201.515625 C 101.039062 201.367188 101.941406 201.292969 102.84375 201.292969 L 111.320312 201.292969 L 111.320312 199.714844 C 111.320312 178.5625 131.164062 162.65625 156.210938 162.65625 L 161.050781 162.65625 C 147.113281 153.710938 137.878906 138.105469 137.878906 120.347656 C 137.878906 92.566406 160.472656 70.058594 188.332031 70.058594 C 216.191406 70.058594 238.785156 92.566406 238.785156 120.347656 C 238.785156 138.105469 229.550781 153.710938 215.613281 162.65625 L 217.800781 162.65625 C 243.246094 162.65625 265.34375 178.742188 265.34375 199.714844 L 265.34375 201.292969 L 273.375 201.292969 C 282.398438 201.292969 289.714844 208.609375 289.714844 217.632812 C 289.714844 218.535156 289.636719 219.433594 289.488281 220.324219 L 276.128906 300.222656 C 275.132812 306.175781 271.28125 311.035156 266.113281 313.492188 Z M 188.332031 162.679688 C 211.800781 162.679688 230.828125 143.726562 230.828125 120.347656 C 230.828125 96.96875 211.800781 78.015625 188.332031 78.015625 C 164.863281 78.015625 145.835938 96.96875 145.835938 120.347656 C 145.835938 143.726562 164.863281 162.679688 188.332031 162.679688 Z M 187.796875 278.367188 C 199.078125 278.367188 208.21875 269.222656 208.21875 257.945312 C 208.21875 246.664062 199.078125 237.519531 187.796875 237.519531 C 176.519531 237.519531 167.375 246.664062 167.375 257.945312 C 167.375 269.222656 176.519531 278.367188 187.796875 278.367188 Z M 187.796875 278.367188 " fill-opacity="1" fill-rule="nonzero"/></g></svg>