<svg xmlns="http://www.w3.org/2000/svg" xmlns:xlink="http://www.w3.org/1999/xlink" width="500" zoomAndPan="magnify" viewBox="0 0 375 374.999991" height="500" preserveAspectRatio="xMidYMid meet" version="1.0"><defs><clipPath id="96fe3627a6"><path d="M 187.5 0 C 83.945312 0 0 83.945312 0 187.5 C 0 291.054688 83.945312 375 187.5 375 C 291.054688 375 375 291.054688 375 187.5 C 375 83.945312 291.054688 0 187.5 0 Z M 187.5 0 " clip-rule="nonzero"/></clipPath><clipPath id="4a2c8f1bdc"><path d="M 0 0 L 375 0 L 375 375 L 0 375 Z M 0 0 " clip-rule="nonzero"/></clipPath><clipPath id="4a4854016c"><path d="M 187.5 0 C 83.945312 0 0 83.945312 0 187.5 C 0 291.054688 83.945312 375 187.5 375 C 291.054688 375 375 291.054688 375 187.5 C 375 83.945312 291.054688 0 187.5 0 Z M 187.5 0 " clip-rule="nonzero"/></clipPath><clipPath id="f7f75f3ecc"><rect x="0" width="375" y="0" height="375"/></clipPath><clipPath id="b0d1507660"><path d="M 82.058594 48.253906 L 292.808594 48.253906 L 292.808594 304 L 82.058594 304 Z M 82.058594 48.253906 " clip-rule="nonzero"/></clipPath></defs><g clip-path="url(#96fe3627a6)"><g transform="matrix(1, 0, 0, 1, 0, 0)"><g clip-path="url(#f7f75f3ecc)"><g clip-path="url(#4a2c8f1bdc)"><g clip-path="url(#4a4854016c)"><rect x="-82.5" width="540" fill="#e6ac41" height="539.999987" y="-82.499998" fill-opacity="1"/></g></g></g></g></g><g clip-path="url(#b0d1507660)"><path fill="#ffffff" d="M 269.113281 126.296875 L 246.695312 120.695312 L 244.425781 120.128906 L 229.890625 116.492188 L 229.890625 238.015625 C 230.84375 238.835938 231.773438 239.679688 232.679688 240.554688 L 233.261719 241.125 L 278.203125 241.125 L 278.203125 128.570312 L 273.449219 127.382812 Z M 115.027344 149.320312 L 124.328125 149.320312 L 124.328125 140.019531 L 115.027344 140.019531 Z M 127.515625 155.695312 L 111.839844 155.695312 C 110.078125 155.695312 108.648438 154.269531 108.648438 152.507812 L 108.648438 136.832031 C 108.648438 135.070312 110.078125 133.640625 111.839844 133.640625 L 127.515625 133.640625 C 129.277344 133.640625 130.707031 135.070312 130.707031 136.832031 L 130.707031 152.507812 C 130.707031 154.269531 129.277344 155.695312 127.515625 155.695312 Z M 115.027344 214.375 L 124.328125 214.375 L 124.328125 205.070312 L 115.027344 205.070312 Z M 127.515625 220.75 L 111.839844 220.75 C 110.078125 220.75 108.648438 219.320312 108.648438 217.5625 L 108.648438 201.882812 C 108.648438 200.121094 110.078125 198.695312 111.839844 198.695312 L 127.515625 198.695312 C 129.277344 198.695312 130.707031 200.121094 130.707031 201.882812 L 130.707031 217.5625 C 130.707031 219.320312 129.277344 220.75 127.515625 220.75 Z M 249.394531 150.488281 L 249.394531 141.1875 L 258.695312 141.1875 L 258.695312 150.488281 Z M 261.886719 156.863281 L 246.207031 156.863281 C 244.445312 156.863281 243.019531 155.4375 243.019531 153.675781 L 243.019531 137.996094 C 243.019531 136.238281 244.445312 134.808594 246.207031 134.808594 L 261.886719 134.808594 C 263.644531 134.808594 265.074219 136.238281 265.074219 137.996094 L 265.074219 153.675781 C 265.074219 155.4375 263.644531 156.863281 261.886719 156.863281 Z M 249.394531 215.539062 L 249.394531 206.238281 L 258.695312 206.238281 L 258.695312 215.539062 Z M 261.886719 221.917969 L 246.207031 221.917969 C 244.445312 221.917969 243.019531 220.488281 243.019531 218.726562 L 243.019531 203.050781 C 243.019531 201.289062 244.445312 199.863281 246.207031 199.863281 L 261.886719 199.863281 C 263.644531 199.863281 265.074219 201.289062 265.074219 203.050781 L 265.074219 218.726562 C 265.074219 220.488281 263.644531 221.917969 261.886719 221.917969 Z M 174.902344 230.015625 L 185.449219 240.53125 C 186.257812 241.335938 186.542969 242.46875 186.300781 243.503906 L 186.308594 243.503906 L 178.40625 276.917969 L 187.46875 285.070312 L 196.53125 276.917969 L 188.628906 243.503906 C 188.355469 242.328125 188.773438 241.148438 189.621094 240.398438 L 200.035156 230.015625 C 195.984375 229.132812 191.78125 228.667969 187.46875 228.667969 C 183.15625 228.667969 178.953125 229.132812 174.902344 230.015625 Z M 207.039062 232.007812 C 213.449219 234.269531 219.351562 237.609375 224.519531 241.8125 C 224.625 241.910156 224.738281 242.003906 224.855469 242.089844 C 226.03125 243.058594 227.171875 244.074219 228.269531 245.136719 C 228.6875 245.539062 229.097656 245.949219 229.503906 246.363281 C 229.601562 246.480469 229.707031 246.589844 229.824219 246.691406 C 232.769531 249.753906 235.382812 253.136719 237.613281 256.777344 C 237.6875 256.921875 237.769531 257.058594 237.863281 257.1875 C 242.839844 265.460938 245.832031 275.054688 246.191406 285.316406 C 246.203125 285.640625 246.121094 285.9375 245.96875 286.171875 L 245.960938 286.167969 C 245.804688 286.402344 245.566406 286.589844 245.273438 286.695312 C 226.011719 293.722656 206.738281 297.238281 187.46875 297.238281 C 168.195312 297.238281 148.929688 293.722656 129.667969 286.695312 C 129.375 286.589844 129.136719 286.402344 128.980469 286.167969 C 128.820312 285.933594 128.738281 285.636719 128.75 285.316406 C 129.105469 275.054688 132.101562 265.460938 137.074219 257.191406 C 137.167969 257.058594 137.253906 256.917969 137.328125 256.773438 C 139.558594 253.132812 142.171875 249.753906 145.117188 246.691406 C 145.230469 246.589844 145.339844 246.476562 145.441406 246.359375 C 145.84375 245.945312 146.253906 245.539062 146.667969 245.136719 C 147.769531 244.074219 148.914062 243.058594 150.09375 242.082031 L 150.144531 242.046875 L 150.144531 242.042969 L 150.203125 242 L 150.207031 241.996094 L 150.324219 241.902344 L 150.378906 241.851562 L 150.378906 241.847656 L 150.414062 241.820312 C 155.582031 237.613281 161.484375 234.269531 167.894531 232.007812 L 179.699219 243.777344 L 171.773438 277.300781 C 171.492188 278.496094 171.929688 279.691406 172.804688 280.441406 L 185.339844 291.714844 C 186.5625 292.820312 188.414062 292.792969 189.609375 291.707031 L 202.191406 280.386719 C 203.082031 279.585938 203.417969 278.390625 203.164062 277.300781 L 195.238281 243.777344 Z M 187.46875 164.789062 C 180.660156 164.789062 174.492188 167.550781 170.03125 172.011719 C 165.570312 176.472656 162.808594 182.640625 162.808594 189.453125 C 162.808594 196.261719 165.570312 202.429688 170.03125 206.890625 C 174.492188 211.351562 180.660156 214.113281 187.46875 214.113281 C 194.28125 214.113281 200.449219 211.351562 204.910156 206.890625 C 209.371094 202.429688 212.132812 196.261719 212.132812 189.453125 C 212.132812 182.640625 209.371094 176.472656 204.910156 172.011719 C 200.449219 167.550781 194.28125 164.789062 187.46875 164.789062 Z M 165.523438 167.503906 C 171.140625 161.886719 178.902344 158.414062 187.46875 158.414062 C 196.039062 158.414062 203.800781 161.886719 209.417969 167.503906 C 215.035156 173.121094 218.507812 180.882812 218.507812 189.453125 C 218.507812 198.023438 215.035156 205.78125 209.417969 211.398438 C 203.800781 217.015625 196.039062 220.492188 187.46875 220.492188 C 178.898438 220.492188 171.140625 217.015625 165.523438 211.398438 C 159.90625 205.78125 156.429688 198.023438 156.429688 189.453125 C 156.429688 180.882812 159.90625 173.121094 165.523438 167.503906 Z M 223.515625 233.179688 C 213.191406 226.300781 200.796875 222.292969 187.46875 222.292969 C 174.140625 222.292969 161.75 226.300781 151.425781 233.179688 L 151.425781 89.179688 L 223.515625 89.179688 Z M 145.046875 238.015625 C 144.09375 238.835938 143.164062 239.683594 142.261719 240.554688 L 141.679688 241.125 L 96.738281 241.125 L 96.738281 128.570312 L 105.449219 126.390625 L 105.828125 126.296875 L 128.246094 120.695312 L 130.367188 120.164062 L 145.046875 116.492188 Z M 136.023438 247.5 L 88.421875 247.5 L 88.421875 252.148438 L 132.730469 252.148438 C 133.761719 250.550781 134.859375 249 136.023438 247.5 Z M 129.105469 258.523438 L 85.230469 258.523438 C 83.472656 258.523438 82.042969 257.097656 82.042969 255.335938 L 82.042969 244.3125 C 82.042969 242.550781 83.472656 241.125 85.230469 241.125 L 90.363281 241.125 L 90.363281 130.164062 L 86.191406 131.207031 C 85.886719 131.300781 85.566406 131.351562 85.230469 131.351562 C 83.472656 131.351562 82.042969 129.925781 82.042969 128.164062 L 82.042969 118.535156 L 82.046875 118.535156 C 82.046875 117.109375 83.011719 115.808594 84.460938 115.449219 L 102.019531 111.058594 L 128.054688 104.550781 L 145.046875 100.300781 L 145.046875 85.992188 C 145.046875 84.230469 146.476562 82.804688 148.238281 82.804688 L 155.035156 82.804688 L 155.035156 73.046875 C 155.035156 71.285156 156.464844 69.855469 158.222656 69.855469 L 184.28125 69.855469 L 184.28125 51.75 C 184.28125 49.992188 185.710938 48.5625 187.46875 48.5625 C 189.230469 48.5625 190.65625 49.992188 190.65625 51.75 L 190.65625 69.855469 L 216.714844 69.855469 C 218.476562 69.855469 219.90625 71.285156 219.90625 73.046875 L 219.90625 82.804688 L 226.703125 82.804688 C 228.464844 82.804688 229.890625 84.230469 229.890625 85.992188 L 229.890625 100.300781 L 246.882812 104.550781 L 272.921875 111.058594 L 290.480469 115.449219 C 291.925781 115.808594 292.890625 117.109375 292.890625 118.535156 L 292.894531 118.535156 L 292.894531 128.164062 C 292.894531 129.925781 291.46875 131.351562 289.707031 131.351562 C 289.375 131.351562 289.050781 131.300781 288.75 131.207031 L 284.578125 130.164062 L 284.578125 241.125 L 289.707031 241.125 C 291.46875 241.125 292.894531 242.550781 292.894531 244.3125 L 292.894531 255.335938 C 292.894531 257.097656 291.46875 258.523438 289.707031 258.523438 L 245.835938 258.523438 C 249.832031 266.585938 252.210938 275.59375 252.542969 285.117188 C 252.601562 286.804688 252.128906 288.398438 251.242188 289.71875 L 251.234375 289.726562 L 251.242188 289.730469 C 250.351562 291.046875 249.046875 292.089844 247.441406 292.671875 C 227.449219 299.96875 207.453125 303.613281 187.46875 303.613281 C 167.480469 303.613281 147.492188 299.96875 127.5 292.671875 C 125.894531 292.085938 124.589844 291.046875 123.699219 289.726562 C 122.8125 288.410156 122.339844 286.8125 122.398438 285.117188 C 122.730469 275.59375 125.105469 266.585938 129.105469 258.523438 Z M 242.210938 252.148438 L 286.519531 252.148438 L 286.519531 247.5 L 238.917969 247.5 C 240.082031 249 241.179688 250.550781 242.210938 252.148438 Z M 249.394531 183.015625 L 249.394531 173.710938 L 258.695312 173.710938 L 258.695312 183.015625 Z M 261.886719 189.390625 L 246.207031 189.390625 C 244.445312 189.390625 243.019531 187.960938 243.019531 186.203125 L 243.019531 170.523438 C 243.019531 168.761719 244.445312 167.335938 246.207031 167.335938 L 261.886719 167.335938 C 263.644531 167.335938 265.074219 168.761719 265.074219 170.523438 L 265.074219 186.203125 C 265.074219 187.960938 263.644531 189.390625 261.886719 189.390625 Z M 115.027344 181.847656 L 124.328125 181.847656 L 124.328125 172.546875 L 115.027344 172.546875 Z M 127.515625 188.222656 C 129.277344 188.222656 130.707031 186.796875 130.707031 185.035156 L 130.707031 169.355469 C 130.707031 167.597656 129.277344 166.167969 127.515625 166.167969 L 111.839844 166.167969 C 110.078125 166.167969 108.648438 167.597656 108.648438 169.355469 L 108.648438 185.035156 C 108.648438 186.796875 110.078125 188.222656 111.839844 188.222656 Z M 163.71875 139.394531 L 184.28125 139.394531 L 184.28125 133.773438 L 163.71875 133.773438 Z M 190.65625 139.394531 L 211.21875 139.394531 L 211.21875 133.773438 L 190.65625 133.773438 Z M 214.40625 145.769531 C 216.167969 145.769531 217.597656 144.34375 217.597656 142.582031 L 217.597656 130.585938 C 217.597656 128.824219 216.167969 127.394531 214.40625 127.394531 L 160.53125 127.394531 C 158.769531 127.394531 157.34375 128.824219 157.34375 130.585938 L 157.34375 142.582031 C 157.34375 144.34375 158.769531 145.769531 160.53125 145.769531 Z M 145.046875 109.929688 L 145.046875 106.863281 L 129.601562 110.726562 L 103.5625 117.234375 L 88.421875 121.019531 L 88.421875 124.085938 L 92.589844 123.042969 C 92.710938 123.007812 92.835938 122.976562 92.960938 122.953125 L 128.769531 114 L 130.320312 113.613281 L 132.179688 113.148438 Z M 161.410156 82.804688 L 213.527344 82.804688 L 213.527344 76.234375 L 161.410156 76.234375 Z M 246.058594 113.972656 L 244.617188 113.613281 L 242.761719 113.148438 L 229.890625 109.929688 L 229.890625 106.863281 L 245.339844 110.726562 L 271.378906 117.234375 L 286.519531 121.019531 L 286.519531 124.085938 L 282.347656 123.042969 C 282.226562 123.007812 282.105469 122.976562 281.976562 122.953125 Z M 163.71875 113.703125 L 184.28125 113.703125 L 184.28125 108.082031 L 163.71875 108.082031 Z M 190.65625 113.703125 L 211.21875 113.703125 L 211.21875 108.082031 L 190.65625 108.082031 Z M 214.40625 120.078125 C 216.167969 120.078125 217.597656 118.652344 217.597656 116.890625 L 217.597656 104.894531 C 217.597656 103.132812 216.167969 101.703125 214.40625 101.703125 L 160.53125 101.703125 C 158.769531 101.703125 157.34375 103.132812 157.34375 104.894531 L 157.34375 116.890625 C 157.34375 118.652344 158.769531 120.078125 160.53125 120.078125 Z M 214.40625 120.078125 " fill-opacity="1" fill-rule="evenodd"/></g></svg>