<svg xmlns="http://www.w3.org/2000/svg" xmlns:xlink="http://www.w3.org/1999/xlink" width="500" zoomAndPan="magnify" viewBox="0 0 375 374.999991" height="500" preserveAspectRatio="xMidYMid meet" version="1.0"><defs><clipPath id="cefc884468"><path d="M 187.5 0 C 83.945312 0 0 83.945312 0 187.5 C 0 291.054688 83.945312 375 187.5 375 C 291.054688 375 375 291.054688 375 187.5 C 375 83.945312 291.054688 0 187.5 0 Z M 187.5 0 " clip-rule="nonzero"/></clipPath><clipPath id="18d7a6b9c1"><path d="M 0 0 L 375 0 L 375 375 L 0 375 Z M 0 0 " clip-rule="nonzero"/></clipPath><clipPath id="da53c9ef7d"><path d="M 187.5 0 C 83.945312 0 0 83.945312 0 187.5 C 0 291.054688 83.945312 375 187.5 375 C 291.054688 375 375 291.054688 375 187.5 C 375 83.945312 291.054688 0 187.5 0 Z M 187.5 0 " clip-rule="nonzero"/></clipPath><clipPath id="de5981758c"><rect x="0" width="375" y="0" height="375"/></clipPath><clipPath id="6bf1ad57aa"><path d="M 64.128906 65.082031 L 310.878906 65.082031 L 310.878906 320.082031 L 64.128906 320.082031 Z M 64.128906 65.082031 " clip-rule="nonzero"/></clipPath></defs><g clip-path="url(#cefc884468)"><g transform="matrix(1, 0, 0, 1, 0, 0)"><g clip-path="url(#de5981758c)"><g clip-path="url(#18d7a6b9c1)"><g clip-path="url(#da53c9ef7d)"><rect x="-82.5" width="540" fill="#e6ac41" height="539.999987" y="-82.499998" fill-opacity="1"/></g></g></g></g></g><path fill="#ffffff" d="M 187.496094 214.035156 C 189.835938 214.035156 191.75 212.121094 191.75 209.78125 L 191.75 197.019531 L 196.003906 197.019531 C 203.023438 197.019531 208.765625 191.277344 208.765625 184.257812 C 208.765625 177.238281 203.023438 171.496094 196.003906 171.496094 L 187.496094 171.496094 C 185.15625 171.496094 183.242188 173.410156 183.242188 175.75 L 183.242188 209.78125 C 183.242188 212.121094 185.15625 214.035156 187.496094 214.035156 Z M 191.75 180.003906 L 196.003906 180.003906 C 198.34375 180.003906 200.257812 181.917969 200.257812 184.257812 C 200.257812 186.597656 198.34375 188.511719 196.003906 188.511719 L 191.75 188.511719 Z M 191.75 180.003906 " fill-opacity="1" fill-rule="nonzero"/><path fill="#ffffff" d="M 221.53125 214.035156 C 223.867188 214.035156 225.785156 212.121094 225.785156 209.78125 L 225.785156 175.75 C 225.785156 173.410156 223.867188 171.496094 221.53125 171.496094 C 219.191406 171.496094 217.273438 173.410156 217.273438 175.75 L 217.273438 209.78125 C 217.273438 212.121094 219.191406 214.035156 221.53125 214.035156 Z M 221.53125 214.035156 " fill-opacity="1" fill-rule="nonzero"/><path fill="#ffffff" d="M 153.464844 214.035156 C 155.804688 214.035156 157.71875 212.121094 157.71875 209.78125 L 157.71875 197.019531 L 166.226562 197.019531 L 166.226562 209.78125 C 166.226562 212.121094 168.140625 214.035156 170.480469 214.035156 C 172.820312 214.035156 174.734375 212.121094 174.734375 209.78125 L 174.734375 184.257812 C 174.734375 177.238281 168.992188 171.496094 161.972656 171.496094 C 154.953125 171.496094 149.210938 177.238281 149.210938 184.257812 L 149.210938 209.78125 C 149.210938 212.121094 151.125 214.035156 153.464844 214.035156 Z M 157.71875 184.257812 C 157.71875 181.917969 159.632812 180.003906 161.972656 180.003906 C 164.3125 180.003906 166.226562 181.917969 166.226562 184.257812 L 166.226562 188.511719 L 157.71875 188.511719 Z M 157.71875 184.257812 " fill-opacity="1" fill-rule="nonzero"/><path fill="#ffffff" d="M 187.496094 256.578125 C 222.699219 256.578125 251.308594 227.96875 251.308594 192.765625 C 251.308594 157.5625 222.699219 128.953125 187.496094 128.953125 C 152.292969 128.953125 123.683594 157.5625 123.683594 192.765625 C 123.683594 227.96875 152.292969 256.578125 187.496094 256.578125 Z M 187.496094 137.460938 C 217.964844 137.460938 242.800781 162.296875 242.800781 192.765625 C 242.800781 223.234375 217.964844 248.070312 187.496094 248.070312 C 157.027344 248.070312 132.191406 223.234375 132.191406 192.765625 C 132.191406 162.296875 157.027344 137.460938 187.496094 137.460938 Z M 187.496094 137.460938 " fill-opacity="1" fill-rule="nonzero"/><g clip-path="url(#6bf1ad57aa)"><path fill="#ffffff" d="M 76.890625 286.355469 C 83.910156 286.355469 89.652344 280.613281 89.652344 273.59375 C 89.652344 268.0625 86.089844 263.332031 81.144531 261.574219 L 81.144531 250.144531 L 113.15625 224.511719 C 115.070312 228.925781 117.355469 233.234375 120.015625 237.222656 L 112.199219 245.039062 C 110.550781 246.6875 110.550781 249.398438 112.199219 251.046875 L 129.214844 268.0625 C 130.863281 269.710938 133.574219 269.710938 135.222656 268.0625 L 143.039062 260.246094 C 151.390625 265.722656 160.75 269.660156 170.480469 271.785156 L 170.480469 286.355469 C 170.480469 288.695312 172.394531 290.609375 174.734375 290.609375 L 200.257812 290.609375 C 202.597656 290.609375 204.511719 288.695312 204.511719 286.355469 L 204.511719 271.785156 C 208.074219 271.039062 211.585938 270.03125 214.988281 268.753906 L 221.582031 308.316406 C 221.902344 310.390625 223.710938 311.878906 225.785156 311.878906 L 239.289062 311.878906 C 241.046875 316.824219 245.777344 320.386719 251.308594 320.386719 C 258.328125 320.386719 264.070312 314.644531 264.070312 307.625 C 264.070312 300.605469 258.328125 294.863281 251.308594 294.863281 C 245.777344 294.863281 241.046875 298.425781 239.289062 303.371094 L 229.398438 303.371094 L 223.070312 265.351562 C 226.15625 263.863281 229.132812 262.160156 232.003906 260.246094 L 239.820312 268.0625 C 241.46875 269.710938 244.183594 269.710938 245.832031 268.0625 L 262.847656 251.046875 C 264.496094 249.398438 264.496094 246.6875 262.847656 245.039062 L 255.03125 237.222656 C 255.457031 236.582031 255.882812 235.945312 256.253906 235.304688 L 286.085938 235.304688 C 287.839844 240.25 292.574219 243.816406 298.101562 243.816406 C 305.121094 243.816406 310.867188 238.070312 310.867188 231.050781 C 310.867188 224.03125 305.121094 218.289062 298.101562 218.289062 C 292.574219 218.289062 287.839844 221.851562 286.085938 226.796875 L 260.828125 226.796875 C 263.378906 221.375 265.292969 215.632812 266.570312 209.78125 L 281.085938 209.78125 C 283.425781 209.78125 285.339844 207.867188 285.339844 205.527344 L 285.339844 180.003906 C 285.339844 177.664062 283.425781 175.75 281.085938 175.75 L 266.515625 175.75 C 264.441406 166.019531 260.507812 156.660156 254.976562 148.308594 L 262.792969 140.492188 C 264.441406 138.84375 264.441406 136.132812 262.792969 134.484375 L 245.777344 117.46875 C 244.128906 115.820312 241.417969 115.820312 239.769531 117.46875 L 231.953125 125.285156 C 229.082031 123.421875 226.101562 121.722656 223.070312 120.179688 L 245.246094 82.160156 L 260.5625 82.160156 C 262.316406 87.105469 267.046875 90.667969 272.578125 90.667969 C 279.597656 90.667969 285.339844 84.921875 285.339844 77.90625 C 285.339844 70.886719 279.597656 65.140625 272.578125 65.140625 C 267.046875 65.140625 262.316406 68.703125 260.5625 73.648438 L 242.800781 73.648438 C 241.3125 73.648438 239.875 74.449219 239.128906 75.777344 L 215.203125 116.828125 C 211.746094 115.554688 208.183594 114.542969 204.566406 113.746094 L 204.566406 99.175781 C 204.566406 96.835938 202.652344 94.921875 200.3125 94.921875 L 174.789062 94.921875 C 172.449219 94.921875 170.53125 96.835938 170.53125 99.175781 L 170.53125 113.746094 C 160.800781 115.820312 151.441406 119.753906 143.09375 125.285156 L 135.277344 117.46875 C 133.628906 115.820312 130.917969 115.820312 129.269531 117.46875 L 123.152344 123.476562 L 102.414062 109.652344 L 102.414062 89.921875 C 107.359375 88.167969 110.921875 83.433594 110.921875 77.90625 C 110.921875 70.886719 105.179688 65.140625 98.160156 65.140625 C 91.140625 65.140625 85.398438 70.886719 85.398438 77.90625 C 85.398438 83.433594 88.960938 88.167969 93.90625 89.921875 L 93.90625 111.9375 C 93.90625 113.371094 94.597656 114.703125 95.820312 115.5 L 117.039062 129.644531 L 112.199219 134.484375 C 110.550781 136.132812 110.550781 138.84375 112.199219 140.492188 L 120.015625 148.308594 C 114.539062 156.660156 110.601562 166.019531 108.476562 175.75 L 93.90625 175.75 C 91.566406 175.75 89.652344 177.664062 89.652344 180.003906 L 89.652344 205.527344 C 89.652344 207.867188 91.566406 209.78125 93.90625 209.78125 L 108.476562 209.78125 C 108.953125 211.910156 109.488281 213.984375 110.125 216.054688 L 74.285156 244.773438 C 73.273438 245.570312 72.6875 246.792969 72.6875 248.070312 L 72.6875 261.574219 C 67.742188 263.332031 64.179688 268.0625 64.179688 273.59375 C 64.128906 280.613281 69.871094 286.355469 76.890625 286.355469 Z M 251.308594 303.371094 C 253.648438 303.371094 255.5625 305.285156 255.5625 307.625 C 255.5625 309.964844 253.648438 311.878906 251.308594 311.878906 C 248.96875 311.878906 247.054688 309.964844 247.054688 307.625 C 247.054688 305.285156 248.96875 303.371094 251.308594 303.371094 Z M 298.101562 226.796875 C 300.441406 226.796875 302.355469 228.710938 302.355469 231.050781 C 302.355469 233.390625 300.441406 235.304688 298.101562 235.304688 C 295.761719 235.304688 293.847656 233.390625 293.847656 231.050781 C 293.847656 228.710938 295.761719 226.796875 298.101562 226.796875 Z M 272.578125 73.648438 C 274.917969 73.648438 276.832031 75.566406 276.832031 77.90625 C 276.832031 80.246094 274.917969 82.160156 272.578125 82.160156 C 270.238281 82.160156 268.324219 80.246094 268.324219 77.90625 C 268.324219 75.566406 270.238281 73.648438 272.578125 73.648438 Z M 98.160156 82.160156 C 95.820312 82.160156 93.90625 80.246094 93.90625 77.90625 C 93.90625 75.566406 95.820312 73.648438 98.160156 73.648438 C 100.5 73.648438 102.414062 75.566406 102.414062 77.90625 C 102.414062 80.246094 100.5 82.160156 98.160156 82.160156 Z M 98.160156 201.273438 L 98.160156 184.257812 L 111.984375 184.257812 C 114.058594 184.257812 115.816406 182.769531 116.1875 180.695312 C 117.996094 169.792969 122.460938 159.265625 128.949219 150.277344 C 130.171875 148.574219 130.011719 146.234375 128.523438 144.746094 L 121.183594 137.460938 L 132.191406 126.453125 L 139.53125 133.792969 C 141.019531 135.28125 143.359375 135.441406 145.0625 134.21875 C 154.046875 127.675781 164.578125 123.265625 175.480469 121.457031 C 177.550781 121.136719 179.042969 119.328125 179.042969 117.253906 L 179.042969 103.429688 L 196.058594 103.429688 L 196.058594 117.253906 C 196.058594 119.328125 197.546875 121.082031 199.621094 121.457031 C 210.523438 123.265625 221.050781 127.730469 230.039062 134.21875 C 231.738281 135.441406 234.078125 135.28125 235.566406 133.792969 L 242.90625 126.453125 L 253.914062 137.460938 L 246.574219 144.800781 C 245.085938 146.289062 244.925781 148.628906 246.148438 150.332031 C 252.691406 159.316406 257.105469 169.847656 258.914062 180.746094 C 259.230469 182.820312 261.039062 184.308594 263.113281 184.308594 L 276.9375 184.308594 L 276.9375 201.328125 L 263.113281 201.328125 C 261.039062 201.328125 259.285156 202.816406 258.914062 204.890625 C 257.105469 215.789062 252.636719 226.320312 246.148438 235.304688 C 244.925781 237.007812 245.085938 239.347656 246.574219 240.835938 L 253.914062 248.175781 L 242.800781 259.078125 L 235.460938 251.738281 C 233.972656 250.25 231.632812 250.089844 229.929688 251.3125 C 220.945312 257.851562 210.414062 262.265625 199.515625 264.074219 C 197.441406 264.394531 195.953125 266.203125 195.953125 268.277344 L 195.953125 282.101562 L 178.933594 282.101562 L 178.933594 268.277344 C 178.933594 266.203125 177.445312 264.445312 175.371094 264.074219 C 164.472656 262.265625 153.941406 257.851562 144.957031 251.3125 C 143.253906 250.089844 140.914062 250.25 139.425781 251.738281 L 132.191406 259.078125 L 121.183594 248.070312 L 128.523438 240.730469 C 130.011719 239.242188 130.171875 236.902344 128.949219 235.199219 C 122.410156 226.214844 117.996094 215.683594 116.1875 204.78125 C 115.867188 202.710938 114.058594 201.21875 111.984375 201.21875 L 98.160156 201.21875 Z M 76.890625 269.339844 C 79.230469 269.339844 81.144531 271.253906 81.144531 273.59375 C 81.144531 275.933594 79.230469 277.847656 76.890625 277.847656 C 74.550781 277.847656 72.636719 275.933594 72.636719 273.59375 C 72.636719 271.253906 74.550781 269.339844 76.890625 269.339844 Z M 76.890625 269.339844 " fill-opacity="1" fill-rule="nonzero"/></g></svg>