<svg xmlns="http://www.w3.org/2000/svg" xmlns:xlink="http://www.w3.org/1999/xlink" width="500" zoomAndPan="magnify" viewBox="0 0 375 374.999991" height="500" preserveAspectRatio="xMidYMid meet" version="1.0"><defs><clipPath id="bc47cf8eb8"><path d="M 187.5 0 C 83.945312 0 0 83.945312 0 187.5 C 0 291.054688 83.945312 375 187.5 375 C 291.054688 375 375 291.054688 375 187.5 C 375 83.945312 291.054688 0 187.5 0 Z M 187.5 0 " clip-rule="nonzero"/></clipPath><clipPath id="abdd818d45"><path d="M 0 0 L 375 0 L 375 375 L 0 375 Z M 0 0 " clip-rule="nonzero"/></clipPath><clipPath id="95c99aea9c"><path d="M 187.5 0 C 83.945312 0 0 83.945312 0 187.5 C 0 291.054688 83.945312 375 187.5 375 C 291.054688 375 375 291.054688 375 187.5 C 375 83.945312 291.054688 0 187.5 0 Z M 187.5 0 " clip-rule="nonzero"/></clipPath><clipPath id="2a29d059a3"><rect x="0" width="375" y="0" height="375"/></clipPath><clipPath id="e3aaa19bfc"><path d="M 82.058594 60 L 292.808594 60 L 292.808594 315.445312 L 82.058594 315.445312 Z M 82.058594 60 " clip-rule="nonzero"/></clipPath></defs><g clip-path="url(#bc47cf8eb8)"><g transform="matrix(1, 0, 0, 1, 0, 0)"><g clip-path="url(#2a29d059a3)"><g clip-path="url(#abdd818d45)"><g clip-path="url(#95c99aea9c)"><rect x="-82.5" width="540" fill="#e6ac41" height="539.999987" y="-82.499998" fill-opacity="1"/></g></g></g></g></g><g clip-path="url(#e3aaa19bfc)"><path fill="#ffffff" d="M 269.113281 137.738281 L 246.695312 132.136719 L 244.425781 131.566406 L 229.890625 127.933594 L 229.890625 249.457031 C 230.84375 250.273438 231.773438 251.121094 232.679688 251.992188 L 233.261719 252.5625 L 278.203125 252.5625 L 278.203125 140.011719 L 273.449219 138.824219 Z M 115.027344 160.761719 L 124.328125 160.761719 L 124.328125 151.460938 L 115.027344 151.460938 Z M 127.515625 167.136719 L 111.839844 167.136719 C 110.078125 167.136719 108.648438 165.710938 108.648438 163.949219 L 108.648438 148.269531 C 108.648438 146.511719 110.078125 145.082031 111.839844 145.082031 L 127.515625 145.082031 C 129.277344 145.082031 130.707031 146.511719 130.707031 148.269531 L 130.707031 163.949219 C 130.707031 165.710938 129.277344 167.136719 127.515625 167.136719 Z M 115.027344 225.8125 L 124.328125 225.8125 L 124.328125 216.511719 L 115.027344 216.511719 Z M 127.515625 232.191406 L 111.839844 232.191406 C 110.078125 232.191406 108.648438 230.761719 108.648438 229 L 108.648438 213.324219 C 108.648438 211.5625 110.078125 210.136719 111.839844 210.136719 L 127.515625 210.136719 C 129.277344 210.136719 130.707031 211.5625 130.707031 213.324219 L 130.707031 229 C 130.707031 230.761719 129.277344 232.191406 127.515625 232.191406 Z M 249.394531 161.929688 L 249.394531 152.625 L 258.695312 152.625 L 258.695312 161.929688 Z M 261.886719 168.304688 L 246.207031 168.304688 C 244.445312 168.304688 243.019531 166.878906 243.019531 165.117188 L 243.019531 149.4375 C 243.019531 147.675781 244.445312 146.25 246.207031 146.25 L 261.886719 146.25 C 263.644531 146.25 265.074219 147.675781 265.074219 149.4375 L 265.074219 165.117188 C 265.074219 166.878906 263.644531 168.304688 261.886719 168.304688 Z M 249.394531 226.980469 L 249.394531 217.679688 L 258.695312 217.679688 L 258.695312 226.980469 Z M 261.886719 233.355469 L 246.207031 233.355469 C 244.445312 233.355469 243.019531 231.929688 243.019531 230.167969 L 243.019531 214.492188 C 243.019531 212.730469 244.445312 211.300781 246.207031 211.300781 L 261.886719 211.300781 C 263.644531 211.300781 265.074219 212.730469 265.074219 214.492188 L 265.074219 230.167969 C 265.074219 231.929688 263.644531 233.355469 261.886719 233.355469 Z M 174.902344 241.457031 L 185.449219 251.96875 C 186.257812 252.777344 186.542969 253.910156 186.300781 254.945312 L 186.308594 254.945312 L 178.40625 288.359375 L 187.46875 296.507812 L 196.53125 288.359375 L 188.628906 254.945312 C 188.355469 253.769531 188.773438 252.589844 189.621094 251.839844 L 200.035156 241.457031 C 195.984375 240.574219 191.78125 240.109375 187.46875 240.109375 C 183.15625 240.109375 178.953125 240.574219 174.902344 241.457031 Z M 207.039062 243.445312 C 213.449219 245.707031 219.351562 249.050781 224.519531 253.253906 C 224.625 253.351562 224.738281 253.445312 224.855469 253.527344 C 226.03125 254.5 227.171875 255.515625 228.269531 256.574219 C 228.6875 256.976562 229.097656 257.386719 229.503906 257.804688 C 229.601562 257.921875 229.707031 258.03125 229.824219 258.132812 C 232.769531 261.195312 235.382812 264.574219 237.613281 268.21875 C 237.6875 268.359375 237.769531 268.5 237.863281 268.628906 C 242.839844 276.902344 245.832031 286.496094 246.191406 296.757812 C 246.203125 297.082031 246.121094 297.378906 245.96875 297.613281 L 245.960938 297.609375 C 245.804688 297.839844 245.566406 298.03125 245.273438 298.136719 C 226.011719 305.164062 206.738281 308.679688 187.46875 308.679688 C 168.195312 308.679688 148.929688 305.164062 129.667969 298.136719 C 129.375 298.03125 129.136719 297.84375 128.980469 297.609375 C 128.820312 297.371094 128.738281 297.078125 128.75 296.757812 C 129.105469 286.496094 132.101562 276.902344 137.074219 268.632812 C 137.167969 268.5 137.253906 268.359375 137.328125 268.214844 C 139.558594 264.574219 142.171875 261.195312 145.117188 258.132812 C 145.230469 258.03125 145.339844 257.917969 145.441406 257.800781 C 145.84375 257.386719 146.253906 256.980469 146.667969 256.578125 C 147.769531 255.515625 148.914062 254.496094 150.09375 253.523438 L 150.144531 253.484375 L 150.203125 253.4375 L 150.207031 253.4375 L 150.324219 253.34375 L 150.324219 253.339844 L 150.378906 253.289062 L 150.414062 253.261719 C 155.582031 249.054688 161.484375 245.710938 167.894531 243.445312 L 179.699219 255.214844 L 171.773438 288.738281 C 171.492188 289.9375 171.929688 291.132812 172.804688 291.878906 L 185.339844 303.15625 C 186.5625 304.261719 188.414062 304.234375 189.609375 303.144531 L 202.191406 291.828125 C 203.082031 291.023438 203.417969 289.832031 203.164062 288.738281 L 195.238281 255.214844 Z M 187.46875 176.230469 C 180.660156 176.230469 174.492188 178.992188 170.03125 183.453125 C 165.570312 187.914062 162.808594 194.082031 162.808594 200.890625 C 162.808594 207.703125 165.570312 213.871094 170.03125 218.332031 C 174.492188 222.792969 180.660156 225.554688 187.46875 225.554688 C 194.28125 225.554688 200.449219 222.792969 204.910156 218.332031 C 209.371094 213.871094 212.132812 207.703125 212.132812 200.890625 C 212.132812 194.082031 209.371094 187.914062 204.910156 183.453125 C 200.449219 178.992188 194.28125 176.230469 187.46875 176.230469 Z M 165.523438 178.945312 C 171.140625 173.328125 178.902344 169.851562 187.46875 169.851562 C 196.039062 169.851562 203.800781 173.328125 209.417969 178.945312 C 215.035156 184.5625 218.507812 192.324219 218.507812 200.890625 C 218.507812 209.460938 215.035156 217.222656 209.417969 222.839844 C 203.800781 228.457031 196.039062 231.929688 187.46875 231.929688 C 178.898438 231.929688 171.140625 228.457031 165.523438 222.839844 C 159.90625 217.222656 156.429688 209.460938 156.429688 200.890625 C 156.429688 192.324219 159.90625 184.5625 165.523438 178.945312 Z M 223.515625 244.621094 C 213.191406 237.742188 200.796875 233.730469 187.46875 233.730469 C 174.140625 233.730469 161.75 237.742188 151.425781 244.621094 L 151.425781 100.621094 L 223.515625 100.621094 Z M 145.046875 249.457031 C 144.09375 250.277344 143.164062 251.121094 142.261719 251.996094 L 141.679688 252.5625 L 96.738281 252.5625 L 96.738281 140.011719 L 105.449219 137.832031 L 105.828125 137.738281 L 128.246094 132.136719 L 130.367188 131.605469 L 145.046875 127.933594 Z M 136.023438 258.941406 L 88.421875 258.941406 L 88.421875 263.589844 L 132.730469 263.589844 C 133.761719 261.988281 134.859375 260.4375 136.023438 258.941406 Z M 129.105469 269.964844 L 85.230469 269.964844 C 83.472656 269.964844 82.042969 268.539062 82.042969 266.777344 L 82.042969 255.753906 C 82.042969 253.992188 83.472656 252.5625 85.230469 252.5625 L 90.363281 252.5625 L 90.363281 141.601562 L 86.191406 142.644531 C 85.886719 142.742188 85.566406 142.792969 85.230469 142.792969 C 83.472656 142.792969 82.042969 141.363281 82.042969 139.605469 L 82.042969 129.976562 L 82.046875 129.976562 C 82.046875 128.550781 83.011719 127.25 84.460938 126.886719 L 102.019531 122.5 L 128.054688 115.988281 L 145.046875 111.742188 L 145.046875 97.433594 C 145.046875 95.671875 146.476562 94.242188 148.238281 94.242188 L 155.035156 94.242188 L 155.035156 84.484375 C 155.035156 82.726562 156.464844 81.296875 158.222656 81.296875 L 184.28125 81.296875 L 184.28125 63.191406 C 184.28125 61.429688 185.710938 60.003906 187.46875 60.003906 C 189.230469 60.003906 190.65625 61.429688 190.65625 63.191406 L 190.65625 81.296875 L 216.714844 81.296875 C 218.476562 81.296875 219.90625 82.726562 219.90625 84.484375 L 219.90625 94.242188 L 226.703125 94.242188 C 228.464844 94.242188 229.890625 95.671875 229.890625 97.433594 L 229.890625 111.742188 L 246.882812 115.988281 L 272.921875 122.5 L 290.480469 126.886719 C 291.925781 127.25 292.890625 128.550781 292.890625 129.976562 L 292.894531 129.976562 L 292.894531 139.605469 C 292.894531 141.363281 291.46875 142.792969 289.707031 142.792969 C 289.375 142.792969 289.050781 142.742188 288.75 142.644531 L 284.578125 141.601562 L 284.578125 252.5625 L 289.707031 252.5625 C 291.46875 252.5625 292.894531 253.992188 292.894531 255.753906 L 292.894531 266.777344 C 292.894531 268.539062 291.46875 269.964844 289.707031 269.964844 L 245.835938 269.964844 C 249.832031 278.027344 252.210938 287.03125 252.542969 296.558594 C 252.601562 298.246094 252.128906 299.835938 251.242188 301.15625 L 251.234375 301.164062 L 251.242188 301.167969 C 250.351562 302.488281 249.046875 303.527344 247.441406 304.113281 C 227.449219 311.40625 207.453125 315.054688 187.46875 315.054688 C 167.480469 315.054688 147.492188 311.40625 127.5 304.113281 C 125.894531 303.527344 124.589844 302.488281 123.699219 301.167969 C 122.8125 299.851562 122.339844 298.253906 122.398438 296.558594 C 122.730469 287.03125 125.105469 278.027344 129.105469 269.964844 Z M 242.210938 263.589844 L 286.519531 263.589844 L 286.519531 258.941406 L 238.917969 258.941406 C 240.082031 260.4375 241.179688 261.988281 242.210938 263.589844 Z M 249.394531 194.453125 L 249.394531 185.152344 L 258.695312 185.152344 L 258.695312 194.453125 Z M 261.886719 200.832031 L 246.207031 200.832031 C 244.445312 200.832031 243.019531 199.402344 243.019531 197.644531 L 243.019531 181.964844 C 243.019531 180.203125 244.445312 178.777344 246.207031 178.777344 L 261.886719 178.777344 C 263.644531 178.777344 265.074219 180.203125 265.074219 181.964844 L 265.074219 197.644531 C 265.074219 199.402344 263.644531 200.832031 261.886719 200.832031 Z M 115.027344 193.289062 L 124.328125 193.289062 L 124.328125 183.984375 L 115.027344 183.984375 Z M 127.515625 199.664062 C 129.277344 199.664062 130.707031 198.234375 130.707031 196.476562 L 130.707031 180.796875 C 130.707031 179.035156 129.277344 177.609375 127.515625 177.609375 L 111.839844 177.609375 C 110.078125 177.609375 108.648438 179.035156 108.648438 180.796875 L 108.648438 196.476562 C 108.648438 198.234375 110.078125 199.664062 111.839844 199.664062 Z M 163.71875 150.835938 L 184.28125 150.835938 L 184.28125 145.210938 L 163.71875 145.210938 Z M 190.65625 150.835938 L 211.21875 150.835938 L 211.21875 145.210938 L 190.65625 145.210938 Z M 214.40625 157.210938 C 216.167969 157.210938 217.597656 155.78125 217.597656 154.023438 L 217.597656 142.023438 C 217.597656 140.265625 216.167969 138.835938 214.40625 138.835938 L 160.53125 138.835938 C 158.769531 138.835938 157.34375 140.265625 157.34375 142.023438 L 157.34375 154.023438 C 157.34375 155.78125 158.769531 157.210938 160.53125 157.210938 Z M 145.046875 121.371094 L 145.046875 118.304688 L 129.601562 122.164062 L 103.5625 128.675781 L 88.421875 132.460938 L 88.421875 135.527344 L 92.589844 134.484375 C 92.710938 134.445312 92.835938 134.414062 92.960938 134.390625 L 128.769531 125.441406 L 130.320312 125.050781 L 132.179688 124.585938 Z M 161.410156 94.242188 L 213.527344 94.242188 L 213.527344 87.675781 L 161.410156 87.675781 Z M 246.058594 125.414062 L 244.617188 125.050781 L 242.761719 124.585938 L 229.890625 121.371094 L 229.890625 118.304688 L 245.339844 122.164062 L 271.378906 128.675781 L 286.519531 132.460938 L 286.519531 135.527344 L 282.347656 134.484375 C 282.226562 134.445312 282.105469 134.414062 281.976562 134.390625 Z M 163.71875 125.140625 L 184.28125 125.140625 L 184.28125 119.523438 L 163.71875 119.523438 Z M 190.65625 125.140625 L 211.21875 125.140625 L 211.21875 119.523438 L 190.65625 119.523438 Z M 214.40625 131.519531 C 216.167969 131.519531 217.597656 130.089844 217.597656 128.332031 L 217.597656 116.332031 C 217.597656 114.574219 216.167969 113.144531 214.40625 113.144531 L 160.53125 113.144531 C 158.769531 113.144531 157.34375 114.574219 157.34375 116.332031 L 157.34375 128.332031 C 157.34375 130.089844 158.769531 131.519531 160.53125 131.519531 Z M 214.40625 131.519531 " fill-opacity="1" fill-rule="evenodd"/></g></svg>