<svg xmlns="http://www.w3.org/2000/svg" xmlns:xlink="http://www.w3.org/1999/xlink" width="500" zoomAndPan="magnify" viewBox="0 0 375 374.999991" height="500" preserveAspectRatio="xMidYMid meet" version="1.0"><defs><clipPath id="fb894338c6"><path d="M 187.5 0 C 83.945312 0 0 83.945312 0 187.5 C 0 291.054688 83.945312 375 187.5 375 C 291.054688 375 375 291.054688 375 187.5 C 375 83.945312 291.054688 0 187.5 0 Z M 187.5 0 " clip-rule="nonzero"/></clipPath><clipPath id="1a25b8fc0b"><path d="M 0 0 L 375 0 L 375 375 L 0 375 Z M 0 0 " clip-rule="nonzero"/></clipPath><clipPath id="619dd08437"><path d="M 187.5 0 C 83.945312 0 0 83.945312 0 187.5 C 0 291.054688 83.945312 375 187.5 375 C 291.054688 375 375 291.054688 375 187.5 C 375 83.945312 291.054688 0 187.5 0 Z M 187.5 0 " clip-rule="nonzero"/></clipPath><clipPath id="431f9b20e9"><rect x="0" width="375" y="0" height="375"/></clipPath><clipPath id="7e0025cba3"><path d="M 84.941406 76.820312 L 287.441406 76.820312 L 287.441406 302.570312 L 84.941406 302.570312 Z M 84.941406 76.820312 " clip-rule="nonzero"/></clipPath></defs><g clip-path="url(#fb894338c6)"><g transform="matrix(1, 0, 0, 1, 0, 0)"><g clip-path="url(#431f9b20e9)"><g clip-path="url(#1a25b8fc0b)"><g clip-path="url(#619dd08437)"><rect x="-82.5" width="540" fill="#e6ac41" height="539.999987" y="-82.499998" fill-opacity="1"/></g></g></g></g></g><g clip-path="url(#7e0025cba3)"><path fill="#eaf0fa" d="M 122.152344 76.890625 L 250.054688 76.890625 C 251.851562 76.890625 253.324219 78.359375 253.324219 80.160156 L 253.324219 87.921875 L 118.882812 87.921875 L 118.882812 80.160156 C 118.882812 78.359375 120.355469 76.890625 122.152344 76.890625 Z M 287.238281 152.058594 L 259.230469 152.058594 L 259.230469 168.882812 C 259.230469 176.578125 265.539062 182.886719 273.234375 182.886719 C 280.929688 182.886719 287.238281 176.578125 287.238281 168.882812 Z M 252.386719 152.058594 L 224.378906 152.058594 L 224.378906 168.882812 C 224.378906 176.578125 230.6875 182.886719 238.382812 182.886719 C 246.078125 182.886719 252.386719 176.578125 252.386719 168.882812 Z M 217.535156 152.058594 L 189.527344 152.058594 L 189.527344 168.882812 C 189.527344 176.578125 195.835938 182.886719 203.53125 182.886719 C 211.226562 182.886719 217.535156 176.578125 217.535156 168.882812 Z M 182.679688 152.058594 L 154.671875 152.058594 L 154.671875 168.882812 C 154.671875 176.578125 160.980469 182.886719 168.675781 182.886719 C 176.371094 182.886719 182.679688 176.578125 182.679688 168.882812 Z M 147.828125 152.058594 L 119.820312 152.058594 L 119.820312 168.882812 C 119.820312 176.578125 126.128906 182.886719 133.824219 182.886719 C 141.519531 182.886719 147.828125 176.578125 147.828125 168.882812 Z M 112.976562 152.058594 L 84.953125 152.058594 L 84.96875 168.882812 C 84.96875 176.578125 91.277344 182.886719 98.972656 182.886719 C 106.667969 182.886719 112.976562 176.578125 112.976562 168.882812 Z M 87.242188 145.214844 L 113.988281 145.214844 L 131.984375 94.765625 L 116.609375 94.765625 C 115.070312 94.765625 113.847656 95.488281 113.128906 96.835938 Z M 121.25 145.214844 L 139.246094 94.765625 L 157.386719 94.765625 L 148.386719 145.214844 Z M 155.335938 145.214844 L 182.679688 145.214844 L 182.679688 94.765625 L 164.332031 94.765625 Z M 189.523438 145.214844 L 216.871094 145.214844 L 207.875 94.765625 L 189.527344 94.765625 L 189.527344 145.214844 Z M 223.820312 145.214844 L 214.820312 94.765625 L 232.960938 94.765625 L 250.957031 145.214844 Z M 258.21875 145.214844 L 284.964844 145.214844 L 259.074219 96.835938 C 258.355469 95.488281 257.136719 94.765625 255.597656 94.765625 L 240.222656 94.765625 Z M 271.464844 189.65625 L 271.464844 294.746094 C 271.464844 299.144531 267.867188 302.746094 263.46875 302.746094 L 108.738281 302.746094 C 104.339844 302.746094 100.742188 299.144531 100.742188 294.746094 L 100.742188 189.65625 C 107.214844 189.105469 112.9375 185.558594 116.398438 180.296875 C 124.664062 192.855469 142.984375 192.855469 151.25 180.296875 C 159.519531 192.855469 177.835938 192.855469 186.105469 180.296875 C 194.371094 192.855469 212.691406 192.855469 220.957031 180.296875 C 229.222656 192.855469 247.542969 192.855469 255.808594 180.296875 C 259.269531 185.558594 264.988281 189.105469 271.464844 189.65625 Z M 186.101562 211.503906 C 177.277344 211.503906 170.121094 218.570312 170.121094 227.289062 C 170.121094 236.007812 177.277344 243.074219 186.101562 243.074219 C 194.929688 243.074219 202.085938 236.007812 202.085938 227.289062 C 202.085938 218.570312 194.929688 211.503906 186.101562 211.503906 Z M 240.503906 273.847656 C 204.058594 273.847656 168.148438 273.847656 131.703125 273.847656 C 130.699219 273.847656 129.875 274.671875 129.875 275.675781 L 129.875 284.773438 C 129.875 285.777344 130.699219 286.597656 131.703125 286.597656 L 240.503906 286.597656 C 241.507812 286.597656 242.328125 285.777344 242.328125 284.773438 L 242.328125 275.675781 C 242.328125 274.667969 241.507812 273.847656 240.503906 273.847656 Z M 212.496094 260.75 L 240.503906 260.75 C 241.507812 260.75 242.328125 259.929688 242.328125 258.925781 L 242.328125 199.226562 C 242.328125 198.222656 241.507812 197.402344 240.503906 197.402344 L 131.703125 197.402344 C 130.699219 197.402344 129.875 198.222656 129.875 199.226562 L 129.875 258.925781 C 129.875 259.929688 130.699219 260.75 131.703125 260.75 L 159.710938 260.75 C 160.527344 253.605469 164.707031 247.449219 170.617188 243.914062 C 179.363281 251.921875 192.84375 251.921875 201.585938 243.914062 C 207.5 247.449219 211.679688 253.605469 212.496094 260.75 Z M 212.496094 260.75 " fill-opacity="1" fill-rule="evenodd"/></g></svg>