<svg xmlns="http://www.w3.org/2000/svg" xmlns:xlink="http://www.w3.org/1999/xlink" width="500" zoomAndPan="magnify" viewBox="0 0 375 374.999991" height="500" preserveAspectRatio="xMidYMid meet" version="1.0"><defs><clipPath id="e0c307b034"><path d="M 187.5 0 C 83.945312 0 0 83.945312 0 187.5 C 0 291.054688 83.945312 375 187.5 375 C 291.054688 375 375 291.054688 375 187.5 C 375 83.945312 291.054688 0 187.5 0 Z M 187.5 0 " clip-rule="nonzero"/></clipPath><clipPath id="adb4fc4b1e"><path d="M 0 0 L 375 0 L 375 375 L 0 375 Z M 0 0 " clip-rule="nonzero"/></clipPath><clipPath id="f4aa2999af"><path d="M 187.5 0 C 83.945312 0 0 83.945312 0 187.5 C 0 291.054688 83.945312 375 187.5 375 C 291.054688 375 375 291.054688 375 187.5 C 375 83.945312 291.054688 0 187.5 0 Z M 187.5 0 " clip-rule="nonzero"/></clipPath><clipPath id="e9f75400a0"><rect x="0" width="375" y="0" height="375"/></clipPath><clipPath id="7c0a1bcbaf"><path d="M 58.046875 72.851562 L 288 72.851562 L 288 302 L 58.046875 302 Z M 58.046875 72.851562 " clip-rule="nonzero"/></clipPath></defs><g clip-path="url(#e0c307b034)"><g transform="matrix(1, 0, 0, 1, 0, 0)"><g clip-path="url(#e9f75400a0)"><g clip-path="url(#adb4fc4b1e)"><g clip-path="url(#f4aa2999af)"><rect x="-82.5" width="540" fill="#e6ac41" height="539.999987" y="-82.499998" fill-opacity="1"/></g></g></g></g></g><g clip-path="url(#7c0a1bcbaf)"><path fill="#eaf0fa" d="M 142.75 81.351562 L 150.519531 72.914062 C 170.179688 73.089844 188.882812 84.335938 202.15625 98.84375 C 215.429688 84.332031 234.128906 73.085938 253.792969 72.914062 L 261.5625 81.351562 C 240.773438 81.3125 220.671875 90.332031 206.914062 106.167969 L 197.398438 106.167969 C 183.640625 90.335938 163.539062 81.3125 142.75 81.351562 Z M 178.433594 201.535156 C 165.472656 194.046875 149.515625 190.496094 133.53125 190.496094 L 133.53125 88.5625 C 154.984375 85.433594 176.480469 93.132812 191.0625 108.894531 L 191.0625 201.964844 C 186.84375 201.894531 182.632812 201.746094 178.433594 201.535156 Z M 147.136719 135.863281 C 157.679688 137.480469 168.234375 141.226562 178.515625 147.007812 C 179.019531 147.292969 179.570312 147.425781 180.109375 147.425781 C 181.253906 147.425781 182.367188 146.824219 182.964844 145.761719 C 183.851562 144.1875 183.289062 142.195312 181.71875 141.3125 C 170.75 135.144531 159.449219 131.140625 148.128906 129.402344 C 146.34375 129.125 144.675781 130.355469 144.402344 132.136719 C 144.125 133.921875 145.355469 135.59375 147.136719 135.863281 Z M 147.136719 151.824219 C 157.679688 153.441406 168.234375 157.1875 178.515625 162.96875 C 179.019531 163.253906 179.570312 163.386719 180.109375 163.386719 C 181.253906 163.386719 182.367188 162.785156 182.964844 161.722656 C 183.851562 160.148438 183.289062 158.15625 181.71875 157.269531 C 170.75 151.105469 159.449219 147.09375 148.128906 145.363281 C 146.34375 145.089844 144.675781 146.316406 144.402344 148.097656 C 144.125 149.882812 145.355469 151.554688 147.136719 151.824219 Z M 147.136719 167.789062 C 157.679688 169.40625 168.234375 173.160156 178.515625 178.933594 C 179.019531 179.21875 179.570312 179.355469 180.109375 179.355469 C 181.253906 179.355469 182.367188 178.757812 182.964844 177.6875 C 183.851562 176.121094 183.289062 174.125 181.71875 173.238281 C 170.75 167.070312 159.449219 163.066406 148.128906 161.328125 C 146.347656 161.058594 144.675781 162.28125 144.402344 164.066406 C 144.125 165.847656 145.355469 167.515625 147.136719 167.789062 Z M 206.710938 204.648438 L 206.710938 112.703125 L 197.597656 112.703125 L 197.597656 202.234375 C 200.820312 202.59375 203.953125 203.363281 206.710938 204.648438 Z M 270.78125 88.5625 L 270.78125 190.496094 C 249.382812 190.496094 228.03125 196.855469 213.851562 210.515625 C 213.660156 210.230469 213.457031 209.957031 213.246094 209.683594 L 213.246094 108.894531 C 227.832031 93.132812 249.324219 85.433594 270.78125 88.5625 Z M 259.910156 164.0625 C 259.632812 162.277344 257.964844 161.050781 256.183594 161.324219 C 244.863281 163.0625 233.558594 167.066406 222.59375 173.234375 C 221.019531 174.117188 220.460938 176.109375 221.347656 177.683594 C 221.945312 178.753906 223.054688 179.351562 224.199219 179.351562 C 224.742188 179.351562 225.292969 179.214844 225.796875 178.929688 C 236.078125 173.15625 246.632812 169.402344 257.171875 167.785156 C 258.957031 167.515625 260.179688 165.847656 259.910156 164.0625 Z M 259.910156 148.105469 C 259.632812 146.320312 257.964844 145.09375 256.183594 145.367188 C 244.863281 147.105469 233.558594 151.109375 222.59375 157.273438 C 221.019531 158.160156 220.460938 160.148438 221.347656 161.726562 C 221.945312 162.796875 223.054688 163.394531 224.199219 163.394531 C 224.742188 163.394531 225.292969 163.257812 225.796875 162.972656 C 236.078125 157.195312 246.632812 153.445312 257.171875 151.828125 C 258.957031 151.554688 260.179688 149.882812 259.910156 148.105469 Z M 259.910156 132.136719 C 259.632812 130.355469 257.964844 129.125 256.183594 129.402344 C 244.863281 131.140625 233.558594 135.144531 222.59375 141.3125 C 221.019531 142.195312 220.460938 144.1875 221.347656 145.761719 C 221.945312 146.824219 223.054688 147.425781 224.199219 147.425781 C 224.742188 147.425781 225.292969 147.292969 225.796875 147.007812 C 236.078125 141.226562 246.632812 137.480469 257.171875 135.863281 C 258.957031 135.59375 260.179688 133.925781 259.910156 132.136719 Z M 256.441406 209.761719 C 244.507812 214.453125 228.078125 218.113281 217.511719 221.121094 C 216.117188 245.019531 172.570312 240.441406 155.945312 240.089844 C 150.074219 239.625 151.308594 232.652344 155.597656 232.738281 C 165.75 232.953125 175.511719 233.734375 185.746094 232.976562 C 194.425781 232.335938 210.894531 230.984375 210.015625 219.144531 C 209.554688 212.898438 204.53125 208.636719 193.445312 208.53125 C 175.789062 208.367188 159.910156 206.964844 142.132812 205.097656 C 118.300781 203.4375 99.292969 221.011719 83.726562 237.820312 L 122.773438 276.863281 C 139.855469 264.929688 149.148438 267.808594 164.890625 267.566406 C 173.011719 267.4375 182.226562 269.015625 196.21875 262.722656 L 270.957031 228.726562 C 276.824219 225.855469 283.503906 222.066406 286.289062 219.828125 C 290.539062 209.554688 281.789062 199.792969 256.441406 209.761719 Z M 76.265625 240.757812 C 74.175781 238.667969 70.753906 238.667969 68.667969 240.757812 L 60.132812 249.292969 C 58.039062 251.382812 58.039062 254.804688 60.132812 256.894531 L 103.230469 299.992188 C 105.324219 302.082031 108.746094 302.082031 110.832031 299.992188 L 119.367188 291.457031 C 121.457031 289.367188 121.457031 285.945312 119.367188 283.859375 Z M 76.265625 240.757812 " fill-opacity="1" fill-rule="evenodd"/></g></svg>