<svg xmlns="http://www.w3.org/2000/svg" xmlns:xlink="http://www.w3.org/1999/xlink" width="500" zoomAndPan="magnify" viewBox="0 0 375 374.999991" height="500" preserveAspectRatio="xMidYMid meet" version="1.0"><defs><clipPath id="8cb6d272f4"><path d="M 0 14.296875 L 375 14.296875 L 375 360.796875 L 0 360.796875 Z M 0 14.296875 " clip-rule="nonzero"/></clipPath><clipPath id="2a0b116468"><path d="M 0 14.296875 L 371.738281 14.296875 L 371.738281 360.796875 L 0 360.796875 Z M 0 14.296875 " clip-rule="nonzero"/></clipPath></defs><g clip-path="url(#8cb6d272f4)"><path fill="#0b1972" d="M 326.910156 14.457031 L 48.089844 14.457031 C 21.574219 14.457031 0 36.03125 0 62.542969 L 0 226.269531 C 0 252.78125 21.574219 274.355469 48.089844 274.355469 L 146.988281 274.355469 L 146.988281 322.484375 L 114.546875 322.484375 C 104.050781 322.484375 95.515625 331.019531 95.515625 341.515625 C 95.515625 352.011719 104.050781 360.542969 114.546875 360.542969 L 260.445312 360.542969 C 270.941406 360.542969 279.476562 352.011719 279.476562 341.515625 C 279.476562 331.019531 270.941406 322.484375 260.445312 322.484375 L 228.003906 322.484375 L 228.003906 274.355469 L 326.902344 274.355469 C 353.417969 274.355469 374.992188 252.78125 374.992188 226.269531 L 374.992188 62.550781 C 374.992188 36.039062 353.417969 14.464844 326.902344 14.464844 Z M 48.089844 23.792969 L 326.902344 23.792969 C 348.277344 23.792969 365.65625 41.179688 365.65625 62.542969 L 365.65625 221.601562 L 185.128906 221.601562 L 185.128906 174.710938 C 185.128906 162.394531 178.078125 151.78125 166.726562 147.003906 L 156.214844 142.585938 C 156.464844 136.421875 154.410156 128.199219 144.28125 121.640625 C 147.765625 117.6875 150.359375 112.921875 151.695312 107.660156 L 152.871094 107.660156 C 160.519531 107.660156 166.734375 101.445312 166.734375 93.796875 C 166.734375 89.121094 164.402344 84.988281 160.851562 82.476562 L 160.851562 76.167969 C 160.851562 53.074219 142.0625 34.285156 118.980469 34.285156 C 95.898438 34.285156 77.101562 53.074219 77.101562 76.167969 L 77.101562 82.476562 C 73.546875 84.988281 71.21875 89.121094 71.21875 93.796875 C 71.21875 101.445312 77.433594 107.660156 85.082031 107.660156 L 86.257812 107.660156 C 87.597656 112.921875 90.179688 117.6875 93.671875 121.640625 C 83.542969 128.199219 81.488281 136.421875 81.738281 142.585938 L 71.226562 147.003906 C 59.875 151.773438 52.828125 162.394531 52.828125 174.710938 L 52.828125 221.601562 L 9.335938 221.601562 L 9.335938 62.550781 C 9.335938 41.179688 26.722656 23.800781 48.089844 23.800781 Z M 155.476562 178.886719 C 152.902344 178.886719 150.808594 180.980469 150.808594 183.554688 L 150.808594 221.601562 L 87.144531 221.601562 L 87.144531 183.554688 C 87.144531 180.980469 85.050781 178.886719 82.476562 178.886719 C 79.902344 178.886719 77.808594 180.980469 77.808594 183.554688 L 77.808594 221.601562 L 62.15625 221.601562 L 62.15625 174.710938 C 62.15625 166.089844 66.902344 158.953125 74.84375 155.609375 L 83.816406 151.835938 C 87.859375 161.816406 96.941406 169.691406 103.523438 172.0625 C 104.042969 172.25 104.578125 172.34375 105.101562 172.34375 C 107.015625 172.34375 108.804688 171.160156 109.496094 169.253906 C 110.367188 166.828125 109.117188 164.152344 106.6875 163.28125 C 100.683594 161.117188 91.46875 151.339844 91.066406 142.265625 C 90.808594 136.492188 94.230469 131.71875 101.226562 128.019531 C 101.777344 128.363281 102.332031 128.691406 102.90625 129 L 102.90625 139.230469 C 102.90625 148.09375 110.121094 155.304688 118.988281 155.304688 C 127.859375 155.304688 135.0625 148.09375 135.0625 139.230469 L 135.0625 129 C 135.628906 128.691406 136.191406 128.363281 136.734375 128.019531 C 143.722656 131.703125 147.144531 136.476562 146.902344 142.226562 C 146.523438 151.308594 137.304688 161.101562 131.28125 163.273438 C 128.855469 164.144531 127.601562 166.820312 128.472656 169.246094 C 129.15625 171.152344 130.953125 172.335938 132.867188 172.335938 C 133.398438 172.335938 133.925781 172.25 134.449219 172.054688 C 141.046875 169.675781 150.117188 161.800781 154.164062 151.828125 L 163.125 155.601562 C 171.070312 158.9375 175.8125 166.082031 175.8125 174.703125 L 175.8125 221.59375 L 160.160156 221.59375 L 160.160156 183.546875 C 160.160156 180.972656 158.066406 178.878906 155.492188 178.878906 Z M 85.074219 98.324219 C 82.578125 98.324219 80.546875 96.292969 80.546875 93.796875 C 80.546875 91.300781 82.578125 89.269531 85.074219 89.269531 L 85.207031 89.269531 L 85.207031 98.324219 Z M 94.542969 88.359375 C 98.230469 87.136719 101.289062 84.847656 103.242188 81.761719 C 103.957031 80.632812 104.496094 79.425781 104.851562 78.183594 C 117.511719 84.257812 130.644531 87.9375 143.402344 88.996094 L 143.402344 99.328125 C 143.402344 112.796875 132.441406 123.757812 118.972656 123.757812 C 105.503906 123.757812 94.542969 112.796875 94.542969 99.328125 Z M 112.226562 132.417969 C 114.40625 132.859375 116.664062 133.09375 118.972656 133.09375 C 121.285156 133.09375 123.53125 132.859375 125.710938 132.417969 L 125.710938 139.246094 C 125.710938 142.96875 122.683594 145.984375 118.972656 145.984375 C 115.261719 145.984375 112.226562 142.960938 112.226562 139.246094 Z M 152.738281 89.269531 L 152.871094 89.269531 C 155.367188 89.269531 157.398438 91.300781 157.398438 93.796875 C 157.398438 96.292969 155.367188 98.324219 152.871094 98.324219 L 152.738281 98.324219 Z M 151.507812 79.933594 L 148.148438 79.933594 C 133.109375 79.402344 117.261719 74.710938 102.316406 66.347656 C 100.613281 65.398438 98.503906 65.601562 97.019531 66.863281 C 95.53125 68.121094 94.988281 70.175781 95.648438 72.003906 C 96.300781 73.808594 96.191406 75.414062 95.335938 76.773438 C 94.277344 78.453125 92.148438 79.621094 89.617188 79.925781 L 86.429688 79.925781 L 86.429688 76.160156 C 86.429688 58.21875 101.023438 43.613281 118.972656 43.613281 C 136.921875 43.613281 151.507812 58.210938 151.507812 76.160156 Z M 270.140625 341.515625 C 270.140625 346.859375 265.789062 351.207031 260.445312 351.207031 L 114.546875 351.207031 C 109.203125 351.207031 104.851562 346.859375 104.851562 341.515625 C 104.851562 336.167969 109.203125 331.820312 114.546875 331.820312 L 260.445312 331.820312 C 265.789062 331.820312 270.140625 336.167969 270.140625 341.515625 Z M 218.675781 322.484375 L 156.332031 322.484375 L 156.332031 274.355469 L 218.675781 274.355469 Z M 326.910156 265.027344 L 48.089844 265.027344 C 28.296875 265.027344 11.933594 250.113281 9.625 230.945312 L 365.367188 230.945312 C 363.058594 250.121094 346.695312 265.027344 326.902344 265.027344 Z M 185.46875 247.980469 C 185.46875 250.558594 183.375 252.652344 180.800781 252.652344 L 152.988281 252.652344 C 150.414062 252.652344 148.320312 250.558594 148.320312 247.980469 C 148.320312 245.40625 150.414062 243.3125 152.988281 243.3125 L 180.800781 243.3125 C 183.375 243.3125 185.46875 245.40625 185.46875 247.980469 Z M 206.695312 247.980469 C 206.695312 250.558594 204.601562 252.652344 202.027344 252.652344 L 195.855469 252.652344 C 193.28125 252.652344 191.1875 250.558594 191.1875 247.980469 C 191.1875 245.40625 193.28125 243.3125 195.855469 243.3125 L 202.027344 243.3125 C 204.601562 243.3125 206.695312 245.40625 206.695312 247.980469 Z M 226.679688 247.980469 C 226.679688 250.558594 224.585938 252.652344 222.011719 252.652344 L 215.84375 252.652344 C 213.269531 252.652344 211.175781 250.558594 211.175781 247.980469 C 211.175781 245.40625 213.269531 243.3125 215.84375 243.3125 L 222.011719 243.3125 C 224.585938 243.3125 226.679688 245.40625 226.679688 247.980469 Z M 271.484375 123.898438 L 243.191406 123.898438 C 230.234375 123.898438 219.695312 134.441406 219.695312 147.394531 C 219.695312 157.507812 226.113281 166.144531 235.097656 169.449219 L 246.316406 211.324219 C 247.882812 217.171875 253.195312 221.03125 258.976562 221.03125 C 260.097656 221.03125 261.230469 220.882812 262.359375 220.582031 C 269.339844 218.714844 273.492188 211.507812 271.625 204.53125 L 262.609375 170.882812 L 271.484375 170.882812 L 312.449219 188.613281 L 312.449219 191.578125 C 312.449219 196.246094 316.246094 200.042969 320.914062 200.042969 L 329.765625 200.042969 C 334.433594 200.042969 338.230469 196.246094 338.230469 191.578125 L 338.230469 165.25 C 346.277344 163.179688 352.039062 155.960938 352.039062 147.386719 C 352.039062 138.8125 346.199219 131.59375 338.230469 129.507812 L 338.230469 103.1875 C 338.230469 98.519531 334.433594 94.722656 329.765625 94.722656 L 320.914062 94.722656 C 316.246094 94.722656 312.449219 98.519531 312.449219 103.1875 L 312.449219 106.152344 L 271.484375 123.882812 Z M 342.695312 147.394531 C 342.695312 150.738281 340.921875 153.664062 338.222656 155.257812 L 338.222656 139.535156 C 340.90625 141.136719 342.695312 144.070312 342.695312 147.386719 Z M 321.785156 104.074219 L 328.886719 104.074219 L 328.886719 190.714844 L 321.785156 190.714844 Z M 250.105469 161.554688 L 250.105469 133.234375 L 267.78125 133.234375 L 267.78125 161.554688 Z M 229.03125 147.394531 C 229.03125 140.414062 234.117188 134.609375 240.769531 133.453125 L 240.769531 161.328125 C 234.109375 160.175781 229.03125 154.371094 229.03125 147.386719 Z M 262.609375 206.957031 C 263.144531 208.964844 261.949219 211.035156 259.949219 211.570312 C 257.941406 212.109375 255.871094 210.917969 255.335938 208.910156 L 245.152344 170.890625 L 252.945312 170.890625 Z M 277.125 163.15625 L 277.125 131.632812 L 312.457031 116.34375 L 312.457031 178.453125 L 277.125 163.164062 Z M 223.03125 99.390625 C 223.941406 100.300781 225.140625 100.761719 226.332031 100.761719 C 227.519531 100.761719 228.71875 100.300781 229.628906 99.390625 L 251.664062 77.355469 C 254.90625 74.113281 256.695312 69.78125 256.695312 65.15625 C 256.695312 60.535156 254.90625 56.210938 251.664062 52.960938 C 244.933594 46.238281 233.992188 46.238281 227.265625 52.960938 L 226.324219 53.902344 L 225.382812 52.960938 C 218.652344 46.238281 207.710938 46.238281 200.984375 52.960938 C 197.730469 56.210938 195.949219 60.535156 195.949219 65.15625 C 195.949219 69.78125 197.738281 74.105469 200.984375 77.355469 L 223.015625 99.390625 Z M 207.597656 59.5625 C 209.136719 58.023438 211.167969 57.253906 213.191406 57.253906 C 215.210938 57.253906 217.242188 58.023438 218.785156 59.5625 L 223.023438 63.804688 C 223.894531 64.683594 225.085938 65.171875 226.324219 65.171875 C 227.558594 65.171875 228.75 64.683594 229.621094 63.804688 L 233.863281 59.5625 C 236.941406 56.484375 241.96875 56.476562 245.058594 59.5625 C 246.542969 61.050781 247.359375 63.035156 247.359375 65.15625 C 247.359375 67.28125 246.542969 69.265625 245.058594 70.753906 L 226.324219 89.488281 L 207.589844 70.753906 C 206.101562 69.265625 205.285156 67.28125 205.285156 65.15625 C 205.285156 63.035156 206.101562 61.050781 207.589844 59.5625 Z M 175.730469 122.433594 C 176.328125 122.433594 176.933594 122.320312 177.511719 122.085938 L 185.757812 118.675781 C 190.003906 116.917969 193.785156 116.171875 198.382812 116.171875 L 261.753906 116.171875 C 268.328125 116.171875 273.679688 110.820312 273.679688 104.246094 L 273.679688 44.433594 C 273.679688 37.859375 268.328125 32.503906 261.753906 32.503906 L 190.898438 32.503906 C 184.324219 32.503906 178.972656 37.859375 178.972656 44.433594 L 178.972656 92.496094 C 178.972656 97.609375 178 101.949219 175.828125 106.578125 L 171.503906 115.78125 C 170.6875 117.527344 171.023438 119.59375 172.351562 120.988281 C 173.253906 121.929688 174.476562 122.433594 175.730469 122.433594 Z M 188.308594 92.503906 L 188.308594 44.441406 C 188.308594 43.039062 189.492188 41.847656 190.898438 41.847656 L 261.753906 41.847656 C 263.152344 41.847656 264.34375 43.03125 264.34375 44.441406 L 264.34375 104.253906 C 264.34375 105.652344 263.160156 106.84375 261.753906 106.84375 L 198.382812 106.84375 C 193.578125 106.84375 189.335938 107.519531 184.972656 109.007812 C 187.242188 103.683594 188.308594 98.402344 188.308594 92.503906 Z M 188.308594 92.503906 " fill-opacity="1" fill-rule="nonzero"/></g><g clip-path="url(#2a0b116468)"><path fill="#0b1972" d="M 323.652344 14.457031 L 44.828125 14.457031 C 18.3125 14.457031 -3.261719 36.03125 -3.261719 62.542969 L -3.261719 226.269531 C -3.261719 252.78125 18.3125 274.355469 44.828125 274.355469 L 143.726562 274.355469 L 143.726562 322.484375 L 111.285156 322.484375 C 100.789062 322.484375 92.253906 331.019531 92.253906 341.515625 C 92.253906 352.011719 100.789062 360.542969 111.285156 360.542969 L 257.183594 360.542969 C 267.679688 360.542969 276.214844 352.011719 276.214844 341.515625 C 276.214844 331.019531 267.679688 322.484375 257.183594 322.484375 L 224.742188 322.484375 L 224.742188 274.355469 L 323.644531 274.355469 C 350.15625 274.355469 371.730469 252.78125 371.730469 226.269531 L 371.730469 62.550781 C 371.730469 36.039062 350.15625 14.464844 323.644531 14.464844 Z M 44.828125 23.792969 L 323.644531 23.792969 C 345.015625 23.792969 362.394531 41.179688 362.394531 62.542969 L 362.394531 221.601562 L 181.867188 221.601562 L 181.867188 174.710938 C 181.867188 162.394531 174.816406 151.78125 163.464844 147.003906 L 152.957031 142.585938 C 153.203125 136.421875 151.152344 128.199219 141.019531 121.640625 C 144.507812 117.6875 147.097656 112.921875 148.433594 107.660156 L 149.609375 107.660156 C 157.257812 107.660156 163.472656 101.445312 163.472656 93.796875 C 163.472656 89.121094 161.140625 84.988281 157.59375 82.476562 L 157.59375 76.167969 C 157.59375 53.074219 138.804688 34.285156 115.71875 34.285156 C 92.636719 34.285156 73.839844 53.074219 73.839844 76.167969 L 73.839844 82.476562 C 70.285156 84.988281 67.957031 89.121094 67.957031 93.796875 C 67.957031 101.445312 74.175781 107.660156 81.820312 107.660156 L 82.996094 107.660156 C 84.335938 112.921875 86.917969 117.6875 90.410156 121.640625 C 80.28125 128.199219 78.226562 136.421875 78.476562 142.585938 L 67.964844 147.003906 C 56.613281 151.773438 49.566406 162.394531 49.566406 174.710938 L 49.566406 221.601562 L 6.074219 221.601562 L 6.074219 62.550781 C 6.074219 41.179688 23.464844 23.800781 44.828125 23.800781 Z M 152.214844 178.886719 C 149.640625 178.886719 147.546875 180.980469 147.546875 183.554688 L 147.546875 221.601562 L 83.882812 221.601562 L 83.882812 183.554688 C 83.882812 180.980469 81.789062 178.886719 79.214844 178.886719 C 76.640625 178.886719 74.546875 180.980469 74.546875 183.554688 L 74.546875 221.601562 L 58.894531 221.601562 L 58.894531 174.710938 C 58.894531 166.089844 63.640625 158.953125 71.582031 155.609375 L 80.554688 151.835938 C 84.597656 161.816406 93.679688 169.691406 100.261719 172.0625 C 100.78125 172.25 101.320312 172.34375 101.839844 172.34375 C 103.753906 172.34375 105.542969 171.160156 106.234375 169.253906 C 107.105469 166.828125 105.855469 164.152344 103.425781 163.28125 C 97.421875 161.117188 88.210938 151.339844 87.804688 142.265625 C 87.546875 136.492188 90.972656 131.71875 97.964844 128.019531 C 98.519531 128.363281 99.070312 128.691406 99.644531 129 L 99.644531 139.230469 C 99.644531 148.09375 106.859375 155.304688 115.726562 155.304688 C 124.597656 155.304688 131.800781 148.09375 131.800781 139.230469 L 131.800781 129 C 132.371094 128.691406 132.929688 128.363281 133.472656 128.019531 C 140.460938 131.703125 143.882812 136.476562 143.644531 142.226562 C 143.261719 151.308594 134.042969 161.101562 128.019531 163.273438 C 125.59375 164.144531 124.339844 166.820312 125.210938 169.246094 C 125.894531 171.152344 127.695312 172.335938 129.605469 172.335938 C 130.136719 172.335938 130.664062 172.25 131.1875 172.054688 C 137.785156 169.675781 146.855469 161.800781 150.902344 151.828125 L 159.863281 155.601562 C 167.808594 158.9375 172.554688 166.082031 172.554688 174.703125 L 172.554688 221.59375 L 156.898438 221.59375 L 156.898438 183.546875 C 156.898438 180.972656 154.808594 178.878906 152.230469 178.878906 Z M 81.8125 98.324219 C 79.316406 98.324219 77.285156 96.292969 77.285156 93.796875 C 77.285156 91.300781 79.316406 89.269531 81.8125 89.269531 L 81.945312 89.269531 L 81.945312 98.324219 Z M 91.28125 88.359375 C 94.96875 87.136719 98.027344 84.847656 99.980469 81.761719 C 100.695312 80.632812 101.234375 79.425781 101.589844 78.183594 C 114.25 84.257812 127.382812 87.9375 140.140625 88.996094 L 140.140625 99.328125 C 140.140625 112.796875 129.179688 123.757812 115.710938 123.757812 C 102.246094 123.757812 91.28125 112.796875 91.28125 99.328125 Z M 108.96875 132.417969 C 111.144531 132.859375 113.402344 133.09375 115.710938 133.09375 C 118.023438 133.09375 120.269531 132.859375 122.449219 132.417969 L 122.449219 139.246094 C 122.449219 142.96875 119.421875 145.984375 115.710938 145.984375 C 112 145.984375 108.96875 142.960938 108.96875 139.246094 Z M 149.476562 89.269531 L 149.609375 89.269531 C 152.105469 89.269531 154.136719 91.300781 154.136719 93.796875 C 154.136719 96.292969 152.105469 98.324219 149.609375 98.324219 L 149.476562 98.324219 Z M 148.25 79.933594 L 144.886719 79.933594 C 129.847656 79.402344 114 74.710938 99.054688 66.347656 C 97.351562 65.398438 95.242188 65.601562 93.757812 66.863281 C 92.269531 68.121094 91.726562 70.175781 92.386719 72.003906 C 93.039062 73.808594 92.933594 75.414062 92.078125 76.773438 C 91.019531 78.453125 88.886719 79.621094 86.359375 79.925781 L 83.167969 79.925781 L 83.167969 76.160156 C 83.167969 58.21875 97.761719 43.613281 115.710938 43.613281 C 133.660156 43.613281 148.25 58.210938 148.25 76.160156 Z M 266.878906 341.515625 C 266.878906 346.859375 262.53125 351.207031 257.183594 351.207031 L 111.285156 351.207031 C 105.941406 351.207031 101.589844 346.859375 101.589844 341.515625 C 101.589844 336.167969 105.941406 331.820312 111.285156 331.820312 L 257.183594 331.820312 C 262.53125 331.820312 266.878906 336.167969 266.878906 341.515625 Z M 215.414062 322.484375 L 153.070312 322.484375 L 153.070312 274.355469 L 215.414062 274.355469 Z M 323.652344 265.027344 L 44.828125 265.027344 C 25.035156 265.027344 8.671875 250.113281 6.363281 230.945312 L 362.105469 230.945312 C 359.796875 250.121094 343.433594 265.027344 323.644531 265.027344 Z M 182.207031 247.980469 C 182.207031 250.558594 180.117188 252.652344 177.539062 252.652344 L 149.726562 252.652344 C 147.152344 252.652344 145.058594 250.558594 145.058594 247.980469 C 145.058594 245.40625 147.152344 243.3125 149.726562 243.3125 L 177.539062 243.3125 C 180.117188 243.3125 182.207031 245.40625 182.207031 247.980469 Z M 203.433594 247.980469 C 203.433594 250.558594 201.339844 252.652344 198.765625 252.652344 L 192.59375 252.652344 C 190.019531 252.652344 187.925781 250.558594 187.925781 247.980469 C 187.925781 245.40625 190.019531 243.3125 192.59375 243.3125 L 198.765625 243.3125 C 201.339844 243.3125 203.433594 245.40625 203.433594 247.980469 Z M 223.417969 247.980469 C 223.417969 250.558594 221.328125 252.652344 218.75 252.652344 L 212.582031 252.652344 C 210.007812 252.652344 207.914062 250.558594 207.914062 247.980469 C 207.914062 245.40625 210.007812 243.3125 212.582031 243.3125 L 218.75 243.3125 C 221.328125 243.3125 223.417969 245.40625 223.417969 247.980469 Z M 268.226562 123.898438 L 239.929688 123.898438 C 226.976562 123.898438 216.433594 134.441406 216.433594 147.394531 C 216.433594 157.507812 222.851562 166.144531 231.835938 169.449219 L 243.054688 211.324219 C 244.621094 217.171875 249.933594 221.03125 255.714844 221.03125 C 256.835938 221.03125 257.972656 220.882812 259.097656 220.582031 C 266.078125 218.714844 270.230469 211.507812 268.363281 204.53125 L 259.347656 170.882812 L 268.226562 170.882812 L 309.1875 188.613281 L 309.1875 191.578125 C 309.1875 196.246094 312.984375 200.042969 317.652344 200.042969 L 326.503906 200.042969 C 331.171875 200.042969 334.96875 196.246094 334.96875 191.578125 L 334.96875 165.25 C 343.015625 163.179688 348.78125 155.960938 348.78125 147.386719 C 348.78125 138.8125 342.9375 131.59375 334.96875 129.507812 L 334.96875 103.1875 C 334.96875 98.519531 331.171875 94.722656 326.503906 94.722656 L 317.652344 94.722656 C 312.984375 94.722656 309.1875 98.519531 309.1875 103.1875 L 309.1875 106.152344 L 268.226562 123.882812 Z M 339.4375 147.394531 C 339.4375 150.738281 337.664062 153.664062 334.960938 155.257812 L 334.960938 139.535156 C 337.648438 141.136719 339.4375 144.070312 339.4375 147.386719 Z M 318.523438 104.074219 L 325.625 104.074219 L 325.625 190.714844 L 318.523438 190.714844 Z M 246.84375 161.554688 L 246.84375 133.234375 L 264.523438 133.234375 L 264.523438 161.554688 Z M 225.769531 147.394531 C 225.769531 140.414062 230.855469 134.609375 237.507812 133.453125 L 237.507812 161.328125 C 230.847656 160.175781 225.769531 154.371094 225.769531 147.386719 Z M 259.347656 206.957031 C 259.886719 208.964844 258.6875 211.035156 256.6875 211.570312 C 254.679688 212.109375 252.609375 210.917969 252.074219 208.910156 L 241.890625 170.890625 L 249.683594 170.890625 Z M 273.867188 163.15625 L 273.867188 131.632812 L 309.195312 116.34375 L 309.195312 178.453125 L 273.867188 163.164062 Z M 219.769531 99.390625 C 220.679688 100.300781 221.878906 100.761719 223.070312 100.761719 C 224.261719 100.761719 225.457031 100.300781 226.367188 99.390625 L 248.402344 77.355469 C 251.644531 74.113281 253.433594 69.78125 253.433594 65.15625 C 253.433594 60.535156 251.644531 56.210938 248.402344 52.960938 C 241.671875 46.238281 230.734375 46.238281 224.003906 52.960938 L 223.0625 53.902344 L 222.121094 52.960938 C 215.390625 46.238281 204.453125 46.238281 197.722656 52.960938 C 194.46875 56.210938 192.6875 60.535156 192.6875 65.15625 C 192.6875 69.78125 194.476562 74.105469 197.722656 77.355469 L 219.753906 99.390625 Z M 204.335938 59.5625 C 205.875 58.023438 207.90625 57.253906 209.929688 57.253906 C 211.953125 57.253906 213.980469 58.023438 215.523438 59.5625 L 219.761719 63.804688 C 220.632812 64.683594 221.824219 65.171875 223.0625 65.171875 C 224.296875 65.171875 225.488281 64.683594 226.359375 63.804688 L 230.601562 59.5625 C 233.679688 56.484375 238.707031 56.476562 241.796875 59.5625 C 243.28125 61.050781 244.097656 63.035156 244.097656 65.15625 C 244.097656 67.28125 243.28125 69.265625 241.796875 70.753906 L 223.0625 89.488281 L 204.328125 70.753906 C 202.839844 69.265625 202.023438 67.28125 202.023438 65.15625 C 202.023438 63.035156 202.839844 61.050781 204.328125 59.5625 Z M 172.46875 122.433594 C 173.066406 122.433594 173.671875 122.320312 174.25 122.085938 L 182.496094 118.675781 C 186.746094 116.917969 190.527344 116.171875 195.125 116.171875 L 258.492188 116.171875 C 265.066406 116.171875 270.417969 110.820312 270.417969 104.246094 L 270.417969 44.433594 C 270.417969 37.859375 265.066406 32.503906 258.492188 32.503906 L 187.640625 32.503906 C 181.066406 32.503906 175.710938 37.859375 175.710938 44.433594 L 175.710938 92.496094 C 175.710938 97.609375 174.738281 101.949219 172.570312 106.578125 L 168.242188 115.78125 C 167.425781 117.527344 167.761719 119.59375 169.089844 120.988281 C 169.992188 121.929688 171.214844 122.433594 172.46875 122.433594 Z M 185.046875 92.503906 L 185.046875 44.441406 C 185.046875 43.039062 186.230469 41.847656 187.640625 41.847656 L 258.492188 41.847656 C 259.894531 41.847656 261.082031 43.03125 261.082031 44.441406 L 261.082031 104.253906 C 261.082031 105.652344 259.902344 106.84375 258.492188 106.84375 L 195.125 106.84375 C 190.316406 106.84375 186.074219 107.519531 181.710938 109.007812 C 183.980469 103.683594 185.046875 98.402344 185.046875 92.503906 Z M 185.046875 92.503906 " fill-opacity="1" fill-rule="nonzero"/></g></svg>