<svg xmlns="http://www.w3.org/2000/svg" xmlns:xlink="http://www.w3.org/1999/xlink" width="500" zoomAndPan="magnify" viewBox="0 0 375 374.999991" height="500" preserveAspectRatio="xMidYMid meet" version="1.0"><defs><clipPath id="254ef0619b"><path d="M 187.5 0 C 83.945312 0 0 83.945312 0 187.5 C 0 291.054688 83.945312 375 187.5 375 C 291.054688 375 375 291.054688 375 187.5 C 375 83.945312 291.054688 0 187.5 0 Z M 187.5 0 " clip-rule="nonzero"/></clipPath><clipPath id="844b2fb403"><path d="M 0 0 L 375 0 L 375 375 L 0 375 Z M 0 0 " clip-rule="nonzero"/></clipPath><clipPath id="c9a6c8e1d6"><path d="M 187.5 0 C 83.945312 0 0 83.945312 0 187.5 C 0 291.054688 83.945312 375 187.5 375 C 291.054688 375 375 291.054688 375 187.5 C 375 83.945312 291.054688 0 187.5 0 Z M 187.5 0 " clip-rule="nonzero"/></clipPath><clipPath id="fffbc55b07"><rect x="0" width="375" y="0" height="375"/></clipPath><clipPath id="e038b0cf00"><path d="M 72 72 L 308.585938 72 L 308.585938 310.925781 L 72 310.925781 Z M 72 72 " clip-rule="nonzero"/></clipPath></defs><g clip-path="url(#254ef0619b)"><g transform="matrix(1, 0, 0, 1, 0, 0)"><g clip-path="url(#fffbc55b07)"><g clip-path="url(#844b2fb403)"><g clip-path="url(#c9a6c8e1d6)"><rect x="-82.5" width="540" fill="#e6ac41" height="539.999987" y="-82.499998" fill-opacity="1"/></g></g></g></g></g><g clip-path="url(#e038b0cf00)"><path fill="#ffffff" d="M 175.53125 189.453125 C 181.164062 189.453125 184.027344 196.28125 180.015625 200.296875 C 176.003906 204.308594 169.175781 201.441406 169.175781 195.8125 C 169.175781 192.269531 172.039062 189.453125 175.53125 189.453125 Z M 177.097656 194.25 C 175.0625 192.214844 171.988281 195.292969 174.019531 197.324219 C 176.003906 199.355469 179.128906 196.28125 177.097656 194.25 Z M 120.59375 189.453125 C 126.222656 189.453125 129.089844 196.28125 125.078125 200.296875 C 121.0625 204.308594 114.234375 201.441406 114.234375 195.8125 C 114.234375 192.269531 117.101562 189.453125 120.59375 189.453125 Z M 122.105469 194.25 C 120.074219 192.214844 117 195.292969 119.03125 197.324219 C 121.0625 199.355469 124.140625 196.28125 122.105469 194.25 Z M 175.53125 181.011719 C 188.667969 181.011719 195.289062 196.960938 186.011719 206.289062 C 177.355469 214.941406 162.554688 209.886719 160.886719 197.898438 L 135.242188 197.898438 C 133.523438 209.886719 118.769531 214.941406 110.117188 206.289062 C 106.054688 202.222656 104.644531 196.074219 106.730469 190.601562 C 101.726562 183.617188 102.144531 174.078125 108.503906 167.71875 C 112.203125 164.019531 117.832031 163.132812 116.21875 157.554688 L 102.457031 110.277344 C 101.675781 107.570312 100.109375 105.328125 98.078125 103.710938 C 73.214844 133.734375 75.144531 177.882812 102.875 205.613281 C 110.273438 213.011719 119.1875 218.851562 129.089844 222.707031 C 132.011719 223.75 135.449219 225.054688 138.527344 225.679688 C 138.628906 225.679688 138.683594 225.730469 138.785156 225.730469 C 144.46875 227.085938 150.359375 227.816406 156.457031 227.816406 C 198.3125 227.816406 232.242188 193.882812 232.242188 152.03125 C 232.242188 110.175781 198.3125 76.242188 156.457031 76.242188 C 138.578125 76.242188 121.636719 82.445312 108.085938 93.652344 C 111.316406 96.519531 113.871094 100.269531 114.914062 104.859375 L 116.113281 108.558594 L 210.402344 108.453125 C 214.730469 108.453125 218.011719 110.488281 217.023438 114.917969 L 207.484375 156.5625 C 205.816406 163.757812 199.925781 169.125 192.421875 169.125 L 167.664062 169.125 C 167.035156 171.628906 165.265625 173.609375 162.398438 173.609375 L 123.617188 173.609375 C 118.355469 173.609375 116.113281 177.359375 117.625 181.269531 C 125.859375 179.601562 130.863281 185.179688 131.019531 185.230469 L 165.160156 185.230469 C 167.820312 182.625 171.46875 181.011719 175.53125 181.011719 Z M 160.886719 193.675781 C 161.09375 192.164062 161.5625 190.757812 162.191406 189.402344 L 133.992188 189.402344 C 134.617188 190.757812 135.035156 192.164062 135.292969 193.675781 Z M 183.039062 188.253906 C 176.367188 181.582031 164.898438 186.328125 164.898438 195.761719 C 164.898438 205.195312 176.367188 209.9375 183.039062 203.265625 C 187.207031 199.148438 187.207031 192.425781 183.039062 188.253906 Z M 109.074219 186.484375 C 110.328125 184.917969 111.890625 183.667969 113.664062 182.679688 C 111.214844 176.214844 115.277344 169.4375 123.566406 169.4375 L 162.347656 169.4375 C 164.171875 169.4375 164.171875 164.644531 162.347656 164.644531 L 137.484375 164.644531 C 132.324219 164.644531 128.414062 161.046875 126.902344 156.304688 L 112.566406 111.375 L 110.847656 105.902344 C 109.910156 101.679688 107.304688 98.289062 104.125 95.894531 C 100.320312 92.871094 95.578125 91.359375 91.71875 91.359375 L 79.523438 91.359375 C 75.71875 91.359375 75.351562 96.933594 79 96.933594 L 90.257812 96.933594 C 97.816406 96.933594 104.332031 101.78125 106.523438 109.132812 L 120.28125 156.40625 C 122.941406 165.582031 115.277344 166.9375 111.527344 170.691406 C 107.042969 175.015625 106.367188 181.324219 109.074219 186.484375 Z M 128.101562 188.253906 C 121.429688 181.582031 109.960938 186.328125 109.960938 195.761719 C 109.960938 205.195312 121.429688 209.9375 128.101562 203.265625 C 132.269531 199.148438 132.269531 192.425781 128.101562 188.253906 Z M 94.324219 101.730469 C 93.023438 101.3125 91.667969 101.105469 90.207031 101.105469 L 78.949219 101.105469 C 69.828125 101.105469 70.191406 87.1875 79.46875 87.1875 L 91.71875 87.1875 C 95.734375 87.1875 100.476562 88.542969 104.644531 91.148438 C 136.285156 64.203125 183.457031 66.027344 212.957031 95.527344 C 219.992188 102.566406 225.726562 110.957031 229.792969 120.183594 L 285.355469 120.183594 C 298.179688 120.183594 308.65625 130.660156 308.65625 143.480469 L 308.65625 240.535156 C 308.65625 253.355469 298.179688 263.832031 285.355469 263.832031 L 231.460938 263.832031 C 232.554688 267.742188 234.277344 271.289062 236.621094 274.464844 C 239.4375 278.273438 243.136719 281.609375 247.777344 284.527344 L 262.421875 284.527344 C 273.992188 284.527344 280.039062 298.652344 271.699219 306.9375 C 269.300781 309.335938 266.019531 310.796875 262.421875 310.796875 L 172.667969 310.796875 C 161.09375 310.796875 155.046875 296.671875 163.386719 288.332031 C 165.785156 285.933594 169.070312 284.472656 172.667969 284.472656 L 187.207031 284.472656 C 191.847656 281.554688 195.601562 278.21875 198.414062 274.414062 C 200.8125 271.183594 202.53125 267.636719 203.574219 263.78125 L 149.679688 263.78125 C 136.859375 263.78125 126.382812 253.304688 126.382812 240.480469 L 126.382812 226.097656 C 86.558594 209.9375 66.335938 164.800781 81.554688 124.039062 C 84.578125 115.855469 88.957031 108.351562 94.324219 101.730469 Z M 117.414062 112.730469 L 130.914062 155.050781 C 131.90625 158.128906 134.25 160.472656 137.535156 160.472656 L 162.398438 160.472656 C 165.265625 160.472656 167.035156 162.507812 167.664062 164.957031 L 192.421875 164.957031 C 198 164.957031 202.21875 160.941406 203.472656 155.625 L 213.0625 113.457031 C 213.0625 112.625 211.132812 112.625 210.457031 112.625 Z M 231.460938 124.351562 C 232.242188 126.4375 232.921875 128.574219 233.492188 130.761719 L 285.253906 130.761719 C 292.808594 130.761719 298.960938 136.914062 298.960938 144.472656 L 298.960938 239.542969 C 298.960938 247.101562 292.808594 253.253906 285.253906 253.253906 L 149.785156 253.253906 C 142.226562 253.253906 136.074219 247.101562 136.074219 239.542969 L 136.074219 229.378906 C 134.199219 228.910156 132.324219 228.335938 130.5 227.710938 L 130.5 240.535156 C 130.5 251.0625 139.097656 259.664062 149.628906 259.664062 L 285.355469 259.664062 C 295.886719 259.664062 304.484375 251.0625 304.484375 240.535156 L 304.484375 143.480469 C 304.484375 132.953125 295.886719 124.351562 285.355469 124.351562 Z M 234.589844 134.882812 C 245.429688 184.605469 207.589844 231.933594 156.457031 231.933594 C 150.929688 231.933594 145.511719 231.359375 140.296875 230.320312 L 140.296875 239.492188 C 140.296875 244.757812 144.570312 249.03125 149.835938 249.03125 L 285.304688 249.03125 C 290.570312 249.03125 294.84375 244.757812 294.84375 239.492188 L 294.84375 144.417969 C 294.84375 139.15625 290.570312 134.882812 285.304688 134.882812 Z M 256.480469 148.277344 C 259.191406 148.277344 259.191406 152.445312 256.480469 152.445312 L 240.949219 152.445312 C 238.183594 152.445312 238.183594 148.277344 240.949219 148.277344 Z M 256.480469 157.972656 C 259.191406 157.972656 259.191406 162.140625 256.480469 162.140625 L 240.949219 162.140625 C 238.183594 162.140625 238.183594 157.972656 240.949219 157.972656 Z M 269.875 218.957031 L 275.816406 218.957031 C 279.363281 218.957031 282.230469 221.824219 282.230469 225.367188 L 282.230469 231.308594 C 282.230469 234.851562 279.363281 237.71875 275.816406 237.71875 L 269.875 237.71875 C 266.332031 237.71875 263.464844 234.851562 263.464844 231.308594 L 263.464844 225.367188 C 263.464844 221.824219 266.382812 218.957031 269.875 218.957031 Z M 275.816406 223.125 L 269.875 223.125 C 268.625 223.125 267.632812 224.117188 267.632812 225.367188 L 267.632812 231.308594 C 267.632812 232.558594 268.675781 233.550781 269.875 233.550781 L 275.816406 233.550781 C 277.070312 233.550781 278.058594 232.507812 278.058594 231.308594 L 278.058594 225.367188 C 278.058594 224.117188 277.015625 223.125 275.816406 223.125 Z M 256.480469 172.671875 C 259.191406 172.671875 259.191406 176.839844 256.480469 176.839844 L 239.957031 176.839844 C 237.195312 176.839844 237.195312 172.671875 239.957031 172.671875 Z M 256.480469 182.3125 C 259.191406 182.3125 259.191406 186.484375 256.480469 186.484375 L 236.515625 186.484375 C 233.753906 186.484375 233.753906 182.3125 236.515625 182.3125 Z M 269.875 194.5625 L 275.816406 194.5625 C 279.363281 194.5625 282.230469 197.429688 282.230469 200.972656 L 282.230469 206.914062 C 282.230469 210.460938 279.363281 213.328125 275.816406 213.328125 L 269.875 213.328125 C 266.332031 213.328125 263.464844 210.460938 263.464844 206.914062 L 263.464844 200.972656 C 263.464844 197.480469 266.382812 194.5625 269.875 194.5625 Z M 275.816406 198.730469 L 269.875 198.730469 C 268.625 198.730469 267.632812 199.773438 267.632812 200.972656 L 267.632812 206.914062 C 267.632812 208.167969 268.675781 209.15625 269.875 209.15625 L 275.816406 209.15625 C 277.070312 209.15625 278.058594 208.113281 278.058594 206.914062 L 278.058594 200.972656 C 278.058594 199.773438 277.015625 198.730469 275.816406 198.730469 Z M 269.875 170.21875 L 275.816406 170.21875 C 279.363281 170.21875 282.230469 173.085938 282.230469 176.632812 L 282.230469 182.574219 C 282.230469 186.117188 279.363281 188.984375 275.816406 188.984375 L 269.875 188.984375 C 266.332031 188.984375 263.464844 186.117188 263.464844 182.574219 L 263.464844 176.632812 C 263.464844 173.085938 266.382812 170.21875 269.875 170.21875 Z M 275.816406 174.390625 L 269.875 174.390625 C 268.625 174.390625 267.632812 175.433594 267.632812 176.632812 L 267.632812 182.574219 C 267.632812 183.824219 268.675781 184.816406 269.875 184.816406 L 275.816406 184.816406 C 277.070312 184.816406 278.058594 183.773438 278.058594 182.574219 L 278.058594 176.632812 C 278.058594 175.378906 277.015625 174.390625 275.816406 174.390625 Z M 269.875 145.828125 L 275.816406 145.828125 C 279.363281 145.828125 282.230469 148.695312 282.230469 152.238281 L 282.230469 158.179688 C 282.230469 161.722656 279.363281 164.589844 275.816406 164.589844 L 269.875 164.589844 C 266.332031 164.589844 263.464844 161.722656 263.464844 158.179688 L 263.464844 152.238281 C 263.464844 148.695312 266.382812 145.828125 269.875 145.828125 Z M 275.816406 149.996094 L 269.875 149.996094 C 268.625 149.996094 267.632812 151.039062 267.632812 152.238281 L 267.632812 158.179688 C 267.632812 159.429688 268.675781 160.421875 269.875 160.421875 L 275.816406 160.421875 C 277.070312 160.421875 278.058594 159.378906 278.058594 158.179688 L 278.058594 152.238281 C 278.058594 150.988281 277.015625 149.996094 275.816406 149.996094 Z M 256.480469 221.40625 C 259.191406 221.40625 259.191406 225.574219 256.480469 225.574219 L 207.222656 225.574219 C 204.460938 225.574219 204.460938 221.40625 207.222656 221.40625 Z M 256.480469 231.101562 C 259.191406 231.101562 259.191406 235.269531 256.480469 235.269531 L 195.808594 235.269531 C 193.097656 235.269531 193.097656 231.101562 195.808594 231.101562 Z M 256.480469 197.011719 C 259.191406 197.011719 259.191406 201.179688 256.480469 201.179688 L 228.28125 201.179688 C 225.519531 201.179688 225.519531 197.011719 228.28125 197.011719 Z M 256.480469 206.707031 C 259.191406 206.707031 259.191406 210.875 256.480469 210.875 L 221.921875 210.875 C 219.160156 210.875 219.160156 206.707031 221.921875 206.707031 Z M 194.402344 284.527344 L 240.6875 284.527344 C 233.910156 279.054688 229.273438 272.226562 227.1875 263.832031 L 207.902344 263.832031 C 205.816406 272.171875 201.175781 279.054688 194.402344 284.527344 Z M 262.421875 288.695312 L 172.667969 288.695312 C 164.796875 288.695312 160.625 298.339844 166.308594 304.019531 C 167.921875 305.636719 170.164062 306.625 172.667969 306.625 L 262.421875 306.625 C 270.292969 306.625 274.460938 296.984375 268.78125 291.300781 C 267.113281 289.6875 264.871094 288.695312 262.421875 288.695312 Z M 262.421875 288.695312 " fill-opacity="1" fill-rule="nonzero"/></g></svg>