<svg xmlns="http://www.w3.org/2000/svg" xmlns:xlink="http://www.w3.org/1999/xlink" width="500" zoomAndPan="magnify" viewBox="0 0 375 374.999991" height="500" preserveAspectRatio="xMidYMid meet" version="1.0"><path fill="#0b1972" d="M 103.738281 296.351562 C 106.738281 303.085938 108.40625 310.542969 108.40625 318.390625 C 108.40625 348.324219 84.144531 372.585938 54.210938 372.585938 C 24.277344 372.585938 0.015625 348.324219 0.015625 318.390625 C 0.015625 288.457031 24.277344 264.195312 54.210938 264.195312 C 71.8125 264.195312 87.457031 272.585938 97.355469 285.585938 L 131.425781 251.421875 L 129.117188 249.113281 C 127.34375 247.339844 126.847656 244.65625 127.867188 242.367188 C 127.867188 242.367188 131.472656 234.253906 131.472656 234.253906 C 129.273438 230.242188 127.511719 225.992188 126.21875 221.59375 L 117.933594 218.40625 C 115.59375 217.503906 114.050781 215.257812 114.050781 212.75 L 114.050781 194.515625 C 114.050781 192.007812 115.59375 189.761719 117.933594 188.859375 C 117.933594 188.859375 126.214844 185.671875 126.214844 185.671875 C 127.511719 181.265625 129.269531 177.019531 131.476562 172.996094 L 127.867188 164.882812 C 126.847656 162.589844 127.34375 159.90625 129.117188 158.132812 L 142.011719 145.242188 C 143.785156 143.46875 146.464844 142.972656 148.757812 143.992188 C 148.757812 143.992188 156.871094 147.597656 156.871094 147.597656 C 160.894531 145.394531 165.136719 143.636719 169.535156 142.351562 L 172.738281 134.050781 C 173.640625 131.714844 175.886719 130.171875 178.390625 130.171875 L 181.78125 130.171875 L 181.78125 108.101562 C 154.535156 105.246094 133.304688 82.207031 133.304688 54.203125 C 133.304688 24.269531 157.566406 0.0078125 187.5 0.0078125 C 217.433594 0.0078125 241.695312 24.269531 241.695312 54.203125 C 241.695312 81.972656 220.820312 104.859375 193.902344 108.027344 L 193.902344 130.171875 L 196.625 130.171875 C 199.136719 130.171875 201.382812 131.71875 202.285156 134.058594 L 205.46875 142.351562 C 209.867188 143.640625 214.105469 145.398438 218.128906 147.597656 L 226.242188 143.992188 C 228.535156 142.972656 231.214844 143.46875 232.988281 145.242188 L 245.882812 158.132812 C 247.652344 159.90625 248.152344 162.582031 247.136719 164.875 C 247.136719 164.875 243.539062 172.992188 243.539062 172.992188 C 245.746094 177.019531 247.503906 181.265625 248.792969 185.675781 L 257.066406 188.859375 C 259.40625 189.761719 260.949219 192.007812 260.949219 194.515625 L 260.949219 212.75 C 260.949219 215.257812 259.40625 217.503906 257.066406 218.40625 C 257.066406 218.40625 248.789062 221.59375 248.789062 221.59375 C 247.5 225.988281 245.734375 230.226562 243.539062 234.25 L 247.136719 242.375 C 248.152344 244.664062 247.652344 247.34375 245.882812 249.113281 L 243.957031 251.035156 L 279.347656 286.640625 C 289.285156 274.859375 304.164062 267.371094 320.789062 267.371094 C 350.722656 267.371094 374.984375 291.632812 374.984375 321.570312 C 374.984375 351.503906 350.722656 375.765625 320.789062 375.765625 C 290.855469 375.765625 266.59375 351.503906 266.59375 321.570312 C 266.59375 312.703125 268.722656 304.332031 272.496094 296.945312 L 235.386719 259.609375 L 232.988281 262.003906 C 231.21875 263.777344 228.539062 264.273438 226.25 263.261719 C 226.25 263.261719 218.136719 259.667969 218.136719 259.664062 C 214.117188 261.871094 209.867188 263.625 205.46875 264.914062 L 202.28125 273.191406 C 201.382812 275.53125 199.132812 277.074219 196.625 277.074219 L 178.390625 277.074219 C 175.886719 277.074219 173.636719 275.53125 172.738281 273.191406 C 172.738281 273.191406 169.550781 264.914062 169.550781 264.914062 C 165.144531 263.625 160.898438 261.859375 156.875 259.660156 L 148.75 263.261719 C 146.460938 264.273438 143.78125 263.777344 142.011719 262.003906 L 139.996094 259.992188 Z M 223.550781 75.910156 C 227.375 69.574219 229.574219 62.144531 229.574219 54.203125 C 229.574219 30.964844 210.738281 12.128906 187.5 12.128906 C 164.261719 12.128906 145.425781 30.964844 145.425781 54.203125 C 145.425781 62.144531 147.625 69.574219 151.449219 75.910156 C 155.261719 67.621094 161.84375 60.867188 170.011719 56.847656 C 166.542969 52.808594 164.441406 47.5625 164.441406 41.851562 C 164.441406 29.164062 174.8125 18.792969 187.5 18.792969 C 200.1875 18.792969 210.558594 29.164062 210.558594 41.851562 C 210.558594 47.5625 208.457031 52.808594 204.988281 56.847656 C 213.15625 60.867188 219.738281 67.621094 223.550781 75.910156 Z M 160.59375 86.554688 C 167.886719 92.625 177.265625 96.277344 187.5 96.277344 C 197.734375 96.277344 207.113281 92.625 214.40625 86.554688 C 211.703125 74.175781 200.679688 64.910156 187.5 64.910156 C 174.320312 64.910156 163.296875 74.175781 160.59375 86.554688 Z M 187.5 52.789062 C 193.519531 52.789062 198.4375 47.871094 198.4375 41.851562 C 198.4375 35.832031 193.519531 30.914062 187.5 30.914062 C 181.480469 30.914062 176.5625 35.832031 176.5625 41.851562 C 176.5625 47.871094 181.480469 52.789062 187.5 52.789062 Z M 356.839844 343.273438 C 360.664062 336.9375 362.863281 329.511719 362.863281 321.570312 C 362.863281 298.328125 344.03125 279.496094 320.789062 279.496094 C 297.550781 279.496094 278.714844 298.328125 278.714844 321.570312 C 278.714844 329.511719 280.914062 336.9375 284.738281 343.273438 C 288.550781 334.984375 295.136719 328.234375 303.304688 324.210938 C 299.832031 320.171875 297.730469 314.929688 297.730469 309.21875 C 297.730469 296.53125 308.101562 286.15625 320.789062 286.15625 C 333.476562 286.15625 343.847656 296.53125 343.847656 309.21875 C 343.847656 314.929688 341.746094 320.171875 338.277344 324.210938 C 346.445312 328.234375 353.03125 334.984375 356.839844 343.273438 Z M 293.882812 353.917969 C 301.175781 359.992188 310.554688 363.644531 320.789062 363.644531 C 331.023438 363.644531 340.402344 359.992188 347.695312 353.917969 C 344.992188 341.542969 333.96875 332.277344 320.789062 332.277344 C 307.609375 332.277344 296.585938 341.542969 293.882812 353.917969 Z M 320.789062 320.15625 C 326.808594 320.15625 331.726562 315.234375 331.726562 309.21875 C 331.726562 303.199219 326.808594 298.277344 320.789062 298.277344 C 314.769531 298.277344 309.851562 303.199219 309.851562 309.21875 C 309.851562 315.234375 314.769531 320.15625 320.789062 320.15625 Z M 90.261719 340.097656 C 94.085938 333.761719 96.285156 326.332031 96.285156 318.390625 C 96.285156 295.152344 77.449219 276.316406 54.210938 276.316406 C 30.96875 276.316406 12.136719 295.152344 12.136719 318.390625 C 12.136719 326.332031 14.335938 333.761719 18.160156 340.097656 C 21.96875 331.808594 28.554688 325.054688 36.722656 321.035156 C 33.253906 316.996094 31.152344 311.75 31.152344 306.039062 C 31.152344 293.351562 41.523438 282.980469 54.210938 282.980469 C 66.898438 282.980469 77.269531 293.351562 77.269531 306.039062 C 77.269531 311.75 75.167969 316.996094 71.695312 321.035156 C 79.863281 325.054688 86.449219 331.808594 90.261719 340.097656 Z M 27.304688 350.742188 C 34.597656 356.8125 43.976562 360.464844 54.210938 360.464844 C 64.445312 360.464844 73.824219 356.8125 81.117188 350.742188 C 78.414062 338.363281 67.390625 329.097656 54.210938 329.097656 C 41.03125 329.097656 30.007812 338.363281 27.304688 350.742188 Z M 54.210938 316.976562 C 60.230469 316.976562 65.148438 312.058594 65.148438 306.039062 C 65.148438 300.019531 60.230469 295.101562 54.210938 295.101562 C 48.191406 295.101562 43.273438 300.019531 43.273438 306.039062 C 43.273438 312.058594 48.191406 316.976562 54.210938 316.976562 Z M 195.265625 149.589844 C 195.265625 149.589844 192.460938 142.296875 192.460938 142.296875 L 182.550781 142.296875 L 179.730469 149.597656 C 179.011719 151.460938 177.421875 152.851562 175.480469 153.3125 C 170.15625 154.578125 165.082031 156.679688 160.417969 159.554688 C 158.714844 160.601562 156.605469 160.746094 154.777344 159.933594 L 147.636719 156.757812 C 147.636719 156.757812 140.632812 163.761719 140.632812 163.761719 L 143.808594 170.898438 C 144.621094 172.726562 144.480469 174.839844 143.429688 176.542969 C 140.554688 181.210938 138.449219 186.292969 137.167969 191.632812 C 136.703125 193.574219 135.3125 195.160156 133.453125 195.875 L 126.171875 198.675781 L 126.171875 208.589844 L 133.453125 211.390625 C 135.3125 212.105469 136.699219 213.691406 137.167969 215.628906 C 138.449219 220.953125 140.550781 226.046875 143.425781 230.699219 C 144.480469 232.402344 144.621094 234.515625 143.808594 236.347656 C 143.808594 236.347656 140.632812 243.488281 140.632812 243.488281 L 147.640625 250.496094 L 154.785156 247.328125 C 156.605469 246.523438 158.707031 246.664062 160.40625 247.703125 C 165.074219 250.5625 170.152344 252.6875 175.492188 253.953125 C 177.4375 254.414062 179.035156 255.804688 179.75 257.671875 L 182.554688 264.953125 L 192.464844 264.953125 L 195.265625 257.671875 C 195.984375 255.804688 197.578125 254.414062 199.519531 253.953125 C 204.839844 252.6875 209.929688 250.589844 214.574219 247.71875 C 216.273438 246.664062 218.386719 246.519531 220.214844 247.328125 L 227.359375 250.496094 L 234.371094 243.484375 L 231.207031 236.339844 C 230.398438 234.519531 230.539062 232.417969 231.578125 230.71875 C 234.441406 226.050781 236.5625 220.972656 237.828125 215.644531 C 238.289062 213.699219 239.683594 212.109375 241.546875 211.390625 L 248.828125 208.589844 L 248.828125 198.675781 L 241.546875 195.875 C 239.679688 195.15625 238.289062 193.5625 237.828125 191.617188 C 236.5625 186.28125 234.460938 181.207031 231.585938 176.542969 C 230.539062 174.84375 230.398438 172.734375 231.207031 170.90625 L 234.371094 163.765625 C 234.371094 163.765625 227.363281 156.757812 227.363281 156.757812 L 220.222656 159.933594 C 218.394531 160.746094 216.285156 160.601562 214.582031 159.554688 C 209.917969 156.679688 204.84375 154.578125 199.519531 153.3125 C 197.574219 152.851562 195.984375 151.457031 195.265625 149.589844 Z M 187.5 165.757812 C 208.421875 165.757812 225.382812 182.703125 225.382812 203.625 C 225.382812 224.542969 208.417969 241.507812 187.5 241.507812 C 166.578125 241.507812 149.636719 224.542969 149.636719 203.625 C 149.636719 182.703125 166.578125 165.757812 187.5 165.757812 Z M 187.5 177.878906 C 173.277344 177.878906 161.757812 189.398438 161.757812 203.625 C 161.757812 217.847656 173.273438 229.386719 187.5 229.386719 C 201.726562 229.386719 213.261719 217.847656 213.261719 203.625 C 213.261719 189.398438 201.726562 177.878906 187.5 177.878906 Z M 36.804688 239.699219 C 37.582031 242.953125 35.570312 246.226562 32.316406 247.003906 C 29.0625 247.78125 25.792969 245.769531 25.015625 242.515625 C 23.972656 238.144531 23.097656 233.703125 22.40625 229.207031 C 21.898438 225.902344 24.167969 222.804688 27.472656 222.296875 C 30.78125 221.785156 33.875 224.054688 34.386719 227.363281 C 35.027344 231.53125 35.835938 235.648438 36.804688 239.699219 Z M 32.582031 202.289062 C 32.554688 205.632812 29.8125 208.324219 26.46875 208.296875 C 23.125 208.269531 20.433594 205.53125 20.460938 202.183594 C 20.5 197.625 20.722656 193.109375 21.117188 188.644531 C 21.414062 185.3125 24.363281 182.847656 27.691406 183.148438 C 31.023438 183.441406 33.488281 186.390625 33.191406 189.722656 C 32.824219 193.863281 32.617188 198.054688 32.582031 202.289062 Z M 37.449219 164.957031 C 36.613281 168.195312 33.308594 170.148438 30.066406 169.316406 C 26.828125 168.480469 24.875 165.171875 25.710938 161.933594 C 26.839844 157.53125 28.148438 153.199219 29.625 148.949219 C 30.71875 145.785156 34.175781 144.109375 37.335938 145.207031 C 40.496094 146.300781 42.171875 149.757812 41.078125 152.917969 C 39.710938 156.859375 38.496094 160.875 37.449219 164.957031 Z M 51.21875 129.929688 C 49.621094 132.867188 45.941406 133.960938 43 132.367188 C 40.0625 130.773438 38.96875 127.089844 40.5625 124.148438 C 42.722656 120.167969 45.039062 116.28125 47.507812 112.5 C 49.335938 109.699219 53.09375 108.910156 55.894531 110.738281 C 58.695312 112.566406 59.484375 116.324219 57.65625 119.125 C 55.371094 122.632812 53.222656 126.234375 51.21875 129.929688 Z M 73.050781 99.253906 C 70.796875 101.722656 66.960938 101.898438 64.488281 99.644531 C 62.015625 97.390625 61.84375 93.550781 64.097656 91.082031 C 67.144531 87.742188 70.324219 84.527344 73.632812 81.445312 C 76.078125 79.164062 79.917969 79.296875 82.199219 81.742188 C 84.480469 84.191406 84.34375 88.027344 81.898438 90.308594 C 78.832031 93.171875 75.878906 96.152344 73.050781 99.253906 Z M 101.605469 74.703125 C 98.824219 76.5625 95.058594 75.8125 93.199219 73.03125 C 91.339844 70.25 92.089844 66.480469 94.871094 64.625 C 98.625 62.117188 102.484375 59.757812 106.445312 57.554688 C 109.367188 55.929688 113.0625 56.980469 114.6875 59.902344 C 116.3125 62.828125 115.261719 66.519531 112.339844 68.148438 C 108.667969 70.191406 105.085938 72.378906 101.605469 74.703125 Z M 245.695312 347.230469 C 248.796875 345.972656 252.332031 347.464844 253.59375 350.566406 C 254.851562 353.664062 253.355469 357.203125 250.257812 358.460938 C 246.257812 360.085938 242.183594 361.558594 238.039062 362.875 C 234.851562 363.886719 231.4375 362.121094 230.425781 358.929688 C 229.414062 355.742188 231.183594 352.332031 234.371094 351.320312 C 238.210938 350.101562 241.988281 348.734375 245.695312 347.230469 Z M 210.933594 356.785156 C 214.238281 356.28125 217.332031 358.558594 217.835938 361.867188 C 218.335938 365.171875 216.058594 368.265625 212.753906 368.769531 C 208.5 369.414062 204.195312 369.898438 199.84375 370.21875 C 196.511719 370.464844 193.601562 367.953125 193.359375 364.617188 C 193.113281 361.28125 195.625 358.375 198.960938 358.128906 C 202.996094 357.835938 206.988281 357.382812 210.933594 356.785156 Z M 174.875 358.039062 C 178.207031 358.308594 180.695312 361.234375 180.425781 364.570312 C 180.160156 367.902344 177.234375 370.390625 173.898438 370.121094 C 169.550781 369.769531 165.25 369.253906 161.003906 368.574219 C 157.699219 368.046875 155.445312 364.9375 155.972656 361.632812 C 156.5 358.332031 159.613281 356.078125 162.914062 356.605469 C 166.855469 357.234375 170.84375 357.714844 174.875 358.039062 Z M 139.519531 350.964844 C 142.699219 352 144.4375 355.421875 143.402344 358.601562 C 142.367188 361.785156 138.941406 363.523438 135.761719 362.488281 C 131.628906 361.140625 127.5625 359.636719 123.578125 357.980469 C 120.488281 356.699219 119.019531 353.148438 120.300781 350.0625 C 121.585938 346.972656 125.132812 345.503906 128.222656 346.785156 C 131.917969 348.320312 135.6875 349.714844 139.519531 350.964844 Z M 262.976562 68.324219 C 260.058594 66.6875 259.011719 62.992188 260.644531 60.074219 C 262.28125 57.15625 265.976562 56.109375 268.894531 57.746094 C 272.894531 59.980469 276.789062 62.378906 280.578125 64.925781 C 283.355469 66.792969 284.089844 70.5625 282.226562 73.339844 C 280.359375 76.113281 276.589844 76.851562 273.8125 74.984375 C 270.300781 72.621094 266.683594 70.398438 262.976562 68.324219 Z M 293.679688 90.851562 C 291.246094 88.558594 291.132812 84.71875 293.425781 82.285156 C 295.71875 79.847656 299.558594 79.734375 301.992188 82.027344 C 305.320312 85.164062 308.519531 88.433594 311.582031 91.828125 C 313.820312 94.3125 313.621094 98.148438 311.136719 100.390625 C 308.65625 102.628906 304.820312 102.429688 302.578125 99.945312 C 299.738281 96.796875 296.769531 93.761719 293.679688 90.851562 Z M 318.007812 120.152344 C 316.203125 117.339844 317.023438 113.585938 319.835938 111.78125 C 322.652344 109.976562 326.40625 110.796875 328.210938 113.609375 C 330.675781 117.453125 332.984375 121.402344 335.136719 125.449219 C 336.703125 128.402344 335.578125 132.078125 332.625 133.644531 C 329.671875 135.214844 326 134.089844 324.429688 131.132812 C 322.4375 127.378906 320.292969 123.71875 318.007812 120.152344 Z M 334.457031 154.484375 C 333.394531 151.3125 335.109375 147.875 338.28125 146.816406 C 341.453125 145.753906 344.890625 147.46875 345.953125 150.640625 C 347.398438 154.957031 348.671875 159.351562 349.765625 163.820312 C 350.558594 167.066406 348.566406 170.351562 345.320312 171.148438 C 342.070312 171.941406 338.785156 169.949219 337.992188 166.703125 C 336.976562 162.5625 335.796875 158.488281 334.457031 154.484375 Z M 341.980469 191.804688 C 341.726562 188.46875 344.230469 185.554688 347.566406 185.304688 C 350.902344 185.050781 353.8125 187.554688 354.066406 190.890625 C 354.382812 195.09375 354.546875 199.339844 354.546875 203.625 C 354.546875 203.945312 354.542969 204.269531 354.542969 204.59375 C 354.523438 207.9375 351.792969 210.636719 348.449219 210.617188 C 345.101562 210.597656 342.402344 207.867188 342.421875 204.523438 C 342.421875 204.222656 342.425781 203.921875 342.425781 203.625 C 342.425781 199.648438 342.273438 195.707031 341.980469 191.804688 Z M 340.210938 229.851562 C 340.773438 226.554688 343.90625 224.335938 347.203125 224.898438 C 350.5 225.460938 352.722656 228.59375 352.160156 231.890625 C 351.382812 236.429688 350.425781 240.902344 349.292969 245.308594 C 348.460938 248.546875 345.152344 250.5 341.914062 249.667969 C 338.671875 248.832031 336.71875 245.527344 337.554688 242.289062 C 338.605469 238.203125 339.492188 234.054688 340.210938 229.851562 Z M 340.210938 229.851562 " fill-opacity="1" fill-rule="evenodd"/><path fill="#0b1972" d="M 103.738281 296.351562 C 106.738281 303.085938 108.40625 310.542969 108.40625 318.390625 C 108.40625 348.324219 84.144531 372.585938 54.210938 372.585938 C 24.277344 372.585938 0.015625 348.324219 0.015625 318.390625 C 0.015625 288.457031 24.277344 264.195312 54.210938 264.195312 C 71.8125 264.195312 87.457031 272.585938 97.355469 285.585938 L 131.425781 251.421875 L 129.117188 249.113281 C 127.34375 247.339844 126.847656 244.65625 127.867188 242.367188 C 127.867188 242.367188 131.472656 234.253906 131.472656 234.253906 C 129.273438 230.242188 127.511719 225.992188 126.21875 221.59375 L 117.933594 218.40625 C 115.59375 217.503906 114.050781 215.257812 114.050781 212.75 L 114.050781 194.515625 C 114.050781 192.007812 115.59375 189.761719 117.933594 188.859375 C 117.933594 188.859375 126.214844 185.671875 126.214844 185.671875 C 127.511719 181.265625 129.269531 177.019531 131.476562 172.996094 L 127.867188 164.882812 C 126.847656 162.589844 127.34375 159.90625 129.117188 158.132812 L 142.011719 145.242188 C 143.785156 143.46875 146.464844 142.972656 148.757812 143.992188 C 148.757812 143.992188 156.871094 147.597656 156.871094 147.597656 C 160.894531 145.394531 165.136719 143.636719 169.535156 142.351562 L 172.738281 134.050781 C 173.640625 131.714844 175.886719 130.171875 178.390625 130.171875 L 181.78125 130.171875 L 181.78125 108.101562 C 154.535156 105.246094 133.304688 82.207031 133.304688 54.203125 C 133.304688 24.269531 157.566406 0.0078125 187.5 0.0078125 C 217.433594 0.0078125 241.695312 24.269531 241.695312 54.203125 C 241.695312 81.972656 220.820312 104.859375 193.902344 108.027344 L 193.902344 130.171875 L 196.625 130.171875 C 199.136719 130.171875 201.382812 131.71875 202.285156 134.058594 L 205.46875 142.351562 C 209.867188 143.640625 214.105469 145.398438 218.128906 147.597656 L 226.242188 143.992188 C 228.535156 142.972656 231.214844 143.46875 232.988281 145.242188 L 245.882812 158.132812 C 247.652344 159.90625 248.152344 162.582031 247.136719 164.875 C 247.136719 164.875 243.539062 172.992188 243.539062 172.992188 C 245.746094 177.019531 247.503906 181.265625 248.792969 185.675781 L 257.066406 188.859375 C 259.40625 189.761719 260.949219 192.007812 260.949219 194.515625 L 260.949219 212.75 C 260.949219 215.257812 259.40625 217.503906 257.066406 218.40625 C 257.066406 218.40625 248.789062 221.59375 248.789062 221.59375 C 247.5 225.988281 245.734375 230.226562 243.539062 234.25 L 247.136719 242.375 C 248.152344 244.664062 247.652344 247.34375 245.882812 249.113281 L 243.957031 251.035156 L 279.347656 286.640625 C 289.285156 274.859375 304.164062 267.371094 320.789062 267.371094 C 350.722656 267.371094 374.984375 291.632812 374.984375 321.570312 C 374.984375 351.503906 350.722656 375.765625 320.789062 375.765625 C 290.855469 375.765625 266.59375 351.503906 266.59375 321.570312 C 266.59375 312.703125 268.722656 304.332031 272.496094 296.945312 L 235.386719 259.609375 L 232.988281 262.003906 C 231.21875 263.777344 228.539062 264.273438 226.25 263.261719 C 226.25 263.261719 218.136719 259.667969 218.136719 259.664062 C 214.117188 261.871094 209.867188 263.625 205.46875 264.914062 L 202.28125 273.191406 C 201.382812 275.53125 199.132812 277.074219 196.625 277.074219 L 178.390625 277.074219 C 175.886719 277.074219 173.636719 275.53125 172.738281 273.191406 C 172.738281 273.191406 169.550781 264.914062 169.550781 264.914062 C 165.144531 263.625 160.898438 261.859375 156.875 259.660156 L 148.75 263.261719 C 146.460938 264.273438 143.78125 263.777344 142.011719 262.003906 L 139.996094 259.992188 Z M 223.550781 75.910156 C 227.375 69.574219 229.574219 62.144531 229.574219 54.203125 C 229.574219 30.964844 210.738281 12.128906 187.5 12.128906 C 164.261719 12.128906 145.425781 30.964844 145.425781 54.203125 C 145.425781 62.144531 147.625 69.574219 151.449219 75.910156 C 155.261719 67.621094 161.84375 60.867188 170.011719 56.847656 C 166.542969 52.808594 164.441406 47.5625 164.441406 41.851562 C 164.441406 29.164062 174.8125 18.792969 187.5 18.792969 C 200.1875 18.792969 210.558594 29.164062 210.558594 41.851562 C 210.558594 47.5625 208.457031 52.808594 204.988281 56.847656 C 213.15625 60.867188 219.738281 67.621094 223.550781 75.910156 Z M 160.59375 86.554688 C 167.886719 92.625 177.265625 96.277344 187.5 96.277344 C 197.734375 96.277344 207.113281 92.625 214.40625 86.554688 C 211.703125 74.175781 200.679688 64.910156 187.5 64.910156 C 174.320312 64.910156 163.296875 74.175781 160.59375 86.554688 Z M 187.5 52.789062 C 193.519531 52.789062 198.4375 47.871094 198.4375 41.851562 C 198.4375 35.832031 193.519531 30.914062 187.5 30.914062 C 181.480469 30.914062 176.5625 35.832031 176.5625 41.851562 C 176.5625 47.871094 181.480469 52.789062 187.5 52.789062 Z M 356.839844 343.273438 C 360.664062 336.9375 362.863281 329.511719 362.863281 321.570312 C 362.863281 298.328125 344.03125 279.496094 320.789062 279.496094 C 297.550781 279.496094 278.714844 298.328125 278.714844 321.570312 C 278.714844 329.511719 280.914062 336.9375 284.738281 343.273438 C 288.550781 334.984375 295.136719 328.234375 303.304688 324.210938 C 299.832031 320.171875 297.730469 314.929688 297.730469 309.21875 C 297.730469 296.53125 308.101562 286.15625 320.789062 286.15625 C 333.476562 286.15625 343.847656 296.53125 343.847656 309.21875 C 343.847656 314.929688 341.746094 320.171875 338.277344 324.210938 C 346.445312 328.234375 353.03125 334.984375 356.839844 343.273438 Z M 293.882812 353.917969 C 301.175781 359.992188 310.554688 363.644531 320.789062 363.644531 C 331.023438 363.644531 340.402344 359.992188 347.695312 353.917969 C 344.992188 341.542969 333.96875 332.277344 320.789062 332.277344 C 307.609375 332.277344 296.585938 341.542969 293.882812 353.917969 Z M 320.789062 320.15625 C 326.808594 320.15625 331.726562 315.234375 331.726562 309.21875 C 331.726562 303.199219 326.808594 298.277344 320.789062 298.277344 C 314.769531 298.277344 309.851562 303.199219 309.851562 309.21875 C 309.851562 315.234375 314.769531 320.15625 320.789062 320.15625 Z M 90.261719 340.097656 C 94.085938 333.761719 96.285156 326.332031 96.285156 318.390625 C 96.285156 295.152344 77.449219 276.316406 54.210938 276.316406 C 30.96875 276.316406 12.136719 295.152344 12.136719 318.390625 C 12.136719 326.332031 14.335938 333.761719 18.160156 340.097656 C 21.96875 331.808594 28.554688 325.054688 36.722656 321.035156 C 33.253906 316.996094 31.152344 311.75 31.152344 306.039062 C 31.152344 293.351562 41.523438 282.980469 54.210938 282.980469 C 66.898438 282.980469 77.269531 293.351562 77.269531 306.039062 C 77.269531 311.75 75.167969 316.996094 71.695312 321.035156 C 79.863281 325.054688 86.449219 331.808594 90.261719 340.097656 Z M 27.304688 350.742188 C 34.597656 356.8125 43.976562 360.464844 54.210938 360.464844 C 64.445312 360.464844 73.824219 356.8125 81.117188 350.742188 C 78.414062 338.363281 67.390625 329.097656 54.210938 329.097656 C 41.03125 329.097656 30.007812 338.363281 27.304688 350.742188 Z M 54.210938 316.976562 C 60.230469 316.976562 65.148438 312.058594 65.148438 306.039062 C 65.148438 300.019531 60.230469 295.101562 54.210938 295.101562 C 48.191406 295.101562 43.273438 300.019531 43.273438 306.039062 C 43.273438 312.058594 48.191406 316.976562 54.210938 316.976562 Z M 195.265625 149.589844 C 195.265625 149.589844 192.460938 142.296875 192.460938 142.296875 L 182.550781 142.296875 L 179.730469 149.597656 C 179.011719 151.460938 177.421875 152.851562 175.480469 153.3125 C 170.15625 154.578125 165.082031 156.679688 160.417969 159.554688 C 158.714844 160.601562 156.605469 160.746094 154.777344 159.933594 L 147.636719 156.757812 C 147.636719 156.757812 140.632812 163.761719 140.632812 163.761719 L 143.808594 170.898438 C 144.621094 172.726562 144.480469 174.839844 143.429688 176.542969 C 140.554688 181.210938 138.449219 186.292969 137.167969 191.632812 C 136.703125 193.574219 135.3125 195.160156 133.453125 195.875 L 126.171875 198.675781 L 126.171875 208.589844 L 133.453125 211.390625 C 135.3125 212.105469 136.699219 213.691406 137.167969 215.628906 C 138.449219 220.953125 140.550781 226.046875 143.425781 230.699219 C 144.480469 232.402344 144.621094 234.515625 143.808594 236.347656 C 143.808594 236.347656 140.632812 243.488281 140.632812 243.488281 L 147.640625 250.496094 L 154.785156 247.328125 C 156.605469 246.523438 158.707031 246.664062 160.40625 247.703125 C 165.074219 250.5625 170.152344 252.6875 175.492188 253.953125 C 177.4375 254.414062 179.035156 255.804688 179.75 257.671875 L 182.554688 264.953125 L 192.464844 264.953125 L 195.265625 257.671875 C 195.984375 255.804688 197.578125 254.414062 199.519531 253.953125 C 204.839844 252.6875 209.929688 250.589844 214.574219 247.71875 C 216.273438 246.664062 218.386719 246.519531 220.214844 247.328125 L 227.359375 250.496094 L 234.371094 243.484375 L 231.207031 236.339844 C 230.398438 234.519531 230.539062 232.417969 231.578125 230.71875 C 234.441406 226.050781 236.5625 220.972656 237.828125 215.644531 C 238.289062 213.699219 239.683594 212.109375 241.546875 211.390625 L 248.828125 208.589844 L 248.828125 198.675781 L 241.546875 195.875 C 239.679688 195.15625 238.289062 193.5625 237.828125 191.617188 C 236.5625 186.28125 234.460938 181.207031 231.585938 176.542969 C 230.539062 174.84375 230.398438 172.734375 231.207031 170.90625 L 234.371094 163.765625 C 234.371094 163.765625 227.363281 156.757812 227.363281 156.757812 L 220.222656 159.933594 C 218.394531 160.746094 216.285156 160.601562 214.582031 159.554688 C 209.917969 156.679688 204.84375 154.578125 199.519531 153.3125 C 197.574219 152.851562 195.984375 151.457031 195.265625 149.589844 Z M 187.5 165.757812 C 208.421875 165.757812 225.382812 182.703125 225.382812 203.625 C 225.382812 224.542969 208.417969 241.507812 187.5 241.507812 C 166.578125 241.507812 149.636719 224.542969 149.636719 203.625 C 149.636719 182.703125 166.578125 165.757812 187.5 165.757812 Z M 187.5 177.878906 C 173.277344 177.878906 161.757812 189.398438 161.757812 203.625 C 161.757812 217.847656 173.273438 229.386719 187.5 229.386719 C 201.726562 229.386719 213.261719 217.847656 213.261719 203.625 C 213.261719 189.398438 201.726562 177.878906 187.5 177.878906 Z M 36.804688 239.699219 C 37.582031 242.953125 35.570312 246.226562 32.316406 247.003906 C 29.0625 247.78125 25.792969 245.769531 25.015625 242.515625 C 23.972656 238.144531 23.097656 233.703125 22.40625 229.207031 C 21.898438 225.902344 24.167969 222.804688 27.472656 222.296875 C 30.78125 221.785156 33.875 224.054688 34.386719 227.363281 C 35.027344 231.53125 35.835938 235.648438 36.804688 239.699219 Z M 32.582031 202.289062 C 32.554688 205.632812 29.8125 208.324219 26.46875 208.296875 C 23.125 208.269531 20.433594 205.53125 20.460938 202.183594 C 20.5 197.625 20.722656 193.109375 21.117188 188.644531 C 21.414062 185.3125 24.363281 182.847656 27.691406 183.148438 C 31.023438 183.441406 33.488281 186.390625 33.191406 189.722656 C 32.824219 193.863281 32.617188 198.054688 32.582031 202.289062 Z M 37.449219 164.957031 C 36.613281 168.195312 33.308594 170.148438 30.066406 169.316406 C 26.828125 168.480469 24.875 165.171875 25.710938 161.933594 C 26.839844 157.53125 28.148438 153.199219 29.625 148.949219 C 30.71875 145.785156 34.175781 144.109375 37.335938 145.207031 C 40.496094 146.300781 42.171875 149.757812 41.078125 152.917969 C 39.710938 156.859375 38.496094 160.875 37.449219 164.957031 Z M 51.21875 129.929688 C 49.621094 132.867188 45.941406 133.960938 43 132.367188 C 40.0625 130.773438 38.96875 127.089844 40.5625 124.148438 C 42.722656 120.167969 45.039062 116.28125 47.507812 112.5 C 49.335938 109.699219 53.09375 108.910156 55.894531 110.738281 C 58.695312 112.566406 59.484375 116.324219 57.65625 119.125 C 55.371094 122.632812 53.222656 126.234375 51.21875 129.929688 Z M 73.050781 99.253906 C 70.796875 101.722656 66.960938 101.898438 64.488281 99.644531 C 62.015625 97.390625 61.84375 93.550781 64.097656 91.082031 C 67.144531 87.742188 70.324219 84.527344 73.632812 81.445312 C 76.078125 79.164062 79.917969 79.296875 82.199219 81.742188 C 84.480469 84.191406 84.34375 88.027344 81.898438 90.308594 C 78.832031 93.171875 75.878906 96.152344 73.050781 99.253906 Z M 101.605469 74.703125 C 98.824219 76.5625 95.058594 75.8125 93.199219 73.03125 C 91.339844 70.25 92.089844 66.480469 94.871094 64.625 C 98.625 62.117188 102.484375 59.757812 106.445312 57.554688 C 109.367188 55.929688 113.0625 56.980469 114.6875 59.902344 C 116.3125 62.828125 115.261719 66.519531 112.339844 68.148438 C 108.667969 70.191406 105.085938 72.378906 101.605469 74.703125 Z M 245.695312 347.230469 C 248.796875 345.972656 252.332031 347.464844 253.59375 350.566406 C 254.851562 353.664062 253.355469 357.203125 250.257812 358.460938 C 246.257812 360.085938 242.183594 361.558594 238.039062 362.875 C 234.851562 363.886719 231.4375 362.121094 230.425781 358.929688 C 229.414062 355.742188 231.183594 352.332031 234.371094 351.320312 C 238.210938 350.101562 241.988281 348.734375 245.695312 347.230469 Z M 210.933594 356.785156 C 214.238281 356.28125 217.332031 358.558594 217.835938 361.867188 C 218.335938 365.171875 216.058594 368.265625 212.753906 368.769531 C 208.5 369.414062 204.195312 369.898438 199.84375 370.21875 C 196.511719 370.464844 193.601562 367.953125 193.359375 364.617188 C 193.113281 361.28125 195.625 358.375 198.960938 358.128906 C 202.996094 357.835938 206.988281 357.382812 210.933594 356.785156 Z M 174.875 358.039062 C 178.207031 358.308594 180.695312 361.234375 180.425781 364.570312 C 180.160156 367.902344 177.234375 370.390625 173.898438 370.121094 C 169.550781 369.769531 165.25 369.253906 161.003906 368.574219 C 157.699219 368.046875 155.445312 364.9375 155.972656 361.632812 C 156.5 358.332031 159.613281 356.078125 162.914062 356.605469 C 166.855469 357.234375 170.84375 357.714844 174.875 358.039062 Z M 139.519531 350.964844 C 142.699219 352 144.4375 355.421875 143.402344 358.601562 C 142.367188 361.785156 138.941406 363.523438 135.761719 362.488281 C 131.628906 361.140625 127.5625 359.636719 123.578125 357.980469 C 120.488281 356.699219 119.019531 353.148438 120.300781 350.0625 C 121.585938 346.972656 125.132812 345.503906 128.222656 346.785156 C 131.917969 348.320312 135.6875 349.714844 139.519531 350.964844 Z M 262.976562 68.324219 C 260.058594 66.6875 259.011719 62.992188 260.644531 60.074219 C 262.28125 57.15625 265.976562 56.109375 268.894531 57.746094 C 272.894531 59.980469 276.789062 62.378906 280.578125 64.925781 C 283.355469 66.792969 284.089844 70.5625 282.226562 73.339844 C 280.359375 76.113281 276.589844 76.851562 273.8125 74.984375 C 270.300781 72.621094 266.683594 70.398438 262.976562 68.324219 Z M 293.679688 90.851562 C 291.246094 88.558594 291.132812 84.71875 293.425781 82.285156 C 295.71875 79.847656 299.558594 79.734375 301.992188 82.027344 C 305.320312 85.164062 308.519531 88.433594 311.582031 91.828125 C 313.820312 94.3125 313.621094 98.148438 311.136719 100.390625 C 308.65625 102.628906 304.820312 102.429688 302.578125 99.945312 C 299.738281 96.796875 296.769531 93.761719 293.679688 90.851562 Z M 318.007812 120.152344 C 316.203125 117.339844 317.023438 113.585938 319.835938 111.78125 C 322.652344 109.976562 326.40625 110.796875 328.210938 113.609375 C 330.675781 117.453125 332.984375 121.402344 335.136719 125.449219 C 336.703125 128.402344 335.578125 132.078125 332.625 133.644531 C 329.671875 135.214844 326 134.089844 324.429688 131.132812 C 322.4375 127.378906 320.292969 123.71875 318.007812 120.152344 Z M 334.457031 154.484375 C 333.394531 151.3125 335.109375 147.875 338.28125 146.816406 C 341.453125 145.753906 344.890625 147.46875 345.953125 150.640625 C 347.398438 154.957031 348.671875 159.351562 349.765625 163.820312 C 350.558594 167.066406 348.566406 170.351562 345.320312 171.148438 C 342.070312 171.941406 338.785156 169.949219 337.992188 166.703125 C 336.976562 162.5625 335.796875 158.488281 334.457031 154.484375 Z M 341.980469 191.804688 C 341.726562 188.46875 344.230469 185.554688 347.566406 185.304688 C 350.902344 185.050781 353.8125 187.554688 354.066406 190.890625 C 354.382812 195.09375 354.546875 199.339844 354.546875 203.625 C 354.546875 203.945312 354.542969 204.269531 354.542969 204.59375 C 354.523438 207.9375 351.792969 210.636719 348.449219 210.617188 C 345.101562 210.597656 342.402344 207.867188 342.421875 204.523438 C 342.421875 204.222656 342.425781 203.921875 342.425781 203.625 C 342.425781 199.648438 342.273438 195.707031 341.980469 191.804688 Z M 340.210938 229.851562 C 340.773438 226.554688 343.90625 224.335938 347.203125 224.898438 C 350.5 225.460938 352.722656 228.59375 352.160156 231.890625 C 351.382812 236.429688 350.425781 240.902344 349.292969 245.308594 C 348.460938 248.546875 345.152344 250.5 341.914062 249.667969 C 338.671875 248.832031 336.71875 245.527344 337.554688 242.289062 C 338.605469 238.203125 339.492188 234.054688 340.210938 229.851562 Z M 340.210938 229.851562 " fill-opacity="1" fill-rule="evenodd"/></svg>