<svg xmlns="http://www.w3.org/2000/svg" xmlns:xlink="http://www.w3.org/1999/xlink" width="500" zoomAndPan="magnify" viewBox="0 0 375 374.999991" height="500" preserveAspectRatio="xMidYMid meet" version="1.0"><defs><clipPath id="89bfdd6227"><path d="M 187.5 0 C 83.945312 0 0 83.945312 0 187.5 C 0 291.054688 83.945312 375 187.5 375 C 291.054688 375 375 291.054688 375 187.5 C 375 83.945312 291.054688 0 187.5 0 Z M 187.5 0 " clip-rule="nonzero"/></clipPath><clipPath id="d8cc491a30"><path d="M 0 0 L 375 0 L 375 375 L 0 375 Z M 0 0 " clip-rule="nonzero"/></clipPath><clipPath id="446a3e54dc"><path d="M 187.5 0 C 83.945312 0 0 83.945312 0 187.5 C 0 291.054688 83.945312 375 187.5 375 C 291.054688 375 375 291.054688 375 187.5 C 375 83.945312 291.054688 0 187.5 0 Z M 187.5 0 " clip-rule="nonzero"/></clipPath><clipPath id="e3d7b328d4"><rect x="0" width="375" y="0" height="375"/></clipPath><clipPath id="19c9302738"><path d="M 113 68.410156 L 119 68.410156 L 119 79 L 113 79 Z M 113 68.410156 " clip-rule="nonzero"/></clipPath><clipPath id="2283746a78"><path d="M 204 278 L 295 278 L 295 306.910156 L 204 306.910156 Z M 204 278 " clip-rule="nonzero"/></clipPath></defs><g clip-path="url(#89bfdd6227)"><g transform="matrix(1, 0, 0, 1, 0, 0)"><g clip-path="url(#e3d7b328d4)"><g clip-path="url(#d8cc491a30)"><g clip-path="url(#446a3e54dc)"><rect x="-82.5" width="540" fill="#e6ac41" height="539.999987" y="-82.499998" fill-opacity="1"/></g></g></g></g></g><g clip-path="url(#19c9302738)"><path fill="#ffffff" d="M 113.457031 76.777344 C 113.488281 77.265625 113.65625 77.703125 113.953125 78.09375 C 114.25 78.484375 114.628906 78.757812 115.09375 78.917969 C 115.6875 78.914062 116.277344 78.914062 116.871094 78.902344 C 117.601562 78.429688 118.453125 77.785156 118.417969 76.8125 C 118.410156 74.554688 118.480469 72.292969 118.382812 70.039062 C 118.171875 69.554688 117.847656 69.171875 117.410156 68.882812 C 116.96875 68.589844 116.488281 68.445312 115.964844 68.4375 C 115.4375 68.429688 114.953125 68.566406 114.507812 68.847656 C 114.0625 69.125 113.730469 69.503906 113.507812 69.980469 C 113.390625 72.242188 113.476562 74.511719 113.457031 76.777344 Z M 113.457031 76.777344 " fill-opacity="1" fill-rule="nonzero"/></g><path fill="#ffffff" d="M 165.890625 134.535156 C 166.59375 134.734375 167.378906 134.492188 168.046875 134.757812 C 168.410156 135.386719 168.695312 136.046875 168.898438 136.746094 C 169.902344 139.460938 171.226562 142.011719 172.871094 144.394531 C 174.519531 146.78125 176.433594 148.921875 178.617188 150.824219 C 180.515625 152.328125 182.601562 153.496094 184.875 154.332031 C 187.152344 155.164062 189.5 155.617188 191.921875 155.695312 C 194.28125 155.8125 196.601562 155.550781 198.882812 154.917969 C 201.160156 154.285156 203.28125 153.3125 205.246094 151.996094 C 207.367188 150.527344 209.257812 148.8125 210.921875 146.84375 C 212.585938 144.878906 213.96875 142.726562 215.0625 140.394531 C 215.933594 138.605469 216.605469 136.738281 217.375 134.90625 C 218.085938 134.859375 218.78125 134.734375 219.46875 134.539062 C 220.152344 134.339844 220.808594 134.070312 221.4375 133.734375 C 222.066406 133.394531 222.648438 132.996094 223.191406 132.53125 C 223.734375 132.070312 224.222656 131.554688 224.652344 130.988281 C 225.085938 130.417969 225.453125 129.8125 225.753906 129.167969 C 226.054688 128.523438 226.285156 127.851562 226.445312 127.15625 C 226.601562 126.460938 226.6875 125.757812 226.695312 125.042969 C 226.703125 124.332031 226.636719 123.625 226.492188 122.925781 C 226.152344 121.699219 225.566406 120.605469 224.738281 119.636719 C 223.910156 118.671875 222.914062 117.925781 221.753906 117.402344 C 222.695312 113.863281 223.140625 110.265625 223.09375 106.605469 C 223.117188 104.746094 222.949219 102.902344 222.59375 101.078125 C 222.238281 99.253906 221.699219 97.484375 220.980469 95.769531 C 220.261719 94.058594 219.375 92.433594 218.324219 90.902344 C 217.273438 89.371094 216.074219 87.960938 214.734375 86.671875 C 212.363281 84.511719 209.71875 82.761719 206.804688 81.417969 C 203.894531 80.070312 200.84375 79.199219 197.664062 78.792969 C 193.941406 78.308594 190.234375 78.394531 186.542969 79.058594 C 182.851562 79.71875 179.34375 80.925781 176.023438 82.671875 C 172.832031 84.488281 170.132812 86.859375 167.929688 89.792969 C 165.015625 93.894531 163.246094 98.445312 162.613281 103.433594 C 162.117188 108.226562 162.519531 112.9375 163.832031 117.574219 C 163.164062 117.792969 162.539062 118.105469 161.960938 118.507812 C 161.382812 118.910156 160.875 119.382812 160.4375 119.933594 C 160 120.484375 159.644531 121.085938 159.382812 121.734375 C 159.117188 122.386719 158.953125 123.0625 158.882812 123.765625 C 158.816406 124.34375 158.796875 124.921875 158.832031 125.503906 C 158.863281 126.085938 158.949219 126.660156 159.082031 127.226562 C 159.214844 127.792969 159.394531 128.34375 159.621094 128.878906 C 159.851562 129.414062 160.125 129.925781 160.441406 130.414062 C 160.757812 130.902344 161.117188 131.359375 161.511719 131.785156 C 161.910156 132.214844 162.339844 132.601562 162.804688 132.953125 C 163.269531 133.304688 163.761719 133.613281 164.277344 133.878906 C 164.796875 134.144531 165.335938 134.363281 165.890625 134.535156 Z M 173.855469 96.953125 C 174.867188 96.71875 175.648438 97.5 176.417969 98.011719 C 179.878906 100.621094 183.714844 102.441406 187.929688 103.464844 C 190.378906 104.046875 192.859375 104.308594 195.378906 104.25 C 197.894531 104.191406 200.363281 103.8125 202.785156 103.117188 C 205.382812 102.296875 207.867188 101.214844 210.242188 99.875 C 210.847656 99.832031 211.417969 99.953125 211.949219 100.246094 C 212.480469 100.535156 212.894531 100.949219 213.183594 101.484375 C 213.3125 101.773438 213.386719 102.074219 213.402344 102.394531 C 213.421875 102.710938 213.378906 103.019531 213.277344 103.320312 C 213.175781 103.621094 213.027344 103.894531 212.824219 104.140625 C 212.621094 104.382812 212.378906 104.582031 212.101562 104.734375 C 208.253906 107.097656 204.089844 108.558594 199.613281 109.121094 L 199.445312 109.25 C 196.082031 109.613281 192.722656 109.566406 189.371094 109.109375 C 185.496094 108.574219 181.847656 107.363281 178.421875 105.472656 C 176.226562 104.292969 174.183594 102.886719 172.296875 101.257812 C 172.152344 101.078125 172.03125 100.882812 171.933594 100.675781 C 171.835938 100.464844 171.769531 100.246094 171.730469 100.019531 C 171.691406 99.792969 171.679688 99.5625 171.699219 99.332031 C 171.722656 99.101562 171.769531 98.878906 171.847656 98.660156 C 171.925781 98.445312 172.03125 98.242188 172.164062 98.050781 C 172.296875 97.863281 172.449219 97.691406 172.625 97.542969 C 172.800781 97.390625 172.992188 97.269531 173.203125 97.167969 C 173.410156 97.070312 173.628906 96.996094 173.855469 96.953125 Z M 173.855469 96.953125 " fill-opacity="1" fill-rule="nonzero"/><path fill="#ffffff" d="M 305.238281 84.167969 C 305.097656 83.8125 304.90625 83.484375 304.667969 83.183594 C 304.429688 82.882812 304.152344 82.621094 303.835938 82.40625 C 303.519531 82.1875 303.179688 82.019531 302.8125 81.902344 C 302.449219 81.785156 302.074219 81.722656 301.6875 81.714844 C 296.242188 81.914062 290.820312 82.453125 285.386719 82.808594 C 284.929688 82.867188 284.492188 83.003906 284.085938 83.21875 C 283.675781 83.429688 283.3125 83.707031 283 84.042969 C 282.6875 84.382812 282.441406 84.765625 282.265625 85.191406 C 282.085938 85.617188 281.984375 86.0625 281.964844 86.523438 C 282.066406 87.472656 282.390625 88.335938 282.933594 89.121094 C 283.476562 89.902344 284.171875 90.511719 285.023438 90.941406 C 284.007812 91.722656 282.953125 92.449219 281.902344 93.179688 C 278.164062 95.609375 274.59375 98.277344 270.894531 100.761719 C 269.265625 101.894531 267.703125 103.121094 265.976562 104.097656 C 265.445312 104.460938 264.90625 103.957031 264.4375 103.742188 C 261.6875 102.3125 258.984375 100.800781 256.285156 99.277344 C 255.808594 98.992188 255.296875 98.863281 254.742188 98.886719 C 254.1875 98.914062 253.6875 99.089844 253.242188 99.417969 C 249.722656 101.816406 246.242188 104.273438 242.804688 106.789062 C 240.597656 108.390625 238.34375 109.921875 236.210938 111.625 C 235.6875 112.007812 235.269531 112.484375 234.957031 113.050781 C 234.640625 113.617188 234.460938 114.226562 234.414062 114.875 C 234.382812 115.371094 234.433594 115.863281 234.5625 116.34375 C 234.6875 116.824219 234.890625 117.273438 235.164062 117.691406 C 235.441406 118.105469 235.773438 118.46875 236.167969 118.777344 C 236.558594 119.082031 236.992188 119.320312 237.460938 119.484375 C 238.105469 119.683594 238.757812 119.738281 239.421875 119.644531 C 240.089844 119.550781 240.703125 119.324219 241.269531 118.957031 C 243.109375 117.875 244.804688 116.574219 246.550781 115.355469 C 249.183594 113.402344 251.910156 111.585938 254.582031 109.691406 C 254.921875 109.503906 255.277344 109.089844 255.707031 109.304688 C 257.964844 110.410156 260.105469 111.734375 262.34375 112.882812 C 263.578125 113.730469 264.9375 114.183594 266.433594 114.25 C 267.316406 114.140625 268.109375 113.808594 268.808594 113.257812 C 276.082031 108.25 283.3125 103.179688 290.660156 98.277344 C 290.785156 99.265625 291.121094 100.179688 291.667969 101.015625 C 292.21875 101.851562 292.921875 102.527344 293.78125 103.035156 C 294.253906 103.234375 294.746094 103.339844 295.261719 103.347656 C 295.773438 103.351562 296.269531 103.261719 296.746094 103.074219 C 297.226562 102.886719 297.652344 102.617188 298.023438 102.261719 C 298.394531 101.90625 298.6875 101.496094 298.898438 101.027344 C 300.949219 96.523438 302.878906 91.96875 304.910156 87.457031 C 305.363281 86.394531 305.472656 85.300781 305.238281 84.167969 Z M 305.238281 84.167969 " fill-opacity="1" fill-rule="nonzero"/><path fill="#ffffff" d="M 81.351562 87.335938 C 82.707031 88.539062 84.125 89.65625 85.613281 90.691406 C 85.820312 90.753906 86.027344 90.792969 86.242188 90.804688 C 86.457031 90.816406 86.671875 90.800781 86.882812 90.757812 C 87.09375 90.71875 87.296875 90.652344 87.492188 90.5625 C 87.6875 90.472656 87.867188 90.359375 88.035156 90.226562 C 88.203125 90.089844 88.351562 89.9375 88.484375 89.765625 C 88.613281 89.59375 88.71875 89.410156 88.804688 89.210938 C 88.890625 89.015625 88.949219 88.808594 88.984375 88.597656 C 89.019531 88.382812 89.027344 88.171875 89.007812 87.957031 C 88.898438 86.960938 88.003906 86.347656 87.335938 85.707031 C 86.070312 84.664062 84.886719 83.519531 83.558594 82.566406 C 83.179688 82.277344 82.757812 82.097656 82.289062 82.023438 C 81.816406 81.949219 81.359375 81.988281 80.910156 82.140625 C 80.644531 82.25 80.398438 82.398438 80.179688 82.585938 C 79.960938 82.773438 79.773438 82.992188 79.625 83.238281 C 79.472656 83.484375 79.363281 83.746094 79.296875 84.027344 C 79.230469 84.308594 79.210938 84.59375 79.234375 84.882812 C 79.683594 85.921875 80.386719 86.742188 81.351562 87.335938 Z M 81.351562 87.335938 " fill-opacity="1" fill-rule="nonzero"/><path fill="#ffffff" d="M 145.898438 90.578125 C 147.5 89.558594 148.984375 88.390625 150.351562 87.070312 C 151.015625 86.445312 151.957031 85.863281 151.996094 84.851562 C 152.019531 84.628906 152.015625 84.410156 151.980469 84.191406 C 151.949219 83.972656 151.886719 83.765625 151.800781 83.5625 C 151.710938 83.359375 151.601562 83.167969 151.464844 82.996094 C 151.328125 82.820312 151.175781 82.664062 151 82.53125 C 150.824219 82.394531 150.632812 82.285156 150.429688 82.199219 C 150.226562 82.113281 150.015625 82.054688 149.796875 82.023438 C 149.578125 81.988281 149.359375 81.984375 149.140625 82.007812 C 148.921875 82.03125 148.707031 82.082031 148.5 82.160156 C 147.273438 82.882812 146.164062 83.753906 145.175781 84.78125 C 144.164062 85.683594 142.886719 86.523438 142.578125 87.9375 C 142.570312 88.144531 142.585938 88.347656 142.625 88.550781 C 142.664062 88.753906 142.726562 88.949219 142.8125 89.136719 C 142.898438 89.324219 143.003906 89.5 143.132812 89.664062 C 143.261719 89.828125 143.40625 89.972656 143.566406 90.101562 C 143.726562 90.230469 143.902344 90.339844 144.089844 90.425781 C 144.277344 90.515625 144.472656 90.578125 144.675781 90.621094 C 144.878906 90.660156 145.082031 90.679688 145.289062 90.671875 C 145.496094 90.664062 145.699219 90.632812 145.898438 90.578125 Z M 145.898438 90.578125 " fill-opacity="1" fill-rule="nonzero"/><path fill="#ffffff" d="M 102.773438 149.523438 C 104.445312 149.523438 106.117188 149.566406 107.789062 149.5 C 107.535156 145.351562 107.050781 141.222656 106.601562 137.09375 C 106.605469 136.703125 106.183594 136.570312 105.914062 136.398438 C 102.371094 134.609375 99.414062 132.121094 97.039062 128.941406 C 96.410156 128.09375 95.84375 127.210938 95.335938 126.285156 C 94.828125 125.363281 94.382812 124.40625 94.003906 123.425781 C 93.625 122.441406 93.3125 121.4375 93.070312 120.410156 C 92.824219 119.382812 92.652344 118.347656 92.546875 117.296875 C 92.445312 116.246094 92.414062 115.195312 92.449219 114.140625 C 92.488281 113.089844 92.597656 112.042969 92.777344 111.003906 C 92.957031 109.964844 93.207031 108.941406 93.523438 107.9375 C 93.84375 106.933594 94.226562 105.953125 94.675781 105 C 95.707031 102.894531 97.015625 100.988281 98.609375 99.269531 C 100.203125 97.554688 102.007812 96.105469 104.027344 94.921875 C 106.476562 93.40625 109.125 92.429688 111.972656 91.996094 C 113.660156 91.691406 115.363281 91.578125 117.082031 91.65625 C 118.796875 91.734375 120.484375 92 122.140625 92.453125 C 123.796875 92.90625 125.382812 93.539062 126.894531 94.347656 C 128.410156 95.15625 129.820312 96.121094 131.117188 97.246094 C 132.308594 98.226562 133.386719 99.316406 134.355469 100.519531 C 135.324219 101.71875 136.160156 103.007812 136.863281 104.378906 C 137.570312 105.75 138.128906 107.179688 138.542969 108.664062 C 138.957031 110.152344 139.21875 111.664062 139.324219 113.203125 C 139.519531 115.617188 139.339844 118.003906 138.789062 120.363281 C 138.242188 122.71875 137.34375 124.9375 136.101562 127.015625 C 134.816406 129.191406 133.222656 131.113281 131.324219 132.78125 C 129.425781 134.449219 127.316406 135.78125 124.992188 136.777344 C 124.605469 141.019531 124.09375 145.253906 123.90625 149.507812 C 125.722656 149.507812 127.546875 149.574219 129.363281 149.496094 C 130.335938 149.449219 130.699219 148.402344 130.917969 147.613281 C 131.359375 145.742188 131.578125 143.816406 132.148438 141.972656 C 132.210938 141.613281 132.59375 141.472656 132.839844 141.257812 C 136.886719 138.578125 140.183594 135.167969 142.722656 131.03125 C 144.273438 128.375 145.414062 125.550781 146.152344 122.566406 C 146.890625 119.578125 147.195312 116.550781 147.0625 113.476562 C 147.003906 112.386719 146.890625 111.304688 146.71875 110.230469 C 146.546875 109.152344 146.320312 108.089844 146.039062 107.035156 C 145.757812 105.984375 145.421875 104.949219 145.03125 103.929688 C 144.640625 102.914062 144.199219 101.917969 143.703125 100.949219 C 143.207031 99.976562 142.664062 99.035156 142.070312 98.121094 C 141.480469 97.207031 140.839844 96.324219 140.15625 95.476562 C 139.46875 94.628906 138.742188 93.820312 137.972656 93.050781 C 137.203125 92.277344 136.394531 91.546875 135.550781 90.863281 C 134.703125 90.175781 133.824219 89.535156 132.910156 88.9375 C 132 88.34375 131.058594 87.796875 130.085938 87.300781 C 129.117188 86.804688 128.125 86.359375 127.109375 85.964844 C 126.089844 85.574219 125.058594 85.234375 124.003906 84.949219 C 122.953125 84.664062 121.890625 84.4375 120.8125 84.261719 C 119.738281 84.089844 118.65625 83.972656 117.566406 83.910156 C 116.480469 83.851562 115.390625 83.847656 114.304688 83.902344 C 113.214844 83.953125 112.132812 84.066406 111.054688 84.230469 C 106.527344 84.988281 102.34375 86.621094 98.5 89.132812 C 95.625 91.128906 93.136719 93.523438 91.035156 96.324219 C 88.9375 99.125 87.335938 102.1875 86.230469 105.507812 C 84.996094 109.785156 84.578125 114.140625 84.980469 118.574219 C 85.441406 122.226562 86.472656 125.707031 88.082031 129.019531 C 89.667969 132.101562 91.683594 134.875 94.117188 137.339844 C 95.773438 139.011719 97.746094 140.320312 99.546875 141.824219 C 100.195312 143.96875 100.4375 146.226562 101.214844 148.339844 C 101.488281 148.949219 102.023438 149.625 102.773438 149.523438 Z M 102.773438 149.523438 " fill-opacity="1" fill-rule="nonzero"/><path fill="#ffffff" d="M 128.082031 127.558594 C 128.582031 127.074219 129.046875 126.566406 129.484375 126.027344 C 129.921875 125.488281 130.324219 124.925781 130.691406 124.335938 C 131.0625 123.75 131.394531 123.144531 131.691406 122.515625 C 131.988281 121.890625 132.246094 121.246094 132.464844 120.589844 C 132.683594 119.933594 132.863281 119.261719 133.003906 118.585938 C 133.140625 117.90625 133.238281 117.21875 133.296875 116.527344 C 133.355469 115.839844 133.371094 115.144531 133.34375 114.453125 C 133.316406 113.761719 133.25 113.070312 133.140625 112.386719 C 133.035156 111.703125 132.886719 111.027344 132.695312 110.359375 C 132.507812 109.691406 132.277344 109.039062 132.007812 108.398438 C 131.742188 107.757812 131.4375 107.136719 131.09375 106.535156 C 130.753906 105.933594 130.375 105.351562 129.964844 104.792969 C 129.550781 104.234375 129.109375 103.703125 128.632812 103.199219 C 128.15625 102.695312 127.652344 102.222656 127.121094 101.777344 C 126.589844 101.332031 126.03125 100.921875 125.449219 100.542969 C 124.867188 100.167969 124.265625 99.824219 123.644531 99.519531 C 121.832031 98.632812 119.921875 98.070312 117.917969 97.835938 C 115.914062 97.597656 113.925781 97.699219 111.957031 98.140625 C 110.609375 98.457031 109.316406 98.929688 108.082031 99.554688 C 106.847656 100.179688 105.703125 100.941406 104.652344 101.84375 C 103.601562 102.746094 102.671875 103.757812 101.863281 104.882812 C 101.054688 106.003906 100.390625 107.207031 99.871094 108.492188 C 99.011719 110.691406 98.605469 112.972656 98.664062 115.335938 C 98.71875 117.695312 99.230469 119.953125 100.199219 122.109375 C 101.335938 124.429688 102.84375 126.46875 104.730469 128.230469 C 106.613281 129.996094 108.75 131.367188 111.140625 132.34375 C 111.21875 132.492188 111.375 132.796875 111.457031 132.949219 C 111.945312 135.882812 111.992188 138.867188 112.292969 141.816406 C 112.417969 144.386719 112.394531 146.960938 112.640625 149.519531 C 114.847656 149.503906 117.050781 149.558594 119.25 149.488281 C 119.269531 146.171875 119.453125 142.863281 119.636719 139.554688 C 119.769531 137.117188 120.042969 134.695312 120.464844 132.289062 C 123.277344 131.152344 125.816406 129.578125 128.082031 127.558594 Z M 128.082031 127.558594 " fill-opacity="1" fill-rule="nonzero"/><path fill="#ffffff" d="M 79.539062 112.390625 C 79.382812 111.914062 79.101562 111.53125 78.691406 111.242188 C 78.285156 110.953125 77.832031 110.8125 77.332031 110.820312 C 75.59375 110.8125 73.859375 110.8125 72.125 110.816406 C 71.851562 110.796875 71.578125 110.828125 71.3125 110.90625 C 71.046875 110.984375 70.800781 111.105469 70.578125 111.269531 C 70.355469 111.433594 70.167969 111.632812 70.015625 111.867188 C 69.867188 112.097656 69.757812 112.347656 69.695312 112.617188 C 69.648438 112.933594 69.65625 113.246094 69.71875 113.558594 C 69.78125 113.871094 69.894531 114.164062 70.058594 114.433594 C 70.226562 114.707031 70.433594 114.941406 70.683594 115.140625 C 70.929688 115.339844 71.207031 115.488281 71.507812 115.589844 C 73.742188 115.589844 75.980469 115.609375 78.214844 115.609375 C 78.488281 115.453125 78.730469 115.253906 78.9375 115.019531 C 79.144531 114.78125 79.308594 114.515625 79.429688 114.226562 C 79.550781 113.933594 79.617188 113.632812 79.636719 113.316406 C 79.65625 113.003906 79.625 112.695312 79.539062 112.390625 Z M 79.539062 112.390625 " fill-opacity="1" fill-rule="nonzero"/><path fill="#ffffff" d="M 294.726562 117.566406 C 293.953125 117.074219 293.105469 116.816406 292.183594 116.789062 C 291.265625 116.765625 290.402344 116.976562 289.601562 117.425781 C 288.484375 118.121094 287.707031 119.085938 287.265625 120.320312 C 287.003906 121.945312 286.917969 123.578125 287.007812 125.21875 C 287.027344 132.867188 286.992188 140.511719 287.007812 148.15625 C 287.195312 149.042969 287.527344 149.871094 288.003906 150.640625 C 288.480469 151.324219 289.09375 151.855469 289.839844 152.230469 C 290.585938 152.605469 291.378906 152.78125 292.214844 152.757812 C 292.871094 152.699219 293.5 152.527344 294.09375 152.242188 C 294.6875 151.957031 295.214844 151.578125 295.671875 151.101562 C 296.128906 150.625 296.484375 150.082031 296.742188 149.476562 C 297.003906 148.867188 297.148438 148.234375 297.175781 147.574219 C 297.179688 139.066406 297.210938 130.558594 297.15625 122.050781 C 297.160156 121.144531 296.941406 120.296875 296.511719 119.5 C 296.082031 118.707031 295.488281 118.0625 294.726562 117.566406 Z M 294.726562 117.566406 " fill-opacity="1" fill-rule="nonzero"/><path fill="#ffffff" d="M 265.5625 152.183594 C 266.691406 152.707031 267.855469 152.820312 269.0625 152.527344 C 269.664062 152.363281 270.21875 152.109375 270.734375 151.757812 C 271.246094 151.40625 271.6875 150.980469 272.058594 150.480469 C 272.425781 149.980469 272.703125 149.433594 272.886719 148.839844 C 273.070312 148.246094 273.152344 147.636719 273.132812 147.015625 C 273.058594 142.230469 273.148438 137.445312 273.105469 132.660156 C 273.054688 132.300781 272.96875 131.949219 272.847656 131.609375 C 272.722656 131.265625 272.570312 130.941406 272.386719 130.628906 C 272.199219 130.316406 271.988281 130.027344 271.742188 129.757812 C 271.5 129.488281 271.234375 129.246094 270.945312 129.027344 C 270.652344 128.8125 270.34375 128.625 270.019531 128.46875 C 269.691406 128.3125 269.351562 128.191406 269 128.101562 C 268.648438 128.011719 268.292969 127.957031 267.929688 127.9375 C 267.570312 127.917969 267.210938 127.933594 266.851562 127.984375 C 266.246094 128.109375 265.679688 128.332031 265.15625 128.652344 C 264.628906 128.972656 264.171875 129.375 263.785156 129.855469 C 263.398438 130.335938 263.105469 130.867188 262.90625 131.453125 C 262.707031 132.035156 262.609375 132.636719 262.621094 133.253906 C 262.640625 137.933594 262.601562 142.613281 262.609375 147.292969 C 262.613281 147.796875 262.679688 148.289062 262.816406 148.773438 C 262.953125 149.257812 263.152344 149.714844 263.414062 150.144531 C 263.671875 150.574219 263.984375 150.964844 264.351562 151.308594 C 264.714844 151.65625 265.121094 151.945312 265.5625 152.183594 Z M 265.5625 152.183594 " fill-opacity="1" fill-rule="nonzero"/><path fill="#ffffff" d="M 244.394531 132.683594 C 244.035156 132.617188 243.675781 132.585938 243.3125 132.597656 C 242.949219 132.605469 242.59375 132.652344 242.238281 132.734375 C 241.886719 132.820312 241.542969 132.9375 241.214844 133.09375 C 240.886719 133.25 240.578125 133.4375 240.289062 133.65625 C 239.996094 133.875 239.734375 134.121094 239.496094 134.394531 C 239.257812 134.667969 239.050781 134.964844 238.871094 135.28125 C 238.695312 135.597656 238.554688 135.929688 238.445312 136.277344 C 238.335938 136.625 238.265625 136.980469 238.234375 137.339844 C 238.179688 140.65625 238.21875 143.976562 238.214844 147.292969 C 238.222656 147.644531 238.261719 147.992188 238.332031 148.335938 C 238.402344 148.679688 238.503906 149.015625 238.640625 149.339844 C 238.773438 149.664062 238.9375 149.972656 239.128906 150.269531 C 239.320312 150.5625 239.539062 150.835938 239.785156 151.089844 C 240.027344 151.34375 240.292969 151.570312 240.578125 151.777344 C 240.867188 151.980469 241.167969 152.15625 241.488281 152.300781 C 241.808594 152.449219 242.136719 152.5625 242.480469 152.648438 C 242.820312 152.734375 243.167969 152.785156 243.515625 152.804688 C 244.160156 152.777344 244.777344 152.640625 245.375 152.398438 C 245.96875 152.15625 246.503906 151.820312 246.984375 151.390625 C 247.464844 150.964844 247.855469 150.46875 248.164062 149.902344 C 248.46875 149.335938 248.671875 148.738281 248.769531 148.101562 C 248.832031 144.964844 248.769531 141.824219 248.789062 138.6875 C 248.828125 138.007812 248.75 137.34375 248.558594 136.691406 C 248.367188 136.042969 248.070312 135.441406 247.667969 134.894531 C 247.269531 134.347656 246.785156 133.882812 246.222656 133.503906 C 245.660156 133.125 245.050781 132.851562 244.394531 132.683594 Z M 244.394531 132.683594 " fill-opacity="1" fill-rule="nonzero"/><path fill="#ffffff" d="M 84.359375 135.824219 C 83.082031 136.15625 82.25 137.289062 81.207031 138.027344 C 80.207031 138.890625 78.8125 139.769531 78.816406 141.246094 C 78.644531 142.914062 80.746094 144.566406 82.261719 143.613281 C 83.542969 142.71875 84.78125 141.765625 85.96875 140.746094 C 86.554688 140.367188 86.996094 139.859375 87.285156 139.222656 C 87.347656 139.007812 87.382812 138.789062 87.394531 138.566406 C 87.402344 138.34375 87.382812 138.121094 87.339844 137.902344 C 87.292969 137.683594 87.21875 137.476562 87.121094 137.277344 C 87.019531 137.074219 86.898438 136.890625 86.753906 136.722656 C 86.605469 136.550781 86.441406 136.402344 86.257812 136.277344 C 86.078125 136.148438 85.878906 136.042969 85.671875 135.964844 C 85.460938 135.886719 85.246094 135.835938 85.023438 135.8125 C 84.804688 135.789062 84.582031 135.792969 84.359375 135.824219 Z M 84.359375 135.824219 " fill-opacity="1" fill-rule="nonzero"/><path fill="#ffffff" d="M 148.6875 136.328125 C 148.507812 136.199219 148.316406 136.097656 148.109375 136.015625 C 147.902344 135.9375 147.6875 135.886719 147.46875 135.863281 C 147.25 135.839844 147.03125 135.84375 146.8125 135.878906 C 146.59375 135.914062 146.382812 135.976562 146.179688 136.066406 C 145.976562 136.15625 145.789062 136.269531 145.617188 136.410156 C 145.445312 136.546875 145.292969 136.707031 145.164062 136.882812 C 145.03125 137.0625 144.925781 137.253906 144.847656 137.460938 C 144.765625 137.667969 144.714844 137.882812 144.691406 138.101562 C 144.40625 139.308594 145.390625 140.195312 146.199219 140.910156 C 147.398438 142.023438 148.675781 143.035156 150.03125 143.945312 C 150.449219 143.957031 150.871094 143.96875 151.296875 143.980469 C 152.636719 143.441406 153.878906 141.804688 153.03125 140.378906 C 151.800781 138.792969 150.355469 137.445312 148.6875 136.328125 Z M 148.6875 136.328125 " fill-opacity="1" fill-rule="nonzero"/><path fill="#ffffff" d="M 123.878906 170.609375 C 125.191406 170.726562 126.484375 170.632812 127.765625 170.316406 C 128.203125 170.0625 128.554688 169.71875 128.820312 169.285156 C 129.085938 168.855469 129.234375 168.386719 129.261719 167.878906 C 129.296875 164.449219 129.28125 161.015625 129.285156 157.585938 C 129.289062 156.875 128.542969 156.492188 128.101562 156.050781 C 120.140625 156.050781 112.1875 156.050781 104.230469 156.058594 C 103.980469 156.035156 103.738281 156.066406 103.5 156.148438 C 103.261719 156.234375 103.054688 156.363281 102.875 156.539062 C 102.695312 156.714844 102.5625 156.921875 102.472656 157.15625 C 102.382812 157.390625 102.347656 157.636719 102.367188 157.886719 C 102.398438 161.140625 102.367188 164.398438 102.390625 167.652344 C 102.417969 168.1875 102.574219 168.683594 102.855469 169.140625 C 103.140625 169.597656 103.515625 169.957031 103.980469 170.222656 C 105.167969 170.65625 106.390625 170.800781 107.644531 170.648438 C 107.921875 171.6875 108.394531 172.621094 109.066406 173.460938 C 109.738281 174.296875 110.546875 174.964844 111.496094 175.460938 C 112.503906 175.960938 113.566406 176.285156 114.6875 176.425781 C 115.804688 176.566406 116.914062 176.523438 118.015625 176.289062 C 119.46875 175.859375 120.753906 175.128906 121.863281 174.101562 C 122.796875 173.085938 123.46875 171.921875 123.878906 170.609375 Z M 123.878906 170.609375 " fill-opacity="1" fill-rule="nonzero"/><path fill="#ffffff" d="M 207.230469 167.488281 C 208.464844 166.246094 209.425781 164.816406 210.109375 163.203125 C 210.792969 161.59375 211.152344 159.910156 211.1875 158.160156 C 211.082031 157.769531 210.992188 157.375 210.910156 156.984375 L 210.53125 156.222656 C 210.222656 156.355469 209.933594 156.523438 209.667969 156.726562 C 207.292969 158.65625 204.675781 160.148438 201.808594 161.210938 C 197.359375 162.699219 192.820312 163.070312 188.191406 162.332031 C 185.832031 162.019531 183.574219 161.363281 181.414062 160.371094 C 179.253906 159.375 177.289062 158.082031 175.519531 156.492188 C 175.34375 156.265625 175.121094 156.195312 174.847656 156.285156 C 174.332031 157.035156 174.121094 157.863281 174.207031 158.765625 C 174.265625 160.113281 174.542969 161.414062 175.042969 162.667969 C 175.542969 163.917969 176.238281 165.054688 177.121094 166.074219 C 179.566406 169.144531 182.566406 171.515625 186.125 173.175781 C 186.21875 173.84375 185.582031 174.421875 185.371094 175.050781 C 185.015625 175.746094 184.757812 176.480469 184.597656 177.25 C 184.441406 178.015625 184.386719 178.792969 184.4375 179.574219 C 184.488281 180.355469 184.644531 181.117188 184.902344 181.859375 C 185.15625 182.597656 185.507812 183.292969 185.953125 183.9375 C 186.25 184.347656 186.582031 184.726562 186.945312 185.078125 C 187.308594 185.429688 187.703125 185.746094 188.121094 186.027344 C 188.542969 186.3125 188.984375 186.554688 189.449219 186.757812 C 189.910156 186.960938 190.386719 187.121094 190.878906 187.242188 C 191.371094 187.359375 191.871094 187.4375 192.375 187.46875 C 192.878906 187.5 193.382812 187.484375 193.886719 187.425781 C 194.390625 187.371094 194.882812 187.269531 195.367188 187.121094 C 195.851562 186.976562 196.320312 186.792969 196.773438 186.5625 C 197.460938 186.214844 198.085938 185.78125 198.652344 185.257812 C 199.21875 184.734375 199.699219 184.144531 200.101562 183.484375 C 200.5 182.828125 200.800781 182.125 201.003906 181.382812 C 201.207031 180.640625 201.304688 179.882812 201.292969 179.113281 C 201.300781 178.046875 201.121094 177.011719 200.757812 176.007812 C 200.398438 175.003906 199.875 174.09375 199.191406 173.277344 C 202.226562 171.84375 204.90625 169.914062 207.230469 167.488281 Z M 207.230469 167.488281 " fill-opacity="1" fill-rule="nonzero"/><path fill="#ffffff" d="M 221.527344 233.101562 C 221.886719 232.167969 222.1875 231.222656 222.4375 230.257812 C 222.785156 229.261719 223.199219 228.292969 223.675781 227.355469 C 224.15625 226.417969 224.699219 225.515625 225.300781 224.648438 C 225.902344 223.785156 226.5625 222.964844 227.273438 222.1875 C 227.988281 221.414062 228.753906 220.691406 229.566406 220.019531 C 230.378906 219.347656 231.234375 218.734375 232.128906 218.179688 C 233.027344 217.625 233.957031 217.132812 234.917969 216.707031 C 235.882812 216.277344 236.871094 215.917969 237.882812 215.625 C 238.894531 215.332031 239.925781 215.109375 240.96875 214.953125 C 242.09375 214.753906 243.230469 214.675781 244.375 214.71875 C 247.523438 214.726562 250.671875 214.714844 253.824219 214.726562 C 256.722656 214.800781 259.5 215.425781 262.152344 216.597656 C 262.46875 216.691406 262.792969 216.777344 263.117188 216.863281 C 263.175781 213.0625 263.140625 209.265625 263.191406 205.46875 C 263.261719 203.753906 263.191406 202.042969 262.976562 200.335938 C 262.59375 197.140625 261.800781 194.050781 260.601562 191.0625 C 259.402344 188.078125 257.839844 185.296875 255.90625 182.722656 C 253.664062 179.785156 251.003906 177.289062 247.925781 175.238281 C 245 173.386719 241.921875 171.847656 238.6875 170.617188 C 233.035156 168.207031 227.347656 165.894531 221.699219 163.472656 C 221.457031 163.335938 221.203125 163.246094 220.925781 163.203125 C 220.652344 163.160156 220.382812 163.164062 220.109375 163.21875 C 219.835938 163.273438 219.582031 163.371094 219.347656 163.515625 C 219.109375 163.660156 218.90625 163.839844 218.734375 164.058594 C 218.035156 165.460938 217.511719 166.921875 217.160156 168.445312 C 216.019531 172.605469 214.722656 176.71875 213.464844 180.84375 C 209.972656 192.648438 206.292969 204.398438 202.921875 216.238281 C 202.375 218.0625 202.019531 219.949219 201.375 221.746094 C 201.09375 220.53125 200.886719 219.308594 200.75 218.070312 C 199.9375 212.230469 199.132812 206.394531 198.578125 200.527344 L 198.457031 200.363281 C 198.324219 198.28125 197.871094 196.234375 197.6875 194.160156 C 194.410156 194.265625 191.132812 194.125 187.855469 194.1875 C 186.71875 201.449219 186.078125 208.777344 185.03125 216.050781 C 184.9375 216.8125 184.886719 217.578125 184.738281 218.335938 C 184.644531 219.4375 184.488281 220.53125 184.273438 221.613281 C 182.617188 215.816406 180.785156 210.066406 179.0625 204.289062 C 178.085938 200.636719 176.859375 197.054688 175.945312 193.386719 L 175.828125 193.207031 C 174.855469 189.710938 173.800781 186.242188 172.769531 182.765625 L 172.667969 182.601562 C 171.242188 177.0625 169.445312 171.625 167.886719 166.117188 C 167.804688 165.511719 167.589844 164.960938 167.246094 164.457031 C 166.902344 163.953125 166.464844 163.554688 165.933594 163.257812 C 164.625 163.113281 163.402344 163.371094 162.261719 164.03125 C 157.371094 166.121094 152.429688 168.085938 147.582031 170.277344 C 144.855469 171.375 142.199219 172.625 139.613281 174.027344 C 137.28125 175.421875 135.132812 177.0625 133.175781 178.949219 C 131.214844 180.832031 129.492188 182.917969 128.007812 185.195312 C 126.523438 187.472656 125.316406 189.890625 124.382812 192.445312 C 123.453125 195 122.820312 197.628906 122.488281 200.328125 C 122.40625 201.863281 121.945312 203.347656 121.832031 204.882812 C 121.65625 214.246094 121.886719 223.617188 121.703125 232.980469 C 121.929688 234.703125 121.550781 236.4375 121.679688 238.167969 C 121.761719 239.023438 121.785156 239.882812 121.746094 240.742188 C 121.804688 250.582031 121.742188 260.429688 121.773438 270.269531 L 121.65625 270.460938 C 121.703125 275.730469 121.546875 281.007812 121.777344 286.273438 C 121.742188 287.363281 121.851562 288.433594 122.113281 289.492188 C 122.378906 290.546875 122.78125 291.546875 123.324219 292.488281 C 123.867188 293.433594 124.53125 294.285156 125.3125 295.042969 C 126.09375 295.796875 126.964844 296.433594 127.925781 296.945312 C 129.488281 297.726562 131.144531 298.109375 132.890625 298.097656 C 136.820312 298.085938 140.75 298.101562 144.683594 298.085938 C 145.003906 298.101562 145.316406 298.054688 145.617188 297.941406 C 145.921875 297.832031 146.1875 297.664062 146.421875 297.441406 C 146.652344 297.21875 146.832031 296.957031 146.960938 296.660156 C 147.085938 296.367188 147.148438 296.054688 147.144531 295.734375 C 147.132812 287.417969 147.222656 279.101562 147.148438 270.785156 C 147.101562 270.210938 147.144531 269.648438 147.277344 269.089844 C 147.109375 267.539062 147.078125 265.988281 147.1875 264.433594 L 147.394531 264.210938 L 147.183594 263.992188 C 147.09375 262.25 147.117188 260.507812 147.25 258.769531 C 147.167969 258.398438 147.167969 258.03125 147.253906 257.664062 C 147.386719 256.683594 147.332031 255.714844 147.082031 254.757812 C 147.421875 254.363281 147.238281 253.796875 147.292969 253.328125 C 147.222656 250.078125 147.402344 246.820312 147.1875 243.582031 C 147.347656 241.386719 147.34375 239.195312 147.175781 237.007812 C 147.191406 236.328125 147.242188 235.652344 147.242188 234.976562 C 147.277344 234.207031 147.1875 233.441406 147.171875 232.671875 C 147.414062 230.402344 147.21875 228.101562 147.285156 225.820312 C 147.074219 223.996094 147.148438 222.1875 147.507812 220.390625 C 147.972656 219.515625 148.617188 218.796875 149.441406 218.246094 C 150.414062 217.863281 151.414062 217.769531 152.441406 217.964844 C 153.230469 218.234375 153.890625 218.691406 154.425781 219.335938 C 154.957031 219.980469 155.285156 220.71875 155.402344 221.546875 C 155.429688 246.171875 155.371094 270.800781 155.402344 295.429688 C 155.375 295.792969 155.425781 296.144531 155.554688 296.484375 C 155.679688 296.824219 155.875 297.121094 156.132812 297.378906 C 156.390625 297.632812 156.691406 297.824219 157.035156 297.945312 C 157.375 298.066406 157.730469 298.113281 158.089844 298.082031 C 170.050781 298.09375 182.011719 298.0625 193.96875 298.078125 C 194.273438 298.113281 194.566406 298.085938 194.859375 297.996094 C 195.148438 297.910156 195.410156 297.765625 195.640625 297.570312 C 195.875 297.375 196.058594 297.140625 196.191406 296.867188 C 196.328125 296.59375 196.402344 296.304688 196.417969 296.003906 C 196.4375 282.429688 196.449219 268.851562 196.449219 255.273438 L 196.566406 255.082031 C 196.332031 251.902344 196.773438 248.824219 197.886719 245.839844 C 198.394531 244.578125 199.019531 243.378906 199.761719 242.242188 C 200.507812 241.101562 201.355469 240.050781 202.304688 239.078125 C 203.257812 238.109375 204.296875 237.242188 205.417969 236.476562 C 206.542969 235.710938 207.730469 235.0625 208.980469 234.53125 C 213.035156 232.9375 217.21875 232.460938 221.527344 233.101562 Z M 221.527344 233.101562 " fill-opacity="1" fill-rule="nonzero"/><path fill="#ffffff" d="M 284.496094 241.988281 C 278.816406 242.074219 273.136719 241.976562 267.453125 242.042969 C 267.609375 239.148438 267.484375 236.265625 267.078125 233.398438 C 266.433594 231.046875 265.238281 229.019531 263.496094 227.320312 C 262.46875 226.195312 261.269531 225.3125 259.890625 224.667969 C 258.511719 224.023438 257.066406 223.671875 255.546875 223.609375 C 251.242188 223.597656 246.9375 223.597656 242.632812 223.609375 C 240.253906 223.59375 238.066406 224.230469 236.066406 225.515625 C 234.671875 226.484375 233.480469 227.664062 232.496094 229.046875 C 231.507812 230.429688 230.785156 231.941406 230.320312 233.574219 C 229.992188 236.386719 229.859375 239.203125 229.914062 242.03125 C 225.660156 242.007812 221.402344 242.003906 217.148438 242.019531 C 215.65625 241.910156 214.179688 242.03125 212.726562 242.375 C 212.160156 242.546875 211.613281 242.765625 211.082031 243.03125 C 210.550781 243.292969 210.046875 243.59375 209.5625 243.9375 C 209.082031 244.28125 208.628906 244.660156 208.207031 245.074219 C 207.785156 245.492188 207.398438 245.9375 207.050781 246.414062 C 206.699219 246.890625 206.386719 247.390625 206.117188 247.917969 C 205.847656 248.445312 205.621094 248.988281 205.433594 249.550781 C 205.25 250.113281 205.113281 250.6875 205.019531 251.273438 C 204.929688 251.855469 204.882812 252.445312 204.882812 253.035156 C 204.859375 259.234375 204.925781 265.429688 204.902344 271.625 C 205.238281 271.652344 205.582031 271.691406 205.925781 271.703125 C 210.425781 271.476562 214.933594 271.617188 219.441406 271.578125 C 226.273438 271.554688 233.101562 271.613281 239.933594 271.5625 C 239.835938 270.632812 240.007812 269.753906 240.445312 268.925781 C 240.828125 268.300781 241.34375 267.816406 241.992188 267.476562 C 242.644531 267.140625 243.335938 266.992188 244.066406 267.035156 C 247.523438 267.058594 250.984375 267.015625 254.4375 267.03125 C 254.957031 267.121094 255.4375 267.304688 255.882812 267.585938 C 256.328125 267.863281 256.703125 268.21875 257.007812 268.648438 C 257.3125 269.074219 257.527344 269.546875 257.644531 270.058594 C 257.761719 270.570312 257.777344 271.085938 257.691406 271.605469 C 270.101562 271.558594 282.515625 271.550781 294.929688 271.585938 C 294.976562 265.5 294.917969 259.414062 294.9375 253.328125 C 294.984375 252.609375 294.957031 251.890625 294.855469 251.179688 C 294.757812 250.464844 294.585938 249.769531 294.347656 249.089844 C 294.105469 248.410156 293.800781 247.761719 293.429688 247.148438 C 293.058594 246.53125 292.628906 245.957031 292.140625 245.425781 C 291.652344 244.898438 291.117188 244.421875 290.53125 244 C 289.949219 243.578125 289.328125 243.21875 288.671875 242.925781 C 288.015625 242.628906 287.335938 242.402344 286.632812 242.246094 C 285.929688 242.085938 285.21875 242 284.496094 241.988281 Z M 258.800781 242.039062 C 252.089844 241.988281 245.382812 242.023438 238.675781 242.050781 C 238.703125 240.257812 238.667969 238.46875 238.6875 236.675781 C 238.699219 236.371094 238.738281 236.070312 238.808594 235.773438 C 238.878906 235.476562 238.980469 235.1875 239.105469 234.910156 C 239.234375 234.632812 239.386719 234.371094 239.566406 234.125 C 239.746094 233.878906 239.949219 233.648438 240.171875 233.441406 C 240.398438 233.234375 240.640625 233.050781 240.898438 232.894531 C 241.160156 232.734375 241.433594 232.601562 241.71875 232.496094 C 242.007812 232.390625 242.300781 232.3125 242.601562 232.265625 C 242.902344 232.21875 243.207031 232.199219 243.511719 232.210938 C 247.320312 232.234375 251.132812 232.1875 254.941406 232.25 C 255.441406 232.359375 255.914062 232.539062 256.355469 232.789062 C 256.800781 233.042969 257.195312 233.355469 257.542969 233.730469 C 257.894531 234.101562 258.179688 234.519531 258.398438 234.976562 C 258.621094 235.4375 258.769531 235.917969 258.84375 236.425781 C 258.890625 238.292969 258.785156 240.164062 258.800781 242.039062 Z M 258.800781 242.039062 " fill-opacity="1" fill-rule="nonzero"/><g clip-path="url(#2283746a78)"><path fill="#ffffff" d="M 294.921875 292.875 C 294.929688 288.171875 294.941406 283.472656 294.914062 278.769531 C 286.085938 278.78125 277.257812 278.789062 268.429688 278.785156 C 264.839844 278.835938 261.25 278.679688 257.667969 278.890625 C 257.792969 280.121094 257.707031 281.332031 257.417969 282.53125 C 257.292969 282.871094 257.121094 283.1875 256.902344 283.476562 C 256.683594 283.769531 256.429688 284.019531 256.136719 284.234375 C 255.84375 284.449219 255.523438 284.613281 255.183594 284.734375 C 254.839844 284.851562 254.484375 284.917969 254.125 284.933594 C 250.582031 284.933594 247.035156 284.921875 243.496094 284.925781 C 242.839844 284.949219 242.230469 284.796875 241.664062 284.464844 C 241.097656 284.132812 240.667969 283.671875 240.367188 283.089844 C 239.902344 281.675781 239.746094 280.226562 239.898438 278.742188 C 234.320312 278.847656 228.738281 278.761719 223.160156 278.804688 C 217.085938 278.761719 211.003906 278.816406 204.925781 278.777344 C 204.800781 283.5625 204.914062 288.359375 204.875 293.148438 C 204.722656 295.136719 204.859375 297.105469 205.285156 299.054688 C 205.5625 299.925781 205.941406 300.75 206.425781 301.527344 C 206.914062 302.300781 207.488281 303.003906 208.152344 303.632812 C 208.8125 304.261719 209.546875 304.796875 210.347656 305.238281 C 211.144531 305.683594 211.988281 306.019531 212.875 306.246094 C 214.375 306.554688 215.886719 306.652344 217.414062 306.542969 C 238.816406 306.550781 260.222656 306.550781 281.632812 306.539062 C 283.679688 306.691406 285.707031 306.546875 287.710938 306.101562 C 288.53125 305.835938 289.304688 305.476562 290.03125 305.015625 C 290.761719 304.558594 291.421875 304.015625 292.015625 303.390625 C 292.609375 302.765625 293.113281 302.078125 293.535156 301.328125 C 293.957031 300.574219 294.277344 299.785156 294.5 298.953125 C 294.9375 296.949219 295.082031 294.921875 294.921875 292.875 Z M 294.921875 292.875 " fill-opacity="1" fill-rule="nonzero"/></g></svg>