<svg xmlns="http://www.w3.org/2000/svg" xmlns:xlink="http://www.w3.org/1999/xlink" width="500" zoomAndPan="magnify" viewBox="0 0 375 374.999991" height="500" preserveAspectRatio="xMidYMid meet" version="1.0"><path fill="#0b1972" d="M 193.59375 126.882812 C 189.664062 120.183594 189.664062 112.484375 193.589844 105.761719 L 198.601562 97.210938 C 200.355469 94.195312 200.6875 91.09375 199.613281 87.738281 C 198.546875 84.476562 196.398438 82.105469 193.230469 80.710938 L 184.164062 76.738281 C 177.058594 73.609375 172.535156 67.386719 171.742188 59.667969 L 170.773438 49.785156 C 170.425781 46.308594 168.871094 43.609375 166.03125 41.539062 C 163.234375 39.515625 160.105469 38.859375 156.742188 39.597656 L 147.050781 41.707031 C 139.597656 43.351562 132.085938 40.914062 126.976562 35.1875 L 120.382812 27.78125 C 118.085938 25.199219 115.167969 23.894531 111.710938 23.894531 C 108.21875 23.894531 105.378906 25.167969 103.027344 27.792969 L 96.449219 35.183594 C 91.335938 40.914062 83.828125 43.351562 76.363281 41.707031 L 66.6875 39.601562 C 63.265625 38.851562 60.226562 39.488281 57.375 41.550781 C 54.550781 43.609375 52.996094 46.3125 52.644531 49.800781 L 51.679688 59.648438 C 50.886719 67.390625 46.363281 73.609375 39.265625 76.738281 L 30.1875 80.714844 C 27.023438 82.105469 24.875 84.476562 23.800781 87.765625 C 22.734375 91.09375 23.066406 94.195312 24.828125 97.222656 L 29.828125 105.753906 C 33.757812 112.484375 33.757812 120.183594 29.828125 126.882812 L 24.820312 135.425781 C 23.089844 138.402344 22.746094 141.59375 23.808594 144.894531 C 24.875 148.160156 27.027344 150.53125 30.191406 151.925781 L 39.265625 155.921875 C 46.355469 159.015625 50.886719 165.230469 51.679688 172.96875 L 52.648438 182.851562 C 53 186.324219 54.550781 189.027344 57.390625 191.097656 C 60.21875 193.15625 63.253906 193.792969 66.679688 193.039062 L 76.375 190.925781 C 77.949219 190.585938 79.515625 190.417969 81.050781 190.417969 C 86.910156 190.417969 92.355469 192.859375 96.445312 197.445312 L 103.039062 204.851562 C 105.367188 207.46875 108.207031 208.742188 111.710938 208.742188 C 115.1875 208.742188 118.101562 207.4375 120.375 204.863281 L 126.972656 197.453125 C 132.144531 191.660156 139.457031 189.285156 147.042969 190.925781 L 156.734375 193.035156 C 160.175781 193.789062 163.210938 193.15625 166.03125 191.097656 C 168.875 189.027344 170.425781 186.324219 170.777344 182.835938 L 171.746094 172.988281 C 172.539062 165.234375 177.066406 159.015625 184.175781 155.914062 L 193.230469 151.925781 C 196.398438 150.53125 198.550781 148.15625 199.625 144.875 C 200.679688 141.589844 200.335938 138.402344 198.597656 135.414062 L 193.597656 126.882812 Z M 111.710938 180.464844 C 76.34375 180.464844 47.566406 151.6875 47.566406 116.320312 C 47.566406 80.953125 76.34375 52.175781 111.710938 52.175781 C 147.082031 52.175781 175.855469 80.949219 175.855469 116.320312 C 175.855469 151.691406 147.078125 180.464844 111.710938 180.464844 Z M 269.300781 54.300781 L 241.902344 26.902344 L 288.273438 26.902344 L 288.273438 240.496094 C 284.898438 243.421875 280.839844 246.285156 275.941406 249.082031 C 274.140625 248.675781 272.378906 248.339844 270.664062 248.089844 L 270.664062 57.59375 C 270.664062 57.4375 270.65625 57.28125 270.640625 57.128906 C 270.632812 57.019531 270.613281 56.910156 270.59375 56.804688 C 270.585938 56.761719 270.582031 56.71875 270.574219 56.679688 C 270.546875 56.550781 270.515625 56.425781 270.480469 56.300781 C 270.472656 56.28125 270.46875 56.257812 270.460938 56.238281 C 270.425781 56.109375 270.378906 55.988281 270.328125 55.867188 C 270.320312 55.847656 270.316406 55.828125 270.308594 55.808594 C 270.261719 55.695312 270.207031 55.582031 270.148438 55.46875 C 270.136719 55.445312 270.125 55.421875 270.113281 55.398438 C 270.058594 55.292969 269.992188 55.191406 269.929688 55.09375 C 269.914062 55.0625 269.898438 55.035156 269.878906 55.007812 C 269.808594 54.902344 269.730469 54.800781 269.652344 54.703125 C 269.636719 54.683594 269.625 54.660156 269.609375 54.644531 C 269.511719 54.523438 269.40625 54.410156 269.296875 54.296875 Z M 261.367188 322.601562 C 241.378906 309.429688 226.4375 292.277344 232.71875 280.652344 C 237.554688 271.96875 242.359375 263.320312 247.148438 254.671875 C 247.160156 254.652344 247.171875 254.628906 247.183594 254.605469 C 249.785156 250.085938 254.851562 247.917969 261.367188 247.558594 L 261.367188 62.242188 L 203.773438 62.242188 C 201.207031 62.242188 199.125 60.160156 199.125 57.59375 L 199.125 0 L 0.00390625 0 L 0.00390625 348.097656 L 261.371094 348.097656 L 261.371094 322.601562 Z M 32.625 327.347656 C 30.054688 327.347656 27.964844 325.265625 27.964844 322.699219 C 27.964844 320.132812 30.035156 318.050781 32.601562 318.050781 L 32.625 318.050781 C 35.191406 318.050781 37.273438 320.132812 37.273438 322.699219 C 37.273438 325.265625 35.191406 327.347656 32.625 327.347656 Z M 32.625 301.585938 C 30.054688 301.585938 27.964844 299.503906 27.964844 296.9375 C 27.964844 294.371094 30.035156 292.289062 32.601562 292.289062 L 32.625 292.289062 C 35.191406 292.289062 37.273438 294.371094 37.273438 296.9375 C 37.273438 299.503906 35.191406 301.585938 32.625 301.585938 Z M 196.816406 327.347656 L 51.753906 327.347656 C 49.1875 327.347656 47.105469 325.265625 47.105469 322.699219 C 47.105469 320.132812 49.1875 318.050781 51.753906 318.050781 L 196.816406 318.050781 C 199.382812 318.050781 201.464844 320.132812 201.464844 322.699219 C 201.464844 325.265625 199.382812 327.347656 196.816406 327.347656 Z M 196.816406 301.585938 L 51.753906 301.585938 C 49.1875 301.585938 47.105469 299.503906 47.105469 296.9375 C 47.105469 294.371094 49.1875 292.289062 51.753906 292.289062 L 196.816406 292.289062 C 199.382812 292.289062 201.464844 294.371094 201.464844 296.9375 C 201.464844 299.503906 199.382812 301.585938 196.816406 301.585938 Z M 208.464844 147.746094 C 206.558594 153.585938 202.585938 157.96875 196.972656 160.4375 L 187.90625 164.433594 C 183.890625 166.1875 181.441406 169.550781 180.992188 173.917969 L 180.027344 183.757812 C 179.414062 189.867188 176.46875 195 171.507812 198.613281 C 170.792969 199.136719 170.054688 199.601562 169.304688 200.023438 L 188.75 249.015625 C 189.402344 250.664062 189.0625 252.539062 187.875 253.851562 C 186.6875 255.164062 184.851562 255.6875 183.152344 255.199219 L 156.242188 247.507812 L 141.929688 271.554688 C 141.085938 272.972656 139.566406 273.828125 137.9375 273.828125 C 137.8125 273.828125 137.691406 273.824219 137.566406 273.8125 C 135.800781 273.671875 134.269531 272.539062 133.613281 270.894531 L 112.632812 218.019531 C 112.328125 218.03125 112.023438 218.042969 111.714844 218.042969 C 111.40625 218.042969 111.097656 218.03125 110.796875 218.019531 L 89.8125 270.894531 C 89.160156 272.539062 87.628906 273.671875 85.859375 273.8125 C 85.738281 273.824219 85.613281 273.828125 85.492188 273.828125 C 83.863281 273.828125 82.339844 272.972656 81.496094 271.554688 L 67.183594 247.507812 L 40.273438 255.199219 C 38.570312 255.6875 36.738281 255.164062 35.550781 253.851562 C 34.363281 252.539062 34.023438 250.664062 34.675781 249.015625 L 54.121094 200.023438 C 53.371094 199.601562 52.636719 199.136719 51.917969 198.613281 C 46.960938 195 44.015625 189.867188 43.398438 183.773438 L 42.429688 173.898438 C 41.984375 169.550781 39.535156 166.1875 35.535156 164.441406 L 26.449219 160.433594 C 20.84375 157.96875 16.871094 153.585938 14.96875 147.765625 C 13.082031 141.910156 13.714844 136.03125 16.796875 130.738281 L 21.8125 122.183594 C 24.023438 118.410156 24.023438 114.246094 21.808594 110.453125 L 16.804688 101.914062 C 13.722656 96.621094 13.085938 90.742188 14.960938 84.902344 C 16.871094 79.054688 20.84375 74.671875 26.453125 72.203125 L 35.53125 68.226562 C 39.53125 66.464844 41.988281 63.085938 42.433594 58.722656 L 43.398438 48.882812 C 44.015625 42.773438 46.960938 37.640625 51.921875 34.027344 C 56.914062 30.414062 62.703125 29.207031 68.679688 30.519531 L 78.355469 32.625 C 82.628906 33.5625 86.589844 32.277344 89.515625 28.996094 L 96.097656 21.601562 C 100.207031 17.015625 105.605469 14.597656 111.714844 14.597656 C 117.828125 14.597656 123.257812 17.019531 127.335938 21.601562 L 133.921875 29.003906 C 136.847656 32.277344 140.804688 33.5625 145.066406 32.628906 L 154.761719 30.515625 C 160.726562 29.203125 166.519531 30.414062 171.496094 34.015625 C 176.472656 37.640625 179.417969 42.769531 180.03125 48.867188 L 181 58.742188 C 181.445312 63.085938 183.898438 66.460938 187.910156 68.226562 L 196.972656 72.199219 C 202.589844 74.671875 206.5625 79.054688 208.464844 84.875 C 210.34375 90.742188 209.710938 96.617188 206.636719 101.898438 L 201.621094 110.457031 C 199.410156 114.242188 199.40625 118.410156 201.621094 122.183594 L 206.628906 130.726562 C 209.714844 136.03125 210.351562 141.910156 208.472656 147.746094 Z M 160.332031 202.617188 L 176.621094 243.664062 L 155.355469 237.585938 C 153.324219 237.003906 151.160156 237.863281 150.082031 239.675781 L 138.769531 258.683594 L 121.664062 215.582031 C 123.753906 214.445312 125.660156 212.925781 127.328125 211.039062 L 133.914062 203.640625 C 136.824219 200.378906 140.785156 199.089844 145.070312 200.015625 L 154.746094 202.121094 C 156.636719 202.539062 158.503906 202.699219 160.332031 202.617188 Z M 337.398438 304.855469 C 334.78125 309.554688 332.164062 314.261719 329.546875 318.960938 C 328.1875 316.550781 326.316406 313.90625 323.792969 311.011719 C 316.640625 302.804688 305.808594 294.449219 293.292969 287.492188 C 280.792969 280.539062 267.980469 275.75 257.21875 274.011719 C 253.425781 273.398438 250.1875 273.207031 247.421875 273.328125 C 250.035156 268.621094 252.652344 263.921875 255.257812 259.214844 C 258.089844 254.417969 278.570312 256.199219 303.113281 269.835938 C 327.664062 283.488281 339.988281 299.933594 337.398438 304.855469 Z M 316.785156 317.121094 C 322.597656 323.789062 324.109375 328.734375 323.03125 330.675781 C 323.023438 330.695312 323.015625 330.710938 323.007812 330.726562 C 320.203125 335.535156 299.734375 333.753906 275.171875 320.109375 C 250.597656 306.441406 238.277344 289.988281 240.863281 285.136719 C 240.878906 285.109375 240.898438 285.082031 240.914062 285.054688 C 241.996094 283.109375 247 281.78125 255.738281 283.191406 C 265.457031 284.761719 277.191406 289.175781 288.773438 295.621094 C 300.371094 302.066406 310.320312 309.703125 316.785156 317.121094 Z M 371.570312 202.941406 C 366.917969 211.304688 360.304688 217.132812 353.304688 223.300781 C 340.410156 234.65625 327.136719 246.375 325.808594 273.738281 C 320.300781 269.40625 314.09375 265.304688 307.632812 261.710938 C 301.164062 258.117188 294.394531 255.003906 287.796875 252.613281 C 310.347656 237.039062 313.285156 219.574219 316.125 202.621094 C 317.664062 193.425781 319.117188 184.738281 323.757812 176.382812 C 331.082031 163.210938 347.765625 158.445312 360.941406 165.753906 C 374.113281 173.082031 378.878906 189.765625 371.570312 202.941406 Z M 101.761719 215.570312 L 84.652344 258.683594 L 73.339844 239.675781 C 72.261719 237.863281 70.097656 237.003906 68.066406 237.585938 L 46.796875 243.664062 L 63.089844 202.617188 C 64.914062 202.699219 66.78125 202.539062 68.664062 202.121094 L 78.34375 200.015625 C 82.628906 199.089844 86.59375 200.375 89.503906 203.636719 L 96.09375 211.035156 C 97.769531 212.921875 99.675781 214.433594 101.761719 215.570312 Z M 254.792969 52.945312 L 208.425781 52.945312 L 208.425781 6.574219 Z M 270.667969 328.242188 C 276.410156 331.433594 282.390625 334.242188 288.273438 336.507812 L 288.273438 375 L 26.929688 375 L 26.929688 357.394531 L 266.019531 357.394531 C 268.585938 357.394531 270.667969 355.3125 270.667969 352.746094 Z M 147.078125 107.4375 C 148.414062 111.550781 146.949219 116.027344 143.433594 118.566406 L 134.300781 125.175781 C 133.664062 125.636719 133.425781 126.367188 133.675781 127.117188 L 137.179688 137.84375 C 138.519531 141.964844 137.070312 146.445312 133.574219 148.996094 C 130.050781 151.566406 125.328125 151.550781 121.824219 148.960938 L 112.734375 142.351562 C 112.082031 141.875 111.339844 141.875 110.714844 142.335938 L 101.574219 148.980469 C 99.828125 150.269531 97.769531 150.917969 95.710938 150.917969 C 93.660156 150.917969 91.605469 150.277344 89.851562 148.996094 C 86.351562 146.449219 84.902344 141.96875 86.242188 137.847656 L 89.742188 127.132812 C 89.996094 126.367188 89.757812 125.636719 89.113281 125.164062 L 79.988281 118.566406 C 76.46875 116.023438 75.007812 111.546875 76.347656 107.429688 C 77.699219 103.25 81.425781 100.542969 85.839844 100.542969 L 97.121094 100.5625 C 97.914062 100.5625 98.535156 100.113281 98.78125 99.359375 L 102.238281 88.621094 C 103.601562 84.429688 107.320312 81.726562 111.710938 81.726562 C 116.105469 81.726562 119.824219 84.429688 121.183594 88.609375 C 121.183594 88.613281 121.1875 88.621094 121.1875 88.621094 L 124.648438 99.371094 C 124.890625 100.113281 125.511719 100.5625 126.3125 100.5625 L 137.597656 100.542969 C 141.941406 100.542969 145.75 103.3125 147.082031 107.433594 Z M 147.078125 107.4375 " fill-opacity="1" fill-rule="nonzero"/><path fill="#0b1972" d="M 193.59375 126.882812 C 189.664062 120.183594 189.664062 112.484375 193.589844 105.761719 L 198.601562 97.210938 C 200.355469 94.195312 200.6875 91.09375 199.613281 87.738281 C 198.546875 84.476562 196.398438 82.105469 193.230469 80.710938 L 184.164062 76.738281 C 177.058594 73.609375 172.535156 67.386719 171.742188 59.667969 L 170.773438 49.785156 C 170.425781 46.308594 168.871094 43.609375 166.03125 41.539062 C 163.234375 39.515625 160.105469 38.859375 156.742188 39.597656 L 147.050781 41.707031 C 139.597656 43.351562 132.085938 40.914062 126.976562 35.1875 L 120.382812 27.78125 C 118.085938 25.199219 115.167969 23.894531 111.710938 23.894531 C 108.21875 23.894531 105.378906 25.167969 103.027344 27.792969 L 96.449219 35.183594 C 91.335938 40.914062 83.828125 43.351562 76.363281 41.707031 L 66.6875 39.601562 C 63.265625 38.851562 60.226562 39.488281 57.375 41.550781 C 54.550781 43.609375 52.996094 46.3125 52.644531 49.800781 L 51.679688 59.648438 C 50.886719 67.390625 46.363281 73.609375 39.265625 76.738281 L 30.1875 80.714844 C 27.023438 82.105469 24.875 84.476562 23.800781 87.765625 C 22.734375 91.09375 23.066406 94.195312 24.828125 97.222656 L 29.828125 105.753906 C 33.757812 112.484375 33.757812 120.183594 29.828125 126.882812 L 24.820312 135.425781 C 23.089844 138.402344 22.746094 141.59375 23.808594 144.894531 C 24.875 148.160156 27.027344 150.53125 30.191406 151.925781 L 39.265625 155.921875 C 46.355469 159.015625 50.886719 165.230469 51.679688 172.96875 L 52.648438 182.851562 C 53 186.324219 54.550781 189.027344 57.390625 191.097656 C 60.21875 193.15625 63.253906 193.792969 66.679688 193.039062 L 76.375 190.925781 C 77.949219 190.585938 79.515625 190.417969 81.050781 190.417969 C 86.910156 190.417969 92.355469 192.859375 96.445312 197.445312 L 103.039062 204.851562 C 105.367188 207.46875 108.207031 208.742188 111.710938 208.742188 C 115.1875 208.742188 118.101562 207.4375 120.375 204.863281 L 126.972656 197.453125 C 132.144531 191.660156 139.457031 189.285156 147.042969 190.925781 L 156.734375 193.035156 C 160.175781 193.789062 163.210938 193.15625 166.03125 191.097656 C 168.875 189.027344 170.425781 186.324219 170.777344 182.835938 L 171.746094 172.988281 C 172.539062 165.234375 177.066406 159.015625 184.175781 155.914062 L 193.230469 151.925781 C 196.398438 150.53125 198.550781 148.15625 199.625 144.875 C 200.679688 141.589844 200.335938 138.402344 198.597656 135.414062 L 193.597656 126.882812 Z M 111.710938 180.464844 C 76.34375 180.464844 47.566406 151.6875 47.566406 116.320312 C 47.566406 80.953125 76.34375 52.175781 111.710938 52.175781 C 147.082031 52.175781 175.855469 80.949219 175.855469 116.320312 C 175.855469 151.691406 147.078125 180.464844 111.710938 180.464844 Z M 269.300781 54.300781 L 241.902344 26.902344 L 288.273438 26.902344 L 288.273438 240.496094 C 284.898438 243.421875 280.839844 246.285156 275.941406 249.082031 C 274.140625 248.675781 272.378906 248.339844 270.664062 248.089844 L 270.664062 57.59375 C 270.664062 57.4375 270.65625 57.28125 270.640625 57.128906 C 270.632812 57.019531 270.613281 56.910156 270.59375 56.804688 C 270.585938 56.761719 270.582031 56.71875 270.574219 56.679688 C 270.546875 56.550781 270.515625 56.425781 270.480469 56.300781 C 270.472656 56.28125 270.46875 56.257812 270.460938 56.238281 C 270.425781 56.109375 270.378906 55.988281 270.328125 55.867188 C 270.320312 55.847656 270.316406 55.828125 270.308594 55.808594 C 270.261719 55.695312 270.207031 55.582031 270.148438 55.46875 C 270.136719 55.445312 270.125 55.421875 270.113281 55.398438 C 270.058594 55.292969 269.992188 55.191406 269.929688 55.09375 C 269.914062 55.0625 269.898438 55.035156 269.878906 55.007812 C 269.808594 54.902344 269.730469 54.800781 269.652344 54.703125 C 269.636719 54.683594 269.625 54.660156 269.609375 54.644531 C 269.511719 54.523438 269.40625 54.410156 269.296875 54.296875 Z M 261.367188 322.601562 C 241.378906 309.429688 226.4375 292.277344 232.71875 280.652344 C 237.554688 271.96875 242.359375 263.320312 247.148438 254.671875 C 247.160156 254.652344 247.171875 254.628906 247.183594 254.605469 C 249.785156 250.085938 254.851562 247.917969 261.367188 247.558594 L 261.367188 62.242188 L 203.773438 62.242188 C 201.207031 62.242188 199.125 60.160156 199.125 57.59375 L 199.125 0 L 0.00390625 0 L 0.00390625 348.097656 L 261.371094 348.097656 L 261.371094 322.601562 Z M 32.625 327.347656 C 30.054688 327.347656 27.964844 325.265625 27.964844 322.699219 C 27.964844 320.132812 30.035156 318.050781 32.601562 318.050781 L 32.625 318.050781 C 35.191406 318.050781 37.273438 320.132812 37.273438 322.699219 C 37.273438 325.265625 35.191406 327.347656 32.625 327.347656 Z M 32.625 301.585938 C 30.054688 301.585938 27.964844 299.503906 27.964844 296.9375 C 27.964844 294.371094 30.035156 292.289062 32.601562 292.289062 L 32.625 292.289062 C 35.191406 292.289062 37.273438 294.371094 37.273438 296.9375 C 37.273438 299.503906 35.191406 301.585938 32.625 301.585938 Z M 196.816406 327.347656 L 51.753906 327.347656 C 49.1875 327.347656 47.105469 325.265625 47.105469 322.699219 C 47.105469 320.132812 49.1875 318.050781 51.753906 318.050781 L 196.816406 318.050781 C 199.382812 318.050781 201.464844 320.132812 201.464844 322.699219 C 201.464844 325.265625 199.382812 327.347656 196.816406 327.347656 Z M 196.816406 301.585938 L 51.753906 301.585938 C 49.1875 301.585938 47.105469 299.503906 47.105469 296.9375 C 47.105469 294.371094 49.1875 292.289062 51.753906 292.289062 L 196.816406 292.289062 C 199.382812 292.289062 201.464844 294.371094 201.464844 296.9375 C 201.464844 299.503906 199.382812 301.585938 196.816406 301.585938 Z M 208.464844 147.746094 C 206.558594 153.585938 202.585938 157.96875 196.972656 160.4375 L 187.90625 164.433594 C 183.890625 166.1875 181.441406 169.550781 180.992188 173.917969 L 180.027344 183.757812 C 179.414062 189.867188 176.46875 195 171.507812 198.613281 C 170.792969 199.136719 170.054688 199.601562 169.304688 200.023438 L 188.75 249.015625 C 189.402344 250.664062 189.0625 252.539062 187.875 253.851562 C 186.6875 255.164062 184.851562 255.6875 183.152344 255.199219 L 156.242188 247.507812 L 141.929688 271.554688 C 141.085938 272.972656 139.566406 273.828125 137.9375 273.828125 C 137.8125 273.828125 137.691406 273.824219 137.566406 273.8125 C 135.800781 273.671875 134.269531 272.539062 133.613281 270.894531 L 112.632812 218.019531 C 112.328125 218.03125 112.023438 218.042969 111.714844 218.042969 C 111.40625 218.042969 111.097656 218.03125 110.796875 218.019531 L 89.8125 270.894531 C 89.160156 272.539062 87.628906 273.671875 85.859375 273.8125 C 85.738281 273.824219 85.613281 273.828125 85.492188 273.828125 C 83.863281 273.828125 82.339844 272.972656 81.496094 271.554688 L 67.183594 247.507812 L 40.273438 255.199219 C 38.570312 255.6875 36.738281 255.164062 35.550781 253.851562 C 34.363281 252.539062 34.023438 250.664062 34.675781 249.015625 L 54.121094 200.023438 C 53.371094 199.601562 52.636719 199.136719 51.917969 198.613281 C 46.960938 195 44.015625 189.867188 43.398438 183.773438 L 42.429688 173.898438 C 41.984375 169.550781 39.535156 166.1875 35.535156 164.441406 L 26.449219 160.433594 C 20.84375 157.96875 16.871094 153.585938 14.96875 147.765625 C 13.082031 141.910156 13.714844 136.03125 16.796875 130.738281 L 21.8125 122.183594 C 24.023438 118.410156 24.023438 114.246094 21.808594 110.453125 L 16.804688 101.914062 C 13.722656 96.621094 13.085938 90.742188 14.960938 84.902344 C 16.871094 79.054688 20.84375 74.671875 26.453125 72.203125 L 35.53125 68.226562 C 39.53125 66.464844 41.988281 63.085938 42.433594 58.722656 L 43.398438 48.882812 C 44.015625 42.773438 46.960938 37.640625 51.921875 34.027344 C 56.914062 30.414062 62.703125 29.207031 68.679688 30.519531 L 78.355469 32.625 C 82.628906 33.5625 86.589844 32.277344 89.515625 28.996094 L 96.097656 21.601562 C 100.207031 17.015625 105.605469 14.597656 111.714844 14.597656 C 117.828125 14.597656 123.257812 17.019531 127.335938 21.601562 L 133.921875 29.003906 C 136.847656 32.277344 140.804688 33.5625 145.066406 32.628906 L 154.761719 30.515625 C 160.726562 29.203125 166.519531 30.414062 171.496094 34.015625 C 176.472656 37.640625 179.417969 42.769531 180.03125 48.867188 L 181 58.742188 C 181.445312 63.085938 183.898438 66.460938 187.910156 68.226562 L 196.972656 72.199219 C 202.589844 74.671875 206.5625 79.054688 208.464844 84.875 C 210.34375 90.742188 209.710938 96.617188 206.636719 101.898438 L 201.621094 110.457031 C 199.410156 114.242188 199.40625 118.410156 201.621094 122.183594 L 206.628906 130.726562 C 209.714844 136.03125 210.351562 141.910156 208.472656 147.746094 Z M 160.332031 202.617188 L 176.621094 243.664062 L 155.355469 237.585938 C 153.324219 237.003906 151.160156 237.863281 150.082031 239.675781 L 138.769531 258.683594 L 121.664062 215.582031 C 123.753906 214.445312 125.660156 212.925781 127.328125 211.039062 L 133.914062 203.640625 C 136.824219 200.378906 140.785156 199.089844 145.070312 200.015625 L 154.746094 202.121094 C 156.636719 202.539062 158.503906 202.699219 160.332031 202.617188 Z M 337.398438 304.855469 C 334.78125 309.554688 332.164062 314.261719 329.546875 318.960938 C 328.1875 316.550781 326.316406 313.90625 323.792969 311.011719 C 316.640625 302.804688 305.808594 294.449219 293.292969 287.492188 C 280.792969 280.539062 267.980469 275.75 257.21875 274.011719 C 253.425781 273.398438 250.1875 273.207031 247.421875 273.328125 C 250.035156 268.621094 252.652344 263.921875 255.257812 259.214844 C 258.089844 254.417969 278.570312 256.199219 303.113281 269.835938 C 327.664062 283.488281 339.988281 299.933594 337.398438 304.855469 Z M 316.785156 317.121094 C 322.597656 323.789062 324.109375 328.734375 323.03125 330.675781 C 323.023438 330.695312 323.015625 330.710938 323.007812 330.726562 C 320.203125 335.535156 299.734375 333.753906 275.171875 320.109375 C 250.597656 306.441406 238.277344 289.988281 240.863281 285.136719 C 240.878906 285.109375 240.898438 285.082031 240.914062 285.054688 C 241.996094 283.109375 247 281.78125 255.738281 283.191406 C 265.457031 284.761719 277.191406 289.175781 288.773438 295.621094 C 300.371094 302.066406 310.320312 309.703125 316.785156 317.121094 Z M 371.570312 202.941406 C 366.917969 211.304688 360.304688 217.132812 353.304688 223.300781 C 340.410156 234.65625 327.136719 246.375 325.808594 273.738281 C 320.300781 269.40625 314.09375 265.304688 307.632812 261.710938 C 301.164062 258.117188 294.394531 255.003906 287.796875 252.613281 C 310.347656 237.039062 313.285156 219.574219 316.125 202.621094 C 317.664062 193.425781 319.117188 184.738281 323.757812 176.382812 C 331.082031 163.210938 347.765625 158.445312 360.941406 165.753906 C 374.113281 173.082031 378.878906 189.765625 371.570312 202.941406 Z M 101.761719 215.570312 L 84.652344 258.683594 L 73.339844 239.675781 C 72.261719 237.863281 70.097656 237.003906 68.066406 237.585938 L 46.796875 243.664062 L 63.089844 202.617188 C 64.914062 202.699219 66.78125 202.539062 68.664062 202.121094 L 78.34375 200.015625 C 82.628906 199.089844 86.59375 200.375 89.503906 203.636719 L 96.09375 211.035156 C 97.769531 212.921875 99.675781 214.433594 101.761719 215.570312 Z M 254.792969 52.945312 L 208.425781 52.945312 L 208.425781 6.574219 Z M 270.667969 328.242188 C 276.410156 331.433594 282.390625 334.242188 288.273438 336.507812 L 288.273438 375 L 26.929688 375 L 26.929688 357.394531 L 266.019531 357.394531 C 268.585938 357.394531 270.667969 355.3125 270.667969 352.746094 Z M 147.078125 107.4375 C 148.414062 111.550781 146.949219 116.027344 143.433594 118.566406 L 134.300781 125.175781 C 133.664062 125.636719 133.425781 126.367188 133.675781 127.117188 L 137.179688 137.84375 C 138.519531 141.964844 137.070312 146.445312 133.574219 148.996094 C 130.050781 151.566406 125.328125 151.550781 121.824219 148.960938 L 112.734375 142.351562 C 112.082031 141.875 111.339844 141.875 110.714844 142.335938 L 101.574219 148.980469 C 99.828125 150.269531 97.769531 150.917969 95.710938 150.917969 C 93.660156 150.917969 91.605469 150.277344 89.851562 148.996094 C 86.351562 146.449219 84.902344 141.96875 86.242188 137.847656 L 89.742188 127.132812 C 89.996094 126.367188 89.757812 125.636719 89.113281 125.164062 L 79.988281 118.566406 C 76.46875 116.023438 75.007812 111.546875 76.347656 107.429688 C 77.699219 103.25 81.425781 100.542969 85.839844 100.542969 L 97.121094 100.5625 C 97.914062 100.5625 98.535156 100.113281 98.78125 99.359375 L 102.238281 88.621094 C 103.601562 84.429688 107.320312 81.726562 111.710938 81.726562 C 116.105469 81.726562 119.824219 84.429688 121.183594 88.609375 C 121.183594 88.613281 121.1875 88.621094 121.1875 88.621094 L 124.648438 99.371094 C 124.890625 100.113281 125.511719 100.5625 126.3125 100.5625 L 137.597656 100.542969 C 141.941406 100.542969 145.75 103.3125 147.082031 107.433594 Z M 147.078125 107.4375 " fill-opacity="1" fill-rule="nonzero"/></svg>