<svg xmlns="http://www.w3.org/2000/svg" xmlns:xlink="http://www.w3.org/1999/xlink" width="500" zoomAndPan="magnify" viewBox="0 0 375 374.999991" height="500" preserveAspectRatio="xMidYMid meet" version="1.0"><defs><clipPath id="13200791e7"><path d="M 187.5 0 C 83.945312 0 0 83.945312 0 187.5 C 0 291.054688 83.945312 375 187.5 375 C 291.054688 375 375 291.054688 375 187.5 C 375 83.945312 291.054688 0 187.5 0 Z M 187.5 0 " clip-rule="nonzero"/></clipPath><clipPath id="5e54e35872"><path d="M 0 0 L 375 0 L 375 375 L 0 375 Z M 0 0 " clip-rule="nonzero"/></clipPath><clipPath id="dcf1811fe6"><path d="M 187.5 0 C 83.945312 0 0 83.945312 0 187.5 C 0 291.054688 83.945312 375 187.5 375 C 291.054688 375 375 291.054688 375 187.5 C 375 83.945312 291.054688 0 187.5 0 Z M 187.5 0 " clip-rule="nonzero"/></clipPath><clipPath id="efe86abca7"><rect x="0" width="375" y="0" height="375"/></clipPath><clipPath id="8ab1aef596"><path d="M 64.917969 60.636719 L 310.167969 60.636719 L 310.167969 314.136719 L 64.917969 314.136719 Z M 64.917969 60.636719 " clip-rule="nonzero"/></clipPath></defs><g clip-path="url(#13200791e7)"><g transform="matrix(1, 0, 0, 1, 0, 0)"><g clip-path="url(#efe86abca7)"><g clip-path="url(#5e54e35872)"><g clip-path="url(#dcf1811fe6)"><rect x="-82.5" width="540" fill="#e6ac41" height="539.999987" y="-82.499998" fill-opacity="1"/></g></g></g></g></g><path fill="#ffffff" d="M 187.496094 208.632812 C 189.820312 208.632812 191.722656 206.730469 191.722656 204.40625 L 191.722656 191.722656 L 195.949219 191.722656 C 202.925781 191.722656 208.628906 186.019531 208.628906 179.042969 C 208.628906 172.070312 202.925781 166.363281 195.949219 166.363281 L 187.496094 166.363281 C 185.171875 166.363281 183.269531 168.265625 183.269531 170.589844 L 183.269531 204.40625 C 183.269531 206.730469 185.171875 208.632812 187.496094 208.632812 Z M 191.722656 174.816406 L 195.949219 174.816406 C 198.273438 174.816406 200.175781 176.71875 200.175781 179.042969 C 200.175781 181.367188 198.273438 183.269531 195.949219 183.269531 L 191.722656 183.269531 Z M 191.722656 174.816406 " fill-opacity="1" fill-rule="nonzero"/><path fill="#ffffff" d="M 221.3125 208.632812 C 223.636719 208.632812 225.539062 206.730469 225.539062 204.40625 L 225.539062 170.589844 C 225.539062 168.265625 223.636719 166.363281 221.3125 166.363281 C 218.984375 166.363281 217.082031 168.265625 217.082031 170.589844 L 217.082031 204.40625 C 217.082031 206.730469 218.984375 208.632812 221.3125 208.632812 Z M 221.3125 208.632812 " fill-opacity="1" fill-rule="nonzero"/><path fill="#ffffff" d="M 153.679688 208.632812 C 156.007812 208.632812 157.90625 206.730469 157.90625 204.40625 L 157.90625 191.722656 L 166.363281 191.722656 L 166.363281 204.40625 C 166.363281 206.730469 168.265625 208.632812 170.589844 208.632812 C 172.914062 208.632812 174.816406 206.730469 174.816406 204.40625 L 174.816406 179.042969 C 174.816406 172.070312 169.109375 166.363281 162.136719 166.363281 C 155.160156 166.363281 149.453125 172.070312 149.453125 179.042969 L 149.453125 204.40625 C 149.453125 206.730469 151.355469 208.632812 153.679688 208.632812 Z M 157.90625 179.042969 C 157.90625 176.71875 159.808594 174.816406 162.136719 174.816406 C 164.460938 174.816406 166.363281 176.71875 166.363281 179.042969 L 166.363281 183.269531 L 157.90625 183.269531 Z M 157.90625 179.042969 " fill-opacity="1" fill-rule="nonzero"/><path fill="#ffffff" d="M 187.496094 250.898438 C 222.472656 250.898438 250.898438 222.472656 250.898438 187.496094 C 250.898438 152.519531 222.472656 124.09375 187.496094 124.09375 C 152.519531 124.09375 124.09375 152.519531 124.09375 187.496094 C 124.09375 222.472656 152.519531 250.898438 187.496094 250.898438 Z M 187.496094 132.546875 C 217.769531 132.546875 242.445312 157.222656 242.445312 187.496094 C 242.445312 217.773438 217.769531 242.445312 187.496094 242.445312 C 157.222656 242.445312 132.546875 217.773438 132.546875 187.496094 C 132.546875 157.222656 157.222656 132.546875 187.496094 132.546875 Z M 187.496094 132.546875 " fill-opacity="1" fill-rule="nonzero"/><g clip-path="url(#8ab1aef596)"><path fill="#ffffff" d="M 77.597656 280.488281 C 84.574219 280.488281 90.277344 274.78125 90.277344 267.808594 C 90.277344 262.3125 86.738281 257.609375 81.824219 255.867188 L 81.824219 244.507812 L 113.632812 219.039062 C 115.535156 223.425781 117.804688 227.707031 120.449219 231.667969 L 112.679688 239.433594 C 111.042969 241.074219 111.042969 243.765625 112.679688 245.40625 L 129.589844 262.3125 C 131.226562 263.949219 133.921875 263.949219 135.558594 262.3125 L 143.324219 254.546875 C 151.621094 259.988281 160.917969 263.898438 170.589844 266.011719 L 170.589844 280.488281 C 170.589844 282.8125 172.492188 284.714844 174.816406 284.714844 L 200.175781 284.714844 C 202.5 284.714844 204.402344 282.8125 204.402344 280.488281 L 204.402344 266.011719 C 207.941406 265.269531 211.429688 264.265625 214.8125 263 L 221.363281 302.308594 C 221.679688 304.371094 223.476562 305.847656 225.539062 305.847656 L 238.957031 305.847656 C 240.699219 310.761719 245.402344 314.300781 250.898438 314.300781 C 257.871094 314.300781 263.578125 308.597656 263.578125 301.621094 C 263.578125 294.648438 257.871094 288.941406 250.898438 288.941406 C 245.402344 288.941406 240.703125 292.480469 238.957031 297.394531 L 229.128906 297.394531 L 222.84375 259.617188 C 225.90625 258.136719 228.867188 256.449219 231.71875 254.546875 L 239.484375 262.3125 C 241.125 263.949219 243.820312 263.949219 245.457031 262.3125 L 262.363281 245.40625 C 264 243.765625 264 241.074219 262.363281 239.433594 L 254.597656 231.667969 C 255.019531 231.035156 255.441406 230.398438 255.8125 229.765625 L 285.453125 229.765625 C 287.195312 234.679688 291.898438 238.21875 297.394531 238.21875 C 304.367188 238.21875 310.074219 232.511719 310.074219 225.539062 C 310.074219 218.566406 304.367188 212.859375 297.394531 212.859375 C 291.898438 212.859375 287.195312 216.398438 285.453125 221.3125 L 260.355469 221.3125 C 262.890625 215.921875 264.792969 210.214844 266.0625 204.40625 L 280.484375 204.40625 C 282.8125 204.40625 284.714844 202.503906 284.714844 200.179688 L 284.714844 174.816406 C 284.714844 172.492188 282.8125 170.589844 280.484375 170.589844 L 266.007812 170.589844 C 263.949219 160.921875 260.039062 151.621094 254.542969 143.328125 L 262.3125 135.558594 C 263.949219 133.921875 263.949219 131.226562 262.3125 129.589844 L 245.402344 112.683594 C 243.765625 111.042969 241.070312 111.042969 239.433594 112.683594 L 231.667969 120.449219 C 228.8125 118.601562 225.855469 116.910156 222.84375 115.378906 L 244.875 77.601562 L 260.089844 77.601562 C 261.835938 82.511719 266.539062 86.054688 272.03125 86.054688 C 279.007812 86.054688 284.714844 80.347656 284.714844 73.371094 C 284.714844 66.398438 279.007812 60.691406 272.03125 60.691406 C 266.539062 60.691406 261.835938 64.234375 260.089844 69.144531 L 242.445312 69.144531 C 240.964844 69.144531 239.539062 69.9375 238.800781 71.257812 L 215.023438 112.046875 C 211.589844 110.78125 208.050781 109.777344 204.457031 108.984375 L 204.457031 94.507812 C 204.457031 92.183594 202.554688 90.28125 200.230469 90.28125 L 174.867188 90.28125 C 172.542969 90.28125 170.640625 92.183594 170.640625 94.507812 L 170.640625 108.984375 C 160.972656 111.042969 151.671875 114.953125 143.378906 120.449219 L 135.613281 112.683594 C 133.972656 111.042969 131.277344 111.042969 129.640625 112.683594 L 123.566406 118.652344 L 102.960938 104.914062 L 102.960938 85.3125 C 107.871094 83.570312 111.414062 78.867188 111.414062 73.371094 C 111.414062 66.398438 105.707031 60.691406 98.734375 60.691406 C 91.757812 60.691406 86.050781 66.398438 86.050781 73.371094 C 86.050781 78.867188 89.59375 83.570312 94.503906 85.3125 L 94.503906 107.1875 C 94.503906 108.613281 95.191406 109.933594 96.40625 110.726562 L 117.488281 124.78125 L 112.679688 129.589844 C 111.042969 131.226562 111.042969 133.921875 112.679688 135.558594 L 120.449219 143.328125 C 115.003906 151.621094 111.097656 160.921875 108.984375 170.589844 L 94.503906 170.589844 C 92.179688 170.589844 90.277344 172.492188 90.277344 174.816406 L 90.277344 200.179688 C 90.277344 202.503906 92.179688 204.40625 94.503906 204.40625 L 108.984375 204.40625 C 109.457031 206.519531 109.988281 208.578125 110.621094 210.640625 L 75.007812 239.171875 C 74.003906 239.964844 73.425781 241.179688 73.425781 242.445312 L 73.425781 255.867188 C 68.511719 257.609375 64.96875 262.3125 64.96875 267.808594 C 64.917969 274.78125 70.625 280.488281 77.597656 280.488281 Z M 250.898438 297.394531 C 253.222656 297.394531 255.125 299.296875 255.125 301.621094 C 255.125 303.945312 253.222656 305.847656 250.898438 305.847656 C 248.574219 305.847656 246.671875 303.945312 246.671875 301.621094 C 246.671875 299.296875 248.574219 297.394531 250.898438 297.394531 Z M 297.394531 221.3125 C 299.71875 221.3125 301.621094 223.214844 301.621094 225.539062 C 301.621094 227.863281 299.71875 229.765625 297.394531 229.765625 C 295.070312 229.765625 293.167969 227.863281 293.167969 225.539062 C 293.167969 223.214844 295.070312 221.3125 297.394531 221.3125 Z M 272.03125 69.144531 C 274.355469 69.144531 276.257812 71.046875 276.257812 73.371094 C 276.257812 75.699219 274.355469 77.601562 272.03125 77.601562 C 269.707031 77.601562 267.804688 75.699219 267.804688 73.371094 C 267.804688 71.046875 269.707031 69.144531 272.03125 69.144531 Z M 98.734375 77.601562 C 96.40625 77.601562 94.503906 75.699219 94.503906 73.371094 C 94.503906 71.046875 96.40625 69.144531 98.734375 69.144531 C 101.058594 69.144531 102.960938 71.046875 102.960938 73.371094 C 102.960938 75.699219 101.058594 77.601562 98.734375 77.601562 Z M 98.734375 195.949219 L 98.734375 179.042969 L 112.46875 179.042969 C 114.53125 179.042969 116.273438 177.5625 116.644531 175.503906 C 118.441406 164.671875 122.878906 154.210938 129.324219 145.28125 C 130.539062 143.589844 130.382812 141.265625 128.902344 139.789062 L 121.609375 132.546875 L 132.546875 121.613281 L 139.839844 128.902344 C 141.316406 130.382812 143.640625 130.539062 145.332031 129.324219 C 154.261719 122.828125 164.722656 118.441406 175.554688 116.644531 C 177.617188 116.328125 179.09375 114.53125 179.09375 112.472656 L 179.09375 98.734375 L 196.003906 98.734375 L 196.003906 112.472656 C 196.003906 114.53125 197.480469 116.273438 199.542969 116.644531 C 210.375 118.441406 220.835938 122.878906 229.765625 129.324219 C 231.453125 130.539062 233.78125 130.382812 235.257812 128.902344 L 242.550781 121.613281 L 253.488281 132.546875 L 246.195312 139.839844 C 244.714844 141.320312 244.558594 143.644531 245.773438 145.335938 C 252.273438 154.265625 256.65625 164.726562 258.453125 175.558594 C 258.769531 177.617188 260.566406 179.097656 262.628906 179.097656 L 276.363281 179.097656 L 276.363281 196.003906 L 262.628906 196.003906 C 260.566406 196.003906 258.824219 197.484375 258.453125 199.542969 C 256.65625 210.375 252.21875 220.835938 245.773438 229.765625 C 244.558594 231.457031 244.714844 233.78125 246.195312 235.261719 L 253.488281 242.550781 L 242.445312 253.382812 L 235.152344 246.09375 C 233.675781 244.613281 231.347656 244.453125 229.660156 245.667969 C 220.730469 252.167969 210.269531 256.554688 199.4375 258.351562 C 197.375 258.667969 195.898438 260.464844 195.898438 262.523438 L 195.898438 276.261719 L 178.988281 276.261719 L 178.988281 262.523438 C 178.988281 260.464844 177.511719 258.71875 175.449219 258.351562 C 164.617188 256.554688 154.15625 252.167969 145.226562 245.667969 C 143.535156 244.453125 141.210938 244.613281 139.734375 246.09375 L 132.546875 253.382812 L 121.609375 242.445312 L 128.902344 235.15625 C 130.382812 233.675781 130.539062 231.351562 129.324219 229.660156 C 122.824219 220.730469 118.441406 210.269531 116.644531 199.4375 C 116.328125 197.378906 114.53125 195.898438 112.46875 195.898438 L 98.734375 195.898438 Z M 77.597656 263.582031 C 79.921875 263.582031 81.824219 265.484375 81.824219 267.808594 C 81.824219 270.132812 79.921875 272.035156 77.597656 272.035156 C 75.273438 272.035156 73.371094 270.132812 73.371094 267.808594 C 73.371094 265.484375 75.273438 263.582031 77.597656 263.582031 Z M 77.597656 263.582031 " fill-opacity="1" fill-rule="nonzero"/></g></svg>