<svg xmlns="http://www.w3.org/2000/svg" xmlns:xlink="http://www.w3.org/1999/xlink" width="500" zoomAndPan="magnify" viewBox="0 0 375 374.999991" height="500" preserveAspectRatio="xMidYMid meet" version="1.0"><defs><clipPath id="c7022db5a2"><path d="M 187.5 0 C 83.945312 0 0 83.945312 0 187.5 C 0 291.054688 83.945312 375 187.5 375 C 291.054688 375 375 291.054688 375 187.5 C 375 83.945312 291.054688 0 187.5 0 Z M 187.5 0 " clip-rule="nonzero"/></clipPath><clipPath id="d51d78627c"><path d="M 0 0 L 375 0 L 375 375 L 0 375 Z M 0 0 " clip-rule="nonzero"/></clipPath><clipPath id="fc03715469"><path d="M 187.5 0 C 83.945312 0 0 83.945312 0 187.5 C 0 291.054688 83.945312 375 187.5 375 C 291.054688 375 375 291.054688 375 187.5 C 375 83.945312 291.054688 0 187.5 0 Z M 187.5 0 " clip-rule="nonzero"/></clipPath><clipPath id="e9befb19db"><rect x="0" width="375" y="0" height="375"/></clipPath><clipPath id="ddc681f38e"><path d="M 73.171875 73.171875 L 301.921875 73.171875 L 301.921875 301.921875 L 73.171875 301.921875 Z M 73.171875 73.171875 " clip-rule="nonzero"/></clipPath></defs><g clip-path="url(#c7022db5a2)"><g transform="matrix(1, 0, 0, 1, 0, 0)"><g clip-path="url(#e9befb19db)"><g clip-path="url(#d51d78627c)"><g clip-path="url(#fc03715469)"><rect x="-82.5" width="540" fill="#e6ac41" height="539.999987" y="-82.499998" fill-opacity="1"/></g></g></g></g></g><g clip-path="url(#ddc681f38e)"><path fill="#ffffff" d="M 149.007812 298.214844 C 149.472656 299.664062 148.671875 301.222656 147.21875 301.695312 C 146.9375 301.78125 146.652344 301.828125 146.371094 301.828125 C 145.207031 301.828125 144.117188 301.082031 143.738281 299.90625 L 117.28125 217.566406 L 123.089844 217.566406 Z M 73.304688 298.214844 C 72.839844 299.664062 73.640625 301.222656 75.09375 301.695312 C 75.375 301.78125 75.660156 301.828125 75.941406 301.828125 C 77.113281 301.828125 78.195312 301.082031 78.574219 299.90625 L 105.03125 217.566406 L 99.222656 217.566406 Z M 288.054688 221.929688 C 290.453125 221.929688 292.527344 222.671875 294.238281 224.136719 C 294.699219 224.535156 295.132812 224.980469 295.542969 225.476562 C 297.472656 227.824219 298.144531 230.535156 297.546875 233.527344 L 290.09375 270.46875 C 289.089844 275.480469 284.8125 278.980469 279.699219 278.980469 L 208.574219 278.980469 C 203.476562 278.980469 199.195312 275.476562 198.179688 270.46875 L 190.734375 233.53125 C 190.132812 230.542969 190.8125 227.832031 192.738281 225.472656 C 193.207031 224.898438 193.714844 224.390625 194.257812 223.953125 C 194.269531 223.941406 194.277344 223.933594 194.289062 223.929688 C 194.347656 223.882812 194.402344 223.835938 194.460938 223.800781 C 196.085938 222.554688 198.015625 221.929688 200.222656 221.929688 Z M 257.796875 250.449219 C 257.796875 242.921875 251.671875 236.796875 244.144531 236.796875 C 236.617188 236.796875 230.480469 242.921875 230.480469 250.449219 C 230.480469 257.976562 236.613281 264.113281 244.144531 264.113281 C 251.675781 264.113281 257.796875 257.984375 257.796875 250.449219 Z M 279.113281 197.980469 C 277.878906 197.449219 276.605469 196.96875 275.378906 196.503906 C 272.074219 195.257812 268.699219 193.972656 265.824219 191.742188 C 260.382812 197.210938 252.558594 200.410156 244.339844 200.410156 C 236.125 200.410156 228.285156 197.210938 222.847656 191.742188 C 219.964844 193.984375 216.585938 195.261719 213.277344 196.515625 C 212.054688 196.976562 210.785156 197.453125 209.550781 197.980469 C 201.542969 201.390625 196.324219 208.59375 195.546875 217.09375 C 197.011719 216.632812 198.578125 216.398438 200.222656 216.398438 L 288.054688 216.398438 C 289.851562 216.398438 291.550781 216.679688 293.132812 217.222656 C 292.398438 208.667969 287.167969 201.410156 279.113281 197.980469 Z M 211.875 101.179688 C 213.507812 99.898438 215.359375 98.65625 217.40625 97.464844 C 219.832031 96.058594 222.519531 94.730469 225.425781 93.523438 C 234.574219 89.714844 243.652344 88.019531 249.703125 88.988281 C 263.269531 91.164062 273.878906 98.320312 281.230469 110.246094 C 286.269531 118.421875 285.84375 130.746094 283.25 139.5 C 285.433594 141.917969 286.765625 145.125 286.765625 148.640625 C 286.765625 156.167969 280.648438 162.289062 273.132812 162.289062 L 271.867188 162.289062 C 270.703125 167.953125 267.828125 172.996094 263.808594 176.851562 C 262.335938 178.277344 260.707031 179.535156 258.949219 180.605469 C 259.527344 182.804688 260.34375 184.824219 261.382812 186.640625 C 261.597656 187.007812 261.816406 187.363281 262.042969 187.703125 C 257.628906 192.230469 251.164062 194.878906 244.339844 194.878906 C 237.519531 194.878906 231.039062 192.226562 226.625 187.699219 C 226.851562 187.363281 227.074219 187.007812 227.28125 186.644531 C 228.328125 184.824219 229.140625 182.804688 229.71875 180.601562 C 227.960938 179.53125 226.335938 178.269531 224.863281 176.847656 C 220.851562 172.988281 217.976562 167.945312 216.8125 162.289062 L 215.554688 162.289062 C 208.023438 162.289062 201.902344 156.167969 201.902344 148.640625 C 201.902344 145.621094 202.886719 142.828125 204.550781 140.566406 C 204.167969 138.953125 203.742188 136.976562 203.367188 134.769531 C 203.074219 133.042969 202.808594 131.175781 202.621094 129.234375 C 201.90625 121.996094 202.191406 113.71875 205.6875 107.816406 C 207.011719 105.582031 209.121094 103.332031 211.875 101.179688 Z M 216.234375 156.757812 L 216.234375 140.523438 L 215.550781 140.523438 C 213.238281 140.523438 211.148438 141.496094 209.664062 143.054688 C 209.605469 143.113281 209.550781 143.175781 209.496094 143.242188 C 209.480469 143.25 209.472656 143.265625 209.460938 143.273438 C 208.203125 144.707031 207.433594 146.589844 207.433594 148.640625 C 207.433594 153.117188 211.074219 156.757812 215.550781 156.757812 Z M 266.75 159.308594 C 266.761719 159.246094 266.765625 159.1875 266.773438 159.128906 C 266.867188 158.300781 266.914062 157.464844 266.914062 156.609375 L 266.914062 135.820312 C 266.914062 134.671875 266.515625 133.765625 265.65625 132.964844 C 264.8125 132.183594 263.882812 131.855469 262.738281 131.9375 C 250.578125 132.867188 239.191406 129.925781 229.808594 123.433594 C 229.328125 123.105469 228.777344 122.945312 228.234375 122.945312 C 227.492188 122.945312 226.761719 123.242188 226.210938 123.820312 C 223.433594 126.769531 221.765625 129.855469 221.765625 132.066406 L 221.765625 156.609375 C 221.765625 163.339844 224.730469 169.390625 229.414062 173.53125 L 229.417969 173.53125 C 229.539062 173.636719 229.660156 173.742188 229.785156 173.84375 C 233.714844 177.175781 238.800781 179.183594 244.34375 179.183594 C 249.882812 179.183594 254.917969 177.195312 258.835938 173.894531 C 258.972656 173.746094 259.128906 173.609375 259.300781 173.492188 C 263.335938 169.921875 266.082031 164.929688 266.75 159.308594 Z M 281.234375 148.640625 C 281.234375 146.210938 280.160156 144.027344 278.464844 142.535156 C 278.371094 142.453125 278.273438 142.371094 278.175781 142.296875 C 276.792969 141.1875 275.039062 140.523438 273.132812 140.523438 L 272.445312 140.523438 L 272.445312 156.757812 L 273.132812 156.757812 C 277.597656 156.757812 281.234375 153.117188 281.234375 148.640625 Z M 244.144531 242.328125 C 239.664062 242.328125 236.011719 245.96875 236.011719 250.449219 C 236.011719 254.933594 239.664062 258.582031 244.144531 258.582031 C 248.625 258.582031 252.265625 254.929688 252.265625 250.449219 C 252.265625 245.972656 248.621094 242.328125 244.144531 242.328125 Z M 300.765625 284.511719 L 187.523438 284.511719 C 186.9375 284.511719 186.445312 284.996094 186.445312 285.574219 L 186.445312 295.230469 C 186.445312 295.808594 186.9375 296.292969 187.523438 296.292969 L 300.765625 296.292969 C 301.34375 296.292969 301.828125 295.808594 301.828125 295.230469 L 301.828125 285.574219 C 301.828125 284.996094 301.34375 284.511719 300.765625 284.511719 Z M 103.125 212.035156 L 119.191406 212.035156 C 119.265625 212.03125 119.335938 212.03125 119.40625 212.035156 L 143.605469 212.035156 L 143.605469 166.929688 L 78.707031 166.929688 L 78.707031 212.035156 L 102.914062 212.035156 C 102.984375 212.03125 103.054688 212.03125 103.125 212.035156 Z M 149.136719 198.4375 L 166.816406 206.597656 L 166.816406 172.367188 L 149.136719 180.53125 Z M 99.019531 161.394531 C 104.1875 161.394531 108.390625 157.191406 108.390625 152.023438 C 108.390625 146.855469 104.1875 142.636719 99.019531 142.636719 C 93.851562 142.636719 89.632812 146.847656 89.632812 152.023438 C 89.632812 157.199219 93.84375 161.394531 99.019531 161.394531 Z M 123.292969 161.394531 C 128.472656 161.394531 132.683594 157.191406 132.683594 152.023438 C 132.683594 146.855469 128.472656 142.636719 123.292969 142.636719 C 118.117188 142.636719 113.921875 146.847656 113.921875 152.023438 C 113.921875 157.199219 118.128906 161.394531 123.292969 161.394531 Z M 197.066406 129.238281 L 183.238281 129.238281 C 181.710938 129.238281 180.472656 130.476562 180.472656 132.003906 L 180.472656 142.398438 L 166.230469 129.925781 C 165.722656 129.480469 165.078125 129.238281 164.40625 129.238281 L 133.949219 129.238281 C 131.992188 129.238281 130.402344 127.648438 130.402344 125.691406 L 130.402344 76.714844 C 130.402344 74.761719 131.992188 73.171875 133.949219 73.171875 L 208.328125 73.171875 C 210.246094 73.171875 211.875 74.792969 211.875 76.714844 L 211.875 94.386719 C 210.660156 95.179688 209.523438 95.996094 208.46875 96.824219 C 205.128906 99.433594 202.59375 102.1875 200.925781 105.003906 C 197.429688 110.910156 196.128906 119.058594 197.066406 129.238281 Z M 186.773438 101.203125 C 186.773438 98.359375 185.539062 95.832031 183.292969 94.085938 L 170.089844 83.769531 C 167.304688 81.609375 163.746094 81.234375 160.5625 82.777344 C 157.390625 84.335938 155.5 87.375 155.5 90.90625 L 155.5 111.515625 C 155.5 115.039062 157.390625 118.074219 160.574219 119.636719 C 161.867188 120.261719 163.226562 120.574219 164.566406 120.574219 C 166.519531 120.574219 168.445312 119.921875 170.09375 118.636719 L 183.289062 108.328125 C 185.535156 106.578125 186.773438 104.054688 186.773438 101.203125 Z M 179.894531 98.449219 C 179.890625 98.449219 179.890625 98.445312 179.886719 98.441406 L 166.6875 88.136719 C 166.042969 87.632812 165.308594 87.378906 164.558594 87.378906 C 164.03125 87.378906 163.5 87.5 162.988281 87.753906 C 161.75 88.363281 161.03125 89.511719 161.03125 90.90625 L 161.03125 111.515625 C 161.03125 112.898438 161.75 114.050781 163 114.664062 C 164.242188 115.269531 165.59375 115.125 166.695312 114.269531 L 179.886719 103.964844 C 180.804688 103.253906 181.242188 102.351562 181.242188 101.203125 C 181.242188 100.058594 180.804688 99.152344 179.894531 98.449219 Z M 179.894531 98.449219 " fill-opacity="1" fill-rule="nonzero"/></g></svg>