<svg xmlns="http://www.w3.org/2000/svg" xmlns:xlink="http://www.w3.org/1999/xlink" width="500" zoomAndPan="magnify" viewBox="0 0 375 374.999991" height="500" preserveAspectRatio="xMidYMid meet" version="1.0"><path fill="#e6ac41" d="M 249.78125 308.65625 L 150.921875 308.65625 C 149.605469 308.65625 148.066406 307.996094 147.40625 306.679688 C 146.527344 305.359375 146.308594 303.824219 146.96875 302.503906 C 147.40625 301.84375 147.847656 301.1875 147.847656 300.964844 L 196.835938 235.941406 C 198.59375 233.742188 202.109375 233.742188 203.867188 235.941406 L 252.855469 300.964844 C 252.855469 301.1875 253.296875 301.625 253.734375 302.503906 C 254.394531 303.824219 254.175781 305.359375 253.296875 306.679688 C 252.636719 307.996094 251.097656 308.65625 249.78125 308.65625 Z M 249.78125 308.65625 " fill-opacity="1" fill-rule="evenodd"/><path fill="#0b1972" d="M 292.179688 337.652344 L 285.148438 337.652344 C 282.734375 337.652344 280.753906 335.675781 280.753906 333.261719 C 280.753906 330.84375 282.734375 328.867188 285.148438 328.867188 L 292.179688 328.867188 C 306.679688 328.867188 318.320312 317.222656 318.320312 302.722656 L 318.320312 72.933594 C 318.320312 58.65625 306.679688 47.011719 292.179688 47.011719 L 230.667969 47.011719 C 228.25 47.011719 226.273438 45.035156 226.273438 42.617188 C 226.273438 40.203125 228.25 38.226562 230.667969 38.226562 L 292.179688 38.226562 C 311.511719 38.226562 327.109375 53.824219 327.109375 72.933594 L 327.109375 302.722656 C 327.109375 322.054688 311.511719 337.652344 292.179688 337.652344 Z M 89.851562 337.652344 L 82.601562 337.652344 C 63.488281 337.652344 47.890625 322.054688 47.890625 302.722656 L 47.890625 72.933594 C 47.890625 53.824219 63.488281 38.226562 82.601562 38.226562 L 144.332031 38.226562 C 146.75 38.226562 148.726562 40.203125 148.726562 42.617188 C 148.726562 45.035156 146.75 47.011719 144.332031 47.011719 L 82.601562 47.011719 C 68.320312 47.011719 56.679688 58.65625 56.679688 72.933594 L 56.679688 302.722656 C 56.679688 317.222656 68.320312 328.867188 82.601562 328.867188 L 89.851562 328.867188 C 92.265625 328.867188 94.246094 330.84375 94.246094 333.261719 C 94.246094 335.675781 92.265625 337.652344 89.851562 337.652344 Z M 89.851562 337.652344 " fill-opacity="1" fill-rule="evenodd"/><path fill="#0b1972" d="M 292.179688 321.398438 L 285.148438 321.398438 C 282.734375 321.398438 280.753906 319.421875 280.753906 317.003906 C 280.753906 314.585938 282.734375 312.609375 285.148438 312.609375 L 292.179688 312.609375 C 297.671875 312.609375 302.066406 308.214844 302.066406 302.722656 L 302.066406 72.933594 C 302.066406 67.664062 297.671875 63.050781 292.179688 63.050781 L 237.257812 63.050781 C 234.84375 63.050781 232.863281 61.070312 232.863281 58.65625 C 232.863281 56.238281 234.84375 54.261719 237.257812 54.261719 L 292.179688 54.261719 C 302.503906 54.261719 310.851562 62.609375 310.851562 72.933594 L 310.851562 302.722656 C 310.851562 313.050781 302.503906 321.398438 292.179688 321.398438 Z M 89.851562 321.398438 L 82.601562 321.398438 C 72.277344 321.398438 63.929688 313.050781 63.929688 302.722656 L 63.929688 72.933594 C 63.929688 62.609375 72.277344 54.261719 82.601562 54.261719 L 137.523438 54.261719 C 140.15625 54.261719 141.914062 56.238281 141.914062 58.65625 C 141.914062 61.070312 140.15625 63.050781 137.523438 63.050781 L 82.601562 63.050781 C 77.328125 63.050781 72.714844 67.664062 72.714844 72.933594 L 72.714844 302.722656 C 72.714844 308.214844 77.328125 312.609375 82.601562 312.609375 L 89.851562 312.609375 C 92.265625 312.609375 94.246094 314.585938 94.246094 317.003906 C 94.246094 319.421875 92.265625 321.398438 89.851562 321.398438 Z M 89.851562 321.398438 " fill-opacity="1" fill-rule="evenodd"/><path fill="#0b1972" d="M 256.589844 96 C 256.589844 96 256.371094 96 256.371094 96 L 118.410156 96 C 116.871094 96 115.554688 95.121094 114.675781 93.804688 C 113.796875 92.265625 113.796875 90.730469 114.675781 89.410156 L 139.5 46.792969 C 140.15625 20.871094 161.46875 0 187.390625 0 C 213.53125 0 234.84375 20.871094 235.5 46.792969 L 259.886719 88.753906 C 260.542969 89.632812 260.984375 90.507812 260.984375 91.609375 C 260.984375 94.023438 259.007812 96 256.589844 96 Z M 126.097656 87.214844 L 248.902344 87.214844 L 227.152344 50.085938 C 226.933594 49.429688 226.714844 48.769531 226.714844 47.890625 C 226.714844 26.363281 209.140625 8.789062 187.390625 8.789062 C 165.859375 8.789062 148.285156 26.363281 148.285156 47.890625 C 148.285156 48.769531 148.066406 49.429688 147.628906 50.085938 Z M 126.097656 87.214844 " fill-opacity="1" fill-rule="evenodd"/><path fill="#e6ac41" d="M 187.390625 69.421875 C 175.527344 69.421875 165.859375 59.753906 165.859375 47.890625 C 165.859375 36.027344 175.527344 26.363281 187.390625 26.363281 C 199.253906 26.363281 208.917969 36.027344 208.917969 47.890625 C 208.917969 59.753906 199.253906 69.421875 187.390625 69.421875 Z M 187.390625 69.421875 " fill-opacity="1" fill-rule="evenodd"/><path fill="#0b1972" d="M 285.148438 375 C 284.050781 375 282.953125 374.5625 282.074219 373.683594 L 265.597656 357.863281 L 249.121094 373.683594 C 247.363281 375.21875 244.726562 375.21875 242.96875 373.683594 L 226.492188 357.863281 L 210.015625 373.683594 C 208.261719 375.21875 205.625 375.21875 203.867188 373.683594 L 187.390625 357.863281 L 170.914062 373.683594 C 169.15625 375.21875 166.519531 375.21875 164.980469 373.683594 L 148.285156 357.863281 L 131.808594 373.683594 C 130.273438 375.21875 127.417969 375.21875 125.878906 373.683594 L 109.402344 357.863281 L 92.707031 373.683594 C 91.609375 375 89.632812 375.21875 88.09375 374.5625 C 86.335938 373.902344 85.457031 372.363281 85.457031 370.605469 L 85.457031 91.609375 C 85.457031 89.191406 87.433594 87.214844 89.851562 87.214844 L 285.148438 87.214844 C 287.566406 87.214844 289.542969 89.191406 289.542969 91.609375 L 289.542969 370.605469 C 289.542969 372.363281 288.445312 373.902344 286.90625 374.5625 C 286.246094 374.78125 285.808594 375 285.148438 375 Z M 226.492188 347.320312 C 227.59375 347.320312 228.691406 347.757812 229.570312 348.636719 L 246.046875 364.457031 L 262.523438 348.636719 C 264.28125 347.101562 266.914062 347.101562 268.671875 348.636719 L 280.753906 360.28125 L 280.753906 96 L 94.246094 96 L 94.246094 360.28125 L 106.328125 348.636719 C 107.863281 347.101562 110.71875 347.101562 112.257812 348.636719 L 128.953125 364.457031 L 145.429688 348.636719 C 146.96875 347.101562 149.824219 347.101562 151.363281 348.636719 L 167.839844 364.457031 L 184.316406 348.636719 C 186.070312 347.101562 188.707031 347.101562 190.464844 348.636719 L 206.941406 364.457031 L 223.417969 348.636719 C 224.296875 347.757812 225.394531 347.320312 226.492188 347.320312 Z M 226.492188 347.320312 " fill-opacity="1" fill-rule="evenodd"/><path fill="#0b1972" d="M 138.179688 180.800781 C 120.167969 180.800781 105.667969 166.300781 105.667969 148.285156 C 105.667969 130.492188 120.167969 115.992188 138.179688 115.992188 C 155.976562 115.992188 170.472656 130.492188 170.472656 148.285156 C 170.472656 166.300781 155.976562 180.800781 138.179688 180.800781 Z M 138.179688 124.78125 C 125.21875 124.78125 114.457031 135.324219 114.457031 148.285156 C 114.457031 161.46875 125.21875 172.011719 138.179688 172.011719 C 151.140625 172.011719 161.6875 161.46875 161.6875 148.285156 C 161.6875 135.324219 151.140625 124.78125 138.179688 124.78125 Z M 138.179688 124.78125 " fill-opacity="1" fill-rule="evenodd"/><path fill="#0b1972" d="M 131.808594 159.050781 C 130.710938 159.050781 129.394531 158.832031 128.734375 157.953125 C 126.976562 156.195312 126.976562 153.339844 128.734375 151.582031 L 141.476562 138.839844 C 143.234375 137.082031 145.871094 137.082031 147.628906 138.839844 C 149.386719 140.597656 149.386719 143.234375 147.628906 144.992188 L 134.886719 157.953125 C 134.007812 158.832031 132.910156 159.050781 131.808594 159.050781 Z M 131.808594 159.050781 " fill-opacity="1" fill-rule="evenodd"/><path fill="#0b1972" d="M 144.550781 159.050781 C 143.453125 159.050781 142.355469 158.832031 141.476562 157.953125 L 128.734375 144.992188 C 126.976562 143.234375 126.976562 140.597656 128.734375 138.839844 C 130.273438 137.082031 133.128906 137.082031 134.886719 138.839844 L 147.628906 151.582031 C 149.386719 153.339844 149.386719 156.195312 147.628906 157.953125 C 146.75 158.832031 145.648438 159.050781 144.550781 159.050781 Z M 144.550781 159.050781 " fill-opacity="1" fill-rule="evenodd"/><path fill="#0b1972" d="M 199.035156 127.417969 L 189.585938 127.417969 C 187.171875 127.417969 185.191406 125.4375 185.191406 123.023438 C 185.191406 120.605469 187.171875 118.628906 189.585938 118.628906 L 199.035156 118.628906 C 201.449219 118.628906 203.425781 120.605469 203.425781 123.023438 C 203.425781 125.4375 201.449219 127.417969 199.035156 127.417969 Z M 199.035156 127.417969 " fill-opacity="1" fill-rule="evenodd"/><path fill="#0b1972" d="M 264.71875 127.417969 L 222.101562 127.417969 C 219.683594 127.417969 217.707031 125.4375 217.707031 123.023438 C 217.707031 120.605469 219.683594 118.628906 222.101562 118.628906 L 264.71875 118.628906 C 267.136719 118.628906 269.113281 120.605469 269.113281 123.023438 C 269.113281 125.4375 267.136719 127.417969 264.71875 127.417969 Z M 264.71875 127.417969 " fill-opacity="1" fill-rule="evenodd"/><path fill="#0b1972" d="M 264.71875 148.726562 L 255.273438 148.726562 C 252.855469 148.726562 250.878906 146.75 250.878906 144.332031 C 250.878906 141.914062 252.855469 139.9375 255.273438 139.9375 L 264.71875 139.9375 C 267.136719 139.9375 269.113281 141.914062 269.113281 144.332031 C 269.113281 146.75 267.136719 148.726562 264.71875 148.726562 Z M 264.71875 148.726562 " fill-opacity="1" fill-rule="evenodd"/><path fill="#0b1972" d="M 232.207031 148.726562 L 189.585938 148.726562 C 187.171875 148.726562 185.191406 146.75 185.191406 144.332031 C 185.191406 141.914062 187.171875 139.9375 189.585938 139.9375 L 232.207031 139.9375 C 234.621094 139.9375 236.597656 141.914062 236.597656 144.332031 C 236.597656 146.75 234.621094 148.726562 232.207031 148.726562 Z M 232.207031 148.726562 " fill-opacity="1" fill-rule="evenodd"/><path fill="#0b1972" d="M 199.035156 170.035156 L 189.585938 170.035156 C 187.171875 170.035156 185.191406 168.277344 185.191406 165.640625 C 185.191406 163.226562 187.171875 161.246094 189.585938 161.246094 L 199.035156 161.246094 C 201.449219 161.246094 203.425781 163.226562 203.425781 165.640625 C 203.425781 168.277344 201.449219 170.035156 199.035156 170.035156 Z M 199.035156 170.035156 " fill-opacity="1" fill-rule="evenodd"/><path fill="#0b1972" d="M 264.71875 170.035156 L 222.101562 170.035156 C 219.683594 170.035156 217.707031 168.277344 217.707031 165.640625 C 217.707031 163.226562 219.683594 161.246094 222.101562 161.246094 L 264.71875 161.246094 C 267.136719 161.246094 269.113281 163.226562 269.113281 165.640625 C 269.113281 168.277344 267.136719 170.035156 264.71875 170.035156 Z M 264.71875 170.035156 " fill-opacity="1" fill-rule="evenodd"/><path fill="#0b1972" d="M 264.71875 191.5625 L 255.273438 191.5625 C 252.855469 191.5625 250.878906 189.585938 250.878906 187.171875 C 250.878906 184.753906 252.855469 182.777344 255.273438 182.777344 L 264.71875 182.777344 C 267.136719 182.777344 269.113281 184.753906 269.113281 187.171875 C 269.113281 189.585938 267.136719 191.5625 264.71875 191.5625 Z M 264.71875 191.5625 " fill-opacity="1" fill-rule="evenodd"/><path fill="#0b1972" d="M 232.207031 191.5625 L 189.585938 191.5625 C 187.171875 191.5625 185.191406 189.585938 185.191406 187.171875 C 185.191406 184.753906 187.171875 182.777344 189.585938 182.777344 L 232.207031 182.777344 C 234.621094 182.777344 236.597656 184.753906 236.597656 187.171875 C 236.597656 189.585938 234.621094 191.5625 232.207031 191.5625 Z M 232.207031 191.5625 " fill-opacity="1" fill-rule="evenodd"/><path fill="#0b1972" d="M 254.175781 324.253906 L 146.527344 324.253906 C 139.9375 324.253906 134.226562 320.519531 131.371094 314.808594 C 128.296875 308.875 129.175781 302.066406 133.566406 296.351562 L 187.390625 224.738281 C 190.246094 221 195.078125 218.804688 200.132812 218.804688 C 205.183594 218.804688 209.796875 220.78125 213.09375 224.515625 C 213.09375 224.515625 213.3125 224.738281 213.3125 224.738281 L 267.136719 296.351562 C 271.527344 302.066406 272.40625 308.875 269.332031 314.808594 C 266.476562 320.519531 260.765625 324.253906 254.175781 324.253906 Z M 200.132812 227.59375 C 197.714844 227.59375 195.519531 228.472656 194.421875 230.007812 L 140.597656 301.625 C 138.179688 304.703125 137.742188 307.996094 139.28125 310.851562 C 140.597656 313.707031 143.453125 315.464844 146.527344 315.464844 L 254.175781 315.464844 C 257.25 315.464844 260.105469 313.707031 261.421875 310.851562 C 262.960938 307.996094 262.523438 304.703125 260.105469 301.625 L 206.503906 230.226562 C 204.746094 228.472656 202.546875 227.59375 200.132812 227.59375 Z M 200.132812 227.59375 " fill-opacity="1" fill-rule="evenodd"/><path fill="#0b1972" d="M 200.351562 279.65625 C 197.933594 279.65625 195.957031 277.679688 195.957031 275.261719 L 195.957031 263.179688 C 195.957031 260.765625 197.933594 258.789062 200.351562 258.789062 C 202.769531 258.789062 204.746094 260.765625 204.746094 263.179688 L 204.746094 275.261719 C 204.746094 277.679688 202.769531 279.65625 200.351562 279.65625 Z M 200.351562 279.65625 " fill-opacity="1" fill-rule="evenodd"/><path fill="#0b1972" d="M 200.351562 295.035156 C 197.933594 295.035156 195.957031 293.058594 195.957031 290.640625 L 195.957031 290.203125 C 195.957031 287.785156 197.933594 285.808594 200.351562 285.808594 C 202.769531 285.808594 204.746094 287.785156 204.746094 290.203125 L 204.746094 290.640625 C 204.746094 293.058594 202.769531 295.035156 200.351562 295.035156 Z M 200.351562 295.035156 " fill-opacity="1" fill-rule="evenodd"/><path fill="#0b1972" d="M 119.289062 297.011719 C 117.96875 297.011719 116.871094 296.792969 115.554688 296.351562 C 113.136719 295.472656 111.378906 293.496094 110.5 291.300781 L 104.570312 277.019531 C 103.472656 274.824219 103.472656 272.1875 104.570312 269.773438 C 105.449219 267.355469 107.425781 265.597656 109.621094 264.71875 L 125 258.347656 L 125.660156 252.855469 L 112.476562 242.75 C 110.5 241.210938 109.183594 239.015625 108.742188 236.378906 C 108.523438 233.964844 109.183594 231.546875 110.71875 229.351562 L 119.949219 217.265625 C 121.484375 215.289062 123.683594 213.972656 126.316406 213.53125 C 128.734375 213.3125 131.371094 213.972656 133.347656 215.507812 L 146.308594 225.394531 C 148.066406 224.515625 149.824219 223.859375 151.582031 223.199219 L 153.777344 206.941406 C 154 204.527344 155.316406 202.328125 157.292969 200.789062 C 159.269531 199.035156 161.90625 198.375 164.324219 198.8125 L 179.480469 200.789062 C 182.117188 201.011719 184.316406 202.328125 185.851562 204.304688 C 187.390625 206.28125 188.050781 208.917969 187.828125 211.335938 L 185.632812 227.59375 C 186.730469 228.25 188.050781 229.128906 189.148438 230.007812 C 190.90625 231.765625 191.34375 234.402344 189.585938 236.378906 C 188.050781 238.136719 185.414062 238.355469 183.4375 236.820312 C 182.117188 235.71875 180.359375 234.621094 178.824219 233.742188 C 177.285156 232.863281 176.40625 231.105469 176.625 229.351562 L 179.042969 210.238281 C 179.042969 210.015625 179.042969 209.796875 178.824219 209.796875 C 178.824219 209.578125 178.601562 209.578125 178.382812 209.359375 L 163.226562 207.601562 C 163.003906 207.382812 162.785156 207.601562 162.785156 207.601562 C 162.566406 207.820312 162.347656 207.820312 162.347656 208.039062 L 159.929688 227.152344 C 159.710938 228.910156 158.390625 230.449219 156.632812 230.886719 C 153.777344 231.546875 150.921875 232.863281 148.285156 234.402344 C 146.75 235.28125 144.773438 235.28125 143.234375 234.183594 L 128.074219 222.539062 C 127.855469 222.320312 127.636719 222.320312 127.417969 222.320312 C 127.417969 222.320312 127.195312 222.320312 126.976562 222.539062 L 117.75 234.84375 C 117.53125 235.0625 117.53125 235.0625 117.53125 235.28125 C 117.53125 235.5 117.53125 235.71875 117.75 235.71875 L 133.128906 247.363281 C 134.226562 248.460938 134.886719 250 134.667969 251.539062 L 133.347656 261.863281 C 133.128906 263.402344 132.25 264.71875 130.710938 265.378906 L 113.136719 272.847656 C 112.917969 272.847656 112.699219 273.066406 112.699219 273.066406 C 112.699219 273.285156 112.476562 273.507812 112.699219 273.726562 L 118.628906 287.785156 C 118.628906 288.003906 118.847656 288.226562 118.847656 288.226562 C 119.070312 288.226562 119.289062 288.226562 119.507812 288.226562 L 137.300781 280.753906 C 138.839844 280.097656 140.816406 280.535156 142.136719 281.855469 C 143.453125 283.390625 144.992188 284.710938 146.75 285.808594 C 148.726562 287.125 149.164062 289.980469 147.847656 291.960938 C 146.527344 293.9375 143.671875 294.375 141.695312 293.058594 C 140.378906 292.179688 139.058594 291.082031 137.960938 289.980469 L 122.804688 296.351562 C 121.703125 296.792969 120.386719 297.011719 119.289062 297.011719 Z M 119.289062 297.011719 " fill-opacity="1" fill-rule="evenodd"/><path fill="#0b1972" d="M 154.21875 280.316406 C 153.558594 280.316406 152.679688 280.097656 152.019531 279.65625 C 144.550781 275.042969 140.597656 266.257812 141.695312 257.6875 C 142.355469 251.757812 145.429688 246.265625 150.261719 242.75 C 155.097656 239.015625 161.027344 237.257812 166.960938 238.136719 C 171.574219 238.796875 175.746094 240.554688 179.042969 243.628906 C 181.019531 245.386719 181.019531 248.023438 179.480469 249.78125 C 177.945312 251.757812 175.085938 251.757812 173.332031 250.21875 C 171.132812 248.460938 168.71875 247.144531 165.859375 246.925781 C 162.125 246.484375 158.613281 247.363281 155.535156 249.5625 C 152.679688 251.976562 150.921875 255.050781 150.261719 258.789062 C 149.605469 264.058594 152.242188 269.332031 156.632812 272.1875 C 158.613281 273.507812 159.269531 276.363281 157.953125 278.339844 C 157.292969 279.65625 155.753906 280.316406 154.21875 280.316406 Z M 154.21875 280.316406 " fill-opacity="1" fill-rule="evenodd"/><path fill="#e6ac41" d="M 249.78125 308.65625 L 150.921875 308.65625 C 149.605469 308.65625 148.066406 307.996094 147.40625 306.679688 C 146.527344 305.359375 146.308594 303.824219 146.96875 302.503906 C 147.40625 301.84375 147.847656 301.1875 147.847656 300.964844 L 196.835938 235.941406 C 198.59375 233.742188 202.109375 233.742188 203.867188 235.941406 L 252.855469 300.964844 C 252.855469 301.1875 253.296875 301.625 253.734375 302.503906 C 254.394531 303.824219 254.175781 305.359375 253.296875 306.679688 C 252.636719 307.996094 251.097656 308.65625 249.78125 308.65625 Z M 249.78125 308.65625 " fill-opacity="1" fill-rule="evenodd"/><path fill="#0b1972" d="M 292.179688 337.652344 L 285.148438 337.652344 C 282.734375 337.652344 280.753906 335.675781 280.753906 333.261719 C 280.753906 330.84375 282.734375 328.867188 285.148438 328.867188 L 292.179688 328.867188 C 306.679688 328.867188 318.320312 317.222656 318.320312 302.722656 L 318.320312 72.933594 C 318.320312 58.65625 306.679688 47.011719 292.179688 47.011719 L 230.667969 47.011719 C 228.25 47.011719 226.273438 45.035156 226.273438 42.617188 C 226.273438 40.203125 228.25 38.226562 230.667969 38.226562 L 292.179688 38.226562 C 311.511719 38.226562 327.109375 53.824219 327.109375 72.933594 L 327.109375 302.722656 C 327.109375 322.054688 311.511719 337.652344 292.179688 337.652344 Z M 89.851562 337.652344 L 82.601562 337.652344 C 63.488281 337.652344 47.890625 322.054688 47.890625 302.722656 L 47.890625 72.933594 C 47.890625 53.824219 63.488281 38.226562 82.601562 38.226562 L 144.332031 38.226562 C 146.75 38.226562 148.726562 40.203125 148.726562 42.617188 C 148.726562 45.035156 146.75 47.011719 144.332031 47.011719 L 82.601562 47.011719 C 68.320312 47.011719 56.679688 58.65625 56.679688 72.933594 L 56.679688 302.722656 C 56.679688 317.222656 68.320312 328.867188 82.601562 328.867188 L 89.851562 328.867188 C 92.265625 328.867188 94.246094 330.84375 94.246094 333.261719 C 94.246094 335.675781 92.265625 337.652344 89.851562 337.652344 Z M 89.851562 337.652344 " fill-opacity="1" fill-rule="evenodd"/><path fill="#0b1972" d="M 292.179688 321.398438 L 285.148438 321.398438 C 282.734375 321.398438 280.753906 319.421875 280.753906 317.003906 C 280.753906 314.585938 282.734375 312.609375 285.148438 312.609375 L 292.179688 312.609375 C 297.671875 312.609375 302.066406 308.214844 302.066406 302.722656 L 302.066406 72.933594 C 302.066406 67.664062 297.671875 63.050781 292.179688 63.050781 L 237.257812 63.050781 C 234.84375 63.050781 232.863281 61.070312 232.863281 58.65625 C 232.863281 56.238281 234.84375 54.261719 237.257812 54.261719 L 292.179688 54.261719 C 302.503906 54.261719 310.851562 62.609375 310.851562 72.933594 L 310.851562 302.722656 C 310.851562 313.050781 302.503906 321.398438 292.179688 321.398438 Z M 89.851562 321.398438 L 82.601562 321.398438 C 72.277344 321.398438 63.929688 313.050781 63.929688 302.722656 L 63.929688 72.933594 C 63.929688 62.609375 72.277344 54.261719 82.601562 54.261719 L 137.523438 54.261719 C 140.15625 54.261719 141.914062 56.238281 141.914062 58.65625 C 141.914062 61.070312 140.15625 63.050781 137.523438 63.050781 L 82.601562 63.050781 C 77.328125 63.050781 72.714844 67.664062 72.714844 72.933594 L 72.714844 302.722656 C 72.714844 308.214844 77.328125 312.609375 82.601562 312.609375 L 89.851562 312.609375 C 92.265625 312.609375 94.246094 314.585938 94.246094 317.003906 C 94.246094 319.421875 92.265625 321.398438 89.851562 321.398438 Z M 89.851562 321.398438 " fill-opacity="1" fill-rule="evenodd"/><path fill="#0b1972" d="M 256.589844 96 C 256.589844 96 256.371094 96 256.371094 96 L 118.410156 96 C 116.871094 96 115.554688 95.121094 114.675781 93.804688 C 113.796875 92.265625 113.796875 90.730469 114.675781 89.410156 L 139.5 46.792969 C 140.15625 20.871094 161.46875 0 187.390625 0 C 213.53125 0 234.84375 20.871094 235.5 46.792969 L 259.886719 88.753906 C 260.542969 89.632812 260.984375 90.507812 260.984375 91.609375 C 260.984375 94.023438 259.007812 96 256.589844 96 Z M 126.097656 87.214844 L 248.902344 87.214844 L 227.152344 50.085938 C 226.933594 49.429688 226.714844 48.769531 226.714844 47.890625 C 226.714844 26.363281 209.140625 8.789062 187.390625 8.789062 C 165.859375 8.789062 148.285156 26.363281 148.285156 47.890625 C 148.285156 48.769531 148.066406 49.429688 147.628906 50.085938 Z M 126.097656 87.214844 " fill-opacity="1" fill-rule="evenodd"/><path fill="#e6ac41" d="M 187.390625 69.421875 C 175.527344 69.421875 165.859375 59.753906 165.859375 47.890625 C 165.859375 36.027344 175.527344 26.363281 187.390625 26.363281 C 199.253906 26.363281 208.917969 36.027344 208.917969 47.890625 C 208.917969 59.753906 199.253906 69.421875 187.390625 69.421875 Z M 187.390625 69.421875 " fill-opacity="1" fill-rule="evenodd"/><path fill="#0b1972" d="M 285.148438 375 C 284.050781 375 282.953125 374.5625 282.074219 373.683594 L 265.597656 357.863281 L 249.121094 373.683594 C 247.363281 375.21875 244.726562 375.21875 242.96875 373.683594 L 226.492188 357.863281 L 210.015625 373.683594 C 208.261719 375.21875 205.625 375.21875 203.867188 373.683594 L 187.390625 357.863281 L 170.914062 373.683594 C 169.15625 375.21875 166.519531 375.21875 164.980469 373.683594 L 148.285156 357.863281 L 131.808594 373.683594 C 130.273438 375.21875 127.417969 375.21875 125.878906 373.683594 L 109.402344 357.863281 L 92.707031 373.683594 C 91.609375 375 89.632812 375.21875 88.09375 374.5625 C 86.335938 373.902344 85.457031 372.363281 85.457031 370.605469 L 85.457031 91.609375 C 85.457031 89.191406 87.433594 87.214844 89.851562 87.214844 L 285.148438 87.214844 C 287.566406 87.214844 289.542969 89.191406 289.542969 91.609375 L 289.542969 370.605469 C 289.542969 372.363281 288.445312 373.902344 286.90625 374.5625 C 286.246094 374.78125 285.808594 375 285.148438 375 Z M 226.492188 347.320312 C 227.59375 347.320312 228.691406 347.757812 229.570312 348.636719 L 246.046875 364.457031 L 262.523438 348.636719 C 264.28125 347.101562 266.914062 347.101562 268.671875 348.636719 L 280.753906 360.28125 L 280.753906 96 L 94.246094 96 L 94.246094 360.28125 L 106.328125 348.636719 C 107.863281 347.101562 110.71875 347.101562 112.257812 348.636719 L 128.953125 364.457031 L 145.429688 348.636719 C 146.96875 347.101562 149.824219 347.101562 151.363281 348.636719 L 167.839844 364.457031 L 184.316406 348.636719 C 186.070312 347.101562 188.707031 347.101562 190.464844 348.636719 L 206.941406 364.457031 L 223.417969 348.636719 C 224.296875 347.757812 225.394531 347.320312 226.492188 347.320312 Z M 226.492188 347.320312 " fill-opacity="1" fill-rule="evenodd"/><path fill="#0b1972" d="M 138.179688 180.800781 C 120.167969 180.800781 105.667969 166.300781 105.667969 148.285156 C 105.667969 130.492188 120.167969 115.992188 138.179688 115.992188 C 155.976562 115.992188 170.472656 130.492188 170.472656 148.285156 C 170.472656 166.300781 155.976562 180.800781 138.179688 180.800781 Z M 138.179688 124.78125 C 125.21875 124.78125 114.457031 135.324219 114.457031 148.285156 C 114.457031 161.46875 125.21875 172.011719 138.179688 172.011719 C 151.140625 172.011719 161.6875 161.46875 161.6875 148.285156 C 161.6875 135.324219 151.140625 124.78125 138.179688 124.78125 Z M 138.179688 124.78125 " fill-opacity="1" fill-rule="evenodd"/><path fill="#0b1972" d="M 131.808594 159.050781 C 130.710938 159.050781 129.394531 158.832031 128.734375 157.953125 C 126.976562 156.195312 126.976562 153.339844 128.734375 151.582031 L 141.476562 138.839844 C 143.234375 137.082031 145.871094 137.082031 147.628906 138.839844 C 149.386719 140.597656 149.386719 143.234375 147.628906 144.992188 L 134.886719 157.953125 C 134.007812 158.832031 132.910156 159.050781 131.808594 159.050781 Z M 131.808594 159.050781 " fill-opacity="1" fill-rule="evenodd"/><path fill="#0b1972" d="M 144.550781 159.050781 C 143.453125 159.050781 142.355469 158.832031 141.476562 157.953125 L 128.734375 144.992188 C 126.976562 143.234375 126.976562 140.597656 128.734375 138.839844 C 130.273438 137.082031 133.128906 137.082031 134.886719 138.839844 L 147.628906 151.582031 C 149.386719 153.339844 149.386719 156.195312 147.628906 157.953125 C 146.75 158.832031 145.648438 159.050781 144.550781 159.050781 Z M 144.550781 159.050781 " fill-opacity="1" fill-rule="evenodd"/><path fill="#0b1972" d="M 199.035156 127.417969 L 189.585938 127.417969 C 187.171875 127.417969 185.191406 125.4375 185.191406 123.023438 C 185.191406 120.605469 187.171875 118.628906 189.585938 118.628906 L 199.035156 118.628906 C 201.449219 118.628906 203.425781 120.605469 203.425781 123.023438 C 203.425781 125.4375 201.449219 127.417969 199.035156 127.417969 Z M 199.035156 127.417969 " fill-opacity="1" fill-rule="evenodd"/><path fill="#0b1972" d="M 264.71875 127.417969 L 222.101562 127.417969 C 219.683594 127.417969 217.707031 125.4375 217.707031 123.023438 C 217.707031 120.605469 219.683594 118.628906 222.101562 118.628906 L 264.71875 118.628906 C 267.136719 118.628906 269.113281 120.605469 269.113281 123.023438 C 269.113281 125.4375 267.136719 127.417969 264.71875 127.417969 Z M 264.71875 127.417969 " fill-opacity="1" fill-rule="evenodd"/><path fill="#0b1972" d="M 264.71875 148.726562 L 255.273438 148.726562 C 252.855469 148.726562 250.878906 146.75 250.878906 144.332031 C 250.878906 141.914062 252.855469 139.9375 255.273438 139.9375 L 264.71875 139.9375 C 267.136719 139.9375 269.113281 141.914062 269.113281 144.332031 C 269.113281 146.75 267.136719 148.726562 264.71875 148.726562 Z M 264.71875 148.726562 " fill-opacity="1" fill-rule="evenodd"/><path fill="#0b1972" d="M 232.207031 148.726562 L 189.585938 148.726562 C 187.171875 148.726562 185.191406 146.75 185.191406 144.332031 C 185.191406 141.914062 187.171875 139.9375 189.585938 139.9375 L 232.207031 139.9375 C 234.621094 139.9375 236.597656 141.914062 236.597656 144.332031 C 236.597656 146.75 234.621094 148.726562 232.207031 148.726562 Z M 232.207031 148.726562 " fill-opacity="1" fill-rule="evenodd"/><path fill="#0b1972" d="M 199.035156 170.035156 L 189.585938 170.035156 C 187.171875 170.035156 185.191406 168.277344 185.191406 165.640625 C 185.191406 163.226562 187.171875 161.246094 189.585938 161.246094 L 199.035156 161.246094 C 201.449219 161.246094 203.425781 163.226562 203.425781 165.640625 C 203.425781 168.277344 201.449219 170.035156 199.035156 170.035156 Z M 199.035156 170.035156 " fill-opacity="1" fill-rule="evenodd"/><path fill="#0b1972" d="M 264.71875 170.035156 L 222.101562 170.035156 C 219.683594 170.035156 217.707031 168.277344 217.707031 165.640625 C 217.707031 163.226562 219.683594 161.246094 222.101562 161.246094 L 264.71875 161.246094 C 267.136719 161.246094 269.113281 163.226562 269.113281 165.640625 C 269.113281 168.277344 267.136719 170.035156 264.71875 170.035156 Z M 264.71875 170.035156 " fill-opacity="1" fill-rule="evenodd"/><path fill="#0b1972" d="M 264.71875 191.5625 L 255.273438 191.5625 C 252.855469 191.5625 250.878906 189.585938 250.878906 187.171875 C 250.878906 184.753906 252.855469 182.777344 255.273438 182.777344 L 264.71875 182.777344 C 267.136719 182.777344 269.113281 184.753906 269.113281 187.171875 C 269.113281 189.585938 267.136719 191.5625 264.71875 191.5625 Z M 264.71875 191.5625 " fill-opacity="1" fill-rule="evenodd"/><path fill="#0b1972" d="M 232.207031 191.5625 L 189.585938 191.5625 C 187.171875 191.5625 185.191406 189.585938 185.191406 187.171875 C 185.191406 184.753906 187.171875 182.777344 189.585938 182.777344 L 232.207031 182.777344 C 234.621094 182.777344 236.597656 184.753906 236.597656 187.171875 C 236.597656 189.585938 234.621094 191.5625 232.207031 191.5625 Z M 232.207031 191.5625 " fill-opacity="1" fill-rule="evenodd"/><path fill="#0b1972" d="M 254.175781 324.253906 L 146.527344 324.253906 C 139.9375 324.253906 134.226562 320.519531 131.371094 314.808594 C 128.296875 308.875 129.175781 302.066406 133.566406 296.351562 L 187.390625 224.738281 C 190.246094 221 195.078125 218.804688 200.132812 218.804688 C 205.183594 218.804688 209.796875 220.78125 213.09375 224.515625 C 213.09375 224.515625 213.3125 224.738281 213.3125 224.738281 L 267.136719 296.351562 C 271.527344 302.066406 272.40625 308.875 269.332031 314.808594 C 266.476562 320.519531 260.765625 324.253906 254.175781 324.253906 Z M 200.132812 227.59375 C 197.714844 227.59375 195.519531 228.472656 194.421875 230.007812 L 140.597656 301.625 C 138.179688 304.703125 137.742188 307.996094 139.28125 310.851562 C 140.597656 313.707031 143.453125 315.464844 146.527344 315.464844 L 254.175781 315.464844 C 257.25 315.464844 260.105469 313.707031 261.421875 310.851562 C 262.960938 307.996094 262.523438 304.703125 260.105469 301.625 L 206.503906 230.226562 C 204.746094 228.472656 202.546875 227.59375 200.132812 227.59375 Z M 200.132812 227.59375 " fill-opacity="1" fill-rule="evenodd"/><path fill="#0b1972" d="M 200.351562 279.65625 C 197.933594 279.65625 195.957031 277.679688 195.957031 275.261719 L 195.957031 263.179688 C 195.957031 260.765625 197.933594 258.789062 200.351562 258.789062 C 202.769531 258.789062 204.746094 260.765625 204.746094 263.179688 L 204.746094 275.261719 C 204.746094 277.679688 202.769531 279.65625 200.351562 279.65625 Z M 200.351562 279.65625 " fill-opacity="1" fill-rule="evenodd"/><path fill="#0b1972" d="M 200.351562 295.035156 C 197.933594 295.035156 195.957031 293.058594 195.957031 290.640625 L 195.957031 290.203125 C 195.957031 287.785156 197.933594 285.808594 200.351562 285.808594 C 202.769531 285.808594 204.746094 287.785156 204.746094 290.203125 L 204.746094 290.640625 C 204.746094 293.058594 202.769531 295.035156 200.351562 295.035156 Z M 200.351562 295.035156 " fill-opacity="1" fill-rule="evenodd"/><path fill="#0b1972" d="M 119.289062 297.011719 C 117.96875 297.011719 116.871094 296.792969 115.554688 296.351562 C 113.136719 295.472656 111.378906 293.496094 110.5 291.300781 L 104.570312 277.019531 C 103.472656 274.824219 103.472656 272.1875 104.570312 269.773438 C 105.449219 267.355469 107.425781 265.597656 109.621094 264.71875 L 125 258.347656 L 125.660156 252.855469 L 112.476562 242.75 C 110.5 241.210938 109.183594 239.015625 108.742188 236.378906 C 108.523438 233.964844 109.183594 231.546875 110.71875 229.351562 L 119.949219 217.265625 C 121.484375 215.289062 123.683594 213.972656 126.316406 213.53125 C 128.734375 213.3125 131.371094 213.972656 133.347656 215.507812 L 146.308594 225.394531 C 148.066406 224.515625 149.824219 223.859375 151.582031 223.199219 L 153.777344 206.941406 C 154 204.527344 155.316406 202.328125 157.292969 200.789062 C 159.269531 199.035156 161.90625 198.375 164.324219 198.8125 L 179.480469 200.789062 C 182.117188 201.011719 184.316406 202.328125 185.851562 204.304688 C 187.390625 206.28125 188.050781 208.917969 187.828125 211.335938 L 185.632812 227.59375 C 186.730469 228.25 188.050781 229.128906 189.148438 230.007812 C 190.90625 231.765625 191.34375 234.402344 189.585938 236.378906 C 188.050781 238.136719 185.414062 238.355469 183.4375 236.820312 C 182.117188 235.71875 180.359375 234.621094 178.824219 233.742188 C 177.285156 232.863281 176.40625 231.105469 176.625 229.351562 L 179.042969 210.238281 C 179.042969 210.015625 179.042969 209.796875 178.824219 209.796875 C 178.824219 209.578125 178.601562 209.578125 178.382812 209.359375 L 163.226562 207.601562 C 163.003906 207.382812 162.785156 207.601562 162.785156 207.601562 C 162.566406 207.820312 162.347656 207.820312 162.347656 208.039062 L 159.929688 227.152344 C 159.710938 228.910156 158.390625 230.449219 156.632812 230.886719 C 153.777344 231.546875 150.921875 232.863281 148.285156 234.402344 C 146.75 235.28125 144.773438 235.28125 143.234375 234.183594 L 128.074219 222.539062 C 127.855469 222.320312 127.636719 222.320312 127.417969 222.320312 C 127.417969 222.320312 127.195312 222.320312 126.976562 222.539062 L 117.75 234.84375 C 117.53125 235.0625 117.53125 235.0625 117.53125 235.28125 C 117.53125 235.5 117.53125 235.71875 117.75 235.71875 L 133.128906 247.363281 C 134.226562 248.460938 134.886719 250 134.667969 251.539062 L 133.347656 261.863281 C 133.128906 263.402344 132.25 264.71875 130.710938 265.378906 L 113.136719 272.847656 C 112.917969 272.847656 112.699219 273.066406 112.699219 273.066406 C 112.699219 273.285156 112.476562 273.507812 112.699219 273.726562 L 118.628906 287.785156 C 118.628906 288.003906 118.847656 288.226562 118.847656 288.226562 C 119.070312 288.226562 119.289062 288.226562 119.507812 288.226562 L 137.300781 280.753906 C 138.839844 280.097656 140.816406 280.535156 142.136719 281.855469 C 143.453125 283.390625 144.992188 284.710938 146.75 285.808594 C 148.726562 287.125 149.164062 289.980469 147.847656 291.960938 C 146.527344 293.9375 143.671875 294.375 141.695312 293.058594 C 140.378906 292.179688 139.058594 291.082031 137.960938 289.980469 L 122.804688 296.351562 C 121.703125 296.792969 120.386719 297.011719 119.289062 297.011719 Z M 119.289062 297.011719 " fill-opacity="1" fill-rule="evenodd"/><path fill="#0b1972" d="M 154.21875 280.316406 C 153.558594 280.316406 152.679688 280.097656 152.019531 279.65625 C 144.550781 275.042969 140.597656 266.257812 141.695312 257.6875 C 142.355469 251.757812 145.429688 246.265625 150.261719 242.75 C 155.097656 239.015625 161.027344 237.257812 166.960938 238.136719 C 171.574219 238.796875 175.746094 240.554688 179.042969 243.628906 C 181.019531 245.386719 181.019531 248.023438 179.480469 249.78125 C 177.945312 251.757812 175.085938 251.757812 173.332031 250.21875 C 171.132812 248.460938 168.71875 247.144531 165.859375 246.925781 C 162.125 246.484375 158.613281 247.363281 155.535156 249.5625 C 152.679688 251.976562 150.921875 255.050781 150.261719 258.789062 C 149.605469 264.058594 152.242188 269.332031 156.632812 272.1875 C 158.613281 273.507812 159.269531 276.363281 157.953125 278.339844 C 157.292969 279.65625 155.753906 280.316406 154.21875 280.316406 Z M 154.21875 280.316406 " fill-opacity="1" fill-rule="evenodd"/></svg>