<svg xmlns="http://www.w3.org/2000/svg" xmlns:xlink="http://www.w3.org/1999/xlink" width="500" zoomAndPan="magnify" viewBox="0 0 375 374.999991" height="500" preserveAspectRatio="xMidYMid meet" version="1.0"><defs><clipPath id="84637ee370"><path d="M 187.5 0 C 83.945312 0 0 83.945312 0 187.5 C 0 291.054688 83.945312 375 187.5 375 C 291.054688 375 375 291.054688 375 187.5 C 375 83.945312 291.054688 0 187.5 0 Z M 187.5 0 " clip-rule="nonzero"/></clipPath><clipPath id="4a4fa3c35b"><path d="M 0 0 L 375 0 L 375 375 L 0 375 Z M 0 0 " clip-rule="nonzero"/></clipPath><clipPath id="fd34708595"><path d="M 187.5 0 C 83.945312 0 0 83.945312 0 187.5 C 0 291.054688 83.945312 375 187.5 375 C 291.054688 375 375 291.054688 375 187.5 C 375 83.945312 291.054688 0 187.5 0 Z M 187.5 0 " clip-rule="nonzero"/></clipPath><clipPath id="c41d3ab5f8"><rect x="0" width="375" y="0" height="375"/></clipPath><clipPath id="b07fee8ed2"><path d="M 83 265 L 292 265 L 292 303.484375 L 83 303.484375 Z M 83 265 " clip-rule="nonzero"/></clipPath><clipPath id="bedf7e8f7b"><path d="M 64.707031 58.234375 L 309.957031 58.234375 L 309.957031 247 L 64.707031 247 Z M 64.707031 58.234375 " clip-rule="nonzero"/></clipPath></defs><g clip-path="url(#84637ee370)"><g transform="matrix(1, 0, 0, 1, 0, 0)"><g clip-path="url(#c41d3ab5f8)"><g clip-path="url(#4a4fa3c35b)"><g clip-path="url(#fd34708595)"><rect x="-82.5" width="540" fill="#e6ac41" height="539.999987" y="-82.499998" fill-opacity="1"/></g></g></g></g></g><path fill="#eaf0fa" d="M 212.4375 263.425781 C 219.917969 263.425781 225.867188 257.476562 225.867188 249.996094 L 225.867188 242.320312 C 225.867188 234.839844 219.917969 228.890625 212.4375 228.890625 C 204.953125 228.890625 199.007812 234.839844 199.007812 242.320312 L 199.007812 249.996094 C 199.007812 257.476562 204.953125 263.425781 212.4375 263.425781 Z M 212.4375 263.425781 " fill-opacity="1" fill-rule="nonzero"/><path fill="#eaf0fa" d="M 262.320312 263.425781 C 269.804688 263.425781 275.75 257.476562 275.75 249.996094 L 275.75 242.320312 C 275.75 234.839844 269.804688 228.890625 262.320312 228.890625 C 254.839844 228.890625 248.890625 234.839844 248.890625 242.320312 L 248.890625 249.996094 C 248.890625 257.476562 254.839844 263.425781 262.320312 263.425781 Z M 262.320312 263.425781 " fill-opacity="1" fill-rule="nonzero"/><path fill="#eaf0fa" d="M 162.554688 263.425781 C 170.035156 263.425781 175.984375 257.476562 175.984375 249.996094 L 175.984375 242.320312 C 175.984375 234.839844 170.035156 228.890625 162.554688 228.890625 C 155.070312 228.890625 149.125 234.839844 149.125 242.320312 L 149.125 249.996094 C 149.125 257.476562 155.070312 263.425781 162.554688 263.425781 Z M 162.554688 263.425781 " fill-opacity="1" fill-rule="nonzero"/><path fill="#eaf0fa" d="M 112.671875 263.425781 C 120.152344 263.425781 126.101562 257.476562 126.101562 249.996094 L 126.101562 242.320312 C 126.101562 234.839844 120.152344 228.890625 112.671875 228.890625 C 105.1875 228.890625 99.242188 234.839844 99.242188 242.320312 L 99.242188 249.996094 C 99.242188 257.476562 105.1875 263.425781 112.671875 263.425781 Z M 112.671875 263.425781 " fill-opacity="1" fill-rule="nonzero"/><g clip-path="url(#b07fee8ed2)"><path fill="#eaf0fa" d="M 285.726562 273.210938 L 272.679688 265.917969 C 270.953125 264.960938 268.84375 265.34375 267.691406 267.070312 L 262.320312 274.359375 L 256.949219 267.070312 C 255.796875 265.535156 253.6875 264.960938 251.960938 265.917969 L 239.105469 273.210938 C 238.914062 273.210938 238.144531 273.785156 237.378906 274.359375 C 236.613281 273.59375 235.84375 273.210938 235.84375 273.210938 L 222.796875 265.917969 C 221.070312 264.960938 218.960938 265.34375 217.808594 267.070312 L 212.4375 274.359375 L 207.066406 267.070312 C 205.914062 265.535156 203.804688 264.960938 202.078125 265.917969 L 189.222656 273.210938 C 189.03125 273.210938 188.261719 273.785156 187.496094 274.359375 C 186.726562 273.59375 185.960938 273.210938 185.960938 273.210938 L 172.914062 265.917969 C 171.1875 264.960938 169.078125 265.34375 167.925781 267.070312 L 162.554688 274.359375 L 157.183594 267.070312 C 156.03125 265.535156 153.921875 264.960938 152.195312 265.917969 L 139.339844 273.210938 C 139.148438 273.210938 138.378906 273.785156 137.613281 274.359375 C 136.84375 273.59375 136.078125 273.210938 136.078125 273.210938 L 123.03125 265.917969 C 121.304688 264.960938 119.195312 265.34375 118.042969 267.070312 L 112.671875 274.359375 L 107.300781 267.070312 C 106.148438 265.535156 104.039062 264.960938 102.3125 265.917969 L 89.457031 273.210938 C 89.074219 273.402344 85.621094 275.320312 84.46875 279.347656 C 83.890625 281.460938 83.890625 284.335938 83.890625 284.527344 L 83.890625 299.878906 C 83.890625 301.988281 85.621094 303.714844 87.730469 303.714844 C 89.839844 303.714844 91.566406 301.988281 91.566406 299.878906 L 91.566406 284.527344 C 91.566406 283.761719 91.566406 282.226562 91.949219 281.460938 C 92.140625 280.691406 93.101562 280.117188 93.292969 279.925781 L 103.269531 274.167969 L 109.601562 282.800781 C 110.367188 283.761719 111.710938 284.335938 112.863281 284.335938 C 114.015625 284.335938 115.164062 283.761719 115.933594 282.800781 L 122.265625 274.167969 L 132.433594 279.925781 C 132.433594 279.925781 133.390625 280.5 133.582031 281.269531 C 133.777344 282.226562 133.96875 283.570312 133.96875 284.527344 L 133.96875 299.878906 C 133.96875 301.988281 135.695312 303.714844 137.804688 303.714844 C 139.914062 303.714844 141.640625 301.988281 141.640625 299.878906 L 141.640625 284.527344 C 141.640625 283.761719 141.640625 282.226562 142.027344 281.460938 C 142.21875 280.691406 143.175781 280.117188 143.367188 279.925781 L 153.34375 274.167969 L 159.675781 282.800781 C 160.445312 283.761719 161.785156 284.335938 162.9375 284.335938 C 164.089844 284.335938 165.242188 283.761719 166.007812 282.800781 L 172.339844 274.167969 L 182.507812 279.925781 C 182.507812 279.925781 183.464844 280.5 183.660156 281.269531 C 183.851562 282.226562 184.042969 283.570312 184.042969 284.527344 L 184.042969 299.878906 C 184.042969 301.988281 185.769531 303.714844 187.878906 303.714844 C 189.988281 303.714844 191.714844 301.988281 191.714844 299.878906 L 191.714844 284.527344 C 191.714844 283.761719 191.714844 282.226562 192.101562 281.460938 C 192.292969 280.691406 193.25 280.117188 193.445312 279.925781 L 203.421875 274.167969 L 209.75 282.800781 C 210.519531 283.761719 211.863281 284.335938 213.011719 284.335938 C 214.164062 284.335938 215.316406 283.761719 216.082031 282.800781 L 222.414062 274.167969 L 232.582031 279.925781 C 232.582031 279.925781 233.542969 280.5 233.734375 281.269531 C 233.925781 282.226562 234.117188 283.570312 234.117188 284.527344 L 234.117188 299.878906 C 234.117188 301.988281 235.84375 303.714844 237.953125 303.714844 C 240.066406 303.714844 241.792969 301.988281 241.792969 299.878906 L 241.792969 284.527344 C 241.792969 283.761719 241.792969 282.226562 242.175781 281.460938 C 242.367188 280.691406 243.328125 280.117188 243.519531 279.925781 L 253.496094 274.167969 L 259.828125 282.800781 C 260.59375 283.761719 261.9375 284.335938 263.085938 284.335938 C 264.238281 284.335938 265.390625 283.761719 266.15625 282.800781 L 272.488281 274.167969 L 282.65625 279.925781 C 282.65625 279.925781 283.617188 280.5 283.808594 281.269531 C 284 282.226562 284.191406 283.570312 284.191406 284.527344 L 284.191406 299.878906 C 284.191406 301.988281 285.917969 303.714844 288.03125 303.714844 C 290.140625 303.714844 291.867188 301.988281 291.867188 299.878906 L 291.867188 284.722656 C 291.867188 284.335938 291.867188 281.652344 291.289062 279.539062 C 289.371094 275.320312 285.917969 273.402344 285.726562 273.210938 Z M 285.726562 273.210938 " fill-opacity="1" fill-rule="nonzero"/></g><g clip-path="url(#bedf7e8f7b)"><path fill="#eaf0fa" d="M 306.449219 238.292969 L 302.609375 238.292969 L 302.609375 161.738281 C 302.609375 159.628906 300.882812 157.902344 298.773438 157.902344 L 283.425781 157.902344 L 283.425781 119.53125 C 283.425781 118.570312 283.042969 117.613281 282.273438 116.84375 C 282.273438 116.84375 263.085938 97.851562 263.085938 97.851562 C 262.320312 97.085938 261.359375 96.699219 260.402344 96.699219 L 237.378906 96.699219 L 237.378906 83.269531 C 237.378906 81.734375 236.417969 80.390625 235.078125 79.816406 L 189.03125 58.710938 C 188.070312 58.328125 186.921875 58.328125 185.769531 58.710938 L 139.722656 79.816406 C 138.378906 80.390625 137.421875 81.734375 137.421875 83.269531 L 137.421875 96.699219 C 137.421875 96.699219 114.398438 96.699219 114.398438 96.699219 C 113.4375 96.699219 112.289062 97.085938 111.710938 97.851562 L 92.527344 116.84375 C 91.757812 117.613281 91.375 118.570312 91.375 119.53125 L 91.375 157.902344 L 76.21875 157.902344 C 74.109375 157.902344 72.382812 159.628906 72.382812 161.738281 L 72.382812 238.484375 L 68.542969 238.484375 C 66.433594 238.484375 64.707031 240.210938 64.707031 242.320312 C 64.707031 244.429688 66.433594 246.15625 68.542969 246.15625 L 91.566406 246.15625 L 91.566406 242.320312 C 91.566406 230.617188 100.96875 221.214844 112.671875 221.214844 C 114.589844 221.214844 116.507812 221.601562 118.425781 221.984375 L 118.425781 104.183594 L 137.613281 104.183594 L 137.613281 238.484375 L 133.390625 238.484375 C 133.582031 239.058594 133.582031 239.828125 133.777344 240.402344 C 133.777344 240.976562 133.96875 241.746094 133.96875 242.511719 L 133.96875 246.15625 L 141.640625 246.15625 L 141.640625 242.320312 C 141.640625 230.617188 151.042969 221.214844 162.746094 221.214844 C 165.433594 221.214844 168.117188 221.792969 170.421875 222.75 L 170.421875 207.785156 L 183.851562 207.785156 L 183.851562 238.484375 L 183.46875 238.484375 C 183.660156 239.058594 183.660156 239.828125 183.851562 240.402344 C 183.851562 240.976562 184.042969 241.746094 184.042969 242.511719 L 184.042969 246.15625 L 191.714844 246.15625 L 191.714844 242.320312 C 191.714844 241.554688 191.714844 240.976562 191.910156 240.210938 C 191.910156 239.632812 192.101562 238.867188 192.292969 238.292969 L 191.332031 238.292969 L 191.332031 207.59375 L 204.761719 207.59375 L 204.761719 222.558594 C 207.066406 221.601562 209.75 221.023438 212.4375 221.023438 C 224.140625 221.023438 233.542969 230.425781 233.542969 242.128906 L 233.542969 245.773438 L 241.214844 245.773438 L 241.214844 242.320312 C 241.214844 241.554688 241.214844 240.976562 241.40625 240.210938 C 241.40625 239.632812 241.601562 238.867188 241.792969 238.292969 L 237.378906 238.292969 L 237.378906 104.183594 L 256.566406 104.183594 L 256.566406 222.175781 C 258.484375 221.601562 260.402344 221.40625 262.320312 221.40625 C 274.023438 221.40625 283.425781 230.808594 283.425781 242.511719 L 283.425781 246.15625 L 306.449219 246.15625 C 308.558594 246.15625 310.285156 244.429688 310.285156 242.320312 C 310.285156 240.019531 308.558594 238.292969 306.449219 238.292969 Z M 91.566406 238.292969 L 80.054688 238.292969 L 80.054688 165.578125 L 91.566406 165.578125 Z M 160.636719 192.4375 L 156.796875 192.4375 C 154.6875 192.4375 152.960938 190.710938 152.960938 188.601562 C 152.960938 186.488281 154.6875 184.761719 156.796875 184.761719 L 160.636719 184.761719 C 162.746094 184.761719 164.472656 186.488281 164.472656 188.601562 C 164.472656 190.710938 162.746094 192.4375 160.636719 192.4375 Z M 160.636719 177.089844 L 156.796875 177.089844 C 154.6875 177.089844 152.960938 175.363281 152.960938 173.25 C 152.960938 171.140625 154.6875 169.414062 156.796875 169.414062 L 160.636719 169.414062 C 162.746094 169.414062 164.472656 171.140625 164.472656 173.25 C 164.472656 175.363281 162.746094 177.089844 160.636719 177.089844 Z M 160.636719 161.738281 L 156.796875 161.738281 C 154.6875 161.738281 152.960938 160.011719 152.960938 157.902344 C 152.960938 155.792969 154.6875 154.066406 156.796875 154.066406 L 160.636719 154.066406 C 162.746094 154.066406 164.472656 155.792969 164.472656 157.902344 C 164.472656 160.011719 162.746094 161.738281 160.636719 161.738281 Z M 160.636719 146.390625 L 156.796875 146.390625 C 154.6875 146.390625 152.960938 144.664062 152.960938 142.554688 C 152.960938 140.445312 154.6875 138.71875 156.796875 138.71875 L 160.636719 138.71875 C 162.746094 138.71875 164.472656 140.445312 164.472656 142.554688 C 164.472656 144.664062 162.746094 146.390625 160.636719 146.390625 Z M 160.636719 131.042969 L 156.796875 131.042969 C 154.6875 131.042969 152.960938 129.316406 152.960938 127.207031 C 152.960938 125.09375 154.6875 123.367188 156.796875 123.367188 L 160.636719 123.367188 C 162.746094 123.367188 164.472656 125.09375 164.472656 127.207031 C 164.472656 129.316406 162.746094 131.042969 160.636719 131.042969 Z M 160.636719 115.695312 L 156.796875 115.695312 C 154.6875 115.695312 152.960938 113.96875 152.960938 111.855469 C 152.960938 109.746094 154.6875 108.019531 156.796875 108.019531 L 160.636719 108.019531 C 162.746094 108.019531 164.472656 109.746094 164.472656 111.855469 C 164.472656 113.96875 162.746094 115.695312 160.636719 115.695312 Z M 179.820312 192.4375 L 175.984375 192.4375 C 173.875 192.4375 172.148438 190.710938 172.148438 188.601562 C 172.148438 186.488281 173.875 184.761719 175.984375 184.761719 L 179.820312 184.761719 C 181.933594 184.761719 183.660156 186.488281 183.660156 188.601562 C 183.660156 190.710938 181.933594 192.4375 179.820312 192.4375 Z M 179.820312 177.089844 L 175.984375 177.089844 C 173.875 177.089844 172.148438 175.363281 172.148438 173.25 C 172.148438 171.140625 173.875 169.414062 175.984375 169.414062 L 179.820312 169.414062 C 181.933594 169.414062 183.660156 171.140625 183.660156 173.25 C 183.660156 175.363281 181.933594 177.089844 179.820312 177.089844 Z M 179.820312 161.738281 L 175.984375 161.738281 C 173.875 161.738281 172.148438 160.011719 172.148438 157.902344 C 172.148438 155.792969 173.875 154.066406 175.984375 154.066406 L 179.820312 154.066406 C 181.933594 154.066406 183.660156 155.792969 183.660156 157.902344 C 183.660156 160.011719 181.933594 161.738281 179.820312 161.738281 Z M 179.820312 146.390625 L 175.984375 146.390625 C 173.875 146.390625 172.148438 144.664062 172.148438 142.554688 C 172.148438 140.445312 173.875 138.71875 175.984375 138.71875 L 179.820312 138.71875 C 181.933594 138.71875 183.660156 140.445312 183.660156 142.554688 C 183.660156 144.664062 181.933594 146.390625 179.820312 146.390625 Z M 179.820312 131.042969 L 175.984375 131.042969 C 173.875 131.042969 172.148438 129.316406 172.148438 127.207031 C 172.148438 125.09375 173.875 123.367188 175.984375 123.367188 L 179.820312 123.367188 C 181.933594 123.367188 183.660156 125.09375 183.660156 127.207031 C 183.660156 129.316406 181.933594 131.042969 179.820312 131.042969 Z M 179.820312 115.695312 L 175.984375 115.695312 C 173.875 115.695312 172.148438 113.96875 172.148438 111.855469 C 172.148438 109.746094 173.875 108.019531 175.984375 108.019531 L 179.820312 108.019531 C 181.933594 108.019531 183.660156 109.746094 183.660156 111.855469 C 183.660156 113.96875 181.933594 115.695312 179.820312 115.695312 Z M 199.007812 192.4375 L 195.171875 192.4375 C 193.058594 192.4375 191.332031 190.710938 191.332031 188.601562 C 191.332031 186.488281 193.058594 184.761719 195.171875 184.761719 L 199.007812 184.761719 C 201.117188 184.761719 202.84375 186.488281 202.84375 188.601562 C 202.84375 190.710938 201.117188 192.4375 199.007812 192.4375 Z M 199.007812 177.089844 L 195.171875 177.089844 C 193.058594 177.089844 191.332031 175.363281 191.332031 173.25 C 191.332031 171.140625 193.058594 169.414062 195.171875 169.414062 L 199.007812 169.414062 C 201.117188 169.414062 202.84375 171.140625 202.84375 173.25 C 202.84375 175.363281 201.117188 177.089844 199.007812 177.089844 Z M 199.007812 161.738281 L 195.171875 161.738281 C 193.058594 161.738281 191.332031 160.011719 191.332031 157.902344 C 191.332031 155.792969 193.058594 154.066406 195.171875 154.066406 L 199.007812 154.066406 C 201.117188 154.066406 202.84375 155.792969 202.84375 157.902344 C 202.84375 160.011719 201.117188 161.738281 199.007812 161.738281 Z M 199.007812 146.390625 L 195.171875 146.390625 C 193.058594 146.390625 191.332031 144.664062 191.332031 142.554688 C 191.332031 140.445312 193.058594 138.71875 195.171875 138.71875 L 199.007812 138.71875 C 201.117188 138.71875 202.84375 140.445312 202.84375 142.554688 C 202.84375 144.664062 201.117188 146.390625 199.007812 146.390625 Z M 199.007812 131.042969 L 195.171875 131.042969 C 193.058594 131.042969 191.332031 129.316406 191.332031 127.207031 C 191.332031 125.09375 193.058594 123.367188 195.171875 123.367188 L 199.007812 123.367188 C 201.117188 123.367188 202.84375 125.09375 202.84375 127.207031 C 202.84375 129.316406 201.117188 131.042969 199.007812 131.042969 Z M 199.007812 115.695312 L 195.171875 115.695312 C 193.058594 115.695312 191.332031 113.96875 191.332031 111.855469 C 191.332031 109.746094 193.058594 108.019531 195.171875 108.019531 L 199.007812 108.019531 C 201.117188 108.019531 202.84375 109.746094 202.84375 111.855469 C 202.84375 113.96875 201.117188 115.695312 199.007812 115.695312 Z M 218.191406 192.4375 L 214.355469 192.4375 C 212.246094 192.4375 210.519531 190.710938 210.519531 188.601562 C 210.519531 186.488281 212.246094 184.761719 214.355469 184.761719 L 218.191406 184.761719 C 220.304688 184.761719 222.03125 186.488281 222.03125 188.601562 C 222.03125 190.710938 220.304688 192.4375 218.191406 192.4375 Z M 218.191406 177.089844 L 214.355469 177.089844 C 212.246094 177.089844 210.519531 175.363281 210.519531 173.25 C 210.519531 171.140625 212.246094 169.414062 214.355469 169.414062 L 218.191406 169.414062 C 220.304688 169.414062 222.03125 171.140625 222.03125 173.25 C 222.03125 175.363281 220.304688 177.089844 218.191406 177.089844 Z M 218.191406 161.738281 L 214.355469 161.738281 C 212.246094 161.738281 210.519531 160.011719 210.519531 157.902344 C 210.519531 155.792969 212.246094 154.066406 214.355469 154.066406 L 218.191406 154.066406 C 220.304688 154.066406 222.03125 155.792969 222.03125 157.902344 C 222.03125 160.011719 220.304688 161.738281 218.191406 161.738281 Z M 218.191406 146.390625 L 214.355469 146.390625 C 212.246094 146.390625 210.519531 144.664062 210.519531 142.554688 C 210.519531 140.445312 212.246094 138.71875 214.355469 138.71875 L 218.191406 138.71875 C 220.304688 138.71875 222.03125 140.445312 222.03125 142.554688 C 222.03125 144.664062 220.304688 146.390625 218.191406 146.390625 Z M 218.191406 131.042969 L 214.355469 131.042969 C 212.246094 131.042969 210.519531 129.316406 210.519531 127.207031 C 210.519531 125.09375 212.246094 123.367188 214.355469 123.367188 L 218.191406 123.367188 C 220.304688 123.367188 222.03125 125.09375 222.03125 127.207031 C 222.03125 129.316406 220.304688 131.042969 218.191406 131.042969 Z M 218.191406 115.695312 L 214.355469 115.695312 C 212.246094 115.695312 210.519531 113.96875 210.519531 111.855469 C 210.519531 109.746094 212.246094 108.019531 214.355469 108.019531 L 218.191406 108.019531 C 220.304688 108.019531 222.03125 109.746094 222.03125 111.855469 C 222.03125 113.96875 220.304688 115.695312 218.191406 115.695312 Z M 229.703125 92.671875 L 145.285156 92.671875 L 145.285156 85.574219 L 187.496094 66.195312 L 229.703125 85.574219 Z M 294.9375 238.292969 L 283.425781 238.292969 L 283.425781 165.578125 L 294.9375 165.578125 Z M 294.9375 238.292969 " fill-opacity="1" fill-rule="nonzero"/></g></svg>