<svg xmlns="http://www.w3.org/2000/svg" xmlns:xlink="http://www.w3.org/1999/xlink" width="500" zoomAndPan="magnify" viewBox="0 0 375 374.999991" height="500" preserveAspectRatio="xMidYMid meet" version="1.0"><defs><clipPath id="b4e689daa9"><path d="M 0 0 L 375 0 L 375 375 L 0 375 Z M 0 0 " clip-rule="nonzero"/></clipPath><clipPath id="491aaa1280"><path d="M 187.5 0 C 83.945312 0 0 83.945312 0 187.5 C 0 291.054688 83.945312 375 187.5 375 C 291.054688 375 375 291.054688 375 187.5 C 375 83.945312 291.054688 0 187.5 0 Z M 187.5 0 " clip-rule="nonzero"/></clipPath><clipPath id="aa0bd26230"><path d="M 0 0 L 375 0 L 375 375 L 0 375 Z M 0 0 " clip-rule="nonzero"/></clipPath><clipPath id="e235c4ecb7"><path d="M 187.5 0 C 83.945312 0 0 83.945312 0 187.5 C 0 291.054688 83.945312 375 187.5 375 C 291.054688 375 375 291.054688 375 187.5 C 375 83.945312 291.054688 0 187.5 0 Z M 187.5 0 " clip-rule="nonzero"/></clipPath><clipPath id="23fafac2ea"><rect x="0" width="375" y="0" height="375"/></clipPath><clipPath id="d4c306d6ef"><path d="M 85.9375 71.335938 L 288.039062 71.335938 L 288.039062 283.714844 L 85.9375 283.714844 Z M 85.9375 71.335938 " clip-rule="nonzero"/></clipPath><clipPath id="d29e1548f5"><rect x="0" width="375" y="0" height="375"/></clipPath></defs><g transform="matrix(1, 0, 0, 1, 0, 0)"><g clip-path="url(#d29e1548f5)"><g clip-path="url(#b4e689daa9)"><g clip-path="url(#491aaa1280)"><g transform="matrix(1, 0, 0, 1, 0, 0)"><g clip-path="url(#23fafac2ea)"><g clip-path="url(#aa0bd26230)"><g clip-path="url(#e235c4ecb7)"><rect x="-136.5" width="648" fill="#e6ac41" y="-136.499997" height="647.999984" fill-opacity="1"/></g></g></g></g></g></g><g clip-path="url(#d4c306d6ef)"><path fill="#eaf0fa" d="M 288.535156 236.707031 C 283.667969 218.324219 278.796875 199.894531 274.066406 181.449219 C 271.945312 173.125 268.808594 165.03125 269.417969 156.128906 C 269.867188 149.511719 269.542969 142.847656 269.527344 136.207031 C 269.527344 128.34375 265.511719 124.386719 257.628906 124.371094 C 249.917969 124.371094 242.203125 124.300781 234.492188 124.371094 C 232.496094 124.371094 231.910156 123.800781 232.003906 121.828125 C 232.15625 118.40625 232.1875 114.96875 232.003906 111.546875 C 231.875 109.300781 232.574219 108.640625 234.828125 108.667969 C 242.972656 108.804688 251.089844 108.734375 259.257812 108.71875 C 264.128906 108.71875 266.078125 106.921875 266.148438 101.980469 C 266.261719 94.203125 266.25 86.351562 266.148438 78.53125 C 266.09375 73.75 263.710938 71.460938 258.9375 71.460938 C 238.8125 71.492188 218.671875 71.511719 198.519531 71.511719 C 193.378906 71.511719 191.101562 73.773438 191.058594 78.949219 C 191 86.664062 190.980469 94.375 191.003906 102.085938 C 191.003906 106.660156 193.089844 108.726562 197.664062 108.734375 C 206.230469 108.734375 214.808594 108.804688 223.375 108.699219 C 225.449219 108.699219 226.203125 109.214844 226.070312 111.355469 C 225.851562 114.675781 225.851562 117.992188 226.070312 121.3125 C 226.273438 124.011719 225.171875 124.421875 222.796875 124.398438 C 209.730469 124.300781 196.636719 124.351562 183.585938 124.351562 C 177.734375 124.351562 177.734375 124.351562 177.632812 118.582031 C 177.519531 111.292969 173.039062 106.859375 165.785156 106.859375 L 118.210938 106.859375 C 110.433594 106.859375 106.410156 110.882812 106.390625 118.722656 C 106.355469 132.332031 106.390625 145.933594 106.390625 159.539062 C 106.453125 160.714844 106.371094 161.882812 106.144531 163.039062 C 101.003906 182.832031 95.730469 202.53125 90.695312 222.320312 C 88.886719 229.390625 86.105469 236.34375 86.027344 243.804688 C 85.9375 253.207031 85.9375 262.625 85.9375 272.054688 C 85.9375 279.414062 90.136719 283.609375 97.453125 283.609375 C 127.347656 283.609375 157.238281 283.609375 187.128906 283.609375 C 217.238281 283.609375 247.347656 283.609375 277.453125 283.609375 C 284.566406 283.609375 289.035156 279.105469 289.035156 272 C 289.035156 261.628906 289.035156 251.242188 289.035156 240.835938 C 289.050781 239.4375 288.882812 238.058594 288.535156 236.707031 Z M 199.882812 102.878906 C 197.550781 102.878906 197.011719 102.074219 197.054688 99.917969 C 197.167969 93.609375 197.183594 87.289062 197.054688 80.984375 C 197.003906 78.59375 197.8125 77.832031 200.1875 77.859375 C 209.703125 77.972656 219.226562 77.875 228.75 77.875 C 238.167969 77.875 247.585938 77.964844 257.03125 77.875 C 259.371094 77.875 260.246094 78.488281 260.191406 80.941406 C 260.042969 87.355469 260.0625 93.773438 260.191406 100.191406 C 260.230469 102.355469 259.433594 102.894531 257.363281 102.886719 C 238.199219 102.816406 219.039062 102.8125 199.882812 102.878906 Z M 177.605469 133.511719 C 177.605469 131.390625 177.953125 130.542969 180.347656 130.558594 C 206.261719 130.644531 232.179688 130.609375 258.117188 130.621094 C 261.894531 130.621094 263.335938 132.078125 263.34375 135.8125 C 263.34375 144.054688 263.257812 152.296875 263.40625 160.554688 C 263.449219 162.796875 262.699219 163.179688 260.671875 163.171875 C 247.289062 163.101562 233.898438 163.128906 220.511719 163.128906 C 207.234375 163.128906 193.957031 163.066406 180.679688 163.1875 C 178.292969 163.1875 177.578125 162.613281 177.621094 160.175781 C 177.742188 151.289062 177.703125 142.398438 177.605469 133.511719 Z M 112.257812 119.375 C 112.257812 114.828125 114.125 113.011719 118.683594 113.011719 C 133.453125 113.011719 148.21875 113.023438 162.984375 113.046875 C 164.167969 113.046875 165.339844 113.101562 166.519531 113.222656 C 169.617188 113.546875 171.347656 115.34375 171.363281 118.449219 C 171.40625 132.585938 171.363281 146.683594 171.433594 160.808594 C 171.433594 162.996094 170.535156 163.1875 168.769531 163.179688 C 159.78125 163.109375 150.789062 163.144531 141.804688 163.144531 C 132.925781 163.144531 124.035156 163.050781 115.15625 163.199219 C 112.71875 163.242188 112.171875 162.492188 112.195312 160.140625 C 112.308594 146.542969 112.238281 132.953125 112.257812 119.375 Z M 94.101562 233.277344 C 99.574219 212.832031 104.894531 192.34375 110.066406 171.8125 C 110.609375 169.65625 111.480469 169.144531 113.496094 169.152344 C 162.894531 169.199219 212.292969 169.199219 261.6875 169.152344 C 263.808594 169.152344 264.679688 169.859375 265.179688 171.769531 C 270.554688 192.46875 275.90625 213.175781 281.441406 233.828125 C 282.210938 236.65625 281.320312 236.71875 279.058594 236.71875 C 248.515625 236.671875 217.976562 236.671875 187.441406 236.71875 C 157.222656 236.71875 127.011719 236.679688 96.789062 236.777344 C 93.933594 236.742188 93.277344 236.34375 94.101562 233.277344 Z M 282.960938 270.945312 C 282.960938 275.894531 281.144531 277.632812 276.148438 277.640625 L 98.480469 277.640625 C 93.75 277.640625 92.222656 276.101562 92.222656 271.277344 C 92.222656 262.792969 92.351562 254.351562 92.222656 245.902344 C 92.179688 243.273438 92.851562 242.523438 95.566406 242.539062 C 126.304688 242.644531 157.074219 242.601562 187.773438 242.601562 C 218.410156 242.601562 249.046875 242.582031 279.683594 242.539062 C 282.277344 242.539062 283.144531 243.148438 283.089844 245.863281 C 282.855469 254.246094 282.996094 262.597656 282.960938 270.945312 Z M 282.960938 270.945312 " fill-opacity="1" fill-rule="nonzero"/></g><path fill="#eaf0fa" d="M 209.449219 257.867188 C 195.015625 257.898438 180.589844 257.898438 166.167969 257.867188 C 163.953125 257.867188 162.25 258.390625 162.257812 260.929688 C 162.265625 263.464844 164.109375 263.941406 166.25 263.933594 C 173.320312 263.933594 180.390625 263.933594 187.410156 263.933594 C 194.789062 263.933594 202.164062 263.933594 209.535156 263.933594 C 211.585938 263.933594 213.296875 263.304688 213.335938 261 C 213.378906 258.511719 211.683594 257.859375 209.449219 257.867188 Z M 209.449219 257.867188 " fill-opacity="1" fill-rule="nonzero"/><path fill="#eaf0fa" d="M 130.476562 151.074219 C 138.195312 151.191406 145.90625 151.191406 153.609375 151.074219 C 157.730469 151.019531 160.371094 148.246094 160.433594 144.175781 C 160.503906 139.78125 160.503906 135.390625 160.433594 131.003906 C 160.375 126.761719 158.078125 124.457031 153.886719 124.359375 C 150.035156 124.273438 146.179688 124.359375 142.320312 124.359375 L 136.523438 124.359375 C 134.492188 124.359375 132.449219 124.292969 130.421875 124.359375 C 125.769531 124.542969 123.78125 126.480469 123.71875 131.089844 C 123.65625 135.472656 123.640625 139.863281 123.71875 144.253906 C 123.796875 148.644531 125.980469 151.003906 130.476562 151.074219 Z M 129.699219 132.917969 C 129.652344 131.054688 130.492188 130.53125 132.230469 130.585938 C 135.449219 130.679688 138.65625 130.585938 141.875 130.585938 C 145.089844 130.585938 148.511719 130.644531 151.835938 130.585938 C 153.382812 130.542969 154.199219 130.855469 154.125 132.707031 C 154 136.023438 154.011719 139.347656 154.125 142.660156 C 154.183594 144.367188 153.5625 144.839844 151.898438 144.824219 C 145.261719 144.742188 138.617188 144.753906 131.976562 144.824219 C 130.34375 144.824219 129.664062 144.308594 129.714844 142.605469 C 129.769531 139.382812 129.769531 136.128906 129.6875 132.917969 Z M 129.699219 132.917969 " fill-opacity="1" fill-rule="nonzero"/><path fill="#eaf0fa" d="M 125.734375 198 C 131.070312 198.082031 133.785156 198.082031 139.125 198 C 141.953125 197.964844 143.804688 196.046875 143.847656 193.21875 C 143.898438 190.179688 143.898438 187.140625 143.847656 184.105469 C 143.804688 181.191406 142.214844 179.566406 139.316406 179.503906 C 136.648438 179.441406 136.601562 179.503906 133.933594 179.503906 L 129.925781 179.503906 C 128.511719 179.503906 127.097656 179.460938 125.683594 179.503906 C 122.460938 179.628906 121.089844 180.996094 121.039062 184.164062 C 120.996094 187.199219 120.996094 190.234375 121.039062 193.277344 C 121.101562 196.34375 122.628906 197.949219 125.734375 198 Z M 127.585938 186.53125 C 127.585938 185.667969 127.945312 185.429688 128.753906 185.457031 C 130.230469 185.5 131.714844 185.457031 133.191406 185.457031 C 134.671875 185.457031 134.507812 185.457031 136.019531 185.457031 C 136.726562 185.457031 137.109375 185.578125 137.074219 186.417969 C 137.015625 187.945312 137.023438 189.480469 137.074219 191.007812 C 137.074219 191.789062 136.8125 192.011719 136.050781 192.003906 C 132.988281 191.96875 131.671875 191.96875 128.609375 192.003906 C 127.855469 192.003906 127.542969 191.761719 127.570312 190.976562 C 127.648438 189.492188 127.648438 188.015625 127.585938 186.53125 Z M 127.585938 186.53125 " fill-opacity="1" fill-rule="nonzero"/><path fill="#eaf0fa" d="M 162.425781 198 C 167.757812 198.082031 170.480469 198.082031 175.808594 198 C 178.636719 197.964844 180.496094 196.046875 180.539062 193.21875 C 180.582031 190.179688 180.582031 187.140625 180.539062 184.105469 C 180.496094 181.191406 178.90625 179.566406 176.007812 179.503906 C 173.335938 179.441406 173.292969 179.503906 170.621094 179.503906 L 166.621094 179.503906 C 165.207031 179.503906 163.792969 179.460938 162.378906 179.503906 C 159.160156 179.628906 157.78125 180.996094 157.738281 184.164062 C 157.695312 187.199219 157.695312 190.234375 157.738281 193.277344 C 157.789062 196.34375 159.324219 197.949219 162.425781 198 Z M 164.273438 186.53125 C 164.273438 185.667969 164.640625 185.429688 165.4375 185.457031 C 166.917969 185.5 168.402344 185.457031 169.886719 185.457031 C 171.371094 185.457031 171.199219 185.457031 172.714844 185.457031 C 173.421875 185.457031 173.800781 185.578125 173.773438 186.417969 C 173.710938 187.945312 173.71875 189.480469 173.773438 191.007812 C 173.773438 191.789062 173.511719 192.011719 172.742188 192.003906 C 169.679688 191.96875 168.367188 191.96875 165.3125 192.003906 C 164.554688 192.003906 164.242188 191.761719 164.265625 190.976562 C 164.3125 189.492188 164.316406 188.011719 164.273438 186.53125 Z M 164.273438 186.53125 " fill-opacity="1" fill-rule="nonzero"/><path fill="#eaf0fa" d="M 199.113281 198 C 204.449219 198.082031 207.164062 198.082031 212.503906 198 C 215.332031 197.964844 217.183594 196.046875 217.226562 193.21875 C 217.277344 190.179688 217.277344 187.140625 217.226562 184.105469 C 217.183594 181.191406 215.59375 179.566406 212.695312 179.503906 C 210.027344 179.441406 209.980469 179.503906 207.3125 179.503906 L 203.296875 179.503906 C 201.882812 179.503906 200.46875 179.460938 199.054688 179.503906 C 195.832031 179.628906 194.460938 180.996094 194.410156 184.164062 C 194.367188 187.199219 194.367188 190.234375 194.410156 193.277344 C 194.480469 196.34375 196.007812 197.949219 199.113281 198 Z M 200.964844 186.53125 C 200.964844 185.667969 201.324219 185.429688 202.132812 185.457031 C 203.609375 185.5 205.09375 185.457031 206.570312 185.457031 C 208.050781 185.457031 207.886719 185.457031 209.398438 185.457031 C 210.105469 185.457031 210.488281 185.578125 210.453125 186.417969 C 210.394531 187.945312 210.402344 189.480469 210.453125 191.007812 C 210.453125 191.789062 210.191406 192.011719 209.425781 192.003906 C 206.367188 191.96875 205.050781 191.96875 201.988281 192.003906 C 201.242188 192.003906 200.921875 191.761719 200.949219 190.976562 C 201.007812 189.492188 201 188.015625 200.964844 186.53125 Z M 200.964844 186.53125 " fill-opacity="1" fill-rule="nonzero"/><path fill="#eaf0fa" d="M 235.820312 198 C 241.152344 198.082031 243.871094 198.082031 249.203125 198 C 252.066406 197.964844 253.890625 196.046875 253.933594 193.21875 C 253.976562 190.179688 253.976562 187.140625 253.933594 184.105469 C 253.890625 181.191406 252.300781 179.566406 249.402344 179.503906 C 246.730469 179.441406 246.6875 179.503906 244.015625 179.503906 L 240.011719 179.503906 C 238.597656 179.503906 237.183594 179.460938 235.769531 179.503906 C 232.554688 179.628906 231.175781 180.996094 231.132812 184.164062 C 231.089844 187.199219 231.089844 190.234375 231.132812 193.277344 C 231.167969 196.34375 232.703125 197.949219 235.820312 198 Z M 237.664062 186.53125 C 237.664062 185.667969 238.03125 185.429688 238.832031 185.457031 C 240.316406 185.5 241.792969 185.457031 243.277344 185.457031 C 244.761719 185.457031 244.59375 185.457031 246.105469 185.457031 C 246.8125 185.457031 247.195312 185.578125 247.167969 186.417969 C 247.101562 187.945312 247.109375 189.480469 247.167969 191.007812 C 247.167969 191.789062 246.90625 192.011719 246.136719 192.003906 C 243.082031 191.96875 241.765625 191.96875 238.703125 192.003906 C 237.949219 192.003906 237.636719 191.761719 237.65625 190.976562 C 237.695312 189.492188 237.691406 188.011719 237.652344 186.53125 Z M 237.664062 186.53125 " fill-opacity="1" fill-rule="nonzero"/><path fill="#eaf0fa" d="M 125.734375 225.691406 C 131.070312 225.777344 133.785156 225.78125 139.125 225.691406 C 141.953125 225.65625 143.804688 223.738281 143.847656 220.910156 C 143.898438 217.871094 143.898438 214.835938 143.847656 211.800781 C 143.804688 208.878906 142.214844 207.261719 139.316406 207.195312 C 136.648438 207.132812 136.601562 207.195312 133.933594 207.195312 L 129.925781 207.195312 C 128.511719 207.195312 127.097656 207.152344 125.683594 207.195312 C 122.460938 207.324219 121.089844 208.6875 121.039062 211.855469 C 120.996094 214.890625 120.996094 217.929688 121.039062 220.96875 C 121.101562 224.042969 122.628906 225.632812 125.734375 225.691406 Z M 127.585938 214.230469 C 127.585938 213.367188 127.945312 213.128906 128.753906 213.148438 C 130.230469 213.199219 131.714844 213.148438 133.191406 213.148438 C 134.671875 213.148438 134.507812 213.148438 136.019531 213.148438 C 136.726562 213.148438 137.109375 213.269531 137.074219 214.109375 C 137.015625 215.636719 137.023438 217.164062 137.074219 218.699219 C 137.074219 219.484375 136.8125 219.703125 136.050781 219.6875 C 132.988281 219.6875 131.671875 219.6875 128.609375 219.6875 C 127.855469 219.6875 127.542969 219.449219 127.570312 218.664062 C 127.648438 217.191406 127.648438 215.738281 127.585938 214.230469 Z M 127.585938 214.230469 " fill-opacity="1" fill-rule="nonzero"/><path fill="#eaf0fa" d="M 162.425781 225.691406 C 167.757812 225.777344 170.480469 225.78125 175.808594 225.691406 C 178.636719 225.65625 180.496094 223.738281 180.539062 220.910156 C 180.582031 217.871094 180.582031 214.835938 180.539062 211.800781 C 180.496094 208.878906 178.90625 207.261719 176.007812 207.195312 C 173.335938 207.132812 173.292969 207.195312 170.621094 207.195312 L 166.621094 207.195312 C 165.207031 207.195312 163.792969 207.152344 162.378906 207.195312 C 159.160156 207.324219 157.78125 208.6875 157.738281 211.855469 C 157.695312 214.890625 157.695312 217.929688 157.738281 220.96875 C 157.789062 224.042969 159.324219 225.632812 162.425781 225.691406 Z M 164.273438 214.230469 C 164.273438 213.367188 164.640625 213.128906 165.4375 213.148438 C 166.917969 213.199219 168.402344 213.148438 169.886719 213.148438 C 171.371094 213.148438 171.199219 213.148438 172.714844 213.148438 C 173.421875 213.148438 173.800781 213.269531 173.773438 214.109375 C 173.710938 215.636719 173.71875 217.164062 173.773438 218.699219 C 173.773438 219.484375 173.511719 219.703125 172.742188 219.6875 C 169.679688 219.6875 168.367188 219.6875 165.3125 219.6875 C 164.554688 219.6875 164.242188 219.449219 164.265625 218.664062 C 164.316406 217.191406 164.316406 215.738281 164.273438 214.230469 Z M 164.273438 214.230469 " fill-opacity="1" fill-rule="nonzero"/><path fill="#eaf0fa" d="M 199.113281 225.691406 C 204.449219 225.777344 207.164062 225.78125 212.503906 225.691406 C 215.332031 225.65625 217.183594 223.738281 217.226562 220.910156 C 217.277344 217.871094 217.277344 214.835938 217.226562 211.800781 C 217.183594 208.878906 215.59375 207.261719 212.695312 207.195312 C 210.027344 207.132812 209.980469 207.195312 207.3125 207.195312 L 203.296875 207.195312 C 201.882812 207.195312 200.46875 207.152344 199.054688 207.195312 C 195.832031 207.324219 194.460938 208.6875 194.410156 211.855469 C 194.367188 214.890625 194.367188 217.929688 194.410156 220.96875 C 194.480469 224.042969 196.007812 225.632812 199.113281 225.691406 Z M 200.964844 214.230469 C 200.964844 213.367188 201.324219 213.128906 202.132812 213.148438 C 203.609375 213.199219 205.09375 213.148438 206.570312 213.148438 C 208.050781 213.148438 207.886719 213.148438 209.398438 213.148438 C 210.105469 213.148438 210.488281 213.269531 210.453125 214.109375 C 210.394531 215.636719 210.402344 217.164062 210.453125 218.699219 C 210.453125 219.484375 210.191406 219.703125 209.425781 219.6875 C 206.367188 219.6875 205.050781 219.6875 201.988281 219.6875 C 201.242188 219.6875 200.921875 219.449219 200.949219 218.664062 C 201.007812 217.191406 201 215.738281 200.964844 214.230469 Z M 200.964844 214.230469 " fill-opacity="1" fill-rule="nonzero"/><path fill="#eaf0fa" d="M 235.820312 225.691406 C 241.152344 225.777344 243.871094 225.78125 249.203125 225.691406 C 252.066406 225.65625 253.890625 223.738281 253.933594 220.910156 C 253.976562 217.871094 253.976562 214.835938 253.933594 211.800781 C 253.890625 208.878906 252.300781 207.261719 249.402344 207.195312 C 246.730469 207.132812 246.6875 207.195312 244.015625 207.195312 L 240.011719 207.195312 C 238.597656 207.195312 237.183594 207.152344 235.769531 207.195312 C 232.554688 207.324219 231.175781 208.6875 231.132812 211.855469 C 231.089844 214.890625 231.089844 217.929688 231.132812 220.96875 C 231.167969 224.042969 232.703125 225.632812 235.820312 225.691406 Z M 237.664062 214.230469 C 237.664062 213.367188 238.03125 213.128906 238.832031 213.148438 C 240.316406 213.199219 241.792969 213.148438 243.277344 213.148438 C 244.761719 213.148438 244.59375 213.148438 246.105469 213.148438 C 246.8125 213.148438 247.195312 213.269531 247.167969 214.109375 C 247.101562 215.636719 247.109375 217.164062 247.167969 218.699219 C 247.167969 219.484375 246.90625 219.703125 246.136719 219.6875 C 243.082031 219.6875 241.765625 219.6875 238.703125 219.6875 C 237.949219 219.6875 237.636719 219.449219 237.65625 218.664062 C 237.691406 217.191406 237.691406 215.738281 237.652344 214.230469 Z M 237.664062 214.230469 " fill-opacity="1" fill-rule="nonzero"/></g></g></svg>