<svg xmlns="http://www.w3.org/2000/svg" xmlns:xlink="http://www.w3.org/1999/xlink" width="500" zoomAndPan="magnify" viewBox="0 0 375 374.999991" height="500" preserveAspectRatio="xMidYMid meet" version="1.0"><defs><clipPath id="b53604f8f6"><path d="M 187.5 0 C 83.945312 0 0 83.945312 0 187.5 C 0 291.054688 83.945312 375 187.5 375 C 291.054688 375 375 291.054688 375 187.5 C 375 83.945312 291.054688 0 187.5 0 Z M 187.5 0 " clip-rule="nonzero"/></clipPath><clipPath id="3eb5e23a5a"><path d="M 0 0 L 375 0 L 375 375 L 0 375 Z M 0 0 " clip-rule="nonzero"/></clipPath><clipPath id="0edcd8860c"><path d="M 187.5 0 C 83.945312 0 0 83.945312 0 187.5 C 0 291.054688 83.945312 375 187.5 375 C 291.054688 375 375 291.054688 375 187.5 C 375 83.945312 291.054688 0 187.5 0 Z M 187.5 0 " clip-rule="nonzero"/></clipPath><clipPath id="185a20efb1"><rect x="0" width="375" y="0" height="375"/></clipPath><clipPath id="83b231bd55"><path d="M 57.6875 71.335938 L 317.1875 71.335938 L 317.1875 301.585938 L 57.6875 301.585938 Z M 57.6875 71.335938 " clip-rule="nonzero"/></clipPath></defs><g clip-path="url(#b53604f8f6)"><g transform="matrix(1, 0, 0, 1, 0, 0)"><g clip-path="url(#185a20efb1)"><g clip-path="url(#3eb5e23a5a)"><g clip-path="url(#0edcd8860c)"><rect x="-82.5" width="540" fill="#e6ac41" height="539.999987" y="-82.499998" fill-opacity="1"/></g></g></g></g></g><g clip-path="url(#83b231bd55)"><path fill="#eaf0fa" d="M 225.367188 141.625 C 225.441406 143.578125 223.921875 145.222656 221.96875 145.296875 C 220.019531 145.375 218.371094 143.855469 218.296875 141.902344 C 218.222656 140.148438 217.84375 138.902344 217.140625 138.1875 C 215.980469 137.019531 213.277344 136.816406 211.828125 137.664062 C 211.253906 138 210.773438 138.480469 210.441406 139.039062 C 210.128906 139.558594 209.953125 140.144531 209.953125 140.722656 C 209.957031 141.210938 210.09375 141.730469 210.386719 142.230469 C 211.011719 143.300781 213.359375 144.414062 215.699219 145.519531 C 217.335938 146.292969 218.96875 147.0625 220.417969 148.003906 C 221.910156 148.976562 223.207031 150.125 224.09375 151.632812 C 225.046875 153.265625 225.484375 154.996094 225.492188 156.695312 L 225.492188 156.707031 C 225.496094 158.609375 224.960938 160.445312 224.011719 162.035156 C 223.082031 163.597656 221.742188 164.933594 220.125 165.878906 C 219.386719 166.316406 218.585938 166.667969 217.738281 166.921875 L 217.738281 169.054688 C 217.738281 171.015625 216.148438 172.605469 214.1875 172.605469 C 212.230469 172.605469 210.640625 171.015625 210.640625 169.054688 L 210.640625 166.824219 C 208.859375 166.308594 207.367188 165.429688 206.160156 164.191406 C 204.191406 162.179688 203.164062 159.382812 203.011719 155.820312 C 202.933594 153.867188 204.457031 152.222656 206.40625 152.144531 C 208.359375 152.066406 210.003906 153.589844 210.082031 155.542969 C 210.15625 157.292969 210.535156 158.539062 211.234375 159.257812 C 212.386719 160.433594 215.109375 160.621094 216.550781 159.78125 C 217.125 159.441406 217.605469 158.960938 217.9375 158.40625 C 218.25 157.886719 218.425781 157.300781 218.421875 156.722656 L 218.421875 156.710938 C 218.421875 156.226562 218.285156 155.714844 217.992188 155.210938 C 217.363281 154.140625 215.019531 153.03125 212.679688 151.921875 C 211.832031 151.523438 210.988281 151.125 210.171875 150.703125 C 207.765625 149.460938 205.582031 148.023438 204.285156 145.808594 C 203.328125 144.175781 202.890625 142.445312 202.882812 140.75 C 202.878906 138.84375 203.414062 137.003906 204.367188 135.40625 C 205.296875 133.847656 206.636719 132.507812 208.253906 131.5625 C 208.996094 131.125 209.792969 130.773438 210.640625 130.523438 L 210.640625 128.386719 C 210.640625 126.429688 212.230469 124.839844 214.1875 124.839844 C 216.148438 124.839844 217.738281 126.429688 217.738281 128.386719 L 217.738281 130.617188 C 219.511719 131.132812 220.996094 132.003906 222.195312 133.230469 L 222.21875 133.25 C 224.183594 135.261719 225.214844 138.0625 225.367188 141.625 Z M 107.488281 220.222656 L 107.488281 278.589844 L 225.488281 301.710938 L 313.550781 252.589844 C 315.183594 251.367188 316.277344 249.648438 316.746094 247.78125 C 317.230469 245.859375 317.058594 243.773438 316.148438 241.886719 C 315.238281 240 313.710938 238.570312 311.914062 237.757812 C 310.144531 236.957031 308.105469 236.746094 306.121094 237.269531 L 238.117188 262.707031 C 237.953125 262.835938 237.789062 262.960938 237.621094 263.082031 C 234.492188 265.332031 230.539062 266.4375 226.441406 265.898438 L 172.402344 255.457031 C 170.480469 255.089844 169.21875 253.234375 169.585938 251.3125 C 169.953125 249.390625 171.8125 248.132812 173.734375 248.5 L 227.527344 258.902344 C 231.980469 259.402344 236.035156 256.394531 236.882812 252.023438 C 237.3125 249.796875 236.835938 247.589844 235.710938 245.808594 C 234.617188 244.082031 232.910156 242.742188 230.816406 242.152344 L 175.371094 231.433594 C 174.6875 231.296875 174.035156 230.96875 173.511719 230.433594 C 165.046875 221.855469 154.160156 217.242188 142.917969 215.675781 C 130.621094 213.964844 117.929688 215.878906 107.488281 220.222656 Z M 95.863281 208.039062 L 62.441406 208.039062 C 61.203125 208.039062 60.070312 208.550781 59.246094 209.371094 C 58.425781 210.191406 57.914062 211.324219 57.914062 212.566406 L 57.914062 283.503906 C 57.914062 284.746094 58.425781 285.878906 59.246094 286.699219 C 60.070312 287.519531 61.203125 288.03125 62.441406 288.03125 L 95.863281 288.03125 C 97.105469 288.03125 98.238281 287.519531 99.058594 286.699219 C 99.878906 285.878906 100.390625 284.746094 100.390625 283.503906 L 100.390625 212.566406 C 100.390625 211.324219 99.878906 210.191406 99.058594 209.371094 C 98.238281 208.550781 97.105469 208.039062 95.863281 208.039062 Z M 77.976562 255.203125 C 83.34375 254.550781 88.226562 258.378906 88.875 263.746094 C 89.527344 269.117188 85.699219 273.996094 80.332031 274.644531 C 74.960938 275.296875 70.082031 271.472656 69.433594 266.101562 C 68.78125 260.734375 72.605469 255.851562 77.976562 255.203125 Z M 127.128906 163.097656 L 127.128906 109.695312 C 127.128906 109.363281 127.152344 109.035156 127.195312 108.714844 L 112.328125 112.699219 Z M 134.226562 123.660156 C 135.34375 123.644531 136.445312 123.480469 137.5 123.175781 C 139.433594 122.601562 141.234375 121.550781 142.71875 120.066406 C 144.199219 118.582031 145.253906 116.78125 145.820312 114.847656 L 145.863281 114.71875 C 146.308594 113.117188 146.429688 111.414062 146.191406 109.714844 L 134.226562 109.714844 Z M 145.820312 184.441406 C 145.253906 182.507812 144.199219 180.707031 142.71875 179.222656 C 141.234375 177.738281 139.433594 176.683594 137.496094 176.117188 C 136.445312 175.808594 135.34375 175.644531 134.226562 175.628906 L 134.226562 187.710938 L 146.3125 187.710938 C 146.296875 186.640625 146.144531 185.585938 145.863281 184.570312 Z M 290.878906 176.113281 C 288.945312 176.683594 287.144531 177.738281 285.660156 179.222656 C 284.179688 180.707031 283.125 182.507812 282.558594 184.441406 C 282.25 185.496094 282.082031 186.59375 282.066406 187.710938 L 294.148438 187.710938 L 294.148438 175.628906 C 293.035156 175.640625 291.933594 175.804688 290.878906 176.113281 Z M 294.148438 109.71875 L 282.183594 109.71875 C 281.941406 111.460938 282.078125 113.207031 282.558594 114.847656 C 283.125 116.78125 284.179688 118.582031 285.660156 120.066406 C 287.144531 121.550781 288.945312 122.601562 290.878906 123.171875 C 291.933594 123.480469 293.035156 123.644531 294.148438 123.660156 Z M 256.933594 79.253906 C 257.988281 80.984375 259.472656 82.457031 261.28125 83.5 C 263.089844 84.546875 265.101562 85.09375 267.125 85.140625 C 268.226562 85.167969 269.335938 85.046875 270.417969 84.769531 L 266.808594 71.308594 L 255.238281 74.410156 C 255.453125 76.140625 256.042969 77.789062 256.933594 79.253906 Z M 149.847656 102.644531 L 248.363281 76.25 C 248.789062 78.640625 249.652344 80.910156 250.890625 82.941406 C 252.546875 85.667969 254.886719 87.984375 257.738281 89.625 C 260.597656 91.273438 263.769531 92.140625 266.957031 92.214844 C 268.734375 92.253906 270.515625 92.054688 272.25 91.605469 L 275.207031 102.648438 Z M 134.226562 130.746094 L 134.226562 168.542969 C 136.011719 168.5625 137.777344 168.828125 139.492188 169.328125 C 142.566406 170.226562 145.414062 171.882812 147.734375 174.203125 C 150.058594 176.527344 151.710938 179.371094 152.613281 182.445312 L 152.660156 182.625 C 153.128906 184.277344 153.378906 185.984375 153.394531 187.710938 L 274.980469 187.710938 C 275 185.925781 275.265625 184.152344 275.765625 182.445312 C 276.667969 179.371094 278.320312 176.527344 280.644531 174.203125 C 282.964844 171.882812 285.808594 170.226562 288.882812 169.324219 L 288.898438 169.324219 C 290.601562 168.828125 292.367188 168.5625 294.148438 168.542969 L 294.148438 130.746094 C 292.367188 130.726562 290.601562 130.460938 288.886719 129.960938 C 285.808594 129.0625 282.964844 127.40625 280.644531 125.085938 C 278.320312 122.761719 276.667969 119.917969 275.765625 116.84375 C 275.09375 114.546875 274.84375 112.128906 275.050781 109.71875 L 153.324219 109.714844 C 153.527344 112.066406 153.296875 114.421875 152.660156 116.664062 L 152.613281 116.84375 C 151.710938 119.917969 150.054688 122.761719 147.734375 125.085938 C 145.414062 127.40625 142.566406 129.0625 139.492188 129.964844 L 139.480469 129.964844 C 137.777344 130.460938 136.011719 130.726562 134.226562 130.746094 Z M 184.695312 148.722656 C 184.695312 165.011719 197.898438 178.214844 214.1875 178.214844 C 230.476562 178.214844 243.683594 165.011719 243.683594 148.722656 C 243.683594 132.433594 230.476562 119.226562 214.1875 119.226562 C 197.898438 119.226562 184.695312 132.433594 184.695312 148.722656 Z M 184.695312 148.722656 " fill-opacity="1" fill-rule="evenodd"/></g></svg>