<svg xmlns="http://www.w3.org/2000/svg" xmlns:xlink="http://www.w3.org/1999/xlink" width="500" zoomAndPan="magnify" viewBox="0 0 375 374.999991" height="500" preserveAspectRatio="xMidYMid meet" version="1.0"><defs><clipPath id="383a496c05"><path d="M 187.5 0 C 83.945312 0 0 83.945312 0 187.5 C 0 291.054688 83.945312 375 187.5 375 C 291.054688 375 375 291.054688 375 187.5 C 375 83.945312 291.054688 0 187.5 0 Z M 187.5 0 " clip-rule="nonzero"/></clipPath><clipPath id="3993c87e7f"><path d="M 0 0 L 375 0 L 375 375 L 0 375 Z M 0 0 " clip-rule="nonzero"/></clipPath><clipPath id="7c7dad697c"><path d="M 187.5 0 C 83.945312 0 0 83.945312 0 187.5 C 0 291.054688 83.945312 375 187.5 375 C 291.054688 375 375 291.054688 375 187.5 C 375 83.945312 291.054688 0 187.5 0 Z M 187.5 0 " clip-rule="nonzero"/></clipPath><clipPath id="d75e40b232"><rect x="0" width="375" y="0" height="375"/></clipPath><clipPath id="fb82178336"><path d="M 196 142 L 295.914062 142 L 295.914062 309.355469 L 196 309.355469 Z M 196 142 " clip-rule="nonzero"/></clipPath><clipPath id="9cc7af1e67"><path d="M 79.164062 142 L 179 142 L 179 309.355469 L 79.164062 309.355469 Z M 79.164062 142 " clip-rule="nonzero"/></clipPath><clipPath id="640eb97ec7"><path d="M 115 65.605469 L 260 65.605469 L 260 211 L 115 211 Z M 115 65.605469 " clip-rule="nonzero"/></clipPath></defs><g clip-path="url(#383a496c05)"><g transform="matrix(1, 0, 0, 1, 0, 0)"><g clip-path="url(#d75e40b232)"><g clip-path="url(#3993c87e7f)"><g clip-path="url(#7c7dad697c)"><rect x="-82.5" width="540" fill="#e6ac41" height="539.999987" y="-82.499998" fill-opacity="1"/></g></g></g></g></g><g clip-path="url(#fb82178336)"><path fill="#eaf0fa" d="M 245.15625 217.226562 C 244.894531 217.5625 244.574219 217.84375 244.242188 218.089844 L 220.121094 234.648438 C 211.128906 241.664062 196.527344 256.070312 196.527344 264.128906 C 196.527344 276.257812 198.273438 284.316406 199.523438 290.1875 C 200.335938 293.960938 201.042969 297.207031 201.042969 300.328125 L 201.042969 309.375 L 241.683594 309.375 L 241.683594 291.265625 C 241.683594 275.324219 260.851562 257.621094 276.261719 243.375 C 282.34375 237.769531 290.667969 230.0625 291.390625 227.574219 C 291.355469 221.792969 295.324219 182.949219 295.832031 177.886719 L 291.902344 142.359375 C 290.472656 142.90625 289.222656 143.804688 288.09375 145.054688 C 281.234375 152.726562 281.570312 171.1875 282.292969 177.660156 C 282.308594 177.816406 282.308594 177.992188 282.308594 178.152344 L 282.308594 187.199219 C 282.308594 187.339844 282.257812 187.445312 282.238281 187.566406 C 282.222656 187.691406 282.273438 187.832031 282.257812 187.957031 C 282.132812 188.714844 279.066406 206.574219 272.910156 220.683594 C 272.664062 221.226562 272.328125 221.722656 271.90625 222.128906 C 271.765625 222.269531 257.800781 235.738281 249.476562 244.609375 C 248.597656 245.542969 247.398438 246.019531 246.199219 246.019531 C 245.085938 246.019531 243.976562 245.613281 243.113281 244.804688 C 241.277344 243.09375 241.207031 240.21875 242.902344 238.402344 C 250.429688 230.378906 262.066406 219.058594 264.976562 216.238281 C 268.539062 207.828125 270.988281 197.882812 272.277344 191.871094 C 261.910156 192.503906 260.09375 195.363281 255.171875 203.121094 C 252.792969 206.875 249.832031 211.566406 245.15625 217.226562 " fill-opacity="1" fill-rule="nonzero"/></g><g clip-path="url(#9cc7af1e67)"><path fill="#eaf0fa" d="M 98.738281 243.375 C 114.148438 257.621094 133.316406 275.324219 133.316406 291.265625 L 133.316406 309.375 L 173.957031 309.375 L 173.957031 300.328125 C 173.957031 297.207031 174.664062 293.960938 175.472656 290.1875 C 176.726562 284.316406 178.472656 276.257812 178.472656 264.128906 C 178.472656 256.050781 163.871094 241.648438 154.652344 234.488281 L 130.757812 218.089844 C 130.421875 217.84375 130.105469 217.5625 129.839844 217.226562 C 125.167969 211.566406 122.207031 206.875 119.828125 203.121094 C 114.90625 195.363281 113.089844 192.503906 102.722656 191.871094 C 104.011719 197.882812 106.460938 207.84375 110.023438 216.257812 C 112.933594 219.058594 124.570312 230.378906 132.097656 238.402344 C 133.808594 240.21875 133.71875 243.09375 131.90625 244.804688 C 131.023438 245.613281 129.910156 246.019531 128.800781 246.019531 C 127.601562 246.019531 126.402344 245.542969 125.523438 244.609375 C 117.199219 235.738281 103.234375 222.269531 103.09375 222.128906 C 102.667969 221.722656 102.335938 221.226562 102.089844 220.683594 C 95.933594 206.574219 92.867188 188.714844 92.742188 187.957031 C 92.726562 187.832031 92.777344 187.710938 92.761719 187.585938 C 92.742188 187.445312 92.691406 187.339844 92.691406 187.199219 L 92.691406 178.152344 C 92.691406 177.992188 92.691406 177.816406 92.707031 177.660156 C 93.414062 171.1875 93.746094 152.691406 86.890625 145.039062 C 85.777344 143.804688 84.527344 142.90625 83.097656 142.359375 L 79.164062 177.886719 C 79.675781 182.949219 83.644531 221.808594 83.644531 227.929688 C 84.332031 230.0625 92.65625 237.769531 98.738281 243.375 " fill-opacity="1" fill-rule="nonzero"/></g><g clip-path="url(#640eb97ec7)"><path fill="#eaf0fa" d="M 147.050781 142.359375 C 147.367188 151.863281 148.691406 161.046875 150.984375 169.441406 L 132.839844 169.441406 C 128.023438 161.171875 125.152344 151.933594 124.464844 142.359375 Z M 132.839844 106.246094 L 150.984375 106.246094 C 148.691406 114.65625 147.367188 123.828125 147.050781 133.332031 L 124.464844 133.332031 C 125.152344 123.757812 128.023438 114.515625 132.839844 106.246094 Z M 163.378906 79.410156 C 159.675781 84.222656 156.429688 90.21875 153.820312 97.21875 L 139.132812 97.21875 C 145.726562 89.320312 154.050781 83.253906 163.378906 79.410156 Z M 227.949219 133.332031 C 227.632812 123.828125 226.292969 114.640625 224.015625 106.246094 L 242.160156 106.246094 C 246.972656 114.515625 249.847656 123.738281 250.535156 133.332031 Z M 242.144531 169.441406 L 224.015625 169.441406 C 226.308594 161.03125 227.632812 151.863281 227.949219 142.359375 L 250.535156 142.359375 C 249.847656 151.933594 246.972656 161.171875 242.144531 169.441406 Z M 211.621094 196.277344 C 215.324219 191.464844 218.566406 185.46875 221.179688 178.46875 L 235.867188 178.46875 C 229.269531 186.367188 220.949219 192.433594 211.621094 196.277344 Z M 182.984375 75.40625 L 182.984375 97.21875 L 163.539062 97.21875 C 168.542969 85.511719 175.542969 77.71875 182.984375 75.40625 Z M 192.011719 97.21875 L 192.011719 75.425781 C 199.453125 77.71875 206.453125 85.511719 211.460938 97.21875 Z M 192.011719 200.261719 L 192.011719 178.46875 L 211.460938 178.46875 C 206.453125 190.175781 199.453125 197.972656 192.011719 200.261719 Z M 182.984375 178.46875 L 182.984375 200.28125 C 175.542969 197.972656 168.542969 190.175781 163.539062 178.46875 Z M 214.636719 169.441406 L 192.011719 169.441406 L 192.011719 142.359375 L 218.9375 142.359375 C 218.585938 151.96875 217.121094 161.171875 214.636719 169.441406 Z M 218.9375 133.332031 L 192.011719 133.332031 L 192.011719 106.246094 L 214.636719 106.246094 C 217.121094 114.515625 218.585938 123.722656 218.9375 133.332031 Z M 160.382812 106.246094 L 182.984375 106.246094 L 182.984375 133.332031 L 156.0625 133.332031 C 156.414062 123.722656 157.878906 114.515625 160.382812 106.246094 Z M 156.0625 142.359375 L 182.984375 142.359375 L 182.984375 169.441406 L 160.382812 169.441406 C 157.878906 161.171875 156.414062 151.96875 156.0625 142.359375 Z M 139.132812 178.46875 L 153.820312 178.46875 C 156.429688 185.46875 159.675781 191.464844 163.378906 196.277344 C 154.050781 192.433594 145.726562 186.367188 139.132812 178.46875 Z M 235.867188 97.21875 L 221.179688 97.21875 C 218.566406 90.21875 215.324219 84.222656 211.601562 79.410156 C 220.949219 83.253906 229.269531 89.320312 235.867188 97.21875 Z M 187.5 210.066406 C 212.449219 210.066406 235.265625 197.460938 248.542969 176.371094 C 255.859375 164.894531 259.722656 151.5625 259.722656 137.84375 C 259.722656 124.125 255.859375 110.796875 248.5625 99.335938 C 235.265625 78.230469 212.449219 65.621094 187.5 65.621094 C 162.550781 65.621094 139.734375 78.230469 126.457031 99.316406 C 119.136719 110.796875 115.277344 124.125 115.277344 137.84375 C 115.277344 151.5625 119.136719 164.894531 126.4375 176.355469 C 139.734375 197.460938 162.550781 210.066406 187.5 210.066406 " fill-opacity="1" fill-rule="nonzero"/></g></svg>