<svg xmlns="http://www.w3.org/2000/svg" xmlns:xlink="http://www.w3.org/1999/xlink" width="500" zoomAndPan="magnify" viewBox="0 0 375 374.999991" height="500" preserveAspectRatio="xMidYMid meet" version="1.0"><path fill="#f2f2f2" d="M 15.625 156.25 C 15.625 188.625 27.375 218.25 46.875 241.1875 L 46.875 71.25 C 27.375 94.125 15.625 123.8125 15.625 156.25 Z M 15.625 156.25 " fill-opacity="1" fill-rule="nonzero"/><path fill="#f2f2f2" d="M 196.875 56.25 L 196.875 6.25 L 46.875 6.25 L 46.875 241.1875 C 57.3125 253.5625 70 263.9375 84.375 271.75 L 84.375 237.5 L 109.375 237.5 L 109.375 282.0625 C 117.4375 284.4375 125.8125 286.125 134.375 286.875 L 134.375 212.5 L 159.375 212.5 L 159.375 286.875 C 168 286.125 176.375 284.4375 184.375 282.0625 L 184.375 187.5 L 209.375 187.5 L 209.375 271.75 C 213.3125 269.5 217.1875 267.1875 220.9375 264.5625 C 230.5625 258 239.3125 250.125 246.875 241.25 L 246.875 56.25 Z M 115.625 131.25 C 103.5625 131.25 92.625 126.375 84.6875 118.4375 C 76.75 110.5 71.875 99.5625 71.875 87.5 C 71.875 63.3125 91.5 43.75 115.625 43.75 C 139.8125 43.75 159.375 63.3125 159.375 87.5 C 159.375 111.625 139.8125 131.25 115.625 131.25 Z M 115.625 131.25 " fill-opacity="1" fill-rule="nonzero"/><path fill="#f2f2f2" d="M 278.125 156.25 C 278.125 183.75 269.6875 209.25 255.1875 230.3125 C 252.625 234.125 249.875 237.75 246.875 241.25 L 246.875 71.25 C 266.375 94.125 278.125 123.8125 278.125 156.25 Z M 278.125 156.25 " fill-opacity="1" fill-rule="nonzero"/><path fill="#d89628" d="M 359.375 344.5 C 359.375 350.75 357 356.9375 352.3125 361.6875 C 342.8125 371.125 327.5 371.125 318 361.6875 L 243.8125 287.4375 L 278.0625 253.1875 L 352.3125 327.375 C 357 332.125 359.375 338.3125 359.375 344.5 Z M 359.375 344.5 " fill-opacity="1" fill-rule="nonzero"/><path fill="#f1bf25" d="M 278.0625 253.1875 L 243.8125 287.4375 L 220.9375 264.5625 C 230.5625 258 239.3125 250.125 246.875 241.25 C 249.875 237.75 252.625 234.125 255.1875 230.3125 Z M 278.0625 253.1875 " fill-opacity="1" fill-rule="nonzero"/><path fill="#d89628" d="M 246.875 56.25 L 196.875 56.25 L 196.875 6.25 Z M 246.875 56.25 " fill-opacity="1" fill-rule="nonzero"/><path fill="#f1bf25" d="M 159.375 87.5 C 159.375 111.625 139.8125 131.25 115.625 131.25 C 103.5625 131.25 92.625 126.375 84.6875 118.4375 L 115.625 87.5 Z M 159.375 87.5 " fill-opacity="1" fill-rule="nonzero"/><path fill="#d89628" d="M 115.625 43.75 L 115.625 87.5 L 84.6875 118.4375 C 76.75 110.5 71.875 99.5625 71.875 87.5 C 71.875 63.3125 91.5 43.75 115.625 43.75 Z M 115.625 43.75 " fill-opacity="1" fill-rule="nonzero"/><path fill="#04a64c" d="M 159.375 87.5 L 115.625 87.5 L 115.625 43.75 C 139.8125 43.75 159.375 63.3125 159.375 87.5 Z M 159.375 87.5 " fill-opacity="1" fill-rule="nonzero"/><path fill="#04a64c" d="M 159.375 212.5 L 159.375 286.875 C 155.25 287.3125 151.0625 287.5 146.875 287.5 C 142.6875 287.5 138.5 287.3125 134.375 286.875 L 134.375 212.5 Z M 159.375 212.5 " fill-opacity="1" fill-rule="nonzero"/><path fill="#04a64c" d="M 209.375 187.5 L 209.375 271.75 C 201.5 275.9375 193.125 279.4375 184.375 282.0625 L 184.375 187.5 Z M 209.375 187.5 " fill-opacity="1" fill-rule="nonzero"/><path fill="#04a64c" d="M 109.375 237.5 L 109.375 282.0625 C 100.625 279.4375 92.25 276 84.375 271.75 L 84.375 237.5 Z M 109.375 237.5 " fill-opacity="1" fill-rule="nonzero"/><path fill="#414141" d="M 251.3125 51.8125 L 201.3125 1.8125 C 200.125 0.625 198.5625 0 196.875 0 L 46.875 0 C 43.4375 0 40.625 2.75 40.625 6.25 L 40.625 69.0625 C 20.5 93.5625 9.375 124.375 9.375 156.25 C 9.375 232.0625 71.0625 293.75 146.875 293.75 C 173.125 293.75 198.375 286.25 220.125 272.5625 L 313.5625 366.125 C 319.5625 372 327.3125 375 335.125 375 C 342.9375 375 350.8125 372 356.75 366.0625 C 362.5 360.3125 365.625 352.625 365.625 344.5 C 365.625 336.4375 362.5 328.75 356.75 322.9375 L 263.125 229.4375 C 276.875 207.625 284.375 182.25 284.375 156.25 C 284.375 124.4375 273.25 93.625 253.125 69.125 L 253.125 56.25 C 253.125 54.5625 252.5 53 251.3125 51.8125 Z M 40.625 221.8125 C 28.8125 202.75 21.875 180.3125 21.875 156.25 C 21.875 132.875 28.5 110.125 40.625 90.5 Z M 203.125 21.3125 L 231.8125 50 L 203.125 50 Z M 103.125 273.1875 C 98.8125 271.5625 94.6875 269.75 90.625 267.75 L 90.625 243.75 L 103.125 243.75 Z M 153.125 281.0625 C 151.0625 281.1875 148.9375 281.25 146.875 281.25 C 144.75 281.25 142.6875 281.0625 140.625 280.9375 L 140.625 218.75 L 153.125 218.75 Z M 203.125 267.8125 C 199.0625 269.875 194.875 271.6875 190.625 273.3125 L 190.625 193.75 L 203.125 193.75 Z M 215.625 260.625 L 215.625 187.5 C 215.625 184.0625 212.8125 181.25 209.375 181.25 L 184.375 181.25 C 180.9375 181.25 178.125 184.0625 178.125 187.5 L 178.125 277.25 C 174 278.3125 169.875 279.1875 165.625 279.8125 L 165.625 212.5 C 165.625 209.0625 162.8125 206.25 159.375 206.25 L 134.375 206.25 C 130.9375 206.25 128.125 209.0625 128.125 212.5 L 128.125 279.6875 C 123.875 279.0625 119.6875 278.1875 115.625 277.125 L 115.625 237.5 C 115.625 234.0625 112.8125 231.25 109.375 231.25 L 84.375 231.25 C 80.9375 231.25 78.125 234.0625 78.125 237.5 L 78.125 260.5625 C 68.375 254.0625 59.625 246.3125 52.0625 237.5 L 53.125 237.5 L 53.125 12.5 L 190.625 12.5 L 190.625 56.25 C 190.625 59.6875 193.4375 62.5 196.875 62.5 L 240.625 62.5 L 240.625 238.8125 C 233.25 247.25 224.8125 254.5625 215.625 260.625 Z M 347.875 331.75 C 351.25 335.1875 353.125 339.75 353.125 344.5 C 353.125 349.3125 351.25 353.875 347.9375 357.25 C 340.875 364.25 329.4375 364.25 322.4375 357.25 L 252.625 287.4375 L 278.0625 262 Z M 269.25 253.1875 L 243.8125 278.625 L 230.5625 265.3125 C 238.1875 259.4375 245.25 252.75 251.625 245.3125 C 252.0625 244.8125 252.4375 244.25 252.875 243.75 L 253.125 243.75 L 253.125 243.3125 C 254.125 242.1875 255 241 255.875 239.8125 Z M 271.875 156.25 C 271.875 179.5625 265.25 202.25 253.125 221.875 L 253.125 90.625 C 265.25 110.1875 271.875 132.9375 271.875 156.25 Z M 271.875 156.25 " fill-opacity="1" fill-rule="nonzero"/><path fill="#414141" d="M 165.625 87.5 C 165.625 59.875 143.25 37.5 115.625 37.5 C 88.0625 37.5 65.625 59.875 65.625 87.5 C 65.625 115.0625 88.0625 137.5 115.625 137.5 C 143.25 137.5 165.625 115.0625 165.625 87.5 Z M 121.875 50.5625 C 137.5625 53.1875 149.9375 65.5625 152.625 81.25 L 121.875 81.25 Z M 78.125 87.5 C 78.125 68.9375 91.6875 53.5625 109.375 50.5625 L 109.375 84.9375 L 85.125 109.1875 C 80.75 103.0625 78.125 95.5625 78.125 87.5 Z M 118.1875 93.75 L 152.5625 93.75 C 149.5625 111.4375 134.1875 125 115.625 125 C 107.5625 125 100.0625 122.375 93.9375 118 Z M 118.1875 93.75 " fill-opacity="1" fill-rule="nonzero"/><path fill="#414141" d="M 209.40625 118.722656 L 184.40625 118.722656 L 184.40625 131.222656 L 194.316406 131.222656 L 146.90625 178.636719 L 132.574219 164.304688 C 130.132812 161.863281 126.175781 161.863281 123.734375 164.304688 L 92.484375 195.554688 L 101.324219 204.390625 L 128.15625 177.558594 L 142.484375 191.890625 C 144.925781 194.332031 148.882812 194.332031 151.324219 191.890625 L 203.15625 140.058594 L 203.15625 149.972656 L 215.65625 149.972656 L 215.65625 124.972656 C 215.65625 121.519531 212.859375 118.722656 209.40625 118.722656 Z M 209.40625 118.722656 " fill-opacity="1" fill-rule="nonzero"/><path fill="#f2f2f2" d="M 15.625 156.25 C 15.625 188.625 27.375 218.25 46.875 241.1875 L 46.875 71.25 C 27.375 94.125 15.625 123.8125 15.625 156.25 Z M 15.625 156.25 " fill-opacity="1" fill-rule="nonzero"/><path fill="#f2f2f2" d="M 196.875 56.25 L 196.875 6.25 L 46.875 6.25 L 46.875 241.1875 C 57.3125 253.5625 70 263.9375 84.375 271.75 L 84.375 237.5 L 109.375 237.5 L 109.375 282.0625 C 117.4375 284.4375 125.8125 286.125 134.375 286.875 L 134.375 212.5 L 159.375 212.5 L 159.375 286.875 C 168 286.125 176.375 284.4375 184.375 282.0625 L 184.375 187.5 L 209.375 187.5 L 209.375 271.75 C 213.3125 269.5 217.1875 267.1875 220.9375 264.5625 C 230.5625 258 239.3125 250.125 246.875 241.25 L 246.875 56.25 Z M 115.625 131.25 C 103.5625 131.25 92.625 126.375 84.6875 118.4375 C 76.75 110.5 71.875 99.5625 71.875 87.5 C 71.875 63.3125 91.5 43.75 115.625 43.75 C 139.8125 43.75 159.375 63.3125 159.375 87.5 C 159.375 111.625 139.8125 131.25 115.625 131.25 Z M 115.625 131.25 " fill-opacity="1" fill-rule="nonzero"/><path fill="#f2f2f2" d="M 278.125 156.25 C 278.125 183.75 269.6875 209.25 255.1875 230.3125 C 252.625 234.125 249.875 237.75 246.875 241.25 L 246.875 71.25 C 266.375 94.125 278.125 123.8125 278.125 156.25 Z M 278.125 156.25 " fill-opacity="1" fill-rule="nonzero"/><path fill="#d89628" d="M 359.375 344.5 C 359.375 350.75 357 356.9375 352.3125 361.6875 C 342.8125 371.125 327.5 371.125 318 361.6875 L 243.8125 287.4375 L 278.0625 253.1875 L 352.3125 327.375 C 357 332.125 359.375 338.3125 359.375 344.5 Z M 359.375 344.5 " fill-opacity="1" fill-rule="nonzero"/><path fill="#f1bf25" d="M 278.0625 253.1875 L 243.8125 287.4375 L 220.9375 264.5625 C 230.5625 258 239.3125 250.125 246.875 241.25 C 249.875 237.75 252.625 234.125 255.1875 230.3125 Z M 278.0625 253.1875 " fill-opacity="1" fill-rule="nonzero"/><path fill="#d89628" d="M 246.875 56.25 L 196.875 56.25 L 196.875 6.25 Z M 246.875 56.25 " fill-opacity="1" fill-rule="nonzero"/><path fill="#f1bf25" d="M 159.375 87.5 C 159.375 111.625 139.8125 131.25 115.625 131.25 C 103.5625 131.25 92.625 126.375 84.6875 118.4375 L 115.625 87.5 Z M 159.375 87.5 " fill-opacity="1" fill-rule="nonzero"/><path fill="#d89628" d="M 115.625 43.75 L 115.625 87.5 L 84.6875 118.4375 C 76.75 110.5 71.875 99.5625 71.875 87.5 C 71.875 63.3125 91.5 43.75 115.625 43.75 Z M 115.625 43.75 " fill-opacity="1" fill-rule="nonzero"/><path fill="#04a64c" d="M 159.375 87.5 L 115.625 87.5 L 115.625 43.75 C 139.8125 43.75 159.375 63.3125 159.375 87.5 Z M 159.375 87.5 " fill-opacity="1" fill-rule="nonzero"/><path fill="#04a64c" d="M 159.375 212.5 L 159.375 286.875 C 155.25 287.3125 151.0625 287.5 146.875 287.5 C 142.6875 287.5 138.5 287.3125 134.375 286.875 L 134.375 212.5 Z M 159.375 212.5 " fill-opacity="1" fill-rule="nonzero"/><path fill="#04a64c" d="M 209.375 187.5 L 209.375 271.75 C 201.5 275.9375 193.125 279.4375 184.375 282.0625 L 184.375 187.5 Z M 209.375 187.5 " fill-opacity="1" fill-rule="nonzero"/><path fill="#04a64c" d="M 109.375 237.5 L 109.375 282.0625 C 100.625 279.4375 92.25 276 84.375 271.75 L 84.375 237.5 Z M 109.375 237.5 " fill-opacity="1" fill-rule="nonzero"/><path fill="#414141" d="M 251.3125 51.8125 L 201.3125 1.8125 C 200.125 0.625 198.5625 0 196.875 0 L 46.875 0 C 43.4375 0 40.625 2.75 40.625 6.25 L 40.625 69.0625 C 20.5 93.5625 9.375 124.375 9.375 156.25 C 9.375 232.0625 71.0625 293.75 146.875 293.75 C 173.125 293.75 198.375 286.25 220.125 272.5625 L 313.5625 366.125 C 319.5625 372 327.3125 375 335.125 375 C 342.9375 375 350.8125 372 356.75 366.0625 C 362.5 360.3125 365.625 352.625 365.625 344.5 C 365.625 336.4375 362.5 328.75 356.75 322.9375 L 263.125 229.4375 C 276.875 207.625 284.375 182.25 284.375 156.25 C 284.375 124.4375 273.25 93.625 253.125 69.125 L 253.125 56.25 C 253.125 54.5625 252.5 53 251.3125 51.8125 Z M 40.625 221.8125 C 28.8125 202.75 21.875 180.3125 21.875 156.25 C 21.875 132.875 28.5 110.125 40.625 90.5 Z M 203.125 21.3125 L 231.8125 50 L 203.125 50 Z M 103.125 273.1875 C 98.8125 271.5625 94.6875 269.75 90.625 267.75 L 90.625 243.75 L 103.125 243.75 Z M 153.125 281.0625 C 151.0625 281.1875 148.9375 281.25 146.875 281.25 C 144.75 281.25 142.6875 281.0625 140.625 280.9375 L 140.625 218.75 L 153.125 218.75 Z M 203.125 267.8125 C 199.0625 269.875 194.875 271.6875 190.625 273.3125 L 190.625 193.75 L 203.125 193.75 Z M 215.625 260.625 L 215.625 187.5 C 215.625 184.0625 212.8125 181.25 209.375 181.25 L 184.375 181.25 C 180.9375 181.25 178.125 184.0625 178.125 187.5 L 178.125 277.25 C 174 278.3125 169.875 279.1875 165.625 279.8125 L 165.625 212.5 C 165.625 209.0625 162.8125 206.25 159.375 206.25 L 134.375 206.25 C 130.9375 206.25 128.125 209.0625 128.125 212.5 L 128.125 279.6875 C 123.875 279.0625 119.6875 278.1875 115.625 277.125 L 115.625 237.5 C 115.625 234.0625 112.8125 231.25 109.375 231.25 L 84.375 231.25 C 80.9375 231.25 78.125 234.0625 78.125 237.5 L 78.125 260.5625 C 68.375 254.0625 59.625 246.3125 52.0625 237.5 L 53.125 237.5 L 53.125 12.5 L 190.625 12.5 L 190.625 56.25 C 190.625 59.6875 193.4375 62.5 196.875 62.5 L 240.625 62.5 L 240.625 238.8125 C 233.25 247.25 224.8125 254.5625 215.625 260.625 Z M 347.875 331.75 C 351.25 335.1875 353.125 339.75 353.125 344.5 C 353.125 349.3125 351.25 353.875 347.9375 357.25 C 340.875 364.25 329.4375 364.25 322.4375 357.25 L 252.625 287.4375 L 278.0625 262 Z M 269.25 253.1875 L 243.8125 278.625 L 230.5625 265.3125 C 238.1875 259.4375 245.25 252.75 251.625 245.3125 C 252.0625 244.8125 252.4375 244.25 252.875 243.75 L 253.125 243.75 L 253.125 243.3125 C 254.125 242.1875 255 241 255.875 239.8125 Z M 271.875 156.25 C 271.875 179.5625 265.25 202.25 253.125 221.875 L 253.125 90.625 C 265.25 110.1875 271.875 132.9375 271.875 156.25 Z M 271.875 156.25 " fill-opacity="1" fill-rule="nonzero"/><path fill="#414141" d="M 165.625 87.5 C 165.625 59.875 143.25 37.5 115.625 37.5 C 88.0625 37.5 65.625 59.875 65.625 87.5 C 65.625 115.0625 88.0625 137.5 115.625 137.5 C 143.25 137.5 165.625 115.0625 165.625 87.5 Z M 121.875 50.5625 C 137.5625 53.1875 149.9375 65.5625 152.625 81.25 L 121.875 81.25 Z M 78.125 87.5 C 78.125 68.9375 91.6875 53.5625 109.375 50.5625 L 109.375 84.9375 L 85.125 109.1875 C 80.75 103.0625 78.125 95.5625 78.125 87.5 Z M 118.1875 93.75 L 152.5625 93.75 C 149.5625 111.4375 134.1875 125 115.625 125 C 107.5625 125 100.0625 122.375 93.9375 118 Z M 118.1875 93.75 " fill-opacity="1" fill-rule="nonzero"/><path fill="#414141" d="M 209.40625 118.722656 L 184.40625 118.722656 L 184.40625 131.222656 L 194.316406 131.222656 L 146.90625 178.636719 L 132.574219 164.304688 C 130.132812 161.863281 126.175781 161.863281 123.734375 164.304688 L 92.484375 195.554688 L 101.324219 204.390625 L 128.15625 177.558594 L 142.484375 191.890625 C 144.925781 194.332031 148.882812 194.332031 151.324219 191.890625 L 203.15625 140.058594 L 203.15625 149.972656 L 215.65625 149.972656 L 215.65625 124.972656 C 215.65625 121.519531 212.859375 118.722656 209.40625 118.722656 Z M 209.40625 118.722656 " fill-opacity="1" fill-rule="nonzero"/></svg>