<svg xmlns="http://www.w3.org/2000/svg" xmlns:xlink="http://www.w3.org/1999/xlink" width="500" zoomAndPan="magnify" viewBox="0 0 375 374.999991" height="500" preserveAspectRatio="xMidYMid meet" version="1.0"><defs><clipPath id="796c392946"><path d="M 115 61 L 328.125 61 L 328.125 343 L 115 343 Z M 115 61 " clip-rule="nonzero"/></clipPath><clipPath id="b9d53f715f"><path d="M 115 61 L 328.125 61 L 328.125 343 L 115 343 Z M 115 61 " clip-rule="nonzero"/></clipPath></defs><path fill="#0b1972" d="M 198.183594 343.148438 C 196.230469 344.449219 193.738281 344.449219 191.894531 343.148438 L 182.132812 336.746094 L 174.863281 337.183594 L 174.863281 374.820312 L 192.21875 364.40625 C 194.0625 363.214844 196.339844 363.214844 198.183594 364.40625 L 215.539062 374.820312 L 215.539062 337.183594 L 208.164062 336.746094 Z M 198.183594 343.148438 " fill-opacity="1" fill-rule="nonzero"/><path fill="#0b1972" d="M 185.820312 69.707031 C 185.820312 32.9375 156.640625 2.785156 119.980469 1.480469 C 83.320312 0.179688 52.082031 28.164062 49.476562 64.933594 C 46.875 101.703125 73.773438 133.808594 110.433594 137.714844 C 110.542969 137.714844 110.871094 137.714844 110.976562 137.714844 C 113.148438 137.929688 115.425781 138.148438 117.703125 138.148438 C 155.230469 138.039062 185.820312 107.453125 185.820312 69.707031 Z M 103.492188 113.742188 C 98.394531 113.742188 90.695312 113.742188 83.535156 106.152344 C 68.351562 89.988281 73.992188 75.347656 78.222656 64.609375 L 78.4375 64.066406 C 82.558594 53.546875 82.125 51.703125 77.894531 48.449219 L 74.75 45.953125 C 73.558594 45.085938 72.796875 43.566406 72.691406 42.046875 C 72.582031 40.53125 73.125 38.902344 74.101562 37.710938 L 88.417969 21.546875 C 90.371094 19.378906 93.625 18.945312 96.007812 20.679688 C 99.15625 22.851562 107.179688 27.730469 114.339844 22.632812 C 116.292969 21.222656 118.894531 21.222656 120.847656 22.632812 C 128.007812 27.730469 136.035156 22.851562 139.179688 20.679688 C 141.566406 18.945312 144.820312 19.378906 146.769531 21.546875 L 161.089844 37.710938 C 162.171875 38.902344 162.605469 40.421875 162.5 42.046875 C 162.390625 43.566406 161.632812 45.085938 160.4375 45.953125 L 157.292969 48.449219 C 154.253906 50.832031 154.039062 52.351562 154.039062 53.761719 C 154.148438 55.824219 154.582031 57.882812 155.449219 60.054688 C 155.992188 61.464844 156.535156 62.875 156.96875 64.175781 C 160.761719 73.828125 166.945312 89.988281 151.761719 106.257812 C 145.796875 112.550781 139.503906 113.527344 134.730469 113.851562 L 134.1875 113.851562 C 133.753906 113.851562 133.429688 113.851562 133.105469 113.851562 C 132.5625 113.851562 132.238281 113.851562 131.695312 113.851562 C 127.898438 113.960938 124.425781 115.585938 121.824219 118.300781 C 120.738281 119.492188 119.222656 120.144531 117.703125 120.144531 C 116.183594 120.144531 114.558594 119.492188 113.582031 118.300781 C 110.761719 115.371094 107.179688 113.851562 103.492188 113.742188 Z M 103.492188 113.742188 " fill-opacity="1" fill-rule="nonzero"/><g clip-path="url(#796c392946)"><path fill="#0b1972" d="M 259.359375 107.996094 L 259.359375 61.570312 L 196.773438 61.570312 C 196.992188 64.824219 197.207031 66.996094 197.207031 69.816406 C 197.207031 113.851562 161.414062 149.644531 117.59375 149.644531 C 116.945312 149.644531 116.402344 149.644531 115.640625 149.539062 L 115.640625 323.949219 C 115.640625 333.929688 124.320312 342.605469 135.164062 342.605469 L 163.582031 342.605469 L 163.582031 331.324219 L 160.113281 324.164062 L 149.808594 318.960938 C 147.855469 317.875 146.554688 315.8125 146.664062 313.644531 L 147.3125 302.039062 L 140.914062 292.277344 C 139.613281 290.324219 139.613281 287.9375 140.914062 285.984375 L 147.3125 276.222656 L 146.664062 264.617188 C 146.554688 262.449219 147.746094 260.171875 149.808594 259.304688 L 160.113281 254.097656 L 165.320312 243.792969 C 166.402344 241.839844 168.464844 240.539062 170.632812 240.648438 L 182.238281 241.296875 L 192 234.898438 C 193.953125 233.597656 196.449219 233.597656 198.292969 234.898438 L 208.054688 241.296875 L 219.660156 240.648438 C 221.828125 240.539062 224.105469 241.734375 224.976562 243.792969 L 230.179688 254.097656 L 240.484375 259.304688 C 242.546875 260.386719 243.738281 262.449219 243.628906 264.617188 L 242.980469 276.222656 L 249.378906 285.984375 C 250.679688 287.9375 250.679688 290.324219 249.378906 292.277344 L 242.980469 302.039062 L 243.628906 313.644531 C 243.738281 315.8125 242.546875 318.09375 240.484375 318.960938 L 230.179688 324.164062 L 226.820312 331.324219 L 226.820312 342.605469 L 308.492188 342.605469 C 319.121094 342.605469 328.125 334.035156 328.125 323.949219 L 328.125 125.675781 L 277.363281 125.675781 C 267.601562 125.675781 259.359375 117.648438 259.359375 107.996094 Z M 247.101562 219.0625 L 144.058594 219.0625 C 140.914062 219.0625 138.3125 216.460938 138.3125 213.316406 C 138.3125 210.167969 140.914062 207.566406 144.058594 207.566406 L 247.101562 207.566406 C 250.246094 207.566406 252.851562 210.167969 252.851562 213.316406 C 252.851562 216.570312 250.246094 219.0625 247.101562 219.0625 Z M 299.054688 192.164062 L 144.058594 192.164062 C 140.914062 192.164062 138.3125 189.5625 138.3125 186.414062 C 138.3125 183.269531 140.914062 180.667969 144.058594 180.667969 L 299.164062 180.667969 C 302.308594 180.667969 304.914062 183.269531 304.914062 186.414062 C 304.804688 189.777344 302.203125 192.164062 299.054688 192.164062 Z M 304.804688 161.359375 C 304.804688 164.503906 302.203125 167.109375 299.054688 167.109375 L 144.058594 167.109375 C 140.914062 167.109375 138.3125 164.503906 138.3125 161.359375 C 138.3125 158.214844 140.914062 155.609375 144.058594 155.609375 L 299.164062 155.609375 C 302.203125 155.609375 304.804688 158.214844 304.804688 161.359375 Z M 304.804688 161.359375 " fill-opacity="1" fill-rule="nonzero"/></g><path fill="#0b1972" d="M 214.453125 288.914062 C 214.453125 299.542969 205.777344 308.332031 195.039062 308.332031 C 184.300781 308.332031 175.625 299.652344 175.625 288.914062 C 175.625 278.285156 184.300781 269.5 195.039062 269.5 C 205.777344 269.5 214.453125 278.285156 214.453125 288.914062 Z M 214.453125 288.914062 " fill-opacity="1" fill-rule="nonzero"/><path fill="#0b1972" d="M 318.90625 114.285156 L 270.746094 69.597656 L 270.746094 107.886719 C 270.746094 111.25 273.890625 114.285156 277.6875 114.285156 Z M 318.90625 114.285156 " fill-opacity="1" fill-rule="nonzero"/><path fill="#0b1972" d="M 132.886719 102.355469 C 133.105469 102.355469 133.429688 102.355469 133.648438 102.355469 L 134.082031 102.355469 C 137.550781 102.246094 140.371094 101.488281 143.300781 98.339844 C 152.953125 88.039062 150.566406 79.46875 146.121094 68.296875 C 145.578125 66.886719 144.925781 65.261719 144.386719 63.742188 C 143.191406 60.488281 142.433594 57.125 142.433594 53.761719 C 142.433594 48.773438 144.492188 44.652344 148.507812 40.964844 L 141.457031 32.9375 C 133.214844 37.277344 124.753906 37.710938 117.484375 34.128906 C 110.21875 37.601562 101.757812 37.277344 93.515625 32.9375 L 86.355469 40.964844 C 96.117188 49.859375 92.105469 60.054688 88.851562 68.296875 L 88.632812 68.839844 C 84.730469 78.816406 81.367188 87.496094 91.671875 98.339844 C 95.359375 102.355469 98.9375 102.355469 103.277344 102.355469 C 108.375 102.464844 113.148438 104.089844 117.378906 106.800781 C 121.5 103.980469 126.378906 102.355469 131.261719 102.355469 C 131.910156 102.355469 132.453125 102.355469 132.886719 102.355469 Z M 132.886719 102.355469 " fill-opacity="1" fill-rule="nonzero"/><path fill="#0b1972" d="M 231.375 300.519531 C 231.265625 299.328125 231.589844 298.027344 232.242188 297.15625 L 237.554688 289.132812 L 232.242188 280.886719 C 231.589844 279.804688 231.15625 278.71875 231.375 277.527344 L 231.917969 267.765625 L 223.238281 263.316406 C 222.15625 262.773438 221.285156 261.90625 220.746094 260.824219 L 216.296875 252.144531 L 206.535156 252.6875 C 205.34375 252.796875 204.039062 252.46875 203.171875 251.820312 L 194.929688 246.503906 L 186.902344 251.820312 C 185.820312 252.46875 184.734375 252.90625 183.539062 252.6875 L 173.777344 252.144531 L 169.332031 260.824219 C 168.789062 261.90625 167.921875 262.773438 166.835938 263.316406 L 158.160156 267.765625 L 158.703125 277.527344 C 158.8125 278.71875 158.484375 280.019531 157.835938 280.886719 L 152.519531 289.132812 L 157.835938 297.15625 C 158.484375 298.242188 158.917969 299.328125 158.703125 300.519531 L 158.160156 310.28125 L 166.835938 314.730469 C 167.921875 315.273438 168.789062 316.140625 169.332031 317.222656 L 173.777344 325.902344 L 183.539062 325.359375 C 183.648438 325.359375 183.757812 325.359375 183.757812 325.359375 C 184.949219 325.359375 185.925781 325.792969 186.902344 326.226562 L 195.148438 331.542969 L 203.171875 326.226562 C 204.257812 325.574219 205.34375 325.140625 206.535156 325.359375 L 216.296875 325.902344 L 220.746094 317.222656 C 221.285156 316.140625 222.15625 315.273438 223.238281 314.730469 L 231.917969 310.28125 Z M 195.039062 319.71875 C 178.007812 319.71875 164.234375 305.945312 164.234375 288.914062 C 164.234375 271.886719 178.007812 258.109375 195.039062 258.109375 C 212.066406 258.109375 225.84375 271.886719 225.84375 288.914062 C 225.84375 305.945312 211.957031 319.609375 195.039062 319.71875 Z M 195.039062 319.71875 " fill-opacity="1" fill-rule="nonzero"/><path fill="#0b1972" d="M 198.183594 343.148438 C 196.230469 344.449219 193.738281 344.449219 191.894531 343.148438 L 182.132812 336.746094 L 174.863281 337.183594 L 174.863281 374.820312 L 192.21875 364.40625 C 194.0625 363.214844 196.339844 363.214844 198.183594 364.40625 L 215.539062 374.820312 L 215.539062 337.183594 L 208.164062 336.746094 Z M 198.183594 343.148438 " fill-opacity="1" fill-rule="nonzero"/><path fill="#0b1972" d="M 185.820312 69.707031 C 185.820312 32.9375 156.640625 2.785156 119.980469 1.480469 C 83.320312 0.179688 52.082031 28.164062 49.476562 64.933594 C 46.875 101.703125 73.773438 133.808594 110.433594 137.714844 C 110.542969 137.714844 110.871094 137.714844 110.976562 137.714844 C 113.148438 137.929688 115.425781 138.148438 117.703125 138.148438 C 155.230469 138.039062 185.820312 107.453125 185.820312 69.707031 Z M 103.492188 113.742188 C 98.394531 113.742188 90.695312 113.742188 83.535156 106.152344 C 68.351562 89.988281 73.992188 75.347656 78.222656 64.609375 L 78.4375 64.066406 C 82.558594 53.546875 82.125 51.703125 77.894531 48.449219 L 74.75 45.953125 C 73.558594 45.085938 72.796875 43.566406 72.691406 42.046875 C 72.582031 40.53125 73.125 38.902344 74.101562 37.710938 L 88.417969 21.546875 C 90.371094 19.378906 93.625 18.945312 96.007812 20.679688 C 99.15625 22.851562 107.179688 27.730469 114.339844 22.632812 C 116.292969 21.222656 118.894531 21.222656 120.847656 22.632812 C 128.007812 27.730469 136.035156 22.851562 139.179688 20.679688 C 141.566406 18.945312 144.820312 19.378906 146.769531 21.546875 L 161.089844 37.710938 C 162.171875 38.902344 162.605469 40.421875 162.5 42.046875 C 162.390625 43.566406 161.632812 45.085938 160.4375 45.953125 L 157.292969 48.449219 C 154.253906 50.832031 154.039062 52.351562 154.039062 53.761719 C 154.148438 55.824219 154.582031 57.882812 155.449219 60.054688 C 155.992188 61.464844 156.535156 62.875 156.96875 64.175781 C 160.761719 73.828125 166.945312 89.988281 151.761719 106.257812 C 145.796875 112.550781 139.503906 113.527344 134.730469 113.851562 L 134.1875 113.851562 C 133.753906 113.851562 133.429688 113.851562 133.105469 113.851562 C 132.5625 113.851562 132.238281 113.851562 131.695312 113.851562 C 127.898438 113.960938 124.425781 115.585938 121.824219 118.300781 C 120.738281 119.492188 119.222656 120.144531 117.703125 120.144531 C 116.183594 120.144531 114.558594 119.492188 113.582031 118.300781 C 110.761719 115.371094 107.179688 113.851562 103.492188 113.742188 Z M 103.492188 113.742188 " fill-opacity="1" fill-rule="nonzero"/><g clip-path="url(#b9d53f715f)"><path fill="#0b1972" d="M 259.359375 107.996094 L 259.359375 61.570312 L 196.773438 61.570312 C 196.992188 64.824219 197.207031 66.996094 197.207031 69.816406 C 197.207031 113.851562 161.414062 149.644531 117.59375 149.644531 C 116.945312 149.644531 116.402344 149.644531 115.640625 149.539062 L 115.640625 323.949219 C 115.640625 333.929688 124.320312 342.605469 135.164062 342.605469 L 163.582031 342.605469 L 163.582031 331.324219 L 160.113281 324.164062 L 149.808594 318.960938 C 147.855469 317.875 146.554688 315.8125 146.664062 313.644531 L 147.3125 302.039062 L 140.914062 292.277344 C 139.613281 290.324219 139.613281 287.9375 140.914062 285.984375 L 147.3125 276.222656 L 146.664062 264.617188 C 146.554688 262.449219 147.746094 260.171875 149.808594 259.304688 L 160.113281 254.097656 L 165.320312 243.792969 C 166.402344 241.839844 168.464844 240.539062 170.632812 240.648438 L 182.238281 241.296875 L 192 234.898438 C 193.953125 233.597656 196.449219 233.597656 198.292969 234.898438 L 208.054688 241.296875 L 219.660156 240.648438 C 221.828125 240.539062 224.105469 241.734375 224.976562 243.792969 L 230.179688 254.097656 L 240.484375 259.304688 C 242.546875 260.386719 243.738281 262.449219 243.628906 264.617188 L 242.980469 276.222656 L 249.378906 285.984375 C 250.679688 287.9375 250.679688 290.324219 249.378906 292.277344 L 242.980469 302.039062 L 243.628906 313.644531 C 243.738281 315.8125 242.546875 318.09375 240.484375 318.960938 L 230.179688 324.164062 L 226.820312 331.324219 L 226.820312 342.605469 L 308.492188 342.605469 C 319.121094 342.605469 328.125 334.035156 328.125 323.949219 L 328.125 125.675781 L 277.363281 125.675781 C 267.601562 125.675781 259.359375 117.648438 259.359375 107.996094 Z M 247.101562 219.0625 L 144.058594 219.0625 C 140.914062 219.0625 138.3125 216.460938 138.3125 213.316406 C 138.3125 210.167969 140.914062 207.566406 144.058594 207.566406 L 247.101562 207.566406 C 250.246094 207.566406 252.851562 210.167969 252.851562 213.316406 C 252.851562 216.570312 250.246094 219.0625 247.101562 219.0625 Z M 299.054688 192.164062 L 144.058594 192.164062 C 140.914062 192.164062 138.3125 189.5625 138.3125 186.414062 C 138.3125 183.269531 140.914062 180.667969 144.058594 180.667969 L 299.164062 180.667969 C 302.308594 180.667969 304.914062 183.269531 304.914062 186.414062 C 304.804688 189.777344 302.203125 192.164062 299.054688 192.164062 Z M 304.804688 161.359375 C 304.804688 164.503906 302.203125 167.109375 299.054688 167.109375 L 144.058594 167.109375 C 140.914062 167.109375 138.3125 164.503906 138.3125 161.359375 C 138.3125 158.214844 140.914062 155.609375 144.058594 155.609375 L 299.164062 155.609375 C 302.203125 155.609375 304.804688 158.214844 304.804688 161.359375 Z M 304.804688 161.359375 " fill-opacity="1" fill-rule="nonzero"/></g><path fill="#0b1972" d="M 214.453125 288.914062 C 214.453125 299.542969 205.777344 308.332031 195.039062 308.332031 C 184.300781 308.332031 175.625 299.652344 175.625 288.914062 C 175.625 278.285156 184.300781 269.5 195.039062 269.5 C 205.777344 269.5 214.453125 278.285156 214.453125 288.914062 Z M 214.453125 288.914062 " fill-opacity="1" fill-rule="nonzero"/><path fill="#0b1972" d="M 318.90625 114.285156 L 270.746094 69.597656 L 270.746094 107.886719 C 270.746094 111.25 273.890625 114.285156 277.6875 114.285156 Z M 318.90625 114.285156 " fill-opacity="1" fill-rule="nonzero"/><path fill="#0b1972" d="M 132.886719 102.355469 C 133.105469 102.355469 133.429688 102.355469 133.648438 102.355469 L 134.082031 102.355469 C 137.550781 102.246094 140.371094 101.488281 143.300781 98.339844 C 152.953125 88.039062 150.566406 79.46875 146.121094 68.296875 C 145.578125 66.886719 144.925781 65.261719 144.386719 63.742188 C 143.191406 60.488281 142.433594 57.125 142.433594 53.761719 C 142.433594 48.773438 144.492188 44.652344 148.507812 40.964844 L 141.457031 32.9375 C 133.214844 37.277344 124.753906 37.710938 117.484375 34.128906 C 110.21875 37.601562 101.757812 37.277344 93.515625 32.9375 L 86.355469 40.964844 C 96.117188 49.859375 92.105469 60.054688 88.851562 68.296875 L 88.632812 68.839844 C 84.730469 78.816406 81.367188 87.496094 91.671875 98.339844 C 95.359375 102.355469 98.9375 102.355469 103.277344 102.355469 C 108.375 102.464844 113.148438 104.089844 117.378906 106.800781 C 121.5 103.980469 126.378906 102.355469 131.261719 102.355469 C 131.910156 102.355469 132.453125 102.355469 132.886719 102.355469 Z M 132.886719 102.355469 " fill-opacity="1" fill-rule="nonzero"/><path fill="#0b1972" d="M 231.375 300.519531 C 231.265625 299.328125 231.589844 298.027344 232.242188 297.15625 L 237.554688 289.132812 L 232.242188 280.886719 C 231.589844 279.804688 231.15625 278.71875 231.375 277.527344 L 231.917969 267.765625 L 223.238281 263.316406 C 222.15625 262.773438 221.285156 261.90625 220.746094 260.824219 L 216.296875 252.144531 L 206.535156 252.6875 C 205.34375 252.796875 204.039062 252.46875 203.171875 251.820312 L 194.929688 246.503906 L 186.902344 251.820312 C 185.820312 252.46875 184.734375 252.90625 183.539062 252.6875 L 173.777344 252.144531 L 169.332031 260.824219 C 168.789062 261.90625 167.921875 262.773438 166.835938 263.316406 L 158.160156 267.765625 L 158.703125 277.527344 C 158.8125 278.71875 158.484375 280.019531 157.835938 280.886719 L 152.519531 289.132812 L 157.835938 297.15625 C 158.484375 298.242188 158.917969 299.328125 158.703125 300.519531 L 158.160156 310.28125 L 166.835938 314.730469 C 167.921875 315.273438 168.789062 316.140625 169.332031 317.222656 L 173.777344 325.902344 L 183.539062 325.359375 C 183.648438 325.359375 183.757812 325.359375 183.757812 325.359375 C 184.949219 325.359375 185.925781 325.792969 186.902344 326.226562 L 195.148438 331.542969 L 203.171875 326.226562 C 204.257812 325.574219 205.34375 325.140625 206.535156 325.359375 L 216.296875 325.902344 L 220.746094 317.222656 C 221.285156 316.140625 222.15625 315.273438 223.238281 314.730469 L 231.917969 310.28125 Z M 195.039062 319.71875 C 178.007812 319.71875 164.234375 305.945312 164.234375 288.914062 C 164.234375 271.886719 178.007812 258.109375 195.039062 258.109375 C 212.066406 258.109375 225.84375 271.886719 225.84375 288.914062 C 225.84375 305.945312 211.957031 319.609375 195.039062 319.71875 Z M 195.039062 319.71875 " fill-opacity="1" fill-rule="nonzero"/></svg>