<svg xmlns="http://www.w3.org/2000/svg" xmlns:xlink="http://www.w3.org/1999/xlink" width="500" zoomAndPan="magnify" viewBox="0 0 375 374.999991" height="500" preserveAspectRatio="xMidYMid meet" version="1.0"><defs><clipPath id="34c3b46c56"><path d="M 187.5 0 C 83.945312 0 0 83.945312 0 187.5 C 0 291.054688 83.945312 375 187.5 375 C 291.054688 375 375 291.054688 375 187.5 C 375 83.945312 291.054688 0 187.5 0 Z M 187.5 0 " clip-rule="nonzero"/></clipPath><clipPath id="37b3084831"><path d="M 0 0 L 375 0 L 375 375 L 0 375 Z M 0 0 " clip-rule="nonzero"/></clipPath><clipPath id="16630425d8"><path d="M 187.5 0 C 83.945312 0 0 83.945312 0 187.5 C 0 291.054688 83.945312 375 187.5 375 C 291.054688 375 375 291.054688 375 187.5 C 375 83.945312 291.054688 0 187.5 0 Z M 187.5 0 " clip-rule="nonzero"/></clipPath><clipPath id="b9d008ab83"><rect x="0" width="375" y="0" height="375"/></clipPath><clipPath id="6dc0f93d1a"><path d="M 63.527344 58.886719 L 311.777344 58.886719 L 311.777344 303.386719 L 63.527344 303.386719 Z M 63.527344 58.886719 " clip-rule="nonzero"/></clipPath></defs><g clip-path="url(#34c3b46c56)"><g transform="matrix(1, 0, 0, 1, 0, 0)"><g clip-path="url(#b9d008ab83)"><g clip-path="url(#37b3084831)"><g clip-path="url(#16630425d8)"><rect x="-82.5" width="540" fill="#e6ac41" height="539.999987" y="-82.499998" fill-opacity="1"/></g></g></g></g></g><g clip-path="url(#6dc0f93d1a)"><path fill="#ffffff" d="M 293.601562 277.625 L 293.601562 259.292969 L 275.269531 259.292969 L 275.269531 142.15625 L 293.601562 142.15625 L 293.601562 116.054688 L 278.6875 116.054688 L 187.648438 58.886719 L 96.613281 116.054688 L 81.699219 116.054688 L 81.699219 142.15625 L 100.03125 142.15625 L 100.03125 259.292969 L 81.699219 259.292969 L 81.699219 277.625 L 63.988281 277.625 L 63.988281 303.726562 L 311.003906 303.726562 L 311.003906 277.625 Z M 267.503906 258.984375 L 248.238281 258.984375 L 248.238281 142.15625 L 267.503906 142.15625 Z M 169.007812 258.984375 L 134.828125 258.984375 L 134.828125 142.15625 L 169.007812 142.15625 Z M 176.773438 142.15625 L 196.039062 142.15625 L 196.039062 259.292969 L 176.773438 259.292969 Z M 203.496094 142.15625 L 240.472656 142.15625 L 240.472656 259.292969 L 203.496094 259.292969 Z M 187.648438 67.894531 L 264.085938 115.746094 L 111.214844 115.746094 Z M 89.464844 134.386719 L 89.464844 123.824219 L 285.835938 123.824219 L 285.835938 134.386719 Z M 107.796875 142.15625 L 127.0625 142.15625 L 127.0625 259.292969 L 107.796875 259.292969 Z M 89.464844 266.75 L 286.144531 266.75 L 286.144531 277.316406 L 89.464844 277.316406 Z M 303.234375 295.957031 L 72.066406 295.957031 L 72.066406 285.394531 L 303.855469 285.394531 L 303.855469 295.957031 Z M 303.234375 295.957031 " fill-opacity="1" fill-rule="nonzero"/></g></svg>