<svg xmlns="http://www.w3.org/2000/svg" xmlns:xlink="http://www.w3.org/1999/xlink" width="500" zoomAndPan="magnify" viewBox="0 0 375 374.999991" height="500" preserveAspectRatio="xMidYMid meet" version="1.0"><defs><clipPath id="af21882484"><path d="M 187.5 0 C 83.945312 0 0 83.945312 0 187.5 C 0 291.054688 83.945312 375 187.5 375 C 291.054688 375 375 291.054688 375 187.5 C 375 83.945312 291.054688 0 187.5 0 Z M 187.5 0 " clip-rule="nonzero"/></clipPath><clipPath id="67c195e4c4"><path d="M 0 0 L 375 0 L 375 375 L 0 375 Z M 0 0 " clip-rule="nonzero"/></clipPath><clipPath id="ef4f23e18b"><path d="M 187.5 0 C 83.945312 0 0 83.945312 0 187.5 C 0 291.054688 83.945312 375 187.5 375 C 291.054688 375 375 291.054688 375 187.5 C 375 83.945312 291.054688 0 187.5 0 Z M 187.5 0 " clip-rule="nonzero"/></clipPath><clipPath id="9b6e32d2ee"><rect x="0" width="375" y="0" height="375"/></clipPath><clipPath id="c9e72ff9d7"><path d="M 115 212 L 316 212 L 316 291.472656 L 115 291.472656 Z M 115 212 " clip-rule="nonzero"/></clipPath><clipPath id="abe15920cc"><path d="M 58.074219 195 L 109 195 L 109 291.472656 L 58.074219 291.472656 Z M 58.074219 195 " clip-rule="nonzero"/></clipPath><clipPath id="2479ad9e5a"><path d="M 182 70.972656 L 216 70.972656 L 216 113 L 182 113 Z M 182 70.972656 " clip-rule="nonzero"/></clipPath></defs><g clip-path="url(#af21882484)"><g transform="matrix(1, 0, 0, 1, 0, 0)"><g clip-path="url(#9b6e32d2ee)"><g clip-path="url(#67c195e4c4)"><g clip-path="url(#ef4f23e18b)"><rect x="-82.5" width="540" fill="#e6ac41" height="539.999987" y="-82.499998" fill-opacity="1"/></g></g></g></g></g><g clip-path="url(#c9e72ff9d7)"><path fill="#ffffff" d="M 115.144531 212.820312 L 115.144531 277.941406 L 131.195312 284.511719 C 143.160156 289.414062 154.246094 291.597656 167.195312 291.597656 L 246.378906 291.597656 C 254.761719 291.597656 262.015625 288.59375 267.941406 282.667969 L 312.410156 238.210938 C 316.773438 233.835938 316.773438 226.722656 312.410156 222.351562 C 308.027344 217.980469 300.910156 217.976562 296.546875 222.351562 L 255.585938 263.308594 C 251.792969 267.097656 247.15625 269.019531 241.789062 269.019531 L 177.640625 269.019531 C 170.269531 269.019531 164.253906 263.015625 164.253906 255.636719 L 164.253906 248.621094 C 164.253906 241.246094 170.269531 235.242188 177.640625 235.242188 L 205.671875 235.242188 C 211.871094 235.242188 216.898438 230.210938 216.898438 224.027344 C 216.898438 217.839844 211.871094 212.808594 205.671875 212.808594 L 115.140625 212.808594 Z M 115.144531 212.820312 " fill-opacity="1" fill-rule="evenodd"/></g><g clip-path="url(#abe15920cc)"><path fill="#ffffff" d="M 108.394531 289.976562 L 108.394531 196.988281 C 108.394531 196.347656 107.867188 195.808594 107.226562 195.808594 L 59.351562 195.808594 C 58.710938 195.808594 58.183594 196.347656 58.183594 196.988281 L 58.183594 289.976562 C 58.183594 290.617188 58.710938 291.160156 59.351562 291.160156 L 107.226562 291.160156 C 107.867188 291.160156 108.394531 290.617188 108.394531 289.976562 Z M 108.394531 289.976562 " fill-opacity="1" fill-rule="evenodd"/></g><path fill="#ffffff" d="M 235.703125 254.316406 L 171.007812 254.316406 L 171.007812 255.644531 C 171.007812 259.304688 173.992188 262.277344 177.640625 262.277344 L 241.789062 262.277344 C 245.347656 262.277344 248.308594 261.058594 250.8125 258.546875 L 291.773438 217.589844 C 296.410156 212.949219 302.976562 211.386719 308.902344 212.890625 C 308.398438 211.023438 307.4375 209.289062 306.035156 207.902344 C 303.945312 205.800781 301.121094 204.636719 298.113281 204.636719 C 295.105469 204.636719 292.285156 205.792969 290.191406 207.902344 L 249.484375 248.601562 C 245.695312 252.390625 241.058594 254.3125 235.710938 254.3125 Z M 235.703125 254.316406 " fill-opacity="1" fill-rule="evenodd"/><path fill="#ffffff" d="M 268.445312 208.257812 L 229.117188 247.570312 L 235.703125 247.570312 C 239.242188 247.570312 242.203125 246.351562 244.707031 243.835938 L 282.035156 206.523438 C 280.335938 205.53125 278.386719 204.988281 276.363281 204.988281 C 273.355469 204.988281 270.53125 206.152344 268.441406 208.257812 Z M 268.445312 208.257812 " fill-opacity="1" fill-rule="evenodd"/><g clip-path="url(#2479ad9e5a)"><path fill="#ffffff" d="M 198.992188 112.3125 C 207.121094 112.3125 211.253906 106.90625 213.273438 102.375 C 217.105469 93.765625 216.304688 81.554688 211.550781 76.238281 C 208.222656 72.535156 204.480469 70.949219 199.015625 70.949219 C 193.550781 70.949219 189.738281 72.53125 186.433594 76.238281 C 181.660156 81.546875 180.855469 93.757812 184.714844 102.371094 C 186.730469 106.90625 190.839844 112.3125 198.992188 112.3125 Z M 198.992188 112.3125 " fill-opacity="1" fill-rule="evenodd"/></g><path fill="#ffffff" d="M 144.441406 112.148438 C 148.023438 104.085938 146.578125 94.054688 143.019531 90.097656 C 140.265625 87.007812 137.117188 85.691406 132.550781 85.691406 C 127.988281 85.691406 124.816406 87.007812 122.039062 90.097656 C 118.503906 94.054688 117.058594 104.085938 120.640625 112.148438 C 122.335938 115.929688 125.761719 120.445312 132.53125 120.445312 C 139.296875 120.445312 142.746094 115.9375 144.441406 112.148438 Z M 144.441406 112.148438 " fill-opacity="1" fill-rule="evenodd"/><path fill="#ffffff" d="M 152.542969 135.328125 C 150.386719 134.929688 145.976562 134.675781 140.789062 134.558594 L 139.203125 139.425781 L 144.050781 163.574219 C 144.234375 164.445312 144.050781 165.347656 143.566406 166.089844 L 139.9375 171.589844 L 152.519531 171.589844 L 152.519531 147.230469 C 152.519531 143.265625 153.488281 139.460938 155.207031 136.042969 C 154.335938 135.738281 153.464844 135.496094 152.542969 135.328125 Z M 152.542969 135.328125 " fill-opacity="1" fill-rule="evenodd"/><path fill="#ffffff" d="M 121.019531 163.574219 L 125.867188 139.425781 L 124.28125 134.609375 C 118.242188 134.777344 113.121094 135.113281 111.261719 135.609375 C 103.867188 137.535156 98.722656 143.878906 98.722656 151.035156 L 98.722656 171.589844 L 105.796875 171.589844 L 105.796875 155.808594 C 105.796875 153.949219 107.316406 152.433594 109.171875 152.433594 C 111.023438 152.433594 112.542969 153.949219 112.542969 155.808594 L 112.542969 171.589844 L 125.125 171.589844 L 121.5 166.089844 C 121.015625 165.347656 120.835938 164.445312 121.015625 163.574219 Z M 121.019531 163.574219 " fill-opacity="1" fill-rule="evenodd"/><path fill="#ffffff" d="M 132.113281 142.597656 L 127.886719 163.542969 L 132.523438 170.589844 L 137.160156 163.542969 L 132.960938 142.597656 Z M 132.113281 142.597656 " fill-opacity="1" fill-rule="evenodd"/><path fill="#ffffff" d="M 131.792969 135.851562 L 133.28125 135.851562 L 133.722656 134.484375 C 132.941406 134.484375 132.136719 134.484375 131.355469 134.496094 Z M 131.792969 135.851562 " fill-opacity="1" fill-rule="evenodd"/><path fill="#ffffff" d="M 174.195312 128.828125 C 165.402344 131.128906 159.273438 138.6875 159.273438 147.230469 L 159.273438 171.589844 L 168.550781 171.589844 L 168.550781 152.761719 C 168.550781 150.894531 170.066406 149.386719 171.921875 149.386719 C 173.777344 149.386719 175.296875 150.894531 175.296875 152.761719 L 175.296875 171.589844 L 191.570312 171.589844 L 186.703125 164.179688 C 186.195312 163.4375 186.039062 162.53125 186.195312 161.660156 L 191.824219 133.691406 L 189.851562 127.648438 C 182.597656 127.84375 176.421875 128.242188 174.195312 128.828125 Z M 174.195312 128.828125 " fill-opacity="1" fill-rule="evenodd"/><path fill="#ffffff" d="M 198.078125 136.855469 L 193.089844 161.632812 L 198.992188 170.589844 L 204.875 161.632812 L 199.886719 136.855469 Z M 198.078125 136.855469 " fill-opacity="1" fill-rule="evenodd"/><path fill="#ffffff" d="M 206.132812 133.691406 L 211.761719 161.660156 C 211.945312 162.53125 211.761719 163.4375 211.277344 164.179688 L 206.410156 171.589844 L 222.683594 171.589844 L 222.683594 152.761719 C 222.683594 150.894531 224.203125 149.386719 226.058594 149.386719 C 227.914062 149.386719 229.429688 150.894531 229.429688 152.761719 L 229.429688 171.589844 L 238.707031 171.589844 L 238.707031 147.230469 C 238.707031 138.132812 231.796875 130.25 222.269531 128.492188 C 219.699219 128.011719 214.367188 127.722656 208.125 127.589844 L 206.128906 133.691406 Z M 206.132812 133.691406 " fill-opacity="1" fill-rule="evenodd"/><path fill="#ffffff" d="M 200.207031 130.109375 L 201.054688 127.511719 C 199.679688 127.511719 198.300781 127.511719 196.902344 127.523438 L 197.75 130.105469 L 200.207031 130.105469 Z M 200.207031 130.109375 " fill-opacity="1" fill-rule="evenodd"/><path fill="#ffffff" d="M 254.941406 90.097656 C 251.382812 94.054688 249.941406 104.085938 253.542969 112.148438 C 255.21875 115.929688 258.664062 120.445312 265.433594 120.445312 C 272.203125 120.445312 275.648438 115.9375 277.324219 112.148438 C 280.929688 104.085938 279.484375 94.054688 275.925781 90.097656 C 273.148438 87.007812 270.019531 85.691406 265.457031 85.691406 C 260.890625 85.691406 257.71875 87.007812 254.941406 90.097656 Z M 254.941406 90.097656 " fill-opacity="1" fill-rule="evenodd"/><path fill="#ffffff" d="M 285.460938 135.328125 C 283.300781 134.929688 278.894531 134.675781 273.703125 134.558594 L 272.097656 139.425781 L 276.964844 163.574219 C 277.128906 164.445312 276.964844 165.347656 276.480469 166.089844 L 272.855469 171.589844 L 285.414062 171.589844 L 285.414062 155.808594 C 285.414062 153.949219 286.933594 152.433594 288.789062 152.433594 C 290.644531 152.433594 292.160156 153.949219 292.160156 155.808594 L 292.160156 171.589844 L 299.257812 171.589844 L 299.257812 151.035156 C 299.257812 143.410156 293.449219 136.800781 285.460938 135.320312 Z M 285.460938 135.328125 " fill-opacity="1" fill-rule="evenodd"/><path fill="#ffffff" d="M 270.078125 163.542969 L 265.851562 142.597656 L 265.023438 142.597656 L 260.800781 163.542969 L 265.441406 170.589844 Z M 270.078125 163.542969 " fill-opacity="1" fill-rule="evenodd"/><path fill="#ffffff" d="M 264.703125 135.851562 L 266.171875 135.851562 L 266.632812 134.484375 C 265.851562 134.484375 265.046875 134.484375 264.242188 134.496094 Z M 264.703125 135.851562 " fill-opacity="1" fill-rule="evenodd"/><path fill="#ffffff" d="M 258.777344 139.425781 L 257.191406 134.609375 C 251.132812 134.777344 246.03125 135.113281 244.148438 135.609375 C 243.6875 135.730469 243.234375 135.878906 242.773438 136.042969 C 244.492188 139.449219 245.457031 143.253906 245.457031 147.230469 L 245.457031 171.589844 L 258.019531 171.589844 L 254.390625 166.089844 C 253.910156 165.347656 253.75 164.445312 253.910156 163.574219 Z M 258.777344 139.425781 " fill-opacity="1" fill-rule="evenodd"/></svg>