<svg xmlns="http://www.w3.org/2000/svg" xmlns:xlink="http://www.w3.org/1999/xlink" width="500" zoomAndPan="magnify" viewBox="0 0 375 374.999991" height="500" preserveAspectRatio="xMidYMid meet" version="1.0"><defs><clipPath id="906376d12e"><path d="M 187.5 0 C 83.945312 0 0 83.945312 0 187.5 C 0 291.054688 83.945312 375 187.5 375 C 291.054688 375 375 291.054688 375 187.5 C 375 83.945312 291.054688 0 187.5 0 Z M 187.5 0 " clip-rule="nonzero"/></clipPath><clipPath id="fca38e17d7"><path d="M 0 0 L 375 0 L 375 375 L 0 375 Z M 0 0 " clip-rule="nonzero"/></clipPath><clipPath id="01b5774cc2"><path d="M 187.5 0 C 83.945312 0 0 83.945312 0 187.5 C 0 291.054688 83.945312 375 187.5 375 C 291.054688 375 375 291.054688 375 187.5 C 375 83.945312 291.054688 0 187.5 0 Z M 187.5 0 " clip-rule="nonzero"/></clipPath><clipPath id="7c2c113234"><rect x="0" width="375" y="0" height="375"/></clipPath><clipPath id="dd746dd790"><path d="M 66 58.644531 L 308 58.644531 L 308 305.394531 L 66 305.394531 Z M 66 58.644531 " clip-rule="nonzero"/></clipPath></defs><g clip-path="url(#906376d12e)"><g transform="matrix(1, 0, 0, 1, 0, 0)"><g clip-path="url(#7c2c113234)"><g clip-path="url(#fca38e17d7)"><g clip-path="url(#01b5774cc2)"><rect x="-82.5" width="540" fill="#e6ac41" height="539.999987" y="-82.499998" fill-opacity="1"/></g></g></g></g></g><g clip-path="url(#dd746dd790)"><path fill="#ffffff" d="M 304.992188 211.054688 C 302.703125 207.234375 293.316406 195.898438 268.519531 210.339844 L 256.3125 217.449219 C 258.484375 212.027344 259.792969 206.332031 260.164062 200.535156 C 260.886719 189.101562 258.085938 177.738281 251.832031 166.757812 C 245.089844 154.917969 234.824219 141.546875 219.738281 124.992188 C 223.894531 122.738281 226.726562 118.339844 226.726562 113.289062 C 226.726562 106.574219 221.71875 101.007812 215.242188 100.117188 L 224.253906 91.109375 C 229.539062 85.824219 229.539062 77.21875 224.253906 71.933594 C 219.777344 67.460938 212.664062 66.695312 207.332031 70.113281 C 206.976562 70.34375 206.675781 70.371094 206.285156 70.207031 C 205.898438 70.046875 205.699219 69.8125 205.609375 69.402344 C 204.257812 63.214844 198.6875 58.722656 192.359375 58.722656 C 186.035156 58.722656 180.460938 63.214844 179.109375 69.402344 C 179.019531 69.8125 178.824219 70.046875 178.4375 70.207031 C 178.046875 70.371094 177.742188 70.34375 177.386719 70.117188 C 172.058594 66.695312 164.945312 67.460938 160.46875 71.933594 C 157.914062 74.488281 156.507812 77.894531 156.507812 81.523438 C 156.507812 85.152344 157.914062 88.558594 160.46875 91.109375 L 169.476562 100.117188 C 163 101.007812 157.996094 106.574219 157.996094 113.289062 C 157.996094 118.339844 160.824219 122.738281 164.980469 124.992188 C 149.898438 141.546875 139.628906 154.917969 132.886719 166.757812 C 124.761719 181.023438 122.445312 196.074219 126.121094 210.476562 L 101.386719 224.800781 L 98.300781 219.351562 C 95.503906 214.410156 89.210938 212.664062 84.269531 215.460938 L 71.988281 222.410156 C 67.050781 225.207031 65.304688 231.503906 68.101562 236.445312 L 104.195312 300.222656 C 106.089844 303.566406 109.582031 305.445312 113.175781 305.445312 C 114.890625 305.445312 116.632812 305.015625 118.230469 304.113281 L 130.507812 297.164062 C 135.449219 294.367188 137.195312 288.070312 134.398438 283.128906 L 130.660156 276.53125 L 138.117188 272.226562 L 194.171875 287.246094 C 197.335938 288.09375 200.441406 288.515625 203.476562 288.515625 C 209.535156 288.515625 215.324219 286.835938 220.773438 283.480469 L 300.183594 234.582031 C 307.410156 230.132812 309.699219 218.917969 304.992188 211.054688 Z M 164.21875 81.523438 C 164.21875 79.953125 164.824219 78.484375 165.921875 77.386719 C 167.851562 75.457031 170.921875 75.125 173.222656 76.605469 C 175.695312 78.191406 178.671875 78.457031 181.386719 77.332031 C 184.101562 76.207031 186.015625 73.914062 186.644531 71.046875 C 187.226562 68.375 189.632812 66.433594 192.359375 66.433594 C 195.089844 66.433594 197.492188 68.371094 198.078125 71.046875 C 198.703125 73.917969 200.621094 76.207031 203.335938 77.332031 C 206.046875 78.457031 209.023438 78.191406 211.496094 76.601562 C 213.796875 75.125 216.871094 75.457031 218.800781 77.386719 C 219.898438 78.484375 220.5 79.953125 220.5 81.523438 C 220.5 83.09375 219.898438 84.5625 218.800781 85.660156 L 204.46875 99.992188 L 180.253906 99.992188 L 165.921875 85.660156 C 164.824219 84.5625 164.21875 83.09375 164.21875 81.523438 Z M 171.292969 107.699219 L 213.425781 107.699219 C 216.507812 107.699219 219.015625 110.207031 219.015625 113.289062 C 219.015625 116.371094 216.507812 118.878906 213.425781 118.878906 L 171.292969 118.878906 C 168.210938 118.878906 165.707031 116.371094 165.707031 113.289062 C 165.707031 110.207031 168.214844 107.699219 171.292969 107.699219 Z M 139.585938 170.574219 C 146.519531 158.402344 157.46875 144.398438 173.984375 126.589844 L 210.734375 126.589844 C 227.25 144.398438 238.203125 158.402344 245.132812 170.574219 C 255.613281 188.976562 255.003906 208.734375 243.5 224.910156 L 224.761719 235.828125 C 222.542969 237.117188 220.289062 238.027344 217.933594 238.5625 C 218.8125 237.167969 219.5 235.585938 219.96875 233.832031 C 222.203125 225.5 217.25 216.796875 208.691406 214.023438 C 208.527344 213.96875 208.359375 213.925781 208.1875 213.894531 C 207.292969 213.734375 206.402344 213.558594 205.511719 213.375 C 206.898438 212.496094 208.121094 211.472656 209.121094 210.316406 C 211.703125 207.328125 212.808594 203.578125 212.308594 199.476562 C 210.785156 186.9375 197.285156 184.71875 192.851562 183.992188 C 181.652344 182.152344 181.425781 177.515625 181.339844 175.773438 C 181.097656 170.722656 185.21875 167.96875 189.160156 167.074219 C 190.082031 166.863281 191.046875 166.742188 192.019531 166.71875 C 192.15625 166.722656 192.292969 166.722656 192.425781 166.714844 C 196.894531 166.726562 201.515625 168.816406 203.667969 173.949219 C 204.492188 175.910156 206.75 176.835938 208.714844 176.011719 C 210.679688 175.1875 211.601562 172.925781 210.777344 170.964844 C 207.828125 163.9375 202.007812 160.371094 196.035156 159.34375 L 196.035156 155.644531 C 196.035156 153.515625 194.308594 151.789062 192.179688 151.789062 C 190.050781 151.789062 188.324219 153.515625 188.324219 155.644531 L 188.324219 159.378906 C 188.03125 159.429688 187.742188 159.492188 187.453125 159.554688 C 178.804688 161.515625 173.253906 168.183594 173.640625 176.148438 C 173.917969 181.898438 177.261719 189.246094 191.601562 191.597656 C 202.441406 193.378906 204.269531 197.242188 204.65625 200.40625 C 204.890625 202.347656 204.445312 203.9375 203.289062 205.273438 C 199.339844 209.839844 191.273438 210.226562 186.015625 208.015625 C 183.601562 207.003906 180.558594 204.933594 179.527344 200.792969 C 179.011719 198.726562 176.921875 197.46875 174.855469 197.984375 C 172.789062 198.5 171.53125 200.59375 172.046875 202.65625 C 172.089844 202.828125 172.136719 202.992188 172.183594 203.160156 C 169.101562 202.046875 166.203125 201.007812 163.699219 200.195312 C 152.507812 196.566406 142.386719 201.0625 133.964844 205.9375 L 133.101562 206.4375 C 130.679688 194.640625 132.886719 182.339844 139.585938 170.574219 Z M 126.710938 290.453125 L 114.433594 297.402344 C 113.210938 298.09375 111.597656 297.644531 110.90625 296.425781 L 74.808594 232.648438 C 74.117188 231.425781 74.566406 229.8125 75.789062 229.121094 C 75.789062 229.121094 88.066406 222.171875 88.066406 222.171875 C 89.273438 221.488281 90.898438 221.925781 91.589844 223.148438 L 127.6875 286.925781 C 128.378906 288.148438 127.929688 289.761719 126.710938 290.453125 Z M 296.140625 228.015625 L 216.730469 276.914062 C 210.425781 280.796875 203.507812 281.765625 196.167969 279.796875 L 138.570312 264.363281 C 137.582031 264.101562 136.527344 264.238281 135.644531 264.75 L 126.863281 269.820312 L 105.183594 231.507812 L 137.828125 212.609375 C 145.132812 208.378906 153.03125 204.839844 161.324219 207.527344 C 163.984375 208.390625 167.046875 209.5 170.597656 210.78125 C 180.773438 214.460938 193.421875 219.03125 206.539062 221.429688 C 211.128906 223.03125 213.695312 227.464844 212.523438 231.835938 C 210.984375 237.585938 206.195312 238.300781 202.386719 237.863281 C 195.9375 236.539062 189.8125 234.789062 183.332031 232.9375 C 180.257812 232.0625 177.078125 231.152344 173.8125 230.277344 C 171.753906 229.726562 169.644531 230.949219 169.089844 233.003906 C 168.539062 235.058594 169.761719 237.171875 171.816406 237.726562 C 175.023438 238.582031 178.171875 239.480469 181.214844 240.351562 C 187.890625 242.257812 194.199219 244.0625 200.992188 245.449219 C 201.019531 245.453125 206.585938 246.363281 206.585938 246.363281 C 214.714844 247.664062 221.933594 246.394531 228.640625 242.488281 L 272.398438 217.003906 C 285.011719 209.65625 294.722656 208.914062 298.375 215.015625 C 300.894531 219.222656 299.765625 225.785156 296.140625 228.015625 Z M 91.640625 234.511719 C 91.992188 236.910156 90.332031 239.132812 87.9375 239.484375 C 85.542969 239.835938 83.316406 238.175781 82.964844 235.78125 C 82.617188 233.386719 84.273438 231.160156 86.667969 230.808594 C 89.066406 230.460938 91.289062 232.117188 91.640625 234.511719 Z M 91.640625 234.511719 " fill-opacity="1" fill-rule="evenodd"/></g></svg>