<svg xmlns="http://www.w3.org/2000/svg" xmlns:xlink="http://www.w3.org/1999/xlink" width="500" zoomAndPan="magnify" viewBox="0 0 375 374.999991" height="500" preserveAspectRatio="xMidYMid meet" version="1.0"><defs><clipPath id="6da5306e4e"><path d="M 321 120 L 364.832031 120 L 364.832031 218 L 321 218 Z M 321 120 " clip-rule="nonzero"/></clipPath><clipPath id="5ccf79e600"><path d="M 10.082031 0 L 364.832031 0 L 364.832031 375 L 10.082031 375 Z M 10.082031 0 " clip-rule="nonzero"/></clipPath><clipPath id="8463ac08c0"><path d="M 321 120 L 364.832031 120 L 364.832031 218 L 321 218 Z M 321 120 " clip-rule="nonzero"/></clipPath><clipPath id="706a818f35"><path d="M 10.082031 0 L 364.832031 0 L 364.832031 375 L 10.082031 375 Z M 10.082031 0 " clip-rule="nonzero"/></clipPath></defs><path fill="#0b1972" d="M 223.855469 302.738281 C 223.269531 302.738281 222.570312 302.621094 221.984375 302.386719 L 207.730469 327.035156 C 213.105469 324.699219 219.53125 322.363281 227.125 320.261719 C 229.695312 313.015625 236.355469 295.492188 246.519531 279.839844 L 218.128906 263.484375 C 209.71875 280.074219 197.917969 294.675781 192.894531 300.515625 C 195 308.109375 196.167969 314.886719 196.75 320.726562 L 211.003906 296.078125 C 208.785156 294.089844 208.316406 290.9375 209.835938 288.25 C 211.585938 285.214844 215.324219 284.160156 218.363281 285.914062 L 222.570312 288.367188 L 226.773438 290.820312 C 229.8125 292.574219 230.863281 296.3125 229.109375 299.347656 C 228.175781 301.683594 226.074219 302.738281 223.855469 302.738281 Z M 223.855469 302.738281 " fill-opacity="1" fill-rule="nonzero"/><path fill="#0b1972" d="M 275.839844 155.890625 L 311.121094 176.214844 L 315.675781 168.390625 L 280.28125 148.0625 Z M 275.839844 155.890625 " fill-opacity="1" fill-rule="nonzero"/><path fill="#0b1972" d="M 286.679688 137.160156 L 291.234375 129.269531 L 326.542969 149.660156 L 321.988281 157.550781 Z M 286.679688 137.160156 " fill-opacity="1" fill-rule="nonzero"/><path fill="#0b1972" d="M 344.882812 117.804688 C 345 117.6875 345 117.570312 345.117188 117.453125 L 346.984375 114.183594 C 352.59375 104.488281 349.207031 92.101562 339.507812 86.496094 L 339.394531 86.378906 C 334.71875 83.691406 329.230469 82.992188 323.972656 84.394531 C 318.714844 85.792969 314.277344 89.183594 311.589844 93.855469 L 297.335938 118.386719 L 332.617188 138.832031 Z M 344.882812 117.804688 " fill-opacity="1" fill-rule="nonzero"/><g clip-path="url(#6da5306e4e)"><path fill="#0b1972" d="M 360.769531 123.527344 L 357.96875 120.140625 C 357.851562 120.257812 357.851562 120.375 357.851562 120.492188 L 351.308594 131.824219 C 356.683594 138.480469 357.265625 147.242188 353.0625 154.605469 L 321.984375 208.34375 C 320.234375 211.378906 321.285156 215.117188 324.324219 216.871094 C 325.257812 217.457031 326.425781 217.6875 327.476562 217.6875 C 329.695312 217.6875 331.683594 216.519531 332.96875 214.535156 L 363.925781 160.796875 C 370.816406 148.878906 369.53125 134.160156 360.769531 123.527344 Z M 360.769531 123.527344 " fill-opacity="1" fill-rule="nonzero"/></g><path fill="#0b1972" d="M 252.59375 61.261719 C 252.59375 59.742188 252.242188 58.457031 251.65625 57.171875 C 251.542969 57.054688 251.542969 56.9375 251.542969 56.824219 C 250.023438 53.550781 246.519531 51.332031 242.664062 51.332031 C 233.667969 51.332031 224.90625 50.398438 217.546875 39.648438 C 214.976562 35.792969 211.121094 33.808594 206.449219 33.808594 L 184.015625 33.808594 C 175.371094 33.808594 167.894531 28.199219 165.558594 19.789062 C 164.039062 14.183594 158.785156 10.210938 152.941406 10.210938 C 147.101562 10.210938 141.960938 14.183594 140.324219 19.789062 C 137.988281 28.199219 130.628906 33.808594 121.867188 33.808594 L 99.320312 33.808594 C 94.53125 33.808594 90.910156 35.792969 87.988281 40.117188 C 80.980469 50.515625 71.984375 51.449219 63.339844 51.449219 C 59.484375 51.449219 56.09375 53.667969 54.460938 56.9375 C 54.34375 57.054688 54.34375 57.171875 54.34375 57.289062 C 54.34375 57.289062 54.34375 57.289062 54.34375 57.40625 C 53.757812 58.691406 53.410156 59.976562 53.410156 61.496094 L 53.410156 69.789062 L 252.59375 69.789062 Z M 153.058594 64.300781 C 142.894531 64.300781 134.601562 56.003906 134.601562 45.839844 C 134.601562 35.675781 142.894531 27.382812 153.058594 27.382812 C 163.222656 27.382812 171.515625 35.675781 171.515625 45.839844 C 171.515625 56.003906 163.222656 64.300781 153.058594 64.300781 Z M 153.058594 64.300781 " fill-opacity="1" fill-rule="nonzero"/><path fill="#0b1972" d="M 224.085938 252.503906 L 253.410156 269.441406 L 283.785156 216.871094 C 283.902344 216.753906 283.902344 216.753906 283.902344 216.636719 L 301.890625 185.445312 L 272.570312 168.507812 Z M 224.085938 252.503906 " fill-opacity="1" fill-rule="nonzero"/><path fill="#0b1972" d="M 153.058594 39.765625 C 149.789062 39.765625 147.101562 42.453125 147.101562 45.722656 C 147.101562 48.996094 149.789062 51.683594 153.058594 51.683594 C 156.328125 51.683594 159.015625 48.996094 159.015625 45.722656 C 159.015625 42.453125 156.328125 39.765625 153.058594 39.765625 Z M 153.058594 39.765625 " fill-opacity="1" fill-rule="nonzero"/><path fill="#0b1972" d="M 83.199219 128.433594 C 85.066406 128.433594 86.703125 127.734375 87.988281 126.449219 C 87.988281 126.449219 87.988281 126.449219 88.105469 126.332031 C 89.273438 125.164062 90.089844 123.410156 90.089844 121.660156 C 90.089844 117.921875 87.054688 114.882812 83.316406 114.882812 C 79.578125 114.882812 76.539062 117.921875 76.539062 121.660156 C 76.421875 125.398438 79.460938 128.433594 83.199219 128.433594 Z M 83.199219 128.433594 " fill-opacity="1" fill-rule="nonzero"/><path fill="#0b1972" d="M 98.386719 150.515625 C 98.386719 145.84375 96.164062 141.402344 92.542969 138.480469 C 89.742188 140 86.585938 140.9375 83.082031 140.9375 C 79.460938 140.9375 75.957031 139.882812 73.035156 138.132812 C 69.179688 141.050781 66.726562 145.609375 66.726562 150.515625 L 66.726562 156.007812 L 98.269531 156.007812 C 98.386719 156.007812 98.386719 150.515625 98.386719 150.515625 Z M 98.386719 150.515625 " fill-opacity="1" fill-rule="nonzero"/><path fill="#0b1972" d="M 261.003906 281.242188 C 260.886719 281.359375 260.886719 281.472656 260.769531 281.589844 L 260.652344 281.707031 C 246.519531 300.75 238.105469 327.269531 237.988281 327.503906 C 237.289062 329.605469 235.652344 331.125 233.550781 331.707031 C 205.277344 338.484375 195 349.699219 194.179688 350.75 C 194.179688 350.75 194.179688 350.75 194.179688 350.867188 C 194.0625 350.984375 194.0625 351.101562 193.832031 351.21875 C 193.714844 351.335938 193.597656 351.453125 193.480469 351.570312 C 192.3125 352.738281 190.675781 353.4375 189.039062 353.4375 C 187.988281 353.4375 186.820312 353.085938 185.886719 352.621094 C 184.132812 351.6875 183.082031 349.816406 182.847656 347.945312 C 182.847656 347.714844 182.730469 347.480469 182.730469 347.128906 C 182.730469 346.894531 182.730469 346.777344 182.730469 346.546875 C 182.730469 346.3125 182.847656 346.195312 182.847656 345.960938 C 182.964844 345.726562 182.964844 345.609375 182.964844 345.378906 L 182.964844 345.261719 C 183.082031 345.027344 183.082031 344.910156 183.199219 344.792969 C 183.199219 344.675781 183.316406 344.675781 183.316406 344.675781 C 183.785156 343.15625 188.222656 328.671875 180.046875 301.21875 C 179.460938 299.113281 179.929688 296.777344 181.445312 295.257812 C 181.5625 295.027344 200.253906 274.582031 209.71875 252.851562 C 209.835938 252.734375 209.835938 252.503906 209.953125 252.386719 C 210.070312 252.269531 210.070312 252.152344 210.070312 252.035156 L 210.1875 251.800781 L 262.054688 161.964844 C 260.769531 159.976562 260.652344 157.523438 261.820312 155.421875 L 272.6875 136.730469 L 282.964844 118.972656 L 282.964844 60.910156 L 265.09375 60.910156 C 265.09375 61.144531 265.09375 61.261719 265.09375 61.496094 L 265.09375 75.980469 C 265.09375 79.371094 262.289062 82.289062 258.785156 82.289062 L 47.101562 82.289062 C 43.710938 82.289062 40.792969 79.484375 40.792969 75.980469 L 40.792969 61.496094 C 40.792969 61.261719 40.792969 61.144531 40.792969 60.910156 L 23.035156 60.910156 L 23.035156 369.324219 L 282.96875 369.324219 L 282.96875 243.15625 L 261.003906 281.007812 C 261.003906 281.125 261.003906 281.125 261.003906 281.242188 Z M 226.425781 159.746094 L 155.511719 159.746094 C 152.125 159.746094 149.203125 156.941406 149.203125 153.4375 C 149.203125 150.046875 152.007812 147.128906 155.511719 147.128906 L 226.425781 147.128906 C 229.8125 147.128906 232.734375 149.929688 232.734375 153.4375 C 232.734375 156.941406 229.8125 159.746094 226.425781 159.746094 Z M 134.484375 111.027344 L 247.335938 111.027344 C 250.722656 111.027344 253.644531 113.832031 253.644531 117.335938 C 253.644531 120.726562 250.839844 123.644531 247.335938 123.644531 L 134.484375 123.644531 C 131.097656 123.644531 128.175781 120.84375 128.175781 117.335938 C 128.175781 113.832031 131.097656 111.027344 134.484375 111.027344 Z M 54.34375 150.515625 C 54.34375 141.753906 58.433594 133.691406 65.089844 128.433594 C 64.273438 126.332031 63.921875 123.996094 63.921875 121.660156 C 63.921875 111.027344 72.566406 102.5 83.082031 102.5 C 93.710938 102.5 102.355469 111.144531 102.355469 121.660156 C 102.355469 124.230469 101.890625 126.800781 100.839844 129.136719 C 107.03125 134.394531 110.769531 142.21875 110.769531 150.515625 L 110.769531 162.199219 C 110.769531 165.585938 107.964844 168.507812 104.460938 168.507812 L 60.535156 168.507812 C 57.148438 168.507812 54.226562 165.703125 54.226562 162.199219 L 54.226562 150.515625 Z M 58.78125 183.34375 L 193.011719 183.34375 C 196.402344 183.34375 199.320312 186.144531 199.320312 189.652344 C 199.320312 193.039062 196.515625 195.960938 193.011719 195.960938 L 58.78125 195.960938 C 55.394531 195.960938 52.472656 193.15625 52.472656 189.652344 C 52.472656 186.261719 55.160156 183.34375 58.78125 183.34375 Z M 158.785156 340.585938 L 58.78125 340.585938 C 55.394531 340.585938 52.472656 337.785156 52.472656 334.277344 C 52.472656 330.890625 55.277344 327.96875 58.78125 327.96875 L 158.785156 327.96875 C 162.171875 327.96875 165.089844 330.773438 165.089844 334.277344 C 165.089844 337.785156 162.171875 340.585938 158.785156 340.585938 Z M 158.785156 304.371094 L 58.78125 304.371094 C 55.394531 304.371094 52.472656 301.566406 52.472656 298.0625 C 52.472656 294.675781 55.277344 291.753906 58.78125 291.753906 L 158.785156 291.753906 C 162.171875 291.753906 165.089844 294.558594 165.089844 298.0625 C 165.089844 301.566406 162.171875 304.371094 158.785156 304.371094 Z M 158.785156 268.273438 L 58.78125 268.273438 C 55.394531 268.273438 52.472656 265.46875 52.472656 261.964844 C 52.472656 258.460938 55.277344 255.65625 58.78125 255.65625 L 158.785156 255.65625 C 162.171875 255.65625 165.089844 258.460938 165.089844 261.964844 C 165.089844 265.46875 162.171875 268.273438 158.785156 268.273438 Z M 158.785156 232.058594 L 58.78125 232.058594 C 55.394531 232.058594 52.472656 229.253906 52.472656 225.75 C 52.472656 222.363281 55.277344 219.441406 58.78125 219.441406 L 158.785156 219.441406 C 162.171875 219.441406 165.089844 222.246094 165.089844 225.75 C 165.089844 229.253906 162.171875 232.058594 158.785156 232.058594 Z M 158.785156 232.058594 " fill-opacity="1" fill-rule="nonzero"/><g clip-path="url(#5ccf79e600)"><path fill="#0b1972" d="M 453.996094 80.539062 C 439.859375 47.125 419.652344 17.21875 393.949219 -8.597656 C 368.25 -34.300781 338.222656 -54.511719 304.8125 -68.644531 C 270.234375 -83.25 233.550781 -90.726562 195.699219 -90.726562 C 157.847656 -90.726562 121.164062 -83.367188 86.585938 -68.644531 C 53.175781 -54.511719 23.269531 -34.300781 -2.550781 -8.597656 C -28.367188 17.101562 -48.460938 47.125 -62.597656 80.539062 C -77.199219 115.117188 -84.675781 151.800781 -84.675781 189.652344 C -84.675781 227.503906 -77.316406 264.183594 -62.597656 298.765625 C -48.460938 332.175781 -28.25 362.082031 -2.550781 387.902344 C 23.152344 413.601562 53.175781 433.8125 86.585938 447.949219 C 121.164062 462.550781 157.847656 470.027344 195.699219 470.027344 C 233.550781 470.027344 270.234375 462.667969 304.8125 447.949219 C 338.222656 433.8125 368.132812 413.601562 393.949219 387.902344 C 419.652344 362.199219 439.859375 332.175781 453.996094 298.765625 C 468.601562 264.183594 476.078125 227.503906 476.078125 189.652344 C 476.078125 151.800781 468.601562 115.117188 453.996094 80.539062 Z M 465.5625 189.652344 C 465.5625 338.484375 344.417969 459.628906 195.582031 459.628906 C 46.75 459.628906 -74.398438 338.484375 -74.398438 189.652344 C -74.398438 40.816406 46.75 -80.328125 195.582031 -80.328125 C 344.53125 -80.328125 465.5625 40.816406 465.5625 189.652344 Z M 465.5625 189.652344 " fill-opacity="1" fill-rule="nonzero"/></g><path fill="#0b1972" d="M 223.855469 302.738281 C 223.269531 302.738281 222.570312 302.621094 221.984375 302.386719 L 207.730469 327.035156 C 213.105469 324.699219 219.53125 322.363281 227.125 320.261719 C 229.695312 313.015625 236.355469 295.492188 246.519531 279.839844 L 218.128906 263.484375 C 209.71875 280.074219 197.917969 294.675781 192.894531 300.515625 C 195 308.109375 196.167969 314.886719 196.75 320.726562 L 211.003906 296.078125 C 208.785156 294.089844 208.316406 290.9375 209.835938 288.25 C 211.585938 285.214844 215.324219 284.160156 218.363281 285.914062 L 222.570312 288.367188 L 226.773438 290.820312 C 229.8125 292.574219 230.863281 296.3125 229.109375 299.347656 C 228.175781 301.683594 226.074219 302.738281 223.855469 302.738281 Z M 223.855469 302.738281 " fill-opacity="1" fill-rule="nonzero"/><path fill="#0b1972" d="M 275.839844 155.890625 L 311.121094 176.214844 L 315.675781 168.390625 L 280.28125 148.0625 Z M 275.839844 155.890625 " fill-opacity="1" fill-rule="nonzero"/><path fill="#0b1972" d="M 286.679688 137.160156 L 291.234375 129.269531 L 326.542969 149.660156 L 321.988281 157.550781 Z M 286.679688 137.160156 " fill-opacity="1" fill-rule="nonzero"/><path fill="#0b1972" d="M 344.882812 117.804688 C 345 117.6875 345 117.570312 345.117188 117.453125 L 346.984375 114.183594 C 352.59375 104.488281 349.207031 92.101562 339.507812 86.496094 L 339.394531 86.378906 C 334.71875 83.691406 329.230469 82.992188 323.972656 84.394531 C 318.714844 85.792969 314.277344 89.183594 311.589844 93.855469 L 297.335938 118.386719 L 332.617188 138.832031 Z M 344.882812 117.804688 " fill-opacity="1" fill-rule="nonzero"/><g clip-path="url(#8463ac08c0)"><path fill="#0b1972" d="M 360.769531 123.527344 L 357.96875 120.140625 C 357.851562 120.257812 357.851562 120.375 357.851562 120.492188 L 351.308594 131.824219 C 356.683594 138.480469 357.265625 147.242188 353.0625 154.605469 L 321.984375 208.34375 C 320.234375 211.378906 321.285156 215.117188 324.324219 216.871094 C 325.257812 217.457031 326.425781 217.6875 327.476562 217.6875 C 329.695312 217.6875 331.683594 216.519531 332.96875 214.535156 L 363.925781 160.796875 C 370.816406 148.878906 369.53125 134.160156 360.769531 123.527344 Z M 360.769531 123.527344 " fill-opacity="1" fill-rule="nonzero"/></g><path fill="#0b1972" d="M 252.59375 61.261719 C 252.59375 59.742188 252.242188 58.457031 251.65625 57.171875 C 251.542969 57.054688 251.542969 56.9375 251.542969 56.824219 C 250.023438 53.550781 246.519531 51.332031 242.664062 51.332031 C 233.667969 51.332031 224.90625 50.398438 217.546875 39.648438 C 214.976562 35.792969 211.121094 33.808594 206.449219 33.808594 L 184.015625 33.808594 C 175.371094 33.808594 167.894531 28.199219 165.558594 19.789062 C 164.039062 14.183594 158.785156 10.210938 152.941406 10.210938 C 147.101562 10.210938 141.960938 14.183594 140.324219 19.789062 C 137.988281 28.199219 130.628906 33.808594 121.867188 33.808594 L 99.320312 33.808594 C 94.53125 33.808594 90.910156 35.792969 87.988281 40.117188 C 80.980469 50.515625 71.984375 51.449219 63.339844 51.449219 C 59.484375 51.449219 56.09375 53.667969 54.460938 56.9375 C 54.34375 57.054688 54.34375 57.171875 54.34375 57.289062 C 54.34375 57.289062 54.34375 57.289062 54.34375 57.40625 C 53.757812 58.691406 53.410156 59.976562 53.410156 61.496094 L 53.410156 69.789062 L 252.59375 69.789062 Z M 153.058594 64.300781 C 142.894531 64.300781 134.601562 56.003906 134.601562 45.839844 C 134.601562 35.675781 142.894531 27.382812 153.058594 27.382812 C 163.222656 27.382812 171.515625 35.675781 171.515625 45.839844 C 171.515625 56.003906 163.222656 64.300781 153.058594 64.300781 Z M 153.058594 64.300781 " fill-opacity="1" fill-rule="nonzero"/><path fill="#0b1972" d="M 224.085938 252.503906 L 253.410156 269.441406 L 283.785156 216.871094 C 283.902344 216.753906 283.902344 216.753906 283.902344 216.636719 L 301.890625 185.445312 L 272.570312 168.507812 Z M 224.085938 252.503906 " fill-opacity="1" fill-rule="nonzero"/><path fill="#0b1972" d="M 153.058594 39.765625 C 149.789062 39.765625 147.101562 42.453125 147.101562 45.722656 C 147.101562 48.996094 149.789062 51.683594 153.058594 51.683594 C 156.328125 51.683594 159.015625 48.996094 159.015625 45.722656 C 159.015625 42.453125 156.328125 39.765625 153.058594 39.765625 Z M 153.058594 39.765625 " fill-opacity="1" fill-rule="nonzero"/><path fill="#0b1972" d="M 83.199219 128.433594 C 85.066406 128.433594 86.703125 127.734375 87.988281 126.449219 C 87.988281 126.449219 87.988281 126.449219 88.105469 126.332031 C 89.273438 125.164062 90.089844 123.410156 90.089844 121.660156 C 90.089844 117.921875 87.054688 114.882812 83.316406 114.882812 C 79.578125 114.882812 76.539062 117.921875 76.539062 121.660156 C 76.421875 125.398438 79.460938 128.433594 83.199219 128.433594 Z M 83.199219 128.433594 " fill-opacity="1" fill-rule="nonzero"/><path fill="#0b1972" d="M 98.386719 150.515625 C 98.386719 145.84375 96.164062 141.402344 92.542969 138.480469 C 89.742188 140 86.585938 140.9375 83.082031 140.9375 C 79.460938 140.9375 75.957031 139.882812 73.035156 138.132812 C 69.179688 141.050781 66.726562 145.609375 66.726562 150.515625 L 66.726562 156.007812 L 98.269531 156.007812 C 98.386719 156.007812 98.386719 150.515625 98.386719 150.515625 Z M 98.386719 150.515625 " fill-opacity="1" fill-rule="nonzero"/><path fill="#0b1972" d="M 261.003906 281.242188 C 260.886719 281.359375 260.886719 281.472656 260.769531 281.589844 L 260.652344 281.707031 C 246.519531 300.75 238.105469 327.269531 237.988281 327.503906 C 237.289062 329.605469 235.652344 331.125 233.550781 331.707031 C 205.277344 338.484375 195 349.699219 194.179688 350.75 C 194.179688 350.75 194.179688 350.75 194.179688 350.867188 C 194.0625 350.984375 194.0625 351.101562 193.832031 351.21875 C 193.714844 351.335938 193.597656 351.453125 193.480469 351.570312 C 192.3125 352.738281 190.675781 353.4375 189.039062 353.4375 C 187.988281 353.4375 186.820312 353.085938 185.886719 352.621094 C 184.132812 351.6875 183.082031 349.816406 182.847656 347.945312 C 182.847656 347.714844 182.730469 347.480469 182.730469 347.128906 C 182.730469 346.894531 182.730469 346.777344 182.730469 346.546875 C 182.730469 346.3125 182.847656 346.195312 182.847656 345.960938 C 182.964844 345.726562 182.964844 345.609375 182.964844 345.378906 L 182.964844 345.261719 C 183.082031 345.027344 183.082031 344.910156 183.199219 344.792969 C 183.199219 344.675781 183.316406 344.675781 183.316406 344.675781 C 183.785156 343.15625 188.222656 328.671875 180.046875 301.21875 C 179.460938 299.113281 179.929688 296.777344 181.445312 295.257812 C 181.5625 295.027344 200.253906 274.582031 209.71875 252.851562 C 209.835938 252.734375 209.835938 252.503906 209.953125 252.386719 C 210.070312 252.269531 210.070312 252.152344 210.070312 252.035156 L 210.1875 251.800781 L 262.054688 161.964844 C 260.769531 159.976562 260.652344 157.523438 261.820312 155.421875 L 272.6875 136.730469 L 282.964844 118.972656 L 282.964844 60.910156 L 265.09375 60.910156 C 265.09375 61.144531 265.09375 61.261719 265.09375 61.496094 L 265.09375 75.980469 C 265.09375 79.371094 262.289062 82.289062 258.785156 82.289062 L 47.101562 82.289062 C 43.710938 82.289062 40.792969 79.484375 40.792969 75.980469 L 40.792969 61.496094 C 40.792969 61.261719 40.792969 61.144531 40.792969 60.910156 L 23.035156 60.910156 L 23.035156 369.324219 L 282.96875 369.324219 L 282.96875 243.15625 L 261.003906 281.007812 C 261.003906 281.125 261.003906 281.125 261.003906 281.242188 Z M 226.425781 159.746094 L 155.511719 159.746094 C 152.125 159.746094 149.203125 156.941406 149.203125 153.4375 C 149.203125 150.046875 152.007812 147.128906 155.511719 147.128906 L 226.425781 147.128906 C 229.8125 147.128906 232.734375 149.929688 232.734375 153.4375 C 232.734375 156.941406 229.8125 159.746094 226.425781 159.746094 Z M 134.484375 111.027344 L 247.335938 111.027344 C 250.722656 111.027344 253.644531 113.832031 253.644531 117.335938 C 253.644531 120.726562 250.839844 123.644531 247.335938 123.644531 L 134.484375 123.644531 C 131.097656 123.644531 128.175781 120.84375 128.175781 117.335938 C 128.175781 113.832031 131.097656 111.027344 134.484375 111.027344 Z M 54.34375 150.515625 C 54.34375 141.753906 58.433594 133.691406 65.089844 128.433594 C 64.273438 126.332031 63.921875 123.996094 63.921875 121.660156 C 63.921875 111.027344 72.566406 102.5 83.082031 102.5 C 93.710938 102.5 102.355469 111.144531 102.355469 121.660156 C 102.355469 124.230469 101.890625 126.800781 100.839844 129.136719 C 107.03125 134.394531 110.769531 142.21875 110.769531 150.515625 L 110.769531 162.199219 C 110.769531 165.585938 107.964844 168.507812 104.460938 168.507812 L 60.535156 168.507812 C 57.148438 168.507812 54.226562 165.703125 54.226562 162.199219 L 54.226562 150.515625 Z M 58.78125 183.34375 L 193.011719 183.34375 C 196.402344 183.34375 199.320312 186.144531 199.320312 189.652344 C 199.320312 193.039062 196.515625 195.960938 193.011719 195.960938 L 58.78125 195.960938 C 55.394531 195.960938 52.472656 193.15625 52.472656 189.652344 C 52.472656 186.261719 55.160156 183.34375 58.78125 183.34375 Z M 158.785156 340.585938 L 58.78125 340.585938 C 55.394531 340.585938 52.472656 337.785156 52.472656 334.277344 C 52.472656 330.890625 55.277344 327.96875 58.78125 327.96875 L 158.785156 327.96875 C 162.171875 327.96875 165.089844 330.773438 165.089844 334.277344 C 165.089844 337.785156 162.171875 340.585938 158.785156 340.585938 Z M 158.785156 304.371094 L 58.78125 304.371094 C 55.394531 304.371094 52.472656 301.566406 52.472656 298.0625 C 52.472656 294.675781 55.277344 291.753906 58.78125 291.753906 L 158.785156 291.753906 C 162.171875 291.753906 165.089844 294.558594 165.089844 298.0625 C 165.089844 301.566406 162.171875 304.371094 158.785156 304.371094 Z M 158.785156 268.273438 L 58.78125 268.273438 C 55.394531 268.273438 52.472656 265.46875 52.472656 261.964844 C 52.472656 258.460938 55.277344 255.65625 58.78125 255.65625 L 158.785156 255.65625 C 162.171875 255.65625 165.089844 258.460938 165.089844 261.964844 C 165.089844 265.46875 162.171875 268.273438 158.785156 268.273438 Z M 158.785156 232.058594 L 58.78125 232.058594 C 55.394531 232.058594 52.472656 229.253906 52.472656 225.75 C 52.472656 222.363281 55.277344 219.441406 58.78125 219.441406 L 158.785156 219.441406 C 162.171875 219.441406 165.089844 222.246094 165.089844 225.75 C 165.089844 229.253906 162.171875 232.058594 158.785156 232.058594 Z M 158.785156 232.058594 " fill-opacity="1" fill-rule="nonzero"/><g clip-path="url(#706a818f35)"><path fill="#0b1972" d="M 453.996094 80.539062 C 439.859375 47.125 419.652344 17.21875 393.949219 -8.597656 C 368.25 -34.300781 338.222656 -54.511719 304.8125 -68.644531 C 270.234375 -83.25 233.550781 -90.726562 195.699219 -90.726562 C 157.847656 -90.726562 121.164062 -83.367188 86.585938 -68.644531 C 53.175781 -54.511719 23.269531 -34.300781 -2.550781 -8.597656 C -28.367188 17.101562 -48.460938 47.125 -62.597656 80.539062 C -77.199219 115.117188 -84.675781 151.800781 -84.675781 189.652344 C -84.675781 227.503906 -77.316406 264.183594 -62.597656 298.765625 C -48.460938 332.175781 -28.25 362.082031 -2.550781 387.902344 C 23.152344 413.601562 53.175781 433.8125 86.585938 447.949219 C 121.164062 462.550781 157.847656 470.027344 195.699219 470.027344 C 233.550781 470.027344 270.234375 462.667969 304.8125 447.949219 C 338.222656 433.8125 368.132812 413.601562 393.949219 387.902344 C 419.652344 362.199219 439.859375 332.175781 453.996094 298.765625 C 468.601562 264.183594 476.078125 227.503906 476.078125 189.652344 C 476.078125 151.800781 468.601562 115.117188 453.996094 80.539062 Z M 465.5625 189.652344 C 465.5625 338.484375 344.417969 459.628906 195.582031 459.628906 C 46.75 459.628906 -74.398438 338.484375 -74.398438 189.652344 C -74.398438 40.816406 46.75 -80.328125 195.582031 -80.328125 C 344.53125 -80.328125 465.5625 40.816406 465.5625 189.652344 Z M 465.5625 189.652344 " fill-opacity="1" fill-rule="nonzero"/></g></svg>