<svg xmlns="http://www.w3.org/2000/svg" xmlns:xlink="http://www.w3.org/1999/xlink" width="500" zoomAndPan="magnify" viewBox="0 0 375 374.999991" height="500" preserveAspectRatio="xMidYMid meet" version="1.0"><defs><clipPath id="844cdf9ef6"><path d="M 187.5 0 C 83.945312 0 0 83.945312 0 187.5 C 0 291.054688 83.945312 375 187.5 375 C 291.054688 375 375 291.054688 375 187.5 C 375 83.945312 291.054688 0 187.5 0 Z M 187.5 0 " clip-rule="nonzero"/></clipPath><clipPath id="073f2ea7a5"><path d="M 0 0 L 375 0 L 375 375 L 0 375 Z M 0 0 " clip-rule="nonzero"/></clipPath><clipPath id="84cb075e24"><path d="M 187.5 0 C 83.945312 0 0 83.945312 0 187.5 C 0 291.054688 83.945312 375 187.5 375 C 291.054688 375 375 291.054688 375 187.5 C 375 83.945312 291.054688 0 187.5 0 Z M 187.5 0 " clip-rule="nonzero"/></clipPath><clipPath id="2a3c1077ce"><rect x="0" width="375" y="0" height="375"/></clipPath><clipPath id="7cbff454e8"><path d="M 31.597656 92 L 283 92 L 283 203.6875 L 31.597656 203.6875 Z M 31.597656 92 " clip-rule="nonzero"/></clipPath><clipPath id="a28f095b66"><path d="M 54 43.863281 L 259 43.863281 L 259 90 L 54 90 Z M 54 43.863281 " clip-rule="nonzero"/></clipPath><clipPath id="ee20f574a6"><path d="M 0.429688 1.140625 L 96.324219 1.140625 L 96.324219 65 L 0.429688 65 Z M 0.429688 1.140625 " clip-rule="nonzero"/></clipPath><clipPath id="9e18271606"><path d="M 225.917969 1.140625 L 301.832031 1.140625 L 301.832031 77.058594 L 225.917969 77.058594 Z M 225.917969 1.140625 " clip-rule="nonzero"/></clipPath><clipPath id="01186a8729"><rect x="0" width="303" y="0" height="205"/></clipPath></defs><g clip-path="url(#844cdf9ef6)"><g transform="matrix(1, 0, 0, 1, 0, 0)"><g clip-path="url(#2a3c1077ce)"><g clip-path="url(#073f2ea7a5)"><g clip-path="url(#84cb075e24)"><rect x="-82.5" width="540" fill="#e6ac41" height="539.999987" y="-82.499998" fill-opacity="1"/></g></g></g></g></g><g transform="matrix(1, 0, 0, 1, 38, 86)"><g clip-path="url(#01186a8729)"><g clip-path="url(#7cbff454e8)"><path fill="#ffffff" d="M 157.226562 204.359375 C 116.285156 204.359375 75.34375 204.359375 34.40625 204.359375 C 34.089844 204.359375 33.777344 204.382812 33.460938 204.367188 C 32.390625 204.308594 31.597656 203.839844 31.59375 202.683594 C 31.59375 201.570312 32.347656 200.941406 33.394531 200.871094 C 34.855469 200.777344 36.324219 200.800781 37.789062 200.84375 C 38.59375 200.867188 38.902344 200.609375 38.863281 199.777344 C 38.804688 198.574219 38.800781 197.367188 38.878906 196.167969 C 38.996094 194.285156 40.140625 193.246094 42.039062 193.195312 C 45.273438 193.109375 45.273438 193.109375 45.285156 189.820312 C 45.289062 189.507812 45.289062 189.195312 45.292969 188.878906 C 45.328125 186.484375 46.328125 185.515625 48.773438 185.507812 C 52.359375 185.496094 52.359375 185.496094 52.433594 182.039062 C 52.492188 179.363281 53.476562 178.402344 56.191406 178.371094 C 59.121094 178.339844 59.128906 178.339844 59.128906 175.433594 C 59.136719 154.753906 59.132812 134.074219 59.167969 113.394531 C 59.171875 112.40625 58.996094 112.050781 57.90625 112.0625 C 55.164062 112.09375 54.421875 111.261719 54.421875 108.480469 C 54.425781 103.613281 54.492188 98.742188 54.390625 93.875 C 54.359375 92.449219 54.769531 92.171875 56.117188 92.175781 C 83.707031 92.210938 111.296875 92.195312 138.886719 92.195312 C 177.210938 92.191406 215.53125 92.199219 253.855469 92.199219 C 255.109375 92.199219 256.367188 92.257812 257.621094 92.214844 C 258.40625 92.191406 258.714844 92.390625 258.710938 93.257812 C 258.671875 98.597656 258.714844 103.9375 258.691406 109.277344 C 258.679688 111.117188 257.675781 112.210938 255.875 112.0625 C 254.117188 111.917969 253.902344 112.621094 253.90625 114.152344 C 253.957031 135.039062 253.957031 155.929688 253.914062 176.820312 C 253.914062 178.15625 254.257812 178.570312 255.558594 178.398438 C 256.488281 178.277344 257.441406 178.347656 258.382812 178.382812 C 260.296875 178.449219 261.335938 179.507812 261.4375 181.4375 C 261.445312 181.59375 261.433594 181.753906 261.445312 181.910156 C 261.546875 183.089844 260.902344 184.628906 261.722656 185.359375 C 262.515625 186.0625 264.023438 185.542969 265.214844 185.558594 C 267.933594 185.59375 268.835938 186.511719 268.839844 189.273438 C 268.84375 190.527344 268.417969 192.15625 269.039062 192.933594 C 269.707031 193.769531 271.402344 193.125 272.644531 193.167969 C 274.703125 193.242188 275.808594 194.292969 275.867188 196.378906 C 275.898438 197.527344 275.914062 198.683594 275.851562 199.832031 C 275.808594 200.671875 276.113281 200.917969 276.933594 200.871094 C 278.132812 200.800781 279.339844 200.828125 280.546875 200.859375 C 282.09375 200.898438 283.03125 201.625 282.917969 202.75 C 282.769531 204.195312 281.710938 204.390625 280.511719 204.390625 C 264.859375 204.371094 249.207031 204.359375 233.554688 204.355469 C 208.113281 204.347656 182.667969 204.351562 157.226562 204.351562 C 157.226562 204.355469 157.226562 204.355469 157.226562 204.359375 Z M 137.792969 145.25 C 137.792969 154.566406 137.78125 163.886719 137.804688 173.203125 C 137.808594 174.867188 137.097656 177.066406 138.058594 178.054688 C 139.105469 179.128906 141.332031 178.21875 143.027344 178.402344 C 144.171875 178.523438 144.523438 178.175781 144.519531 176.957031 C 144.480469 166.699219 144.546875 156.4375 144.503906 146.179688 C 144.496094 144.910156 144.871094 144.632812 146.054688 144.640625 C 153.28125 144.699219 160.503906 144.722656 167.726562 144.660156 C 169.039062 144.648438 169.492188 144.835938 169.480469 146.308594 C 169.410156 156.515625 169.472656 166.726562 169.433594 176.933594 C 169.425781 178.097656 169.6875 178.507812 170.890625 178.410156 C 172.242188 178.296875 173.621094 178.277344 174.96875 178.402344 C 176.371094 178.535156 176.679688 178.070312 176.675781 176.6875 C 176.632812 155.640625 176.644531 134.597656 176.691406 113.554688 C 176.695312 112.375 176.429688 112.082031 175.242188 112.085938 C 163.304688 112.136719 151.371094 112.152344 139.433594 112.074219 C 137.945312 112.066406 137.757812 112.542969 137.765625 113.839844 C 137.8125 124.3125 137.792969 134.78125 137.792969 145.25 Z M 156.5625 95.03125 C 147.925781 95.03125 139.285156 95.035156 130.644531 95.03125 C 106.769531 95.03125 82.894531 95.035156 59.019531 95 C 57.84375 95 57.273438 95.210938 57.449219 96.527344 C 57.566406 97.398438 57.542969 98.3125 57.449219 99.191406 C 57.324219 100.34375 57.675781 100.695312 58.894531 100.695312 C 75.492188 100.644531 92.089844 100.65625 108.6875 100.652344 C 156.332031 100.652344 203.980469 100.65625 251.628906 100.652344 C 252.925781 100.652344 254.636719 101.101562 255.417969 100.453125 C 256.34375 99.679688 255.609375 97.886719 255.789062 96.558594 C 255.964844 95.304688 255.511719 95.003906 254.265625 95.003906 C 221.699219 95.042969 189.128906 95.035156 156.5625 95.03125 Z M 211.289062 145.242188 C 211.289062 134.667969 211.261719 124.09375 211.328125 113.519531 C 211.332031 112.265625 210.953125 112.085938 209.84375 112.09375 C 203.246094 112.140625 196.652344 112.136719 190.054688 112.085938 C 188.980469 112.074219 188.632812 112.328125 188.632812 113.449219 C 188.667969 134.703125 188.671875 155.957031 188.648438 177.210938 C 188.644531 178.203125 188.9375 178.425781 189.882812 178.417969 C 196.53125 178.371094 203.179688 178.355469 209.828125 178.398438 C 210.945312 178.40625 211.328125 178.203125 211.320312 176.964844 C 211.265625 166.390625 211.289062 155.816406 211.289062 145.242188 Z M 103.390625 145.234375 C 103.394531 145.234375 103.398438 145.234375 103.402344 145.234375 C 103.402344 155.863281 103.417969 166.492188 103.375 177.121094 C 103.371094 178.160156 103.621094 178.425781 104.660156 178.414062 C 111.152344 178.359375 117.644531 178.335938 124.136719 178.402344 C 125.46875 178.417969 125.746094 178.03125 125.742188 176.761719 C 125.707031 155.609375 125.707031 134.453125 125.757812 113.300781 C 125.761719 112.089844 125.253906 112.09375 124.375 112.097656 C 117.882812 112.121094 111.390625 112.152344 104.898438 112.089844 C 103.636719 112.078125 103.355469 112.445312 103.363281 113.660156 C 103.410156 124.183594 103.390625 134.707031 103.390625 145.234375 Z M 157.523438 196.640625 C 157.523438 196.648438 157.523438 196.65625 157.523438 196.664062 C 120.085938 196.664062 82.648438 196.667969 45.210938 196.664062 C 42.4375 196.664062 42.492188 196.65625 42.414062 199.433594 C 42.378906 200.601562 42.683594 200.910156 43.882812 200.910156 C 119.125 200.871094 194.367188 200.867188 269.609375 200.855469 C 272.347656 200.855469 272.269531 200.835938 272.449219 198.195312 C 272.535156 196.921875 272.1875 196.613281 270.933594 196.617188 C 233.132812 196.648438 195.328125 196.640625 157.523438 196.640625 Z M 157.054688 193.183594 C 157.054688 193.179688 157.054688 193.179688 157.054688 193.175781 C 192.292969 193.175781 227.527344 193.175781 262.761719 193.175781 C 265.3125 193.175781 265.183594 193.160156 265.382812 190.675781 C 265.515625 189.019531 264.980469 188.734375 263.4375 188.738281 C 209.5625 188.777344 155.6875 188.765625 101.8125 188.765625 C 84.585938 188.765625 67.363281 188.78125 50.136719 188.753906 C 49.089844 188.753906 48.539062 188.933594 48.738281 190.101562 C 48.796875 190.457031 48.800781 190.839844 48.738281 191.195312 C 48.449219 192.824219 49.09375 193.222656 50.71875 193.21875 C 86.164062 193.167969 121.609375 193.183594 157.054688 193.183594 Z M 91.28125 145.253906 C 91.285156 145.253906 91.289062 145.253906 91.292969 145.253906 C 91.292969 134.632812 91.269531 124.003906 91.324219 113.382812 C 91.328125 112.304688 91.050781 112.078125 90.039062 112.085938 C 84.175781 112.128906 78.3125 112.128906 72.453125 112.09375 C 71.492188 112.085938 71.097656 112.246094 71.097656 113.347656 C 71.132812 134.597656 71.125 155.847656 71.097656 177.097656 C 71.09375 178.113281 71.347656 178.417969 72.394531 178.40625 C 78.101562 178.347656 83.804688 178.324219 89.511719 178.398438 C 90.878906 178.414062 91.335938 178.164062 91.324219 176.660156 C 91.246094 166.191406 91.28125 155.722656 91.28125 145.253906 Z M 156.476562 108.679688 C 188.617188 108.679688 220.757812 108.683594 252.898438 108.679688 C 255.757812 108.679688 255.664062 108.671875 255.804688 105.792969 C 255.878906 104.289062 255.503906 103.902344 253.957031 103.902344 C 189.519531 103.945312 125.078125 103.941406 60.640625 103.941406 C 57.503906 103.941406 57.59375 103.9375 57.46875 106.96875 C 57.40625 108.4375 57.886719 108.714844 59.269531 108.714844 C 91.671875 108.675781 124.074219 108.683594 156.476562 108.679688 Z M 241.980469 145.296875 C 241.976562 145.296875 241.976562 145.296875 241.972656 145.296875 C 241.972656 134.722656 241.953125 124.144531 242 113.570312 C 242.007812 112.402344 241.734375 112.074219 240.539062 112.085938 C 235.304688 112.15625 230.066406 112.160156 224.835938 112.078125 C 223.566406 112.058594 223.273438 112.441406 223.277344 113.648438 C 223.316406 134.796875 223.320312 155.949219 223.300781 177.097656 C 223.300781 178.09375 223.523438 178.433594 224.597656 178.421875 C 229.886719 178.351562 235.171875 178.339844 240.460938 178.402344 C 241.6875 178.417969 242.019531 178.121094 242.011719 176.863281 C 241.957031 166.339844 241.980469 155.820312 241.980469 145.296875 Z M 156.894531 181.84375 C 134.28125 181.84375 111.664062 181.84375 89.050781 181.847656 C 78.476562 181.847656 67.902344 181.851562 57.328125 181.867188 C 56.832031 181.871094 56.007812 181.601562 55.910156 182.140625 C 55.726562 183.148438 55.710938 184.265625 55.964844 185.246094 C 56.144531 185.957031 57.070312 185.570312 57.648438 185.570312 C 106.332031 185.589844 155.015625 185.597656 203.703125 185.597656 C 221.238281 185.597656 238.777344 185.589844 256.3125 185.570312 C 256.808594 185.570312 257.542969 185.859375 257.773438 185.363281 C 258.21875 184.40625 258.066406 183.285156 257.902344 182.285156 C 257.765625 181.449219 256.851562 181.867188 256.304688 181.867188 C 223.167969 181.84375 190.03125 181.84375 156.894531 181.84375 Z M 129.214844 145.210938 C 129.21875 145.210938 129.222656 145.210938 129.226562 145.210938 C 129.226562 155.097656 129.226562 164.988281 129.226562 174.875 C 129.230469 178.402344 129.238281 178.316406 132.777344 178.433594 C 134.289062 178.488281 134.527344 177.964844 134.523438 176.605469 C 134.492188 156.410156 134.511719 136.214844 134.519531 116.015625 C 134.519531 112.074219 134.519531 112.121094 130.53125 112.085938 C 129.382812 112.074219 129.183594 112.445312 129.1875 113.503906 C 129.230469 124.070312 129.214844 134.640625 129.214844 145.210938 Z M 99.96875 145.242188 C 99.96875 145.242188 99.972656 145.242188 99.976562 145.242188 C 99.976562 135.347656 99.972656 125.457031 99.976562 115.5625 C 99.976562 112.117188 99.984375 112.179688 96.496094 112.074219 C 95.15625 112.035156 94.757812 112.328125 94.761719 113.765625 C 94.8125 134.125 94.785156 154.484375 94.777344 174.847656 C 94.777344 178.375 94.777344 178.316406 98.347656 178.414062 C 99.632812 178.449219 100.003906 178.125 100 176.804688 C 99.941406 166.285156 99.96875 155.761719 99.96875 145.242188 Z M 185.351562 145.421875 C 185.359375 145.421875 185.367188 145.421875 185.375 145.421875 C 185.375 135.480469 185.371094 125.542969 185.375 115.601562 C 185.378906 112.105469 185.382812 112.167969 181.925781 112.085938 C 180.550781 112.050781 180.113281 112.363281 180.117188 113.847656 C 180.171875 134.09375 180.140625 154.339844 180.160156 174.585938 C 180.160156 175.820312 179.59375 177.457031 180.429688 178.175781 C 181.128906 178.78125 182.722656 178.28125 183.90625 178.40625 C 185.074219 178.53125 185.390625 178.175781 185.382812 176.96875 C 185.328125 166.453125 185.351562 155.9375 185.351562 145.421875 Z M 214.769531 145.25 C 214.773438 145.25 214.777344 145.25 214.78125 145.25 C 214.78125 155.144531 214.777344 165.039062 214.78125 174.933594 C 214.785156 178.386719 214.796875 178.3125 218.300781 178.421875 C 219.6875 178.464844 220.011719 178.105469 220.007812 176.714844 C 219.964844 156.402344 219.984375 136.09375 219.992188 115.785156 C 219.992188 112.078125 219.988281 112.128906 216.230469 112.070312 C 215.0625 112.050781 214.734375 112.339844 214.742188 113.53125 C 214.789062 124.105469 214.769531 134.679688 214.769531 145.25 Z M 67.621094 145.414062 C 67.625 145.414062 67.628906 145.414062 67.632812 145.414062 C 67.632812 135.46875 67.632812 125.527344 67.632812 115.582031 C 67.632812 112.101562 67.632812 112.171875 64.179688 112.078125 C 62.8125 112.039062 62.578125 112.488281 62.582031 113.746094 C 62.625 134.105469 62.617188 154.464844 62.625 174.824219 C 62.625 178.402344 62.632812 178.328125 66.160156 178.421875 C 67.492188 178.453125 67.648438 177.960938 67.644531 176.816406 C 67.601562 166.347656 67.621094 155.882812 67.621094 145.414062 Z M 250.449219 145.320312 C 250.449219 135.375 250.449219 125.429688 250.449219 115.488281 C 250.453125 112.105469 250.453125 112.167969 247.070312 112.074219 C 245.785156 112.039062 245.433594 112.339844 245.433594 113.675781 C 245.484375 134.089844 245.472656 154.5 245.472656 174.910156 C 245.472656 178.371094 245.476562 178.320312 248.914062 178.398438 C 250.113281 178.429688 250.492188 178.164062 250.484375 176.878906 C 250.425781 166.359375 250.449219 155.839844 250.449219 145.320312 Z M 155.605469 168.339844 C 155.601562 168.339844 155.597656 168.339844 155.597656 168.339844 C 155.597656 165.355469 155.539062 162.371094 155.625 159.394531 C 155.65625 158.246094 155.269531 157.964844 154.203125 158.015625 C 152.53125 158.09375 150.855469 158.085938 149.183594 158.023438 C 148.199219 157.984375 147.828125 158.222656 147.839844 159.3125 C 147.898438 165.277344 147.890625 171.242188 147.84375 177.207031 C 147.835938 178.21875 148.171875 178.4375 149.101562 178.398438 C 150.828125 178.328125 152.558594 178.300781 154.28125 178.398438 C 155.4375 178.460938 155.652344 178.019531 155.628906 176.96875 C 155.558594 174.09375 155.605469 171.214844 155.605469 168.339844 Z M 166 168.210938 C 166.003906 168.210938 166.007812 168.210938 166.011719 168.210938 C 166.011719 165.179688 165.984375 162.144531 166.027344 159.113281 C 166.042969 158.285156 165.785156 158.019531 164.964844 158.039062 C 163.136719 158.082031 161.304688 158.070312 159.476562 158.023438 C 158.703125 158.003906 158.355469 158.1875 158.359375 159.054688 C 158.390625 165.171875 158.394531 171.289062 158.359375 177.40625 C 158.351562 178.320312 158.746094 178.417969 159.488281 178.398438 C 161.265625 178.355469 163.046875 178.3125 164.820312 178.386719 C 165.8125 178.429688 166.042969 178.105469 166.023438 177.152344 C 165.960938 174.171875 166 171.191406 166 168.210938 Z M 156.894531 154.570312 C 156.894531 154.570312 156.894531 154.566406 156.894531 154.5625 C 159.5625 154.5625 162.230469 154.53125 164.898438 154.582031 C 165.765625 154.597656 166.101562 154.371094 166.058594 153.460938 C 165.984375 151.945312 166 150.425781 166.03125 148.90625 C 166.046875 148.238281 165.835938 147.988281 165.144531 147.988281 C 159.699219 148.003906 154.257812 147.996094 148.8125 147.964844 C 148.066406 147.960938 147.808594 148.203125 147.835938 148.960938 C 147.890625 150.421875 147.917969 151.890625 147.839844 153.355469 C 147.789062 154.304688 148.046875 154.621094 149.042969 154.597656 C 151.65625 154.523438 154.277344 154.570312 156.894531 154.570312 Z M 156.894531 154.570312 " fill-opacity="1" fill-rule="evenodd"/></g><g clip-path="url(#a28f095b66)"><path fill="#ffffff" d="M 156.417969 89.972656 C 123.222656 89.972656 90.03125 89.972656 56.835938 89.96875 C 56.367188 89.96875 55.890625 89.949219 55.425781 89.886719 C 54.804688 89.804688 54.527344 89.371094 54.539062 88.785156 C 54.550781 88.21875 54.816406 87.746094 55.414062 87.644531 C 55.925781 87.558594 56.457031 87.578125 56.980469 87.578125 C 64.574219 87.566406 72.164062 87.527344 79.757812 87.585938 C 81.101562 87.597656 81.515625 87.175781 81.371094 85.90625 C 81.285156 85.132812 81.332031 84.339844 81.355469 83.554688 C 81.410156 81.9375 82.050781 81.289062 83.6875 81.269531 C 85.886719 81.246094 88.085938 81.238281 90.28125 81.289062 C 91.179688 81.3125 91.726562 81.136719 91.542969 80.101562 C 90.941406 76.679688 92.644531 75.035156 95.648438 73.578125 C 115.5 63.964844 135.261719 54.160156 155.027344 44.371094 C 156.433594 43.675781 157.496094 43.710938 158.917969 44.414062 C 176.621094 53.203125 194.359375 61.914062 212.09375 70.640625 C 214.628906 71.886719 217.136719 73.191406 219.726562 74.308594 C 221.558594 75.097656 222.375 76.253906 222.300781 78.285156 C 222.1875 81.285156 222.277344 81.285156 225.300781 81.28125 C 226.660156 81.28125 228.023438 81.257812 229.382812 81.292969 C 231.03125 81.332031 231.765625 82.078125 231.820312 83.695312 C 231.832031 83.957031 231.820312 84.21875 231.820312 84.480469 C 231.808594 87.539062 231.808594 87.546875 234.792969 87.546875 C 241.964844 87.550781 249.140625 87.546875 256.3125 87.546875 C 256.679688 87.546875 257.046875 87.546875 257.410156 87.574219 C 258.1875 87.632812 258.515625 88.113281 258.492188 88.835938 C 258.472656 89.507812 258.097656 89.917969 257.414062 89.945312 C 256.734375 89.96875 256.054688 89.929688 255.375 89.925781 C 222.390625 89.925781 189.402344 89.925781 156.417969 89.925781 C 156.417969 89.941406 156.417969 89.957031 156.417969 89.972656 Z M 109.679688 80.949219 C 109.726562 81.027344 109.773438 81.101562 109.820312 81.175781 C 141.390625 81.175781 172.960938 81.175781 204.59375 81.175781 C 204.484375 80.664062 204.113281 80.648438 203.867188 80.523438 C 188.621094 72.675781 173.171875 65.246094 157.742188 57.769531 C 157.039062 57.425781 156.511719 57.527344 155.855469 57.855469 C 143.46875 64.042969 131.074219 70.207031 118.683594 76.386719 C 115.671875 77.886719 112.679688 79.429688 109.679688 80.949219 Z M 215.746094 81.308594 C 216.585938 81.308594 217.210938 81.3125 217.839844 81.304688 C 218.144531 81.300781 218.464844 81.34375 218.664062 81 C 219.21875 80.027344 218.550781 77.753906 217.558594 77.265625 C 197.839844 67.59375 178.117188 57.929688 158.417969 48.21875 C 157.320312 47.679688 156.476562 47.625 155.371094 48.179688 C 148.597656 51.582031 141.789062 54.910156 134.992188 58.265625 C 122.289062 64.53125 109.589844 70.804688 96.886719 77.066406 C 94.96875 78.011719 94.675781 78.558594 94.996094 80.617188 C 95.066406 81.046875 95.171875 81.320312 95.640625 81.289062 C 97.847656 81.140625 100.03125 81.503906 102.21875 80.40625 C 120.078125 71.457031 137.988281 62.625 155.875 53.730469 C 156.613281 53.363281 157.191406 53.386719 157.917969 53.746094 C 176.058594 62.691406 194.210938 71.613281 212.347656 80.570312 C 213.515625 81.148438 214.667969 81.484375 215.746094 81.308594 Z M 156.597656 84.542969 C 156.597656 84.542969 156.597656 84.539062 156.597656 84.539062 C 132.941406 84.539062 109.285156 84.550781 85.628906 84.503906 C 84.234375 84.5 84.054688 84.992188 84.023438 86.207031 C 83.992188 87.511719 84.535156 87.597656 85.601562 87.59375 C 108.15625 87.570312 130.714844 87.582031 153.269531 87.578125 C 178.023438 87.574219 202.78125 87.550781 227.535156 87.574219 C 228.808594 87.578125 229.066406 87.171875 229.113281 85.976562 C 229.160156 84.6875 228.636719 84.441406 227.5625 84.546875 C 227.148438 84.589844 226.726562 84.542969 226.308594 84.542969 C 203.070312 84.542969 179.832031 84.542969 156.597656 84.542969 Z M 156.597656 84.542969 " fill-opacity="1" fill-rule="evenodd"/></g><path fill="#ffffff" d="M 157.046875 119.09375 C 160.65625 119.09375 164.265625 119.117188 167.875 119.074219 C 168.800781 119.066406 169.269531 119.167969 169.25 120.3125 C 169.171875 124.597656 169.179688 128.890625 169.230469 133.179688 C 169.242188 134.171875 168.9375 134.40625 167.984375 134.382812 C 167.050781 134.359375 166.597656 134.265625 166.617188 133.128906 C 166.664062 130.25 166.597656 130.320312 163.722656 130.210938 C 162.445312 130.164062 162.035156 130.574219 162.222656 131.777344 C 162.28125 132.132812 162.175781 132.515625 162.234375 132.871094 C 162.417969 134.027344 162.003906 134.367188 160.804688 134.382812 C 159.5625 134.398438 159.484375 133.875 159.496094 132.898438 C 159.523438 130.246094 159.476562 130.382812 156.828125 130.195312 C 155.050781 130.070312 154.785156 130.753906 154.859375 132.273438 C 154.890625 132.933594 155.636719 134.140625 154.046875 134.335938 C 152.703125 134.503906 152.074219 134.238281 152.160156 132.660156 C 152.292969 130.222656 152.183594 130.21875 149.71875 130.226562 C 147.707031 130.230469 147.71875 130.230469 147.695312 132.351562 C 147.683594 133.308594 148.128906 134.46875 146.296875 134.390625 C 145.144531 134.339844 144.933594 134.042969 144.949219 132.984375 C 145.007812 128.800781 145.023438 124.613281 144.949219 120.429688 C 144.929688 119.269531 145.328125 119.054688 146.375 119.070312 C 149.929688 119.128906 153.488281 119.09375 157.046875 119.09375 Z M 154.902344 124.523438 C 154.902344 125.203125 154.921875 125.882812 154.894531 126.5625 C 154.875 127.105469 155.117188 127.242188 155.632812 127.3125 C 159.230469 127.789062 159.464844 127.601562 159.519531 124.042969 C 159.523438 123.886719 159.5 123.722656 159.527344 123.574219 C 159.847656 122.019531 159.175781 121.667969 157.695312 121.738281 C 154.917969 121.871094 154.914062 121.78125 154.902344 124.523438 Z M 147.753906 124.578125 C 147.753906 125.046875 147.8125 125.527344 147.742188 125.988281 C 147.5625 127.144531 148.097656 127.339844 149.140625 127.316406 C 152.179688 127.246094 152.179688 127.289062 152.1875 124.308594 C 152.1875 123.992188 152.140625 123.671875 152.195312 123.371094 C 152.4375 122.046875 151.890625 121.714844 150.601562 121.753906 C 147.753906 121.84375 147.75 121.769531 147.753906 124.578125 Z M 166.632812 124.660156 C 166.632812 124.140625 166.566406 123.605469 166.644531 123.097656 C 166.828125 121.964844 166.363281 121.722656 165.289062 121.75 C 162.277344 121.835938 162.273438 121.785156 162.253906 124.738281 C 162.25 125.050781 162.292969 125.371094 162.238281 125.675781 C 161.976562 127.078125 162.539062 127.421875 163.917969 127.347656 C 166.613281 127.195312 166.617188 127.285156 166.632812 124.660156 Z M 166.632812 124.660156 " fill-opacity="1" fill-rule="evenodd"/><path fill="#ffffff" d="M 194.917969 156.875 C 194.917969 153.210938 194.949219 149.546875 194.898438 145.882812 C 194.886719 144.992188 195.128906 144.710938 196.027344 144.726562 C 198.746094 144.777344 201.46875 144.777344 204.191406 144.734375 C 204.980469 144.722656 205.152344 145.019531 205.152344 145.742188 C 205.125 153.070312 205.113281 160.394531 205.136719 167.722656 C 205.140625 168.5625 204.875 168.78125 204.066406 168.773438 C 201.347656 168.738281 198.625 168.742188 195.902344 168.800781 C 195.03125 168.820312 194.878906 168.503906 194.890625 167.707031 C 194.933594 164.097656 194.910156 160.484375 194.910156 156.875 C 194.914062 156.875 194.914062 156.875 194.917969 156.875 Z M 197.714844 162.289062 C 197.714844 163.382812 197.773438 164.480469 197.695312 165.570312 C 197.628906 166.480469 198.089844 166.738281 198.789062 166.515625 C 199.972656 166.136719 201.925781 167.539062 202.292969 165.640625 C 202.710938 163.480469 202.371094 161.175781 202.410156 158.9375 C 202.421875 158.238281 202.164062 158.082031 201.507812 158.039062 C 197.710938 157.777344 197.710938 157.757812 197.714844 161.507812 C 197.714844 161.769531 197.714844 162.027344 197.714844 162.289062 Z M 197.707031 151.589844 C 197.707031 152.578125 197.757812 153.574219 197.691406 154.558594 C 197.621094 155.582031 198.324219 155.609375 198.890625 155.410156 C 200.035156 155.011719 201.582031 156.453125 202.378906 154.628906 C 202.398438 154.585938 202.382812 154.527344 202.382812 154.476562 C 202.386719 152.496094 202.359375 150.515625 202.410156 148.539062 C 202.425781 147.820312 202.136719 147.695312 201.496094 147.652344 C 197.710938 147.402344 197.710938 147.386719 197.707031 151.121094 C 197.707031 151.277344 197.707031 151.433594 197.707031 151.589844 Z M 197.707031 151.589844 " fill-opacity="1" fill-rule="evenodd"/><path fill="#ffffff" d="M 205.09375 126.71875 C 205.09375 128.914062 205.027344 131.113281 205.117188 133.304688 C 205.167969 134.507812 204.453125 134.324219 203.726562 134.359375 C 202.910156 134.398438 202.21875 134.375 202.394531 133.257812 C 202.402344 133.207031 202.398438 133.152344 202.394531 133.101562 C 202.3125 129.617188 202.3125 129.644531 198.84375 129.675781 C 197.988281 129.683594 197.601562 129.863281 197.695312 130.789062 C 197.765625 131.511719 197.640625 132.257812 197.714844 132.980469 C 197.820312 133.972656 197.515625 134.324219 196.460938 134.363281 C 195.246094 134.40625 194.859375 134.117188 194.890625 132.828125 C 194.980469 128.699219 194.960938 124.566406 194.890625 120.4375 C 194.871094 119.375 195.195312 119.082031 196.199219 119.101562 C 198.8125 119.152344 201.429688 119.167969 204.042969 119.109375 C 204.976562 119.085938 205.195312 119.429688 205.175781 120.285156 C 205.128906 122.429688 205.160156 124.574219 205.160156 126.71875 C 205.136719 126.71875 205.117188 126.71875 205.09375 126.71875 Z M 202.386719 124.371094 C 202.394531 121.835938 202.394531 121.835938 200.070312 121.839844 C 197.734375 121.84375 197.734375 121.84375 197.726562 124.535156 C 197.71875 126.871094 197.71875 126.871094 199.960938 126.867188 C 202.382812 126.859375 202.382812 126.859375 202.386719 124.371094 Z M 202.386719 124.371094 " fill-opacity="1" fill-rule="evenodd"/><path fill="#ffffff" d="M 120.164062 156.878906 C 120.164062 160.378906 120.132812 163.878906 120.1875 167.378906 C 120.203125 168.390625 120.027344 168.851562 118.863281 168.808594 C 116.253906 168.71875 113.636719 168.75 111.027344 168.792969 C 110.1875 168.808594 109.863281 168.644531 109.871094 167.691406 C 109.914062 160.480469 109.917969 153.269531 109.859375 146.0625 C 109.851562 144.90625 110.246094 144.699219 111.289062 144.726562 C 113.847656 144.792969 116.410156 144.789062 118.964844 144.710938 C 119.929688 144.679688 120.21875 144.921875 120.203125 145.90625 C 120.144531 149.5625 120.179688 153.222656 120.179688 156.878906 C 120.175781 156.878906 120.167969 156.878906 120.164062 156.878906 Z M 112.761719 162.105469 C 112.765625 162.105469 112.773438 162.105469 112.777344 162.105469 C 112.777344 163.257812 112.851562 164.414062 112.757812 165.554688 C 112.660156 166.800781 113.53125 166.722656 114.160156 166.515625 C 115.25 166.15625 117.121094 167.6875 117.394531 165.519531 C 117.667969 163.410156 117.449219 161.242188 117.484375 159.097656 C 117.496094 158.375 117.265625 158.121094 116.511719 158.066406 C 112.761719 157.804688 112.761719 157.78125 112.761719 161.480469 C 112.761719 161.6875 112.761719 161.898438 112.761719 162.105469 Z M 117.441406 151.53125 C 117.421875 147.484375 117.421875 147.503906 113.753906 147.664062 C 113.050781 147.695312 112.722656 147.824219 112.742188 148.625 C 112.792969 150.605469 112.777344 152.585938 112.734375 154.566406 C 112.71875 155.253906 112.964844 155.417969 113.625 155.460938 C 117.449219 155.707031 117.449219 155.726562 117.441406 152 C 117.441406 151.84375 117.441406 151.6875 117.441406 151.53125 Z M 117.441406 151.53125 " fill-opacity="1" fill-rule="evenodd"/><path fill="#ffffff" d="M 109.902344 126.746094 C 109.902344 124.601562 109.9375 122.460938 109.886719 120.320312 C 109.863281 119.484375 110.027344 119.089844 110.972656 119.105469 C 113.738281 119.148438 116.507812 119.128906 119.277344 119.097656 C 119.960938 119.089844 120.175781 119.339844 120.175781 120.007812 C 120.15625 124.5 120.148438 128.992188 120.183594 133.484375 C 120.195312 134.683594 119.382812 134.316406 118.78125 134.328125 C 118.164062 134.339844 117.300781 134.617188 117.441406 133.4375 C 117.460938 133.285156 117.445312 133.125 117.445312 132.96875 C 117.402344 129.402344 117.152344 129.21875 113.488281 129.691406 C 112.859375 129.773438 112.707031 130.023438 112.722656 130.578125 C 112.742188 131.257812 112.628906 131.953125 112.734375 132.613281 C 112.980469 134.117188 112.328125 134.453125 110.941406 134.386719 C 109.96875 134.34375 109.851562 133.984375 109.867188 133.167969 C 109.914062 131.027344 109.882812 128.886719 109.882812 126.746094 C 109.890625 126.746094 109.898438 126.746094 109.902344 126.746094 Z M 117.417969 124.386719 C 117.417969 124.023438 117.367188 123.648438 117.425781 123.292969 C 117.609375 122.171875 117.277344 121.769531 116.035156 121.804688 C 112.734375 121.898438 112.734375 121.828125 112.75 125.132812 C 112.75 125.394531 112.785156 125.660156 112.75 125.914062 C 112.636719 126.699219 113 126.941406 113.726562 126.871094 C 114.140625 126.835938 114.5625 126.859375 114.976562 126.859375 C 117.394531 126.847656 117.394531 126.847656 117.417969 124.386719 Z M 117.417969 124.386719 " fill-opacity="1" fill-rule="evenodd"/><path fill="#ffffff" d="M 86.054688 156.871094 C 86.054688 160.429688 86.023438 163.992188 86.074219 167.550781 C 86.085938 168.449219 85.976562 168.832031 84.921875 168.796875 C 82.253906 168.710938 79.582031 168.738281 76.914062 168.789062 C 76.054688 168.808594 75.75 168.617188 75.753906 167.683594 C 75.796875 160.40625 75.796875 153.128906 75.765625 145.851562 C 75.757812 144.9375 76.066406 144.722656 76.925781 144.738281 C 79.59375 144.78125 82.265625 144.789062 84.933594 144.71875 C 85.867188 144.695312 86.066406 145.023438 86.058594 145.878906 C 86.019531 149.542969 86.042969 153.207031 86.042969 156.871094 C 86.046875 156.871094 86.050781 156.871094 86.054688 156.871094 Z M 83.308594 162.308594 C 83.308594 162.308594 83.3125 162.308594 83.3125 162.308594 C 83.3125 161.210938 83.257812 160.113281 83.328125 159.019531 C 83.402344 157.878906 82.613281 157.949219 82.003906 158.128906 C 80.875 158.460938 78.992188 157.136719 78.675781 159.015625 C 78.308594 161.195312 78.597656 163.488281 78.597656 165.730469 C 78.601562 166.15625 78.5625 166.597656 79.195312 166.578125 C 80.492188 166.539062 81.964844 166.863281 83.03125 166.34375 C 83.808594 165.96875 83.191406 164.421875 83.300781 163.402344 C 83.339844 163.039062 83.308594 162.671875 83.308594 162.308594 Z M 78.566406 151.496094 C 78.566406 155.644531 78.566406 155.644531 82.1875 155.457031 C 82.238281 155.453125 82.292969 155.449219 82.34375 155.453125 C 83.105469 155.53125 83.320312 155.160156 83.308594 154.4375 C 83.273438 152.507812 83.273438 150.574219 83.324219 148.644531 C 83.34375 147.863281 83.050781 147.714844 82.320312 147.699219 C 78.570312 147.605469 78.570312 147.582031 78.566406 151.339844 C 78.566406 151.390625 78.566406 151.441406 78.566406 151.496094 Z M 78.566406 151.496094 " fill-opacity="1" fill-rule="evenodd"/><path fill="#ffffff" d="M 86.035156 126.707031 C 86.035156 128.898438 85.964844 131.097656 86.066406 133.285156 C 86.121094 134.480469 85.4375 134.347656 84.695312 134.351562 C 83.953125 134.359375 83.148438 134.488281 83.324219 133.300781 C 83.339844 133.199219 83.324219 133.09375 83.324219 132.988281 C 83.242188 129.4375 82.949219 129.214844 79.308594 129.691406 C 78.789062 129.761719 78.570312 129.902344 78.585938 130.4375 C 78.613281 131.21875 78.511719 132.015625 78.613281 132.785156 C 78.792969 134.148438 78.199219 134.457031 76.949219 134.390625 C 76.078125 134.34375 75.796875 134.132812 75.804688 133.230469 C 75.851562 128.894531 75.84375 124.5625 75.808594 120.226562 C 75.800781 119.429688 76.003906 119.109375 76.839844 119.117188 C 79.609375 119.136719 82.378906 119.128906 85.144531 119.070312 C 85.988281 119.054688 86.054688 119.464844 86.046875 120.125 C 86.019531 122.320312 86.035156 124.511719 86.035156 126.707031 Z M 78.617188 124.257812 C 78.617188 124.621094 78.664062 124.996094 78.609375 125.347656 C 78.417969 126.539062 78.824219 126.945312 80.09375 126.914062 C 83.316406 126.832031 83.320312 126.898438 83.320312 123.648438 C 83.320312 123.492188 83.296875 123.332031 83.324219 123.179688 C 83.535156 122.058594 83.046875 121.667969 81.96875 121.828125 C 81.664062 121.875 81.347656 121.839844 81.035156 121.839844 C 78.597656 121.847656 78.597656 121.847656 78.617188 124.257812 Z M 78.617188 124.257812 " fill-opacity="1" fill-rule="evenodd"/><path fill="#ffffff" d="M 238.417969 156.714844 C 238.417969 160.324219 238.386719 163.9375 238.4375 167.546875 C 238.449219 168.492188 238.210938 168.8125 237.21875 168.785156 C 234.550781 168.71875 231.878906 168.726562 229.210938 168.792969 C 228.324219 168.816406 228.199219 168.488281 228.203125 167.71875 C 228.226562 160.445312 228.238281 153.167969 228.183594 145.894531 C 228.175781 144.84375 228.574219 144.714844 229.453125 144.730469 C 232.066406 144.773438 234.6875 144.785156 237.300781 144.71875 C 238.230469 144.695312 238.449219 145.019531 238.4375 145.878906 C 238.402344 149.492188 238.421875 153.101562 238.421875 156.710938 C 238.421875 156.714844 238.417969 156.714844 238.417969 156.714844 Z M 235.664062 162.421875 C 235.664062 162.109375 235.667969 161.792969 235.664062 161.480469 C 235.652344 157.792969 235.65625 157.816406 231.9375 158.054688 C 231.191406 158.101562 230.941406 158.320312 230.957031 159.070312 C 231.003906 161.265625 230.988281 163.464844 230.992188 165.664062 C 230.996094 166.078125 230.910156 166.566406 231.550781 166.554688 C 232.851562 166.535156 234.300781 166.816406 235.402344 166.328125 C 236.101562 166.019531 235.566406 164.496094 235.660156 163.519531 C 235.691406 163.15625 235.664062 162.789062 235.664062 162.421875 Z M 235.667969 151.625 C 235.667969 150.582031 235.890625 149.480469 235.621094 148.511719 C 235.089844 146.574219 233.449219 148.125 232.371094 147.722656 C 231.890625 147.546875 230.9375 147.300781 230.953125 148.503906 C 230.984375 150.539062 230.976562 152.574219 230.957031 154.605469 C 230.949219 155.183594 231.097656 155.402344 231.726562 155.46875 C 235.550781 155.894531 235.652344 155.824219 235.671875 152.097656 C 235.671875 151.941406 235.671875 151.785156 235.667969 151.625 Z M 235.667969 151.625 " fill-opacity="1" fill-rule="evenodd"/><path fill="#ffffff" d="M 238.382812 126.71875 C 238.382812 128.910156 238.328125 131.105469 238.402344 133.296875 C 238.453125 134.652344 237.546875 134.25 236.839844 134.339844 C 236.011719 134.441406 235.535156 134.265625 235.644531 133.289062 C 235.710938 132.722656 235.570312 132.132812 235.65625 131.570312 C 235.882812 130.097656 235.410156 129.589844 233.835938 129.675781 C 230.992188 129.832031 230.949219 129.730469 231.003906 132.738281 C 231.027344 133.839844 230.9375 134.457031 229.542969 134.394531 C 228.417969 134.347656 228.175781 134.015625 228.191406 132.953125 C 228.246094 128.777344 228.25 124.597656 228.179688 120.421875 C 228.160156 119.363281 228.480469 119.085938 229.480469 119.105469 C 232.039062 119.15625 234.601562 119.175781 237.15625 119.085938 C 238.273438 119.046875 238.445312 119.46875 238.414062 120.449219 C 238.339844 122.535156 238.390625 124.628906 238.390625 126.714844 C 238.386719 126.71875 238.386719 126.71875 238.382812 126.71875 Z M 230.988281 124.210938 C 230.96875 126.890625 230.96875 126.890625 233.539062 126.882812 C 235.644531 126.878906 235.644531 126.878906 235.667969 124.066406 C 235.683594 121.816406 235.683594 121.816406 233.480469 121.824219 C 231.007812 121.832031 231.007812 121.832031 230.988281 124.210938 Z M 230.988281 124.210938 " fill-opacity="1" fill-rule="evenodd"/><path fill="#ffffff" d="M 151.816406 70.464844 C 151.847656 67.433594 154.230469 65.097656 157.234375 65.15625 C 160.316406 65.214844 162.625 67.621094 162.582031 70.734375 C 162.542969 73.636719 160.136719 75.984375 157.21875 75.964844 C 154.097656 75.949219 151.78125 73.589844 151.816406 70.464844 Z M 153.695312 70.535156 C 153.675781 72.507812 155.136719 74.019531 157.121094 74.078125 C 159.089844 74.140625 160.609375 72.679688 160.667969 70.679688 C 160.722656 68.683594 159.152344 67.066406 157.160156 67.054688 C 155.207031 67.046875 153.71875 68.546875 153.695312 70.535156 Z M 153.695312 70.535156 " fill-opacity="1" fill-rule="evenodd"/><path fill="#ffffff" d="M 21.21875 34.398438 L 21.21875 50.632812 C 21.222656 55.425781 32.660156 60.769531 49.066406 60.769531 C 65.472656 60.769531 76.90625 55.425781 76.910156 50.632812 L 76.910156 31.832031 L 46.066406 45.558594 L 21.21875 34.398438 " fill-opacity="1" fill-rule="nonzero"/><g clip-path="url(#ee20f574a6)"><path fill="#ffffff" d="M 56.039062 23.339844 C 55.355469 23.339844 54.804688 22.789062 54.804688 22.105469 C 54.804688 21.425781 55.355469 20.875 56.039062 20.875 L 87.367188 20.875 C 87.21875 21.105469 87.128906 21.382812 87.128906 21.679688 L 87.128906 23.339844 Z M 97.375 59.785156 C 96.042969 48.707031 91.71875 43.515625 90.140625 41.957031 L 90.140625 21.679688 C 90.140625 21.382812 90.050781 21.105469 89.902344 20.875 C 89.632812 20.453125 89.167969 20.175781 88.632812 20.175781 C 88.554688 20.175781 88.476562 20.1875 88.398438 20.199219 L 46.023438 1.164062 L 0.433594 21.457031 L 46.070312 41.953125 L 87.128906 23.679688 L 87.128906 41.957031 C 85.550781 43.515625 81.226562 48.707031 79.894531 59.785156 C 79.890625 59.828125 79.886719 59.871094 79.886719 59.914062 C 79.878906 60.144531 79.898438 61.335938 81.023438 62.5 C 82.457031 63.984375 85.019531 64.734375 88.632812 64.734375 C 92.25 64.734375 94.808594 63.984375 96.246094 62.5 C 97.371094 61.335938 97.390625 60.144531 97.382812 59.914062 C 97.382812 59.871094 97.378906 59.828125 97.375 59.785156 " fill-opacity="1" fill-rule="nonzero"/></g><g clip-path="url(#9e18271606)"><path fill="#ffffff" d="M 264.125 1.140625 C 243.054688 1.140625 225.917969 18.28125 225.917969 39.351562 C 225.917969 60.417969 243.054688 77.558594 264.125 77.558594 C 285.191406 77.558594 302.332031 60.417969 302.332031 39.351562 C 302.332031 18.28125 285.191406 1.140625 264.125 1.140625 Z M 264.125 74.160156 C 244.929688 74.160156 229.3125 58.546875 229.3125 39.351562 C 229.3125 20.15625 244.929688 4.539062 264.125 4.539062 C 283.320312 4.539062 298.9375 20.15625 298.9375 39.351562 C 298.9375 58.546875 283.320312 74.160156 264.125 74.160156 Z M 264.125 74.160156 " fill-opacity="1" fill-rule="nonzero"/></g><path fill="#ffffff" d="M 283.835938 29.492188 L 273.980469 29.492188 L 273.980469 19.640625 C 273.980469 17.308594 272.085938 15.414062 269.757812 15.414062 L 258.492188 15.414062 C 256.164062 15.414062 254.265625 17.308594 254.265625 19.640625 L 254.265625 29.492188 L 244.414062 29.492188 C 242.082031 29.492188 240.1875 31.390625 240.1875 33.71875 L 240.1875 44.980469 C 240.1875 47.3125 242.082031 49.207031 244.414062 49.207031 L 254.265625 49.207031 L 254.265625 59.0625 C 254.265625 61.390625 256.164062 63.285156 258.492188 63.285156 L 269.757812 63.285156 C 272.085938 63.285156 273.980469 61.390625 273.980469 59.0625 L 273.980469 49.207031 L 283.835938 49.207031 C 286.164062 49.207031 288.058594 47.3125 288.058594 44.980469 L 288.058594 33.71875 C 288.058594 31.390625 286.164062 29.492188 283.835938 29.492188 Z M 284.664062 44.980469 C 284.664062 45.4375 284.292969 45.808594 283.835938 45.808594 L 272.28125 45.808594 C 271.34375 45.808594 270.582031 46.570312 270.582031 47.507812 L 270.582031 59.0625 C 270.582031 59.519531 270.210938 59.890625 269.757812 59.890625 L 258.492188 59.890625 C 258.035156 59.890625 257.664062 59.519531 257.664062 59.0625 L 257.664062 47.507812 C 257.664062 46.570312 256.902344 45.808594 255.964844 45.808594 L 244.414062 45.808594 C 243.957031 45.808594 243.585938 45.4375 243.585938 44.980469 L 243.585938 33.71875 C 243.585938 33.261719 243.957031 32.890625 244.414062 32.890625 L 255.964844 32.890625 C 256.902344 32.890625 257.664062 32.128906 257.664062 31.191406 L 257.664062 19.640625 C 257.664062 19.183594 258.035156 18.8125 258.492188 18.8125 L 269.757812 18.8125 C 270.210938 18.8125 270.582031 19.183594 270.582031 19.640625 L 270.582031 31.191406 C 270.582031 32.128906 271.34375 32.890625 272.28125 32.890625 L 283.835938 32.890625 C 284.292969 32.890625 284.664062 33.261719 284.664062 33.71875 Z M 284.664062 44.980469 " fill-opacity="1" fill-rule="nonzero"/></g></g></svg>