<svg xmlns="http://www.w3.org/2000/svg" xmlns:xlink="http://www.w3.org/1999/xlink" width="500" zoomAndPan="magnify" viewBox="0 0 375 374.999991" height="500" preserveAspectRatio="xMidYMid meet" version="1.0"><defs><clipPath id="80e081f9a9"><path d="M 187.5 0 C 83.945312 0 0 83.945312 0 187.5 C 0 291.054688 83.945312 375 187.5 375 C 291.054688 375 375 291.054688 375 187.5 C 375 83.945312 291.054688 0 187.5 0 Z M 187.5 0 " clip-rule="nonzero"/></clipPath><clipPath id="3c207abb5f"><path d="M 0 0 L 375 0 L 375 375 L 0 375 Z M 0 0 " clip-rule="nonzero"/></clipPath><clipPath id="537173e664"><path d="M 187.5 0 C 83.945312 0 0 83.945312 0 187.5 C 0 291.054688 83.945312 375 187.5 375 C 291.054688 375 375 291.054688 375 187.5 C 375 83.945312 291.054688 0 187.5 0 Z M 187.5 0 " clip-rule="nonzero"/></clipPath><clipPath id="c4b1d8c15a"><rect x="0" width="375" y="0" height="375"/></clipPath><clipPath id="1188b48b01"><path d="M 57.589844 110 L 140 110 L 140 147 L 57.589844 147 Z M 57.589844 110 " clip-rule="nonzero"/></clipPath><clipPath id="2a678d2c8c"><path d="M 80 49.707031 L 118 49.707031 L 118 71 L 80 71 Z M 80 49.707031 " clip-rule="nonzero"/></clipPath><clipPath id="9e6da9b921"><path d="M 235 110 L 317.089844 110 L 317.089844 147 L 235 147 Z M 235 110 " clip-rule="nonzero"/></clipPath><clipPath id="6f87b66647"><path d="M 257 49.707031 L 295 49.707031 L 295 71 L 257 71 Z M 257 49.707031 " clip-rule="nonzero"/></clipPath><clipPath id="dd48c713d4"><path d="M 57.589844 275 L 140 275 L 140 311.457031 L 57.589844 311.457031 Z M 57.589844 275 " clip-rule="nonzero"/></clipPath><clipPath id="fd3339952d"><path d="M 235 275 L 317.089844 275 L 317.089844 311.457031 L 235 311.457031 Z M 235 275 " clip-rule="nonzero"/></clipPath></defs><g clip-path="url(#80e081f9a9)"><g transform="matrix(1, 0, 0, 1, 0, 0)"><g clip-path="url(#c4b1d8c15a)"><g clip-path="url(#3c207abb5f)"><g clip-path="url(#537173e664)"><rect x="-82.5" width="540" fill="#e6ac41" height="539.999987" y="-82.499998" fill-opacity="1"/></g></g></g></g></g><g clip-path="url(#1188b48b01)"><path fill="#ffffff" d="M 67.960938 131.519531 C 67.960938 129.558594 69.542969 127.925781 71.554688 127.925781 C 73.515625 127.925781 75.152344 129.503906 75.152344 131.519531 L 75.152344 146.71875 L 121.996094 146.71875 L 121.996094 131.519531 C 121.996094 129.558594 123.574219 127.925781 125.589844 127.925781 C 127.550781 127.925781 129.1875 129.503906 129.1875 131.519531 L 129.1875 146.71875 L 139.535156 146.71875 L 139.535156 129.722656 C 139.535156 124.167969 136.050781 119.15625 130.875 117.195312 L 111.15625 110.710938 L 101.734375 127.597656 C 101.078125 128.742188 99.882812 129.449219 98.628906 129.449219 C 97.320312 129.449219 96.121094 128.742188 95.523438 127.597656 L 86.101562 110.710938 L 66.382812 117.195312 C 61.207031 119.15625 57.722656 124.167969 57.722656 129.722656 L 57.722656 146.71875 L 68.070312 146.71875 L 68.070312 131.519531 Z M 67.960938 131.519531 " fill-opacity="1" fill-rule="nonzero"/></g><path fill="#ffffff" d="M 103.53125 104.121094 C 103.257812 104.175781 102.929688 104.230469 102.660156 104.285156 C 102.496094 104.339844 102.277344 104.339844 102.113281 104.394531 C 100.808594 104.613281 99.5 104.722656 98.191406 104.722656 C 97.972656 104.722656 97.703125 104.722656 97.484375 104.722656 C 97.320312 104.722656 97.210938 104.722656 97.046875 104.722656 C 96.992188 104.722656 96.941406 104.722656 96.886719 104.722656 C 96.832031 104.722656 96.722656 104.722656 96.667969 104.722656 C 96.339844 104.722656 96.015625 104.667969 95.6875 104.667969 C 95.523438 104.667969 95.414062 104.667969 95.304688 104.613281 C 94.925781 104.558594 94.597656 104.503906 94.214844 104.449219 C 93.890625 104.394531 93.5625 104.339844 93.234375 104.285156 C 93.074219 104.230469 92.910156 104.230469 92.746094 104.175781 C 92.636719 104.175781 92.527344 104.121094 92.472656 104.121094 C 92.308594 104.066406 92.144531 104.066406 91.984375 104.011719 C 91.765625 103.957031 91.546875 103.902344 91.328125 103.847656 L 91.328125 105.539062 L 98.574219 118.554688 L 105.816406 105.429688 L 105.816406 103.46875 C 105.601562 103.523438 105.4375 103.578125 105.21875 103.632812 C 104.945312 103.742188 104.621094 103.792969 104.347656 103.902344 C 104.074219 103.957031 103.804688 104.066406 103.53125 104.121094 Z M 103.53125 104.121094 " fill-opacity="1" fill-rule="nonzero"/><g clip-path="url(#2a678d2c8c)"><path fill="#ffffff" d="M 81.46875 62.667969 C 81.578125 62.5625 81.742188 62.453125 81.851562 62.34375 C 82.070312 62.125 82.289062 61.960938 82.558594 61.796875 C 82.558594 61.796875 82.613281 61.742188 82.613281 61.742188 C 82.722656 61.636719 82.832031 61.582031 82.996094 61.527344 C 82.996094 61.527344 83.050781 61.527344 83.050781 61.472656 C 83.160156 61.417969 83.269531 61.308594 83.375 61.253906 C 83.484375 61.199219 83.648438 61.089844 83.757812 61.035156 C 84.03125 60.925781 84.25 60.816406 84.519531 60.761719 C 84.628906 60.707031 84.738281 60.707031 84.847656 60.707031 C 84.957031 60.707031 85.011719 60.65625 85.121094 60.65625 C 85.230469 60.65625 85.335938 60.601562 85.445312 60.601562 C 85.554688 60.601562 85.664062 60.601562 85.773438 60.546875 C 86.972656 60.492188 88.277344 60.761719 89.859375 61.472656 C 91.984375 62.398438 95.523438 63.921875 105.054688 62.234375 C 106.199219 62.015625 107.289062 62.398438 108.105469 63.160156 C 108.160156 63.214844 108.269531 63.324219 108.324219 63.378906 C 108.378906 63.433594 108.433594 63.488281 108.488281 63.542969 C 108.542969 63.648438 108.652344 63.757812 108.707031 63.8125 C 109.085938 64.414062 109.523438 65.011719 110.011719 65.609375 C 110.121094 65.71875 110.175781 65.828125 110.285156 65.9375 C 110.449219 66.101562 110.613281 66.320312 110.71875 66.484375 C 111.210938 67.027344 111.699219 67.570312 112.191406 68.0625 C 112.355469 68.226562 112.519531 68.390625 112.679688 68.550781 C 113.117188 68.933594 113.554688 69.316406 113.988281 69.640625 C 114.152344 69.75 114.316406 69.859375 114.480469 70.023438 C 114.640625 70.132812 114.804688 70.242188 114.96875 70.351562 C 115.1875 70.511719 115.460938 70.621094 115.675781 70.730469 C 115.839844 70.785156 116.003906 70.839844 116.167969 70.894531 C 119.328125 62.015625 116.710938 55.644531 108.378906 51.9375 C 103.910156 49.976562 98.953125 49.324219 94.054688 50.085938 C 85.554688 51.394531 81.089844 55.152344 80.761719 61.199219 C 80.707031 61.742188 80.597656 62.289062 80.328125 62.722656 C 80.273438 62.886719 80.109375 63.488281 80 64.359375 C 80.433594 63.867188 80.816406 63.433594 81.199219 63.050781 C 81.199219 62.886719 81.359375 62.777344 81.46875 62.667969 Z M 81.46875 62.667969 " fill-opacity="1" fill-rule="nonzero"/></g><path fill="#ffffff" d="M 107.398438 94.753906 C 111.972656 91.757812 114.96875 86.582031 114.96875 80.699219 L 114.96875 77.921875 C 114.804688 77.867188 114.695312 77.867188 114.535156 77.8125 C 114.371094 77.757812 114.261719 77.757812 114.097656 77.703125 C 113.933594 77.648438 113.824219 77.59375 113.660156 77.539062 C 113.5 77.484375 113.390625 77.429688 113.226562 77.375 C 113.0625 77.324219 112.953125 77.269531 112.789062 77.214844 C 112.519531 77.105469 112.246094 76.941406 111.917969 76.832031 C 111.753906 76.777344 111.648438 76.667969 111.484375 76.613281 C 111.320312 76.558594 111.210938 76.449219 111.101562 76.394531 C 110.9375 76.34375 110.828125 76.234375 110.71875 76.125 C 109.414062 75.253906 108.214844 74.273438 107.125 73.183594 C 106.691406 72.746094 106.308594 72.367188 105.925781 71.929688 C 105.164062 71.113281 104.511719 70.296875 104.019531 69.640625 C 93.945312 71.058594 89.476562 69.097656 86.972656 68.007812 C 86.808594 67.953125 86.589844 67.84375 86.425781 67.789062 C 86.371094 67.84375 86.371094 67.84375 86.316406 67.898438 C 86.261719 67.953125 86.261719 67.953125 86.210938 68.007812 C 86.15625 68.0625 86.15625 68.0625 86.101562 68.117188 C 85.992188 68.226562 85.828125 68.390625 85.71875 68.550781 C 85.609375 68.660156 85.5 68.824219 85.390625 68.933594 C 85.28125 69.042969 85.175781 69.152344 85.066406 69.316406 C 85.066406 69.316406 85.011719 69.371094 85.011719 69.371094 C 84.957031 69.425781 84.902344 69.53125 84.847656 69.585938 C 84.355469 70.1875 83.8125 70.949219 83.269531 71.65625 C 83.105469 71.820312 82.996094 72.039062 82.832031 72.203125 C 82.394531 72.746094 82.015625 73.347656 81.632812 73.835938 C 81.523438 74 81.414062 74.109375 81.308594 74.273438 L 81.308594 80.699219 C 81.308594 86.746094 84.519531 92.082031 89.3125 95.023438 C 89.3125 95.023438 89.3125 95.023438 89.367188 95.023438 C 89.421875 95.078125 89.53125 95.078125 89.585938 95.132812 C 90.730469 95.789062 91.929688 96.332031 93.179688 96.714844 C 93.5625 96.824219 93.890625 96.929688 94.269531 96.984375 C 94.652344 97.09375 94.980469 97.148438 95.359375 97.203125 C 95.523438 97.257812 95.742188 97.257812 95.90625 97.257812 C 96.066406 97.3125 96.285156 97.3125 96.449219 97.3125 C 96.503906 97.3125 96.558594 97.3125 96.613281 97.3125 C 96.832031 97.3125 97.046875 97.367188 97.265625 97.367188 C 97.320312 97.367188 97.320312 97.367188 97.375 97.367188 C 97.648438 97.367188 97.921875 97.367188 98.191406 97.367188 C 98.355469 97.367188 98.519531 97.367188 98.683594 97.367188 C 98.792969 97.367188 98.902344 97.367188 99.007812 97.367188 C 99.007812 97.367188 99.0625 97.367188 99.0625 97.367188 C 99.117188 97.367188 99.117188 97.367188 99.171875 97.367188 C 99.226562 97.367188 99.335938 97.367188 99.445312 97.367188 C 99.554688 97.367188 99.664062 97.367188 99.71875 97.367188 C 99.773438 97.367188 99.882812 97.367188 99.933594 97.367188 C 100.097656 97.367188 100.207031 97.3125 100.371094 97.3125 C 100.644531 97.257812 100.863281 97.257812 101.132812 97.203125 C 101.1875 97.203125 101.296875 97.203125 101.351562 97.148438 C 101.515625 97.09375 101.679688 97.09375 101.84375 97.039062 C 101.894531 97.039062 101.949219 97.039062 101.949219 97.039062 C 102.167969 96.984375 102.332031 96.929688 102.496094 96.878906 C 102.769531 96.824219 103.09375 96.714844 103.367188 96.605469 C 103.585938 96.550781 103.75 96.496094 103.964844 96.386719 C 104.945312 96.003906 105.925781 95.570312 106.796875 95.023438 C 107.015625 95.023438 107.234375 94.917969 107.398438 94.753906 Z M 107.398438 94.753906 " fill-opacity="1" fill-rule="nonzero"/><g clip-path="url(#9e6da9b921)"><path fill="#ffffff" d="M 308.554688 117.140625 L 288.839844 110.65625 L 279.414062 127.542969 C 278.761719 128.6875 277.5625 129.394531 276.308594 129.394531 C 275.003906 129.394531 273.804688 128.6875 273.152344 127.542969 L 263.78125 110.65625 L 244.0625 117.140625 C 238.890625 119.101562 235.402344 124.113281 235.402344 129.667969 L 235.402344 146.664062 L 245.753906 146.664062 L 245.753906 131.464844 C 245.753906 129.503906 247.332031 127.871094 249.347656 127.871094 C 251.308594 127.871094 252.941406 129.449219 252.941406 131.464844 L 252.941406 146.664062 L 299.785156 146.664062 L 299.785156 131.464844 C 299.785156 129.503906 301.367188 127.871094 303.382812 127.871094 C 305.34375 127.871094 306.976562 129.449219 306.976562 131.464844 L 306.976562 146.664062 L 317.324219 146.664062 L 317.324219 129.667969 C 317.21875 124.113281 313.785156 119.101562 308.554688 117.140625 Z M 308.554688 117.140625 " fill-opacity="1" fill-rule="nonzero"/></g><g clip-path="url(#6f87b66647)"><path fill="#ffffff" d="M 258.824219 62.996094 C 258.933594 62.886719 259.097656 62.722656 259.207031 62.617188 C 259.316406 62.507812 259.480469 62.398438 259.585938 62.289062 C 259.804688 62.070312 260.023438 61.90625 260.296875 61.742188 C 260.296875 61.742188 260.351562 61.6875 260.351562 61.6875 C 260.460938 61.582031 260.566406 61.527344 260.730469 61.472656 C 260.730469 61.472656 260.785156 61.472656 260.785156 61.417969 C 260.894531 61.363281 261.003906 61.253906 261.113281 61.199219 C 261.222656 61.144531 261.386719 61.035156 261.496094 60.980469 C 261.765625 60.871094 261.984375 60.761719 262.257812 60.707031 C 262.367188 60.65625 262.476562 60.65625 262.582031 60.65625 C 262.691406 60.65625 262.746094 60.601562 262.855469 60.601562 C 262.964844 60.601562 263.074219 60.546875 263.183594 60.546875 C 263.238281 60.546875 263.292969 60.546875 263.347656 60.546875 C 263.402344 60.546875 263.457031 60.546875 263.507812 60.546875 C 264.4375 60.492188 265.417969 60.65625 266.558594 61.035156 C 266.722656 61.089844 266.886719 61.144531 267.050781 61.199219 C 267.214844 61.253906 267.378906 61.363281 267.59375 61.417969 C 269.71875 62.34375 273.257812 63.867188 282.792969 62.179688 C 282.957031 62.125 283.171875 62.125 283.335938 62.125 C 283.335938 62.125 283.390625 62.125 283.390625 62.125 L 283.5 62.125 C 283.554688 62.125 283.664062 62.125 283.773438 62.125 C 283.828125 62.125 283.882812 62.125 283.9375 62.125 C 284.097656 62.125 284.316406 62.179688 284.480469 62.234375 C 284.589844 62.234375 284.699219 62.289062 284.808594 62.34375 C 284.972656 62.398438 285.078125 62.453125 285.242188 62.5625 C 285.296875 62.5625 285.351562 62.617188 285.351562 62.617188 C 285.351562 62.617188 285.40625 62.617188 285.40625 62.667969 C 285.40625 62.667969 285.460938 62.722656 285.460938 62.722656 C 285.515625 62.777344 285.570312 62.777344 285.625 62.832031 C 285.734375 62.886719 285.84375 62.996094 285.898438 63.050781 C 285.953125 63.105469 286.058594 63.214844 286.113281 63.269531 C 286.167969 63.324219 286.167969 63.378906 286.222656 63.433594 C 286.222656 63.433594 286.222656 63.433594 286.222656 63.488281 C 286.277344 63.542969 286.332031 63.648438 286.386719 63.757812 C 286.496094 63.976562 286.660156 64.140625 286.769531 64.359375 C 286.984375 64.683594 287.203125 64.957031 287.421875 65.285156 C 287.421875 65.339844 287.476562 65.339844 287.476562 65.394531 C 287.640625 65.558594 287.75 65.773438 287.914062 65.9375 C 288.074219 66.101562 288.238281 66.320312 288.347656 66.484375 C 288.347656 66.484375 288.347656 66.484375 288.347656 66.539062 C 288.511719 66.699219 288.621094 66.863281 288.785156 67.027344 C 288.945312 67.191406 289.109375 67.410156 289.273438 67.570312 C 289.4375 67.734375 289.546875 67.84375 289.710938 68.007812 C 289.875 68.171875 290.089844 68.390625 290.308594 68.550781 C 290.417969 68.605469 290.472656 68.714844 290.582031 68.769531 C 291.179688 69.316406 291.78125 69.75 292.324219 70.132812 C 292.378906 70.1875 292.488281 70.242188 292.542969 70.296875 C 292.652344 70.351562 292.707031 70.40625 292.816406 70.460938 C 292.921875 70.511719 293.085938 70.566406 293.195312 70.621094 C 293.359375 70.675781 293.523438 70.785156 293.6875 70.839844 C 296.84375 61.960938 294.285156 55.589844 285.898438 51.882812 C 281.429688 49.921875 276.472656 49.269531 271.570312 50.03125 C 263.074219 51.339844 258.605469 55.097656 258.28125 61.144531 C 258.226562 61.6875 258.117188 62.234375 257.84375 62.667969 C 257.789062 62.832031 257.625 63.433594 257.519531 64.304688 C 257.789062 63.976562 258.0625 63.703125 258.335938 63.433594 C 258.605469 63.269531 258.714844 63.160156 258.824219 62.996094 Z M 258.824219 62.996094 " fill-opacity="1" fill-rule="nonzero"/></g><path fill="#ffffff" d="M 285.078125 94.863281 C 285.132812 94.863281 285.132812 94.808594 285.1875 94.808594 C 289.765625 91.8125 292.761719 86.636719 292.761719 80.753906 L 292.761719 77.976562 C 292.597656 77.976562 292.488281 77.921875 292.378906 77.867188 C 292.378906 77.867188 292.378906 77.867188 292.324219 77.867188 C 292.160156 77.8125 292.050781 77.8125 291.886719 77.757812 C 291.726562 77.703125 291.5625 77.648438 291.398438 77.59375 C 291.398438 77.59375 291.34375 77.59375 291.34375 77.59375 C 291.289062 77.539062 291.179688 77.539062 291.070312 77.484375 C 290.90625 77.429688 290.746094 77.324219 290.527344 77.269531 C 290.253906 77.160156 289.980469 77.050781 289.765625 76.886719 C 289.546875 76.777344 289.382812 76.667969 289.164062 76.558594 C 289.164062 76.558594 289.164062 76.558594 289.109375 76.558594 C 288.894531 76.449219 288.730469 76.34375 288.511719 76.179688 C 288.347656 76.125 288.238281 76.015625 288.128906 75.90625 C 288.019531 75.796875 287.859375 75.742188 287.75 75.632812 C 287.476562 75.46875 287.257812 75.253906 286.984375 75.089844 C 286.496094 74.707031 286.003906 74.328125 285.570312 73.890625 C 285.132812 73.453125 284.699219 73.074219 284.316406 72.636719 C 284.097656 72.421875 283.9375 72.203125 283.71875 72.039062 C 282.957031 71.222656 282.300781 70.40625 281.8125 69.75 C 271.734375 71.167969 267.269531 69.207031 264.761719 68.117188 C 264.597656 68.0625 264.382812 67.953125 264.21875 67.898438 C 264.164062 67.953125 264.164062 67.953125 264.109375 68.007812 C 264.054688 68.0625 264.054688 68.0625 264 68.117188 C 263.945312 68.171875 263.945312 68.171875 263.890625 68.226562 C 263.726562 68.390625 263.5625 68.605469 263.347656 68.824219 C 263.238281 68.933594 263.128906 69.097656 263.019531 69.261719 C 262.964844 69.316406 262.855469 69.425781 262.800781 69.480469 C 262.691406 69.640625 262.582031 69.75 262.421875 69.914062 C 262.421875 69.914062 262.367188 69.96875 262.367188 69.96875 C 262.257812 70.078125 262.148438 70.242188 262.039062 70.40625 C 261.929688 70.566406 261.765625 70.730469 261.65625 70.894531 C 261.492188 71.113281 261.332031 71.332031 261.167969 71.546875 C 261.003906 71.765625 260.785156 72.039062 260.621094 72.257812 C 260.460938 72.472656 260.242188 72.746094 260.078125 72.964844 C 259.75 73.453125 259.425781 73.890625 259.097656 74.328125 L 259.097656 80.753906 C 259.097656 86.800781 262.3125 92.136719 267.105469 95.078125 C 267.160156 95.132812 267.269531 95.132812 267.324219 95.1875 C 267.757812 95.460938 268.140625 95.679688 268.574219 95.898438 C 268.738281 95.949219 268.847656 96.058594 269.011719 96.113281 C 269.175781 96.167969 269.390625 96.277344 269.554688 96.332031 C 269.9375 96.496094 270.316406 96.605469 270.644531 96.769531 C 270.808594 96.824219 271.027344 96.878906 271.246094 96.929688 C 271.296875 96.929688 271.40625 96.984375 271.460938 96.984375 C 271.625 97.039062 271.84375 97.09375 272.007812 97.148438 C 272.332031 97.257812 272.714844 97.3125 273.097656 97.367188 C 273.097656 97.367188 273.097656 97.367188 273.152344 97.367188 C 273.3125 97.421875 273.53125 97.421875 273.695312 97.421875 C 273.914062 97.476562 274.1875 97.476562 274.402344 97.476562 C 274.621094 97.476562 274.839844 97.53125 275.058594 97.53125 C 275.113281 97.53125 275.167969 97.53125 275.21875 97.53125 C 275.492188 97.53125 275.710938 97.53125 275.984375 97.53125 C 276.253906 97.53125 276.527344 97.53125 276.746094 97.53125 C 276.800781 97.53125 276.855469 97.53125 276.964844 97.53125 C 277.179688 97.53125 277.34375 97.53125 277.5625 97.476562 C 277.617188 97.476562 277.726562 97.476562 277.78125 97.476562 C 277.945312 97.476562 278.054688 97.421875 278.214844 97.421875 C 278.542969 97.367188 278.871094 97.3125 279.195312 97.257812 C 279.359375 97.203125 279.578125 97.203125 279.742188 97.148438 C 279.796875 97.148438 279.851562 97.148438 279.851562 97.148438 C 280.015625 97.09375 280.230469 97.039062 280.394531 96.984375 C 280.832031 96.878906 281.210938 96.769531 281.648438 96.605469 C 281.757812 96.550781 281.8125 96.550781 281.921875 96.496094 C 281.976562 96.496094 281.976562 96.496094 281.976562 96.441406 C 282.191406 96.386719 282.355469 96.277344 282.519531 96.222656 C 283.28125 95.898438 283.992188 95.515625 284.699219 95.132812 C 284.753906 95.023438 284.917969 94.917969 285.078125 94.863281 Z M 285.078125 94.863281 " fill-opacity="1" fill-rule="nonzero"/><path fill="#ffffff" d="M 269.066406 103.742188 L 269.066406 105.429688 L 276.308594 118.449219 L 283.554688 105.429688 L 283.554688 103.46875 C 283.5 103.46875 283.445312 103.523438 283.390625 103.523438 C 281.050781 104.285156 278.488281 104.722656 275.875 104.722656 C 273.53125 104.722656 271.246094 104.394531 269.066406 103.742188 Z M 269.066406 103.742188 " fill-opacity="1" fill-rule="nonzero"/><g clip-path="url(#dd48c713d4)"><path fill="#ffffff" d="M 130.820312 281.640625 L 111.101562 275.15625 L 101.679688 292.042969 C 101.023438 293.1875 99.828125 293.894531 98.574219 293.894531 C 97.265625 293.894531 96.066406 293.1875 95.46875 292.042969 L 86.046875 275.15625 L 66.328125 281.640625 C 61.152344 283.601562 57.667969 288.613281 57.667969 294.167969 L 57.667969 311.164062 L 68.015625 311.164062 L 68.015625 295.964844 C 68.015625 294.003906 69.59375 292.371094 71.609375 292.371094 C 73.570312 292.371094 75.207031 293.949219 75.207031 295.964844 L 75.207031 311.164062 L 122.050781 311.164062 L 122.050781 295.964844 C 122.050781 294.003906 123.628906 292.371094 125.644531 292.371094 C 127.605469 292.371094 129.242188 293.949219 129.242188 295.964844 L 129.242188 311.164062 L 139.589844 311.164062 L 139.589844 294.167969 C 139.480469 288.613281 135.996094 283.601562 130.820312 281.640625 Z M 130.820312 281.640625 " fill-opacity="1" fill-rule="nonzero"/></g><path fill="#ffffff" d="M 104.347656 268.402344 C 104.074219 268.457031 103.75 268.566406 103.476562 268.621094 C 103.203125 268.675781 102.875 268.730469 102.605469 268.785156 C 102.332031 268.839844 102.003906 268.894531 101.734375 268.949219 C 101.515625 269.003906 101.242188 269.003906 101.023438 269.058594 C 100.808594 269.113281 100.535156 269.113281 100.316406 269.113281 C 100.042969 269.167969 99.71875 269.167969 99.390625 269.167969 C 99.226562 269.167969 99.0625 269.167969 98.902344 269.167969 L 98.792969 269.167969 C 98.574219 269.167969 98.355469 269.167969 98.082031 269.167969 C 97.484375 269.167969 96.941406 269.167969 96.339844 269.113281 C 96.121094 269.113281 95.960938 269.058594 95.742188 269.058594 C 95.578125 269.058594 95.46875 269.003906 95.304688 269.003906 C 95.195312 269.003906 95.140625 269.003906 95.035156 268.949219 C 94.652344 268.894531 94.324219 268.839844 93.945312 268.785156 C 93.835938 268.785156 93.671875 268.730469 93.5625 268.730469 C 93.398438 268.675781 93.179688 268.675781 93.019531 268.621094 C 92.910156 268.621094 92.800781 268.566406 92.691406 268.566406 C 92.636719 268.566406 92.527344 268.566406 92.472656 268.511719 C 92.417969 268.511719 92.417969 268.511719 92.363281 268.457031 C 92.253906 268.457031 92.144531 268.402344 91.984375 268.347656 C 91.710938 268.292969 91.4375 268.1875 91.164062 268.132812 L 91.164062 269.820312 L 98.410156 282.839844 L 105.816406 269.929688 L 105.816406 267.96875 C 105.710938 268.023438 105.601562 268.023438 105.546875 268.078125 C 105.4375 268.132812 105.328125 268.132812 105.273438 268.1875 C 104.945312 268.242188 104.675781 268.347656 104.347656 268.402344 Z M 104.347656 268.402344 " fill-opacity="1" fill-rule="nonzero"/><path fill="#ffffff" d="M 115.570312 235.175781 C 115.730469 235.285156 115.949219 235.339844 116.113281 235.394531 C 119.273438 226.515625 116.65625 220.144531 108.324219 216.4375 C 103.855469 214.476562 98.902344 213.824219 94 214.585938 C 85.5 215.894531 81.035156 219.597656 80.707031 225.644531 C 80.652344 226.1875 80.488281 226.734375 80.273438 227.167969 C 80.21875 227.332031 80.054688 227.933594 79.945312 228.804688 C 80.109375 228.640625 80.21875 228.476562 80.378906 228.3125 C 80.597656 228.097656 80.761719 227.878906 80.980469 227.660156 C 81.035156 227.605469 81.089844 227.550781 81.144531 227.496094 C 81.253906 227.386719 81.359375 227.277344 81.46875 227.167969 C 81.960938 226.734375 82.449219 226.296875 82.941406 226.027344 C 82.996094 225.972656 83.105469 225.917969 83.160156 225.863281 C 83.214844 225.808594 83.320312 225.753906 83.375 225.699219 C 83.484375 225.644531 83.59375 225.589844 83.703125 225.535156 C 84.085938 225.371094 84.410156 225.261719 84.792969 225.15625 C 84.902344 225.15625 84.957031 225.101562 85.066406 225.101562 C 85.175781 225.101562 85.28125 225.046875 85.390625 225.046875 C 85.5 225.046875 85.609375 225.046875 85.71875 224.992188 C 86.917969 224.9375 88.222656 225.207031 89.804688 225.917969 C 91.929688 226.84375 95.46875 228.367188 105 226.679688 C 105.273438 226.625 105.546875 226.625 105.871094 226.625 C 106.035156 226.625 106.144531 226.679688 106.308594 226.679688 C 106.960938 226.789062 107.5625 227.117188 108.050781 227.550781 C 108.105469 227.605469 108.160156 227.660156 108.214844 227.714844 C 108.324219 227.824219 108.433594 227.933594 108.488281 228.042969 C 108.542969 228.097656 108.597656 228.148438 108.597656 228.203125 C 109.902344 230.21875 111.972656 232.5625 113.878906 234.03125 C 113.933594 234.085938 114.042969 234.140625 114.097656 234.195312 C 114.207031 234.25 114.261719 234.304688 114.371094 234.359375 C 114.640625 234.523438 114.859375 234.6875 115.132812 234.796875 C 115.296875 235.066406 115.40625 235.121094 115.570312 235.175781 Z M 115.570312 235.175781 " fill-opacity="1" fill-rule="nonzero"/><path fill="#ffffff" d="M 106.851562 259.632812 C 106.90625 259.578125 107.015625 259.523438 107.070312 259.523438 C 107.179688 259.472656 107.289062 259.363281 107.398438 259.308594 C 107.453125 259.253906 107.507812 259.253906 107.5625 259.199219 C 112.027344 256.148438 114.96875 251.027344 114.96875 245.253906 L 114.96875 242.476562 C 114.914062 242.476562 114.859375 242.476562 114.804688 242.421875 C 114.640625 242.367188 114.535156 242.367188 114.371094 242.3125 C 114.207031 242.257812 114.042969 242.203125 113.878906 242.148438 C 113.714844 242.09375 113.554688 242.039062 113.390625 241.984375 C 113.390625 241.984375 113.390625 241.984375 113.335938 241.984375 C 113.171875 241.929688 113.007812 241.875 112.84375 241.769531 C 112.734375 241.714844 112.628906 241.660156 112.574219 241.605469 C 111.648438 241.167969 110.773438 240.679688 109.957031 240.078125 C 109.847656 239.96875 109.6875 239.914062 109.578125 239.808594 C 109.46875 239.699219 109.304688 239.644531 109.195312 239.535156 C 108.976562 239.316406 108.707031 239.152344 108.488281 238.933594 C 108.269531 238.71875 107.996094 238.554688 107.777344 238.335938 C 106.199219 236.921875 104.890625 235.339844 104.019531 234.195312 C 93.945312 235.613281 89.476562 233.652344 86.972656 232.5625 C 86.808594 232.507812 86.589844 232.398438 86.425781 232.34375 C 86.371094 232.398438 86.371094 232.398438 86.316406 232.453125 C 86.261719 232.507812 86.261719 232.507812 86.210938 232.5625 C 86.15625 232.617188 86.15625 232.617188 86.101562 232.671875 C 85.992188 232.78125 85.828125 232.945312 85.71875 233.105469 C 85.609375 233.214844 85.5 233.378906 85.390625 233.488281 C 85.28125 233.597656 85.175781 233.707031 85.066406 233.871094 C 85.066406 233.871094 85.011719 233.925781 85.011719 233.925781 C 84.957031 233.980469 84.902344 234.085938 84.847656 234.140625 C 84.464844 234.578125 84.085938 235.066406 83.703125 235.558594 C 83.59375 235.722656 83.484375 235.886719 83.320312 236.046875 C 82.613281 236.972656 81.90625 237.953125 81.253906 238.828125 L 81.253906 245.253906 C 81.253906 251.300781 84.464844 256.636719 89.257812 259.578125 C 89.257812 259.578125 89.257812 259.578125 89.3125 259.578125 C 89.367188 259.632812 89.476562 259.632812 89.53125 259.6875 C 91.164062 260.667969 92.910156 261.324219 94.761719 261.703125 C 94.925781 261.757812 95.085938 261.757812 95.25 261.8125 C 95.46875 261.867188 95.6875 261.867188 95.851562 261.921875 C 96.230469 261.976562 96.558594 262.03125 96.941406 262.03125 L 96.992188 262.03125 C 97.15625 262.03125 97.375 262.03125 97.539062 262.03125 C 97.757812 262.03125 97.921875 262.03125 98.082031 262.03125 C 98.300781 262.03125 98.519531 262.03125 98.738281 262.03125 C 98.953125 262.03125 99.171875 262.03125 99.390625 261.976562 C 99.609375 261.976562 99.828125 261.921875 100.042969 261.921875 C 101.078125 261.8125 102.113281 261.59375 103.148438 261.269531 C 103.3125 261.214844 103.421875 261.160156 103.585938 261.105469 C 103.75 261.050781 103.910156 260.996094 104.074219 260.941406 C 104.292969 260.886719 104.457031 260.777344 104.675781 260.722656 C 104.675781 260.722656 104.730469 260.722656 104.730469 260.722656 C 105.21875 260.503906 105.710938 260.289062 106.199219 260.015625 C 106.363281 259.90625 106.636719 259.742188 106.851562 259.632812 Z M 106.851562 259.632812 " fill-opacity="1" fill-rule="nonzero"/><path fill="#ffffff" d="M 187.46875 182.121094 C 178.371094 182.121094 169.765625 185.664062 163.339844 192.144531 C 160.125 195.359375 157.621094 199.117188 155.929688 203.203125 C 154.242188 207.289062 153.371094 211.699219 153.371094 216.277344 C 153.371094 225.371094 156.910156 233.980469 163.394531 240.40625 C 169.820312 246.832031 178.425781 250.429688 187.523438 250.429688 C 196.621094 250.429688 205.226562 246.886719 211.652344 240.40625 C 225 227.0625 225 205.4375 211.652344 192.089844 C 205.171875 185.664062 196.566406 182.121094 187.46875 182.121094 Z M 187.46875 212.679688 C 194.769531 212.679688 200.652344 218.617188 200.652344 225.863281 C 200.652344 231.910156 196.566406 236.972656 191.0625 238.554688 L 191.0625 241.441406 C 191.0625 243.402344 189.484375 245.035156 187.46875 245.035156 C 185.453125 245.035156 183.875 243.457031 183.875 241.441406 L 183.875 238.554688 C 178.316406 236.972656 174.289062 231.910156 174.289062 225.863281 C 174.289062 223.902344 175.867188 222.265625 177.882812 222.265625 C 179.898438 222.265625 181.476562 223.847656 181.476562 225.863281 C 181.476562 229.183594 184.199219 231.910156 187.523438 231.910156 C 190.847656 231.910156 193.570312 229.183594 193.570312 225.863281 C 193.570312 222.539062 190.847656 219.816406 187.523438 219.816406 C 180.226562 219.816406 174.34375 213.878906 174.34375 206.632812 C 174.34375 200.589844 178.425781 195.523438 183.929688 193.941406 L 183.929688 191.054688 C 183.929688 189.09375 185.507812 187.460938 187.523438 187.460938 C 189.539062 187.460938 191.117188 189.039062 191.117188 191.054688 L 191.117188 193.941406 C 196.675781 195.523438 200.707031 200.589844 200.707031 206.632812 C 200.707031 208.59375 199.125 210.230469 197.109375 210.230469 C 195.09375 210.230469 193.515625 208.648438 193.515625 206.632812 C 193.515625 203.3125 190.792969 200.589844 187.46875 200.589844 C 184.144531 200.589844 181.421875 203.3125 181.421875 206.632812 C 181.421875 210.011719 184.144531 212.679688 187.46875 212.679688 Z M 187.46875 212.679688 " fill-opacity="1" fill-rule="nonzero"/><g clip-path="url(#fd3339952d)"><path fill="#ffffff" d="M 308.554688 281.640625 L 288.839844 275.15625 L 279.414062 292.042969 C 278.761719 293.1875 277.5625 293.894531 276.308594 293.894531 C 275.003906 293.894531 273.804688 293.1875 273.152344 292.042969 L 263.78125 275.15625 L 244.0625 281.640625 C 238.890625 283.601562 235.402344 288.613281 235.402344 294.167969 L 235.402344 311.164062 L 245.753906 311.164062 L 245.753906 295.964844 C 245.753906 294.003906 247.332031 292.371094 249.347656 292.371094 C 251.308594 292.371094 252.941406 293.949219 252.941406 295.964844 L 252.941406 311.164062 L 299.785156 311.164062 L 299.785156 295.964844 C 299.785156 294.003906 301.367188 292.371094 303.382812 292.371094 C 305.34375 292.371094 306.976562 293.949219 306.976562 295.964844 L 306.976562 311.164062 L 317.324219 311.164062 L 317.324219 294.167969 C 317.21875 288.613281 313.785156 283.601562 308.554688 281.640625 Z M 308.554688 281.640625 " fill-opacity="1" fill-rule="nonzero"/></g><path fill="#ffffff" d="M 283.171875 268.078125 C 283.117188 268.078125 283.0625 268.132812 282.957031 268.132812 C 282.902344 268.132812 282.847656 268.1875 282.792969 268.1875 C 282.410156 268.292969 282.082031 268.402344 281.703125 268.457031 C 281.484375 268.511719 281.265625 268.566406 280.996094 268.621094 C 280.777344 268.675781 280.558594 268.730469 280.285156 268.785156 C 279.6875 268.894531 279.089844 269.003906 278.488281 269.058594 C 277.617188 269.167969 276.691406 269.222656 275.765625 269.222656 C 275.546875 269.222656 275.328125 269.222656 275.113281 269.222656 L 275.003906 269.222656 C 274.894531 269.222656 274.785156 269.222656 274.730469 269.222656 C 274.457031 269.222656 274.1875 269.222656 273.914062 269.167969 C 273.097656 269.113281 272.332031 269.003906 271.515625 268.839844 C 271.40625 268.839844 271.246094 268.785156 271.136719 268.785156 C 270.863281 268.730469 270.589844 268.675781 270.265625 268.621094 C 270.210938 268.621094 270.210938 268.621094 270.15625 268.621094 C 270.046875 268.621094 269.992188 268.566406 269.882812 268.566406 C 269.828125 268.566406 269.828125 268.566406 269.773438 268.511719 C 269.5 268.457031 269.230469 268.347656 268.957031 268.292969 L 268.957031 269.984375 L 276.199219 283 L 283.445312 269.984375 L 283.445312 268.023438 C 283.445312 268.023438 283.335938 268.023438 283.171875 268.078125 C 283.226562 268.078125 283.226562 268.078125 283.171875 268.078125 Z M 283.171875 268.078125 " fill-opacity="1" fill-rule="nonzero"/><path fill="#ffffff" d="M 293.304688 235.175781 C 293.359375 235.175781 293.414062 235.230469 293.46875 235.230469 C 293.578125 235.285156 293.632812 235.285156 293.742188 235.339844 C 293.796875 235.339844 293.847656 235.394531 293.847656 235.394531 C 297.007812 226.515625 294.449219 220.144531 286.058594 216.4375 C 281.59375 214.476562 276.636719 213.824219 271.734375 214.585938 C 263.238281 215.894531 258.769531 219.597656 258.445312 225.644531 C 258.390625 226.1875 258.28125 226.734375 258.007812 227.167969 C 257.953125 227.332031 257.789062 227.933594 257.679688 228.804688 C 257.84375 228.640625 257.953125 228.476562 258.0625 228.367188 C 258.226562 228.203125 258.390625 228.042969 258.5 227.878906 C 258.605469 227.769531 258.714844 227.660156 258.824219 227.550781 C 258.933594 227.441406 259.042969 227.332031 259.152344 227.222656 C 259.316406 227.117188 259.425781 226.953125 259.585938 226.84375 C 259.695312 226.734375 259.859375 226.625 259.96875 226.515625 C 260.132812 226.40625 260.242188 226.296875 260.40625 226.1875 C 260.515625 226.136719 260.621094 226.027344 260.675781 225.972656 C 260.675781 225.972656 260.730469 225.972656 260.730469 225.917969 C 260.839844 225.863281 260.949219 225.753906 261.058594 225.699219 C 261.167969 225.644531 261.277344 225.589844 261.386719 225.535156 C 261.765625 225.371094 262.09375 225.261719 262.476562 225.15625 C 262.582031 225.15625 262.636719 225.101562 262.746094 225.101562 C 262.855469 225.101562 262.964844 225.046875 263.074219 225.046875 C 263.183594 225.046875 263.292969 225.046875 263.402344 224.992188 C 264.597656 224.9375 265.90625 225.207031 267.484375 225.917969 C 269.609375 226.84375 273.152344 228.367188 282.683594 226.679688 C 282.957031 226.625 283.226562 226.625 283.5 226.625 C 283.664062 226.625 283.773438 226.679688 283.9375 226.679688 C 284.589844 226.789062 285.1875 227.117188 285.679688 227.550781 C 285.734375 227.605469 285.789062 227.660156 285.84375 227.714844 C 285.953125 227.824219 286.058594 227.933594 286.113281 228.042969 C 286.167969 228.097656 286.222656 228.148438 286.222656 228.203125 C 286.332031 228.421875 286.496094 228.585938 286.605469 228.804688 C 286.714844 228.96875 286.824219 229.128906 286.933594 229.292969 C 287.203125 229.675781 287.476562 230.003906 287.804688 230.382812 C 287.964844 230.546875 288.128906 230.765625 288.238281 230.929688 C 289 231.855469 289.875 232.726562 290.691406 233.433594 C 290.746094 233.488281 290.855469 233.597656 290.960938 233.652344 C 291.125 233.816406 291.289062 233.925781 291.453125 234.085938 C 291.507812 234.140625 291.617188 234.195312 291.671875 234.25 C 291.78125 234.304688 291.835938 234.359375 291.941406 234.414062 C 292.214844 234.578125 292.433594 234.742188 292.707031 234.851562 C 293.085938 235.066406 293.195312 235.121094 293.304688 235.175781 Z M 293.304688 235.175781 " fill-opacity="1" fill-rule="nonzero"/><path fill="#ffffff" d="M 284.261719 259.851562 C 284.371094 259.796875 284.480469 259.6875 284.644531 259.632812 C 284.808594 259.523438 285.023438 259.417969 285.1875 259.308594 C 289.765625 256.3125 292.761719 251.136719 292.761719 245.253906 L 292.761719 242.476562 C 292.707031 242.476562 292.707031 242.476562 292.652344 242.476562 C 292.488281 242.421875 292.324219 242.367188 292.160156 242.367188 C 291.996094 242.3125 291.835938 242.257812 291.671875 242.203125 C 291.507812 242.148438 291.34375 242.09375 291.179688 242.039062 C 290.855469 241.929688 290.582031 241.769531 290.253906 241.660156 C 290.089844 241.605469 289.875 241.496094 289.710938 241.386719 C 289.546875 241.277344 289.382812 241.222656 289.21875 241.113281 C 289.054688 241.003906 288.894531 240.949219 288.785156 240.84375 C 287.421875 240.023438 286.167969 238.988281 285.078125 237.902344 C 284.972656 237.792969 284.863281 237.683594 284.699219 237.519531 C 283.5 236.320312 282.519531 235.175781 281.8125 234.195312 C 271.734375 235.613281 267.269531 233.652344 264.761719 232.5625 C 264.597656 232.507812 264.382812 232.398438 264.21875 232.34375 C 264.164062 232.398438 264.164062 232.398438 264.109375 232.453125 C 264.054688 232.507812 264.054688 232.507812 264 232.5625 C 263.945312 232.617188 263.945312 232.617188 263.890625 232.671875 C 263.507812 233.050781 263.074219 233.597656 262.582031 234.25 C 262.527344 234.304688 262.476562 234.414062 262.421875 234.46875 C 262.3125 234.632812 262.148438 234.796875 262.039062 234.960938 C 261.65625 235.449219 261.222656 235.992188 260.839844 236.539062 C 260.621094 236.867188 260.351562 237.191406 260.132812 237.464844 C 259.804688 237.953125 259.480469 238.390625 259.152344 238.828125 L 259.152344 245.253906 C 259.152344 251.300781 262.367188 256.636719 267.160156 259.578125 C 267.214844 259.632812 267.324219 259.632812 267.378906 259.6875 C 269.011719 260.667969 270.753906 261.324219 272.605469 261.703125 C 272.769531 261.757812 272.933594 261.757812 273.097656 261.8125 C 273.3125 261.867188 273.53125 261.867188 273.75 261.921875 C 274.078125 261.976562 274.402344 261.976562 274.730469 262.03125 C 274.785156 262.03125 274.785156 262.03125 274.839844 262.03125 L 274.894531 262.03125 C 275.058594 262.03125 275.21875 262.03125 275.382812 262.03125 C 275.546875 262.03125 275.765625 262.03125 275.929688 262.03125 C 276.148438 262.03125 276.363281 262.03125 276.582031 262.03125 C 276.800781 262.03125 277.019531 262.03125 277.234375 261.976562 C 277.453125 261.976562 277.671875 261.921875 277.890625 261.921875 C 278.925781 261.8125 279.960938 261.59375 280.996094 261.269531 C 281.15625 261.214844 281.265625 261.160156 281.429688 261.105469 L 281.539062 261.050781 C 281.539062 261.050781 281.59375 261.050781 281.59375 261.050781 C 281.703125 260.996094 281.8125 260.996094 281.976562 260.941406 C 282.136719 260.886719 282.300781 260.832031 282.464844 260.777344 C 282.574219 260.722656 282.628906 260.722656 282.738281 260.667969 C 282.957031 260.558594 283.171875 260.453125 283.390625 260.34375 C 283.609375 260.234375 283.828125 260.125 284.042969 260.015625 C 284.042969 259.960938 284.152344 259.90625 284.261719 259.851562 Z M 284.261719 259.851562 " fill-opacity="1" fill-rule="nonzero"/><path fill="#ffffff" d="M 140.1875 160.660156 C 138.992188 159.082031 136.703125 158.808594 135.179688 160.0625 C 133.597656 161.261719 133.324219 163.546875 134.578125 165.074219 L 143.894531 177.003906 C 144.601562 177.929688 145.636719 178.363281 146.726562 178.363281 C 147.488281 178.363281 148.25 178.09375 148.957031 177.601562 C 150.539062 176.402344 150.8125 174.117188 149.558594 172.589844 Z M 140.1875 160.660156 " fill-opacity="1" fill-rule="nonzero"/><path fill="#ffffff" d="M 148.796875 254.730469 C 147.214844 253.535156 144.980469 253.859375 143.785156 255.441406 L 134.6875 267.53125 C 133.488281 269.113281 133.816406 271.34375 135.394531 272.542969 C 136.050781 273.035156 136.8125 273.25 137.519531 273.25 C 138.609375 273.25 139.699219 272.761719 140.40625 271.835938 L 149.503906 259.742188 C 150.648438 258.164062 150.375 255.929688 148.796875 254.730469 Z M 148.796875 254.730469 " fill-opacity="1" fill-rule="nonzero"/><path fill="#ffffff" d="M 239.542969 272.542969 C 241.121094 271.34375 241.449219 269.113281 240.25 267.53125 L 231.152344 255.441406 C 229.957031 253.859375 227.722656 253.535156 226.144531 254.730469 C 224.5625 255.929688 224.238281 258.164062 225.433594 259.742188 L 234.53125 271.835938 C 235.238281 272.761719 236.328125 273.25 237.417969 273.25 C 238.125 273.25 238.890625 273.035156 239.542969 272.542969 Z M 239.542969 272.542969 " fill-opacity="1" fill-rule="nonzero"/><path fill="#ffffff" d="M 225.980469 177.65625 C 226.632812 178.148438 227.394531 178.417969 228.210938 178.417969 C 229.300781 178.417969 230.335938 177.929688 231.046875 177.058594 L 240.359375 165.128906 C 241.558594 163.546875 241.285156 161.316406 239.761719 160.117188 C 238.179688 158.917969 235.949219 159.191406 234.75 160.714844 L 225.433594 172.644531 C 224.128906 174.171875 224.398438 176.457031 225.980469 177.65625 Z M 225.980469 177.65625 " fill-opacity="1" fill-rule="nonzero"/></svg>