<svg xmlns="http://www.w3.org/2000/svg" xmlns:xlink="http://www.w3.org/1999/xlink" width="500" zoomAndPan="magnify" viewBox="0 0 375 374.999991" height="500" preserveAspectRatio="xMidYMid meet" version="1.0"><defs><clipPath id="d78c88d154"><path d="M 187.5 0 C 83.945312 0 0 83.945312 0 187.5 C 0 291.054688 83.945312 375 187.5 375 C 291.054688 375 375 291.054688 375 187.5 C 375 83.945312 291.054688 0 187.5 0 Z M 187.5 0 " clip-rule="nonzero"/></clipPath><clipPath id="a1f7d88e7e"><path d="M 0 0 L 375 0 L 375 375 L 0 375 Z M 0 0 " clip-rule="nonzero"/></clipPath><clipPath id="90c8961add"><path d="M 187.5 0 C 83.945312 0 0 83.945312 0 187.5 C 0 291.054688 83.945312 375 187.5 375 C 291.054688 375 375 291.054688 375 187.5 C 375 83.945312 291.054688 0 187.5 0 Z M 187.5 0 " clip-rule="nonzero"/></clipPath><clipPath id="b9e7817a79"><rect x="0" width="375" y="0" height="375"/></clipPath><clipPath id="a6e552d47a"><path d="M 88 55.660156 L 172 55.660156 L 172 243 L 88 243 Z M 88 55.660156 " clip-rule="nonzero"/></clipPath><clipPath id="76e6e4d918"><path d="M 88 242 L 113 242 L 113 319.660156 L 88 319.660156 Z M 88 242 " clip-rule="nonzero"/></clipPath><clipPath id="86d3225cd6"><path d="M 146 309 L 155 309 L 155 319.660156 L 146 319.660156 Z M 146 309 " clip-rule="nonzero"/></clipPath><clipPath id="0eceeb5698"><path d="M 203 55.660156 L 287 55.660156 L 287 243 L 203 243 Z M 203 55.660156 " clip-rule="nonzero"/></clipPath><clipPath id="13f7cad00d"><path d="M 261 242 L 287 242 L 287 319.660156 L 261 319.660156 Z M 261 242 " clip-rule="nonzero"/></clipPath><clipPath id="381bafd8df"><path d="M 220 309 L 229 309 L 229 319.660156 L 220 319.660156 Z M 220 309 " clip-rule="nonzero"/></clipPath></defs><g clip-path="url(#d78c88d154)"><g transform="matrix(1, 0, 0, 1, 0, 0)"><g clip-path="url(#b9e7817a79)"><g clip-path="url(#a1f7d88e7e)"><g clip-path="url(#90c8961add)"><rect x="-82.5" width="540" fill="#e6ac41" height="539.999987" y="-82.499998" fill-opacity="1"/></g></g></g></g></g><path fill="#ffffff" d="M 109.21875 82.4375 L 110.246094 82.4375 C 112.515625 82.4375 114.367188 80.585938 114.367188 78.320312 C 114.367188 76.054688 112.515625 74.199219 110.246094 74.199219 L 109.21875 74.199219 C 106.953125 74.199219 105.097656 76.054688 105.097656 78.320312 C 105.097656 80.585938 106.953125 82.4375 109.21875 82.4375 Z M 109.21875 82.4375 " fill-opacity="1" fill-rule="nonzero"/><path fill="#ffffff" d="M 131.054688 74.199219 L 128.789062 74.199219 C 126.519531 74.199219 124.667969 76.054688 124.667969 78.320312 C 124.667969 80.585938 126.519531 82.4375 128.789062 82.4375 L 131.054688 82.4375 C 133.320312 82.4375 135.171875 80.585938 135.171875 78.320312 C 135.171875 76.054688 133.320312 74.199219 131.054688 74.199219 Z M 131.054688 74.199219 " fill-opacity="1" fill-rule="nonzero"/><path fill="#ffffff" d="M 150.417969 74.199219 L 149.386719 74.199219 C 147.121094 74.199219 145.265625 76.054688 145.265625 78.320312 C 145.265625 80.585938 147.121094 82.4375 149.386719 82.4375 L 150.417969 82.4375 C 152.683594 82.4375 154.535156 80.585938 154.535156 78.320312 C 154.535156 76.054688 152.683594 74.199219 150.417969 74.199219 Z M 150.417969 74.199219 " fill-opacity="1" fill-rule="nonzero"/><path fill="#ffffff" d="M 109.21875 98.917969 L 110.246094 98.917969 C 112.515625 98.917969 114.367188 97.0625 114.367188 94.796875 C 114.367188 92.53125 112.515625 90.679688 110.246094 90.679688 L 109.21875 90.679688 C 106.953125 90.679688 105.097656 92.53125 105.097656 94.796875 C 105.097656 97.0625 106.953125 98.917969 109.21875 98.917969 Z M 109.21875 98.917969 " fill-opacity="1" fill-rule="nonzero"/><path fill="#ffffff" d="M 128.582031 98.917969 L 130.847656 98.917969 C 133.113281 98.917969 134.96875 97.0625 134.96875 94.796875 C 134.96875 92.53125 133.113281 90.679688 130.847656 90.679688 L 128.582031 90.679688 C 126.316406 90.679688 124.460938 92.53125 124.460938 94.796875 C 124.460938 97.0625 126.316406 98.917969 128.582031 98.917969 Z M 128.582031 98.917969 " fill-opacity="1" fill-rule="nonzero"/><path fill="#ffffff" d="M 150.417969 90.679688 L 149.386719 90.679688 C 147.121094 90.679688 145.265625 92.53125 145.265625 94.796875 C 145.265625 97.0625 147.121094 98.917969 149.386719 98.917969 L 150.417969 98.917969 C 152.683594 98.917969 154.535156 97.0625 154.535156 94.796875 C 154.535156 92.53125 152.683594 90.679688 150.417969 90.679688 Z M 150.417969 90.679688 " fill-opacity="1" fill-rule="nonzero"/><path fill="#ffffff" d="M 109.21875 115.398438 L 110.246094 115.398438 C 112.515625 115.398438 114.367188 113.542969 114.367188 111.277344 C 114.367188 109.011719 112.515625 107.15625 110.246094 107.15625 L 109.21875 107.15625 C 106.953125 107.15625 105.097656 109.011719 105.097656 111.277344 C 105.097656 113.542969 106.953125 115.398438 109.21875 115.398438 Z M 109.21875 115.398438 " fill-opacity="1" fill-rule="nonzero"/><path fill="#ffffff" d="M 128.582031 115.398438 L 130.847656 115.398438 C 133.113281 115.398438 134.96875 113.542969 134.96875 111.277344 C 134.96875 109.011719 133.113281 107.15625 130.847656 107.15625 L 128.582031 107.15625 C 126.316406 107.15625 124.460938 109.011719 124.460938 111.277344 C 124.460938 113.542969 126.316406 115.398438 128.582031 115.398438 Z M 128.582031 115.398438 " fill-opacity="1" fill-rule="nonzero"/><path fill="#ffffff" d="M 150.417969 107.15625 L 149.386719 107.15625 C 147.121094 107.15625 145.265625 109.011719 145.265625 111.277344 C 145.265625 113.542969 147.121094 115.398438 149.386719 115.398438 L 150.417969 115.398438 C 152.683594 115.398438 154.535156 113.542969 154.535156 111.277344 C 154.535156 109.011719 152.683594 107.15625 150.417969 107.15625 Z M 150.417969 107.15625 " fill-opacity="1" fill-rule="nonzero"/><path fill="#ffffff" d="M 109.21875 131.878906 L 110.246094 131.878906 C 112.515625 131.878906 114.367188 130.023438 114.367188 127.757812 C 114.367188 125.492188 112.515625 123.636719 110.246094 123.636719 L 109.21875 123.636719 C 106.953125 123.636719 105.097656 125.492188 105.097656 127.757812 C 105.097656 130.023438 106.953125 131.878906 109.21875 131.878906 Z M 109.21875 131.878906 " fill-opacity="1" fill-rule="nonzero"/><path fill="#ffffff" d="M 131.054688 123.636719 L 128.789062 123.636719 C 126.519531 123.636719 124.667969 125.492188 124.667969 127.757812 C 124.667969 130.023438 126.519531 131.878906 128.789062 131.878906 L 131.054688 131.878906 C 133.320312 131.878906 135.171875 130.023438 135.171875 127.757812 C 135.171875 125.492188 133.320312 123.636719 131.054688 123.636719 Z M 131.054688 123.636719 " fill-opacity="1" fill-rule="nonzero"/><path fill="#ffffff" d="M 150.417969 123.636719 L 149.386719 123.636719 C 147.121094 123.636719 145.265625 125.492188 145.265625 127.757812 C 145.265625 130.023438 147.121094 131.878906 149.386719 131.878906 L 150.417969 131.878906 C 152.683594 131.878906 154.535156 130.023438 154.535156 127.757812 C 154.535156 125.492188 152.683594 123.636719 150.417969 123.636719 Z M 150.417969 123.636719 " fill-opacity="1" fill-rule="nonzero"/><path fill="#ffffff" d="M 109.21875 148.355469 L 110.246094 148.355469 C 112.515625 148.355469 114.367188 146.503906 114.367188 144.238281 C 114.367188 141.972656 112.515625 140.117188 110.246094 140.117188 L 109.21875 140.117188 C 106.953125 140.117188 105.097656 141.972656 105.097656 144.238281 C 105.097656 146.503906 106.953125 148.355469 109.21875 148.355469 Z M 109.21875 148.355469 " fill-opacity="1" fill-rule="nonzero"/><path fill="#ffffff" d="M 109.21875 164.835938 L 110.246094 164.835938 C 112.515625 164.835938 114.367188 162.980469 114.367188 160.714844 C 114.367188 158.449219 112.515625 156.597656 110.246094 156.597656 L 109.21875 156.597656 C 106.953125 156.597656 105.097656 158.449219 105.097656 160.714844 C 105.097656 162.980469 106.953125 164.835938 109.21875 164.835938 Z M 109.21875 164.835938 " fill-opacity="1" fill-rule="nonzero"/><path fill="#ffffff" d="M 109.21875 181.316406 L 110.246094 181.316406 C 112.515625 181.316406 114.367188 179.460938 114.367188 177.195312 C 114.367188 174.929688 112.515625 173.074219 110.246094 173.074219 L 109.21875 173.074219 C 106.953125 173.074219 105.097656 174.929688 105.097656 177.195312 C 105.097656 179.460938 106.953125 181.316406 109.21875 181.316406 Z M 109.21875 181.316406 " fill-opacity="1" fill-rule="nonzero"/><path fill="#ffffff" d="M 224.574219 82.4375 L 225.605469 82.4375 C 227.871094 82.4375 229.722656 80.585938 229.722656 78.320312 C 229.722656 76.054688 227.871094 74.199219 225.605469 74.199219 L 224.574219 74.199219 C 222.308594 74.199219 220.453125 76.054688 220.453125 78.320312 C 220.453125 80.585938 222.308594 82.4375 224.574219 82.4375 Z M 224.574219 82.4375 " fill-opacity="1" fill-rule="nonzero"/><path fill="#ffffff" d="M 246.410156 74.199219 L 244.144531 74.199219 C 241.878906 74.199219 240.023438 76.054688 240.023438 78.320312 C 240.023438 80.585938 241.878906 82.4375 244.144531 82.4375 L 246.410156 82.4375 C 248.675781 82.4375 250.53125 80.585938 250.53125 78.320312 C 250.53125 76.054688 248.675781 74.199219 246.410156 74.199219 Z M 246.410156 74.199219 " fill-opacity="1" fill-rule="nonzero"/><path fill="#ffffff" d="M 265.773438 74.199219 L 264.742188 74.199219 C 262.476562 74.199219 260.625 76.054688 260.625 78.320312 C 260.625 80.585938 262.476562 82.4375 264.742188 82.4375 L 265.773438 82.4375 C 268.039062 82.4375 269.894531 80.585938 269.894531 78.320312 C 269.894531 76.054688 268.039062 74.199219 265.773438 74.199219 Z M 265.773438 74.199219 " fill-opacity="1" fill-rule="nonzero"/><path fill="#ffffff" d="M 224.574219 98.917969 L 225.605469 98.917969 C 227.871094 98.917969 229.722656 97.0625 229.722656 94.796875 C 229.722656 92.53125 227.871094 90.679688 225.605469 90.679688 L 224.574219 90.679688 C 222.308594 90.679688 220.453125 92.53125 220.453125 94.796875 C 220.453125 97.0625 222.308594 98.917969 224.574219 98.917969 Z M 224.574219 98.917969 " fill-opacity="1" fill-rule="nonzero"/><path fill="#ffffff" d="M 246.410156 90.679688 L 244.144531 90.679688 C 241.878906 90.679688 240.023438 92.53125 240.023438 94.796875 C 240.023438 97.0625 241.878906 98.917969 244.144531 98.917969 L 246.410156 98.917969 C 248.675781 98.917969 250.53125 97.0625 250.53125 94.796875 C 250.53125 92.53125 248.675781 90.679688 246.410156 90.679688 Z M 246.410156 90.679688 " fill-opacity="1" fill-rule="nonzero"/><path fill="#ffffff" d="M 265.773438 90.679688 L 264.742188 90.679688 C 262.476562 90.679688 260.625 92.53125 260.625 94.796875 C 260.625 97.0625 262.476562 98.917969 264.742188 98.917969 L 265.773438 98.917969 C 268.039062 98.917969 269.894531 97.0625 269.894531 94.796875 C 269.894531 92.53125 268.039062 90.679688 265.773438 90.679688 Z M 265.773438 90.679688 " fill-opacity="1" fill-rule="nonzero"/><path fill="#ffffff" d="M 224.574219 115.398438 L 225.605469 115.398438 C 227.871094 115.398438 229.722656 113.542969 229.722656 111.277344 C 229.722656 109.011719 227.871094 107.15625 225.605469 107.15625 L 224.574219 107.15625 C 222.308594 107.15625 220.453125 109.011719 220.453125 111.277344 C 220.453125 113.542969 222.308594 115.398438 224.574219 115.398438 Z M 224.574219 115.398438 " fill-opacity="1" fill-rule="nonzero"/><path fill="#ffffff" d="M 246.410156 107.15625 L 244.144531 107.15625 C 241.878906 107.15625 240.023438 109.011719 240.023438 111.277344 C 240.023438 113.542969 241.878906 115.398438 244.144531 115.398438 L 246.410156 115.398438 C 248.675781 115.398438 250.53125 113.542969 250.53125 111.277344 C 250.53125 109.011719 248.675781 107.15625 246.410156 107.15625 Z M 246.410156 107.15625 " fill-opacity="1" fill-rule="nonzero"/><path fill="#ffffff" d="M 265.773438 107.15625 L 264.742188 107.15625 C 262.476562 107.15625 260.625 109.011719 260.625 111.277344 C 260.625 113.542969 262.476562 115.398438 264.742188 115.398438 L 265.773438 115.398438 C 268.039062 115.398438 269.894531 113.542969 269.894531 111.277344 C 269.894531 109.011719 268.039062 107.15625 265.773438 107.15625 Z M 265.773438 107.15625 " fill-opacity="1" fill-rule="nonzero"/><path fill="#ffffff" d="M 224.574219 131.878906 L 225.605469 131.878906 C 227.871094 131.878906 229.722656 130.023438 229.722656 127.757812 C 229.722656 125.492188 227.871094 123.636719 225.605469 123.636719 L 224.574219 123.636719 C 222.308594 123.636719 220.453125 125.492188 220.453125 127.757812 C 220.453125 130.023438 222.308594 131.878906 224.574219 131.878906 Z M 224.574219 131.878906 " fill-opacity="1" fill-rule="nonzero"/><path fill="#ffffff" d="M 246.410156 123.636719 L 244.144531 123.636719 C 241.878906 123.636719 240.023438 125.492188 240.023438 127.757812 C 240.023438 130.023438 241.878906 131.878906 244.144531 131.878906 L 246.410156 131.878906 C 248.675781 131.878906 250.53125 130.023438 250.53125 127.757812 C 250.53125 125.492188 248.675781 123.636719 246.410156 123.636719 Z M 246.410156 123.636719 " fill-opacity="1" fill-rule="nonzero"/><path fill="#ffffff" d="M 265.773438 123.636719 L 264.742188 123.636719 C 262.476562 123.636719 260.625 125.492188 260.625 127.757812 C 260.625 130.023438 262.476562 131.878906 264.742188 131.878906 L 265.773438 131.878906 C 268.039062 131.878906 269.894531 130.023438 269.894531 127.757812 C 269.894531 125.492188 268.039062 123.636719 265.773438 123.636719 Z M 265.773438 123.636719 " fill-opacity="1" fill-rule="nonzero"/><path fill="#ffffff" d="M 265.773438 140.117188 L 264.742188 140.117188 C 262.476562 140.117188 260.625 141.972656 260.625 144.238281 C 260.625 146.503906 262.476562 148.355469 264.742188 148.355469 L 265.773438 148.355469 C 268.039062 148.355469 269.894531 146.503906 269.894531 144.238281 C 269.894531 141.972656 268.039062 140.117188 265.773438 140.117188 Z M 265.773438 140.117188 " fill-opacity="1" fill-rule="nonzero"/><path fill="#ffffff" d="M 265.773438 156.597656 L 264.742188 156.597656 C 262.476562 156.597656 260.625 158.449219 260.625 160.714844 C 260.625 162.980469 262.476562 164.835938 264.742188 164.835938 L 265.773438 164.835938 C 268.039062 164.835938 269.894531 162.980469 269.894531 160.714844 C 269.894531 158.449219 268.039062 156.597656 265.773438 156.597656 Z M 265.773438 156.597656 " fill-opacity="1" fill-rule="nonzero"/><path fill="#ffffff" d="M 265.773438 173.074219 L 264.742188 173.074219 C 262.476562 173.074219 260.625 174.929688 260.625 177.195312 C 260.625 179.460938 262.476562 181.316406 264.742188 181.316406 L 265.773438 181.316406 C 268.039062 181.316406 269.894531 179.460938 269.894531 177.195312 C 269.894531 174.929688 268.039062 173.074219 265.773438 173.074219 Z M 265.773438 173.074219 " fill-opacity="1" fill-rule="nonzero"/><g clip-path="url(#a6e552d47a)"><path fill="#ffffff" d="M 96.859375 68.019531 C 96.859375 65.753906 98.710938 63.898438 100.976562 63.898438 L 158.65625 63.898438 C 160.921875 63.898438 162.777344 65.753906 162.777344 68.019531 L 162.777344 131.878906 L 171.015625 131.878906 L 171.015625 68.019531 C 171.015625 61.222656 165.453125 55.660156 158.65625 55.660156 L 100.976562 55.660156 C 94.179688 55.660156 88.617188 61.222656 88.617188 68.019531 L 88.617188 242.289062 C 90.882812 239.816406 93.769531 237.757812 96.859375 236.109375 Z M 96.859375 68.019531 " fill-opacity="1" fill-rule="nonzero"/></g><g clip-path="url(#76e6e4d918)"><path fill="#ffffff" d="M 103.449219 242.289062 C 94.796875 245.171875 88.617188 253.414062 88.617188 263.09375 L 88.617188 315.210938 C 88.617188 317.476562 90.472656 319.332031 92.738281 319.332031 C 95.003906 319.332031 96.859375 317.476562 96.859375 315.210938 L 96.859375 263.09375 C 96.859375 255.472656 103.039062 249.292969 110.453125 249.292969 L 112.71875 249.292969 C 109.011719 247.644531 105.921875 245.378906 103.449219 242.289062 Z M 103.449219 242.289062 " fill-opacity="1" fill-rule="nonzero"/></g><path fill="#ffffff" d="M 123.636719 243.113281 C 133.320312 243.113281 141.148438 235.285156 141.148438 225.605469 L 141.148438 211.183594 C 141.148438 201.503906 133.320312 193.675781 123.636719 193.675781 C 113.957031 193.675781 106.128906 201.503906 106.128906 211.183594 L 106.128906 225.605469 C 106.128906 235.285156 113.957031 243.113281 123.636719 243.113281 Z M 114.367188 211.183594 C 114.367188 206.035156 118.488281 201.914062 123.636719 201.914062 C 128.789062 201.914062 132.90625 206.035156 132.90625 211.183594 L 132.90625 225.605469 C 132.90625 230.753906 128.789062 234.875 123.636719 234.875 C 118.488281 234.875 114.367188 230.753906 114.367188 225.605469 Z M 114.367188 211.183594 " fill-opacity="1" fill-rule="nonzero"/><g clip-path="url(#86d3225cd6)"><path fill="#ffffff" d="M 146.296875 315.210938 C 146.296875 317.476562 148.152344 319.332031 150.417969 319.332031 C 152.683594 319.332031 154.535156 317.476562 154.535156 315.210938 L 154.535156 311.503906 L 146.296875 309.855469 Z M 146.296875 315.210938 " fill-opacity="1" fill-rule="nonzero"/></g><path fill="#ffffff" d="M 146.089844 260.625 L 150.621094 267.214844 L 154.535156 268.039062 L 154.535156 262.890625 C 154.535156 254.445312 149.796875 247.027344 142.589844 243.320312 C 140.324219 245.792969 137.4375 247.851562 134.144531 249.292969 C 140.324219 250.117188 145.0625 254.648438 146.089844 260.625 Z M 146.089844 260.625 " fill-opacity="1" fill-rule="nonzero"/><g clip-path="url(#0eceeb5698)"><path fill="#ffffff" d="M 212.214844 68.019531 C 212.214844 65.753906 214.070312 63.898438 216.335938 63.898438 L 274.011719 63.898438 C 276.277344 63.898438 278.132812 65.753906 278.132812 68.019531 L 278.132812 236.109375 C 281.222656 237.757812 284.105469 239.816406 286.371094 242.289062 L 286.371094 68.019531 C 286.371094 61.222656 280.8125 55.660156 274.011719 55.660156 L 216.335938 55.660156 C 209.535156 55.660156 203.976562 61.222656 203.976562 68.019531 L 203.976562 131.878906 L 212.214844 131.878906 Z M 212.214844 68.019531 " fill-opacity="1" fill-rule="nonzero"/></g><g clip-path="url(#13f7cad00d)"><path fill="#ffffff" d="M 271.128906 242.082031 C 268.449219 245.171875 265.15625 247.644531 261.445312 249.292969 L 264.535156 249.292969 C 271.953125 249.292969 278.132812 255.472656 278.132812 263.09375 L 278.132812 315.210938 C 278.132812 317.476562 279.988281 319.332031 282.253906 319.332031 C 284.519531 319.332031 286.371094 317.476562 286.371094 315.210938 L 286.371094 263.09375 C 286.371094 253.207031 279.988281 244.96875 271.128906 242.082031 Z M 271.128906 242.082031 " fill-opacity="1" fill-rule="nonzero"/></g><path fill="#ffffff" d="M 226.632812 152.476562 L 226.632812 203.976562 C 228.078125 199.03125 230.960938 194.5 234.875 191.410156 L 234.875 152.476562 C 234.875 145.679688 229.3125 140.117188 222.515625 140.117188 L 152.476562 140.117188 C 145.679688 140.117188 140.117188 145.679688 140.117188 152.476562 L 140.117188 190.792969 C 144.03125 193.882812 146.914062 198.207031 148.355469 202.945312 L 148.355469 152.476562 C 148.355469 150.210938 150.210938 148.355469 152.476562 148.355469 L 222.515625 148.355469 C 224.78125 148.355469 226.632812 150.210938 226.632812 152.476562 Z M 226.632812 152.476562 " fill-opacity="1" fill-rule="nonzero"/><path fill="#ffffff" d="M 268.863281 225.605469 L 268.863281 211.183594 C 268.863281 201.503906 261.035156 193.675781 251.351562 193.675781 C 241.671875 193.675781 233.84375 201.503906 233.84375 211.183594 L 233.84375 225.605469 C 233.84375 235.285156 241.671875 243.113281 251.351562 243.113281 C 261.035156 243.113281 268.863281 235.285156 268.863281 225.605469 Z M 242.082031 225.605469 L 242.082031 211.183594 C 242.082031 206.035156 246.203125 201.914062 251.351562 201.914062 C 256.503906 201.914062 260.625 206.035156 260.625 211.183594 L 260.625 225.605469 C 260.625 230.753906 256.503906 234.875 251.351562 234.875 C 246.203125 234.875 242.082031 230.753906 242.082031 225.605469 Z M 242.082031 225.605469 " fill-opacity="1" fill-rule="nonzero"/><path fill="#ffffff" d="M 228.898438 260.625 C 229.929688 254.445312 235.078125 249.707031 241.261719 249.292969 C 237.964844 247.851562 235.078125 245.792969 232.609375 243.320312 C 225.398438 246.820312 220.453125 254.445312 220.453125 263.09375 L 220.453125 268.039062 L 224.574219 267.214844 Z M 228.898438 260.625 " fill-opacity="1" fill-rule="nonzero"/><g clip-path="url(#381bafd8df)"><path fill="#ffffff" d="M 220.453125 315.210938 C 220.453125 317.476562 222.308594 319.332031 224.574219 319.332031 C 226.839844 319.332031 228.695312 317.476562 228.695312 315.210938 L 228.695312 309.445312 L 220.453125 310.886719 Z M 220.453125 315.210938 " fill-opacity="1" fill-rule="nonzero"/></g><path fill="#ffffff" d="M 131.878906 290.082031 L 120.753906 273.808594 C 119.515625 271.953125 116.839844 271.335938 114.984375 272.777344 C 113.132812 274.011719 112.515625 276.691406 113.957031 278.542969 L 125.902344 296.261719 C 126.519531 297.085938 127.550781 297.90625 128.582031 297.90625 L 176.988281 306.765625 C 177.8125 306.972656 178.433594 306.972656 179.253906 306.972656 C 177.402344 304.292969 175.960938 301.410156 175.34375 298.113281 Z M 131.878906 290.082031 " fill-opacity="1" fill-rule="nonzero"/><path fill="#ffffff" d="M 138.058594 263.507812 C 136.820312 261.652344 134.144531 261.035156 132.289062 262.476562 C 130.433594 263.714844 129.816406 266.390625 131.257812 268.246094 L 139.703125 280.8125 C 140.324219 281.632812 141.351562 282.253906 142.382812 282.457031 L 175.753906 288.84375 C 176.371094 285.960938 177.8125 283.488281 179.460938 281.222656 L 145.472656 274.628906 Z M 138.058594 263.507812 " fill-opacity="1" fill-rule="nonzero"/><path fill="#ffffff" d="M 259.800781 272.570312 C 257.945312 271.335938 255.265625 271.746094 254.03125 273.601562 L 242.90625 289.875 L 196.351562 298.730469 C 194.085938 299.144531 192.027344 297.289062 191.820312 295.023438 C 191.410156 292.550781 192.851562 290.285156 194.910156 289.875 L 232.8125 282.457031 C 233.84375 282.253906 234.875 281.632812 235.492188 280.8125 L 243.9375 268.246094 C 245.171875 266.390625 244.761719 263.714844 242.90625 262.476562 C 241.054688 261.242188 238.375 261.652344 237.140625 263.507812 L 229.519531 274.628906 L 193.261719 281.632812 C 186.878906 283.078125 182.550781 289.460938 183.789062 296.261719 C 184.40625 299.761719 186.257812 302.851562 189.144531 304.910156 C 191.617188 306.765625 195.117188 307.382812 198.207031 306.765625 L 246.617188 297.90625 C 247.644531 297.703125 248.675781 297.085938 249.292969 296.261719 L 261.242188 278.542969 C 262.269531 276.484375 261.652344 274.011719 259.800781 272.570312 Z M 259.800781 272.570312 " fill-opacity="1" fill-rule="nonzero"/><path fill="#ffffff" d="M 210.15625 216.335938 L 210.15625 195.324219 C 210.15625 191.203125 207.066406 187.90625 203.152344 187.289062 L 203.152344 179.253906 C 203.152344 172.457031 197.589844 166.894531 190.792969 166.894531 L 184.199219 166.894531 C 177.402344 166.894531 171.839844 172.457031 171.839844 179.253906 L 171.839844 187.289062 C 167.925781 187.90625 164.835938 191.203125 164.835938 195.324219 L 164.835938 216.335938 C 164.835938 220.867188 168.542969 224.574219 173.074219 224.574219 L 201.914062 224.574219 C 206.445312 224.574219 210.15625 220.867188 210.15625 216.335938 Z M 180.078125 179.253906 C 180.078125 176.988281 181.933594 175.136719 184.199219 175.136719 L 190.792969 175.136719 C 193.058594 175.136719 194.910156 176.988281 194.910156 179.253906 L 194.910156 187.082031 L 180.078125 187.082031 Z M 191.617188 216.335938 L 191.617188 211.390625 C 191.617188 209.125 189.761719 207.269531 187.496094 207.269531 C 185.230469 207.269531 183.375 209.125 183.375 211.390625 L 183.375 216.335938 L 173.074219 216.335938 L 173.074219 195.324219 L 201.914062 195.324219 L 201.914062 216.335938 Z M 191.617188 216.335938 " fill-opacity="1" fill-rule="nonzero"/><path fill="#ffffff" d="M 187.496094 267.832031 C 189.761719 267.832031 191.617188 265.980469 191.617188 263.714844 L 191.617188 251.351562 C 191.617188 249.085938 189.761719 247.234375 187.496094 247.234375 C 185.230469 247.234375 183.375 249.085938 183.375 251.351562 L 183.375 263.714844 C 183.375 265.980469 185.230469 267.832031 187.496094 267.832031 Z M 187.496094 267.832031 " fill-opacity="1" fill-rule="nonzero"/><path fill="#ffffff" d="M 169.367188 257.121094 C 167.515625 258.5625 167.101562 261.035156 168.542969 262.890625 C 168.542969 262.890625 171.015625 266.183594 171.015625 266.183594 C 172.457031 268.039062 174.929688 268.449219 176.785156 267.007812 C 178.636719 265.566406 179.050781 263.09375 177.609375 261.242188 L 175.136719 257.945312 C 173.695312 256.089844 171.222656 255.679688 169.367188 257.121094 Z M 169.367188 257.121094 " fill-opacity="1" fill-rule="nonzero"/><path fill="#ffffff" d="M 199.855469 257.945312 L 197.382812 261.242188 C 195.941406 263.09375 196.351562 265.566406 198.207031 267.007812 C 200.0625 268.246094 202.738281 268.039062 203.976562 266.183594 L 206.445312 262.890625 C 207.890625 261.035156 207.476562 258.5625 205.621094 257.121094 C 203.769531 255.679688 201.296875 256.089844 199.855469 257.945312 Z M 199.855469 257.945312 " fill-opacity="1" fill-rule="nonzero"/><path fill="#ffffff" d="M 246.410156 140.117188 L 244.144531 140.117188 C 242.496094 140.117188 241.261719 140.941406 240.4375 142.382812 C 241.464844 144.238281 242.289062 146.089844 242.703125 148.152344 C 243.113281 148.355469 246.410156 148.355469 246.410156 148.355469 C 248.675781 148.355469 250.53125 146.503906 250.53125 144.238281 C 250.53125 141.972656 248.675781 140.117188 246.410156 140.117188 Z M 246.410156 140.117188 " fill-opacity="1" fill-rule="nonzero"/><path fill="#ffffff" d="M 128.582031 173.074219 C 126.316406 173.074219 124.460938 174.929688 124.460938 177.195312 C 124.460938 179.460938 126.316406 181.316406 128.582031 181.316406 C 128.582031 181.316406 131.464844 181.316406 131.878906 181.109375 L 131.878906 173.074219 C 131.671875 173.074219 128.582031 173.074219 128.582031 173.074219 Z M 128.582031 173.074219 " fill-opacity="1" fill-rule="nonzero"/><path fill="#ffffff" d="M 131.878906 156.800781 C 131.671875 156.800781 128.582031 156.597656 128.582031 156.597656 C 126.316406 156.597656 124.460938 158.449219 124.460938 160.714844 C 124.460938 162.980469 126.316406 164.835938 128.582031 164.835938 C 128.582031 164.835938 131.464844 164.835938 131.878906 164.628906 Z M 131.878906 156.800781 " fill-opacity="1" fill-rule="nonzero"/><path fill="#ffffff" d="M 134.554688 142.382812 C 133.9375 141.148438 132.496094 140.117188 130.847656 140.117188 L 128.582031 140.117188 C 126.316406 140.117188 124.460938 141.972656 124.460938 144.238281 C 124.460938 146.503906 126.316406 148.355469 128.582031 148.355469 L 130.847656 148.355469 C 131.257812 148.355469 131.878906 148.355469 132.289062 148.152344 C 132.90625 146.089844 133.523438 144.03125 134.554688 142.382812 Z M 134.554688 142.382812 " fill-opacity="1" fill-rule="nonzero"/><path fill="#ffffff" d="M 246.410156 181.316406 C 248.675781 181.316406 250.53125 179.460938 250.53125 177.195312 C 250.53125 174.929688 248.675781 173.074219 246.410156 173.074219 C 246.410156 173.074219 243.527344 173.074219 243.113281 173.28125 L 243.113281 181.316406 C 243.320312 181.316406 246.410156 181.316406 246.410156 181.316406 Z M 246.410156 181.316406 " fill-opacity="1" fill-rule="nonzero"/><path fill="#ffffff" d="M 246.410156 156.597656 C 246.410156 156.597656 243.527344 156.597656 243.113281 156.800781 L 243.113281 164.835938 C 243.320312 164.835938 246.410156 165.042969 246.410156 165.042969 C 248.675781 165.042969 250.53125 163.1875 250.53125 160.921875 C 250.53125 158.65625 248.675781 156.597656 246.410156 156.597656 Z M 246.410156 156.597656 " fill-opacity="1" fill-rule="nonzero"/></svg>