<svg xmlns="http://www.w3.org/2000/svg" xmlns:xlink="http://www.w3.org/1999/xlink" width="500" zoomAndPan="magnify" viewBox="0 0 375 374.999991" height="500" preserveAspectRatio="xMidYMid meet" version="1.0"><path fill="#ff656f" d="M 212.757812 67.535156 C 277.558594 67.535156 330.089844 120.066406 330.089844 184.886719 C 330.089844 208.835938 322.90625 231.105469 310.601562 249.664062 L 212.757812 184.886719 Z M 212.757812 67.535156 " fill-opacity="1" fill-rule="evenodd"/><path fill="#23a8fe" d="M 58.609375 164.503906 C 58.609375 99.683594 111.140625 47.152344 175.960938 47.152344 L 175.960938 164.503906 Z M 58.609375 164.503906 " fill-opacity="1" fill-rule="evenodd"/><path fill="#6fd7a3" d="M 182.683594 205.742188 L 65.355469 205.742188 C 65.355469 270.5625 117.886719 323.09375 182.683594 323.09375 C 223.550781 323.09375 259.519531 302.214844 280.546875 270.542969 Z M 182.683594 205.742188 " fill-opacity="1" fill-rule="evenodd"/><path fill="#fee570" d="M 54.394531 369.089844 L 160.476562 369.089844 L 160.476562 344.015625 C 160.476562 316.828125 138.308594 294.640625 111.121094 294.640625 L 103.75 294.640625 C 76.5625 294.640625 54.394531 316.828125 54.394531 344.015625 Z M 54.394531 369.089844 " fill-opacity="1" fill-rule="evenodd"/><path fill="#ff656f" d="M 107.425781 342.542969 L 114.171875 333.867188 L 120.917969 325.171875 L 117.742188 295.09375 C 115.582031 294.804688 113.363281 294.640625 111.121094 294.640625 L 103.753906 294.640625 C 101.511719 294.640625 99.289062 294.804688 97.132812 295.09375 L 93.957031 325.171875 L 100.703125 333.867188 Z M 107.425781 342.542969 " fill-opacity="1" fill-rule="evenodd"/><path fill="#f7c5b8" d="M 107.425781 308.691406 C 124.488281 308.691406 138.394531 294.785156 138.394531 277.746094 C 138.394531 260.703125 124.488281 246.777344 107.425781 246.777344 C 90.363281 246.777344 76.480469 260.683594 76.480469 277.746094 C 76.480469 294.804688 90.386719 308.691406 107.425781 308.691406 Z M 107.425781 308.691406 " fill-opacity="1" fill-rule="evenodd"/><path fill="#fee570" d="M 262.988281 142.980469 L 369.089844 142.980469 L 369.089844 117.90625 C 369.089844 90.71875 346.902344 68.53125 319.710938 68.53125 L 312.363281 68.53125 C 285.175781 68.53125 262.988281 90.71875 262.988281 117.90625 Z M 262.988281 142.980469 " fill-opacity="1" fill-rule="evenodd"/><path fill="#ff656f" d="M 316.039062 116.433594 L 322.785156 107.757812 L 329.507812 99.082031 L 326.351562 68.988281 C 324.175781 68.695312 321.972656 68.53125 319.734375 68.53125 L 312.363281 68.53125 C 310.121094 68.53125 307.902344 68.695312 305.722656 68.988281 L 302.566406 99.082031 L 309.3125 107.757812 Z M 316.039062 116.433594 " fill-opacity="1" fill-rule="evenodd"/><path fill="#f7c5b8" d="M 316.039062 82.582031 C 333.097656 82.582031 347.003906 68.675781 347.003906 51.636719 C 347.003906 34.59375 333.097656 20.667969 316.039062 20.667969 C 298.976562 20.667969 285.089844 34.574219 285.089844 51.636719 C 285.089844 68.695312 298.996094 82.582031 316.039062 82.582031 Z M 316.039062 82.582031 " fill-opacity="1" fill-rule="evenodd"/><path fill="#fee570" d="M 5.910156 128.222656 L 112.011719 128.222656 L 112.011719 103.152344 C 112.011719 75.960938 89.824219 53.773438 62.636719 53.773438 L 55.289062 53.773438 C 28.101562 53.773438 5.914062 75.960938 5.914062 103.152344 L 5.914062 128.222656 Z M 5.910156 128.222656 " fill-opacity="1" fill-rule="evenodd"/><path fill="#ff656f" d="M 58.960938 101.675781 L 65.707031 93 L 72.433594 84.324219 L 69.277344 54.230469 C 67.097656 53.9375 64.898438 53.773438 62.636719 53.773438 L 55.289062 53.773438 C 53.027344 53.773438 50.824219 53.9375 48.648438 54.230469 L 45.492188 84.324219 L 52.21875 93 L 58.964844 101.675781 Z M 58.960938 101.675781 " fill-opacity="1" fill-rule="evenodd"/><path fill="#f7c5b8" d="M 58.960938 67.824219 C 76.003906 67.824219 89.910156 53.917969 89.910156 36.878906 C 89.910156 19.839844 76.003906 5.910156 58.960938 5.910156 C 41.921875 5.910156 27.996094 19.816406 27.996094 36.878906 C 27.996094 53.941406 41.902344 67.824219 58.960938 67.824219 Z M 58.960938 67.824219 " fill-opacity="1" fill-rule="evenodd"/><path fill="#fee570" d="M 291.566406 319.792969 C 318.507812 319.792969 340.488281 297.835938 340.488281 270.875 C 340.488281 243.914062 318.507812 221.972656 291.566406 221.972656 C 264.625 221.972656 242.648438 243.933594 242.648438 270.875 C 242.648438 297.816406 264.625 319.792969 291.566406 319.792969 Z M 291.566406 319.792969 " fill-opacity="1" fill-rule="evenodd"/><path fill="#000000" d="M 52.714844 164.496094 C 52.714844 167.730469 55.335938 170.351562 58.570312 170.351562 L 175.957031 170.351562 C 179.191406 170.351562 181.8125 167.730469 181.8125 164.496094 L 181.8125 47.109375 C 181.8125 43.875 179.191406 41.253906 175.957031 41.253906 C 149.667969 41.253906 123.925781 49.753906 102.828125 65.285156 C 99.277344 61.515625 95.175781 58.226562 90.609375 55.539062 C 93.859375 50.050781 95.734375 43.660156 95.734375 36.832031 C 95.734375 16.523438 79.21875 0 58.921875 0 C 38.625 0 22.089844 16.523438 22.089844 36.832031 C 22.089844 43.660156 23.96875 50.058594 27.222656 55.546875 C 10.484375 65.398438 0 83.375 0 103.125 L 0 128.203125 C 0 131.4375 2.621094 134.058594 5.855469 134.058594 L 56.507812 134.058594 C 53.992188 143.980469 52.714844 154.183594 52.714844 164.496094 Z M 170.101562 53.117188 L 170.101562 158.640625 L 64.574219 158.640625 C 65.007812 150.296875 66.371094 142.066406 68.632812 134.058594 L 111.988281 134.058594 C 115.222656 134.058594 117.84375 131.4375 117.84375 128.203125 L 117.84375 103.125 C 117.84375 92.839844 115 83.039062 109.914062 74.613281 C 127.40625 61.773438 148.417969 54.265625 170.101562 53.117188 Z M 66.328125 82.566406 L 58.921875 92.113281 L 51.515625 82.5625 L 52.503906 73.070312 C 54.589844 73.4375 56.734375 73.640625 58.921875 73.640625 C 61.113281 73.640625 63.246094 73.441406 65.328125 73.074219 Z M 58.921875 11.710938 C 72.765625 11.710938 84.023438 22.980469 84.023438 36.832031 C 84.023438 50.683594 72.765625 61.933594 58.921875 61.933594 C 45.082031 61.933594 33.800781 50.671875 33.800781 36.832031 C 33.800781 22.992188 45.070312 11.710938 58.921875 11.710938 Z M 11.710938 103.125 C 11.710938 86.90625 20.691406 72.199219 34.875 64.679688 C 36.804688 66.34375 38.90625 67.820312 41.152344 69.0625 L 39.625 83.6875 C 39.46875 85.1875 39.898438 86.6875 40.820312 87.878906 L 54.300781 105.242188 C 55.410156 106.671875 57.117188 107.503906 58.921875 107.503906 C 60.730469 107.503906 62.4375 106.671875 63.546875 105.242188 L 77.027344 87.878906 C 77.949219 86.6875 78.378906 85.179688 78.21875 83.679688 L 76.679688 69.0625 C 78.929688 67.820312 81.03125 66.34375 82.960938 64.675781 C 88.519531 67.621094 93.285156 71.664062 97.015625 76.476562 C 97.140625 76.671875 97.269531 76.859375 97.417969 77.042969 C 97.457031 77.09375 97.507812 77.136719 97.550781 77.1875 C 103.011719 84.535156 106.136719 93.566406 106.136719 103.125 L 106.136719 122.351562 L 91.707031 122.351562 L 91.707031 112.050781 C 91.707031 108.816406 89.085938 106.195312 85.851562 106.195312 C 82.617188 106.195312 79.996094 108.816406 79.996094 112.050781 L 79.996094 122.351562 L 64.371094 122.351562 C 64.347656 122.351562 64.328125 122.351562 64.308594 122.351562 L 37.832031 122.351562 L 37.832031 112.050781 C 37.832031 108.816406 35.207031 106.195312 31.976562 106.195312 C 28.742188 106.195312 26.121094 108.816406 26.121094 112.050781 L 26.121094 122.351562 L 11.710938 122.351562 Z M 347.777344 70.308594 C 351.03125 64.820312 352.910156 58.421875 352.910156 51.59375 C 352.910156 31.285156 336.386719 14.761719 316.078125 14.761719 C 295.769531 14.761719 279.265625 31.285156 279.265625 51.59375 C 279.265625 58.417969 281.140625 64.8125 284.394531 70.300781 C 280.664062 72.496094 277.242188 75.085938 274.179688 78.019531 C 255.550781 67.292969 234.421875 61.640625 212.765625 61.640625 C 209.535156 61.640625 206.910156 64.261719 206.910156 67.496094 L 206.910156 184.882812 C 206.910156 186.847656 207.898438 188.679688 209.535156 189.765625 L 262.265625 224.675781 C 255.785156 228.800781 250.222656 234.238281 245.96875 240.628906 L 185.914062 200.867188 C 184.957031 200.230469 183.832031 199.894531 182.683594 199.894531 L 65.316406 199.894531 C 62.082031 199.894531 59.460938 202.515625 59.460938 205.75 C 59.460938 225.765625 64.355469 245.539062 73.621094 263.152344 C 71.675781 267.636719 70.589844 272.578125 70.589844 277.773438 C 70.589844 284.601562 72.464844 291 75.71875 296.488281 C 58.984375 306.339844 48.5 324.316406 48.5 344.0625 L 48.5 369.144531 C 48.5 372.378906 51.121094 375 54.355469 375 L 160.46875 375 C 163.699219 375 166.324219 372.378906 166.324219 369.144531 L 166.324219 344.0625 C 166.324219 338.359375 165.441406 332.804688 163.796875 327.546875 C 170.015625 328.507812 176.332031 328.992188 182.683594 328.992188 C 207.40625 328.992188 231.042969 321.773438 251.390625 308.066406 C 261.40625 318.894531 275.722656 325.691406 291.597656 325.691406 C 321.8125 325.691406 346.390625 301.109375 346.390625 270.898438 C 346.390625 254.464844 339.101562 239.707031 327.59375 229.660156 C 333.160156 215.390625 335.988281 200.351562 335.988281 184.882812 C 335.988281 172.542969 334.1875 160.449219 330.632812 148.820312 L 369.144531 148.820312 C 372.378906 148.820312 375 146.199219 375 142.964844 L 375 117.886719 C 375 98.136719 364.515625 80.160156 347.777344 70.308594 Z M 323.484375 97.324219 L 316.085938 106.863281 L 308.671875 97.324219 L 309.671875 87.835938 C 311.753906 88.203125 313.894531 88.402344 316.078125 88.402344 C 318.261719 88.402344 320.410156 88.199219 322.496094 87.832031 Z M 316.078125 26.472656 C 329.929688 26.472656 341.199219 37.742188 341.199219 51.59375 C 341.199219 65.445312 329.929688 76.695312 316.078125 76.695312 C 302.226562 76.695312 290.976562 65.433594 290.976562 51.59375 C 290.976562 37.753906 302.234375 26.472656 316.078125 26.472656 Z M 114.824219 323.484375 L 107.410156 333.042969 L 99.996094 323.484375 L 100.996094 314.015625 C 103.078125 314.378906 105.214844 314.582031 107.402344 314.582031 C 109.585938 314.582031 111.734375 314.378906 113.820312 314.011719 L 114.824219 323.488281 Z M 107.402344 302.871094 C 93.558594 302.871094 82.300781 291.613281 82.300781 277.773438 C 82.300781 263.929688 93.558594 252.648438 107.402344 252.648438 C 121.242188 252.648438 132.523438 263.917969 132.523438 277.773438 C 132.523438 291.625 121.253906 302.871094 107.402344 302.871094 Z M 154.613281 363.289062 L 140.203125 363.289062 L 140.203125 352.992188 C 140.203125 349.757812 137.582031 347.136719 134.347656 347.136719 C 131.113281 347.136719 128.492188 349.757812 128.492188 352.992188 L 128.492188 363.289062 L 86.328125 363.289062 L 86.328125 352.992188 C 86.328125 349.757812 83.707031 347.136719 80.472656 347.136719 C 77.238281 347.136719 74.617188 349.757812 74.617188 352.992188 L 74.617188 363.289062 L 60.207031 363.289062 L 60.207031 344.0625 C 60.207031 327.847656 69.1875 313.144531 83.367188 305.621094 C 85.296875 307.289062 87.398438 308.761719 89.644531 310.003906 L 88.101562 324.597656 C 87.945312 326.101562 88.371094 327.605469 89.300781 328.800781 L 102.773438 346.175781 C 103.878906 347.605469 105.585938 348.445312 107.394531 348.445312 L 107.398438 348.445312 C 109.207031 348.445312 110.914062 347.609375 112.023438 346.183594 L 125.523438 328.800781 C 126.449219 327.605469 126.875 326.097656 126.71875 324.59375 L 125.167969 310.003906 C 127.417969 308.761719 129.515625 307.285156 131.445312 305.617188 C 138.765625 309.5 144.695312 315.292969 148.722656 322.222656 C 148.824219 322.421875 148.9375 322.613281 149.058594 322.796875 C 152.628906 329.160156 154.613281 336.445312 154.613281 344.0625 Z M 182.683594 317.28125 C 174.226562 317.28125 165.839844 316.324219 157.710938 314.460938 C 153.078125 307.175781 146.742188 300.984375 139.097656 296.488281 C 142.355469 291 144.234375 284.601562 144.234375 277.773438 C 144.234375 257.460938 127.710938 240.941406 107.402344 240.941406 C 97.140625 240.941406 87.851562 245.167969 81.171875 251.964844 C 75.414062 239.292969 72.058594 225.570312 71.324219 211.605469 L 180.921875 211.605469 L 240.539062 251.078125 C 238.140625 257.230469 236.808594 263.910156 236.808594 270.902344 C 236.808594 281.027344 239.582031 290.515625 244.390625 298.660156 C 226.085938 310.859375 204.871094 317.28125 182.683594 317.28125 Z M 334.679688 270.898438 C 334.679688 294.65625 315.355469 313.980469 291.597656 313.980469 C 267.84375 313.980469 248.519531 294.65625 248.519531 270.898438 C 248.519531 247.144531 267.84375 227.839844 291.597656 227.839844 C 315.355469 227.839844 334.679688 247.15625 334.679688 270.898438 Z M 324.277344 184.882812 C 324.277344 197.925781 322.058594 210.628906 317.6875 222.746094 C 309.925781 218.527344 301.039062 216.128906 291.601562 216.128906 C 285.683594 216.128906 279.988281 217.085938 274.644531 218.828125 L 218.621094 181.738281 L 218.621094 73.503906 C 235.460938 74.378906 251.804688 79.042969 266.511719 87.140625 C 260.535156 96.042969 257.15625 106.679688 257.15625 117.886719 L 257.15625 142.964844 C 257.15625 146.199219 259.777344 148.820312 263.011719 148.820312 L 318.320312 148.820312 C 322.269531 160.378906 324.277344 172.492188 324.277344 184.882812 Z M 363.289062 137.109375 L 348.882812 137.109375 L 348.882812 126.8125 C 348.882812 123.578125 346.261719 120.957031 343.027344 120.957031 C 339.792969 120.957031 337.171875 123.578125 337.171875 126.8125 L 337.171875 137.109375 L 295.003906 137.109375 L 295.003906 126.8125 C 295.003906 123.578125 292.382812 120.957031 289.148438 120.957031 C 285.914062 120.957031 283.292969 123.578125 283.292969 126.8125 L 283.292969 137.109375 L 268.863281 137.109375 L 268.863281 117.886719 C 268.863281 107.28125 272.707031 97.324219 279.332031 89.597656 C 279.53125 89.398438 279.714844 89.183594 279.886719 88.953125 C 283.285156 85.140625 287.382812 81.902344 292.039062 79.4375 C 293.96875 81.105469 296.074219 82.582031 298.320312 83.824219 L 296.78125 98.441406 C 296.621094 99.945312 297.050781 101.453125 297.980469 102.648438 L 311.449219 119.996094 C 312.558594 121.425781 314.261719 122.265625 316.070312 122.265625 L 316.078125 122.265625 C 317.882812 122.265625 319.589844 121.433594 320.699219 120.003906 L 334.179688 102.640625 C 335.101562 101.449219 335.53125 99.949219 335.375 98.449219 L 333.847656 83.824219 C 336.09375 82.578125 338.195312 81.105469 340.125 79.441406 C 354.308594 86.960938 363.289062 101.667969 363.289062 117.886719 Z M 308.582031 280.324219 C 308.582031 286.925781 303.941406 292.570312 297.453125 294.730469 L 297.453125 300.234375 C 297.453125 303.46875 294.832031 306.089844 291.597656 306.089844 C 288.367188 306.089844 285.742188 303.46875 285.742188 300.234375 L 285.742188 294.738281 C 281.75 293.421875 278.394531 290.773438 276.410156 287.195312 C 274.84375 284.367188 275.863281 280.800781 278.691406 279.234375 C 281.515625 277.664062 285.078125 278.6875 286.648438 281.511719 C 287.324219 282.730469 289.117188 283.957031 291.597656 283.957031 C 294.707031 283.957031 296.871094 282.042969 296.871094 280.324219 C 296.871094 278.414062 296.871094 277.898438 290.4375 276.597656 C 284.910156 275.476562 274.613281 273.394531 274.613281 261.390625 C 274.613281 254.789062 279.253906 249.148438 285.742188 246.988281 L 285.742188 241.585938 C 285.742188 238.351562 288.367188 235.730469 291.597656 235.730469 C 294.832031 235.730469 297.453125 238.351562 297.453125 241.585938 L 297.453125 247.003906 C 302.082031 248.546875 305.859375 251.855469 307.585938 256.195312 C 308.78125 259.203125 307.3125 262.605469 304.308594 263.800781 C 301.308594 264.996094 297.902344 263.527344 296.707031 260.523438 C 296.160156 259.148438 294.230469 257.757812 291.597656 257.757812 C 288.492188 257.757812 286.324219 259.671875 286.324219 261.390625 C 286.324219 263.304688 286.324219 263.816406 292.761719 265.121094 C 298.289062 266.238281 308.582031 268.324219 308.582031 280.324219 Z M 308.582031 280.324219 " fill-opacity="1" fill-rule="nonzero"/><path fill="#ff656f" d="M 212.757812 67.535156 C 277.558594 67.535156 330.089844 120.066406 330.089844 184.886719 C 330.089844 208.835938 322.90625 231.105469 310.601562 249.664062 L 212.757812 184.886719 Z M 212.757812 67.535156 " fill-opacity="1" fill-rule="evenodd"/><path fill="#23a8fe" d="M 58.609375 164.503906 C 58.609375 99.683594 111.140625 47.152344 175.960938 47.152344 L 175.960938 164.503906 Z M 58.609375 164.503906 " fill-opacity="1" fill-rule="evenodd"/><path fill="#6fd7a3" d="M 182.683594 205.742188 L 65.355469 205.742188 C 65.355469 270.5625 117.886719 323.09375 182.683594 323.09375 C 223.550781 323.09375 259.519531 302.214844 280.546875 270.542969 Z M 182.683594 205.742188 " fill-opacity="1" fill-rule="evenodd"/><path fill="#fee570" d="M 54.394531 369.089844 L 160.476562 369.089844 L 160.476562 344.015625 C 160.476562 316.828125 138.308594 294.640625 111.121094 294.640625 L 103.75 294.640625 C 76.5625 294.640625 54.394531 316.828125 54.394531 344.015625 Z M 54.394531 369.089844 " fill-opacity="1" fill-rule="evenodd"/><path fill="#ff656f" d="M 107.425781 342.542969 L 114.171875 333.867188 L 120.917969 325.171875 L 117.742188 295.09375 C 115.582031 294.804688 113.363281 294.640625 111.121094 294.640625 L 103.753906 294.640625 C 101.511719 294.640625 99.289062 294.804688 97.132812 295.09375 L 93.957031 325.171875 L 100.703125 333.867188 Z M 107.425781 342.542969 " fill-opacity="1" fill-rule="evenodd"/><path fill="#f7c5b8" d="M 107.425781 308.691406 C 124.488281 308.691406 138.394531 294.785156 138.394531 277.746094 C 138.394531 260.703125 124.488281 246.777344 107.425781 246.777344 C 90.363281 246.777344 76.480469 260.683594 76.480469 277.746094 C 76.480469 294.804688 90.386719 308.691406 107.425781 308.691406 Z M 107.425781 308.691406 " fill-opacity="1" fill-rule="evenodd"/><path fill="#fee570" d="M 262.988281 142.980469 L 369.089844 142.980469 L 369.089844 117.90625 C 369.089844 90.71875 346.902344 68.53125 319.710938 68.53125 L 312.363281 68.53125 C 285.175781 68.53125 262.988281 90.71875 262.988281 117.90625 Z M 262.988281 142.980469 " fill-opacity="1" fill-rule="evenodd"/><path fill="#ff656f" d="M 316.039062 116.433594 L 322.785156 107.757812 L 329.507812 99.082031 L 326.351562 68.988281 C 324.175781 68.695312 321.972656 68.53125 319.734375 68.53125 L 312.363281 68.53125 C 310.121094 68.53125 307.902344 68.695312 305.722656 68.988281 L 302.566406 99.082031 L 309.3125 107.757812 Z M 316.039062 116.433594 " fill-opacity="1" fill-rule="evenodd"/><path fill="#f7c5b8" d="M 316.039062 82.582031 C 333.097656 82.582031 347.003906 68.675781 347.003906 51.636719 C 347.003906 34.59375 333.097656 20.667969 316.039062 20.667969 C 298.976562 20.667969 285.089844 34.574219 285.089844 51.636719 C 285.089844 68.695312 298.996094 82.582031 316.039062 82.582031 Z M 316.039062 82.582031 " fill-opacity="1" fill-rule="evenodd"/><path fill="#fee570" d="M 5.910156 128.222656 L 112.011719 128.222656 L 112.011719 103.152344 C 112.011719 75.960938 89.824219 53.773438 62.636719 53.773438 L 55.289062 53.773438 C 28.101562 53.773438 5.914062 75.960938 5.914062 103.152344 L 5.914062 128.222656 Z M 5.910156 128.222656 " fill-opacity="1" fill-rule="evenodd"/><path fill="#ff656f" d="M 58.960938 101.675781 L 65.707031 93 L 72.433594 84.324219 L 69.277344 54.230469 C 67.097656 53.9375 64.898438 53.773438 62.636719 53.773438 L 55.289062 53.773438 C 53.027344 53.773438 50.824219 53.9375 48.648438 54.230469 L 45.492188 84.324219 L 52.21875 93 L 58.964844 101.675781 Z M 58.960938 101.675781 " fill-opacity="1" fill-rule="evenodd"/><path fill="#f7c5b8" d="M 58.960938 67.824219 C 76.003906 67.824219 89.910156 53.917969 89.910156 36.878906 C 89.910156 19.839844 76.003906 5.910156 58.960938 5.910156 C 41.921875 5.910156 27.996094 19.816406 27.996094 36.878906 C 27.996094 53.941406 41.902344 67.824219 58.960938 67.824219 Z M 58.960938 67.824219 " fill-opacity="1" fill-rule="evenodd"/><path fill="#fee570" d="M 291.566406 319.792969 C 318.507812 319.792969 340.488281 297.835938 340.488281 270.875 C 340.488281 243.914062 318.507812 221.972656 291.566406 221.972656 C 264.625 221.972656 242.648438 243.933594 242.648438 270.875 C 242.648438 297.816406 264.625 319.792969 291.566406 319.792969 Z M 291.566406 319.792969 " fill-opacity="1" fill-rule="evenodd"/><path fill="#000000" d="M 52.714844 164.496094 C 52.714844 167.730469 55.335938 170.351562 58.570312 170.351562 L 175.957031 170.351562 C 179.191406 170.351562 181.8125 167.730469 181.8125 164.496094 L 181.8125 47.109375 C 181.8125 43.875 179.191406 41.253906 175.957031 41.253906 C 149.667969 41.253906 123.925781 49.753906 102.828125 65.285156 C 99.277344 61.515625 95.175781 58.226562 90.609375 55.539062 C 93.859375 50.050781 95.734375 43.660156 95.734375 36.832031 C 95.734375 16.523438 79.21875 0 58.921875 0 C 38.625 0 22.089844 16.523438 22.089844 36.832031 C 22.089844 43.660156 23.96875 50.058594 27.222656 55.546875 C 10.484375 65.398438 0 83.375 0 103.125 L 0 128.203125 C 0 131.4375 2.621094 134.058594 5.855469 134.058594 L 56.507812 134.058594 C 53.992188 143.980469 52.714844 154.183594 52.714844 164.496094 Z M 170.101562 53.117188 L 170.101562 158.640625 L 64.574219 158.640625 C 65.007812 150.296875 66.371094 142.066406 68.632812 134.058594 L 111.988281 134.058594 C 115.222656 134.058594 117.84375 131.4375 117.84375 128.203125 L 117.84375 103.125 C 117.84375 92.839844 115 83.039062 109.914062 74.613281 C 127.40625 61.773438 148.417969 54.265625 170.101562 53.117188 Z M 66.328125 82.566406 L 58.921875 92.113281 L 51.515625 82.5625 L 52.503906 73.070312 C 54.589844 73.4375 56.734375 73.640625 58.921875 73.640625 C 61.113281 73.640625 63.246094 73.441406 65.328125 73.074219 Z M 58.921875 11.710938 C 72.765625 11.710938 84.023438 22.980469 84.023438 36.832031 C 84.023438 50.683594 72.765625 61.933594 58.921875 61.933594 C 45.082031 61.933594 33.800781 50.671875 33.800781 36.832031 C 33.800781 22.992188 45.070312 11.710938 58.921875 11.710938 Z M 11.710938 103.125 C 11.710938 86.90625 20.691406 72.199219 34.875 64.679688 C 36.804688 66.34375 38.90625 67.820312 41.152344 69.0625 L 39.625 83.6875 C 39.46875 85.1875 39.898438 86.6875 40.820312 87.878906 L 54.300781 105.242188 C 55.410156 106.671875 57.117188 107.503906 58.921875 107.503906 C 60.730469 107.503906 62.4375 106.671875 63.546875 105.242188 L 77.027344 87.878906 C 77.949219 86.6875 78.378906 85.179688 78.21875 83.679688 L 76.679688 69.0625 C 78.929688 67.820312 81.03125 66.34375 82.960938 64.675781 C 88.519531 67.621094 93.285156 71.664062 97.015625 76.476562 C 97.140625 76.671875 97.269531 76.859375 97.417969 77.042969 C 97.457031 77.09375 97.507812 77.136719 97.550781 77.1875 C 103.011719 84.535156 106.136719 93.566406 106.136719 103.125 L 106.136719 122.351562 L 91.707031 122.351562 L 91.707031 112.050781 C 91.707031 108.816406 89.085938 106.195312 85.851562 106.195312 C 82.617188 106.195312 79.996094 108.816406 79.996094 112.050781 L 79.996094 122.351562 L 64.371094 122.351562 C 64.347656 122.351562 64.328125 122.351562 64.308594 122.351562 L 37.832031 122.351562 L 37.832031 112.050781 C 37.832031 108.816406 35.207031 106.195312 31.976562 106.195312 C 28.742188 106.195312 26.121094 108.816406 26.121094 112.050781 L 26.121094 122.351562 L 11.710938 122.351562 Z M 347.777344 70.308594 C 351.03125 64.820312 352.910156 58.421875 352.910156 51.59375 C 352.910156 31.285156 336.386719 14.761719 316.078125 14.761719 C 295.769531 14.761719 279.265625 31.285156 279.265625 51.59375 C 279.265625 58.417969 281.140625 64.8125 284.394531 70.300781 C 280.664062 72.496094 277.242188 75.085938 274.179688 78.019531 C 255.550781 67.292969 234.421875 61.640625 212.765625 61.640625 C 209.535156 61.640625 206.910156 64.261719 206.910156 67.496094 L 206.910156 184.882812 C 206.910156 186.847656 207.898438 188.679688 209.535156 189.765625 L 262.265625 224.675781 C 255.785156 228.800781 250.222656 234.238281 245.96875 240.628906 L 185.914062 200.867188 C 184.957031 200.230469 183.832031 199.894531 182.683594 199.894531 L 65.316406 199.894531 C 62.082031 199.894531 59.460938 202.515625 59.460938 205.75 C 59.460938 225.765625 64.355469 245.539062 73.621094 263.152344 C 71.675781 267.636719 70.589844 272.578125 70.589844 277.773438 C 70.589844 284.601562 72.464844 291 75.71875 296.488281 C 58.984375 306.339844 48.5 324.316406 48.5 344.0625 L 48.5 369.144531 C 48.5 372.378906 51.121094 375 54.355469 375 L 160.46875 375 C 163.699219 375 166.324219 372.378906 166.324219 369.144531 L 166.324219 344.0625 C 166.324219 338.359375 165.441406 332.804688 163.796875 327.546875 C 170.015625 328.507812 176.332031 328.992188 182.683594 328.992188 C 207.40625 328.992188 231.042969 321.773438 251.390625 308.066406 C 261.40625 318.894531 275.722656 325.691406 291.597656 325.691406 C 321.8125 325.691406 346.390625 301.109375 346.390625 270.898438 C 346.390625 254.464844 339.101562 239.707031 327.59375 229.660156 C 333.160156 215.390625 335.988281 200.351562 335.988281 184.882812 C 335.988281 172.542969 334.1875 160.449219 330.632812 148.820312 L 369.144531 148.820312 C 372.378906 148.820312 375 146.199219 375 142.964844 L 375 117.886719 C 375 98.136719 364.515625 80.160156 347.777344 70.308594 Z M 323.484375 97.324219 L 316.085938 106.863281 L 308.671875 97.324219 L 309.671875 87.835938 C 311.753906 88.203125 313.894531 88.402344 316.078125 88.402344 C 318.261719 88.402344 320.410156 88.199219 322.496094 87.832031 Z M 316.078125 26.472656 C 329.929688 26.472656 341.199219 37.742188 341.199219 51.59375 C 341.199219 65.445312 329.929688 76.695312 316.078125 76.695312 C 302.226562 76.695312 290.976562 65.433594 290.976562 51.59375 C 290.976562 37.753906 302.234375 26.472656 316.078125 26.472656 Z M 114.824219 323.484375 L 107.410156 333.042969 L 99.996094 323.484375 L 100.996094 314.015625 C 103.078125 314.378906 105.214844 314.582031 107.402344 314.582031 C 109.585938 314.582031 111.734375 314.378906 113.820312 314.011719 L 114.824219 323.488281 Z M 107.402344 302.871094 C 93.558594 302.871094 82.300781 291.613281 82.300781 277.773438 C 82.300781 263.929688 93.558594 252.648438 107.402344 252.648438 C 121.242188 252.648438 132.523438 263.917969 132.523438 277.773438 C 132.523438 291.625 121.253906 302.871094 107.402344 302.871094 Z M 154.613281 363.289062 L 140.203125 363.289062 L 140.203125 352.992188 C 140.203125 349.757812 137.582031 347.136719 134.347656 347.136719 C 131.113281 347.136719 128.492188 349.757812 128.492188 352.992188 L 128.492188 363.289062 L 86.328125 363.289062 L 86.328125 352.992188 C 86.328125 349.757812 83.707031 347.136719 80.472656 347.136719 C 77.238281 347.136719 74.617188 349.757812 74.617188 352.992188 L 74.617188 363.289062 L 60.207031 363.289062 L 60.207031 344.0625 C 60.207031 327.847656 69.1875 313.144531 83.367188 305.621094 C 85.296875 307.289062 87.398438 308.761719 89.644531 310.003906 L 88.101562 324.597656 C 87.945312 326.101562 88.371094 327.605469 89.300781 328.800781 L 102.773438 346.175781 C 103.878906 347.605469 105.585938 348.445312 107.394531 348.445312 L 107.398438 348.445312 C 109.207031 348.445312 110.914062 347.609375 112.023438 346.183594 L 125.523438 328.800781 C 126.449219 327.605469 126.875 326.097656 126.71875 324.59375 L 125.167969 310.003906 C 127.417969 308.761719 129.515625 307.285156 131.445312 305.617188 C 138.765625 309.5 144.695312 315.292969 148.722656 322.222656 C 148.824219 322.421875 148.9375 322.613281 149.058594 322.796875 C 152.628906 329.160156 154.613281 336.445312 154.613281 344.0625 Z M 182.683594 317.28125 C 174.226562 317.28125 165.839844 316.324219 157.710938 314.460938 C 153.078125 307.175781 146.742188 300.984375 139.097656 296.488281 C 142.355469 291 144.234375 284.601562 144.234375 277.773438 C 144.234375 257.460938 127.710938 240.941406 107.402344 240.941406 C 97.140625 240.941406 87.851562 245.167969 81.171875 251.964844 C 75.414062 239.292969 72.058594 225.570312 71.324219 211.605469 L 180.921875 211.605469 L 240.539062 251.078125 C 238.140625 257.230469 236.808594 263.910156 236.808594 270.902344 C 236.808594 281.027344 239.582031 290.515625 244.390625 298.660156 C 226.085938 310.859375 204.871094 317.28125 182.683594 317.28125 Z M 334.679688 270.898438 C 334.679688 294.65625 315.355469 313.980469 291.597656 313.980469 C 267.84375 313.980469 248.519531 294.65625 248.519531 270.898438 C 248.519531 247.144531 267.84375 227.839844 291.597656 227.839844 C 315.355469 227.839844 334.679688 247.15625 334.679688 270.898438 Z M 324.277344 184.882812 C 324.277344 197.925781 322.058594 210.628906 317.6875 222.746094 C 309.925781 218.527344 301.039062 216.128906 291.601562 216.128906 C 285.683594 216.128906 279.988281 217.085938 274.644531 218.828125 L 218.621094 181.738281 L 218.621094 73.503906 C 235.460938 74.378906 251.804688 79.042969 266.511719 87.140625 C 260.535156 96.042969 257.15625 106.679688 257.15625 117.886719 L 257.15625 142.964844 C 257.15625 146.199219 259.777344 148.820312 263.011719 148.820312 L 318.320312 148.820312 C 322.269531 160.378906 324.277344 172.492188 324.277344 184.882812 Z M 363.289062 137.109375 L 348.882812 137.109375 L 348.882812 126.8125 C 348.882812 123.578125 346.261719 120.957031 343.027344 120.957031 C 339.792969 120.957031 337.171875 123.578125 337.171875 126.8125 L 337.171875 137.109375 L 295.003906 137.109375 L 295.003906 126.8125 C 295.003906 123.578125 292.382812 120.957031 289.148438 120.957031 C 285.914062 120.957031 283.292969 123.578125 283.292969 126.8125 L 283.292969 137.109375 L 268.863281 137.109375 L 268.863281 117.886719 C 268.863281 107.28125 272.707031 97.324219 279.332031 89.597656 C 279.53125 89.398438 279.714844 89.183594 279.886719 88.953125 C 283.285156 85.140625 287.382812 81.902344 292.039062 79.4375 C 293.96875 81.105469 296.074219 82.582031 298.320312 83.824219 L 296.78125 98.441406 C 296.621094 99.945312 297.050781 101.453125 297.980469 102.648438 L 311.449219 119.996094 C 312.558594 121.425781 314.261719 122.265625 316.070312 122.265625 L 316.078125 122.265625 C 317.882812 122.265625 319.589844 121.433594 320.699219 120.003906 L 334.179688 102.640625 C 335.101562 101.449219 335.53125 99.949219 335.375 98.449219 L 333.847656 83.824219 C 336.09375 82.578125 338.195312 81.105469 340.125 79.441406 C 354.308594 86.960938 363.289062 101.667969 363.289062 117.886719 Z M 308.582031 280.324219 C 308.582031 286.925781 303.941406 292.570312 297.453125 294.730469 L 297.453125 300.234375 C 297.453125 303.46875 294.832031 306.089844 291.597656 306.089844 C 288.367188 306.089844 285.742188 303.46875 285.742188 300.234375 L 285.742188 294.738281 C 281.75 293.421875 278.394531 290.773438 276.410156 287.195312 C 274.84375 284.367188 275.863281 280.800781 278.691406 279.234375 C 281.515625 277.664062 285.078125 278.6875 286.648438 281.511719 C 287.324219 282.730469 289.117188 283.957031 291.597656 283.957031 C 294.707031 283.957031 296.871094 282.042969 296.871094 280.324219 C 296.871094 278.414062 296.871094 277.898438 290.4375 276.597656 C 284.910156 275.476562 274.613281 273.394531 274.613281 261.390625 C 274.613281 254.789062 279.253906 249.148438 285.742188 246.988281 L 285.742188 241.585938 C 285.742188 238.351562 288.367188 235.730469 291.597656 235.730469 C 294.832031 235.730469 297.453125 238.351562 297.453125 241.585938 L 297.453125 247.003906 C 302.082031 248.546875 305.859375 251.855469 307.585938 256.195312 C 308.78125 259.203125 307.3125 262.605469 304.308594 263.800781 C 301.308594 264.996094 297.902344 263.527344 296.707031 260.523438 C 296.160156 259.148438 294.230469 257.757812 291.597656 257.757812 C 288.492188 257.757812 286.324219 259.671875 286.324219 261.390625 C 286.324219 263.304688 286.324219 263.816406 292.761719 265.121094 C 298.289062 266.238281 308.582031 268.324219 308.582031 280.324219 Z M 308.582031 280.324219 " fill-opacity="1" fill-rule="nonzero"/></svg>