<svg xmlns="http://www.w3.org/2000/svg" xmlns:xlink="http://www.w3.org/1999/xlink" width="500" zoomAndPan="magnify" viewBox="0 0 375 374.999991" height="500" preserveAspectRatio="xMidYMid meet" version="1.0"><defs><clipPath id="f69885e581"><path d="M 187.5 0 C 83.945312 0 0 83.945312 0 187.5 C 0 291.054688 83.945312 375 187.5 375 C 291.054688 375 375 291.054688 375 187.5 C 375 83.945312 291.054688 0 187.5 0 Z M 187.5 0 " clip-rule="nonzero"/></clipPath><clipPath id="f5ef4b266a"><path d="M 0 0 L 375 0 L 375 375 L 0 375 Z M 0 0 " clip-rule="nonzero"/></clipPath><clipPath id="9f8d8709c3"><path d="M 187.5 0 C 83.945312 0 0 83.945312 0 187.5 C 0 291.054688 83.945312 375 187.5 375 C 291.054688 375 375 291.054688 375 187.5 C 375 83.945312 291.054688 0 187.5 0 Z M 187.5 0 " clip-rule="nonzero"/></clipPath><clipPath id="6088d0be59"><rect x="0" width="375" y="0" height="375"/></clipPath><clipPath id="aa211372b7"><path d="M 83 265 L 292 265 L 292 303.394531 L 83 303.394531 Z M 83 265 " clip-rule="nonzero"/></clipPath><clipPath id="2a53d25c33"><path d="M 64.707031 58.144531 L 309.957031 58.144531 L 309.957031 247 L 64.707031 247 Z M 64.707031 58.144531 " clip-rule="nonzero"/></clipPath></defs><g clip-path="url(#f69885e581)"><g transform="matrix(1, 0, 0, 1, 0, 0)"><g clip-path="url(#6088d0be59)"><g clip-path="url(#f5ef4b266a)"><g clip-path="url(#9f8d8709c3)"><rect x="-82.5" width="540" fill="#e6ac41" height="539.999987" y="-82.499998" fill-opacity="1"/></g></g></g></g></g><path fill="#eaf0fa" d="M 212.4375 263.335938 C 219.917969 263.335938 225.867188 257.386719 225.867188 249.90625 L 225.867188 242.230469 C 225.867188 234.75 219.917969 228.800781 212.4375 228.800781 C 204.953125 228.800781 199.007812 234.75 199.007812 242.230469 L 199.007812 249.90625 C 199.007812 257.386719 204.953125 263.335938 212.4375 263.335938 Z M 212.4375 263.335938 " fill-opacity="1" fill-rule="nonzero"/><path fill="#eaf0fa" d="M 262.320312 263.335938 C 269.804688 263.335938 275.75 257.386719 275.75 249.90625 L 275.75 242.230469 C 275.75 234.75 269.804688 228.800781 262.320312 228.800781 C 254.839844 228.800781 248.890625 234.75 248.890625 242.230469 L 248.890625 249.90625 C 248.890625 257.386719 254.839844 263.335938 262.320312 263.335938 Z M 262.320312 263.335938 " fill-opacity="1" fill-rule="nonzero"/><path fill="#eaf0fa" d="M 162.554688 263.335938 C 170.035156 263.335938 175.984375 257.386719 175.984375 249.90625 L 175.984375 242.230469 C 175.984375 234.75 170.035156 228.800781 162.554688 228.800781 C 155.070312 228.800781 149.125 234.75 149.125 242.230469 L 149.125 249.90625 C 149.125 257.386719 155.070312 263.335938 162.554688 263.335938 Z M 162.554688 263.335938 " fill-opacity="1" fill-rule="nonzero"/><path fill="#eaf0fa" d="M 112.671875 263.335938 C 120.152344 263.335938 126.101562 257.386719 126.101562 249.90625 L 126.101562 242.230469 C 126.101562 234.75 120.152344 228.800781 112.671875 228.800781 C 105.1875 228.800781 99.242188 234.75 99.242188 242.230469 L 99.242188 249.90625 C 99.242188 257.386719 105.1875 263.335938 112.671875 263.335938 Z M 112.671875 263.335938 " fill-opacity="1" fill-rule="nonzero"/><g clip-path="url(#aa211372b7)"><path fill="#eaf0fa" d="M 285.726562 273.121094 L 272.679688 265.828125 C 270.953125 264.871094 268.84375 265.253906 267.691406 266.980469 L 262.320312 274.273438 L 256.949219 266.980469 C 255.796875 265.445312 253.6875 264.871094 251.960938 265.828125 L 239.105469 273.121094 C 238.914062 273.121094 238.144531 273.695312 237.378906 274.273438 C 236.613281 273.503906 235.84375 273.121094 235.84375 273.121094 L 222.796875 265.828125 C 221.070312 264.871094 218.960938 265.253906 217.808594 266.980469 L 212.4375 274.273438 L 207.066406 266.980469 C 205.914062 265.445312 203.804688 264.871094 202.078125 265.828125 L 189.222656 273.121094 C 189.03125 273.121094 188.261719 273.695312 187.496094 274.273438 C 186.726562 273.503906 185.960938 273.121094 185.960938 273.121094 L 172.914062 265.828125 C 171.1875 264.871094 169.078125 265.253906 167.925781 266.980469 L 162.554688 274.273438 L 157.183594 266.980469 C 156.03125 265.445312 153.921875 264.871094 152.195312 265.828125 L 139.339844 273.121094 C 139.148438 273.121094 138.378906 273.695312 137.613281 274.273438 C 136.84375 273.503906 136.078125 273.121094 136.078125 273.121094 L 123.03125 265.828125 C 121.304688 264.871094 119.195312 265.253906 118.042969 266.980469 L 112.671875 274.273438 L 107.300781 266.980469 C 106.148438 265.445312 104.039062 264.871094 102.3125 265.828125 L 89.457031 273.121094 C 89.074219 273.3125 85.621094 275.230469 84.46875 279.261719 C 83.890625 281.371094 83.890625 284.25 83.890625 284.441406 L 83.890625 299.789062 C 83.890625 301.898438 85.621094 303.625 87.730469 303.625 C 89.839844 303.625 91.566406 301.898438 91.566406 299.789062 L 91.566406 284.441406 C 91.566406 283.671875 91.566406 282.136719 91.949219 281.371094 C 92.140625 280.601562 93.101562 280.027344 93.292969 279.835938 L 103.269531 274.078125 L 109.601562 282.714844 C 110.367188 283.671875 111.710938 284.25 112.863281 284.25 C 114.015625 284.25 115.164062 283.671875 115.933594 282.714844 L 122.265625 274.078125 L 132.433594 279.835938 C 132.433594 279.835938 133.390625 280.410156 133.582031 281.179688 C 133.777344 282.136719 133.96875 283.480469 133.96875 284.441406 L 133.96875 299.789062 C 133.96875 301.898438 135.695312 303.625 137.804688 303.625 C 139.914062 303.625 141.640625 301.898438 141.640625 299.789062 L 141.640625 284.441406 C 141.640625 283.671875 141.640625 282.136719 142.027344 281.371094 C 142.21875 280.601562 143.175781 280.027344 143.367188 279.835938 L 153.34375 274.078125 L 159.675781 282.714844 C 160.445312 283.671875 161.785156 284.25 162.9375 284.25 C 164.089844 284.25 165.242188 283.671875 166.007812 282.714844 L 172.339844 274.078125 L 182.507812 279.835938 C 182.507812 279.835938 183.464844 280.410156 183.660156 281.179688 C 183.851562 282.136719 184.042969 283.480469 184.042969 284.441406 L 184.042969 299.789062 C 184.042969 301.898438 185.769531 303.625 187.878906 303.625 C 189.988281 303.625 191.714844 301.898438 191.714844 299.789062 L 191.714844 284.441406 C 191.714844 283.671875 191.714844 282.136719 192.101562 281.371094 C 192.292969 280.601562 193.25 280.027344 193.445312 279.835938 L 203.421875 274.078125 L 209.75 282.714844 C 210.519531 283.671875 211.863281 284.25 213.011719 284.25 C 214.164062 284.25 215.316406 283.671875 216.082031 282.714844 L 222.414062 274.078125 L 232.582031 279.835938 C 232.582031 279.835938 233.542969 280.410156 233.734375 281.179688 C 233.925781 282.136719 234.117188 283.480469 234.117188 284.441406 L 234.117188 299.789062 C 234.117188 301.898438 235.84375 303.625 237.953125 303.625 C 240.066406 303.625 241.792969 301.898438 241.792969 299.789062 L 241.792969 284.441406 C 241.792969 283.671875 241.792969 282.136719 242.175781 281.371094 C 242.367188 280.601562 243.328125 280.027344 243.519531 279.835938 L 253.496094 274.078125 L 259.828125 282.714844 C 260.59375 283.671875 261.9375 284.25 263.085938 284.25 C 264.238281 284.25 265.390625 283.671875 266.15625 282.714844 L 272.488281 274.078125 L 282.65625 279.835938 C 282.65625 279.835938 283.617188 280.410156 283.808594 281.179688 C 284 282.136719 284.191406 283.480469 284.191406 284.441406 L 284.191406 299.789062 C 284.191406 301.898438 285.917969 303.625 288.03125 303.625 C 290.140625 303.625 291.867188 301.898438 291.867188 299.789062 L 291.867188 284.632812 C 291.867188 284.25 291.867188 281.5625 291.289062 279.453125 C 289.371094 275.230469 285.917969 273.3125 285.726562 273.121094 Z M 285.726562 273.121094 " fill-opacity="1" fill-rule="nonzero"/></g><g clip-path="url(#2a53d25c33)"><path fill="#eaf0fa" d="M 306.449219 238.203125 L 302.609375 238.203125 L 302.609375 161.652344 C 302.609375 159.539062 300.882812 157.8125 298.773438 157.8125 L 283.425781 157.8125 L 283.425781 119.441406 C 283.425781 118.484375 283.042969 117.523438 282.273438 116.757812 C 282.273438 116.757812 263.085938 97.761719 263.085938 97.761719 C 262.320312 96.996094 261.359375 96.609375 260.402344 96.609375 L 237.378906 96.609375 L 237.378906 83.179688 C 237.378906 81.644531 236.417969 80.304688 235.078125 79.726562 L 189.03125 58.625 C 188.070312 58.238281 186.921875 58.238281 185.769531 58.625 L 139.722656 79.726562 C 138.378906 80.304688 137.421875 81.644531 137.421875 83.179688 L 137.421875 96.609375 C 137.421875 96.609375 114.398438 96.609375 114.398438 96.609375 C 113.4375 96.609375 112.289062 96.996094 111.710938 97.761719 L 92.527344 116.757812 C 91.757812 117.523438 91.375 118.484375 91.375 119.441406 L 91.375 157.8125 L 76.21875 157.8125 C 74.109375 157.8125 72.382812 159.539062 72.382812 161.652344 L 72.382812 238.394531 L 68.542969 238.394531 C 66.433594 238.394531 64.707031 240.121094 64.707031 242.230469 C 64.707031 244.34375 66.433594 246.070312 68.542969 246.070312 L 91.566406 246.070312 L 91.566406 242.230469 C 91.566406 230.527344 100.96875 221.128906 112.671875 221.128906 C 114.589844 221.128906 116.507812 221.511719 118.425781 221.894531 L 118.425781 104.09375 L 137.613281 104.09375 L 137.613281 238.394531 L 133.390625 238.394531 C 133.582031 238.96875 133.582031 239.738281 133.777344 240.3125 C 133.777344 240.886719 133.96875 241.65625 133.96875 242.421875 L 133.96875 246.070312 L 141.640625 246.070312 L 141.640625 242.230469 C 141.640625 230.527344 151.042969 221.128906 162.746094 221.128906 C 165.433594 221.128906 168.117188 221.703125 170.421875 222.660156 L 170.421875 207.695312 L 183.851562 207.695312 L 183.851562 238.394531 L 183.46875 238.394531 C 183.660156 238.96875 183.660156 239.738281 183.851562 240.3125 C 183.851562 240.886719 184.042969 241.65625 184.042969 242.421875 L 184.042969 246.070312 L 191.714844 246.070312 L 191.714844 242.230469 C 191.714844 241.464844 191.714844 240.886719 191.910156 240.121094 C 191.910156 239.546875 192.101562 238.777344 192.292969 238.203125 L 191.332031 238.203125 L 191.332031 207.503906 L 204.761719 207.503906 L 204.761719 222.46875 C 207.066406 221.511719 209.75 220.933594 212.4375 220.933594 C 224.140625 220.933594 233.542969 230.335938 233.542969 242.039062 L 233.542969 245.683594 L 241.214844 245.683594 L 241.214844 242.230469 C 241.214844 241.464844 241.214844 240.886719 241.40625 240.121094 C 241.40625 239.546875 241.601562 238.777344 241.792969 238.203125 L 237.378906 238.203125 L 237.378906 104.09375 L 256.566406 104.09375 L 256.566406 222.085938 C 258.484375 221.511719 260.402344 221.320312 262.320312 221.320312 C 274.023438 221.320312 283.425781 230.71875 283.425781 242.421875 L 283.425781 246.070312 L 306.449219 246.070312 C 308.558594 246.070312 310.285156 244.34375 310.285156 242.230469 C 310.285156 239.929688 308.558594 238.203125 306.449219 238.203125 Z M 91.566406 238.203125 L 80.054688 238.203125 L 80.054688 165.488281 L 91.566406 165.488281 Z M 160.636719 192.347656 L 156.796875 192.347656 C 154.6875 192.347656 152.960938 190.621094 152.960938 188.511719 C 152.960938 186.402344 154.6875 184.675781 156.796875 184.675781 L 160.636719 184.675781 C 162.746094 184.675781 164.472656 186.402344 164.472656 188.511719 C 164.472656 190.621094 162.746094 192.347656 160.636719 192.347656 Z M 160.636719 177 L 156.796875 177 C 154.6875 177 152.960938 175.273438 152.960938 173.164062 C 152.960938 171.050781 154.6875 169.324219 156.796875 169.324219 L 160.636719 169.324219 C 162.746094 169.324219 164.472656 171.050781 164.472656 173.164062 C 164.472656 175.273438 162.746094 177 160.636719 177 Z M 160.636719 161.652344 L 156.796875 161.652344 C 154.6875 161.652344 152.960938 159.925781 152.960938 157.8125 C 152.960938 155.703125 154.6875 153.976562 156.796875 153.976562 L 160.636719 153.976562 C 162.746094 153.976562 164.472656 155.703125 164.472656 157.8125 C 164.472656 159.925781 162.746094 161.652344 160.636719 161.652344 Z M 160.636719 146.300781 L 156.796875 146.300781 C 154.6875 146.300781 152.960938 144.574219 152.960938 142.464844 C 152.960938 140.355469 154.6875 138.628906 156.796875 138.628906 L 160.636719 138.628906 C 162.746094 138.628906 164.472656 140.355469 164.472656 142.464844 C 164.472656 144.574219 162.746094 146.300781 160.636719 146.300781 Z M 160.636719 130.953125 L 156.796875 130.953125 C 154.6875 130.953125 152.960938 129.226562 152.960938 127.117188 C 152.960938 125.007812 154.6875 123.28125 156.796875 123.28125 L 160.636719 123.28125 C 162.746094 123.28125 164.472656 125.007812 164.472656 127.117188 C 164.472656 129.226562 162.746094 130.953125 160.636719 130.953125 Z M 160.636719 115.605469 L 156.796875 115.605469 C 154.6875 115.605469 152.960938 113.878906 152.960938 111.769531 C 152.960938 109.65625 154.6875 107.929688 156.796875 107.929688 L 160.636719 107.929688 C 162.746094 107.929688 164.472656 109.65625 164.472656 111.769531 C 164.472656 113.878906 162.746094 115.605469 160.636719 115.605469 Z M 179.820312 192.347656 L 175.984375 192.347656 C 173.875 192.347656 172.148438 190.621094 172.148438 188.511719 C 172.148438 186.402344 173.875 184.675781 175.984375 184.675781 L 179.820312 184.675781 C 181.933594 184.675781 183.660156 186.402344 183.660156 188.511719 C 183.660156 190.621094 181.933594 192.347656 179.820312 192.347656 Z M 179.820312 177 L 175.984375 177 C 173.875 177 172.148438 175.273438 172.148438 173.164062 C 172.148438 171.050781 173.875 169.324219 175.984375 169.324219 L 179.820312 169.324219 C 181.933594 169.324219 183.660156 171.050781 183.660156 173.164062 C 183.660156 175.273438 181.933594 177 179.820312 177 Z M 179.820312 161.652344 L 175.984375 161.652344 C 173.875 161.652344 172.148438 159.925781 172.148438 157.8125 C 172.148438 155.703125 173.875 153.976562 175.984375 153.976562 L 179.820312 153.976562 C 181.933594 153.976562 183.660156 155.703125 183.660156 157.8125 C 183.660156 159.925781 181.933594 161.652344 179.820312 161.652344 Z M 179.820312 146.300781 L 175.984375 146.300781 C 173.875 146.300781 172.148438 144.574219 172.148438 142.464844 C 172.148438 140.355469 173.875 138.628906 175.984375 138.628906 L 179.820312 138.628906 C 181.933594 138.628906 183.660156 140.355469 183.660156 142.464844 C 183.660156 144.574219 181.933594 146.300781 179.820312 146.300781 Z M 179.820312 130.953125 L 175.984375 130.953125 C 173.875 130.953125 172.148438 129.226562 172.148438 127.117188 C 172.148438 125.007812 173.875 123.28125 175.984375 123.28125 L 179.820312 123.28125 C 181.933594 123.28125 183.660156 125.007812 183.660156 127.117188 C 183.660156 129.226562 181.933594 130.953125 179.820312 130.953125 Z M 179.820312 115.605469 L 175.984375 115.605469 C 173.875 115.605469 172.148438 113.878906 172.148438 111.769531 C 172.148438 109.65625 173.875 107.929688 175.984375 107.929688 L 179.820312 107.929688 C 181.933594 107.929688 183.660156 109.65625 183.660156 111.769531 C 183.660156 113.878906 181.933594 115.605469 179.820312 115.605469 Z M 199.007812 192.347656 L 195.171875 192.347656 C 193.058594 192.347656 191.332031 190.621094 191.332031 188.511719 C 191.332031 186.402344 193.058594 184.675781 195.171875 184.675781 L 199.007812 184.675781 C 201.117188 184.675781 202.84375 186.402344 202.84375 188.511719 C 202.84375 190.621094 201.117188 192.347656 199.007812 192.347656 Z M 199.007812 177 L 195.171875 177 C 193.058594 177 191.332031 175.273438 191.332031 173.164062 C 191.332031 171.050781 193.058594 169.324219 195.171875 169.324219 L 199.007812 169.324219 C 201.117188 169.324219 202.84375 171.050781 202.84375 173.164062 C 202.84375 175.273438 201.117188 177 199.007812 177 Z M 199.007812 161.652344 L 195.171875 161.652344 C 193.058594 161.652344 191.332031 159.925781 191.332031 157.8125 C 191.332031 155.703125 193.058594 153.976562 195.171875 153.976562 L 199.007812 153.976562 C 201.117188 153.976562 202.84375 155.703125 202.84375 157.8125 C 202.84375 159.925781 201.117188 161.652344 199.007812 161.652344 Z M 199.007812 146.300781 L 195.171875 146.300781 C 193.058594 146.300781 191.332031 144.574219 191.332031 142.464844 C 191.332031 140.355469 193.058594 138.628906 195.171875 138.628906 L 199.007812 138.628906 C 201.117188 138.628906 202.84375 140.355469 202.84375 142.464844 C 202.84375 144.574219 201.117188 146.300781 199.007812 146.300781 Z M 199.007812 130.953125 L 195.171875 130.953125 C 193.058594 130.953125 191.332031 129.226562 191.332031 127.117188 C 191.332031 125.007812 193.058594 123.28125 195.171875 123.28125 L 199.007812 123.28125 C 201.117188 123.28125 202.84375 125.007812 202.84375 127.117188 C 202.84375 129.226562 201.117188 130.953125 199.007812 130.953125 Z M 199.007812 115.605469 L 195.171875 115.605469 C 193.058594 115.605469 191.332031 113.878906 191.332031 111.769531 C 191.332031 109.65625 193.058594 107.929688 195.171875 107.929688 L 199.007812 107.929688 C 201.117188 107.929688 202.84375 109.65625 202.84375 111.769531 C 202.84375 113.878906 201.117188 115.605469 199.007812 115.605469 Z M 218.191406 192.347656 L 214.355469 192.347656 C 212.246094 192.347656 210.519531 190.621094 210.519531 188.511719 C 210.519531 186.402344 212.246094 184.675781 214.355469 184.675781 L 218.191406 184.675781 C 220.304688 184.675781 222.03125 186.402344 222.03125 188.511719 C 222.03125 190.621094 220.304688 192.347656 218.191406 192.347656 Z M 218.191406 177 L 214.355469 177 C 212.246094 177 210.519531 175.273438 210.519531 173.164062 C 210.519531 171.050781 212.246094 169.324219 214.355469 169.324219 L 218.191406 169.324219 C 220.304688 169.324219 222.03125 171.050781 222.03125 173.164062 C 222.03125 175.273438 220.304688 177 218.191406 177 Z M 218.191406 161.652344 L 214.355469 161.652344 C 212.246094 161.652344 210.519531 159.925781 210.519531 157.8125 C 210.519531 155.703125 212.246094 153.976562 214.355469 153.976562 L 218.191406 153.976562 C 220.304688 153.976562 222.03125 155.703125 222.03125 157.8125 C 222.03125 159.925781 220.304688 161.652344 218.191406 161.652344 Z M 218.191406 146.300781 L 214.355469 146.300781 C 212.246094 146.300781 210.519531 144.574219 210.519531 142.464844 C 210.519531 140.355469 212.246094 138.628906 214.355469 138.628906 L 218.191406 138.628906 C 220.304688 138.628906 222.03125 140.355469 222.03125 142.464844 C 222.03125 144.574219 220.304688 146.300781 218.191406 146.300781 Z M 218.191406 130.953125 L 214.355469 130.953125 C 212.246094 130.953125 210.519531 129.226562 210.519531 127.117188 C 210.519531 125.007812 212.246094 123.28125 214.355469 123.28125 L 218.191406 123.28125 C 220.304688 123.28125 222.03125 125.007812 222.03125 127.117188 C 222.03125 129.226562 220.304688 130.953125 218.191406 130.953125 Z M 218.191406 115.605469 L 214.355469 115.605469 C 212.246094 115.605469 210.519531 113.878906 210.519531 111.769531 C 210.519531 109.65625 212.246094 107.929688 214.355469 107.929688 L 218.191406 107.929688 C 220.304688 107.929688 222.03125 109.65625 222.03125 111.769531 C 222.03125 113.878906 220.304688 115.605469 218.191406 115.605469 Z M 229.703125 92.582031 L 145.285156 92.582031 L 145.285156 85.484375 L 187.496094 66.105469 L 229.703125 85.484375 Z M 294.9375 238.203125 L 283.425781 238.203125 L 283.425781 165.488281 L 294.9375 165.488281 Z M 294.9375 238.203125 " fill-opacity="1" fill-rule="nonzero"/></g></svg>