<svg xmlns="http://www.w3.org/2000/svg" xmlns:xlink="http://www.w3.org/1999/xlink" width="500" zoomAndPan="magnify" viewBox="0 0 375 374.999991" height="500" preserveAspectRatio="xMidYMid meet" version="1.0"><defs><clipPath id="73f8319bea"><path d="M 187.5 0 C 83.945312 0 0 83.945312 0 187.5 C 0 291.054688 83.945312 375 187.5 375 C 291.054688 375 375 291.054688 375 187.5 C 375 83.945312 291.054688 0 187.5 0 Z M 187.5 0 " clip-rule="nonzero"/></clipPath><clipPath id="2b42974cb5"><path d="M 0 0 L 375 0 L 375 375 L 0 375 Z M 0 0 " clip-rule="nonzero"/></clipPath><clipPath id="aa87fcbf34"><path d="M 187.5 0 C 83.945312 0 0 83.945312 0 187.5 C 0 291.054688 83.945312 375 187.5 375 C 291.054688 375 375 291.054688 375 187.5 C 375 83.945312 291.054688 0 187.5 0 Z M 187.5 0 " clip-rule="nonzero"/></clipPath><clipPath id="0c853c3bab"><rect x="0" width="375" y="0" height="375"/></clipPath><clipPath id="03a94e45c2"><path d="M 34.007812 76.261719 L 340.757812 76.261719 L 340.757812 287.761719 L 34.007812 287.761719 Z M 34.007812 76.261719 " clip-rule="nonzero"/></clipPath></defs><g clip-path="url(#73f8319bea)"><g transform="matrix(1, 0, 0, 1, 0, 0)"><g clip-path="url(#0c853c3bab)"><g clip-path="url(#2b42974cb5)"><g clip-path="url(#aa87fcbf34)"><rect x="-82.5" width="540" fill="#e6ac41" height="539.999987" y="-82.499998" fill-opacity="1"/></g></g></g></g></g><path fill="#ffffff" d="M 167.132812 107.5 C 169.519531 106.507812 172.304688 106.707031 174.394531 108 C 178.472656 110.484375 182.25 111.976562 186.429688 112.675781 C 188.417969 113.070312 190.507812 113.070312 192.496094 112.675781 C 194.585938 112.277344 196.574219 111.679688 198.5625 110.984375 C 200.550781 110.285156 202.542969 109.191406 204.53125 108 C 205.824219 107.203125 207.214844 106.90625 208.609375 106.90625 C 209.703125 106.90625 210.796875 107.105469 211.792969 107.601562 C 216.167969 109.492188 220.046875 112.476562 223.628906 116.753906 C 222.933594 111.183594 221.140625 106.109375 218.15625 101.632812 C 212.488281 93.078125 199.160156 88.105469 189.511719 87.808594 C 179.863281 88.207031 166.535156 93.078125 160.867188 101.632812 C 157.882812 106.109375 156.089844 111.082031 155.394531 116.753906 C 158.777344 112.375 162.753906 109.390625 167.132812 107.5 Z M 167.132812 107.5 " fill-opacity="1" fill-rule="nonzero"/><path fill="#ffffff" d="M 209.007812 113.96875 C 208.707031 113.867188 208.410156 113.867188 208.113281 114.066406 C 203.335938 116.949219 198.761719 118.742188 193.789062 119.636719 C 192.394531 119.933594 190.902344 120.035156 189.414062 120.035156 C 187.921875 120.035156 186.527344 119.933594 185.035156 119.636719 C 180.0625 118.640625 175.488281 116.949219 170.710938 114.066406 C 170.515625 113.867188 170.117188 113.867188 169.816406 113.96875 C 164.246094 116.355469 159.574219 121.328125 155.496094 129.085938 C 158.675781 152.261719 168.722656 167.179688 186.230469 174.441406 C 188.21875 175.238281 190.507812 175.238281 192.394531 174.441406 C 209.902344 167.179688 219.949219 152.261719 223.132812 129.085938 C 219.152344 121.328125 214.476562 116.355469 209.007812 113.96875 Z M 209.007812 113.96875 " fill-opacity="1" fill-rule="nonzero"/><path fill="#ffffff" d="M 204.332031 201.894531 L 215.570312 183.292969 C 212.089844 180.90625 208.90625 178.121094 206.222656 174.839844 C 202.839844 177.226562 199.160156 179.316406 195.179688 181.007812 C 193.292969 181.800781 191.402344 182.101562 189.414062 182.101562 C 187.421875 182.101562 185.433594 181.703125 183.542969 181.007812 C 179.566406 179.316406 175.886719 177.328125 172.503906 174.839844 C 169.71875 178.023438 166.632812 180.90625 163.152344 183.292969 L 174.394531 201.894531 C 174.394531 201.894531 174.394531 201.894531 174.492188 201.894531 C 174.59375 201.796875 174.789062 201.695312 174.890625 201.597656 L 187.324219 192.941406 C 188.515625 192.148438 190.109375 192.148438 191.300781 192.941406 L 203.734375 201.597656 C 204.035156 201.695312 204.132812 201.796875 204.332031 201.894531 Z M 204.332031 201.894531 " fill-opacity="1" fill-rule="nonzero"/><path fill="#ffffff" d="M 181.15625 205.875 L 184.4375 214.128906 L 194.386719 214.128906 L 197.667969 205.875 L 189.414062 200.105469 Z M 181.15625 205.875 " fill-opacity="1" fill-rule="nonzero"/><path fill="#ffffff" d="M 193.886719 221.191406 L 184.9375 221.191406 L 177.675781 256.800781 L 189.414062 268.4375 L 201.148438 256.800781 Z M 193.886719 221.191406 " fill-opacity="1" fill-rule="nonzero"/><path fill="#ffffff" d="M 265.402344 132.167969 C 268.289062 133.960938 271.074219 135.054688 273.957031 135.550781 C 275.351562 135.75 276.742188 135.75 278.234375 135.550781 C 281.21875 135.054688 284.003906 133.960938 286.789062 132.167969 C 287.882812 131.472656 289.078125 131.175781 290.371094 131.175781 C 291.265625 131.175781 292.257812 131.375 293.054688 131.671875 C 295.640625 132.765625 297.929688 134.359375 300.117188 136.445312 C 299.421875 133.5625 298.328125 130.976562 296.734375 128.589844 C 292.65625 122.519531 283.109375 118.941406 276.144531 118.640625 C 269.183594 118.941406 259.632812 122.421875 255.554688 128.589844 C 253.964844 130.976562 252.773438 133.5625 252.175781 136.445312 C 254.363281 134.359375 256.652344 132.765625 259.238281 131.671875 C 261.226562 130.875 263.515625 130.976562 265.402344 132.167969 Z M 265.402344 132.167969 " fill-opacity="1" fill-rule="nonzero"/><path fill="#ffffff" d="M 274.257812 181.601562 C 275.550781 182.101562 276.941406 182.101562 278.234375 181.601562 C 290.867188 176.332031 298.128906 165.589844 300.515625 148.78125 C 297.628906 143.308594 294.347656 139.828125 290.46875 138.136719 C 286.789062 140.324219 283.40625 141.71875 279.527344 142.414062 C 278.433594 142.613281 277.238281 142.710938 276.144531 142.710938 C 275.050781 142.710938 273.859375 142.613281 272.765625 142.414062 C 268.984375 141.71875 265.503906 140.425781 261.824219 138.136719 C 258.042969 139.828125 254.761719 143.308594 251.777344 148.78125 C 254.261719 165.589844 261.523438 176.332031 274.257812 181.601562 Z M 274.257812 181.601562 " fill-opacity="1" fill-rule="nonzero"/><path fill="#ffffff" d="M 244.8125 194.335938 C 244.714844 194.234375 244.617188 194.234375 244.515625 194.234375 C 244.417969 194.234375 244.417969 194.136719 244.417969 194.136719 C 241.832031 192.84375 239.046875 191.847656 236.160156 191.152344 C 235.265625 190.953125 234.46875 190.753906 233.675781 190.65625 C 229.496094 189.957031 225.417969 188.664062 221.640625 186.777344 L 208.3125 208.757812 C 207.8125 209.554688 207.015625 210.148438 206.023438 210.347656 C 205.824219 210.449219 205.527344 210.449219 205.328125 210.449219 C 204.730469 210.449219 204.132812 210.25 203.636719 209.949219 L 200.453125 217.910156 L 208.507812 257.195312 C 208.707031 258.390625 208.410156 259.585938 207.515625 260.378906 L 197.964844 269.828125 L 235.464844 269.828125 L 235.464844 235.710938 C 235.464844 233.722656 237.054688 232.230469 238.945312 232.230469 C 240.835938 232.230469 242.425781 233.824219 242.425781 235.710938 L 242.425781 269.828125 L 266.300781 269.828125 L 266.300781 229.445312 C 266.300781 220.195312 263.015625 211.144531 257.046875 204.082031 C 253.765625 200.003906 249.589844 196.722656 244.8125 194.335938 Z M 244.8125 194.335938 " fill-opacity="1" fill-rule="nonzero"/><path fill="#ffffff" d="M 325.976562 205.175781 C 322 200.5 316.828125 197.21875 310.859375 195.828125 C 310.164062 195.726562 309.566406 195.527344 309.070312 195.429688 C 306.183594 194.933594 303.300781 194.035156 300.613281 192.84375 L 291.164062 208.558594 C 290.667969 209.355469 289.871094 209.949219 288.878906 210.148438 C 288.679688 210.25 288.378906 210.25 288.179688 210.25 C 287.980469 210.25 287.683594 210.25 287.386719 210.148438 L 285.394531 215.023438 L 291.265625 244.066406 C 291.464844 245.261719 291.164062 246.453125 290.269531 247.25 L 284.699219 252.722656 L 309.566406 252.722656 L 309.566406 228.253906 C 309.566406 226.261719 311.15625 224.769531 313.046875 224.769531 C 315.035156 224.769531 316.527344 226.363281 316.527344 228.253906 L 316.527344 252.722656 L 332.441406 252.722656 L 332.441406 223.578125 C 332.640625 216.714844 330.253906 210.25 325.976562 205.175781 Z M 325.976562 205.175781 " fill-opacity="1" fill-rule="nonzero"/><path fill="#ffffff" d="M 281.21875 206.171875 L 274.15625 201.199219 C 272.566406 200.105469 272.167969 197.914062 273.261719 196.324219 C 274.355469 194.734375 276.542969 194.335938 278.136719 195.429688 L 286.988281 201.597656 L 294.449219 189.261719 C 292.257812 187.671875 290.371094 185.878906 288.578125 183.992188 C 286.191406 185.582031 283.605469 187.074219 280.820312 188.167969 C 279.328125 188.765625 277.738281 189.164062 276.144531 189.164062 C 274.554688 189.164062 272.964844 188.863281 271.472656 188.167969 C 268.6875 187.074219 266.101562 185.582031 263.710938 183.992188 C 261.324219 186.675781 258.640625 188.964844 255.554688 190.753906 C 255.257812 190.953125 255.058594 191.152344 254.761719 191.25 C 254.5625 191.351562 254.261719 191.550781 253.964844 191.648438 C 257.148438 193.9375 260.03125 196.523438 262.519531 199.605469 C 265.503906 203.089844 267.890625 207.066406 269.679688 211.246094 C 269.980469 211.144531 270.277344 211.144531 270.675781 211.144531 L 279.230469 211.144531 Z M 281.21875 206.171875 " fill-opacity="1" fill-rule="nonzero"/><path fill="#ffffff" d="M 272.066406 218.105469 C 273.0625 221.789062 273.460938 225.667969 273.460938 229.546875 L 273.460938 252.621094 L 274.753906 252.621094 L 284.003906 243.472656 L 278.832031 218.105469 Z M 272.066406 218.105469 " fill-opacity="1" fill-rule="nonzero"/><path fill="#ffffff" d="M 91.9375 132.167969 C 94.820312 133.960938 97.605469 135.054688 100.488281 135.550781 C 101.882812 135.75 103.273438 135.75 104.765625 135.550781 C 107.75 135.054688 110.535156 133.960938 113.320312 132.167969 C 115.210938 131.074219 117.597656 130.875 119.585938 131.769531 C 122.171875 132.867188 124.460938 134.457031 126.648438 136.546875 C 125.953125 133.660156 124.859375 131.074219 123.269531 128.6875 C 119.191406 122.621094 109.640625 119.039062 102.679688 118.742188 C 95.714844 119.039062 86.167969 122.519531 82.089844 128.6875 C 80.496094 131.074219 79.304688 133.660156 78.707031 136.546875 C 80.894531 134.457031 83.183594 132.867188 85.769531 131.769531 C 87.757812 130.875 90.046875 130.976562 91.9375 132.167969 Z M 91.9375 132.167969 " fill-opacity="1" fill-rule="nonzero"/><path fill="#ffffff" d="M 100.6875 181.601562 C 101.980469 182.101562 103.375 182.101562 104.667969 181.601562 C 117.300781 176.332031 124.5625 165.589844 126.949219 148.78125 C 124.0625 143.308594 120.78125 139.828125 116.902344 138.136719 C 113.222656 140.324219 109.839844 141.71875 105.960938 142.414062 C 103.671875 142.8125 101.386719 142.8125 99.195312 142.414062 C 95.417969 141.71875 91.9375 140.425781 88.257812 138.136719 C 84.476562 139.828125 81.195312 143.308594 78.210938 148.78125 C 80.695312 165.589844 88.058594 176.332031 100.6875 181.601562 Z M 100.6875 181.601562 " fill-opacity="1" fill-rule="nonzero"/><path fill="#ffffff" d="M 170.414062 257.195312 L 178.371094 217.910156 L 175.1875 209.949219 C 174.492188 210.347656 173.597656 210.449219 172.703125 210.347656 C 171.707031 210.148438 170.910156 209.554688 170.414062 208.757812 L 157.085938 186.777344 C 153.304688 188.664062 149.226562 189.859375 145.050781 190.65625 C 144.15625 190.855469 143.359375 190.953125 142.5625 191.152344 C 139.679688 191.847656 136.992188 192.84375 134.40625 194.035156 C 134.207031 194.136719 134.011719 194.234375 133.910156 194.234375 C 120.878906 200.800781 112.425781 214.226562 112.425781 229.347656 L 112.425781 269.730469 L 136.296875 269.730469 L 136.296875 235.613281 C 136.296875 233.625 137.890625 232.132812 139.777344 232.132812 C 141.667969 232.132812 143.261719 233.722656 143.261719 235.613281 L 143.261719 269.730469 L 180.757812 269.730469 L 171.210938 260.28125 C 170.515625 259.585938 170.117188 258.390625 170.414062 257.195312 Z M 170.414062 257.195312 " fill-opacity="1" fill-rule="nonzero"/><path fill="#ffffff" d="M 94.921875 243.472656 L 104.171875 252.621094 L 105.464844 252.621094 L 105.464844 229.546875 C 105.464844 225.566406 105.960938 221.886719 106.855469 218.105469 L 100.191406 218.105469 Z M 94.921875 243.472656 " fill-opacity="1" fill-rule="nonzero"/><path fill="#ffffff" d="M 87.558594 243.96875 L 93.429688 214.925781 L 91.4375 210.050781 C 91.238281 210.148438 90.941406 210.148438 90.644531 210.148438 C 90.445312 210.148438 90.144531 210.148438 89.945312 210.050781 C 88.953125 209.851562 88.15625 209.253906 87.660156 208.460938 L 78.210938 192.742188 C 75.523438 193.9375 72.640625 194.832031 69.753906 195.328125 C 69.160156 195.429688 68.5625 195.527344 67.964844 195.726562 C 55.035156 198.910156 46.082031 210.25 46.082031 223.476562 L 46.082031 252.621094 L 62.097656 252.621094 L 62.097656 228.152344 C 62.097656 226.164062 63.6875 224.671875 65.578125 224.671875 C 67.566406 224.671875 69.058594 226.261719 69.058594 228.152344 L 69.058594 252.621094 L 93.925781 252.621094 L 88.355469 247.152344 C 87.757812 246.355469 87.359375 245.160156 87.558594 243.96875 Z M 87.558594 243.96875 " fill-opacity="1" fill-rule="nonzero"/><path fill="#ffffff" d="M 124.757812 191.648438 C 124.5625 191.550781 124.261719 191.351562 123.964844 191.25 C 120.582031 189.363281 117.597656 186.875 115.011719 183.992188 C 112.625 185.582031 110.039062 187.074219 107.253906 188.167969 C 105.761719 188.765625 104.171875 189.164062 102.578125 189.164062 C 100.988281 189.164062 99.394531 188.863281 97.902344 188.167969 C 95.117188 187.074219 92.53125 185.582031 90.144531 183.992188 C 88.453125 185.980469 86.464844 187.769531 84.277344 189.261719 L 91.738281 201.597656 L 100.589844 195.429688 C 102.179688 194.335938 104.371094 194.734375 105.464844 196.324219 C 106.558594 197.914062 106.160156 200.105469 104.566406 201.199219 L 97.507812 206.171875 L 99.496094 211.046875 L 108.050781 211.046875 C 108.347656 211.046875 108.746094 211.144531 109.042969 211.144531 C 112.425781 203.386719 117.898438 196.621094 124.757812 191.648438 Z M 124.757812 191.648438 " fill-opacity="1" fill-rule="nonzero"/><g clip-path="url(#03a94e45c2)"><path fill="#ffffff" d="M 409.328125 85.917969 C 397.292969 57.472656 380.085938 32.007812 358.203125 10.027344 C 336.324219 -11.855469 310.761719 -29.0625 282.3125 -41.097656 C 252.871094 -53.53125 221.640625 -59.898438 189.414062 -59.898438 C 157.183594 -59.898438 125.953125 -53.632812 96.511719 -41.097656 C 68.066406 -29.0625 42.601562 -11.855469 20.621094 10.027344 C -1.363281 31.910156 -18.46875 57.472656 -30.503906 85.917969 C -42.9375 115.359375 -49.304688 146.589844 -49.304688 178.820312 C -49.304688 211.046875 -43.039062 242.277344 -30.503906 271.71875 C -18.46875 300.167969 -1.261719 325.628906 20.621094 347.609375 C 42.5 369.492188 68.066406 386.699219 96.511719 398.734375 C 125.953125 411.167969 157.183594 417.535156 189.414062 417.535156 C 221.640625 417.535156 252.871094 411.269531 282.3125 398.734375 C 310.761719 386.699219 336.222656 369.492188 358.203125 347.609375 C 380.085938 325.730469 397.292969 300.167969 409.328125 271.71875 C 421.761719 242.277344 428.128906 211.046875 428.128906 178.820312 C 428.128906 146.589844 421.761719 115.359375 409.328125 85.917969 Z M 419.175781 178.820312 C 419.175781 305.539062 316.03125 408.683594 189.3125 408.683594 C 62.59375 408.683594 -40.550781 305.539062 -40.550781 178.820312 C -40.550781 52.101562 62.59375 -51.046875 189.3125 -51.046875 C 316.132812 -51.046875 419.175781 52.101562 419.175781 178.820312 Z M 419.175781 178.820312 " fill-opacity="1" fill-rule="nonzero"/></g></svg>