<svg xmlns="http://www.w3.org/2000/svg" xmlns:xlink="http://www.w3.org/1999/xlink" width="500" zoomAndPan="magnify" viewBox="0 0 375 374.999991" height="500" preserveAspectRatio="xMidYMid meet" version="1.0"><path fill="#ff0020" d="M 281.308594 61.304688 L 335.902344 61.304688 L 281.308594 6.941406 Z M 281.308594 61.304688 " fill-opacity="1" fill-rule="evenodd"/><path fill="#203b66" d="M 276.449219 71.253906 C 273.671875 71.253906 271.359375 69.171875 271.359375 66.394531 L 271.359375 0 L 59.683594 0 L 59.683594 93 L 225.785156 93 C 228.5625 93 230.644531 95.3125 230.644531 97.855469 L 230.644531 164.945312 C 230.644531 167.71875 228.5625 169.800781 225.785156 169.800781 L 59.683594 169.800781 L 59.683594 375 L 343.074219 375 L 343.074219 169.800781 L 276.449219 169.800781 C 273.671875 169.800781 271.359375 167.71875 271.359375 164.945312 L 271.359375 98.085938 C 271.359375 95.3125 273.671875 93.230469 276.449219 93.230469 L 343.074219 93.230469 L 343.074219 71.253906 Z M 77.960938 200.570312 L 324.566406 200.570312 C 327.34375 200.570312 329.65625 202.882812 329.65625 205.660156 C 329.65625 208.4375 327.34375 210.519531 324.566406 210.519531 L 77.960938 210.519531 C 75.417969 210.519531 73.101562 208.4375 73.101562 205.660156 C 73.101562 202.882812 75.417969 200.570312 77.960938 200.570312 Z M 232.496094 51.589844 L 98.78125 51.589844 C 96.003906 51.589844 93.691406 49.273438 93.691406 46.5 C 93.691406 43.722656 96.003906 41.640625 98.78125 41.640625 L 232.496094 41.640625 C 235.039062 41.640625 237.351562 43.722656 237.351562 46.5 C 237.351562 49.273438 235.039062 51.589844 232.496094 51.589844 Z M 232.496094 30.535156 L 98.78125 30.535156 C 96.003906 30.535156 93.691406 28.222656 93.691406 25.445312 C 93.691406 22.671875 96.003906 20.589844 98.78125 20.589844 L 232.496094 20.589844 C 235.039062 20.589844 237.351562 22.671875 237.351562 25.445312 C 237.351562 28.222656 235.039062 30.535156 232.496094 30.535156 Z M 232.496094 72.640625 L 98.78125 72.640625 C 96.003906 72.640625 93.691406 70.328125 93.691406 67.550781 C 93.691406 64.773438 96.003906 62.691406 98.78125 62.691406 L 232.496094 62.691406 C 235.039062 62.691406 237.351562 64.773438 237.351562 67.550781 C 237.351562 70.328125 235.039062 72.640625 232.496094 72.640625 Z M 283.160156 234.113281 L 324.566406 234.113281 C 327.34375 234.113281 329.65625 236.195312 329.65625 238.972656 C 329.65625 241.75 327.34375 244.0625 324.566406 244.0625 L 283.160156 244.0625 C 280.382812 244.0625 278.300781 241.75 278.300781 238.972656 C 278.300781 236.195312 280.382812 234.113281 283.160156 234.113281 Z M 77.960938 267.425781 L 324.566406 267.425781 C 327.34375 267.425781 329.65625 269.742188 329.65625 272.515625 C 329.65625 275.0625 327.34375 277.375 324.566406 277.375 L 77.960938 277.375 C 75.417969 277.375 73.101562 275.0625 73.101562 272.515625 C 73.101562 269.742188 75.417969 267.425781 77.960938 267.425781 Z M 283.160156 300.742188 L 324.566406 300.742188 C 327.34375 300.742188 329.65625 303.054688 329.65625 305.828125 C 329.65625 308.605469 327.34375 310.6875 324.566406 310.6875 L 283.160156 310.6875 C 280.382812 310.6875 278.300781 308.605469 278.300781 305.828125 C 278.300781 303.054688 280.382812 300.742188 283.160156 300.742188 Z M 77.960938 234.113281 L 257.015625 234.113281 C 259.792969 234.113281 261.875 236.195312 261.875 238.972656 C 261.875 241.75 259.792969 244.0625 257.015625 244.0625 L 77.960938 244.0625 C 75.417969 244.0625 73.101562 241.75 73.101562 238.972656 C 73.101562 236.195312 75.417969 234.113281 77.960938 234.113281 Z M 77.960938 300.742188 L 257.015625 300.742188 C 259.792969 300.742188 261.875 303.054688 261.875 305.828125 C 261.875 308.605469 259.792969 310.6875 257.015625 310.6875 L 77.960938 310.6875 C 75.417969 310.6875 73.101562 308.605469 73.101562 305.828125 C 73.101562 303.054688 75.417969 300.742188 77.960938 300.742188 Z M 77.960938 334.285156 L 324.566406 334.285156 C 327.34375 334.285156 329.65625 336.597656 329.65625 339.140625 C 329.65625 341.917969 327.34375 344.230469 324.566406 344.230469 L 77.960938 344.230469 C 75.417969 344.230469 73.101562 341.917969 73.101562 339.140625 C 73.101562 336.367188 75.417969 334.285156 77.960938 334.285156 Z M 77.960938 334.285156 " fill-opacity="1" fill-rule="evenodd"/><path fill="#ff0020" d="M 220.695312 159.855469 L 220.695312 102.945312 L 54.828125 102.945312 C 54.597656 102.945312 54.363281 102.945312 54.132812 102.945312 L 31.925781 102.945312 L 31.925781 159.855469 Z M 174.429688 117.75 L 169.109375 117.75 L 169.109375 150.601562 C 169.109375 153.609375 166.796875 155.921875 163.789062 155.921875 C 160.78125 155.921875 158.46875 153.609375 158.46875 150.601562 L 158.46875 117.75 L 153.144531 117.75 C 150.140625 117.75 147.824219 115.4375 147.824219 112.429688 C 147.824219 109.421875 150.140625 107.109375 153.144531 107.109375 L 174.429688 107.109375 C 177.4375 107.109375 179.75 109.421875 179.75 112.429688 C 179.75 115.4375 177.4375 117.75 174.429688 117.75 Z M 141.117188 139.960938 C 141.117188 148.75 134.175781 155.921875 125.617188 155.921875 L 115.667969 155.921875 C 112.660156 155.921875 110.347656 153.609375 110.347656 150.601562 L 110.347656 112.429688 C 110.347656 109.421875 112.660156 107.109375 115.667969 107.109375 L 125.617188 107.109375 C 134.175781 107.109375 141.117188 114.28125 141.117188 123.070312 Z M 103.640625 150.601562 C 103.640625 153.609375 101.09375 155.921875 98.320312 155.921875 C 95.3125 155.921875 92.765625 153.609375 92.765625 150.601562 L 92.765625 135.332031 L 83.511719 135.332031 L 83.511719 150.601562 C 83.511719 153.609375 81.199219 155.921875 78.191406 155.921875 C 75.417969 155.921875 72.871094 153.609375 72.871094 150.601562 L 72.871094 130.707031 C 72.871094 130.476562 72.871094 130.242188 72.871094 130.011719 C 72.871094 129.78125 72.871094 129.78125 72.871094 129.550781 L 72.871094 120.757812 C 72.871094 113.125 79.117188 107.109375 86.753906 107.109375 L 89.757812 107.109375 C 97.394531 107.109375 103.640625 113.125 103.640625 120.757812 Z M 103.640625 150.601562 " fill-opacity="1" fill-rule="evenodd"/><path fill="#ff0020" d="M 130.242188 139.960938 L 130.242188 123.070312 C 130.242188 120.296875 128.160156 117.75 125.617188 117.75 L 120.988281 117.75 L 120.988281 145.28125 L 125.617188 145.28125 C 128.160156 145.28125 130.242188 142.734375 130.242188 139.960938 Z M 130.242188 139.960938 " fill-opacity="1" fill-rule="evenodd"/><path fill="#ff0020" d="M 92.765625 124.691406 L 92.765625 120.757812 C 92.765625 119.140625 91.378906 117.75 89.757812 117.75 L 86.753906 117.75 C 85.132812 117.75 83.511719 119.140625 83.511719 120.757812 L 83.511719 124.691406 Z M 92.765625 124.691406 " fill-opacity="1" fill-rule="evenodd"/><path fill="#ff0020" d="M 281.308594 102.945312 L 281.308594 159.855469 L 343.074219 159.855469 L 343.074219 102.945312 Z M 332.894531 118.214844 L 291.488281 118.214844 C 288.710938 118.214844 286.398438 115.902344 286.398438 113.125 C 286.398438 110.347656 288.710938 108.265625 291.488281 108.265625 L 332.894531 108.265625 C 335.671875 108.265625 337.984375 110.347656 337.984375 113.125 C 337.984375 115.902344 335.671875 118.214844 332.894531 118.214844 Z M 332.894531 126.542969 C 335.671875 126.542969 337.984375 128.855469 337.984375 131.398438 C 337.984375 134.175781 335.671875 136.488281 332.894531 136.488281 L 291.488281 136.488281 C 288.710938 136.488281 286.398438 134.175781 286.398438 131.398438 C 286.398438 128.855469 288.710938 126.542969 291.488281 126.542969 Z M 291.488281 144.816406 L 332.894531 144.816406 C 335.671875 144.816406 337.984375 147.132812 337.984375 149.675781 C 337.984375 152.453125 335.671875 154.765625 332.894531 154.765625 L 291.488281 154.765625 C 288.710938 154.765625 286.398438 152.453125 286.398438 149.675781 C 286.398438 147.132812 288.710938 144.816406 291.488281 144.816406 Z M 291.488281 144.816406 " fill-opacity="1" fill-rule="evenodd"/><path fill="#ff0020" d="M 281.308594 61.304688 L 335.902344 61.304688 L 281.308594 6.941406 Z M 281.308594 61.304688 " fill-opacity="1" fill-rule="evenodd"/><path fill="#203b66" d="M 276.449219 71.253906 C 273.671875 71.253906 271.359375 69.171875 271.359375 66.394531 L 271.359375 0 L 59.683594 0 L 59.683594 93 L 225.785156 93 C 228.5625 93 230.644531 95.3125 230.644531 97.855469 L 230.644531 164.945312 C 230.644531 167.71875 228.5625 169.800781 225.785156 169.800781 L 59.683594 169.800781 L 59.683594 375 L 343.074219 375 L 343.074219 169.800781 L 276.449219 169.800781 C 273.671875 169.800781 271.359375 167.71875 271.359375 164.945312 L 271.359375 98.085938 C 271.359375 95.3125 273.671875 93.230469 276.449219 93.230469 L 343.074219 93.230469 L 343.074219 71.253906 Z M 77.960938 200.570312 L 324.566406 200.570312 C 327.34375 200.570312 329.65625 202.882812 329.65625 205.660156 C 329.65625 208.4375 327.34375 210.519531 324.566406 210.519531 L 77.960938 210.519531 C 75.417969 210.519531 73.101562 208.4375 73.101562 205.660156 C 73.101562 202.882812 75.417969 200.570312 77.960938 200.570312 Z M 232.496094 51.589844 L 98.78125 51.589844 C 96.003906 51.589844 93.691406 49.273438 93.691406 46.5 C 93.691406 43.722656 96.003906 41.640625 98.78125 41.640625 L 232.496094 41.640625 C 235.039062 41.640625 237.351562 43.722656 237.351562 46.5 C 237.351562 49.273438 235.039062 51.589844 232.496094 51.589844 Z M 232.496094 30.535156 L 98.78125 30.535156 C 96.003906 30.535156 93.691406 28.222656 93.691406 25.445312 C 93.691406 22.671875 96.003906 20.589844 98.78125 20.589844 L 232.496094 20.589844 C 235.039062 20.589844 237.351562 22.671875 237.351562 25.445312 C 237.351562 28.222656 235.039062 30.535156 232.496094 30.535156 Z M 232.496094 72.640625 L 98.78125 72.640625 C 96.003906 72.640625 93.691406 70.328125 93.691406 67.550781 C 93.691406 64.773438 96.003906 62.691406 98.78125 62.691406 L 232.496094 62.691406 C 235.039062 62.691406 237.351562 64.773438 237.351562 67.550781 C 237.351562 70.328125 235.039062 72.640625 232.496094 72.640625 Z M 283.160156 234.113281 L 324.566406 234.113281 C 327.34375 234.113281 329.65625 236.195312 329.65625 238.972656 C 329.65625 241.75 327.34375 244.0625 324.566406 244.0625 L 283.160156 244.0625 C 280.382812 244.0625 278.300781 241.75 278.300781 238.972656 C 278.300781 236.195312 280.382812 234.113281 283.160156 234.113281 Z M 77.960938 267.425781 L 324.566406 267.425781 C 327.34375 267.425781 329.65625 269.742188 329.65625 272.515625 C 329.65625 275.0625 327.34375 277.375 324.566406 277.375 L 77.960938 277.375 C 75.417969 277.375 73.101562 275.0625 73.101562 272.515625 C 73.101562 269.742188 75.417969 267.425781 77.960938 267.425781 Z M 283.160156 300.742188 L 324.566406 300.742188 C 327.34375 300.742188 329.65625 303.054688 329.65625 305.828125 C 329.65625 308.605469 327.34375 310.6875 324.566406 310.6875 L 283.160156 310.6875 C 280.382812 310.6875 278.300781 308.605469 278.300781 305.828125 C 278.300781 303.054688 280.382812 300.742188 283.160156 300.742188 Z M 77.960938 234.113281 L 257.015625 234.113281 C 259.792969 234.113281 261.875 236.195312 261.875 238.972656 C 261.875 241.75 259.792969 244.0625 257.015625 244.0625 L 77.960938 244.0625 C 75.417969 244.0625 73.101562 241.75 73.101562 238.972656 C 73.101562 236.195312 75.417969 234.113281 77.960938 234.113281 Z M 77.960938 300.742188 L 257.015625 300.742188 C 259.792969 300.742188 261.875 303.054688 261.875 305.828125 C 261.875 308.605469 259.792969 310.6875 257.015625 310.6875 L 77.960938 310.6875 C 75.417969 310.6875 73.101562 308.605469 73.101562 305.828125 C 73.101562 303.054688 75.417969 300.742188 77.960938 300.742188 Z M 77.960938 334.285156 L 324.566406 334.285156 C 327.34375 334.285156 329.65625 336.597656 329.65625 339.140625 C 329.65625 341.917969 327.34375 344.230469 324.566406 344.230469 L 77.960938 344.230469 C 75.417969 344.230469 73.101562 341.917969 73.101562 339.140625 C 73.101562 336.367188 75.417969 334.285156 77.960938 334.285156 Z M 77.960938 334.285156 " fill-opacity="1" fill-rule="evenodd"/><path fill="#ff0020" d="M 220.695312 159.855469 L 220.695312 102.945312 L 54.828125 102.945312 C 54.597656 102.945312 54.363281 102.945312 54.132812 102.945312 L 31.925781 102.945312 L 31.925781 159.855469 Z M 174.429688 117.75 L 169.109375 117.75 L 169.109375 150.601562 C 169.109375 153.609375 166.796875 155.921875 163.789062 155.921875 C 160.78125 155.921875 158.46875 153.609375 158.46875 150.601562 L 158.46875 117.75 L 153.144531 117.75 C 150.140625 117.75 147.824219 115.4375 147.824219 112.429688 C 147.824219 109.421875 150.140625 107.109375 153.144531 107.109375 L 174.429688 107.109375 C 177.4375 107.109375 179.75 109.421875 179.75 112.429688 C 179.75 115.4375 177.4375 117.75 174.429688 117.75 Z M 141.117188 139.960938 C 141.117188 148.75 134.175781 155.921875 125.617188 155.921875 L 115.667969 155.921875 C 112.660156 155.921875 110.347656 153.609375 110.347656 150.601562 L 110.347656 112.429688 C 110.347656 109.421875 112.660156 107.109375 115.667969 107.109375 L 125.617188 107.109375 C 134.175781 107.109375 141.117188 114.28125 141.117188 123.070312 Z M 103.640625 150.601562 C 103.640625 153.609375 101.09375 155.921875 98.320312 155.921875 C 95.3125 155.921875 92.765625 153.609375 92.765625 150.601562 L 92.765625 135.332031 L 83.511719 135.332031 L 83.511719 150.601562 C 83.511719 153.609375 81.199219 155.921875 78.191406 155.921875 C 75.417969 155.921875 72.871094 153.609375 72.871094 150.601562 L 72.871094 130.707031 C 72.871094 130.476562 72.871094 130.242188 72.871094 130.011719 C 72.871094 129.78125 72.871094 129.78125 72.871094 129.550781 L 72.871094 120.757812 C 72.871094 113.125 79.117188 107.109375 86.753906 107.109375 L 89.757812 107.109375 C 97.394531 107.109375 103.640625 113.125 103.640625 120.757812 Z M 103.640625 150.601562 " fill-opacity="1" fill-rule="evenodd"/><path fill="#ff0020" d="M 130.242188 139.960938 L 130.242188 123.070312 C 130.242188 120.296875 128.160156 117.75 125.617188 117.75 L 120.988281 117.75 L 120.988281 145.28125 L 125.617188 145.28125 C 128.160156 145.28125 130.242188 142.734375 130.242188 139.960938 Z M 130.242188 139.960938 " fill-opacity="1" fill-rule="evenodd"/><path fill="#ff0020" d="M 92.765625 124.691406 L 92.765625 120.757812 C 92.765625 119.140625 91.378906 117.75 89.757812 117.75 L 86.753906 117.75 C 85.132812 117.75 83.511719 119.140625 83.511719 120.757812 L 83.511719 124.691406 Z M 92.765625 124.691406 " fill-opacity="1" fill-rule="evenodd"/><path fill="#ff0020" d="M 281.308594 102.945312 L 281.308594 159.855469 L 343.074219 159.855469 L 343.074219 102.945312 Z M 332.894531 118.214844 L 291.488281 118.214844 C 288.710938 118.214844 286.398438 115.902344 286.398438 113.125 C 286.398438 110.347656 288.710938 108.265625 291.488281 108.265625 L 332.894531 108.265625 C 335.671875 108.265625 337.984375 110.347656 337.984375 113.125 C 337.984375 115.902344 335.671875 118.214844 332.894531 118.214844 Z M 332.894531 126.542969 C 335.671875 126.542969 337.984375 128.855469 337.984375 131.398438 C 337.984375 134.175781 335.671875 136.488281 332.894531 136.488281 L 291.488281 136.488281 C 288.710938 136.488281 286.398438 134.175781 286.398438 131.398438 C 286.398438 128.855469 288.710938 126.542969 291.488281 126.542969 Z M 291.488281 144.816406 L 332.894531 144.816406 C 335.671875 144.816406 337.984375 147.132812 337.984375 149.675781 C 337.984375 152.453125 335.671875 154.765625 332.894531 154.765625 L 291.488281 154.765625 C 288.710938 154.765625 286.398438 152.453125 286.398438 149.675781 C 286.398438 147.132812 288.710938 144.816406 291.488281 144.816406 Z M 291.488281 144.816406 " fill-opacity="1" fill-rule="evenodd"/></svg>